<svg xmlns="http://www.w3.org/2000/svg" width="200" height="230"><defs><clipPath id="a"><path data-name="長方形 180" transform="translate(450 1327)" fill="#ccc" d="M0 0h200v230H0z"/></clipPath></defs><g data-name="マスクグループ 571" transform="translate(-450 -1327)" clip-path="url(#a)"><g data-name="グループ 3439" fill="none" stroke="#c49535" stroke-linecap="round" stroke-linejoin="round" stroke-width="1.308"><path data-name="線 115131" d="M637.002 1518.53l-41.889 24.148"/><path data-name="線 115132" d="M548.8 1365.469l-41.082 23.778"/><path data-name="線 115133" d="M505.691 1389.246v-47.141"/><path data-name="線 115134" d="M638.2 1538.254V1340.1"/><path data-name="線 115135" d="M463.802 1543.899v-23.756"/><path data-name="線 115136" d="M579.007 1340.1h-74.122"/><path data-name="線 115137" d="M506.105 1341.713l.806-.414"/><path data-name="線 115138" d="M551.22 1364.27l-42.303-24.17"/><path data-name="線 115139" d="M551.22 1366.689l-46.335-26.589"/><path data-name="線 115140" d="M551.22 1417.841l-42.303 24.148"/><path data-name="線 115141" d="M548.8 1416.62l-41.889 24.17"/><path data-name="線 115142" d="M508.917 1391.251l42.303 24.17"/><path data-name="線 115143" d="M508.11 1392.864l43.109 24.976"/><path data-name="線 115144" d="M551.22 1366.689l-42.303 24.562"/><path data-name="線 115145" d="M505.691 1397.288v-4.424"/><path data-name="線 115146" d="M505.691 1439.983v-47.119"/><path data-name="線 115147" d="M505.691 1391.644l1.22.806"/><path data-name="線 115148" d="M506.912 1392.45l-41.889 24.17"/><path data-name="線 115149" d="M506.105 1341.713l-41.082 23.756"/><path data-name="線 115150" d="M463.802 1391.252v-23.756"/><path data-name="線 115151" d="M549.999 1363.856V1340.1"/><path data-name="線 115152" d="M506.105 1443.601l.806-.392"/><path data-name="線 115153" d="M551.22 1466.159l-42.303-24.17"/><path data-name="線 115154" d="M551.22 1468.578l-46.335-26.589"/><path data-name="線 115155" d="M551.22 1519.729l-42.303 24.17"/><path data-name="線 115156" d="M548.8 1518.53l-41.889 24.148"/><path data-name="線 115157" d="M505.691 1491.135v-47.119"/><path data-name="線 115158" d="M508.917 1493.14l42.303 24.17"/><path data-name="線 115159" d="M508.11 1494.753l43.109 24.976"/><path data-name="線 115160" d="M551.22 1468.578l-42.303 24.562"/><path data-name="線 115161" d="M505.691 1499.199v-4.446"/><path data-name="線 115162" d="M505.691 1541.872v-47.119"/><path data-name="線 115163" d="M505.691 1493.554l1.22.806"/><path data-name="線 115164" d="M506.912 1494.36l-41.889 24.17"/><path data-name="線 115165" d="M506.105 1443.601l-41.082 23.778"/><path data-name="線 115166" d="M594.307 1341.713l.806-.414"/><path data-name="線 115167" d="M638.2 1391.252v-23.756"/><path data-name="線 115168" d="M637.002 1416.62l-41.889 24.17"/><path data-name="線 115169" d="M593.893 1389.246v-47.141"/><path data-name="線 115170" d="M596.312 1389.246v-47.141"/><path data-name="線 115171" d="M593.086 1441.989l-41.867-24.148"/><path data-name="線 115172" d="M593.086 1391.251l-41.867 24.17"/><path data-name="線 115173" d="M597.118 1441.988l-45.899-26.567"/><path data-name="線 115174" d="M595.113 1392.45l-41.889 24.17"/><path data-name="線 115175" d="M594.306 1341.713l-41.082 23.756"/><path data-name="線 115176" d="M593.086 1340.1l-41.867 24.17"/><path data-name="線 115177" d="M637.001 1467.379l-41.082 23.756"/><path data-name="線 115178" d="M638.2 1493.14v-23.756"/><path data-name="線 115179" d="M638.2 1516.504v-23.364"/><path data-name="線 115180" d="M638.2 1543.899v-23.756"/><path data-name="線 115181" d="M593.893 1491.135v-47.119"/><path data-name="線 115182" d="M596.312 1541.872v-47.119"/><path data-name="線 115183" d="M593.893 1499.199v-4.446"/><path data-name="線 115184" d="M593.893 1541.872v-47.119"/><path data-name="線 115185" d="M593.893 1493.554l1.22.806"/><path data-name="線 115186" d="M593.086 1543.899l-41.867-24.17"/><path data-name="線 115187" d="M593.086 1493.14l-41.867 24.17"/><path data-name="線 115188" d="M597.118 1543.899l-45.899-26.589"/><path data-name="線 115189" d="M595.113 1494.36l-41.889 24.17"/><path data-name="線 115190" d="M552.004 1543.899v-23.756"/><path data-name="線 115191" d="M594.306 1443.601l-41.082 23.778"/><path data-name="線 115192" d="M593.086 1441.989l-41.867 24.17"/><path data-name="線 115193" d="M593.892 1493.554l-42.673-24.976"/><path data-name="線 115194" d="M638.2 1465.767v-23.778"/><path data-name="線 115195" d="M649.076 1554.774H450.922"/><path data-name="線 115196" d="M649.076 1554.774v-225.549"/><path data-name="線 115197" d="M450.922 1554.774v-225.549"/><path data-name="線 115198" d="M649.076 1329.225H450.922"/><path data-name="線 115199" d="M508.11 1543.092h0"/><path data-name="線 115200" d="M596.312 1541.872l.414-.392"/><path data-name="線 115201" d="M598.339 1543.092h0"/><path data-name="線 115202" d="M599.537 1539.867l-2.811 1.613"/><path data-name="線 115203" d="M506.912 1491.527l-3.64-1.591"/><path data-name="線 115204" d="M551.22 1517.31l-3.64-2.005"/><path data-name="線 115205" d="M463.802 1532.217V1340.1"/><path data-name="線 115206" d="M504.884 1340.1l-41.082 23.756"/><path data-name="線 115207" d="M508.11 1390.445l-44.308-25.369"/><path data-name="線 115208" d="M505.691 1391.644l-41.889-24.148"/><path data-name="線 115209" d="M504.884 1543.899h-41.082"/><path data-name="線 115210" d="M638.201 1543.899H504.885"/><path data-name="線 115211" d="M597.118 1493.14l41.082 23.364"/><path data-name="線 115212" d="M596.312 1494.753l41.889 24.17"/><path data-name="線 115213" d="M638.2 1520.143l-41.082 23.756"/><path data-name="線 115214" d="M597.118 1391.251l41.082 23.364"/><path data-name="線 115215" d="M596.312 1392.864l41.889 24.17"/><path data-name="線 115216" d="M638.2 1418.233l-41.082 23.756"/><path data-name="線 115217" d="M638.2 1363.856l-41.082-23.756"/><path data-name="線 115218" d="M638.2 1366.275l-45.114-26.175"/><path data-name="線 115219" d="M638.2 1367.496l-41.082 23.756"/><path data-name="線 115220" d="M638.2 1340.1H463.802"/><path data-name="線 115221" d="M450.922 1329.225l12.88 10.875"/><path data-name="線 115222" d="M638.2 1340.1l10.875-10.875"/><path data-name="線 115223" d="M450.922 1554.774l12.88-10.875"/><path data-name="線 115224" d="M638.2 1543.899l10.875 10.875"/><path data-name="線 115225" d="M504.884 1391.251l-41.082 23.364"/><path data-name="線 115226" d="M508.916 1441.989l-45.114-26.175"/><path data-name="線 115227" d="M504.884 1441.989l-41.082-23.756"/><path data-name="線 115228" d="M504.884 1493.14l-41.082 23.364"/><path data-name="線 115229" d="M508.916 1543.899l-45.114-26.175"/><path data-name="線 115230" d="M504.884 1543.899l-41.082-23.756"/><path data-name="線 115231" d="M508.11 1492.334l.806.806"/><path data-name="線 115232" d="M506.911 1494.36l1.199.392"/><path data-name="線 115233" d="M596.312 1499.199v-4.446"/><path data-name="線 115234" d="M596.312 1491.135v-47.119"/><path data-name="線 115235" d="M596.312 1492.334l.806.806"/><path data-name="線 115236" d="M596.312 1492.333l-1.199-.806"/><path data-name="線 115237" d="M593.892 1491.135l-42.673-24.976"/><path data-name="線 115238" d="M595.919 1491.135l-.806.392"/><path data-name="線 115239" d="M595.113 1491.527l-1.22-.392"/><path data-name="線 115240" d="M595.113 1494.36l1.199.392"/><path data-name="線 115241" d="M593.893 1444.015l1.22-.806"/><path data-name="線 115242" d="M597.532 1391.251l-46.313-26.981"/><path data-name="線 115243" d="M596.311 1392.864l-45.092-26.175"/><path data-name="線 115244" d="M637.002 1365.469l-41.889 24.17"/><path data-name="線 115245" d="M638.2 1465.767l-41.082-23.778"/><path data-name="線 115246" d="M638.2 1468.186l-45.114-26.197"/><path data-name="線 115247" d="M638.2 1469.384l-41.082 23.756"/><path data-name="線 115248" d="M638.2 1465.766l-2.419-1.613"/><path data-name="線 115249" d="M504.884 1441.989l-41.082 23.778"/><path data-name="線 115250" d="M508.11 1492.334l-44.308-25.369"/><path data-name="線 115251" d="M505.691 1493.554l-41.889-24.17"/><path data-name="線 115252" d="M548.8 1467.379l-41.889 24.148"/><path data-name="線 115253" d="M508.11 1541.872v-47.119"/><path data-name="線 115254" d="M508.11 1491.135v-47.119"/><path data-name="線 115255" d="M506.911 1392.45l1.199.414"/><path data-name="線 115256" d="M508.916 1391.251l-.806-.806"/><path data-name="線 115257" d="M507.717 1389.246l-.806.392"/><path data-name="線 115258" d="M508.11 1439.983v-47.119"/><path data-name="線 115259" d="M508.11 1389.246v-47.141"/><path data-name="線 115260" d="M549.999 1363.856v-11.268"/><path data-name="線 115261" d="M552.004 1363.856V1340.1"/><path data-name="線 115262" d="M549.999 1543.899v-23.756"/><path data-name="線 115263" d="M549.999 1516.503v-47.119"/><path data-name="線 115264" d="M552.004 1540.673v-20.53"/><path data-name="線 115265" d="M552.004 1516.503v-47.119"/><path data-name="線 115266" d="M593.893 1439.983v-47.119"/><path data-name="線 115267" d="M596.312 1439.983v-47.119"/><path data-name="線 115268" d="M549.999 1465.766v-47.533"/><path data-name="線 115269" d="M549.999 1414.615v-47.119"/><path data-name="線 115270" d="M552.004 1414.615v-47.119"/><path data-name="線 115271" d="M552.004 1465.766v-47.533"/><path data-name="線 115272" d="M491.59 1366.689h-24.954"/><path data-name="線 115273" d="M491.59 1364.662h-24.954"/><path data-name="線 115274" d="M493.203 1365.469h-1.199"/><path data-name="線 115275" d="M491.59 1366.689l.414-1.22"/><path data-name="線 115276" d="M491.59 1364.662l.414.806"/><path data-name="線 115277" d="M504.078 1342.912l-12.488 21.751"/><path data-name="線 115278" d="M505.691 1343.718l-12.488 21.751"/><path data-name="線 115279" d="M491.59 1366.689l12.488 21.751"/><path data-name="線 115280" d="M493.203 1365.469l12.488 21.751"/><path data-name="線 115281" d="M505.691 1343.718v-1.613"/><path data-name="線 115282" d="M504.078 1342.911l1.613-.806"/><path data-name="線 115283" d="M491.59 1417.426h-24.954"/><path data-name="線 115284" d="M491.59 1415.814h-24.954"/><path data-name="線 115285" d="M493.203 1416.62h-1.199"/><path data-name="線 115286" d="M491.59 1417.426l.414-.806"/><path data-name="線 115287" d="M491.59 1415.814l.414.806"/><path data-name="線 115288" d="M504.078 1393.671l-12.488 22.143"/><path data-name="線 115289" d="M505.691 1394.869l-12.488 21.751"/><path data-name="線 115290" d="M491.59 1417.426l12.488 21.751"/><path data-name="線 115291" d="M493.203 1416.62l12.488 21.751"/><path data-name="線 115292" d="M505.691 1394.869v-2.005"/><path data-name="線 115293" d="M504.078 1393.67l1.613-.806"/><path data-name="線 115294" d="M491.59 1468.578h-24.954"/><path data-name="線 115295" d="M491.59 1466.573h-24.954"/><path data-name="線 115296" d="M493.203 1467.379h-1.199"/><path data-name="線 115297" d="M491.59 1468.578l.414-1.199"/><path data-name="線 115298" d="M491.59 1466.573l.414.806"/><path data-name="線 115299" d="M504.078 1444.822l-12.488 21.751"/><path data-name="線 115300" d="M505.691 1445.628l-12.488 21.751"/><path data-name="線 115301" d="M491.59 1468.578l12.488 21.751"/><path data-name="線 115302" d="M493.203 1467.379l12.488 21.751"/><path data-name="線 115303" d="M505.691 1445.629v-1.613"/><path data-name="線 115304" d="M504.078 1444.822l1.613-.806"/><path data-name="線 115305" d="M535.898 1442.795h-25.369"/><path data-name="線 115306" d="M535.898 1441.182h-25.369"/><path data-name="線 115307" d="M537.511 1441.989h-1.199"/><path data-name="線 115308" d="M535.898 1442.795l.414-.806"/><path data-name="線 115309" d="M535.898 1441.182l.414.806"/><path data-name="線 115310" d="M548.386 1419.453l-12.488 21.729"/><path data-name="線 115311" d="M549.999 1420.238l-12.488 21.751"/><path data-name="線 115312" d="M535.898 1442.795l12.488 21.751"/><path data-name="線 115313" d="M537.511 1441.989l12.488 21.751"/><path data-name="線 115314" d="M549.999 1420.238v-2.005"/><path data-name="線 115315" d="M548.386 1419.453l1.613-1.22"/><path data-name="線 115316" d="M535.898 1392.058h-25.369"/><path data-name="線 115317" d="M535.898 1390.031h-25.369"/><path data-name="線 115318" d="M537.511 1391.251h-1.199"/><path data-name="線 115319" d="M535.898 1392.057l.414-.806"/><path data-name="線 115320" d="M535.898 1390.031l.414 1.22"/><path data-name="線 115321" d="M548.386 1368.302l-12.488 21.729"/><path data-name="線 115322" d="M549.999 1369.501l-12.488 21.751"/><path data-name="線 115323" d="M535.898 1392.058l12.488 21.751"/><path data-name="線 115324" d="M537.511 1391.251l12.488 21.751"/><path data-name="線 115325" d="M549.999 1369.501v-2.005"/><path data-name="線 115326" d="M548.386 1368.302l1.613-.806"/><path data-name="線 115327" d="M579.813 1366.689h-24.976"/><path data-name="線 115328" d="M579.813 1364.662h-24.976"/><path data-name="線 115329" d="M581.426 1365.469h-.806"/><path data-name="線 115330" d="M579.813 1366.689l.806-1.22"/><path data-name="線 115331" d="M579.813 1364.662l.806.806"/><path data-name="線 115332" d="M592.279 1342.912l-12.466 21.751"/><path data-name="線 115333" d="M593.892 1343.718l-12.466 21.751"/><path data-name="線 115334" d="M579.813 1366.689l12.466 21.751"/><path data-name="線 115335" d="M581.426 1365.469l12.466 21.751"/><path data-name="線 115336" d="M593.893 1343.718v-1.613"/><path data-name="線 115337" d="M592.28 1342.911l1.613-.806"/><path data-name="線 115338" d="M579.813 1417.426h-24.976"/><path data-name="線 115339" d="M579.813 1415.814h-24.976"/><path data-name="線 115340" d="M581.426 1416.62h-.806"/><path data-name="線 115341" d="M579.813 1417.426l.806-.806"/><path data-name="線 115342" d="M579.813 1415.814l.806.806"/><path data-name="線 115343" d="M592.279 1393.671l-12.466 22.143"/><path data-name="線 115344" d="M593.892 1394.869l-12.466 21.751"/><path data-name="線 115345" d="M579.813 1417.426l12.466 21.751"/><path data-name="線 115346" d="M581.426 1416.62l12.466 21.751"/><path data-name="線 115347" d="M593.893 1394.869v-2.005"/><path data-name="線 115348" d="M592.28 1393.67l1.613-.806"/><path data-name="線 115349" d="M491.59 1519.337h-24.954"/><path data-name="線 115350" d="M491.59 1517.31h-24.954"/><path data-name="線 115351" d="M493.203 1518.53h-1.199"/><path data-name="線 115352" d="M491.59 1519.336l.414-.806"/><path data-name="線 115353" d="M491.59 1517.31l.414 1.22"/><path data-name="線 115354" d="M504.078 1495.559l-12.488 21.751"/><path data-name="線 115355" d="M505.691 1496.78l-12.488 21.751"/><path data-name="線 115356" d="M491.59 1519.337l12.488 21.729"/><path data-name="線 115357" d="M493.203 1518.53l12.488 21.751"/><path data-name="線 115358" d="M505.691 1496.78v-2.027"/><path data-name="線 115359" d="M504.078 1495.559l1.613-.806"/><path data-name="線 115360" d="M535.898 1493.946h-25.369"/><path data-name="線 115361" d="M535.898 1491.941h-25.369"/><path data-name="線 115362" d="M537.511 1493.14h-1.199"/><path data-name="線 115363" d="M535.898 1493.946l.414-.806"/><path data-name="線 115364" d="M535.898 1491.941l.414 1.199"/><path data-name="線 115365" d="M548.386 1470.191l-12.488 21.751"/><path data-name="線 115366" d="M549.999 1470.997l-12.488 22.143"/><path data-name="線 115367" d="M535.898 1493.946l12.488 21.751"/><path data-name="線 115368" d="M537.511 1493.14l12.488 21.751"/><path data-name="線 115369" d="M549.999 1470.997v-1.613"/><path data-name="線 115370" d="M548.386 1470.19l1.613-.806"/><path data-name="線 115371" d="M579.813 1519.337h-24.976"/><path data-name="線 115372" d="M579.813 1517.31h-24.976"/><path data-name="線 115373" d="M581.426 1518.53h-.806"/><path data-name="線 115374" d="M579.813 1519.336l.806-.806"/><path data-name="線 115375" d="M579.813 1517.31l.806 1.22"/><path data-name="線 115376" d="M592.279 1495.559l-12.466 21.751"/><path data-name="線 115377" d="M593.892 1496.78l-12.466 21.751"/><path data-name="線 115378" d="M579.813 1519.337l12.466 21.729"/><path data-name="線 115379" d="M581.426 1518.53l12.466 21.751"/><path data-name="線 115380" d="M593.893 1496.78v-2.027"/><path data-name="線 115381" d="M592.28 1495.559l1.613-.806"/><path data-name="線 115382" d="M624.1 1493.946h-25.369"/><path data-name="線 115383" d="M624.1 1491.941h-25.369"/><path data-name="線 115384" d="M625.713 1493.14h-1.199"/><path data-name="線 115385" d="M624.099 1493.946l.414-.806"/><path data-name="線 115386" d="M624.099 1491.941l.414 1.199"/><path data-name="線 115387" d="M636.587 1470.191l-12.488 21.751"/><path data-name="線 115388" d="M638.2 1470.997l-12.488 22.143"/><path data-name="線 115389" d="M624.099 1493.946l12.488 21.751"/><path data-name="線 115390" d="M625.712 1493.14l12.488 21.751"/><path data-name="線 115391" d="M638.2 1470.997v-1.613"/><path data-name="線 115392" d="M636.588 1470.19l1.613-.806"/><path data-name="線 115393" d="M624.1 1442.795h-25.369"/><path data-name="線 115394" d="M624.1 1441.182h-25.369"/><path data-name="線 115395" d="M625.713 1441.989h-1.199"/><path data-name="線 115396" d="M624.099 1442.795l.414-.806"/><path data-name="線 115397" d="M624.099 1441.182l.414.806"/><path data-name="線 115398" d="M636.587 1419.453l-12.488 21.729"/><path data-name="線 115399" d="M638.2 1420.238l-12.488 21.751"/><path data-name="線 115400" d="M624.099 1442.795l12.488 21.751"/><path data-name="線 115401" d="M625.712 1441.989l12.488 21.751"/><path data-name="線 115402" d="M638.2 1420.238v-2.005"/><path data-name="線 115403" d="M636.588 1419.453l1.613-1.22"/><path data-name="線 115404" d="M624.1 1392.058h-25.369"/><path data-name="線 115405" d="M624.1 1390.031h-25.369"/><path data-name="線 115406" d="M625.713 1391.251h-1.199"/><path data-name="線 115407" d="M624.099 1392.057l.414-.806"/><path data-name="線 115408" d="M624.099 1390.031l.414 1.22"/><path data-name="線 115409" d="M636.587 1368.302l-12.488 21.729"/><path data-name="線 115410" d="M638.2 1369.501l-12.488 21.751"/><path data-name="線 115411" d="M624.099 1392.058l12.488 21.751"/><path data-name="線 115412" d="M625.712 1391.251l12.488 21.751"/><path data-name="線 115413" d="M638.2 1369.501v-2.005"/><path data-name="線 115414" d="M636.588 1368.302l1.613-.806"/><path data-name="線 115415" d="M509.723 1388.44l12.488-21.751"/><path data-name="線 115416" d="M508.11 1387.22l12.488-21.751"/><path data-name="線 115417" d="M522.211 1364.662l-.806.806"/><path data-name="線 115418" d="M522.211 1366.689l-.806-1.22"/><path data-name="線 115419" d="M521.404 1365.469h-.806"/><path data-name="線 115420" d="M508.11 1343.718l12.488 21.751"/><path data-name="線 115421" d="M509.723 1342.912l12.488 21.751"/><path data-name="線 115422" d="M547.187 1366.689h-24.976"/><path data-name="線 115423" d="M547.187 1364.662h-24.976"/><path data-name="線 115424" d="M509.723 1342.911l-1.613-.806"/><path data-name="線 115425" d="M508.11 1343.718v-1.613"/><path data-name="線 115426" d="M465.415 1413.809l12.488-21.751"/><path data-name="線 115427" d="M463.802 1413.002l12.488-21.751"/><path data-name="線 115428" d="M477.903 1390.031l-.392 1.22"/><path data-name="線 115429" d="M477.903 1392.057l-.392-.806"/><path data-name="線 115430" d="M477.51 1391.251h-1.22"/><path data-name="線 115431" d="M463.802 1369.501l12.488 21.751"/><path data-name="線 115432" d="M465.415 1368.302l12.488 21.729"/><path data-name="線 115433" d="M503.272 1392.058h-25.369"/><path data-name="線 115434" d="M503.272 1390.031h-25.369"/><path data-name="線 115435" d="M465.415 1368.302l-1.613-.806"/><path data-name="線 115436" d="M463.802 1369.501v-2.005"/><path data-name="線 115437" d="M509.723 1439.177l12.488-21.751"/><path data-name="線 115438" d="M508.11 1438.371l12.488-21.751"/><path data-name="線 115439" d="M522.211 1415.814l-.806.806"/><path data-name="線 115440" d="M522.211 1417.426l-.806-.806"/><path data-name="線 115441" d="M521.404 1416.62h-.806"/><path data-name="線 115442" d="M508.11 1394.869l12.488 21.751"/><path data-name="線 115443" d="M509.723 1393.671l12.488 22.143"/><path data-name="線 115444" d="M547.187 1417.426h-24.976"/><path data-name="線 115445" d="M547.187 1415.814h-24.976"/><path data-name="線 115446" d="M509.723 1393.67l-1.613-.806"/><path data-name="線 115447" d="M508.11 1394.869v-2.005"/><path data-name="線 115448" d="M465.415 1464.546l12.488-21.751"/><path data-name="線 115449" d="M463.802 1463.74l12.488-21.751"/><path data-name="線 115450" d="M477.903 1441.182l-.392.806"/><path data-name="線 115451" d="M477.903 1442.795l-.392-.806"/><path data-name="線 115452" d="M477.51 1441.989h-1.22"/><path data-name="線 115453" d="M463.802 1420.238l12.488 21.751"/><path data-name="線 115454" d="M465.415 1419.453l12.488 21.729"/><path data-name="線 115455" d="M503.272 1442.795h-25.369"/><path data-name="線 115456" d="M503.272 1441.182h-25.369"/><path data-name="線 115457" d="M465.415 1419.453l-1.613-1.22"/><path data-name="線 115458" d="M463.802 1420.238v-2.005"/><path data-name="線 115459" d="M509.723 1490.329l12.488-21.751"/><path data-name="線 115460" d="M508.11 1489.13l12.488-21.751"/><path data-name="線 115461" d="M522.211 1466.573l-.806.806"/><path data-name="線 115462" d="M522.211 1468.578l-.806-1.199"/><path data-name="線 115463" d="M521.404 1467.379h-.806"/><path data-name="線 115464" d="M508.11 1445.628l12.488 21.751"/><path data-name="線 115465" d="M509.723 1444.822l12.488 21.751"/><path data-name="線 115466" d="M547.187 1468.578h-24.976"/><path data-name="線 115467" d="M547.187 1466.573h-24.976"/><path data-name="線 115468" d="M509.723 1444.822l-1.613-.806"/><path data-name="線 115469" d="M508.11 1445.629v-1.613"/><path data-name="線 115470" d="M553.617 1464.546l12.488-21.751"/><path data-name="線 115471" d="M552.004 1463.74l12.488-21.751"/><path data-name="線 115472" d="M566.105 1441.182l-.392.806"/><path data-name="線 115473" d="M566.105 1442.795l-.392-.806"/><path data-name="線 115474" d="M565.712 1441.989h-1.22"/><path data-name="線 115475" d="M552.004 1420.238l12.488 21.751"/><path data-name="線 115476" d="M553.617 1419.453l12.488 21.729"/><path data-name="線 115477" d="M591.495 1442.795h-25.39"/><path data-name="線 115478" d="M591.495 1441.182h-25.39"/><path data-name="線 115479" d="M553.617 1419.453l-1.613-1.22"/><path data-name="線 115480" d="M552.004 1420.238v-2.005"/><path data-name="線 115481" d="M553.617 1413.809l12.488-21.751"/><path data-name="線 115482" d="M552.004 1413.002l12.488-21.751"/><path data-name="線 115483" d="M566.105 1390.031l-.392 1.22"/><path data-name="線 115484" d="M566.105 1392.057l-.392-.806"/><path data-name="線 115485" d="M565.712 1391.251h-1.22"/><path data-name="線 115486" d="M552.004 1369.501l12.488 21.751"/><path data-name="線 115487" d="M553.617 1368.302l12.488 21.729"/><path data-name="線 115488" d="M591.495 1392.058h-25.39"/><path data-name="線 115489" d="M591.495 1390.031h-25.39"/><path data-name="線 115490" d="M553.617 1368.302l-1.613-.806"/><path data-name="線 115491" d="M552.004 1369.501v-2.005"/><path data-name="線 115492" d="M597.925 1388.44l12.488-21.751"/><path data-name="線 115493" d="M596.312 1387.22l12.488-21.751"/><path data-name="線 115494" d="M610.412 1364.662l-.392.806"/><path data-name="線 115495" d="M610.412 1366.689l-.392-1.22"/><path data-name="線 115496" d="M610.02 1365.469h-1.22"/><path data-name="線 115497" d="M596.312 1343.718l12.488 21.751"/><path data-name="線 115498" d="M597.925 1342.912l12.488 21.751"/><path data-name="線 115499" d="M635.389 1366.689h-24.976"/><path data-name="線 115500" d="M635.389 1364.662h-24.976"/><path data-name="線 115501" d="M597.925 1342.911l-1.613-.806"/><path data-name="線 115502" d="M596.312 1343.718v-1.613"/><path data-name="線 115503" d="M597.925 1439.177l12.488-21.751"/><path data-name="線 115504" d="M596.312 1438.371l12.488-21.751"/><path data-name="線 115505" d="M610.412 1415.814l-.392.806"/><path data-name="線 115506" d="M610.412 1417.426l-.392-.806"/><path data-name="線 115507" d="M610.02 1416.62h-1.22"/><path data-name="線 115508" d="M596.312 1394.869l12.488 21.751"/><path data-name="線 115509" d="M597.925 1394.063l12.488 21.751"/><path data-name="線 115510" d="M635.782 1417.426h-25.369"/><path data-name="線 115511" d="M635.782 1415.814h-25.369"/><path data-name="線 115512" d="M597.925 1394.063l-1.613-1.199"/><path data-name="線 115513" d="M596.312 1394.869v-2.005"/><path data-name="線 115514" d="M597.925 1490.329l12.488-21.751"/><path data-name="線 115515" d="M596.312 1489.13l12.488-21.751"/><path data-name="線 115516" d="M610.412 1466.573l-.392.806"/><path data-name="線 115517" d="M610.412 1468.578l-.392-1.199"/><path data-name="線 115518" d="M610.02 1467.379h-1.22"/><path data-name="線 115519" d="M596.312 1445.628l12.488 21.751"/><path data-name="線 115520" d="M597.925 1444.822l12.488 21.751"/><path data-name="線 115521" d="M635.389 1468.578h-24.976"/><path data-name="線 115522" d="M635.389 1466.573h-24.976"/><path data-name="線 115523" d="M597.925 1444.822l-1.613-.806"/><path data-name="線 115524" d="M596.312 1445.629v-1.613"/><path data-name="線 115525" d="M553.617 1515.697l12.488-21.751"/><path data-name="線 115526" d="M552.004 1514.891l12.488-21.751"/><path data-name="線 115527" d="M566.105 1491.941l-.392 1.199"/><path data-name="線 115528" d="M566.105 1493.946l-.392-.806"/><path data-name="線 115529" d="M565.712 1493.14h-1.22"/><path data-name="線 115530" d="M552.004 1470.997l12.488 22.143"/><path data-name="線 115531" d="M553.617 1470.191l12.488 21.751"/><path data-name="線 115532" d="M591.495 1493.946h-25.39"/><path data-name="線 115533" d="M591.495 1491.941h-25.39"/><path data-name="線 115534" d="M553.617 1470.19l-1.613-.806"/><path data-name="線 115535" d="M552.004 1470.997v-1.613"/><path data-name="線 115536" d="M465.415 1515.697l12.488-21.751"/><path data-name="線 115537" d="M463.802 1514.891l12.488-21.751"/><path data-name="線 115538" d="M477.903 1491.941l-.392 1.199"/><path data-name="線 115539" d="M477.903 1493.946l-.392-.806"/><path data-name="線 115540" d="M477.51 1493.14h-1.22"/><path data-name="線 115541" d="M463.802 1470.997l12.488 22.143"/><path data-name="線 115542" d="M465.415 1470.191l12.488 21.751"/><path data-name="線 115543" d="M503.272 1493.946h-25.369"/><path data-name="線 115544" d="M503.272 1491.941h-25.369"/><path data-name="線 115545" d="M465.415 1470.19l-1.613-.806"/><path data-name="線 115546" d="M463.802 1470.997v-1.613"/><path data-name="線 115547" d="M509.723 1541.066l12.488-21.729"/><path data-name="線 115548" d="M508.11 1540.281l12.488-21.751"/><path data-name="線 115549" d="M522.211 1517.31l-.806 1.22"/><path data-name="線 115550" d="M522.211 1519.336l-.806-.806"/><path data-name="線 115551" d="M521.404 1518.53h-.806"/><path data-name="線 115552" d="M508.11 1496.78l12.488 21.751"/><path data-name="線 115553" d="M509.723 1495.559l12.488 21.751"/><path data-name="線 115554" d="M547.187 1519.337h-24.976"/><path data-name="線 115555" d="M547.187 1517.31h-24.976"/><path data-name="線 115556" d="M509.723 1495.559l-1.613-.806"/><path data-name="線 115557" d="M508.11 1496.78v-2.027"/><path data-name="線 115558" d="M597.925 1541.066l12.488-21.729"/><path data-name="線 115559" d="M596.312 1540.281l12.488-21.751"/><path data-name="線 115560" d="M610.412 1517.31l-.392 1.22"/><path data-name="線 115561" d="M610.412 1519.336l-.392-.806"/><path data-name="線 115562" d="M610.02 1518.53h-1.22"/><path data-name="線 115563" d="M596.312 1496.78l12.488 21.751"/><path data-name="線 115564" d="M597.925 1495.559l12.488 21.751"/><path data-name="線 115565" d="M635.389 1519.337h-24.976"/><path data-name="線 115566" d="M635.389 1517.31h-24.976"/><path data-name="線 115567" d="M597.925 1495.559l-1.613-.806"/><path data-name="線 115568" d="M596.312 1496.78v-2.027"/><path data-name="線 115569" d="M580.205 1468.185h-24.976"/><path data-name="線 115570" d="M580.205 1466.159h-24.976"/><path data-name="線 115571" d="M581.819 1467.379h-1.199"/><path data-name="線 115572" d="M580.206 1468.185l.414-.806"/><path data-name="線 115573" d="M580.206 1466.159l.414 1.22"/><path data-name="線 115574" d="M592.694 1444.408l-12.488 21.751"/><path data-name="線 115575" d="M594.307 1445.628l-12.488 21.751"/><path data-name="線 115576" d="M580.206 1468.185l12.488 21.751"/><path data-name="線 115577" d="M581.819 1467.379l12.488 21.751"/><path data-name="線 115578" d="M594.307 1445.628v-2.027"/><path data-name="線 115579" d="M592.694 1444.407l1.613-.806"/></g></g></svg>