<svg xmlns="http://www.w3.org/2000/svg" width="200" height="230"><defs><clipPath id="a"><path data-name="長方形 180" transform="translate(450 1327)" fill="#ccc" d="M0 0h200v230H0z"/></clipPath></defs><g data-name="マスクグループ 578" transform="translate(-450 -1327)" clip-path="url(#a)"><g data-name="グループ 3446" fill="none" stroke="#c49535" stroke-linecap="round" stroke-linejoin="round" stroke-width="1.323"><path data-name="線 118643" d="M638.406 1338.935H462.013"/><path data-name="線 118644" d="M505.593 1389.04l.816-.397"/><path data-name="線 118645" d="M578.513 1338.935h-75.367"/><path data-name="線 118646" d="M504.778 1340.566l.816-.419"/><path data-name="線 118647" d="M550.011 1363.381l-42.368-24.446"/><path data-name="線 118648" d="M550.011 1365.828l-46.865-26.893"/><path data-name="線 118649" d="M547.961 1364.594l-41.552 24.05"/><path data-name="線 118650" d="M549.196 1390.672v-24.028"/><path data-name="線 118651" d="M549.196 1414.302v-23.631"/><path data-name="線 118652" d="M549.196 1441.989v-24.028"/><path data-name="線 118653" d="M550.011 1417.565l-42.368 24.424"/><path data-name="線 118654" d="M547.961 1416.33l-42.368 24.446"/><path data-name="線 118655" d="M504.381 1388.643v-47.68"/><path data-name="線 118656" d="M506.409 1396.778v-4.475"/><path data-name="線 118657" d="M507.643 1390.671h0"/><path data-name="線 118658" d="M506.409 1388.643v-47.68"/><path data-name="線 118659" d="M507.643 1390.671l42.368 24.446"/><path data-name="線 118660" d="M506.827 1392.303l-1.234-.419"/><path data-name="線 118661" d="M506.409 1392.303l43.602 25.262"/><path data-name="線 118662" d="M550.011 1365.828l-42.368 24.843"/><path data-name="線 118663" d="M506.409 1439.961v-47.658"/><path data-name="線 118664" d="M504.381 1396.778v-4.475"/><path data-name="線 118665" d="M504.381 1439.961v-47.658"/><path data-name="線 118666" d="M504.381 1391.068l1.212.816"/><path data-name="線 118667" d="M506.409 1389.856l1.234.816"/><path data-name="線 118668" d="M505.593 1391.884l-42.368 24.446"/><path data-name="線 118669" d="M462.013 1441.989v-24.028"/><path data-name="線 118670" d="M462.013 1414.302v-23.631"/><path data-name="線 118671" d="M504.777 1340.566l-41.552 24.028"/><path data-name="線 118672" d="M462.013 1390.672v-24.028"/><path data-name="線 118673" d="M462.013 1362.963v-24.028"/><path data-name="線 118674" d="M549.196 1362.963v-24.028"/><path data-name="線 118675" d="M505.593 1492.094l.816-.397"/><path data-name="線 118676" d="M504.778 1443.62l.816-.397"/><path data-name="線 118677" d="M550.011 1468.882l-46.865-26.893"/><path data-name="線 118678" d="M547.961 1467.67l-41.552 24.028"/><path data-name="線 118679" d="M549.196 1493.726v-24.028"/><path data-name="線 118680" d="M549.196 1517.356v-23.631"/><path data-name="線 118681" d="M549.196 1545.066v-24.028"/><path data-name="線 118682" d="M550.011 1520.619l-42.368 24.446"/><path data-name="線 118683" d="M547.961 1519.406l-42.368 24.424"/><path data-name="線 118684" d="M504.381 1491.697v-47.658"/><path data-name="線 118685" d="M506.409 1499.854v-4.497"/><path data-name="線 118686" d="M507.643 1493.725h0"/><path data-name="線 118687" d="M506.409 1491.697v-47.658"/><path data-name="線 118688" d="M506.827 1495.357l-1.234-.397"/><path data-name="線 118689" d="M506.409 1495.357l43.602 25.262"/><path data-name="線 118690" d="M550.011 1468.882l-42.368 24.843"/><path data-name="線 118691" d="M506.409 1543.015v-47.658"/><path data-name="線 118692" d="M504.381 1499.854v-4.497"/><path data-name="線 118693" d="M504.381 1543.015v-47.658"/><path data-name="線 118694" d="M504.381 1494.144l1.212.816"/><path data-name="線 118695" d="M506.409 1492.91l1.234.816"/><path data-name="線 118696" d="M505.593 1494.96l-42.368 24.446"/><path data-name="線 118697" d="M462.013 1517.356v-23.631"/><path data-name="線 118698" d="M504.777 1443.62l-41.552 24.05"/><path data-name="線 118699" d="M462.013 1493.726v-24.028"/><path data-name="線 118700" d="M462.013 1466.039v-24.05"/><path data-name="線 118701" d="M549.196 1466.039v-24.05"/><path data-name="線 118702" d="M594.804 1389.04l.816-.397"/><path data-name="線 118703" d="M593.988 1340.566l.816-.419"/><path data-name="線 118704" d="M637.172 1364.594l-41.552 24.05"/><path data-name="線 118705" d="M638.406 1390.672v-24.028"/><path data-name="線 118706" d="M638.406 1414.302v-23.631"/><path data-name="線 118707" d="M638.406 1441.989v-24.028"/><path data-name="線 118708" d="M637.172 1416.33l-42.368 24.446"/><path data-name="線 118709" d="M593.592 1388.643v-47.68"/><path data-name="線 118710" d="M596.038 1396.778v-4.475"/><path data-name="線 118711" d="M596.854 1390.671h0"/><path data-name="線 118712" d="M596.038 1388.643v-47.68"/><path data-name="線 118713" d="M596.038 1392.303l-1.234-.419"/><path data-name="線 118714" d="M596.038 1439.961v-47.658"/><path data-name="線 118715" d="M593.592 1396.778v-4.475"/><path data-name="線 118716" d="M593.592 1439.961v-47.658"/><path data-name="線 118717" d="M593.592 1391.068l1.212.816"/><path data-name="線 118718" d="M596.038 1389.856l.816.816"/><path data-name="線 118719" d="M592.776 1441.989l-42.765-24.424"/><path data-name="線 118720" d="M592.776 1390.671l-42.765 24.446"/><path data-name="線 118721" d="M594.804 1391.884l-42.346 24.446"/><path data-name="線 118722" d="M551.224 1441.989v-24.028"/><path data-name="線 118723" d="M551.224 1414.302v-23.631"/><path data-name="線 118724" d="M593.988 1340.566l-41.53 24.028"/><path data-name="線 118725" d="M551.224 1390.672v-24.028"/><path data-name="線 118726" d="M592.776 1338.935l-42.765 24.446"/><path data-name="線 118727" d="M593.591 1391.068l-43.58-25.24"/><path data-name="線 118728" d="M551.224 1362.963v-24.028"/><path data-name="線 118729" d="M594.804 1492.094l.816-.397"/><path data-name="線 118730" d="M593.988 1443.62l.816-.397"/><path data-name="線 118731" d="M637.172 1467.67l-41.552 24.028"/><path data-name="線 118732" d="M638.406 1493.726v-24.028"/><path data-name="線 118733" d="M638.406 1517.356v-23.631"/><path data-name="線 118734" d="M638.406 1545.066v-24.028"/><path data-name="線 118735" d="M637.172 1519.406l-42.368 24.424"/><path data-name="線 118736" d="M593.592 1491.697v-47.658"/><path data-name="線 118737" d="M596.038 1499.854v-4.497"/><path data-name="線 118738" d="M596.854 1493.725h0"/><path data-name="線 118739" d="M596.038 1491.697v-47.658"/><path data-name="線 118740" d="M596.038 1495.357l-1.234-.397"/><path data-name="線 118741" d="M596.038 1543.015v-47.658"/><path data-name="線 118742" d="M593.592 1499.854v-4.497"/><path data-name="線 118743" d="M593.592 1543.015v-47.658"/><path data-name="線 118744" d="M593.592 1494.144l1.212.816"/><path data-name="線 118745" d="M596.038 1492.91l.816.816"/><path data-name="線 118746" d="M592.776 1545.065l-42.765-24.446"/><path data-name="線 118747" d="M592.776 1493.725l-42.765 24.446"/><path data-name="線 118748" d="M594.804 1494.96l-42.346 24.446"/><path data-name="線 118749" d="M551.224 1545.066v-24.028"/><path data-name="線 118750" d="M551.224 1517.356v-23.631"/><path data-name="線 118751" d="M593.988 1443.62l-41.53 24.05"/><path data-name="線 118752" d="M551.224 1493.726v-24.028"/><path data-name="線 118753" d="M592.776 1441.989l-42.765 24.446"/><path data-name="線 118754" d="M593.591 1494.144l-43.58-25.262"/><path data-name="線 118755" d="M551.224 1466.039v-24.05"/><path data-name="線 118756" d="M638.406 1466.039v-24.05"/><path data-name="線 118757" d="M465.275 1372.331l-3.262 2.05"/><path data-name="線 118758" d="M465.276 1372.331l3.262-2.028"/><path data-name="線 118759" d="M475.041 1371.516h0"/><path data-name="線 118760" d="M496.644 1390.671v-4.078"/><path data-name="線 118761" d="M496.644 1394.33v-3.659"/><path data-name="線 118762" d="M468.538 1410.621l-6.525-3.659"/><path data-name="線 118763" d="M473.013 1408.196l-4.894-2.866"/><path data-name="線 118764" d="M466.488 1404.515l-4.475-2.844"/><path data-name="線 118765" d="M492.566 1389.437v-5.29"/><path data-name="線 118766" d="M466.488 1376.409l-4.475 2.844"/><path data-name="線 118767" d="M466.488 1406.146v-1.631"/><path data-name="線 118768" d="M492.566 1391.487l1.631-.816"/><path data-name="線 118769" d="M492.566 1396.777v-5.29"/><path data-name="線 118770" d="M468.119 1375.594l4.894-2.844"/><path data-name="線 118771" d="M468.119 1375.594l-1.631-.816"/><path data-name="線 118772" d="M462.013 1379.253v-4.872"/><path data-name="線 118773" d="M462.013 1414.303v-7.341"/><path data-name="線 118774" d="M466.488 1404.934v-30.156"/><path data-name="線 118775" d="M493.381 1391.068l-26.893 15.078"/><path data-name="線 118776" d="M467.722 1375.197l26.474 15.475"/><path data-name="線 118777" d="M490.538 1390.671l-22 12.631"/><path data-name="線 118778" d="M468.538 1403.302v-25.262"/><path data-name="線 118779" d="M468.538 1378.04l22 12.631"/><path data-name="線 118780" d="M510.09 1398.012l-3.681 2.028"/><path data-name="線 118781" d="M510.09 1398.012l3.24-2.05"/><path data-name="線 118782" d="M519.856 1397.593v-.397"/><path data-name="線 118783" d="M541.458 1416.33v-3.659"/><path data-name="線 118784" d="M541.458 1419.989v-3.659"/><path data-name="線 118785" d="M513.331 1436.302l-6.922-3.681"/><path data-name="線 118786" d="M517.409 1433.855l-4.475-2.866"/><path data-name="線 118787" d="M511.303 1430.174l-4.894-2.844"/><path data-name="線 118788" d="M536.961 1415.514v-5.709"/><path data-name="線 118789" d="M511.303 1402.487l-4.894 2.447"/><path data-name="線 118790" d="M511.303 1432.224v-2.05"/><path data-name="線 118791" d="M536.961 1417.146l1.631-.816"/><path data-name="線 118792" d="M536.961 1422.436v-5.29"/><path data-name="線 118793" d="M512.934 1401.253l4.475-2.425"/><path data-name="線 118794" d="M512.934 1401.253l-1.631-.816"/><path data-name="線 118795" d="M506.409 1404.934v-4.894"/><path data-name="線 118796" d="M506.409 1439.962v-7.341"/><path data-name="線 118797" d="M511.303 1430.989v-30.552"/><path data-name="線 118798" d="M537.777 1416.749l-26.474 15.475"/><path data-name="線 118799" d="M512.515 1401.252l26.078 15.078"/><path data-name="線 118800" d="M534.934 1416.33l-22 12.631"/><path data-name="線 118801" d="M512.934 1428.961v-25.262"/><path data-name="線 118802" d="M512.934 1403.699l22 12.631"/><path data-name="線 118803" d="M554.486 1372.331l-3.262 2.05"/><path data-name="線 118804" d="M554.486 1372.331l3.262-2.028"/><path data-name="線 118805" d="M564.251 1371.516h.419"/><path data-name="線 118806" d="M585.854 1390.671v-4.078"/><path data-name="線 118807" d="M585.854 1394.33v-3.659"/><path data-name="線 118808" d="M557.749 1410.621l-6.525-3.659"/><path data-name="線 118809" d="M562.224 1408.196l-4.894-2.866"/><path data-name="線 118810" d="M555.699 1404.515l-4.475-2.844"/><path data-name="線 118811" d="M581.776 1389.437v-5.29"/><path data-name="線 118812" d="M555.699 1376.409l-4.475 2.844"/><path data-name="線 118813" d="M555.699 1406.146v-1.631"/><path data-name="線 118814" d="M581.776 1391.487l1.631-.816"/><path data-name="線 118815" d="M581.776 1396.777v-5.29"/><path data-name="線 118816" d="M557.33 1375.594l4.894-2.844"/><path data-name="線 118817" d="M557.33 1375.594l-1.631-.816"/><path data-name="線 118818" d="M551.224 1379.253v-4.872"/><path data-name="線 118819" d="M551.224 1414.303v-7.341"/><path data-name="線 118820" d="M555.699 1404.934v-30.156"/><path data-name="線 118821" d="M582.592 1391.068l-26.893 15.078"/><path data-name="線 118822" d="M556.933 1375.197l26.474 15.475"/><path data-name="線 118823" d="M579.749 1390.671l-22 12.631"/><path data-name="線 118824" d="M557.749 1403.302v-25.262"/><path data-name="線 118825" d="M557.749 1378.04l22 12.631"/><path data-name="線 118826" d="M609.066 1347.091h0"/><path data-name="線 118827" d="M596.038 1354.829v-5.313"/><path data-name="線 118828" d="M599.3 1398.012l-3.262 2.028"/><path data-name="線 118829" d="M599.301 1398.012l3.262-2.05"/><path data-name="線 118830" d="M609.066 1397.593v-.397"/><path data-name="線 118831" d="M630.669 1416.33v-3.659"/><path data-name="線 118832" d="M630.669 1419.989v-3.659"/><path data-name="線 118833" d="M602.563 1436.302l-6.525-3.681"/><path data-name="線 118834" d="M606.619 1433.855l-4.475-2.866"/><path data-name="線 118835" d="M600.513 1430.174l-4.475-2.844"/><path data-name="線 118836" d="M626.172 1415.514v-5.709"/><path data-name="線 118837" d="M600.513 1402.487l-4.475 2.447"/><path data-name="線 118838" d="M600.513 1432.224v-2.05"/><path data-name="線 118839" d="M626.172 1417.146l1.631-.816"/><path data-name="線 118840" d="M626.172 1422.436v-5.29"/><path data-name="線 118841" d="M602.144 1401.253l4.475-2.425"/><path data-name="線 118842" d="M602.144 1401.253l-1.631-.816"/><path data-name="線 118843" d="M596.038 1404.934v-4.894"/><path data-name="線 118844" d="M596.038 1439.962v-7.341"/><path data-name="線 118845" d="M600.513 1430.989v-30.552"/><path data-name="線 118846" d="M626.987 1416.749l-26.474 15.475"/><path data-name="線 118847" d="M601.748 1401.252l26.056 15.078"/><path data-name="線 118848" d="M624.144 1416.33l-21.581 12.631"/><path data-name="線 118849" d="M602.563 1428.961v-25.262"/><path data-name="線 118850" d="M602.563 1403.699l21.581 12.631"/><path data-name="線 118851" d="M465.275 1423.671l-3.262 2.028"/><path data-name="線 118852" d="M465.276 1423.671l3.262-1.631"/><path data-name="線 118853" d="M475.041 1423.252h0"/><path data-name="線 118854" d="M496.644 1441.989v-3.659"/><path data-name="線 118855" d="M496.644 1445.67v-3.681"/><path data-name="線 118856" d="M468.538 1461.96l-6.525-3.659"/><path data-name="線 118857" d="M473.013 1459.514l-4.894-2.447"/><path data-name="線 118858" d="M466.488 1455.855l-4.475-2.447"/><path data-name="線 118859" d="M492.566 1441.173v-5.29"/><path data-name="線 118860" d="M466.488 1428.146l-4.475 2.447"/><path data-name="線 118861" d="M466.488 1457.883v-2.028"/><path data-name="線 118862" d="M492.566 1442.805l1.631-.816"/><path data-name="線 118863" d="M492.566 1448.514v-5.709"/><path data-name="線 118864" d="M468.119 1427.33l4.894-2.844"/><path data-name="線 118865" d="M468.119 1427.33l-1.631-1.212"/><path data-name="線 118866" d="M462.013 1430.593v-4.894"/><path data-name="線 118867" d="M462.013 1466.038v-7.737"/><path data-name="線 118868" d="M466.488 1456.67v-30.552"/><path data-name="線 118869" d="M493.381 1442.408l-26.893 15.475"/><path data-name="線 118870" d="M467.722 1426.933l26.474 15.056"/><path data-name="線 118871" d="M490.538 1441.989l-22 12.631"/><path data-name="線 118872" d="M468.538 1454.62v-25.24"/><path data-name="線 118873" d="M468.538 1429.38l22 12.609"/><path data-name="線 118874" d="M510.09 1449.748l-3.681 1.609"/><path data-name="線 118875" d="M510.09 1449.748l3.24-2.05"/><path data-name="線 118876" d="M519.856 1448.933h0"/><path data-name="線 118877" d="M541.458 1467.67v-3.681"/><path data-name="線 118878" d="M541.458 1471.726v-4.056"/><path data-name="線 118879" d="M513.331 1488.038l-6.922-4.078"/><path data-name="線 118880" d="M517.409 1485.173l-4.475-2.447"/><path data-name="線 118881" d="M511.303 1481.91l-4.894-2.844"/><path data-name="線 118882" d="M536.961 1466.855v-5.313"/><path data-name="線 118883" d="M511.303 1453.804l-4.894 2.866"/><path data-name="線 118884" d="M511.303 1483.541v-1.631"/><path data-name="線 118885" d="M536.961 1468.882l1.631-1.212"/><path data-name="線 118886" d="M536.961 1474.172v-5.29"/><path data-name="線 118887" d="M512.934 1452.989l4.475-2.844"/><path data-name="線 118888" d="M512.934 1452.988l-1.631-1.212"/><path data-name="線 118889" d="M506.409 1456.671v-5.313"/><path data-name="線 118890" d="M506.409 1491.697v-7.737"/><path data-name="線 118891" d="M511.303 1482.328v-30.552"/><path data-name="線 118892" d="M537.777 1468.067l-26.474 15.475"/><path data-name="線 118893" d="M512.515 1452.592l26.078 15.078"/><path data-name="線 118894" d="M534.934 1467.67l-22 12.631"/><path data-name="線 118895" d="M512.934 1480.301v-25.262"/><path data-name="線 118896" d="M512.934 1455.039l22 12.631"/><path data-name="線 118897" d="M554.486 1423.671l-3.262 2.028"/><path data-name="線 118898" d="M554.486 1423.671l3.262-1.631"/><path data-name="線 118899" d="M564.251 1423.252h.419"/><path data-name="線 118900" d="M585.854 1441.989v-3.659"/><path data-name="線 118901" d="M585.854 1445.67v-3.681"/><path data-name="線 118902" d="M557.749 1461.96l-6.525-3.659"/><path data-name="線 118903" d="M562.224 1459.514l-4.894-2.447"/><path data-name="線 118904" d="M555.699 1455.855l-4.475-2.447"/><path data-name="線 118905" d="M581.776 1441.173v-5.29"/><path data-name="線 118906" d="M555.699 1428.146l-4.475 2.447"/><path data-name="線 118907" d="M555.699 1457.883v-2.028"/><path data-name="線 118908" d="M581.776 1442.805l1.631-.816"/><path data-name="線 118909" d="M581.776 1448.514v-5.709"/><path data-name="線 118910" d="M557.33 1427.33l4.894-2.844"/><path data-name="線 118911" d="M557.33 1427.33l-1.631-1.212"/><path data-name="線 118912" d="M551.224 1430.593v-4.894"/><path data-name="線 118913" d="M551.224 1466.038v-7.737"/><path data-name="線 118914" d="M555.699 1456.67v-30.552"/><path data-name="線 118915" d="M582.592 1442.408l-26.893 15.475"/><path data-name="線 118916" d="M556.933 1426.933l26.474 15.056"/><path data-name="線 118917" d="M579.749 1441.989l-22 12.631"/><path data-name="線 118918" d="M557.749 1454.62v-25.24"/><path data-name="線 118919" d="M557.749 1429.38l22 12.609"/><path data-name="線 118920" d="M510.09 1346.672l-3.681 1.631"/><path data-name="線 118921" d="M510.09 1346.672l3.24-2.028"/><path data-name="線 118922" d="M519.856 1345.857h0"/><path data-name="線 118923" d="M541.458 1364.594v-3.659"/><path data-name="線 118924" d="M541.458 1368.672v-4.078"/><path data-name="線 118925" d="M513.331 1384.962l-6.922-4.078"/><path data-name="線 118926" d="M517.409 1382.119l-4.475-2.447"/><path data-name="線 118927" d="M511.303 1378.856l-4.894-2.844"/><path data-name="線 118928" d="M536.961 1363.778v-5.29"/><path data-name="線 118929" d="M511.303 1350.75l-4.894 2.844"/><path data-name="線 118930" d="M511.303 1380.487v-1.631"/><path data-name="線 118931" d="M536.961 1365.828l1.631-1.234"/><path data-name="線 118932" d="M536.961 1371.118v-5.29"/><path data-name="線 118933" d="M512.934 1349.935l4.475-2.844"/><path data-name="線 118934" d="M512.934 1349.935l-1.631-.816"/><path data-name="線 118935" d="M506.409 1353.594v-5.29"/><path data-name="線 118936" d="M506.409 1388.643v-7.759"/><path data-name="線 118937" d="M511.303 1379.253v-30.134"/><path data-name="線 118938" d="M537.777 1365.013l-26.474 15.475"/><path data-name="線 118939" d="M512.515 1349.516l26.078 15.078"/><path data-name="線 118940" d="M534.934 1364.594l-22 12.631"/><path data-name="線 118941" d="M512.934 1377.225v-25.262"/><path data-name="線 118942" d="M512.934 1351.963l22 12.631"/><path data-name="線 118943" d="M554.486 1475.407l-3.262 1.631"/><path data-name="線 118944" d="M554.486 1475.407l3.262-2.05"/><path data-name="線 118945" d="M564.251 1474.592h.419"/><path data-name="線 118946" d="M585.854 1493.725v-4.056"/><path data-name="線 118947" d="M585.854 1497.406v-3.681"/><path data-name="線 118948" d="M557.749 1513.697l-6.525-3.659"/><path data-name="線 118949" d="M562.224 1511.251l-4.894-2.844"/><path data-name="線 118950" d="M555.699 1507.591l-4.475-2.866"/><path data-name="線 118951" d="M581.776 1492.513v-5.29"/><path data-name="線 118952" d="M555.699 1479.485l-4.475 2.844"/><path data-name="線 118953" d="M555.699 1509.222v-1.631"/><path data-name="線 118954" d="M581.776 1494.541l1.631-.816"/><path data-name="線 118955" d="M581.776 1499.854v-5.313"/><path data-name="線 118956" d="M557.33 1478.67l4.894-2.866"/><path data-name="線 118957" d="M557.33 1478.67l-1.631-.816"/><path data-name="線 118958" d="M551.224 1482.328v-5.29"/><path data-name="線 118959" d="M551.224 1517.356v-7.318"/><path data-name="線 118960" d="M555.699 1507.988v-30.134"/><path data-name="線 118961" d="M582.592 1494.144l-26.893 15.078"/><path data-name="線 118962" d="M556.933 1478.251l26.474 15.475"/><path data-name="線 118963" d="M579.749 1493.725l-22 12.234"/><path data-name="線 118964" d="M557.749 1505.959v-24.865"/><path data-name="線 118965" d="M557.749 1481.094l22 12.631"/><path data-name="線 118966" d="M510.09 1501.066l-3.681 2.028"/><path data-name="線 118967" d="M510.09 1501.066l3.24-2.028"/><path data-name="線 118968" d="M519.856 1500.669v-.419"/><path data-name="線 118969" d="M541.458 1519.406v-4.078"/><path data-name="線 118970" d="M541.458 1523.065v-3.659"/><path data-name="線 118971" d="M513.331 1539.356l-6.922-3.659"/><path data-name="線 118972" d="M517.409 1536.909l-4.475-2.844"/><path data-name="線 118973" d="M511.303 1533.25l-4.894-2.844"/><path data-name="線 118974" d="M536.961 1518.171v-5.29"/><path data-name="線 118975" d="M511.303 1505.144l-4.894 2.844"/><path data-name="線 118976" d="M511.303 1535.278v-2.028"/><path data-name="線 118977" d="M536.961 1520.222l1.631-.816"/><path data-name="線 118978" d="M536.961 1525.512v-5.29"/><path data-name="線 118979" d="M512.934 1504.329l4.475-2.447"/><path data-name="線 118980" d="M512.934 1504.329l-1.631-.816"/><path data-name="線 118981" d="M506.409 1507.988v-4.894"/><path data-name="線 118982" d="M506.409 1543.015v-7.318"/><path data-name="線 118983" d="M511.303 1534.065v-30.552"/><path data-name="線 118984" d="M537.777 1519.803l-26.474 15.475"/><path data-name="線 118985" d="M512.515 1504.328l26.078 15.078"/><path data-name="線 118986" d="M534.934 1519.406l-22 12.609"/><path data-name="線 118987" d="M512.934 1532.015v-25.24"/><path data-name="線 118988" d="M512.934 1506.775l22 12.631"/><path data-name="線 118989" d="M465.275 1475.407l-3.262 1.631"/><path data-name="線 118990" d="M465.276 1475.407l3.262-2.05"/><path data-name="線 118991" d="M475.041 1474.592h0"/><path data-name="線 118992" d="M496.644 1493.725v-4.056"/><path data-name="線 118993" d="M496.644 1497.406v-3.681"/><path data-name="線 118994" d="M468.538 1513.697l-6.525-3.659"/><path data-name="線 118995" d="M473.013 1511.251l-4.894-2.844"/><path data-name="線 118996" d="M466.488 1507.591l-4.475-2.866"/><path data-name="線 118997" d="M492.566 1492.513v-5.29"/><path data-name="線 118998" d="M466.488 1479.485l-4.475 2.844"/><path data-name="線 118999" d="M466.488 1509.222v-1.631"/><path data-name="線 119000" d="M492.566 1494.541l1.631-.816"/><path data-name="線 119001" d="M492.566 1499.854v-5.313"/><path data-name="線 119002" d="M468.119 1478.67l4.894-2.866"/><path data-name="線 119003" d="M468.119 1478.67l-1.631-.816"/><path data-name="線 119004" d="M462.013 1482.328v-5.29"/><path data-name="線 119005" d="M462.013 1517.356v-7.318"/><path data-name="線 119006" d="M466.488 1507.988v-30.134"/><path data-name="線 119007" d="M493.381 1494.144l-26.893 15.078"/><path data-name="線 119008" d="M467.722 1478.251l26.474 15.475"/><path data-name="線 119009" d="M490.538 1493.725l-22 12.234"/><path data-name="線 119010" d="M468.538 1505.959v-24.865"/><path data-name="線 119011" d="M468.538 1481.094l22 12.631"/><path data-name="線 119012" d="M599.3 1501.066l-3.262 2.028"/><path data-name="線 119013" d="M599.301 1501.066l3.262-2.028"/><path data-name="線 119014" d="M609.066 1500.669v-.419"/><path data-name="線 119015" d="M630.669 1519.406v-4.078"/><path data-name="線 119016" d="M630.669 1523.065v-3.659"/><path data-name="線 119017" d="M602.563 1539.356l-6.525-3.659"/><path data-name="線 119018" d="M606.619 1536.909l-4.475-2.844"/><path data-name="線 119019" d="M600.513 1533.25l-4.475-2.844"/><path data-name="線 119020" d="M626.172 1518.171v-5.29"/><path data-name="線 119021" d="M600.513 1505.144l-4.475 2.844"/><path data-name="線 119022" d="M600.513 1535.278v-2.028"/><path data-name="線 119023" d="M626.172 1520.222l1.631-.816"/><path data-name="線 119024" d="M626.172 1525.512v-5.29"/><path data-name="線 119025" d="M602.144 1504.329l4.475-2.447"/><path data-name="線 119026" d="M602.144 1504.329l-1.631-.816"/><path data-name="線 119027" d="M596.038 1507.988v-4.894"/><path data-name="線 119028" d="M596.038 1543.015v-7.318"/><path data-name="線 119029" d="M600.513 1534.065v-30.552"/><path data-name="線 119030" d="M626.987 1519.803l-26.474 15.475"/><path data-name="線 119031" d="M601.748 1504.328l26.056 15.078"/><path data-name="線 119032" d="M624.144 1519.406l-21.581 12.609"/><path data-name="線 119033" d="M602.563 1532.015v-25.24"/><path data-name="線 119034" d="M602.563 1506.775l21.581 12.631"/><path data-name="線 119035" d="M599.3 1449.748l-3.262 1.609"/><path data-name="線 119036" d="M599.301 1449.748l3.262-2.05"/><path data-name="線 119037" d="M609.066 1448.933h0"/><path data-name="線 119038" d="M630.669 1467.67v-3.681"/><path data-name="線 119039" d="M630.669 1471.726v-4.056"/><path data-name="線 119040" d="M602.563 1488.038l-6.525-4.078"/><path data-name="線 119041" d="M606.619 1485.173l-4.475-2.447"/><path data-name="線 119042" d="M600.513 1481.91l-4.475-2.844"/><path data-name="線 119043" d="M626.172 1466.855v-5.313"/><path data-name="線 119044" d="M600.513 1453.804l-4.475 2.866"/><path data-name="線 119045" d="M600.513 1483.541v-1.631"/><path data-name="線 119046" d="M626.172 1468.882l1.631-1.212"/><path data-name="線 119047" d="M626.172 1474.172v-5.29"/><path data-name="線 119048" d="M602.144 1452.989l4.475-2.844"/><path data-name="線 119049" d="M602.144 1452.988l-1.631-1.212"/><path data-name="線 119050" d="M596.038 1456.671v-5.313"/><path data-name="線 119051" d="M596.038 1491.697v-7.737"/><path data-name="線 119052" d="M600.513 1482.328v-30.552"/><path data-name="線 119053" d="M626.987 1468.067l-26.474 15.475"/><path data-name="線 119054" d="M601.748 1452.592l26.056 15.078"/><path data-name="線 119055" d="M624.144 1467.67l-21.581 12.631"/><path data-name="線 119056" d="M602.563 1480.301v-25.262"/><path data-name="線 119057" d="M602.563 1455.039l21.581 12.631"/><path data-name="線 119058" d="M469.75 1368.672v-4.078"/><path data-name="線 119059" d="M469.75 1364.594v-3.659"/><path data-name="線 119060" d="M473.828 1356.041v-.397"/><path data-name="線 119061" d="M501.118 1346.672l-3.262-2.028"/><path data-name="線 119062" d="M501.118 1346.672l3.262 1.631"/><path data-name="線 119063" d="M504.381 1380.884l-6.525 4.078"/><path data-name="線 119064" d="M504.381 1376.012l-4.475 2.844"/><path data-name="線 119065" d="M498.275 1379.672l-4.894 2.447"/><path data-name="線 119066" d="M498.275 1349.935l-4.894-2.844"/><path data-name="線 119067" d="M473.828 1371.118v-5.29"/><path data-name="線 119068" d="M498.275 1379.672l1.631.816"/><path data-name="線 119069" d="M499.906 1350.75v-1.631"/><path data-name="線 119070" d="M499.906 1350.75l4.475 2.844"/><path data-name="線 119071" d="M473.828 1363.778v-5.29"/><path data-name="線 119072" d="M473.828 1363.778l-1.631.816"/><path data-name="線 119073" d="M469.75 1368.672l4.078 2.447"/><path data-name="線 119074" d="M497.856 1384.962l6.525 3.681"/><path data-name="線 119075" d="M498.671 1380.069l-26.474-15.475"/><path data-name="線 119076" d="M499.906 1380.487v-30.552"/><path data-name="線 119077" d="M473.41 1364.197l26.496-15.078"/><path data-name="線 119078" d="M497.856 1377.225v-25.262"/><path data-name="線 119079" d="M497.856 1377.225l-21.581-12.631"/><path data-name="線 119080" d="M476.275 1364.594l21.581-12.631"/><path data-name="線 119081" d="M469.75 1419.989v-3.659"/><path data-name="線 119082" d="M469.75 1416.33v-3.659"/><path data-name="線 119083" d="M473.828 1407.381h0"/><path data-name="線 119084" d="M501.118 1398.012l-3.262-2.05"/><path data-name="線 119085" d="M501.118 1398.012l3.262 2.028"/><path data-name="線 119086" d="M504.381 1432.621l-6.525 3.681"/><path data-name="線 119087" d="M504.381 1427.33l-4.475 2.844"/><path data-name="線 119088" d="M498.275 1430.989l-4.894 2.866"/><path data-name="線 119089" d="M498.275 1401.253l-4.894-2.425"/><path data-name="線 119090" d="M473.828 1422.436v-5.29"/><path data-name="線 119091" d="M498.275 1430.989l1.631 1.234"/><path data-name="線 119092" d="M499.906 1402.487v-2.05"/><path data-name="線 119093" d="M499.906 1402.487l4.475 2.447"/><path data-name="線 119094" d="M473.828 1415.514v-5.709"/><path data-name="線 119095" d="M473.828 1415.515l-1.631.816"/><path data-name="線 119096" d="M469.75 1419.99l4.078 2.447"/><path data-name="線 119097" d="M497.856 1436.302l6.525 3.659"/><path data-name="線 119098" d="M498.671 1431.408l-26.474-15.078"/><path data-name="線 119099" d="M499.906 1432.223v-30.971"/><path data-name="線 119100" d="M473.41 1415.515l26.496-15.078"/><path data-name="線 119101" d="M497.856 1428.961v-25.262"/><path data-name="線 119102" d="M497.856 1428.961l-21.581-12.631"/><path data-name="線 119103" d="M476.275 1416.33l21.581-12.631"/><path data-name="線 119104" d="M514.146 1394.33v-3.659"/><path data-name="線 119105" d="M514.146 1390.671v-4.078"/><path data-name="線 119106" d="M518.643 1381.7v-.397"/><path data-name="線 119107" d="M545.933 1372.331l-3.262-2.028"/><path data-name="線 119108" d="M545.933 1372.331l3.262 2.05"/><path data-name="線 119109" d="M549.196 1406.962l-6.525 3.659"/><path data-name="線 119110" d="M549.196 1401.671l-4.894 2.844"/><path data-name="線 119111" d="M542.671 1405.33l-4.475 2.866"/><path data-name="線 119112" d="M542.671 1375.594l-4.475-2.844"/><path data-name="線 119113" d="M518.643 1396.777v-5.29"/><path data-name="線 119114" d="M542.671 1405.33l1.631.816"/><path data-name="線 119115" d="M544.302 1376.409v-1.631"/><path data-name="線 119116" d="M544.302 1376.409l4.894 2.844"/><path data-name="線 119117" d="M518.643 1389.437v-5.29"/><path data-name="線 119118" d="M518.643 1389.437l-1.631 1.234"/><path data-name="線 119119" d="M514.146 1394.331l4.497 2.447"/><path data-name="線 119120" d="M542.671 1410.621l6.525 3.681"/><path data-name="線 119121" d="M543.486 1405.749l-26.474-15.078"/><path data-name="線 119122" d="M544.302 1406.146v-30.552"/><path data-name="線 119123" d="M518.224 1389.856l26.078-15.078"/><path data-name="線 119124" d="M542.671 1403.302v-25.262"/><path data-name="線 119125" d="M542.671 1403.302l-22-12.631"/><path data-name="線 119126" d="M520.671 1390.671l22-12.631"/><path data-name="線 119127" d="M558.961 1419.989v-3.659"/><path data-name="線 119128" d="M558.961 1416.33v-3.659"/><path data-name="線 119129" d="M563.039 1407.381h0"/><path data-name="線 119130" d="M590.329 1398.012l-3.262-2.05"/><path data-name="線 119131" d="M590.329 1398.012l3.262 2.028"/><path data-name="線 119132" d="M593.592 1432.621l-6.525 3.681"/><path data-name="線 119133" d="M593.592 1427.33l-4.475 2.844"/><path data-name="線 119134" d="M587.486 1430.989l-4.894 2.866"/><path data-name="線 119135" d="M587.486 1401.253l-4.894-2.425"/><path data-name="線 119136" d="M563.039 1422.436v-5.29"/><path data-name="線 119137" d="M587.485 1430.989l1.631 1.234"/><path data-name="線 119138" d="M589.117 1402.487v-2.05"/><path data-name="線 119139" d="M589.117 1402.487l4.475 2.447"/><path data-name="線 119140" d="M563.039 1415.514v-5.709"/><path data-name="線 119141" d="M563.039 1415.515l-1.212.816"/><path data-name="線 119142" d="M558.961 1419.99l4.078 2.447"/><path data-name="線 119143" d="M587.067 1436.302l6.525 3.659"/><path data-name="線 119144" d="M587.883 1431.408l-26.056-15.078"/><path data-name="線 119145" d="M589.117 1432.223v-30.971"/><path data-name="線 119146" d="M562.642 1415.515l26.474-15.078"/><path data-name="線 119147" d="M587.067 1428.961v-25.262"/><path data-name="線 119148" d="M587.067 1428.961l-21.581-12.631"/><path data-name="線 119149" d="M565.486 1416.33l21.581-12.631"/><path data-name="線 119150" d="M603.379 1394.33v-3.659"/><path data-name="線 119151" d="M603.379 1390.671v-4.078"/><path data-name="線 119152" d="M607.854 1381.7v-.397"/><path data-name="線 119153" d="M635.143 1372.331l-3.262-2.028"/><path data-name="線 119154" d="M635.144 1372.331l3.262 2.05"/><path data-name="線 119155" d="M638.406 1406.962l-6.525 3.659"/><path data-name="線 119156" d="M638.407 1401.671l-4.894 2.844"/><path data-name="線 119157" d="M631.881 1405.33l-4.475 2.866"/><path data-name="線 119158" d="M631.881 1375.594l-4.475-2.844"/><path data-name="線 119159" d="M607.854 1396.777v-5.29"/><path data-name="線 119160" d="M631.881 1405.33l1.631.816"/><path data-name="線 119161" d="M633.513 1376.409v-1.631"/><path data-name="線 119162" d="M633.513 1376.409l4.894 2.844"/><path data-name="線 119163" d="M607.854 1389.437v-5.29"/><path data-name="線 119164" d="M607.854 1389.437l-1.631 1.234"/><path data-name="線 119165" d="M603.379 1394.331l4.475 2.447"/><path data-name="線 119166" d="M631.881 1410.621l6.525 3.681"/><path data-name="線 119167" d="M632.697 1405.749l-26.474-15.078"/><path data-name="線 119168" d="M633.513 1406.146v-30.552"/><path data-name="線 119169" d="M607.435 1389.856l26.078-15.078"/><path data-name="線 119170" d="M631.881 1403.302v-25.262"/><path data-name="線 119171" d="M631.882 1403.302l-22-12.631"/><path data-name="線 119172" d="M609.882 1390.671l22-12.631"/><path data-name="線 119173" d="M558.961 1368.672v-4.078"/><path data-name="線 119174" d="M558.961 1364.594v-3.659"/><path data-name="線 119175" d="M563.039 1356.041v-.397"/><path data-name="線 119176" d="M590.329 1346.672l-3.262-2.028"/><path data-name="線 119177" d="M590.329 1346.672l3.262 1.631"/><path data-name="線 119178" d="M593.592 1380.884l-6.525 4.078"/><path data-name="線 119179" d="M593.592 1376.012l-4.475 2.844"/><path data-name="線 119180" d="M587.486 1379.672l-4.894 2.447"/><path data-name="線 119181" d="M587.486 1349.935l-4.894-2.844"/><path data-name="線 119182" d="M563.039 1371.118v-5.29"/><path data-name="線 119183" d="M587.485 1379.672l1.631.816"/><path data-name="線 119184" d="M589.117 1350.75v-1.631"/><path data-name="線 119185" d="M589.117 1350.75l4.475 2.844"/><path data-name="線 119186" d="M563.039 1363.778v-5.29"/><path data-name="線 119187" d="M563.039 1363.778l-1.212.816"/><path data-name="線 119188" d="M558.961 1368.672l4.078 2.447"/><path data-name="線 119189" d="M587.067 1384.962l6.525 3.681"/><path data-name="線 119190" d="M587.883 1380.069l-26.056-15.475"/><path data-name="線 119191" d="M589.117 1380.487v-30.552"/><path data-name="線 119192" d="M562.642 1364.197l26.474-15.078"/><path data-name="線 119193" d="M587.067 1377.225v-25.262"/><path data-name="線 119194" d="M587.067 1377.225l-21.581-12.631"/><path data-name="線 119195" d="M565.486 1364.594l21.581-12.631"/><path data-name="線 119196" d="M469.75 1523.065v-3.659"/><path data-name="線 119197" d="M469.75 1519.406v-4.078"/><path data-name="線 119198" d="M473.828 1510.435h0"/><path data-name="線 119199" d="M501.118 1501.066l-3.262-2.028"/><path data-name="線 119200" d="M501.118 1501.066l3.262 2.028"/><path data-name="線 119201" d="M504.381 1535.697l-6.525 3.659"/><path data-name="線 119202" d="M504.381 1530.406l-4.475 2.844"/><path data-name="線 119203" d="M498.275 1534.065l-4.894 2.844"/><path data-name="線 119204" d="M498.275 1504.329l-4.894-2.447"/><path data-name="線 119205" d="M473.828 1525.512v-5.29"/><path data-name="線 119206" d="M498.275 1534.065l1.631 1.212"/><path data-name="線 119207" d="M499.906 1505.144v-1.631"/><path data-name="線 119208" d="M499.906 1505.144l4.475 2.844"/><path data-name="線 119209" d="M473.828 1518.171v-5.29"/><path data-name="線 119210" d="M473.828 1518.172l-1.631 1.234"/><path data-name="線 119211" d="M469.75 1523.066l4.078 2.447"/><path data-name="線 119212" d="M497.856 1539.356l6.525 3.659"/><path data-name="線 119213" d="M498.671 1534.462l-26.474-15.056"/><path data-name="線 119214" d="M499.906 1535.277v-30.949"/><path data-name="線 119215" d="M473.41 1518.591l26.496-15.078"/><path data-name="線 119216" d="M497.856 1532.015v-25.24"/><path data-name="線 119217" d="M497.856 1532.015l-21.581-12.609"/><path data-name="線 119218" d="M476.275 1519.406l21.581-12.631"/><path data-name="線 119219" d="M469.75 1471.726v-4.056"/><path data-name="線 119220" d="M469.75 1467.67v-3.681"/><path data-name="線 119221" d="M473.828 1459.117v-.419"/><path data-name="線 119222" d="M501.118 1449.748l-3.262-2.05"/><path data-name="線 119223" d="M501.118 1449.748l3.262 1.609"/><path data-name="線 119224" d="M504.381 1483.96l-6.525 4.078"/><path data-name="線 119225" d="M504.381 1479.066l-4.475 2.844"/><path data-name="線 119226" d="M498.275 1482.726l-4.894 2.447"/><path data-name="線 119227" d="M498.275 1452.989l-4.894-2.844"/><path data-name="線 119228" d="M473.828 1474.172v-5.29"/><path data-name="線 119229" d="M498.275 1482.726l1.631.816"/><path data-name="線 119230" d="M499.906 1453.804v-2.028"/><path data-name="線 119231" d="M499.906 1453.804l4.475 2.866"/><path data-name="線 119232" d="M473.828 1466.855v-5.313"/><path data-name="線 119233" d="M473.828 1466.854l-1.631.816"/><path data-name="線 119234" d="M469.75 1471.726l4.078 2.447"/><path data-name="線 119235" d="M497.856 1488.038l6.525 3.659"/><path data-name="線 119236" d="M498.671 1483.145l-26.474-15.475"/><path data-name="線 119237" d="M499.906 1483.541v-30.552"/><path data-name="線 119238" d="M473.41 1467.251l26.496-15.475"/><path data-name="線 119239" d="M497.856 1480.301v-25.262"/><path data-name="線 119240" d="M497.856 1480.301l-21.581-12.631"/><path data-name="線 119241" d="M476.275 1467.67l21.581-12.631"/><path data-name="線 119242" d="M514.146 1497.406v-3.681"/><path data-name="線 119243" d="M514.146 1493.725v-4.056"/><path data-name="線 119244" d="M518.643 1484.776v-.419"/><path data-name="線 119245" d="M545.933 1475.407l-3.262-2.05"/><path data-name="線 119246" d="M545.933 1475.407l3.262 1.631"/><path data-name="線 119247" d="M549.196 1510.038l-6.525 3.659"/><path data-name="線 119248" d="M549.196 1504.725l-4.894 2.866"/><path data-name="線 119249" d="M542.671 1508.407l-4.475 2.844"/><path data-name="線 119250" d="M542.671 1478.67l-4.475-2.866"/><path data-name="線 119251" d="M518.643 1499.854v-5.313"/><path data-name="線 119252" d="M542.671 1508.407l1.631.816"/><path data-name="線 119253" d="M544.302 1479.485v-1.631"/><path data-name="線 119254" d="M544.302 1479.485l4.894 2.844"/><path data-name="線 119255" d="M518.643 1492.513v-5.29"/><path data-name="線 119256" d="M518.643 1492.513l-1.631 1.212"/><path data-name="線 119257" d="M514.146 1497.407l4.497 2.447"/><path data-name="線 119258" d="M543.486 1508.803l-26.474-15.078"/><path data-name="線 119259" d="M544.302 1509.222v-30.552"/><path data-name="線 119260" d="M518.224 1492.91l26.078-15.056"/><path data-name="線 119261" d="M542.671 1505.959v-24.865"/><path data-name="線 119262" d="M542.671 1505.959l-22-12.234"/><path data-name="線 119263" d="M520.671 1493.725l22-12.631"/><path data-name="線 119264" d="M558.961 1471.726v-4.056"/><path data-name="線 119265" d="M558.961 1467.67v-3.681"/><path data-name="線 119266" d="M563.039 1459.117v-.419"/><path data-name="線 119267" d="M590.329 1449.748l-3.262-2.05"/><path data-name="線 119268" d="M590.329 1449.748l3.262 1.609"/><path data-name="線 119269" d="M593.592 1483.96l-6.525 4.078"/><path data-name="線 119270" d="M593.592 1479.066l-4.475 2.844"/><path data-name="線 119271" d="M587.486 1482.726l-4.894 2.447"/><path data-name="線 119272" d="M587.486 1452.989l-4.894-2.844"/><path data-name="線 119273" d="M563.039 1474.172v-5.29"/><path data-name="線 119274" d="M587.485 1482.726l1.631.816"/><path data-name="線 119275" d="M589.117 1453.804v-2.028"/><path data-name="線 119276" d="M589.117 1453.804l4.475 2.866"/><path data-name="線 119277" d="M563.039 1466.855v-5.313"/><path data-name="線 119278" d="M563.039 1466.854l-1.212.816"/><path data-name="線 119279" d="M558.961 1471.726l4.078 2.447"/><path data-name="線 119280" d="M587.067 1488.038l6.525 3.659"/><path data-name="線 119281" d="M587.883 1483.145l-26.056-15.475"/><path data-name="線 119282" d="M589.117 1483.541v-30.552"/><path data-name="線 119283" d="M562.642 1467.251l26.474-15.475"/><path data-name="線 119284" d="M587.067 1480.301v-25.262"/><path data-name="線 119285" d="M587.067 1480.301l-21.581-12.631"/><path data-name="線 119286" d="M565.486 1467.67l21.581-12.631"/><path data-name="線 119287" d="M514.146 1445.67v-3.681"/><path data-name="線 119288" d="M514.146 1441.989v-3.659"/><path data-name="線 119289" d="M518.643 1433.039h0"/><path data-name="線 119290" d="M545.933 1423.671l-3.262-1.631"/><path data-name="線 119291" d="M545.933 1423.671l3.262 2.028"/><path data-name="線 119292" d="M549.196 1458.301l-6.525 3.659"/><path data-name="線 119293" d="M549.196 1453.408l-4.894 2.447"/><path data-name="線 119294" d="M542.671 1457.067l-4.475 2.447"/><path data-name="線 119295" d="M542.671 1427.33l-4.475-2.844"/><path data-name="線 119296" d="M518.643 1448.514v-5.709"/><path data-name="線 119297" d="M542.671 1457.067l1.631.816"/><path data-name="線 119298" d="M544.302 1428.146v-2.028"/><path data-name="線 119299" d="M544.302 1428.146l4.894 2.447"/><path data-name="線 119300" d="M518.643 1441.173v-5.29"/><path data-name="線 119301" d="M518.643 1441.173l-1.631.816"/><path data-name="線 119302" d="M514.146 1445.67l4.497 2.844"/><path data-name="線 119303" d="M542.671 1461.961l6.525 4.078"/><path data-name="線 119304" d="M543.486 1457.067l-26.474-15.078"/><path data-name="線 119305" d="M544.302 1457.882v-30.949"/><path data-name="線 119306" d="M518.224 1441.174l26.078-15.056"/><path data-name="線 119307" d="M542.671 1454.62v-25.24"/><path data-name="線 119308" d="M542.671 1454.62l-22-12.631"/><path data-name="線 119309" d="M520.671 1441.989l22-12.609"/><path data-name="線 119310" d="M603.379 1497.406v-3.681"/><path data-name="線 119311" d="M603.379 1493.725v-4.056"/><path data-name="線 119312" d="M607.854 1484.776v-.419"/><path data-name="線 119313" d="M635.143 1475.407l-3.262-2.05"/><path data-name="線 119314" d="M635.144 1475.407l3.262 1.631"/><path data-name="線 119315" d="M638.406 1510.038l-6.525 3.659"/><path data-name="線 119316" d="M638.407 1504.725l-4.894 2.866"/><path data-name="線 119317" d="M631.881 1508.407l-4.475 2.844"/><path data-name="線 119318" d="M631.881 1478.67l-4.475-2.866"/><path data-name="線 119319" d="M607.854 1499.854v-5.313"/><path data-name="線 119320" d="M631.881 1508.407l1.631.816"/><path data-name="線 119321" d="M633.513 1479.485v-1.631"/><path data-name="線 119322" d="M633.513 1479.485l4.894 2.844"/><path data-name="線 119323" d="M607.854 1492.513v-5.29"/><path data-name="線 119324" d="M607.854 1492.513l-1.631 1.212"/><path data-name="線 119325" d="M603.379 1497.407l4.475 2.447"/><path data-name="線 119326" d="M631.881 1513.697l6.525 3.659"/><path data-name="線 119327" d="M632.697 1508.803l-26.474-15.078"/><path data-name="線 119328" d="M633.513 1509.222v-30.552"/><path data-name="線 119329" d="M607.435 1492.91l26.078-15.056"/><path data-name="線 119330" d="M631.881 1505.959v-24.865"/><path data-name="線 119331" d="M631.882 1505.959l-22-12.234"/><path data-name="線 119332" d="M609.882 1493.725l22-12.631"/><path data-name="線 119333" d="M603.379 1445.67v-3.681"/><path data-name="線 119334" d="M603.379 1441.989v-3.659"/><path data-name="線 119335" d="M607.854 1433.039h0"/><path data-name="線 119336" d="M635.143 1423.671l-3.262-1.631"/><path data-name="線 119337" d="M635.144 1423.671l3.262 2.028"/><path data-name="線 119338" d="M638.406 1458.301l-6.525 3.659"/><path data-name="線 119339" d="M638.407 1453.408l-4.894 2.447"/><path data-name="線 119340" d="M631.881 1457.067l-4.475 2.447"/><path data-name="線 119341" d="M631.881 1427.33l-4.475-2.844"/><path data-name="線 119342" d="M607.854 1448.514v-5.709"/><path data-name="線 119343" d="M631.881 1457.067l1.631.816"/><path data-name="線 119344" d="M633.513 1428.146v-2.028"/><path data-name="線 119345" d="M633.513 1428.146l4.894 2.447"/><path data-name="線 119346" d="M607.854 1441.173v-5.29"/><path data-name="線 119347" d="M607.854 1441.173l-1.631.816"/><path data-name="線 119348" d="M603.379 1445.67l4.475 2.844"/><path data-name="線 119349" d="M631.881 1461.961l6.525 4.078"/><path data-name="線 119350" d="M632.697 1457.067l-26.474-15.078"/><path data-name="線 119351" d="M633.513 1457.882v-30.949"/><path data-name="線 119352" d="M607.435 1441.174l26.078-15.056"/><path data-name="線 119353" d="M631.881 1454.62v-25.24"/><path data-name="線 119354" d="M631.882 1454.62l-22-12.631"/><path data-name="線 119355" d="M609.882 1441.989l22-12.609"/><path data-name="線 119356" d="M558.961 1523.065v-3.659"/><path data-name="線 119357" d="M558.961 1519.406v-4.078"/><path data-name="線 119358" d="M563.039 1510.435h0"/><path data-name="線 119359" d="M590.329 1501.066l-3.262-2.028"/><path data-name="線 119360" d="M590.329 1501.066l3.262 2.028"/><path data-name="線 119361" d="M593.592 1535.697l-6.525 3.659"/><path data-name="線 119362" d="M593.592 1530.406l-4.475 2.844"/><path data-name="線 119363" d="M587.486 1534.065l-4.894 2.844"/><path data-name="線 119364" d="M587.486 1504.329l-4.894-2.447"/><path data-name="線 119365" d="M563.039 1525.512v-5.29"/><path data-name="線 119366" d="M587.485 1534.065l1.631 1.212"/><path data-name="線 119367" d="M589.117 1505.144v-1.631"/><path data-name="線 119368" d="M589.117 1505.144l4.475 2.844"/><path data-name="線 119369" d="M563.039 1518.171v-5.29"/><path data-name="線 119370" d="M563.039 1518.172l-1.212 1.234"/><path data-name="線 119371" d="M558.961 1523.066l4.078 2.447"/><path data-name="線 119372" d="M587.067 1539.356l6.525 3.659"/><path data-name="線 119373" d="M587.883 1534.462l-26.056-15.056"/><path data-name="線 119374" d="M589.117 1535.277v-30.949"/><path data-name="線 119375" d="M562.642 1518.591l26.474-15.078"/><path data-name="線 119376" d="M587.067 1532.015v-25.24"/><path data-name="線 119377" d="M587.067 1532.015l-21.581-12.609"/><path data-name="線 119378" d="M565.486 1519.406l21.581-12.631"/><path data-name="線 119379" d="M638.406 1531.618v-192.683"/><path data-name="線 119380" d="M462.013 1545.065v-193.918"/><path data-name="線 119381" d="M451.013 1545.065v-193.918"/><path data-name="線 119382" d="M648.987 1517.356v-23.631"/><path data-name="線 119383" d="M638.406 1545.065l10.581 11"/><path data-name="線 119384" d="M462.013 1545.065l-11 11"/><path data-name="線 119385" d="M451.013 1327.935l11 11"/><path data-name="線 119386" d="M638.406 1338.935l10.581-11"/><path data-name="線 119387" d="M648.987 1327.935H451.013"/><path data-name="線 119388" d="M451.013 1351.147v-23.212"/><path data-name="線 119389" d="M648.987 1493.725v-165.79"/><path data-name="線 119390" d="M638.406 1362.963l-41.552-24.028"/><path data-name="線 119391" d="M638.406 1365.409l-45.63-26.474"/><path data-name="線 119392" d="M638.406 1366.644l-41.552 24.028"/><path data-name="線 119393" d="M596.038 1388.644v-6.525"/><path data-name="線 119394" d="M596.039 1389.855l-2.447-1.212"/><path data-name="線 119395" d="M587.066 1384.962l-37.055-21.581"/><path data-name="線 119396" d="M596.854 1441.989l-3.262-2.028"/><path data-name="線 119397" d="M587.066 1436.302l-37.055-21.184"/><path data-name="線 119398" d="M603.379 1445.67l-6.525-3.681"/><path data-name="線 119399" d="M550.011 1466.435l-31.368-17.921"/><path data-name="線 119400" d="M514.146 1445.67l-6.503-3.681"/><path data-name="線 119401" d="M507.643 1441.989l-3.262-2.028"/><path data-name="線 119402" d="M506.409 1492.909l-2.028-1.212"/><path data-name="線 119403" d="M507.643 1493.725l6.503 3.681"/><path data-name="線 119404" d="M518.643 1499.854l31.368 18.318"/><path data-name="線 119405" d="M596.854 1493.725l41.552 23.631"/><path data-name="線 119406" d="M596.038 1495.357l42.368 24.446"/><path data-name="線 119407" d="M638.406 1521.038l-41.552 24.028"/><path data-name="線 119408" d="M638.406 1466.039l-30.552-17.525"/><path data-name="線 119409" d="M638.406 1468.485l-45.63-26.496"/><path data-name="線 119410" d="M638.406 1469.698l-41.552 24.028"/><path data-name="線 119411" d="M596.854 1390.671l41.552 23.631"/><path data-name="線 119412" d="M596.038 1392.303l42.368 24.446"/><path data-name="線 119413" d="M638.406 1417.961l-41.552 24.028"/><path data-name="線 119414" d="M599.3 1346.672l-3.262 1.631"/><path data-name="線 119415" d="M599.301 1346.672l3.262-2.028"/><path data-name="線 119416" d="M630.669 1364.594v-3.659"/><path data-name="線 119417" d="M630.669 1368.672v-4.078"/><path data-name="線 119418" d="M602.563 1384.962l-6.525-4.078"/><path data-name="線 119419" d="M606.619 1382.119l-4.475-2.447"/><path data-name="線 119420" d="M600.513 1378.856l-4.475-2.844"/><path data-name="線 119421" d="M626.172 1363.778v-5.29"/><path data-name="線 119422" d="M600.513 1350.75l-4.475 2.844"/><path data-name="線 119423" d="M600.513 1380.487v-1.631"/><path data-name="線 119424" d="M626.172 1365.828l1.631-1.234"/><path data-name="線 119425" d="M626.172 1371.118v-5.29"/><path data-name="線 119426" d="M602.144 1349.935l4.475-2.844"/><path data-name="線 119427" d="M602.144 1349.935l-1.631-.816"/><path data-name="線 119428" d="M596.038 1353.594v-5.29"/><path data-name="線 119429" d="M596.038 1388.643v-7.759"/><path data-name="線 119430" d="M600.513 1379.253v-30.134"/><path data-name="線 119431" d="M626.987 1365.013l-26.474 15.475"/><path data-name="線 119432" d="M601.748 1349.516l26.056 15.078"/><path data-name="線 119433" d="M624.144 1364.594l-21.581 12.631"/><path data-name="線 119434" d="M602.563 1377.225v-25.262"/><path data-name="線 119435" d="M602.563 1351.963l21.581 12.631"/><path data-name="線 119436" d="M607.854 1381.7v-.397"/><path data-name="線 119437" d="M637.172 1364.594l-6.503 4.078"/><path data-name="線 119438" d="M451.013 1556.065v-11"/><path data-name="線 119439" d="M648.987 1556.065H451.013"/><path data-name="線 119440" d="M503.146 1545.065h-41.133"/><path data-name="線 119441" d="M638.406 1545.065h-135.26"/><path data-name="線 119442" d="M648.987 1556.065v-38.709"/><path data-name="線 119443" d="M596.854 1545.065l-33.815-19.553"/><path data-name="線 119444" d="M558.961 1523.066l-8.95-4.894"/><path data-name="線 119445" d="M503.146 1338.935l-41.133 24.028"/><path data-name="線 119446" d="M506.409 1389.856l-44.396-25.659"/><path data-name="線 119447" d="M504.381 1391.068l-42.368-24.424"/><path data-name="線 119448" d="M503.146 1390.671l-41.133 23.631"/><path data-name="線 119449" d="M497.856 1436.302l-35.843-20.787"/><path data-name="線 119450" d="M503.146 1441.989l-41.133-24.028"/><path data-name="線 119451" d="M503.146 1441.989l-41.133 24.05"/><path data-name="線 119452" d="M497.856 1488.038l-35.843-20.787"/><path data-name="線 119453" d="M504.381 1494.144l-42.368-24.446"/><path data-name="線 119454" d="M503.146 1493.725l-41.133 23.631"/><path data-name="線 119455" d="M507.643 1545.065l-45.63-26.474"/><path data-name="線 119456" d="M503.146 1545.066l-41.133-24.028"/><path data-name="線 119457" d="M596.039 1492.909l-2.447-1.212"/><path data-name="線 119458" d="M587.066 1488.038l-37.055-21.603"/></g></g></svg>