<svg xmlns="http://www.w3.org/2000/svg" width="200" height="230"><defs><clipPath id="a"><path data-name="長方形 180" transform="translate(450 1327)" fill="#ccc" d="M0 0h200v230H0z"/></clipPath></defs><g data-name="マスクグループ 586" transform="translate(-450 -1327)" clip-path="url(#a)"><g data-name="グループ 3454" fill="none" stroke="#c49535" stroke-linecap="round" stroke-linejoin="round" stroke-width="1.308"><path data-name="線 124739" d="M558.457 1414.823l-5.645-3.226"/><path data-name="線 124740" d="M555.645 1416.436L550 1413.21"/><path data-name="線 124741" d="M551.613 1410.791h0"/><path data-name="線 124742" d="M547.189 1411.597l-32.626-18.939"/><path data-name="線 124743" d="M541.545 1414.823l-32.626-18.939"/><path data-name="線 124744" d="M601.151 1543.69h-79.352"/><path data-name="線 124745" d="M594.307 1496.18l-6.037-3.226"/><path data-name="線 124746" d="M591.082 1497.793l-5.645-3.226"/><path data-name="線 124747" d="M638.201 1515.097l-49.538 28.594"/><path data-name="線 124748" d="M638.201 1511.871l-32.626-18.917"/><path data-name="線 124749" d="M635.389 1513.484l-32.626-18.917"/><path data-name="線 124750" d="M638.201 1521.548l-5.645-3.226"/><path data-name="線 124751" d="M629.745 1516.709l-32.626-18.917"/><path data-name="線 124752" d="M635.389 1523.161l-5.645-3.226"/><path data-name="線 124753" d="M626.518 1518.322l-32.211-18.917"/><path data-name="線 124754" d="M638.201 1525.165l-32.626 18.525"/><path data-name="線 124755" d="M638.2 1521.548l-38.248 22.143"/><path data-name="線 124756" d="M602.764 1542.078l-5.645-3.204"/><path data-name="線 124757" d="M594.308 1537.261l-32.626-18.939"/><path data-name="線 124758" d="M599.952 1543.691l-5.645-3.204"/><path data-name="線 124759" d="M591.082 1538.874l-32.626-18.939"/><path data-name="線 124760" d="M638.201 1511.871l-55.575 31.819"/><path data-name="線 124761" d="M550 1525.165l55.575-32.211"/><path data-name="線 124762" d="M582.626 1543.69L550 1525.165"/><path data-name="線 124763" d="M550 1521.548l49.952-28.594"/><path data-name="線 124764" d="M585.438 1542.077l-32.626-18.917"/><path data-name="線 124765" d="M558.457 1516.71l-5.645-3.226"/><path data-name="線 124766" d="M555.645 1518.323l-5.645-3.226"/><path data-name="線 124767" d="M550 1515.097l38.27-22.143"/><path data-name="線 124768" d="M550 1511.871l32.626-18.917"/><path data-name="線 124769" d="M638.2 1543.69v-18.525"/><path data-name="線 124770" d="M638.2 1525.165v-32.211"/><path data-name="線 124771" d="M506.107 1496.18l-6.037-3.226"/><path data-name="線 124772" d="M502.882 1497.793l-5.645-3.226"/><path data-name="線 124773" d="M550 1515.097l-49.538 28.594"/><path data-name="線 124774" d="M551.613 1512.677h0"/><path data-name="線 124775" d="M550.001 1511.871l-32.626-18.917"/><path data-name="線 124776" d="M547.189 1513.484l-32.626-18.917"/><path data-name="線 124777" d="M550.001 1521.548l-5.645-3.226"/><path data-name="線 124778" d="M541.545 1516.709l-32.626-18.917"/><path data-name="線 124779" d="M547.189 1523.161l-5.645-3.226"/><path data-name="線 124780" d="M538.318 1518.322l-32.211-18.917"/><path data-name="線 124781" d="M550.001 1525.165l-32.626 18.525"/><path data-name="線 124782" d="M550 1521.548l-38.27 22.143"/><path data-name="線 124783" d="M514.564 1542.078l-5.645-3.204"/><path data-name="線 124784" d="M506.108 1537.261l-32.626-18.939"/><path data-name="線 124785" d="M511.73 1543.691l-5.623-3.204"/><path data-name="線 124786" d="M502.882 1538.874l-32.626-18.939"/><path data-name="線 124787" d="M550.001 1511.871l-55.575 31.819"/><path data-name="線 124788" d="M461.8 1525.165l55.575-32.211"/><path data-name="線 124789" d="M494.426 1543.69l-32.626-18.525"/><path data-name="線 124790" d="M461.8 1521.548l49.93-28.594"/><path data-name="線 124791" d="M497.237 1542.077l-32.626-18.917"/><path data-name="線 124792" d="M470.256 1516.71l-5.645-3.226"/><path data-name="線 124793" d="M467.445 1518.323l-5.645-3.226"/><path data-name="線 124794" d="M461.8 1515.097l38.27-22.143"/><path data-name="線 124795" d="M461.8 1511.871l32.626-18.917"/><path data-name="線 124796" d="M594.307 1445.421l-6.037-3.618"/><path data-name="線 124797" d="M591.082 1447.035l-5.645-3.226"/><path data-name="線 124798" d="M638.201 1463.946l-49.538 29.008"/><path data-name="線 124799" d="M638.201 1460.72l-32.626-18.917"/><path data-name="線 124800" d="M635.389 1462.334l-32.626-18.525"/><path data-name="線 124801" d="M638.201 1470.79l-5.645-3.204"/><path data-name="線 124802" d="M629.745 1465.559l-32.626-18.525"/><path data-name="線 124803" d="M635.389 1472.403l-5.645-3.204"/><path data-name="線 124804" d="M626.518 1467.586l-32.211-18.939"/><path data-name="線 124805" d="M638.201 1474.015l-32.626 18.939"/><path data-name="線 124806" d="M638.2 1470.789l-38.248 22.164"/><path data-name="線 124807" d="M602.764 1491.342l-5.645-3.226"/><path data-name="線 124808" d="M594.308 1486.111l-32.626-18.525"/><path data-name="線 124809" d="M599.952 1492.954l-5.645-3.226"/><path data-name="線 124810" d="M591.082 1488.116l-32.626-18.917"/><path data-name="線 124811" d="M638.201 1460.721l-55.575 32.233"/><path data-name="線 124812" d="M550 1474.014l55.575-32.211"/><path data-name="線 124813" d="M582.626 1492.954L550 1474.015"/><path data-name="線 124814" d="M550 1470.789l49.952-28.986"/><path data-name="線 124815" d="M585.438 1491.341l-32.626-18.939"/><path data-name="線 124816" d="M558.457 1465.559l-5.645-3.226"/><path data-name="線 124817" d="M555.645 1467.586l-5.645-3.64"/><path data-name="線 124818" d="M550 1463.946l38.27-22.143"/><path data-name="線 124819" d="M550 1460.72l32.626-18.917"/><path data-name="線 124820" d="M638.2 1492.954v-18.939"/><path data-name="線 124821" d="M638.2 1474.014v-32.211"/><path data-name="線 124822" d="M506.107 1445.421l-6.037-3.618"/><path data-name="線 124823" d="M502.882 1447.035l-5.645-3.226"/><path data-name="線 124824" d="M550 1463.946l-49.538 29.008"/><path data-name="線 124825" d="M551.613 1461.527h0"/><path data-name="線 124826" d="M550.001 1460.72l-32.626-18.917"/><path data-name="線 124827" d="M547.189 1462.334l-32.626-18.525"/><path data-name="線 124828" d="M550.001 1470.79l-5.645-3.204"/><path data-name="線 124829" d="M541.545 1465.559l-32.626-18.525"/><path data-name="線 124830" d="M547.189 1472.403l-5.645-3.204"/><path data-name="線 124831" d="M538.318 1467.586l-32.211-18.939"/><path data-name="線 124832" d="M550.001 1474.015l-32.626 18.939"/><path data-name="線 124833" d="M550 1470.789l-38.27 22.164"/><path data-name="線 124834" d="M514.564 1491.342l-5.645-3.226"/><path data-name="線 124835" d="M506.108 1486.111l-32.626-18.525"/><path data-name="線 124836" d="M511.73 1492.954l-5.623-3.226"/><path data-name="線 124837" d="M502.882 1488.116l-32.626-18.917"/><path data-name="線 124838" d="M550.001 1460.721l-55.575 32.233"/><path data-name="線 124839" d="M461.8 1474.014l55.575-32.211"/><path data-name="線 124840" d="M494.426 1492.954l-32.626-18.939"/><path data-name="線 124841" d="M461.8 1470.789l49.93-28.986"/><path data-name="線 124842" d="M497.237 1491.341l-32.626-18.939"/><path data-name="線 124843" d="M470.256 1465.559l-5.645-3.226"/><path data-name="線 124844" d="M467.445 1467.586l-5.645-3.64"/><path data-name="線 124845" d="M461.8 1463.946l38.27-22.143"/><path data-name="線 124846" d="M461.8 1460.72l32.626-18.917"/><path data-name="線 124847" d="M594.307 1394.271l-6.037-3.226"/><path data-name="線 124848" d="M591.082 1395.884l-5.645-3.226"/><path data-name="線 124849" d="M638.201 1413.21l-49.538 28.594"/><path data-name="線 124850" d="M638.201 1409.984l-32.626-18.939"/><path data-name="線 124851" d="M635.389 1411.597l-32.626-18.939"/><path data-name="線 124852" d="M638.201 1419.661l-5.645-3.226"/><path data-name="線 124853" d="M629.745 1414.823l-32.626-18.939"/><path data-name="線 124854" d="M635.389 1421.666l-5.645-3.618"/><path data-name="線 124855" d="M626.518 1416.435l-32.211-18.939"/><path data-name="線 124856" d="M638.201 1423.279l-32.626 18.525"/><path data-name="線 124857" d="M638.2 1419.661l-38.248 22.143"/><path data-name="線 124858" d="M602.764 1440.191l-5.645-3.226"/><path data-name="線 124859" d="M594.308 1435.352l-32.626-18.917"/><path data-name="線 124860" d="M599.952 1441.804l-5.645-3.226"/><path data-name="線 124861" d="M591.082 1436.965l-32.626-18.917"/><path data-name="線 124862" d="M638.201 1409.984l-55.575 31.819"/><path data-name="線 124863" d="M550 1423.278l55.575-32.233"/><path data-name="線 124864" d="M582.626 1441.804L550 1423.279"/><path data-name="線 124865" d="M550 1419.66l49.952-28.615"/><path data-name="線 124866" d="M585.438 1440.191l-32.626-18.525"/><path data-name="線 124867" d="M550 1413.209l38.27-22.164"/><path data-name="線 124868" d="M550 1409.984l32.626-18.939"/><path data-name="線 124869" d="M638.2 1441.804v-18.525"/><path data-name="線 124870" d="M638.2 1423.278v-32.233"/><path data-name="線 124871" d="M506.107 1394.271l-6.037-3.226"/><path data-name="線 124872" d="M502.882 1395.884l-5.645-3.226"/><path data-name="線 124873" d="M550 1413.21l-49.538 28.594"/><path data-name="線 124874" d="M550.001 1409.984l-32.626-18.939"/><path data-name="線 124875" d="M550.001 1419.661l-5.645-3.226"/><path data-name="線 124876" d="M547.189 1421.666l-5.645-3.618"/><path data-name="線 124877" d="M538.318 1416.435l-32.211-18.939"/><path data-name="線 124878" d="M550.001 1423.279l-32.626 18.525"/><path data-name="線 124879" d="M550 1419.661l-38.27 22.143"/><path data-name="線 124880" d="M514.564 1440.191l-5.645-3.226"/><path data-name="線 124881" d="M506.108 1435.352l-32.626-18.917"/><path data-name="線 124882" d="M511.73 1441.804l-5.623-3.226"/><path data-name="線 124883" d="M502.882 1436.965l-32.626-18.917"/><path data-name="線 124884" d="M550.001 1409.984l-55.575 31.819"/><path data-name="線 124885" d="M461.8 1423.278l55.575-32.233"/><path data-name="線 124886" d="M494.426 1441.804l-32.626-18.525"/><path data-name="線 124887" d="M461.8 1419.66l49.93-28.615"/><path data-name="線 124888" d="M497.237 1440.191l-32.626-18.525"/><path data-name="線 124889" d="M470.256 1414.823l-5.645-3.226"/><path data-name="線 124890" d="M467.445 1416.436l-5.645-3.226"/><path data-name="線 124891" d="M461.8 1413.209l38.27-22.164"/><path data-name="線 124892" d="M461.8 1409.984l32.626-18.939"/><path data-name="線 124893" d="M594.307 1343.535l-6.037-3.64"/><path data-name="線 124894" d="M591.082 1345.148l-5.645-3.226"/><path data-name="線 124895" d="M638.201 1362.452l-49.538 28.594"/><path data-name="線 124896" d="M638.201 1358.834l-32.626-18.939"/><path data-name="線 124897" d="M635.389 1360.447l-32.626-18.525"/><path data-name="線 124898" d="M638.201 1368.903l-5.645-3.226"/><path data-name="線 124899" d="M629.745 1364.064l-32.626-18.917"/><path data-name="線 124900" d="M635.389 1370.516l-5.645-3.226"/><path data-name="線 124901" d="M626.518 1365.677l-32.211-18.917"/><path data-name="線 124902" d="M638.201 1372.128l-32.626 18.917"/><path data-name="線 124903" d="M638.2 1368.903l-38.248 22.143"/><path data-name="線 124904" d="M602.764 1389.455l-5.645-3.226"/><path data-name="線 124905" d="M594.308 1384.202l-32.626-18.525"/><path data-name="線 124906" d="M599.952 1391.046l-5.645-3.204"/><path data-name="線 124907" d="M591.082 1386.229l-32.626-18.939"/><path data-name="線 124908" d="M638.201 1358.834l-55.575 32.211"/><path data-name="線 124909" d="M550 1372.128l55.575-32.233"/><path data-name="線 124910" d="M582.626 1391.045L550 1372.128"/><path data-name="線 124911" d="M550 1368.903l49.952-29.008"/><path data-name="線 124912" d="M585.438 1389.454l-32.626-18.939"/><path data-name="線 124913" d="M558.457 1364.065l-5.645-3.618"/><path data-name="線 124914" d="M555.645 1365.678l-5.645-3.226"/><path data-name="線 124915" d="M550 1362.452l38.27-22.557"/><path data-name="線 124916" d="M550 1358.834l32.626-18.939"/><path data-name="線 124917" d="M638.2 1391.045v-18.917"/><path data-name="線 124918" d="M638.2 1372.128v-32.233"/><path data-name="線 124919" d="M506.107 1343.535l-6.037-3.64"/><path data-name="線 124920" d="M502.882 1345.148l-5.645-3.226"/><path data-name="線 124921" d="M550 1362.452l-49.538 28.594"/><path data-name="線 124922" d="M551.613 1359.64h0"/><path data-name="線 124923" d="M550.001 1358.834l-32.626-18.939"/><path data-name="線 124924" d="M547.189 1360.447l-32.626-18.525"/><path data-name="線 124925" d="M550.001 1368.903l-5.645-3.226"/><path data-name="線 124926" d="M541.545 1364.064l-32.626-18.917"/><path data-name="線 124927" d="M547.189 1370.516l-5.645-3.226"/><path data-name="線 124928" d="M538.318 1365.677l-32.211-18.917"/><path data-name="線 124929" d="M550.001 1372.128l-32.626 18.917"/><path data-name="線 124930" d="M550 1368.903l-38.27 22.143"/><path data-name="線 124931" d="M514.564 1389.455l-5.645-3.226"/><path data-name="線 124932" d="M506.108 1384.202l-32.626-18.525"/><path data-name="線 124933" d="M511.73 1391.046l-5.623-3.204"/><path data-name="線 124934" d="M502.882 1386.229l-32.626-18.939"/><path data-name="線 124935" d="M550.001 1358.834l-55.575 32.211"/><path data-name="線 124936" d="M461.8 1372.128l55.575-32.233"/><path data-name="線 124937" d="M494.426 1391.045l-32.626-18.917"/><path data-name="線 124938" d="M461.8 1368.903l49.93-29.008"/><path data-name="線 124939" d="M497.237 1389.454l-32.626-18.939"/><path data-name="線 124940" d="M470.256 1364.065l-5.645-3.618"/><path data-name="線 124941" d="M467.445 1365.678l-5.645-3.226"/><path data-name="線 124942" d="M461.8 1362.452l38.27-22.557"/><path data-name="線 124943" d="M461.8 1358.834l32.626-18.939"/><path data-name="線 124944" d="M461.8 1525.165v-182.437"/><path data-name="線 124945" d="M638.2 1339.895H461.8"/><path data-name="線 124946" d="M461.8 1342.728v-2.833"/><path data-name="線 124947" d="M638.2 1543.69H461.8"/><path data-name="線 124948" d="M461.8 1543.69v-18.525"/><path data-name="線 124949" d="M638.2 1339.895l10.875-10.461"/><path data-name="線 124950" d="M461.8 1339.895l-10.875-10.461"/><path data-name="線 124951" d="M649.076 1329.434H450.925"/><path data-name="線 124952" d="M450.925 1554.566v-225.132"/><path data-name="線 124953" d="M461.8 1543.69l-10.875 10.875"/><path data-name="線 124954" d="M638.2 1543.69l10.875 10.875"/><path data-name="線 124955" d="M649.076 1554.566v-225.132"/><path data-name="線 124956" d="M649.076 1554.565H450.925"/></g></g></svg>