<svg xmlns="http://www.w3.org/2000/svg" width="200" height="230"><defs><clipPath id="a"><path data-name="長方形 180" transform="translate(450 1327)" fill="#ccc" d="M0 0h200v230H0z"/></clipPath></defs><g data-name="マスクグループ 573" transform="translate(-450 -1327)" clip-path="url(#a)"><g data-name="グループ 3441" fill="none" stroke="#c49535" stroke-linecap="round" stroke-linejoin="round" stroke-width="1.308"><path data-name="線 115883" d="M506.105 1392.048l-42.303-24.148"/><path data-name="線 115884" d="M637.394 1518.128l-42.281 24.562"/><path data-name="線 115885" d="M548.8 1365.873l-41.082 23.778"/><path data-name="線 115886" d="M506.105 1389.65v-47.533"/><path data-name="線 115887" d="M638.2 1537.852v-197.348"/><path data-name="線 115888" d="M463.802 1543.889v-23.756"/><path data-name="線 115889" d="M579.007 1340.504h-74.122"/><path data-name="線 115890" d="M506.497 1342.117l.414-.414"/><path data-name="線 115891" d="M551.22 1364.674l-41.889-24.17"/><path data-name="線 115892" d="M551.22 1367.093l-46.335-26.589"/><path data-name="線 115893" d="M551.22 1418.245l-41.889 24.148"/><path data-name="線 115894" d="M548.8 1416.632l-41.889 24.562"/><path data-name="線 115895" d="M509.331 1391.241l41.889 24.17"/><path data-name="線 115896" d="M508.11 1393.268l43.109 24.976"/><path data-name="線 115897" d="M506.105 1397.692v-4.424"/><path data-name="線 115898" d="M506.105 1440.387v-47.119"/><path data-name="線 115899" d="M506.105 1392.048l.806.414"/><path data-name="線 115900" d="M506.912 1392.462l-41.889 24.17"/><path data-name="線 115901" d="M506.498 1342.117l-41.475 23.756"/><path data-name="線 115902" d="M463.802 1391.242V1367.9"/><path data-name="線 115903" d="M549.999 1363.868v-23.364"/><path data-name="線 115904" d="M506.497 1444.005l.414-.392"/><path data-name="線 115905" d="M551.22 1466.171l-41.889-23.778"/><path data-name="線 115906" d="M551.22 1468.59l-46.335-26.197"/><path data-name="線 115907" d="M551.22 1519.741l-41.889 24.148"/><path data-name="線 115908" d="M548.8 1518.128l-41.889 24.562"/><path data-name="線 115909" d="M506.105 1491.124v-47.119"/><path data-name="線 115910" d="M509.331 1492.738l41.889 24.17"/><path data-name="線 115911" d="M508.11 1494.764l43.109 24.976"/><path data-name="線 115912" d="M551.22 1468.589l-41.889 24.148"/><path data-name="線 115913" d="M506.105 1499.188v-4.424"/><path data-name="線 115914" d="M506.105 1541.883v-47.119"/><path data-name="線 115915" d="M506.105 1493.544l.806.414"/><path data-name="線 115916" d="M506.912 1493.958l-41.889 24.17"/><path data-name="線 115917" d="M506.498 1444.005l-41.475 23.364"/><path data-name="線 115918" d="M594.699 1342.117l.414-.414"/><path data-name="線 115919" d="M638.2 1391.242V1367.9"/><path data-name="線 115920" d="M637.394 1416.632l-42.281 24.562"/><path data-name="線 115921" d="M594.307 1389.65v-47.533"/><path data-name="線 115922" d="M596.312 1389.65v-47.533"/><path data-name="線 115923" d="M593.086 1442.393l-41.867-24.148"/><path data-name="線 115924" d="M593.086 1391.241l-41.867 24.17"/><path data-name="線 115925" d="M597.532 1442.392l-46.313-26.981"/><path data-name="線 115926" d="M595.113 1392.462l-41.889 24.17"/><path data-name="線 115927" d="M594.699 1342.117l-41.475 23.756"/><path data-name="線 115928" d="M593.086 1340.504l-41.867 24.17"/><path data-name="線 115929" d="M637.394 1467.369l-41.475 23.756"/><path data-name="線 115930" d="M638.2 1492.738v-23.342"/><path data-name="線 115931" d="M638.2 1516.516v-23.778"/><path data-name="線 115932" d="M638.2 1543.889v-23.756"/><path data-name="線 115933" d="M594.307 1491.124v-47.119"/><path data-name="線 115934" d="M596.312 1541.883v-47.119"/><path data-name="線 115935" d="M594.307 1499.188v-4.424"/><path data-name="線 115936" d="M594.307 1541.883v-47.119"/><path data-name="線 115937" d="M594.307 1493.544l.806.414"/><path data-name="線 115938" d="M593.086 1543.889l-41.867-24.148"/><path data-name="線 115939" d="M593.086 1492.738l-41.867 24.17"/><path data-name="線 115940" d="M597.532 1543.888l-46.313-26.981"/><path data-name="線 115941" d="M595.113 1493.958l-41.889 24.17"/><path data-name="線 115942" d="M552.004 1543.889v-23.756"/><path data-name="線 115943" d="M594.699 1444.005l-41.475 23.364"/><path data-name="線 115944" d="M593.086 1442.393l-41.867 23.778"/><path data-name="線 115945" d="M594.306 1493.543l-43.087-24.954"/><path data-name="線 115946" d="M638.2 1465.364v-22.971"/><path data-name="線 115947" d="M649.076 1554.372H450.922"/><path data-name="線 115948" d="M649.076 1554.372v-224.743"/><path data-name="線 115949" d="M450.922 1554.372v-224.743"/><path data-name="線 115950" d="M649.076 1329.629H450.922"/><path data-name="線 115951" d="M508.11 1543.082h0"/><path data-name="線 115952" d="M596.312 1541.884l.806-.414"/><path data-name="線 115953" d="M598.339 1543.082h0"/><path data-name="線 115954" d="M599.951 1539.879l-2.833 1.591"/><path data-name="線 115955" d="M506.912 1491.539l-3.226-2.005"/><path data-name="線 115956" d="M551.22 1516.907l-3.64-2.005"/><path data-name="線 115957" d="M463.802 1531.815v-191.311"/><path data-name="線 115958" d="M504.884 1340.504l-41.082 23.364"/><path data-name="線 115959" d="M508.11 1390.849l-44.308-25.783"/><path data-name="線 115960" d="M504.884 1543.889h-41.082"/><path data-name="線 115961" d="M638.201 1543.889H504.885"/><path data-name="線 115962" d="M597.532 1492.738l40.668 23.778"/><path data-name="線 115963" d="M596.312 1494.764l41.889 24.17"/><path data-name="線 115964" d="M638.2 1520.133l-40.668 23.756"/><path data-name="線 115965" d="M597.532 1391.241l40.668 23.778"/><path data-name="線 115966" d="M596.312 1393.268l41.889 24.17"/><path data-name="線 115967" d="M638.2 1418.637l-40.668 23.756"/><path data-name="線 115968" d="M638.2 1363.868l-40.668-23.364"/><path data-name="線 115969" d="M638.2 1366.679l-45.114-26.175"/><path data-name="線 115970" d="M638.2 1367.9l-40.668 23.342"/><path data-name="線 115971" d="M638.2 1340.504H463.802"/><path data-name="線 115972" d="M450.922 1329.629l12.88 10.875"/><path data-name="線 115973" d="M638.2 1340.504l10.875-10.875"/><path data-name="線 115974" d="M450.922 1554.372l12.88-10.483"/><path data-name="線 115975" d="M638.2 1543.889l10.875 10.483"/><path data-name="線 115976" d="M504.884 1391.241l-41.082 23.778"/><path data-name="線 115977" d="M509.33 1442.393l-45.528-26.175"/><path data-name="線 115978" d="M504.884 1442.393l-41.082-23.756"/><path data-name="線 115979" d="M504.884 1492.738l-41.082 23.778"/><path data-name="線 115980" d="M509.33 1543.889l-45.528-26.175"/><path data-name="線 115981" d="M504.884 1543.889l-41.082-23.756"/><path data-name="線 115982" d="M508.11 1492.345l1.22.392"/><path data-name="線 115983" d="M506.911 1493.958l1.199.806"/><path data-name="線 115984" d="M596.312 1499.188v-4.424"/><path data-name="線 115985" d="M596.312 1491.124v-47.119"/><path data-name="線 115986" d="M596.312 1492.345l1.22.392"/><path data-name="線 115987" d="M596.312 1492.345l-1.199-.806"/><path data-name="線 115988" d="M594.306 1491.124l-43.087-24.954"/><path data-name="線 115989" d="M595.919 1491.125l-.806.414"/><path data-name="線 115990" d="M595.113 1491.539l-.806-.414"/><path data-name="線 115991" d="M595.113 1493.958l1.199.806"/><path data-name="線 115992" d="M594.307 1444.005l.806-.392"/><path data-name="線 115993" d="M597.532 1391.241l-46.313-26.567"/><path data-name="線 115994" d="M596.311 1393.268l-45.092-26.175"/><path data-name="線 115995" d="M637.394 1365.873l-42.281 24.17"/><path data-name="線 115996" d="M638.2 1465.364l-40.668-22.971"/><path data-name="線 115997" d="M638.2 1468.176l-45.114-25.783"/><path data-name="線 115998" d="M638.2 1469.396l-40.668 23.342"/><path data-name="線 115999" d="M638.2 1465.363l-2.419-1.22"/><path data-name="線 116000" d="M504.884 1442.393l-41.082 22.971"/><path data-name="線 116001" d="M508.11 1492.346l-44.308-25.783"/><path data-name="線 116002" d="M506.105 1493.544l-42.303-24.148"/><path data-name="線 116003" d="M548.8 1467.369l-41.889 24.17"/><path data-name="線 116004" d="M508.11 1541.883v-47.119"/><path data-name="線 116005" d="M508.11 1491.124v-47.119"/><path data-name="線 116006" d="M506.911 1392.462l1.199.806"/><path data-name="線 116007" d="M509.33 1391.241l-1.22-.392"/><path data-name="線 116008" d="M507.717 1389.65l-.806.392"/><path data-name="線 116009" d="M508.11 1440.387v-47.119"/><path data-name="線 116010" d="M508.11 1389.65v-47.533"/><path data-name="線 116011" d="M549.999 1363.867v-10.875"/><path data-name="線 116012" d="M552.004 1363.868v-23.364"/><path data-name="線 116013" d="M549.999 1543.889v-23.756"/><path data-name="線 116014" d="M549.999 1516.515v-47.119"/><path data-name="線 116015" d="M552.004 1540.685v-20.552"/><path data-name="線 116016" d="M552.004 1516.515v-47.119"/><path data-name="線 116017" d="M594.307 1440.387v-47.119"/><path data-name="線 116018" d="M596.312 1440.387v-47.119"/><path data-name="線 116019" d="M549.999 1465.364v-46.727"/><path data-name="線 116020" d="M549.999 1415.019V1367.9"/><path data-name="線 116021" d="M552.004 1415.019V1367.9"/><path data-name="線 116022" d="M552.004 1465.364v-46.727"/><path data-name="線 116023" d="M475.898 1365.873l-5.645 3.226"/><path data-name="線 116024" d="M477.51 1367.093l-5.252 2.811"/><path data-name="線 116025" d="M506.105 1348.568l-5.645 3.204"/><path data-name="線 116026" d="M498.848 1352.578l-21.337 12.096"/><path data-name="線 116027" d="M506.105 1350.573l-5.645 3.226"/><path data-name="線 116028" d="M498.848 1354.605l-19.332 11.268"/><path data-name="線 116029" d="M498.847 1377.162l-26.589-15.321"/><path data-name="線 116030" d="M498.847 1379.167l-28.594-16.52"/><path data-name="線 116031" d="M498.848 1385.204v-38.663"/><path data-name="線 116032" d="M500.46 1386.425v-41.082"/><path data-name="線 116033" d="M506.105 1381.173l-5.645-3.204"/><path data-name="線 116034" d="M506.105 1383.2l-5.645-3.226"/><path data-name="線 116035" d="M475.898 1416.632l-5.645 3.226"/><path data-name="線 116036" d="M477.51 1417.83l-5.252 3.226"/><path data-name="線 116037" d="M506.105 1399.305l-5.645 3.226"/><path data-name="線 116038" d="M498.848 1403.73l-21.337 12.096"/><path data-name="線 116039" d="M506.105 1401.724l-5.645 2.811"/><path data-name="線 116040" d="M498.848 1405.756l-19.332 10.875"/><path data-name="線 116041" d="M498.847 1427.9l-26.589-15.3"/><path data-name="線 116042" d="M498.847 1429.926l-28.594-16.128"/><path data-name="線 116043" d="M498.848 1436.355V1397.3"/><path data-name="線 116044" d="M500.46 1437.162v-40.668"/><path data-name="線 116045" d="M506.105 1431.931l-5.645-2.811"/><path data-name="線 116046" d="M506.105 1434.351l-5.645-3.226"/><path data-name="線 116047" d="M506.106 1393.268l-7.258 4.032"/><path data-name="線 116048" d="M475.898 1467.369l-5.645 3.226"/><path data-name="線 116049" d="M477.51 1468.589l-5.252 2.811"/><path data-name="線 116050" d="M506.105 1450.457l-5.645 3.226"/><path data-name="線 116051" d="M498.848 1454.488l-21.337 11.682"/><path data-name="線 116052" d="M506.105 1452.462l-5.645 3.226"/><path data-name="線 116053" d="M498.848 1456.494l-19.332 10.875"/><path data-name="線 116054" d="M498.847 1478.244l-26.589-14.907"/><path data-name="線 116055" d="M498.847 1480.663l-28.594-16.52"/><path data-name="線 116056" d="M498.848 1486.7v-38.249"/><path data-name="線 116057" d="M500.46 1487.921v-40.69"/><path data-name="線 116058" d="M506.105 1482.669l-5.645-3.204"/><path data-name="線 116059" d="M506.105 1484.696l-5.645-3.226"/><path data-name="線 116060" d="M506.106 1444.005l-7.258 4.446"/><path data-name="線 116061" d="M475.898 1518.128l-5.645 3.204"/><path data-name="線 116062" d="M477.51 1519.327l-5.252 3.226"/><path data-name="線 116063" d="M506.105 1500.801l-5.645 3.226"/><path data-name="線 116064" d="M498.848 1505.226l-21.337 12.096"/><path data-name="線 116065" d="M506.105 1503.221l-5.645 2.811"/><path data-name="線 116066" d="M498.848 1507.253l-19.332 10.875"/><path data-name="線 116067" d="M498.847 1529.396l-26.589-15.3"/><path data-name="線 116068" d="M498.847 1531.401l-28.594-16.106"/><path data-name="線 116069" d="M498.848 1537.851v-39.055"/><path data-name="線 116070" d="M500.46 1538.658v-40.668"/><path data-name="線 116071" d="M506.105 1533.427l-5.645-2.811"/><path data-name="線 116072" d="M506.105 1535.847l-5.645-3.226"/><path data-name="線 116073" d="M506.106 1494.764l-7.258 4.032"/><path data-name="線 116074" d="M519.792 1391.241l-5.231 3.226"/><path data-name="線 116075" d="M521.797 1392.462l-5.231 3.226"/><path data-name="線 116076" d="M549.999 1373.937l-5.231 3.226"/><path data-name="線 116077" d="M542.741 1377.969l-20.944 12.466"/><path data-name="線 116078" d="M549.999 1375.942l-5.231 3.226"/><path data-name="線 116079" d="M542.741 1380.366l-18.917 10.875"/><path data-name="線 116080" d="M542.741 1402.531l-26.175-15.3"/><path data-name="線 116081" d="M542.741 1404.536l-28.18-16.106"/><path data-name="線 116082" d="M542.741 1410.987v-39.077"/><path data-name="線 116083" d="M544.768 1411.793v-41.082"/><path data-name="線 116084" d="M549.999 1406.563l-5.231-3.226"/><path data-name="線 116085" d="M549.999 1408.567l-5.231-2.811"/><path data-name="線 116086" d="M549.999 1367.9l-7.258 4.01"/><path data-name="線 116087" d="M594.699 1342.117l-7.236 4.032"/><path data-name="線 116088" d="M564.1 1416.632l-5.231 3.226"/><path data-name="線 116089" d="M565.713 1417.83l-5.231 3.226"/><path data-name="線 116090" d="M594.307 1399.305l-5.645 3.226"/><path data-name="線 116091" d="M587.05 1403.73l-21.337 12.096"/><path data-name="線 116092" d="M594.307 1401.724l-5.645 2.811"/><path data-name="線 116093" d="M587.05 1405.756l-19.332 10.875"/><path data-name="線 116094" d="M587.049 1427.9l-26.567-15.3"/><path data-name="線 116095" d="M587.049 1429.926l-28.18-16.128"/><path data-name="線 116096" d="M587.049 1436.355V1397.3"/><path data-name="線 116097" d="M588.662 1437.162v-40.668"/><path data-name="線 116098" d="M594.307 1431.931l-5.645-2.811"/><path data-name="線 116099" d="M594.307 1434.351l-5.645-3.226"/><path data-name="線 116100" d="M594.307 1393.268l-7.258 4.032"/><path data-name="線 116101" d="M519.792 1442.393l-5.231 2.833"/><path data-name="線 116102" d="M521.797 1443.199l-5.231 3.226"/><path data-name="線 116103" d="M549.999 1425.088l-5.231 2.811"/><path data-name="線 116104" d="M542.741 1429.12l-20.944 12.074"/><path data-name="線 116105" d="M549.999 1427.093l-5.231 3.226"/><path data-name="線 116106" d="M542.741 1431.125l-18.917 11.268"/><path data-name="線 116107" d="M542.741 1453.268l-26.175-15.3"/><path data-name="線 116108" d="M542.741 1455.687l-28.18-16.498"/><path data-name="線 116109" d="M542.741 1461.332v-38.663"/><path data-name="線 116110" d="M544.768 1462.53v-40.668"/><path data-name="線 116111" d="M549.999 1457.714l-5.231-3.226"/><path data-name="線 116112" d="M549.999 1459.327l-5.231-2.833"/><path data-name="線 116113" d="M549.999 1418.637l-7.258 4.032"/><path data-name="線 116114" d="M519.792 1492.738l-5.231 3.226"/><path data-name="線 116115" d="M521.797 1493.958l-5.231 3.226"/><path data-name="線 116116" d="M549.999 1475.433l-5.231 3.226"/><path data-name="線 116117" d="M542.741 1479.465l-20.944 12.466"/><path data-name="線 116118" d="M549.999 1477.438l-5.231 3.226"/><path data-name="線 116119" d="M542.741 1481.862l-18.917 10.875"/><path data-name="線 116120" d="M542.741 1504.027l-26.175-15.3"/><path data-name="線 116121" d="M542.741 1506.032l-28.18-16.498"/><path data-name="線 116122" d="M542.741 1512.069v-38.663"/><path data-name="線 116123" d="M544.768 1513.289v-41.082"/><path data-name="線 116124" d="M549.999 1508.059l-5.231-3.226"/><path data-name="線 116125" d="M549.999 1510.064l-5.231-2.811"/><path data-name="線 116126" d="M549.999 1469.396l-7.258 4.01"/><path data-name="線 116127" d="M564.1 1467.369l-5.231 3.226"/><path data-name="線 116128" d="M565.713 1468.589l-5.231 2.811"/><path data-name="線 116129" d="M594.307 1450.457l-5.645 3.226"/><path data-name="線 116130" d="M587.05 1454.488l-21.337 11.682"/><path data-name="線 116131" d="M594.307 1452.462l-5.645 3.226"/><path data-name="線 116132" d="M587.05 1456.494l-19.332 10.875"/><path data-name="線 116133" d="M587.049 1478.244l-26.567-14.907"/><path data-name="線 116134" d="M587.049 1480.663l-28.18-16.52"/><path data-name="線 116135" d="M587.049 1486.7v-38.249"/><path data-name="線 116136" d="M588.662 1487.921v-40.69"/><path data-name="線 116137" d="M594.307 1482.669l-5.645-3.204"/><path data-name="線 116138" d="M594.307 1484.696l-5.645-3.226"/><path data-name="線 116139" d="M594.307 1444.005l-7.258 4.446"/><path data-name="線 116140" d="M607.994 1442.393l-5.231 2.833"/><path data-name="線 116141" d="M610.02 1443.199l-5.252 3.226"/><path data-name="線 116142" d="M638.201 1425.088l-5.231 2.811"/><path data-name="線 116143" d="M630.964 1429.12l-20.944 12.074"/><path data-name="線 116144" d="M638.201 1427.093l-5.231 3.226"/><path data-name="線 116145" d="M630.964 1431.125l-18.939 11.268"/><path data-name="線 116146" d="M630.965 1453.268l-26.197-15.3"/><path data-name="線 116147" d="M630.965 1455.687l-28.202-16.498"/><path data-name="線 116148" d="M630.965 1461.332v-38.663"/><path data-name="線 116149" d="M632.97 1462.53v-40.668"/><path data-name="線 116150" d="M638.201 1457.714l-5.231-3.226"/><path data-name="線 116151" d="M638.201 1459.327l-5.231-2.833"/><path data-name="線 116152" d="M638.201 1418.637l-7.236 4.032"/><path data-name="線 116153" d="M607.994 1391.241l-5.231 3.226"/><path data-name="線 116154" d="M610.02 1392.462l-5.252 3.226"/><path data-name="線 116155" d="M638.201 1373.937l-5.231 3.226"/><path data-name="線 116156" d="M630.964 1377.969l-20.944 12.466"/><path data-name="線 116157" d="M638.201 1375.942l-5.231 3.226"/><path data-name="線 116158" d="M630.964 1380.366l-18.939 10.875"/><path data-name="線 116159" d="M630.965 1402.531l-26.197-15.3"/><path data-name="線 116160" d="M630.965 1404.536l-28.202-16.106"/><path data-name="線 116161" d="M630.965 1410.987v-39.077"/><path data-name="線 116162" d="M632.97 1411.793v-41.082"/><path data-name="線 116163" d="M638.201 1406.563l-5.231-3.226"/><path data-name="線 116164" d="M638.201 1408.567l-5.231-2.811"/><path data-name="線 116165" d="M638.201 1367.9l-7.236 4.01"/><path data-name="線 116166" d="M607.994 1492.738l-5.231 3.226"/><path data-name="線 116167" d="M610.02 1493.958l-5.252 3.226"/><path data-name="線 116168" d="M638.201 1475.433l-5.231 3.226"/><path data-name="線 116169" d="M630.964 1479.465l-20.944 12.466"/><path data-name="線 116170" d="M638.201 1477.438l-5.231 3.226"/><path data-name="線 116171" d="M630.964 1481.862l-18.939 10.875"/><path data-name="線 116172" d="M630.965 1504.027l-26.197-15.3"/><path data-name="線 116173" d="M630.965 1506.032l-28.202-16.498"/><path data-name="線 116174" d="M630.965 1512.069v-38.663"/><path data-name="線 116175" d="M632.97 1513.289v-41.082"/><path data-name="線 116176" d="M638.201 1508.059l-5.231-3.226"/><path data-name="線 116177" d="M638.201 1510.064l-5.231-2.811"/><path data-name="線 116178" d="M638.201 1469.396l-7.236 4.01"/><path data-name="線 116179" d="M564.1 1518.128l-5.231 3.204"/><path data-name="線 116180" d="M565.713 1519.327l-5.231 3.226"/><path data-name="線 116181" d="M594.307 1500.801l-5.645 3.226"/><path data-name="線 116182" d="M587.05 1505.226l-21.337 12.096"/><path data-name="線 116183" d="M594.307 1503.221l-5.645 2.811"/><path data-name="線 116184" d="M587.05 1507.253l-19.332 10.875"/><path data-name="線 116185" d="M587.049 1529.396l-26.567-15.3"/><path data-name="線 116186" d="M587.049 1531.401l-28.18-16.106"/><path data-name="線 116187" d="M587.049 1537.851v-39.055"/><path data-name="線 116188" d="M588.662 1538.658v-40.668"/><path data-name="線 116189" d="M594.307 1533.427l-5.645-2.811"/><path data-name="線 116190" d="M594.307 1535.847l-5.645-3.226"/><path data-name="線 116191" d="M594.307 1494.764l-7.258 4.032"/><path data-name="線 116192" d="M513.341 1386.425v-6.451"/><path data-name="線 116193" d="M515.368 1385.204v-6.037"/><path data-name="線 116194" d="M513.341 1351.772v-6.429"/><path data-name="線 116195" d="M513.341 1377.969v-24.17"/><path data-name="線 116196" d="M515.368 1352.578v-6.037"/><path data-name="線 116197" d="M515.368 1377.162v-22.557"/><path data-name="線 116198" d="M534.699 1365.873l-26.589 15.3"/><path data-name="線 116199" d="M536.312 1367.093l-28.202 16.106"/><path data-name="線 116200" d="M508.11 1350.573l33.825 19.332"/><path data-name="線 116201" d="M508.11 1348.568l35.438 20.53"/><path data-name="線 116202" d="M541.935 1361.841l-5.623 2.833"/><path data-name="線 116203" d="M543.548 1362.647l-5.231 3.226"/><path data-name="線 116204" d="M508.11 1350.573v-8.456"/><path data-name="線 116205" d="M469.447 1411.793v-6.037"/><path data-name="線 116206" d="M471.06 1410.987v-6.451"/><path data-name="線 116207" d="M469.447 1377.162v-6.451"/><path data-name="線 116208" d="M469.447 1403.337v-24.17"/><path data-name="線 116209" d="M471.06 1377.969v-6.059"/><path data-name="線 116210" d="M471.06 1402.531v-22.165"/><path data-name="線 116211" d="M490.391 1391.241l-26.589 15.321"/><path data-name="線 116212" d="M492.396 1392.462l-28.594 16.106"/><path data-name="線 116213" d="M463.802 1375.942l33.847 19.746"/><path data-name="線 116214" d="M463.802 1373.937l35.852 20.53"/><path data-name="線 116215" d="M497.648 1387.231l-5.252 3.204"/><path data-name="線 116216" d="M499.654 1388.43l-5.645 2.811"/><path data-name="線 116217" d="M463.802 1375.942v-8.042"/><path data-name="線 116218" d="M513.341 1437.162v-6.037"/><path data-name="線 116219" d="M515.368 1436.355v-6.429"/><path data-name="線 116220" d="M513.341 1402.531v-6.037"/><path data-name="線 116221" d="M513.341 1429.12v-24.584"/><path data-name="線 116222" d="M515.368 1403.729v-6.429"/><path data-name="線 116223" d="M515.368 1427.899v-22.143"/><path data-name="線 116224" d="M534.699 1416.632l-26.589 15.3"/><path data-name="線 116225" d="M536.312 1417.83l-28.202 16.52"/><path data-name="線 116226" d="M508.11 1401.724l33.825 19.332"/><path data-name="線 116227" d="M508.11 1399.305l35.438 20.552"/><path data-name="線 116228" d="M541.935 1412.6l-5.623 3.226"/><path data-name="線 116229" d="M543.548 1413.798l-5.231 2.833"/><path data-name="線 116230" d="M508.11 1401.724v-8.456"/><path data-name="線 116231" d="M557.649 1411.793v-6.037"/><path data-name="線 116232" d="M559.261 1410.987v-6.451"/><path data-name="線 116233" d="M557.649 1377.162v-6.451"/><path data-name="線 116234" d="M557.649 1403.337v-24.17"/><path data-name="線 116235" d="M559.261 1377.969v-6.059"/><path data-name="線 116236" d="M559.261 1402.531v-22.165"/><path data-name="線 116237" d="M578.593 1391.241l-26.589 15.321"/><path data-name="線 116238" d="M580.62 1392.462l-28.616 16.106"/><path data-name="線 116239" d="M552.004 1375.942l33.847 19.746"/><path data-name="線 116240" d="M552.004 1373.937l35.852 20.53"/><path data-name="線 116241" d="M585.851 1387.231l-5.231 3.204"/><path data-name="線 116242" d="M587.856 1388.43l-5.645 2.811"/><path data-name="線 116243" d="M552.004 1375.942v-8.042"/><path data-name="線 116244" d="M557.649 1462.531v-6.037"/><path data-name="線 116245" d="M559.261 1461.332v-5.645"/><path data-name="線 116246" d="M557.649 1427.899v-6.037"/><path data-name="線 116247" d="M557.649 1454.489v-24.17"/><path data-name="線 116248" d="M559.261 1429.12v-6.451"/><path data-name="線 116249" d="M559.261 1453.268v-22.143"/><path data-name="線 116250" d="M578.593 1442.393l-26.589 15.321"/><path data-name="線 116251" d="M580.62 1443.199l-28.616 16.128"/><path data-name="線 116252" d="M552.004 1427.093l33.847 19.332"/><path data-name="線 116253" d="M552.004 1425.088l35.852 20.138"/><path data-name="線 116254" d="M585.851 1437.968l-5.231 3.226"/><path data-name="線 116255" d="M587.856 1439.189l-5.645 3.204"/><path data-name="線 116256" d="M552.004 1427.093v-8.456"/><path data-name="線 116257" d="M601.564 1437.162v-6.037"/><path data-name="線 116258" d="M603.569 1436.355v-6.429"/><path data-name="線 116259" d="M601.564 1402.531v-6.037"/><path data-name="線 116260" d="M601.564 1429.12v-24.584"/><path data-name="線 116261" d="M603.569 1403.729v-6.429"/><path data-name="線 116262" d="M603.569 1427.899v-22.143"/><path data-name="線 116263" d="M622.901 1416.632l-26.589 15.3"/><path data-name="線 116264" d="M624.514 1417.83l-28.202 16.52"/><path data-name="線 116265" d="M596.312 1401.724l33.847 19.332"/><path data-name="線 116266" d="M596.312 1399.305l35.459 20.552"/><path data-name="線 116267" d="M630.159 1412.6l-5.645 3.226"/><path data-name="線 116268" d="M631.771 1413.798l-5.252 2.833"/><path data-name="線 116269" d="M596.312 1401.724v-8.456"/><path data-name="線 116270" d="M601.564 1487.921v-6.451"/><path data-name="線 116271" d="M603.569 1486.7v-6.037"/><path data-name="線 116272" d="M601.564 1453.682v-6.451"/><path data-name="線 116273" d="M601.564 1479.465v-23.778"/><path data-name="線 116274" d="M603.569 1454.488v-6.037"/><path data-name="線 116275" d="M603.569 1478.245v-21.751"/><path data-name="線 116276" d="M622.901 1467.369l-26.589 15.3"/><path data-name="線 116277" d="M624.514 1468.589l-28.202 16.106"/><path data-name="線 116278" d="M596.312 1452.462l33.847 18.939"/><path data-name="線 116279" d="M596.312 1450.457l35.459 20.138"/><path data-name="線 116280" d="M630.159 1463.337l-5.645 2.833"/><path data-name="線 116281" d="M631.771 1464.143l-5.252 3.226"/><path data-name="線 116282" d="M596.312 1452.461v-8.456"/><path data-name="線 116283" d="M513.341 1487.921v-6.451"/><path data-name="線 116284" d="M515.368 1486.7v-6.037"/><path data-name="線 116285" d="M513.341 1453.682v-6.451"/><path data-name="線 116286" d="M513.341 1479.465v-23.778"/><path data-name="線 116287" d="M515.368 1454.488v-6.037"/><path data-name="線 116288" d="M515.368 1478.245v-21.751"/><path data-name="線 116289" d="M534.699 1467.369l-26.589 15.3"/><path data-name="線 116290" d="M536.312 1468.589l-28.202 16.106"/><path data-name="線 116291" d="M508.11 1452.462l33.825 18.939"/><path data-name="線 116292" d="M508.11 1450.457l35.438 20.138"/><path data-name="線 116293" d="M541.935 1463.337l-5.623 2.833"/><path data-name="線 116294" d="M543.548 1464.143l-5.231 3.226"/><path data-name="線 116295" d="M508.11 1452.461v-8.456"/><path data-name="線 116296" d="M469.447 1462.531v-6.037"/><path data-name="線 116297" d="M471.06 1461.332v-5.645"/><path data-name="線 116298" d="M469.447 1427.899v-6.037"/><path data-name="線 116299" d="M469.447 1454.489v-24.17"/><path data-name="線 116300" d="M471.06 1429.12v-6.451"/><path data-name="線 116301" d="M471.06 1453.268v-22.143"/><path data-name="線 116302" d="M490.391 1442.393l-26.589 15.321"/><path data-name="線 116303" d="M492.396 1443.199l-28.594 16.128"/><path data-name="線 116304" d="M463.802 1427.093l33.847 19.332"/><path data-name="線 116305" d="M463.802 1425.088l35.852 20.138"/><path data-name="線 116306" d="M497.648 1437.968l-5.252 3.226"/><path data-name="線 116307" d="M499.654 1439.189l-5.645 3.204"/><path data-name="線 116308" d="M463.802 1427.093v-8.456"/><path data-name="線 116309" d="M469.447 1513.29v-6.037"/><path data-name="線 116310" d="M471.06 1512.069v-6.037"/><path data-name="線 116311" d="M469.447 1478.658v-6.451"/><path data-name="線 116312" d="M469.447 1504.833v-24.17"/><path data-name="線 116313" d="M471.06 1479.465v-6.059"/><path data-name="線 116314" d="M471.06 1504.027v-22.165"/><path data-name="線 116315" d="M490.391 1492.738l-26.589 15.321"/><path data-name="線 116316" d="M492.396 1493.958l-28.594 16.106"/><path data-name="線 116317" d="M463.802 1477.438l33.847 19.746"/><path data-name="線 116318" d="M463.802 1475.433l35.852 20.53"/><path data-name="線 116319" d="M497.648 1488.727l-5.252 3.204"/><path data-name="線 116320" d="M499.654 1489.534l-5.645 3.204"/><path data-name="線 116321" d="M463.802 1477.438v-8.042"/><path data-name="線 116322" d="M513.341 1538.658v-6.037"/><path data-name="線 116323" d="M515.368 1537.852v-6.451"/><path data-name="線 116324" d="M513.341 1504.027v-6.037"/><path data-name="線 116325" d="M513.341 1530.616v-24.584"/><path data-name="線 116326" d="M515.368 1505.225v-6.429"/><path data-name="線 116327" d="M515.368 1529.396v-22.143"/><path data-name="線 116328" d="M534.699 1518.128l-26.589 15.3"/><path data-name="線 116329" d="M536.312 1519.327l-28.202 16.52"/><path data-name="線 116330" d="M508.11 1503.221l33.825 19.332"/><path data-name="線 116331" d="M508.11 1500.801l35.438 20.53"/><path data-name="線 116332" d="M541.935 1514.096l-5.623 3.226"/><path data-name="線 116333" d="M543.548 1515.295l-5.231 2.833"/><path data-name="線 116334" d="M508.11 1503.22v-8.456"/><path data-name="線 116335" d="M557.649 1513.29v-6.037"/><path data-name="線 116336" d="M559.261 1512.069v-6.037"/><path data-name="線 116337" d="M557.649 1478.658v-6.451"/><path data-name="線 116338" d="M557.649 1504.833v-24.17"/><path data-name="線 116339" d="M559.261 1479.465v-6.059"/><path data-name="線 116340" d="M559.261 1504.027v-22.165"/><path data-name="線 116341" d="M578.593 1492.738l-26.589 15.321"/><path data-name="線 116342" d="M580.62 1493.958l-28.616 16.106"/><path data-name="線 116343" d="M552.004 1477.438l33.847 19.746"/><path data-name="線 116344" d="M552.004 1475.433l35.852 20.53"/><path data-name="線 116345" d="M585.851 1488.727l-5.231 3.204"/><path data-name="線 116346" d="M587.856 1489.534l-5.645 3.204"/><path data-name="線 116347" d="M552.004 1477.438v-8.042"/><path data-name="線 116348" d="M601.564 1538.658v-6.037"/><path data-name="線 116349" d="M603.569 1537.852v-6.451"/><path data-name="線 116350" d="M601.564 1504.027v-6.037"/><path data-name="線 116351" d="M601.564 1530.616v-24.584"/><path data-name="線 116352" d="M603.569 1505.225v-6.429"/><path data-name="線 116353" d="M603.569 1529.396v-22.143"/><path data-name="線 116354" d="M622.901 1518.128l-26.589 15.3"/><path data-name="線 116355" d="M624.514 1519.327l-28.202 16.52"/><path data-name="線 116356" d="M596.312 1503.221l33.847 19.332"/><path data-name="線 116357" d="M596.312 1500.801l35.459 20.53"/><path data-name="線 116358" d="M630.159 1514.096l-5.645 3.226"/><path data-name="線 116359" d="M631.771 1515.295l-5.252 2.833"/><path data-name="線 116360" d="M596.312 1503.22v-8.456"/><path data-name="線 116361" d="M601.564 1386.425v-6.451"/><path data-name="線 116362" d="M603.569 1385.204v-6.037"/><path data-name="線 116363" d="M601.564 1351.772v-6.429"/><path data-name="線 116364" d="M601.564 1377.969v-24.17"/><path data-name="線 116365" d="M603.569 1352.578v-6.037"/><path data-name="線 116366" d="M603.569 1377.162v-22.557"/><path data-name="線 116367" d="M622.901 1365.873l-26.589 15.3"/><path data-name="線 116368" d="M624.514 1367.093l-28.202 16.106"/><path data-name="線 116369" d="M596.312 1350.573l33.847 19.332"/><path data-name="線 116370" d="M596.312 1348.568l35.459 20.53"/><path data-name="線 116371" d="M630.159 1361.841l-5.645 2.833"/><path data-name="線 116372" d="M631.771 1362.647l-5.252 3.226"/><path data-name="線 116373" d="M596.312 1350.573v-8.456"/><path data-name="線 116374" d="M551.219 1367.093l-1.22.806"/><path data-name="線 116375" d="M544.769 1370.711l-35.438 20.53"/><path data-name="線 116376" d="M564.1 1365.873l-5.231 3.226"/><path data-name="線 116377" d="M565.713 1367.093l-5.231 2.811"/><path data-name="線 116378" d="M594.307 1348.568l-5.645 3.204"/><path data-name="線 116379" d="M587.05 1352.578l-21.337 12.096"/><path data-name="線 116380" d="M594.307 1350.573l-5.645 3.226"/><path data-name="線 116381" d="M587.05 1354.605l-19.332 11.268"/><path data-name="線 116382" d="M587.049 1377.162l-26.567-15.321"/><path data-name="線 116383" d="M587.049 1379.167l-28.18-16.52"/><path data-name="線 116384" d="M587.049 1385.204v-38.663"/><path data-name="線 116385" d="M588.662 1386.425v-41.082"/><path data-name="線 116386" d="M594.307 1381.173l-5.645-3.204"/><path data-name="線 116387" d="M594.307 1383.2l-5.645-3.226"/><path data-name="線 116388" d="M594.307 1342.117l-7.258 4.424"/></g></g></svg>