<svg xmlns="http://www.w3.org/2000/svg" width="200" height="230"><defs><clipPath id="a"><path data-name="長方形 180" transform="translate(450 1327)" fill="#ccc" d="M0 0h200v230H0z"/></clipPath></defs><g data-name="マスクグループ 585" transform="translate(-450 -1327)" clip-path="url(#a)"><g data-name="グループ 3453" fill="none" stroke="#c49535" stroke-linecap="round" stroke-linejoin="round" stroke-width="1.311"><path data-name="線 124627" d="M505.682 1389.574l.809-.393"/><path data-name="線 124628" d="M578.387 1339.487h-74.716"/><path data-name="線 124629" d="M505.288 1341.519l.393-.415"/><path data-name="線 124630" d="M550.11 1364.137l-42.002-24.65"/><path data-name="線 124631" d="M550.109 1366.563l-46.438-27.076"/><path data-name="線 124632" d="M548.098 1365.339l-41.608 23.842"/><path data-name="線 124633" d="M550.11 1417.437l-42.002 24.235"/><path data-name="線 124634" d="M548.099 1416.235l-42.417 24.213"/><path data-name="線 124635" d="M508.108 1390.776h0"/><path data-name="線 124636" d="M508.108 1390.776l42.002 24.235"/><path data-name="線 124637" d="M506.906 1392.809l-1.224-.809"/><path data-name="線 124638" d="M506.906 1392.809l43.204 24.628"/><path data-name="線 124639" d="M550.11 1366.563l-42.002 24.213"/><path data-name="線 124640" d="M504.873 1391.192l.809.809"/><path data-name="線 124641" d="M506.906 1389.968l1.202.809"/><path data-name="線 124642" d="M505.682 1392l-42.002 24.235"/><path data-name="線 124643" d="M462.872 1441.673v-23.427"/><path data-name="線 124644" d="M462.872 1414.618v-23.842"/><path data-name="線 124645" d="M505.288 1341.519l-41.608 23.82"/><path data-name="線 124646" d="M462.872 1390.776v-23.82"/><path data-name="線 124647" d="M505.682 1491.737l.809-.393"/><path data-name="線 124648" d="M505.288 1443.682l.393-.393"/><path data-name="線 124649" d="M550.11 1466.3l-42.002-24.628"/><path data-name="線 124650" d="M550.109 1468.726l-46.438-27.054"/><path data-name="線 124651" d="M548.098 1467.525l-41.608 23.82"/><path data-name="線 124652" d="M550.11 1519.622l-42.002 24.213"/><path data-name="線 124653" d="M548.099 1518.399l-42.417 24.235"/><path data-name="線 124654" d="M508.108 1492.962h0"/><path data-name="線 124655" d="M508.108 1492.962l42.002 24.235"/><path data-name="線 124656" d="M506.906 1494.973l-1.224-.809"/><path data-name="線 124657" d="M506.906 1494.972l43.204 24.65"/><path data-name="線 124658" d="M550.11 1468.726l-42.002 24.235"/><path data-name="線 124659" d="M504.873 1493.355l.809.809"/><path data-name="線 124660" d="M506.906 1492.153l1.202.809"/><path data-name="線 124661" d="M505.682 1494.164l-42.002 24.235"/><path data-name="線 124662" d="M462.872 1543.836v-23.405"/><path data-name="線 124663" d="M462.872 1516.389v-23.427"/><path data-name="線 124664" d="M505.288 1443.683l-41.608 23.842"/><path data-name="線 124665" d="M462.872 1492.962v-23.82"/><path data-name="線 124666" d="M462.872 1465.492v-23.82"/><path data-name="線 124667" d="M594.121 1389.574l.809-.393"/><path data-name="線 124668" d="M593.728 1341.519l.393-.415"/><path data-name="線 124669" d="M636.538 1365.339l-41.608 23.842"/><path data-name="線 124670" d="M637.347 1390.776v-23.82"/><path data-name="線 124671" d="M637.347 1414.618v-23.842"/><path data-name="線 124672" d="M637.347 1441.673v-23.427"/><path data-name="線 124673" d="M636.538 1416.235l-42.417 24.213"/><path data-name="線 124674" d="M596.547 1390.776h0"/><path data-name="線 124675" d="M595.345 1392.809l-1.224-.809"/><path data-name="線 124676" d="M593.313 1391.192l.809.809"/><path data-name="線 124677" d="M595.345 1389.968l1.202.809"/><path data-name="線 124678" d="M592.111 1441.672l-42.002-24.235"/><path data-name="線 124679" d="M592.111 1390.776l-42.002 24.235"/><path data-name="線 124680" d="M596.547 1441.672l-46.438-26.661"/><path data-name="線 124681" d="M594.122 1392l-42.002 24.235"/><path data-name="線 124682" d="M593.728 1341.519l-41.608 23.82"/><path data-name="線 124683" d="M592.111 1339.487l-42.002 24.65"/><path data-name="線 124684" d="M595.345 1389.967l-45.236-25.83"/><path data-name="線 124685" d="M593.313 1391.191l-43.204-24.628"/><path data-name="線 124686" d="M594.121 1491.737l.809-.393"/><path data-name="線 124687" d="M593.728 1443.682l.393-.393"/><path data-name="線 124688" d="M636.538 1467.525l-41.608 23.82"/><path data-name="線 124689" d="M637.347 1492.962v-23.82"/><path data-name="線 124690" d="M637.347 1516.389v-23.427"/><path data-name="線 124691" d="M637.347 1543.836v-23.405"/><path data-name="線 124692" d="M636.538 1518.399l-42.417 24.235"/><path data-name="線 124693" d="M596.547 1492.962h0"/><path data-name="線 124694" d="M595.345 1494.973l-1.224-.809"/><path data-name="線 124695" d="M593.313 1493.355l.809.809"/><path data-name="線 124696" d="M595.345 1492.153l1.202.809"/><path data-name="線 124697" d="M592.111 1543.835l-42.002-24.213"/><path data-name="線 124698" d="M592.111 1492.962l-42.002 24.235"/><path data-name="線 124699" d="M596.547 1543.836l-46.438-26.639"/><path data-name="線 124700" d="M594.122 1494.164l-42.002 24.235"/><path data-name="線 124701" d="M593.728 1443.683l-41.608 23.842"/><path data-name="線 124702" d="M592.111 1441.672l-42.002 24.628"/><path data-name="線 124703" d="M595.345 1492.153l-45.236-25.852"/><path data-name="線 124704" d="M593.313 1493.354l-43.204-24.628"/><path data-name="線 124705" d="M637.347 1465.492v-23.82"/><path data-name="線 124706" d="M649.345 1554.872H450.656"/><path data-name="線 124707" d="M649.344 1554.872v-225.743"/><path data-name="線 124708" d="M450.656 1554.872v-225.743"/><path data-name="線 124709" d="M649.345 1329.129H450.656"/><path data-name="線 124710" d="M462.872 1537.782v-198.295"/><path data-name="線 124711" d="M637.347 1532.931v-193.444"/><path data-name="線 124712" d="M503.672 1339.487l-40.8 23.842"/><path data-name="線 124713" d="M506.906 1389.968l-44.034-25.437"/><path data-name="線 124714" d="M504.874 1391.191l-42.002-24.235"/><path data-name="線 124715" d="M503.672 1390.776l-40.8 23.842"/><path data-name="線 124716" d="M508.108 1441.672l-45.236-25.852"/><path data-name="線 124717" d="M503.672 1441.673l-40.8-23.427"/><path data-name="線 124718" d="M503.672 1441.672l-40.8 23.82"/><path data-name="線 124719" d="M506.906 1492.153l-44.034-25.437"/><path data-name="線 124720" d="M504.874 1493.355l-42.002-24.213"/><path data-name="線 124721" d="M503.672 1492.962l-40.8 23.427"/><path data-name="線 124722" d="M508.108 1543.835l-45.236-25.83"/><path data-name="線 124723" d="M503.672 1543.836l-40.8-23.405"/><path data-name="線 124724" d="M503.672 1543.836h-40.8"/><path data-name="線 124725" d="M637.347 1543.836H503.671"/><path data-name="線 124726" d="M637.347 1520.431l-40.8 23.405"/><path data-name="線 124727" d="M595.345 1494.972l42.002 24.235"/><path data-name="線 124728" d="M596.547 1492.962l40.8 23.427"/><path data-name="線 124729" d="M637.347 1469.142l-40.8 23.82"/><path data-name="線 124730" d="M637.347 1467.918l-45.236-26.246"/><path data-name="線 124731" d="M637.347 1465.492l-40.8-23.82"/><path data-name="線 124732" d="M596.547 1390.776l40.8 23.842"/><path data-name="線 124733" d="M595.345 1392.809l42.002 24.235"/><path data-name="線 124734" d="M637.347 1418.246l-40.8 23.427"/><path data-name="線 124735" d="M637.347 1366.956l-40.8 23.82"/><path data-name="線 124736" d="M637.347 1365.754l-45.236-26.267"/><path data-name="線 124737" d="M637.347 1363.329l-40.8-23.842"/><path data-name="線 124738" d="M637.348 1339.487H462.872"/></g></g></svg>