<svg xmlns="http://www.w3.org/2000/svg" width="200" height="230"><defs><clipPath id="a"><path data-name="長方形 180" transform="translate(450 1327)" fill="#ccc" d="M0 0h200v230H0z"/></clipPath></defs><g data-name="マスクグループ 588" transform="translate(-450 -1327)" clip-path="url(#a)"><g data-name="グループ 3456" fill="none" stroke="#c59535" stroke-linecap="round" stroke-linejoin="round" stroke-width="1.314"><path data-name="線 125376" d="M499.222 1343.073l-31.158 17.802"/><path data-name="線 125377" d="M493.946 1390.806l-10.116-5.649"/><path data-name="線 125378" d="M486.26 1383.931l-2.43 1.226"/><path data-name="線 125379" d="M563.138 1428.446l-2.409 1.226"/><path data-name="線 125380" d="M563.138 1428.446l-12.131-6.875"/><path data-name="線 125381" d="M551.007 1358.05l-9.7-5.671"/><path data-name="線 125382" d="M483.019 1372.194l-20.626-11.736"/><path data-name="線 125383" d="M485.056 1370.991l-22.663-12.941"/><path data-name="線 125384" d="M543.321 1368.56l-31.158 17.802"/><path data-name="線 125385" d="M545.752 1369.764l-31.574 18.218"/><path data-name="線 125386" d="M551.008 1364.115l-42.085-24.283"/><path data-name="線 125387" d="M551.007 1366.545l-46.529-26.713"/><path data-name="線 125388" d="M579.341 1339.832H462.393"/><path data-name="線 125389" d="M506.098 1341.452l.81-.416"/><path data-name="線 125390" d="M649.343 1555.094H450.657"/><path data-name="線 125391" d="M649.343 1555.094v-226.188"/><path data-name="線 125392" d="M450.657 1555.094v-226.188"/><path data-name="線 125393" d="M649.343 1328.906H450.657"/><path data-name="線 125394" d="M462.393 1453.933v-114.101"/><path data-name="線 125395" d="M504.478 1390.806l-42.085-24.261"/><path data-name="線 125396" d="M508.922 1390.806l-46.529-26.691"/><path data-name="線 125397" d="M462.393 1390.807v-37.224"/><path data-name="線 125398" d="M517.419 1341.036l-3.241 2.036"/><path data-name="線 125399" d="M515.404 1339.832l-3.241 1.62"/><path data-name="線 125400" d="M510.149 1343.073l-3.241 1.62"/><path data-name="線 125401" d="M506.098 1341.452l-2.43 1.62"/><path data-name="線 125402" d="M504.478 1339.832l-3.241 1.62"/><path data-name="線 125403" d="M551.008 1366.545l-3.241 2.014"/><path data-name="線 125404" d="M548.993 1365.319l-3.241 2.036"/><path data-name="線 125405" d="M543.322 1362.079l-3.241 2.036"/><path data-name="線 125406" d="M551.008 1360.458l-3.241 1.62"/><path data-name="線 125407" d="M545.752 1363.305l-3.241 2.014"/><path data-name="線 125408" d="M548.993 1359.254l-3.241 1.62"/><path data-name="線 125409" d="M512.164 1389.208l-3.241 1.598"/><path data-name="線 125410" d="M510.149 1387.982l-3.241 1.62"/><path data-name="線 125411" d="M504.478 1384.741l-3.241 1.62"/><path data-name="線 125412" d="M506.909 1385.967l-3.241 2.014"/><path data-name="線 125413" d="M501.237 1389.208l-3.241 1.598"/><path data-name="線 125414" d="M499.223 1387.982l-3.241 1.62"/><path data-name="線 125415" d="M465.634 1368.56l-3.241 1.62"/><path data-name="線 125416" d="M468.065 1369.764l-3.241 2.036"/><path data-name="線 125417" d="M473.32 1366.545l-3.241 2.014"/><path data-name="線 125418" d="M471.283 1365.319l-3.219 2.036"/><path data-name="線 125419" d="M501.237 1344.277l-31.158 17.802"/><path data-name="線 125420" d="M468.065 1363.305l-3.241 2.014"/><path data-name="線 125421" d="M465.634 1362.079l-3.241 2.036"/><path data-name="線 125422" d="M512.164 1344.277l-3.241 1.62"/><path data-name="線 125423" d="M493.946 1339.832l-10.116 5.671"/><path data-name="線 125424" d="M472.093 1352.379l-9.7 5.671"/><path data-name="線 125425" d="M495.982 1341.036l-9.722 5.671"/><path data-name="線 125426" d="M474.524 1353.583l-9.7 5.671"/><path data-name="線 125427" d="M504.478 1345.897l-9.722 5.671"/><path data-name="線 125428" d="M483.019 1358.444l-9.7 5.671"/><path data-name="線 125429" d="M506.908 1347.124l-9.722 5.649"/><path data-name="線 125430" d="M538.067 1365.319l-9.722 5.671"/><path data-name="線 125431" d="M516.608 1377.866l-9.7 5.671"/><path data-name="線 125432" d="M540.081 1366.545l-9.7 5.649"/><path data-name="線 125433" d="M518.645 1379.092l-9.722 5.649"/><path data-name="線 125434" d="M548.993 1371.801l-9.722 5.255"/><path data-name="線 125435" d="M527.534 1383.931l-10.116 5.671"/><path data-name="線 125436" d="M551.007 1373.005l-9.7 5.671"/><path data-name="線 125437" d="M529.571 1385.157l-9.722 5.649"/><path data-name="線 125438" d="M515.404 1390.806l-20.648-11.714"/><path data-name="線 125439" d="M519.849 1390.807l-22.663-12.941"/><path data-name="線 125440" d="M497.996 1390.806l-11.736-6.875"/><path data-name="線 125441" d="M474.524 1377.055l-12.131-6.875"/><path data-name="線 125442" d="M472.093 1378.676l-9.7-5.671"/><path data-name="線 125443" d="M551.007 1370.18l-20.626-11.736"/><path data-name="線 125444" d="M518.644 1351.568l-20.648-11.736"/><path data-name="線 125445" d="M551.008 1373.005l-22.663-13.357"/><path data-name="線 125446" d="M516.609 1352.773l-22.663-12.941"/><path data-name="線 125447" d="M486.26 1346.707l-2.43-1.204"/><path data-name="線 125448" d="M474.523 1353.583l-2.43-1.204"/><path data-name="線 125449" d="M474.523 1377.056l-2.43 1.62"/><path data-name="線 125450" d="M551.007 1360.458l-11.736-6.875"/><path data-name="線 125451" d="M527.535 1346.707l-12.131-6.875"/><path data-name="線 125452" d="M529.571 1345.503l-9.722-5.671"/><path data-name="線 125453" d="M541.307 1352.379l-2.036 1.204"/><path data-name="線 125454" d="M529.57 1345.503l-2.036 1.204"/><path data-name="線 125455" d="M529.57 1385.157l-2.036-1.226"/><path data-name="線 125456" d="M541.307 1378.676l-2.036-1.62"/><path data-name="線 125457" d="M495.982 1353.583l-20.648 11.736"/><path data-name="線 125458" d="M483.019 1358.443l11.736-6.875"/><path data-name="線 125459" d="M497.186 1352.773l-1.204.81"/><path data-name="線 125460" d="M485.056 1370.99l12.131 6.875"/><path data-name="線 125461" d="M483.019 1372.195l11.736 6.897"/><path data-name="線 125462" d="M516.608 1377.865l11.736-6.875"/><path data-name="線 125463" d="M518.645 1379.092l11.736-6.897"/><path data-name="線 125464" d="M528.344 1359.648l-11.736-6.875"/><path data-name="線 125465" d="M518.645 1351.568l11.736 6.875"/><path data-name="線 125466" d="M639.621 1358.05l-9.7-5.671"/><path data-name="線 125467" d="M571.655 1372.194l-20.648-11.736"/><path data-name="線 125468" d="M573.67 1370.991l-22.663-12.941"/><path data-name="線 125469" d="M632.351 1368.56l-31.574 17.802"/><path data-name="線 125470" d="M634.366 1369.764l-31.574 18.218"/><path data-name="線 125471" d="M639.622 1364.115l-42.085-24.283"/><path data-name="線 125472" d="M639.621 1366.545l-46.529-26.713"/><path data-name="線 125473" d="M594.712 1341.452l.81-.416"/><path data-name="線 125474" d="M593.092 1390.806l-42.085-24.261"/><path data-name="線 125475" d="M597.536 1390.806l-46.529-26.691"/><path data-name="線 125476" d="M606.449 1341.036l-3.657 2.036"/><path data-name="線 125477" d="M604.018 1339.832l-3.241 1.62"/><path data-name="線 125478" d="M598.763 1343.073l-3.241 1.62"/><path data-name="線 125479" d="M594.712 1341.452l-2.43 1.62"/><path data-name="線 125480" d="M593.092 1339.832l-3.241 1.62"/><path data-name="線 125481" d="M639.622 1366.545l-3.241 2.014"/><path data-name="線 125482" d="M637.607 1365.319l-3.241 2.036"/><path data-name="線 125483" d="M632.352 1362.079l-3.241 2.036"/><path data-name="線 125484" d="M639.622 1360.458l-3.241 1.62"/><path data-name="線 125485" d="M634.366 1363.305l-3.241 2.014"/><path data-name="線 125486" d="M637.607 1359.254l-3.241 1.62"/><path data-name="線 125487" d="M600.778 1389.208l-3.241 1.598"/><path data-name="線 125488" d="M598.763 1387.982l-3.241 1.62"/><path data-name="線 125489" d="M593.092 1384.741l-3.241 1.62"/><path data-name="線 125490" d="M595.523 1385.967l-3.241 2.014"/><path data-name="線 125491" d="M589.851 1389.208l-3.241 1.598"/><path data-name="線 125492" d="M587.837 1387.982l-3.241 1.62"/><path data-name="線 125493" d="M554.248 1368.56l-3.241 1.62"/><path data-name="線 125494" d="M556.679 1369.764l-3.241 2.036"/><path data-name="線 125495" d="M561.934 1366.545l-3.241 2.014"/><path data-name="線 125496" d="M559.919 1365.319l-3.241 2.036"/><path data-name="線 125497" d="M589.851 1344.277l-31.158 17.802"/><path data-name="線 125498" d="M556.679 1363.305l-3.241 2.014"/><path data-name="線 125499" d="M587.836 1343.073l-31.158 17.802"/><path data-name="線 125500" d="M554.248 1362.079l-3.241 2.036"/><path data-name="線 125501" d="M600.778 1344.277l-3.241 1.62"/><path data-name="線 125502" d="M582.56 1339.832l-9.7 5.671"/><path data-name="線 125503" d="M560.729 1352.379l-9.722 5.671"/><path data-name="線 125504" d="M584.596 1341.036l-9.722 5.671"/><path data-name="線 125505" d="M563.138 1353.583l-9.7 5.671"/><path data-name="線 125506" d="M593.092 1345.897l-9.722 5.671"/><path data-name="線 125507" d="M571.655 1358.444l-9.722 5.671"/><path data-name="線 125508" d="M595.522 1347.124l-9.722 5.649"/><path data-name="線 125509" d="M626.681 1365.319l-9.722 5.671"/><path data-name="線 125510" d="M605.222 1377.866l-9.7 5.671"/><path data-name="線 125511" d="M629.111 1366.545l-10.116 5.649"/><path data-name="線 125512" d="M607.259 1379.092l-9.722 5.649"/><path data-name="線 125513" d="M637.607 1371.801l-9.722 5.255"/><path data-name="線 125514" d="M616.148 1383.931l-9.7 5.671"/><path data-name="線 125515" d="M639.621 1373.005l-9.7 5.671"/><path data-name="線 125516" d="M618.185 1385.157l-9.722 5.649"/><path data-name="線 125517" d="M604.018 1390.806l-20.648-11.714"/><path data-name="線 125518" d="M608.463 1390.807l-22.663-12.941"/><path data-name="線 125519" d="M586.61 1390.806l-11.736-6.875"/><path data-name="線 125520" d="M563.138 1377.055l-12.131-6.875"/><path data-name="線 125521" d="M582.56 1390.806l-9.7-5.649"/><path data-name="線 125522" d="M560.729 1378.676l-9.722-5.671"/><path data-name="線 125523" d="M639.621 1370.18l-20.626-11.736"/><path data-name="線 125524" d="M607.258 1351.568l-20.648-11.736"/><path data-name="線 125525" d="M639.622 1373.005l-22.663-13.357"/><path data-name="線 125526" d="M605.223 1352.773l-22.663-12.941"/><path data-name="線 125527" d="M574.874 1346.707l-2.014-1.204"/><path data-name="線 125528" d="M563.138 1353.583l-2.409-1.204"/><path data-name="線 125529" d="M574.874 1383.931l-2.014 1.226"/><path data-name="線 125530" d="M563.138 1377.056l-2.409 1.62"/><path data-name="線 125531" d="M639.621 1360.458l-11.736-6.875"/><path data-name="線 125532" d="M616.149 1346.707l-12.131-6.875"/><path data-name="線 125533" d="M618.185 1345.503l-9.722-5.671"/><path data-name="線 125534" d="M629.921 1352.379l-2.036 1.204"/><path data-name="線 125535" d="M618.184 1345.503l-2.036 1.204"/><path data-name="線 125536" d="M618.184 1385.157l-2.036-1.226"/><path data-name="線 125537" d="M629.921 1378.676l-2.036-1.62"/><path data-name="線 125538" d="M584.596 1353.583l-20.648 11.736"/><path data-name="線 125539" d="M571.655 1358.443l11.714-6.875"/><path data-name="線 125540" d="M585.8 1352.773l-1.204.81"/><path data-name="線 125541" d="M573.67 1370.99l12.131 6.875"/><path data-name="線 125542" d="M571.655 1372.195l11.714 6.897"/><path data-name="線 125543" d="M605.222 1377.865l11.736-6.875"/><path data-name="線 125544" d="M607.259 1379.092l11.736-6.897"/><path data-name="線 125545" d="M616.958 1359.648l-11.736-6.875"/><path data-name="線 125546" d="M607.259 1351.568l11.736 6.875"/><path data-name="線 125547" d="M551.007 1409.024l-9.7-5.671"/><path data-name="線 125548" d="M483.019 1423.586l-20.626-12.131"/><path data-name="線 125549" d="M485.056 1421.965l-22.663-12.941"/><path data-name="線 125550" d="M543.321 1419.556l-31.158 18.196"/><path data-name="線 125551" d="M545.752 1420.76l-31.574 18.218"/><path data-name="線 125552" d="M551.008 1415.089l-42.085-24.283"/><path data-name="線 125553" d="M551.007 1417.935l-46.529-27.129"/><path data-name="線 125554" d="M506.098 1392.427l.81-.394"/><path data-name="線 125555" d="M504.478 1442.197l-42.085-24.261"/><path data-name="線 125556" d="M508.922 1442.197l-46.529-27.108"/><path data-name="線 125557" d="M462.393 1442.197v-37.618"/><path data-name="線 125558" d="M517.419 1392.033l-3.241 2.014"/><path data-name="線 125559" d="M515.404 1390.806l-3.241 2.036"/><path data-name="線 125560" d="M510.149 1394.047l-3.241 2.036"/><path data-name="線 125561" d="M506.098 1392.427l-2.43 1.62"/><path data-name="線 125562" d="M504.478 1390.806l-3.241 2.036"/><path data-name="線 125563" d="M551.008 1417.936l-3.241 1.62"/><path data-name="線 125564" d="M548.993 1416.71l-3.241 1.62"/><path data-name="線 125565" d="M543.322 1413.469l-3.241 1.62"/><path data-name="線 125566" d="M551.008 1411.455l-3.241 2.014"/><path data-name="線 125567" d="M545.752 1414.695l-3.241 2.014"/><path data-name="線 125568" d="M548.993 1410.228l-3.241 2.036"/><path data-name="線 125569" d="M512.164 1440.182l-3.241 2.014"/><path data-name="線 125570" d="M510.149 1438.978l-3.241 2.014"/><path data-name="線 125571" d="M504.478 1435.738l-3.241 2.014"/><path data-name="線 125572" d="M506.909 1436.942l-3.241 2.036"/><path data-name="線 125573" d="M501.237 1440.182l-3.241 2.014"/><path data-name="線 125574" d="M499.223 1438.978l-3.241 2.014"/><path data-name="線 125575" d="M465.634 1419.556l-3.241 2.014"/><path data-name="線 125576" d="M468.065 1420.76l-3.241 2.014"/><path data-name="線 125577" d="M473.32 1417.936l-3.241 1.62"/><path data-name="線 125578" d="M471.283 1416.71l-3.219 1.62"/><path data-name="線 125579" d="M501.237 1395.273l-31.158 18.196"/><path data-name="線 125580" d="M468.065 1414.695l-3.241 2.014"/><path data-name="線 125581" d="M499.222 1394.047l-31.158 18.218"/><path data-name="線 125582" d="M465.634 1413.469l-3.241 1.62"/><path data-name="線 125583" d="M512.164 1395.273l-3.241 2.014"/><path data-name="線 125584" d="M493.946 1390.806l-10.116 5.671"/><path data-name="線 125585" d="M472.093 1403.353l-9.7 5.671"/><path data-name="線 125586" d="M495.982 1392.033l-9.722 5.671"/><path data-name="線 125587" d="M474.524 1404.579l-9.7 5.649"/><path data-name="線 125588" d="M504.478 1397.288l-9.722 5.671"/><path data-name="線 125589" d="M483.019 1409.834l-9.7 5.255"/><path data-name="線 125590" d="M506.908 1398.514l-9.722 5.649"/><path data-name="線 125591" d="M538.067 1416.71l-9.722 5.255"/><path data-name="線 125592" d="M516.608 1428.862l-9.7 5.649"/><path data-name="線 125593" d="M540.081 1417.936l-9.7 5.649"/><path data-name="線 125594" d="M518.645 1430.066l-9.722 5.671"/><path data-name="線 125595" d="M548.993 1422.775l-9.722 5.671"/><path data-name="線 125596" d="M527.534 1435.321l-10.116 5.671"/><path data-name="線 125597" d="M551.007 1424.001l-9.7 5.671"/><path data-name="線 125598" d="M529.571 1436.548l-9.722 5.649"/><path data-name="線 125599" d="M515.404 1442.197l-20.648-12.131"/><path data-name="線 125600" d="M519.849 1442.197l-22.663-13.335"/><path data-name="線 125601" d="M497.996 1442.196l-11.736-6.875"/><path data-name="線 125602" d="M474.524 1428.446l-12.131-6.875"/><path data-name="線 125603" d="M493.946 1442.197l-10.116-5.649"/><path data-name="線 125604" d="M472.093 1429.672l-9.7-5.671"/><path data-name="線 125605" d="M551.007 1421.57l-20.626-11.736"/><path data-name="線 125606" d="M518.644 1402.958l-20.648-12.152"/><path data-name="線 125607" d="M551.008 1424.002l-22.663-12.963"/><path data-name="線 125608" d="M516.609 1404.163l-22.663-13.357"/><path data-name="線 125609" d="M486.26 1397.704l-2.43-1.226"/><path data-name="線 125610" d="M474.523 1404.579l-2.43-1.226"/><path data-name="線 125611" d="M486.26 1435.321l-2.43 1.226"/><path data-name="線 125612" d="M474.523 1428.446l-2.43 1.226"/><path data-name="線 125613" d="M551.007 1411.454l-11.736-6.875"/><path data-name="線 125614" d="M527.535 1397.703l-12.131-6.897"/><path data-name="線 125615" d="M529.571 1396.477l-9.722-5.671"/><path data-name="線 125616" d="M541.307 1403.353l-2.036 1.226"/><path data-name="線 125617" d="M529.57 1396.478l-2.036 1.226"/><path data-name="線 125618" d="M529.57 1436.547l-2.036-1.226"/><path data-name="線 125619" d="M541.307 1429.672l-2.036-1.226"/><path data-name="線 125620" d="M495.982 1404.579l-20.648 12.131"/><path data-name="線 125621" d="M483.019 1409.834l11.736-6.875"/><path data-name="線 125622" d="M497.186 1404.163l-1.204.416"/><path data-name="線 125623" d="M485.056 1421.965l12.131 6.897"/><path data-name="線 125624" d="M483.019 1423.585l11.736 6.481"/><path data-name="線 125625" d="M516.608 1428.862l11.736-6.897"/><path data-name="線 125626" d="M518.645 1430.066l11.736-6.481"/><path data-name="線 125627" d="M528.344 1411.038l-11.736-6.875"/><path data-name="線 125628" d="M518.645 1402.959l11.736 6.875"/><path data-name="線 125629" d="M639.621 1409.024l-9.7-5.671"/><path data-name="線 125630" d="M571.655 1423.586l-20.648-12.131"/><path data-name="線 125631" d="M573.67 1421.965l-22.663-12.941"/><path data-name="線 125632" d="M632.351 1419.556l-31.574 18.196"/><path data-name="線 125633" d="M634.366 1420.76l-31.574 18.218"/><path data-name="線 125634" d="M639.622 1415.089l-42.085-24.283"/><path data-name="線 125635" d="M639.621 1417.935l-46.529-27.129"/><path data-name="線 125636" d="M594.712 1392.427l.81-.394"/><path data-name="線 125637" d="M593.092 1442.197l-42.085-24.261"/><path data-name="線 125638" d="M597.536 1442.197l-46.529-27.108"/><path data-name="線 125639" d="M606.449 1392.033l-3.657 2.014"/><path data-name="線 125640" d="M604.018 1390.806l-3.241 2.036"/><path data-name="線 125641" d="M598.763 1394.047l-3.241 2.036"/><path data-name="線 125642" d="M594.712 1392.427l-2.43 1.62"/><path data-name="線 125643" d="M593.092 1390.806l-3.241 2.036"/><path data-name="線 125644" d="M639.622 1417.936l-3.241 1.62"/><path data-name="線 125645" d="M637.607 1416.71l-3.241 1.62"/><path data-name="線 125646" d="M632.352 1413.469l-3.241 1.62"/><path data-name="線 125647" d="M639.622 1411.455l-3.241 2.014"/><path data-name="線 125648" d="M634.366 1414.695l-3.241 2.014"/><path data-name="線 125649" d="M637.607 1410.228l-3.241 2.036"/><path data-name="線 125650" d="M600.778 1440.182l-3.241 2.014"/><path data-name="線 125651" d="M598.763 1438.978l-3.241 2.014"/><path data-name="線 125652" d="M593.092 1435.738l-3.241 2.014"/><path data-name="線 125653" d="M595.523 1436.942l-3.241 2.036"/><path data-name="線 125654" d="M589.851 1440.182l-3.241 2.014"/><path data-name="線 125655" d="M587.837 1438.978l-3.241 2.014"/><path data-name="線 125656" d="M554.248 1419.556l-3.241 2.014"/><path data-name="線 125657" d="M556.679 1420.76l-3.241 2.014"/><path data-name="線 125658" d="M561.934 1417.936l-3.241 1.62"/><path data-name="線 125659" d="M559.919 1416.71l-3.241 1.62"/><path data-name="線 125660" d="M589.851 1395.273l-31.158 18.196"/><path data-name="線 125661" d="M556.679 1414.695l-3.241 2.014"/><path data-name="線 125662" d="M587.836 1394.047l-31.158 18.218"/><path data-name="線 125663" d="M554.248 1413.469l-3.241 1.62"/><path data-name="線 125664" d="M600.778 1395.273l-3.241 2.014"/><path data-name="線 125665" d="M582.56 1390.806l-9.7 5.671"/><path data-name="線 125666" d="M560.729 1403.353l-9.722 5.671"/><path data-name="線 125667" d="M584.596 1392.033l-9.722 5.671"/><path data-name="線 125668" d="M563.138 1404.579l-9.7 5.649"/><path data-name="線 125669" d="M593.092 1397.288l-9.722 5.671"/><path data-name="線 125670" d="M571.655 1409.834l-9.722 5.255"/><path data-name="線 125671" d="M595.522 1398.514l-9.722 5.649"/><path data-name="線 125672" d="M626.681 1416.71l-9.722 5.255"/><path data-name="線 125673" d="M605.222 1428.862l-9.7 5.649"/><path data-name="線 125674" d="M629.111 1417.936l-10.116 5.649"/><path data-name="線 125675" d="M607.259 1430.066l-9.722 5.671"/><path data-name="線 125676" d="M637.607 1422.775l-9.722 5.671"/><path data-name="線 125677" d="M616.148 1435.321l-9.7 5.671"/><path data-name="線 125678" d="M639.621 1424.001l-9.7 5.671"/><path data-name="線 125679" d="M618.185 1436.548l-9.722 5.649"/><path data-name="線 125680" d="M604.018 1442.197l-20.648-12.131"/><path data-name="線 125681" d="M608.463 1442.197l-22.663-13.335"/><path data-name="線 125682" d="M586.61 1442.196l-11.736-6.875"/><path data-name="線 125683" d="M582.56 1442.197l-9.7-5.649"/><path data-name="線 125684" d="M560.729 1429.672l-9.722-5.671"/><path data-name="線 125685" d="M639.621 1421.57l-20.626-11.736"/><path data-name="線 125686" d="M607.258 1402.958l-20.648-12.152"/><path data-name="線 125687" d="M639.622 1424.002l-22.663-12.963"/><path data-name="線 125688" d="M605.223 1404.163l-22.663-13.357"/><path data-name="線 125689" d="M574.874 1397.704l-2.014-1.226"/><path data-name="線 125690" d="M563.138 1404.579l-2.409-1.226"/><path data-name="線 125691" d="M574.874 1435.321l-2.014 1.226"/><path data-name="線 125692" d="M639.621 1411.454l-11.736-6.875"/><path data-name="線 125693" d="M616.149 1397.703l-12.131-6.897"/><path data-name="線 125694" d="M618.185 1396.477l-9.722-5.671"/><path data-name="線 125695" d="M629.921 1403.353l-2.036 1.226"/><path data-name="線 125696" d="M618.184 1396.478l-2.036 1.226"/><path data-name="線 125697" d="M618.184 1436.547l-2.036-1.226"/><path data-name="線 125698" d="M629.921 1429.672l-2.036-1.226"/><path data-name="線 125699" d="M584.596 1404.579l-20.648 12.131"/><path data-name="線 125700" d="M571.655 1409.834l11.714-6.875"/><path data-name="線 125701" d="M585.8 1404.163l-1.204.416"/><path data-name="線 125702" d="M573.67 1421.965l12.131 6.897"/><path data-name="線 125703" d="M571.655 1423.585l11.714 6.481"/><path data-name="線 125704" d="M605.222 1428.862l11.736-6.897"/><path data-name="線 125705" d="M607.259 1430.066l11.736-6.481"/><path data-name="線 125706" d="M616.958 1411.038l-11.736-6.875"/><path data-name="線 125707" d="M607.259 1402.959l11.736 6.875"/><path data-name="線 125708" d="M551.007 1460.02l-9.7-5.277"/><path data-name="線 125709" d="M483.019 1474.581l-20.626-11.736"/><path data-name="線 125710" d="M485.056 1473.355l-22.663-13.335"/><path data-name="線 125711" d="M543.321 1470.925l-31.158 17.824"/><path data-name="線 125712" d="M545.752 1472.151l-31.574 18.218"/><path data-name="線 125713" d="M551.008 1466.48l-42.085-24.283"/><path data-name="線 125714" d="M551.007 1468.91l-46.529-26.713"/><path data-name="線 125715" d="M506.098 1443.817l.81-.394"/><path data-name="線 125716" d="M504.478 1493.193l-42.085-24.283"/><path data-name="線 125717" d="M508.922 1493.193l-46.529-26.713"/><path data-name="線 125718" d="M517.419 1443.423l-3.241 1.62"/><path data-name="線 125719" d="M515.404 1442.197l-3.241 1.62"/><path data-name="線 125720" d="M510.149 1445.043l-3.241 2.014"/><path data-name="線 125721" d="M506.098 1443.817l-2.43 1.226"/><path data-name="線 125722" d="M504.478 1442.197l-3.241 1.62"/><path data-name="線 125723" d="M551.008 1468.91l-3.241 2.014"/><path data-name="線 125724" d="M548.993 1467.706l-3.241 2.014"/><path data-name="線 125725" d="M543.322 1464.465l-3.241 2.014"/><path data-name="線 125726" d="M551.008 1462.845l-3.241 1.62"/><path data-name="線 125727" d="M545.752 1465.67l-3.241 2.036"/><path data-name="線 125728" d="M548.993 1461.619l-3.241 1.62"/><path data-name="線 125729" d="M512.164 1491.573l-3.241 1.62"/><path data-name="線 125730" d="M510.149 1490.369l-3.241 1.598"/><path data-name="線 125731" d="M504.478 1487.128l-3.241 1.62"/><path data-name="線 125732" d="M506.909 1488.332l-3.241 2.036"/><path data-name="線 125733" d="M501.237 1491.573l-3.241 1.62"/><path data-name="線 125734" d="M499.223 1490.369l-3.241 1.598"/><path data-name="線 125735" d="M465.634 1470.925l-3.241 1.62"/><path data-name="線 125736" d="M468.065 1472.151l-3.241 1.62"/><path data-name="線 125737" d="M473.32 1468.91l-3.241 2.014"/><path data-name="線 125738" d="M471.283 1467.706l-3.219 2.014"/><path data-name="線 125739" d="M501.237 1446.664l-31.158 17.802"/><path data-name="線 125740" d="M468.065 1465.67l-3.241 2.036"/><path data-name="線 125741" d="M499.222 1445.043l-31.158 18.196"/><path data-name="線 125742" d="M465.634 1464.465l-3.241 2.014"/><path data-name="線 125743" d="M512.164 1446.664l-3.241 1.62"/><path data-name="線 125744" d="M493.946 1442.197l-10.116 5.671"/><path data-name="線 125745" d="M472.093 1454.743l-9.7 5.277"/><path data-name="線 125746" d="M495.982 1443.423l-9.722 5.671"/><path data-name="線 125747" d="M474.524 1455.97l-9.7 5.649"/><path data-name="線 125748" d="M504.478 1448.284l-9.722 5.649"/><path data-name="線 125749" d="M483.019 1460.809l-9.7 5.671"/><path data-name="線 125750" d="M506.908 1449.488l-9.722 5.671"/><path data-name="線 125751" d="M538.067 1467.706l-9.722 5.649"/><path data-name="線 125752" d="M516.608 1480.252l-9.7 5.649"/><path data-name="線 125753" d="M540.081 1468.91l-9.7 5.671"/><path data-name="線 125754" d="M518.645 1481.457l-9.722 5.671"/><path data-name="線 125755" d="M548.993 1473.771l-9.722 5.671"/><path data-name="線 125756" d="M527.534 1486.318l-10.116 5.649"/><path data-name="線 125757" d="M551.007 1475.392l-9.7 5.255"/><path data-name="線 125758" d="M529.571 1487.522l-9.722 5.671"/><path data-name="線 125759" d="M515.404 1493.193l-20.648-11.736"/><path data-name="線 125760" d="M519.849 1493.193l-22.663-12.941"/><path data-name="線 125761" d="M497.996 1493.193l-11.736-6.875"/><path data-name="線 125762" d="M474.524 1479.442l-12.131-6.897"/><path data-name="線 125763" d="M493.946 1493.193l-10.116-5.671"/><path data-name="線 125764" d="M472.093 1480.647l-9.7-5.255"/><path data-name="線 125765" d="M551.007 1472.545l-20.626-11.736"/><path data-name="線 125766" d="M518.644 1453.933l-20.648-11.736"/><path data-name="線 125767" d="M551.008 1475.392l-22.663-13.357"/><path data-name="線 125768" d="M516.609 1455.16l-22.663-12.963"/><path data-name="線 125769" d="M486.26 1449.094l-2.43-1.226"/><path data-name="線 125770" d="M474.523 1455.969l-2.43-1.226"/><path data-name="線 125771" d="M486.26 1486.318l-2.43 1.204"/><path data-name="線 125772" d="M474.523 1479.442l-2.43 1.204"/><path data-name="線 125773" d="M551.007 1462.845l-11.736-6.875"/><path data-name="線 125774" d="M527.535 1449.094l-12.131-6.897"/><path data-name="線 125775" d="M529.571 1447.868l-9.722-5.671"/><path data-name="線 125776" d="M541.307 1454.743l-2.036 1.226"/><path data-name="線 125777" d="M529.57 1447.868l-2.036 1.226"/><path data-name="線 125778" d="M529.57 1487.522l-2.036-1.204"/><path data-name="線 125779" d="M541.307 1480.646l-2.036-1.204"/><path data-name="線 125780" d="M495.982 1455.97l-20.648 11.736"/><path data-name="線 125781" d="M483.019 1460.808l11.736-6.875"/><path data-name="線 125782" d="M497.186 1455.159l-1.204.81"/><path data-name="線 125783" d="M485.056 1473.355l12.131 6.897"/><path data-name="線 125784" d="M483.019 1474.581l11.736 6.875"/><path data-name="線 125785" d="M516.608 1480.252l11.736-6.897"/><path data-name="線 125786" d="M518.645 1481.456l11.736-6.875"/><path data-name="線 125787" d="M528.344 1462.034l-11.736-6.875"/><path data-name="線 125788" d="M518.645 1453.933l11.736 6.875"/><path data-name="線 125789" d="M639.621 1460.02l-9.7-5.277"/><path data-name="線 125790" d="M571.655 1474.581l-20.648-11.736"/><path data-name="線 125791" d="M573.67 1473.355l-22.663-13.335"/><path data-name="線 125792" d="M632.351 1470.925l-31.574 17.824"/><path data-name="線 125793" d="M634.366 1472.151l-31.574 18.218"/><path data-name="線 125794" d="M639.622 1466.48l-42.085-24.283"/><path data-name="線 125795" d="M639.621 1468.91l-46.529-26.713"/><path data-name="線 125796" d="M594.712 1443.817l.81-.394"/><path data-name="線 125797" d="M593.092 1493.193l-42.085-24.283"/><path data-name="線 125798" d="M597.536 1493.193l-46.529-26.713"/><path data-name="線 125799" d="M606.449 1443.423l-3.657 1.62"/><path data-name="線 125800" d="M604.018 1442.197l-3.241 1.62"/><path data-name="線 125801" d="M598.763 1445.043l-3.241 2.014"/><path data-name="線 125802" d="M594.712 1443.817l-2.43 1.226"/><path data-name="線 125803" d="M593.092 1442.197l-3.241 1.62"/><path data-name="線 125804" d="M639.622 1468.91l-3.241 2.014"/><path data-name="線 125805" d="M637.607 1467.706l-3.241 2.014"/><path data-name="線 125806" d="M632.352 1464.465l-3.241 2.014"/><path data-name="線 125807" d="M639.622 1462.845l-3.241 1.62"/><path data-name="線 125808" d="M634.366 1465.67l-3.241 2.036"/><path data-name="線 125809" d="M637.607 1461.619l-3.241 1.62"/><path data-name="線 125810" d="M600.778 1491.573l-3.241 1.62"/><path data-name="線 125811" d="M598.763 1490.369l-3.241 1.598"/><path data-name="線 125812" d="M593.092 1487.128l-3.241 1.62"/><path data-name="線 125813" d="M595.523 1488.332l-3.241 2.036"/><path data-name="線 125814" d="M589.851 1491.573l-3.241 1.62"/><path data-name="線 125815" d="M587.837 1490.369l-3.241 1.598"/><path data-name="線 125816" d="M554.248 1470.925l-3.241 1.62"/><path data-name="線 125817" d="M556.679 1472.151l-3.241 1.62"/><path data-name="線 125818" d="M561.934 1468.91l-3.241 2.014"/><path data-name="線 125819" d="M559.919 1467.706l-3.241 2.014"/><path data-name="線 125820" d="M589.851 1446.664l-31.158 17.802"/><path data-name="線 125821" d="M556.679 1465.67l-3.241 2.036"/><path data-name="線 125822" d="M587.836 1445.043l-31.158 18.196"/><path data-name="線 125823" d="M554.248 1464.465l-3.241 2.014"/><path data-name="線 125824" d="M600.778 1446.664l-3.241 1.62"/><path data-name="線 125825" d="M582.56 1442.197l-9.7 5.671"/><path data-name="線 125826" d="M560.729 1454.743l-9.722 5.277"/><path data-name="線 125827" d="M584.596 1443.423l-9.722 5.671"/><path data-name="線 125828" d="M563.138 1455.97l-9.7 5.649"/><path data-name="線 125829" d="M593.092 1448.284l-9.722 5.649"/><path data-name="線 125830" d="M571.655 1460.809l-9.722 5.671"/><path data-name="線 125831" d="M595.522 1449.488l-9.722 5.671"/><path data-name="線 125832" d="M626.681 1467.706l-9.722 5.649"/><path data-name="線 125833" d="M605.222 1480.252l-9.7 5.649"/><path data-name="線 125834" d="M629.111 1468.91l-10.116 5.671"/><path data-name="線 125835" d="M607.259 1481.457l-9.722 5.671"/><path data-name="線 125836" d="M637.607 1473.771l-9.722 5.671"/><path data-name="線 125837" d="M616.148 1486.318l-9.7 5.649"/><path data-name="線 125838" d="M639.621 1475.392l-9.7 5.255"/><path data-name="線 125839" d="M618.185 1487.522l-9.722 5.671"/><path data-name="線 125840" d="M604.018 1493.193l-20.648-11.736"/><path data-name="線 125841" d="M608.463 1493.193l-22.663-12.941"/><path data-name="線 125842" d="M586.61 1493.193l-11.736-6.875"/><path data-name="線 125843" d="M563.138 1479.442l-12.131-6.897"/><path data-name="線 125844" d="M582.56 1493.193l-9.7-5.671"/><path data-name="線 125845" d="M560.729 1480.647l-9.722-5.255"/><path data-name="線 125846" d="M639.621 1472.545l-20.626-11.736"/><path data-name="線 125847" d="M607.258 1453.933l-20.648-11.736"/><path data-name="線 125848" d="M639.622 1475.392l-22.663-13.357"/><path data-name="線 125849" d="M605.223 1455.16l-22.663-12.963"/><path data-name="線 125850" d="M574.874 1449.094l-2.014-1.226"/><path data-name="線 125851" d="M563.138 1455.969l-2.409-1.226"/><path data-name="線 125852" d="M574.874 1486.318l-2.014 1.204"/><path data-name="線 125853" d="M563.138 1479.442l-2.409 1.204"/><path data-name="線 125854" d="M639.621 1462.845l-11.736-6.875"/><path data-name="線 125855" d="M616.149 1449.094l-12.131-6.897"/><path data-name="線 125856" d="M618.185 1447.868l-9.722-5.671"/><path data-name="線 125857" d="M629.921 1454.743l-2.036 1.226"/><path data-name="線 125858" d="M618.184 1447.868l-2.036 1.226"/><path data-name="線 125859" d="M618.184 1487.522l-2.036-1.204"/><path data-name="線 125860" d="M629.921 1480.646l-2.036-1.204"/><path data-name="線 125861" d="M584.596 1455.97l-20.648 11.736"/><path data-name="線 125862" d="M571.655 1460.808l11.714-6.875"/><path data-name="線 125863" d="M585.8 1455.159l-1.204.81"/><path data-name="線 125864" d="M573.67 1473.355l12.131 6.897"/><path data-name="線 125865" d="M571.655 1474.581l11.714 6.875"/><path data-name="線 125866" d="M605.222 1480.252l11.736-6.897"/><path data-name="線 125867" d="M607.259 1481.456l11.736-6.875"/><path data-name="線 125868" d="M616.958 1462.034l-11.736-6.875"/><path data-name="線 125869" d="M607.259 1453.933l11.736 6.875"/><path data-name="線 125870" d="M551.007 1511.389l-9.7-5.649"/><path data-name="線 125871" d="M483.019 1525.555l-20.626-11.736"/><path data-name="線 125872" d="M485.056 1524.352l-22.663-12.963"/><path data-name="線 125873" d="M543.321 1521.921l-31.158 18.218"/><path data-name="線 125874" d="M545.752 1523.125l-31.574 18.218"/><path data-name="線 125875" d="M551.008 1517.476l-42.085-24.283"/><path data-name="線 125876" d="M551.007 1520.301l-46.529-27.108"/><path data-name="線 125877" d="M506.098 1494.813l.81-.416"/><path data-name="線 125878" d="M504.478 1544.584l-42.085-24.283"/><path data-name="線 125879" d="M508.922 1544.584l-46.529-27.108"/><path data-name="線 125880" d="M462.393 1544.584v-37.64"/><path data-name="線 125881" d="M517.419 1494.397l-3.241 2.036"/><path data-name="線 125882" d="M515.404 1493.193l-3.241 2.014"/><path data-name="線 125883" d="M510.149 1496.434l-3.241 2.014"/><path data-name="線 125884" d="M506.098 1494.813l-2.43 1.62"/><path data-name="線 125885" d="M504.478 1493.193l-3.241 2.014"/><path data-name="線 125886" d="M551.008 1520.301l-3.241 1.62"/><path data-name="線 125887" d="M548.993 1518.68l-3.241 2.036"/><path data-name="線 125888" d="M543.322 1515.856l-3.241 1.62"/><path data-name="線 125889" d="M551.008 1513.819l-3.241 2.036"/><path data-name="線 125890" d="M545.752 1517.06l-3.241 1.62"/><path data-name="線 125891" d="M548.993 1512.615l-3.241 2.014"/><path data-name="線 125892" d="M512.164 1542.547l-3.241 2.036"/><path data-name="線 125893" d="M510.149 1541.343l-3.241 2.014"/><path data-name="線 125894" d="M504.478 1538.102l-3.241 2.036"/><path data-name="線 125895" d="M506.909 1539.328l-3.241 2.014"/><path data-name="線 125896" d="M501.237 1542.547l-3.241 2.036"/><path data-name="線 125897" d="M499.223 1541.343l-3.241 2.014"/><path data-name="線 125898" d="M465.634 1521.921l-3.241 2.014"/><path data-name="線 125899" d="M468.065 1523.125l-3.241 2.036"/><path data-name="線 125900" d="M473.32 1520.301l-3.241 1.62"/><path data-name="線 125901" d="M471.283 1518.68l-3.219 2.036"/><path data-name="線 125902" d="M501.237 1497.638l-31.158 18.218"/><path data-name="線 125903" d="M468.065 1517.06l-3.241 1.62"/><path data-name="線 125904" d="M499.222 1496.434l-31.158 18.196"/><path data-name="線 125905" d="M465.634 1515.856l-3.241 1.62"/><path data-name="線 125906" d="M512.164 1497.638l-3.241 2.036"/><path data-name="線 125907" d="M493.946 1493.193l-10.116 5.671"/><path data-name="線 125908" d="M472.093 1505.74l-9.7 5.649"/><path data-name="線 125909" d="M495.982 1494.397l-9.722 5.671"/><path data-name="線 125910" d="M474.524 1506.944l-9.7 5.671"/><path data-name="線 125911" d="M504.478 1499.674l-9.722 5.649"/><path data-name="線 125912" d="M483.019 1511.805l-9.7 5.671"/><path data-name="線 125913" d="M506.908 1500.879l-9.722 5.671"/><path data-name="線 125914" d="M538.067 1518.68l-9.722 5.671"/><path data-name="線 125915" d="M516.608 1531.227l-9.7 5.671"/><path data-name="線 125916" d="M540.081 1520.301l-9.7 5.255"/><path data-name="線 125917" d="M518.645 1532.431l-9.722 5.671"/><path data-name="線 125918" d="M548.993 1525.162l-9.722 5.671"/><path data-name="線 125919" d="M527.534 1537.708l-10.116 5.649"/><path data-name="線 125920" d="M551.007 1526.366l-9.7 5.671"/><path data-name="線 125921" d="M529.571 1538.912l-9.722 5.671"/><path data-name="線 125922" d="M515.404 1544.583l-20.648-12.152"/><path data-name="線 125923" d="M519.849 1544.584l-22.663-13.357"/><path data-name="線 125924" d="M497.996 1544.583l-11.736-6.875"/><path data-name="線 125925" d="M474.524 1530.832l-12.131-6.897"/><path data-name="線 125926" d="M493.946 1544.583l-10.116-5.671"/><path data-name="線 125927" d="M472.093 1532.037l-9.7-5.671"/><path data-name="線 125928" d="M551.007 1523.936l-20.626-12.131"/><path data-name="線 125929" d="M518.644 1505.324l-20.648-12.131"/><path data-name="線 125930" d="M551.008 1526.366l-22.663-12.941"/><path data-name="線 125931" d="M516.609 1506.55l-22.663-13.357"/><path data-name="線 125932" d="M486.26 1500.068l-2.43-1.204"/><path data-name="線 125933" d="M474.523 1506.944l-2.43-1.204"/><path data-name="線 125934" d="M486.26 1537.708l-2.43 1.204"/><path data-name="線 125935" d="M474.523 1530.833l-2.43 1.204"/><path data-name="線 125936" d="M551.007 1513.819l-11.736-6.875"/><path data-name="線 125937" d="M527.535 1500.068l-12.131-6.875"/><path data-name="線 125938" d="M529.571 1498.864l-9.722-5.671"/><path data-name="線 125939" d="M541.307 1505.74l-2.036 1.204"/><path data-name="線 125940" d="M529.57 1498.864l-2.036 1.204"/><path data-name="線 125941" d="M529.57 1538.912l-2.036-1.204"/><path data-name="線 125942" d="M541.307 1532.037l-2.036-1.204"/><path data-name="線 125943" d="M495.982 1506.944l-20.648 11.736"/><path data-name="線 125944" d="M483.019 1511.805l11.736-6.481"/><path data-name="線 125945" d="M497.186 1506.55l-1.204.394"/><path data-name="線 125946" d="M485.056 1524.351l12.131 6.875"/><path data-name="線 125947" d="M483.019 1525.556l11.736 6.875"/><path data-name="線 125948" d="M516.608 1531.226l11.736-6.875"/><path data-name="線 125949" d="M518.645 1532.431l11.736-6.875"/><path data-name="線 125950" d="M528.344 1513.425l-11.736-6.875"/><path data-name="線 125951" d="M518.645 1505.324l11.736 6.481"/><path data-name="線 125952" d="M639.621 1511.389l-9.7-5.649"/><path data-name="線 125953" d="M571.655 1525.555l-20.648-11.736"/><path data-name="線 125954" d="M573.67 1524.352l-22.663-12.963"/><path data-name="線 125955" d="M632.351 1521.921l-31.574 18.218"/><path data-name="線 125956" d="M634.366 1523.125l-31.574 18.218"/><path data-name="線 125957" d="M639.622 1517.476l-42.085-24.283"/><path data-name="線 125958" d="M639.621 1520.301l-46.529-27.108"/><path data-name="線 125959" d="M594.712 1494.813l.81-.416"/><path data-name="線 125960" d="M593.092 1544.584l-42.085-24.283"/><path data-name="線 125961" d="M597.536 1544.584l-46.529-27.108"/><path data-name="線 125962" d="M606.449 1494.397l-3.657 2.036"/><path data-name="線 125963" d="M604.018 1493.193l-3.241 2.014"/><path data-name="線 125964" d="M598.763 1496.434l-3.241 2.014"/><path data-name="線 125965" d="M594.712 1494.813l-2.43 1.62"/><path data-name="線 125966" d="M593.092 1493.193l-3.241 2.014"/><path data-name="線 125967" d="M639.622 1520.301l-3.241 1.62"/><path data-name="線 125968" d="M637.607 1518.68l-3.241 2.036"/><path data-name="線 125969" d="M632.352 1515.856l-3.241 1.62"/><path data-name="線 125970" d="M639.622 1513.819l-3.241 2.036"/><path data-name="線 125971" d="M634.366 1517.06l-3.241 1.62"/><path data-name="線 125972" d="M637.607 1512.615l-3.241 2.014"/><path data-name="線 125973" d="M600.778 1542.547l-3.241 2.036"/><path data-name="線 125974" d="M598.763 1541.343l-3.241 2.014"/><path data-name="線 125975" d="M593.092 1538.102l-3.241 2.036"/><path data-name="線 125976" d="M595.523 1539.328l-3.241 2.014"/><path data-name="線 125977" d="M589.851 1542.547l-3.241 2.036"/><path data-name="線 125978" d="M587.837 1541.343l-3.241 2.014"/><path data-name="線 125979" d="M554.248 1521.921l-3.241 2.014"/><path data-name="線 125980" d="M556.679 1523.125l-3.241 2.036"/><path data-name="線 125981" d="M561.934 1520.301l-3.241 1.62"/><path data-name="線 125982" d="M559.919 1518.68l-3.241 2.036"/><path data-name="線 125983" d="M589.851 1497.638l-31.158 18.218"/><path data-name="線 125984" d="M556.679 1517.06l-3.241 1.62"/><path data-name="線 125985" d="M587.836 1496.434l-31.158 18.196"/><path data-name="線 125986" d="M554.248 1515.856l-3.241 1.62"/><path data-name="線 125987" d="M600.778 1497.638l-3.241 2.036"/><path data-name="線 125988" d="M582.56 1493.193l-9.7 5.671"/><path data-name="線 125989" d="M560.729 1505.74l-9.722 5.649"/><path data-name="線 125990" d="M584.596 1494.397l-9.722 5.671"/><path data-name="線 125991" d="M563.138 1506.944l-9.7 5.671"/><path data-name="線 125992" d="M593.092 1499.674l-9.722 5.649"/><path data-name="線 125993" d="M571.655 1511.805l-9.722 5.671"/><path data-name="線 125994" d="M595.522 1500.879l-9.722 5.671"/><path data-name="線 125995" d="M626.681 1518.68l-9.722 5.671"/><path data-name="線 125996" d="M605.222 1531.227l-9.7 5.671"/><path data-name="線 125997" d="M629.111 1520.301l-10.116 5.255"/><path data-name="線 125998" d="M607.259 1532.431l-9.722 5.671"/><path data-name="線 125999" d="M637.607 1525.162l-9.722 5.671"/><path data-name="線 126000" d="M616.148 1537.708l-9.7 5.649"/><path data-name="線 126001" d="M639.621 1526.366l-9.7 5.671"/><path data-name="線 126002" d="M618.185 1538.912l-9.722 5.671"/><path data-name="線 126003" d="M604.018 1544.583l-20.648-12.152"/><path data-name="線 126004" d="M608.463 1544.584l-22.663-13.357"/><path data-name="線 126005" d="M586.61 1544.583l-11.736-6.875"/><path data-name="線 126006" d="M563.138 1530.832l-12.131-6.897"/><path data-name="線 126007" d="M582.56 1544.583l-9.7-5.671"/><path data-name="線 126008" d="M560.729 1532.037l-9.722-5.671"/><path data-name="線 126009" d="M639.621 1523.936l-20.626-12.131"/><path data-name="線 126010" d="M607.258 1505.324l-20.648-12.131"/><path data-name="線 126011" d="M639.622 1526.366l-22.663-12.941"/><path data-name="線 126012" d="M605.223 1506.55l-22.663-13.357"/><path data-name="線 126013" d="M574.874 1500.068l-2.014-1.204"/><path data-name="線 126014" d="M563.138 1506.944l-2.409-1.204"/><path data-name="線 126015" d="M574.874 1537.708l-2.014 1.204"/><path data-name="線 126016" d="M563.138 1530.833l-2.409 1.204"/><path data-name="線 126017" d="M639.621 1513.819l-11.736-6.875"/><path data-name="線 126018" d="M616.149 1500.068l-12.131-6.875"/><path data-name="線 126019" d="M618.185 1498.864l-9.722-5.671"/><path data-name="線 126020" d="M629.921 1505.74l-2.036 1.204"/><path data-name="線 126021" d="M618.184 1498.864l-2.036 1.204"/><path data-name="線 126022" d="M618.184 1538.912l-2.036-1.204"/><path data-name="線 126023" d="M629.921 1532.037l-2.036-1.204"/><path data-name="線 126024" d="M584.596 1506.944l-20.648 11.736"/><path data-name="線 126025" d="M571.655 1511.805l11.714-6.481"/><path data-name="線 126026" d="M585.8 1506.55l-1.204.394"/><path data-name="線 126027" d="M573.67 1524.351l12.131 6.875"/><path data-name="線 126028" d="M571.655 1525.556l11.714 6.875"/><path data-name="線 126029" d="M605.222 1531.226l11.736-6.875"/><path data-name="線 126030" d="M607.259 1532.431l11.736-6.875"/><path data-name="線 126031" d="M616.958 1513.425l-11.736-6.875"/><path data-name="線 126032" d="M607.259 1505.324l11.736 6.481"/><path data-name="線 126033" d="M639.621 1339.832h-60.28"/><path data-name="線 126034" d="M639.621 1544.583v-204.751"/><path data-name="線 126035" d="M462.393 1510.184v-56.251"/><path data-name="線 126036" d="M639.621 1544.584H462.393"/></g></g></svg>