<svg xmlns="http://www.w3.org/2000/svg" width="200" height="230"><defs><clipPath id="a"><path data-name="長方形 180" transform="translate(450 1327)" fill="#ccc" d="M0 0h200v230H0z"/></clipPath></defs><g data-name="マスクグループ 570" transform="translate(-450 -1327)" clip-path="url(#a)"><g data-name="グループ 3438" fill="none" stroke="#c49535" stroke-linecap="round" stroke-linejoin="round" stroke-width="1.321"><path data-name="線 114916" d="M512.773 1393.58l-50.854-29.28"/><path data-name="線 114917" d="M503.417 1390.739l-41.498 23.6"/><path data-name="線 114918" d="M461.919 1544.93v-23.996"/><path data-name="線 114919" d="M506.675 1495.287l43.127 25.229"/><path data-name="線 114920" d="M578.266 1339.071h-74.85"/><path data-name="線 114921" d="M504.627 1340.7l.815-.418"/><path data-name="線 114922" d="M549.801 1363.485l-42.312-24.414"/><path data-name="線 114923" d="M549.801 1365.929l-46.385-26.858"/><path data-name="線 114924" d="M549.801 1365.929l-42.312 24.811"/><path data-name="線 114925" d="M505.442 1391.95l-42.312 24.414"/><path data-name="線 114926" d="M461.919 1441.989v-23.996"/><path data-name="線 114927" d="M461.919 1414.339v-23.6"/><path data-name="線 114928" d="M504.628 1340.7l-41.498 23.996"/><path data-name="線 114929" d="M461.919 1390.739v-23.996"/><path data-name="線 114930" d="M549.801 1466.403l-42.312-24.414"/><path data-name="線 114931" d="M549.801 1468.847l-46.385-26.858"/><path data-name="線 114932" d="M547.754 1467.636l-41.498 23.996"/><path data-name="線 114933" d="M547.754 1519.305l-42.312 24.392"/><path data-name="線 114934" d="M507.489 1493.658l42.312 24.414"/><path data-name="線 114935" d="M505.442 1494.891l-42.312 24.414"/><path data-name="線 114936" d="M461.919 1517.258v-23.6"/><path data-name="線 114937" d="M461.919 1493.658v-23.996"/><path data-name="線 114938" d="M461.919 1466.007v-24.018"/><path data-name="線 114939" d="M638.08 1390.739v-23.996"/><path data-name="線 114940" d="M638.08 1414.339v-23.6"/><path data-name="線 114941" d="M638.08 1441.989v-23.996"/><path data-name="線 114942" d="M636.847 1416.364l-42.312 24.414"/><path data-name="線 114943" d="M592.509 1441.989l-42.708-24.392"/><path data-name="線 114944" d="M593.721 1340.7l-41.476 23.996"/><path data-name="線 114945" d="M592.509 1339.071l-42.708 24.414"/><path data-name="線 114946" d="M638.08 1493.658v-23.996"/><path data-name="線 114947" d="M638.08 1517.258v-23.6"/><path data-name="線 114948" d="M638.08 1544.93v-23.996"/><path data-name="線 114949" d="M636.847 1519.305l-42.312 24.392"/><path data-name="線 114950" d="M592.509 1544.93l-42.708-24.414"/><path data-name="線 114951" d="M596.582 1544.93l-46.781-26.858"/><path data-name="線 114952" d="M592.509 1441.989l-42.708 24.414"/><path data-name="線 114953" d="M638.08 1466.007v-24.018"/><path data-name="線 114954" d="M649.065 1555.915v-227.83"/><path data-name="線 114955" d="M461.919 1533.527v-194.456"/><path data-name="線 114956" d="M638.08 1533.527v-194.456"/><path data-name="線 114957" d="M503.417 1339.071l-41.498 23.996"/><path data-name="線 114958" d="M507.489 1441.99l-45.57-26.44"/><path data-name="線 114959" d="M503.417 1441.989l-41.498-23.996"/><path data-name="線 114960" d="M503.417 1441.989l-41.498 24.018"/><path data-name="線 114961" d="M507.489 1544.93l-45.57-26.44"/><path data-name="線 114962" d="M503.417 1544.93l-41.498-23.996"/><path data-name="線 114963" d="M595.768 1495.287l42.312 24.414"/><path data-name="線 114964" d="M638.08 1520.934l-41.498 23.996"/><path data-name="線 114965" d="M638.08 1466.007l-41.498-24.018"/><path data-name="線 114966" d="M638.08 1468.451l-45.57-26.462"/><path data-name="線 114967" d="M638.08 1417.993l-41.498 23.996"/><path data-name="線 114968" d="M638.08 1363.067l-41.498-23.996"/><path data-name="線 114969" d="M638.08 1365.511l-45.57-26.44"/><path data-name="線 114970" d="M481.842 1544.93v-12.218"/><path data-name="線 114971" d="M484.286 1544.93v-10.985"/><path data-name="線 114972" d="M481.842 1530.291v-21.971"/><path data-name="線 114973" d="M484.286 1531.501v-24.414"/><path data-name="線 114974" d="M481.842 1505.876v-24.833"/><path data-name="線 114975" d="M484.286 1504.643v-21.971"/><path data-name="線 114976" d="M481.842 1478.622v-21.971"/><path data-name="線 114977" d="M484.286 1479.832v-24.414"/><path data-name="線 114978" d="M481.842 1454.207v-24.414"/><path data-name="線 114979" d="M484.286 1452.975v-21.971"/><path data-name="線 114980" d="M481.842 1427.35v-21.971"/><path data-name="線 114981" d="M484.286 1428.582v-24.414"/><path data-name="線 114982" d="M481.842 1402.935v-24.392"/><path data-name="線 114983" d="M484.286 1401.725v-21.971"/><path data-name="線 114984" d="M481.842 1375.682v-21.971"/><path data-name="線 114985" d="M484.286 1376.914V1352.5"/><path data-name="線 114986" d="M481.842 1351.267v-12.196"/><path data-name="線 114987" d="M484.286 1350.056v-10.985"/><path data-name="線 114988" d="M526.598 1530.291v-21.971"/><path data-name="線 114989" d="M528.645 1504.643v-21.971"/><path data-name="線 114990" d="M526.598 1478.622v-21.971"/><path data-name="線 114991" d="M528.645 1452.975v-21.971"/><path data-name="線 114992" d="M526.598 1427.35v-21.971"/><path data-name="線 114993" d="M528.645 1401.725v-21.971"/><path data-name="線 114994" d="M526.598 1375.682v-21.971"/><path data-name="線 114995" d="M571.354 1544.93v-12.218"/><path data-name="線 114996" d="M573.379 1544.93v-10.985"/><path data-name="線 114997" d="M571.354 1530.291v-21.971"/><path data-name="線 114998" d="M573.379 1531.501v-24.414"/><path data-name="線 114999" d="M571.354 1505.876v-24.833"/><path data-name="線 115000" d="M573.379 1504.643v-21.971"/><path data-name="線 115001" d="M571.354 1478.622v-21.971"/><path data-name="線 115002" d="M573.379 1479.832v-24.414"/><path data-name="線 115003" d="M571.354 1454.207v-24.414"/><path data-name="線 115004" d="M573.379 1452.975v-21.971"/><path data-name="線 115005" d="M571.354 1427.35v-21.971"/><path data-name="線 115006" d="M573.379 1428.582v-24.414"/><path data-name="線 115007" d="M571.354 1402.935v-24.392"/><path data-name="線 115008" d="M573.379 1401.725v-21.971"/><path data-name="線 115009" d="M571.354 1375.682v-21.971"/><path data-name="線 115010" d="M573.379 1376.914V1352.5"/><path data-name="線 115011" d="M571.354 1351.267v-12.196"/><path data-name="線 115012" d="M573.379 1350.056v-10.985"/><path data-name="線 115013" d="M617.739 1544.93v-10.985"/><path data-name="線 115014" d="M615.691 1530.291v-21.971"/><path data-name="線 115015" d="M617.739 1504.643v-21.971"/><path data-name="線 115016" d="M615.691 1478.622v-21.971"/><path data-name="線 115017" d="M617.739 1452.975v-21.971"/><path data-name="線 115018" d="M615.691 1427.35v-21.971"/><path data-name="線 115019" d="M617.739 1401.725v-21.971"/><path data-name="線 115020" d="M615.691 1375.682v-21.971"/><path data-name="線 115021" d="M526.598 1350.056v-10.985"/><path data-name="線 115022" d="M528.645 1351.267v-12.196"/><path data-name="線 115023" d="M526.598 1376.914V1352.5"/><path data-name="線 115024" d="M528.645 1375.682v-21.971"/><path data-name="線 115025" d="M528.645 1375.682v-21.971"/><path data-name="線 115026" d="M526.598 1401.725v-21.971"/><path data-name="線 115027" d="M528.645 1402.935v-24.392"/><path data-name="線 115028" d="M526.598 1401.725v-21.971"/><path data-name="線 115029" d="M526.598 1428.582v-24.414"/><path data-name="線 115030" d="M528.645 1427.35v-21.971"/><path data-name="線 115031" d="M528.645 1427.35v-21.971"/><path data-name="線 115032" d="M526.598 1452.975v-21.971"/><path data-name="線 115033" d="M526.598 1452.975v-21.971"/><path data-name="線 115034" d="M528.645 1454.207v-24.414"/><path data-name="線 115035" d="M526.598 1479.832v-24.414"/><path data-name="線 115036" d="M528.645 1478.622v-21.971"/><path data-name="線 115037" d="M528.645 1478.622v-21.971"/><path data-name="線 115038" d="M526.598 1504.643v-21.971"/><path data-name="線 115039" d="M526.598 1504.643v-21.971"/><path data-name="線 115040" d="M528.645 1513.604v-5.284"/><path data-name="線 115041" d="M528.645 1505.876v-24.833"/><path data-name="線 115042" d="M526.598 1537.599v-3.654"/><path data-name="線 115043" d="M526.598 1531.501v-24.414"/><path data-name="線 115044" d="M526.598 1544.93v-10.985"/><path data-name="線 115045" d="M528.645 1544.93v-12.218"/><path data-name="線 115046" d="M528.645 1530.29v-3.676"/><path data-name="線 115047" d="M528.645 1530.291v-21.971"/><path data-name="線 115048" d="M615.691 1544.93v-10.985"/><path data-name="線 115049" d="M617.739 1538.018v-5.306"/><path data-name="線 115050" d="M615.691 1531.501v-24.414"/><path data-name="線 115051" d="M617.739 1530.291v-21.971"/><path data-name="線 115052" d="M617.739 1530.291v-21.971"/><path data-name="線 115053" d="M615.691 1504.643v-21.971"/><path data-name="線 115054" d="M617.739 1505.876v-24.833"/><path data-name="線 115055" d="M615.691 1504.643v-21.971"/><path data-name="線 115056" d="M615.691 1479.832v-24.414"/><path data-name="線 115057" d="M617.739 1478.622v-21.971"/><path data-name="線 115058" d="M617.739 1478.622v-21.971"/><path data-name="線 115059" d="M615.691 1452.975v-21.971"/><path data-name="線 115060" d="M615.691 1452.975v-21.971"/><path data-name="線 115061" d="M617.739 1454.207v-24.414"/><path data-name="線 115062" d="M615.691 1428.582v-24.414"/><path data-name="線 115063" d="M617.739 1427.35v-21.971"/><path data-name="線 115064" d="M617.739 1427.35v-21.971"/><path data-name="線 115065" d="M615.691 1401.725v-21.971"/><path data-name="線 115066" d="M615.691 1401.725v-21.971"/><path data-name="線 115067" d="M617.739 1402.935v-24.392"/><path data-name="線 115068" d="M615.691 1350.056v-10.985"/><path data-name="線 115069" d="M615.691 1376.914V1352.5"/><path data-name="線 115070" d="M615.691 1350.056v-2.84"/><path data-name="線 115071" d="M617.739 1375.682v-21.971"/><path data-name="線 115072" d="M617.739 1351.267v-12.196"/><path data-name="線 115073" d="M617.739 1375.682v-21.971"/><path data-name="線 115074" d="M638.08 1339.071H461.919"/><path data-name="線 115075" d="M638.08 1544.93H503.416"/><path data-name="線 115076" d="M503.417 1544.93h-41.498"/><path data-name="線 115077" d="M503.417 1555.915h-41.498"/><path data-name="線 115078" d="M649.065 1544.93v-23.996"/><path data-name="線 115079" d="M510.329 1497.731l-48.41-28.069"/><path data-name="線 115080" d="M507.886 1493.658l-45.967-26.44"/><path data-name="線 115081" d="M549.802 1468.847l-48.829 28.487"/><path data-name="線 115082" d="M507.071 1491.214l-45.152 26.043"/><path data-name="線 115083" d="M596.164 1495.705l-46.363-26.858"/><path data-name="線 115084" d="M601.469 1496.102l-51.668-29.698"/><path data-name="線 115085" d="M600.655 1439.964l-48.41 27.672"/><path data-name="線 115086" d="M590.484 1389.506l47.596 27.276"/><path data-name="線 115087" d="M599.026 1391.95l-49.225-28.465"/><path data-name="線 115088" d="M502.602 1389.925l47.199 27.672"/><path data-name="線 115089" d="M503.417 1390.739l-41.498-23.996"/><path data-name="線 115090" d="M547.754 1364.696l-42.312 24.414"/><path data-name="線 115091" d="M503.416 1390.739l-1.629.815"/><path data-name="線 115092" d="M592.509 1390.74l-42.708-24.811"/><path data-name="線 115093" d="M636.847 1364.696l-42.312 24.414"/><path data-name="線 115094" d="M638.08 1366.743l-22.389 13.011"/><path data-name="線 115095" d="M601.469 1387.899l-4.887 2.84"/><path data-name="線 115096" d="M594.535 1391.95l-42.29 24.414"/><path data-name="線 115097" d="M615.691 1401.724l22.389 12.614"/><path data-name="線 115098" d="M601.47 1387.899l14.221-8.145"/><path data-name="線 115099" d="M599.026 1391.95l16.665 9.775"/><path data-name="線 115100" d="M638.08 1469.662l-22.389 13.011"/><path data-name="線 115101" d="M636.847 1467.636l-42.312 24.392"/><path data-name="線 115102" d="M592.51 1493.658l-4.887 2.444"/><path data-name="線 115103" d="M607.964 1486.745l-11.382 6.913"/><path data-name="線 115104" d="M615.691 1504.643l22.389 12.614"/><path data-name="線 115105" d="M573.379 1504.643l-23.578 13.429"/><path data-name="線 115106" d="M594.535 1494.891l-23.181 13.429"/><path data-name="線 115107" d="M549.801 1520.516l-42.312 24.414"/><path data-name="線 115108" d="M571.354 1508.32l-19.109 10.985"/><path data-name="線 115109" d="M573.379 1504.643l14.243-8.542"/><path data-name="線 115110" d="M607.964 1486.745l7.727-4.073"/><path data-name="線 115111" d="M601.47 1496.101l14.221 8.542"/><path data-name="線 115112" d="M549.801 1417.597l-23.203 13.407"/><path data-name="線 115113" d="M507.489 1390.739l42.312 24.414"/><path data-name="線 115114" d="M552.245 1416.364l5.284 2.862"/><path data-name="線 115115" d="M592.509 1390.739l-42.708 24.414"/><path data-name="線 115116" d="M547.754 1416.364l-22.367 13.033"/><path data-name="線 115117" d="M596.583 1441.99l-25.229-14.64"/><path data-name="線 115118" d="M552.245 1416.364l-2.444-1.211"/><path data-name="線 115119" d="M526.598 1428.582l-21.156 12.196"/><path data-name="線 115120" d="M511.144 1439.964l15.454-8.96"/><path data-name="線 115121" d="M557.528 1419.226l13.825 8.123"/><path data-name="線 115122" d="M511.143 1439.964l-3.654 2.025"/><path data-name="線 115123" d="M505.442 1443.222l-42.312 24.414"/><path data-name="線 115124" d="M649.065 1328.085H450.933"/><path data-name="線 115125" d="M649.065 1555.915H450.933"/><path data-name="線 115126" d="M450.933 1555.915v-227.83"/><path data-name="線 115127" d="M450.933 1328.085l10.985 10.985"/><path data-name="線 115128" d="M450.933 1555.915l10.985-10.985"/><path data-name="線 115129" d="M638.08 1544.93l10.985 10.985"/><path data-name="線 115130" d="M648.867 1328.394l-10.765 10.677"/></g></g></svg>