<svg xmlns="http://www.w3.org/2000/svg" width="200" height="230"><defs><clipPath id="a"><path data-name="長方形 180" transform="translate(450 1327)" fill="#ccc" d="M0 0h200v230H0z"/></clipPath></defs><g data-name="マスクグループ 589" transform="translate(-450 -1327)" clip-path="url(#a)"><g data-name="グループ 3457" fill="none" stroke="#c59535" stroke-linecap="round" stroke-linejoin="round" stroke-width="1.308"><path data-name="線 126037" d="M503.688 1457.103H461.8"/><path data-name="線 126038" d="M638.2 1544.104H461.8"/><path data-name="線 126039" d="M461.8 1544.104v-203.795"/><path data-name="線 126040" d="M649.076 1554.565H450.925"/><path data-name="線 126041" d="M649.076 1554.566v-225.132"/><path data-name="線 126042" d="M450.925 1554.566v-225.132"/><path data-name="線 126043" d="M649.076 1329.434H450.925"/><path data-name="線 126044" d="M638.2 1340.309H461.8"/><path data-name="線 126045" d="M638.2 1544.104v-203.795"/><path data-name="線 126046" d="M503.688 1544.104v-203.795"/><path data-name="線 126047" d="M596.312 1544.104v-203.795"/><path data-name="線 126048" d="M593.501 1544.104v-203.795"/><path data-name="線 126049" d="M506.914 1544.104v-203.795"/><path data-name="線 126050" d="M548.802 1544.104v-203.795"/><path data-name="線 126051" d="M551.613 1544.104v-203.795"/><path data-name="線 126052" d="M503.688 1454.291H461.8"/><path data-name="線 126053" d="M503.688 1498.991H461.8"/><path data-name="線 126054" d="M503.688 1502.216H461.8"/><path data-name="線 126055" d="M548.802 1502.216h-41.888"/><path data-name="線 126056" d="M548.802 1498.991h-41.888"/><path data-name="線 126057" d="M548.802 1457.103h-41.888"/><path data-name="線 126058" d="M548.802 1454.291h-41.888"/><path data-name="線 126059" d="M593.501 1457.103h-41.888"/><path data-name="線 126060" d="M638.2 1457.103h-41.888"/><path data-name="線 126061" d="M593.501 1454.291h-41.888"/><path data-name="線 126062" d="M638.2 1454.291h-41.888"/><path data-name="線 126063" d="M593.501 1502.216h-41.888"/><path data-name="線 126064" d="M638.2 1502.216h-41.888"/><path data-name="線 126065" d="M593.501 1498.991h-41.888"/><path data-name="線 126066" d="M638.2 1498.991h-41.888"/><path data-name="線 126067" d="M461.8 1458.716l40.668 40.275"/><path data-name="線 126068" d="M463.413 1457.103l40.275 40.689"/><path data-name="線 126069" d="M502.467 1457.103l-10.875 10.875"/><path data-name="線 126070" d="M503.688 1458.323l-10.483 10.875"/><path data-name="線 126071" d="M465.026 1458.716l26.175 10.875"/><path data-name="線 126072" d="M465.832 1457.103l25.76 10.875"/><path data-name="線 126073" d="M491.2 1469.591l10.875 26.175"/><path data-name="線 126074" d="M493.205 1469.199l10.483 26.175"/><path data-name="線 126075" d="M462.999 1498.991l10.875-10.461"/><path data-name="線 126076" d="M461.8 1497.792l10.875-10.875"/><path data-name="線 126077" d="M500.463 1497.378l-26.175-10.875"/><path data-name="線 126078" d="M500.07 1498.991l-26.196-10.461"/><path data-name="線 126079" d="M474.288 1486.503l-10.875-26.175"/><path data-name="線 126080" d="M472.675 1486.917l-10.875-25.782"/><path data-name="線 126081" d="M462.999 1498.991H461.8"/><path data-name="線 126082" d="M506.914 1503.415l40.275 40.689"/><path data-name="線 126083" d="M508.112 1502.216l40.689 40.275"/><path data-name="線 126084" d="M547.189 1502.216l-10.483 10.461"/><path data-name="線 126085" d="M548.801 1503.415l-10.875 10.875"/><path data-name="線 126086" d="M510.139 1503.829l26.175 10.875"/><path data-name="線 126087" d="M510.531 1502.216l26.175 10.461"/><path data-name="線 126088" d="M536.314 1514.704l10.461 26.175"/><path data-name="線 126089" d="M537.926 1514.29l10.875 25.782"/><path data-name="線 126090" d="M508.112 1544.104l10.483-10.875"/><path data-name="線 126091" d="M506.914 1542.492l10.461-10.483"/><path data-name="線 126092" d="M545.576 1542.491l-26.175-10.875"/><path data-name="線 126093" d="M544.77 1544.104l-26.175-10.875"/><path data-name="線 126094" d="M519.401 1531.617l-10.875-26.175"/><path data-name="線 126095" d="M517.375 1532.009l-10.461-26.175"/><path data-name="線 126096" d="M508.113 1544.104h-1.199"/><path data-name="線 126097" d="M510.532 1502.216h-3.618"/><path data-name="線 126098" d="M548.802 1502.216h-1.613"/><path data-name="線 126099" d="M551.613 1458.716l40.275 40.275"/><path data-name="線 126100" d="M553.226 1457.103l40.275 40.689"/><path data-name="線 126101" d="M592.28 1457.103l-10.853 10.875"/><path data-name="線 126102" d="M593.501 1458.323l-10.875 10.875"/><path data-name="線 126103" d="M554.838 1458.716l26.175 10.875"/><path data-name="線 126104" d="M555.645 1457.103l25.782 10.875"/><path data-name="線 126105" d="M581.013 1469.591l10.875 26.175"/><path data-name="線 126106" d="M582.626 1469.199l10.875 26.175"/><path data-name="線 126107" d="M552.812 1498.991l10.875-10.461"/><path data-name="線 126108" d="M551.613 1497.792l10.875-10.875"/><path data-name="線 126109" d="M590.276 1497.378l-26.175-10.875"/><path data-name="線 126110" d="M589.469 1498.991l-25.782-10.461"/><path data-name="線 126111" d="M564.101 1486.503l-10.875-26.175"/><path data-name="線 126112" d="M562.488 1486.917l-10.875-25.782"/><path data-name="線 126113" d="M552.812 1498.991h-1.199"/><path data-name="線 126114" d="M555.645 1457.103h-4.032"/><path data-name="線 126115" d="M593.5 1457.103h-1.22"/><path data-name="線 126116" d="M596.312 1503.415l40.689 40.689"/><path data-name="線 126117" d="M597.925 1502.216l40.275 40.275"/><path data-name="線 126118" d="M637.001 1502.216l-10.875 10.461"/><path data-name="線 126119" d="M638.2 1503.415l-10.461 10.875"/><path data-name="線 126120" d="M599.538 1503.829l26.175 10.875"/><path data-name="線 126121" d="M600.344 1502.216l25.782 10.461"/><path data-name="線 126122" d="M625.712 1514.704l10.875 26.175"/><path data-name="線 126123" d="M627.739 1514.29l10.461 25.782"/><path data-name="線 126124" d="M597.533 1544.104l10.875-10.875"/><path data-name="線 126125" d="M596.312 1542.492l10.875-10.483"/><path data-name="線 126126" d="M634.975 1542.491l-26.175-10.875"/><path data-name="線 126127" d="M634.583 1544.104l-26.175-10.875"/><path data-name="線 126128" d="M608.8 1531.617l-10.875-26.175"/><path data-name="線 126129" d="M607.187 1532.009l-10.875-26.175"/><path data-name="線 126130" d="M597.532 1544.104h-1.22"/><path data-name="線 126131" d="M600.344 1502.216h-4.032"/><path data-name="線 126132" d="M638.201 1502.216h-1.199"/><path data-name="線 126133" d="M463.413 1544.104l40.275-40.689"/><path data-name="線 126134" d="M461.8 1542.491l40.668-40.275"/><path data-name="線 126135" d="M461.8 1503.415l10.875 10.875"/><path data-name="線 126136" d="M462.999 1502.216l10.875 10.461"/><path data-name="線 126137" d="M463.413 1540.879l10.875-26.175"/><path data-name="線 126138" d="M461.8 1540.072l10.875-25.782"/><path data-name="線 126139" d="M474.288 1514.704l26.175-10.875"/><path data-name="線 126140" d="M473.874 1512.677l26.196-10.461"/><path data-name="線 126141" d="M503.688 1542.492l-10.483-10.483"/><path data-name="線 126142" d="M502.467 1544.104l-10.875-10.875"/><path data-name="線 126143" d="M502.075 1505.442l-10.875 26.175"/><path data-name="線 126144" d="M503.688 1505.834l-10.483 26.175"/><path data-name="線 126145" d="M491.201 1531.616l-26.175 10.875"/><path data-name="線 126146" d="M491.592 1533.229l-25.76 10.875"/><path data-name="線 126147" d="M503.688 1544.105v-1.613"/><path data-name="線 126148" d="M461.8 1544.104v-4.032"/><path data-name="線 126149" d="M461.8 1503.415v-1.199"/><path data-name="線 126150" d="M508.112 1498.991l40.689-40.275"/><path data-name="線 126151" d="M506.914 1497.792l40.275-40.689"/><path data-name="線 126152" d="M506.914 1458.323l10.461 10.875"/><path data-name="線 126153" d="M508.112 1457.103l10.483 10.875"/><path data-name="線 126154" d="M508.526 1495.766l10.875-26.175"/><path data-name="線 126155" d="M506.914 1495.374l10.461-26.175"/><path data-name="線 126156" d="M519.401 1469.591l26.175-10.875"/><path data-name="線 126157" d="M518.595 1467.978l26.175-10.875"/><path data-name="線 126158" d="M548.801 1497.792l-10.875-10.875"/><path data-name="線 126159" d="M547.189 1498.991l-10.483-10.461"/><path data-name="線 126160" d="M546.775 1460.328l-10.461 26.175"/><path data-name="線 126161" d="M548.801 1461.135l-10.875 25.782"/><path data-name="線 126162" d="M536.314 1486.503l-26.175 10.875"/><path data-name="線 126163" d="M536.706 1488.53l-26.175 10.461"/><path data-name="線 126164" d="M548.802 1498.991v-1.199"/><path data-name="線 126165" d="M506.914 1498.991v-3.618"/><path data-name="線 126166" d="M506.914 1458.323v-1.22"/><path data-name="線 126167" d="M553.226 1544.104l40.275-40.689"/><path data-name="線 126168" d="M551.613 1542.491l40.275-40.275"/><path data-name="線 126169" d="M551.613 1503.415l10.875 10.875"/><path data-name="線 126170" d="M552.812 1502.216l10.875 10.461"/><path data-name="線 126171" d="M553.226 1540.879l10.875-26.175"/><path data-name="線 126172" d="M551.613 1540.072l10.875-25.782"/><path data-name="線 126173" d="M564.101 1514.704l26.175-10.875"/><path data-name="線 126174" d="M563.687 1512.677l25.782-10.461"/><path data-name="線 126175" d="M593.501 1542.492l-10.875-10.483"/><path data-name="線 126176" d="M592.28 1544.104l-10.853-10.875"/><path data-name="線 126177" d="M591.888 1505.442l-10.875 26.175"/><path data-name="線 126178" d="M593.501 1505.834l-10.875 26.175"/><path data-name="線 126179" d="M581.013 1531.616l-26.175 10.875"/><path data-name="線 126180" d="M581.427 1533.229l-25.782 10.875"/><path data-name="線 126181" d="M593.501 1544.105v-1.613"/><path data-name="線 126182" d="M551.613 1544.104v-4.032"/><path data-name="線 126183" d="M551.613 1503.415v-1.199"/><path data-name="線 126184" d="M597.925 1498.991l40.275-40.275"/><path data-name="線 126185" d="M596.312 1497.792l40.689-40.689"/><path data-name="線 126186" d="M596.312 1458.323l10.875 10.875"/><path data-name="線 126187" d="M597.533 1457.103l10.875 10.875"/><path data-name="線 126188" d="M597.925 1495.766l10.875-26.175"/><path data-name="線 126189" d="M596.312 1495.374l10.875-26.175"/><path data-name="線 126190" d="M608.8 1469.591l26.175-10.875"/><path data-name="線 126191" d="M608.408 1467.978l26.175-10.875"/><path data-name="線 126192" d="M638.2 1497.792l-10.461-10.875"/><path data-name="線 126193" d="M637.001 1498.991l-10.875-10.461"/><path data-name="線 126194" d="M636.587 1460.328l-10.875 26.175"/><path data-name="線 126195" d="M638.2 1461.135l-10.461 25.782"/><path data-name="線 126196" d="M625.713 1486.503l-26.175 10.875"/><path data-name="線 126197" d="M626.126 1488.53l-25.782 10.461"/><path data-name="線 126198" d="M638.2 1498.991v-1.199"/><path data-name="線 126199" d="M596.312 1498.991v-3.618"/><path data-name="線 126200" d="M596.312 1458.323v-1.22"/><path data-name="線 126201" d="M503.688 1446.642H461.8"/><path data-name="線 126202" d="M503.688 1443.809H461.8"/><path data-name="線 126203" d="M481.524 1443.809v-103.5"/><path data-name="線 126204" d="M484.357 1443.809v-103.5"/><path data-name="線 126205" d="M481.524 1436.159H461.8"/><path data-name="線 126206" d="M503.688 1436.159h-19.331"/><path data-name="線 126207" d="M481.524 1433.347H461.8"/><path data-name="線 126208" d="M503.688 1433.347h-19.331"/><path data-name="線 126209" d="M548.802 1446.642h-41.888"/><path data-name="線 126210" d="M548.802 1443.809h-41.888"/><path data-name="線 126211" d="M526.245 1443.809v-103.5"/><path data-name="線 126212" d="M529.056 1443.809v-103.5"/><path data-name="線 126213" d="M526.245 1436.159h-19.331"/><path data-name="線 126214" d="M548.801 1436.159h-19.745"/><path data-name="線 126215" d="M526.245 1433.347h-19.331"/><path data-name="線 126216" d="M548.801 1433.347h-19.745"/><path data-name="線 126217" d="M593.501 1446.642h-41.888"/><path data-name="線 126218" d="M593.501 1443.809h-41.888"/><path data-name="線 126219" d="M570.944 1443.809v-103.5"/><path data-name="線 126220" d="M574.17 1443.809v-103.5"/><path data-name="線 126221" d="M570.944 1436.159h-19.331"/><path data-name="線 126222" d="M593.501 1436.159H574.17"/><path data-name="線 126223" d="M570.944 1433.347h-19.331"/><path data-name="線 126224" d="M593.501 1433.347H574.17"/><path data-name="線 126225" d="M638.2 1446.642h-41.888"/><path data-name="線 126226" d="M638.2 1443.809h-41.888"/><path data-name="線 126227" d="M616.058 1443.809v-103.5"/><path data-name="線 126228" d="M618.869 1443.809v-103.5"/><path data-name="線 126229" d="M616.057 1436.159h-19.745"/><path data-name="線 126230" d="M638.2 1436.159h-19.331"/><path data-name="線 126231" d="M616.057 1433.347h-19.745"/><path data-name="線 126232" d="M638.2 1433.347h-19.331"/><path data-name="線 126233" d="M461.8 1340.309l-10.875-10.875"/><path data-name="線 126234" d="M638.2 1340.309l10.875-10.875"/><path data-name="線 126235" d="M461.8 1544.104l-10.875 10.461"/><path data-name="線 126236" d="M638.2 1544.104l10.875 10.461"/><path data-name="線 126237" d="M472.675 1514.29l1.613.414"/><path data-name="線 126238" d="M474.288 1514.704l-.414-2.027"/><path data-name="線 126239" d="M536.706 1488.53l-.392-2.027"/><path data-name="線 126240" d="M536.314 1486.503l1.613.414"/><path data-name="線 126241" d="M626.126 1488.53l-.414-2.027"/><path data-name="線 126242" d="M625.712 1486.503l2.027.414"/><path data-name="線 126243" d="M581.427 1533.229l-.414-1.613"/><path data-name="線 126244" d="M581.013 1531.616l1.613.392"/><path data-name="線 126245" d="M518.595 1467.978l.806 1.613"/><path data-name="線 126246" d="M519.402 1469.591l-2.027-.392"/><path data-name="線 126247" d="M563.687 1512.677l.414 2.027"/><path data-name="線 126248" d="M564.101 1514.704l-1.613-.414"/><path data-name="線 126249" d="M608.408 1467.978l.392 1.613"/><path data-name="線 126250" d="M608.801 1469.591l-1.613-.392"/><path data-name="線 126251" d="M472.675 1486.917l1.613-.414"/><path data-name="線 126252" d="M474.288 1486.503l-.414 2.027"/><path data-name="線 126253" d="M517.375 1532.008l2.027-.392"/><path data-name="線 126254" d="M519.401 1531.616l-.806 1.613"/><path data-name="線 126255" d="M607.188 1532.008l1.613-.392"/><path data-name="線 126256" d="M608.8 1531.616l-.392 1.613"/><path data-name="線 126257" d="M562.488 1486.917l1.613-.414"/><path data-name="線 126258" d="M564.101 1486.503l-.414 2.027"/><path data-name="線 126259" d="M493.205 1469.199l-2.005.392"/><path data-name="線 126260" d="M491.2 1469.591l.392-1.613"/><path data-name="線 126261" d="M582.626 1469.199l-1.613.392"/><path data-name="線 126262" d="M581.013 1469.591l.414-1.613"/><path data-name="線 126263" d="M627.739 1514.29l-2.027.414"/><path data-name="線 126264" d="M625.712 1514.704l.414-2.027"/><path data-name="線 126265" d="M537.927 1514.29l-1.613.414"/><path data-name="線 126266" d="M536.314 1514.704l.392-2.027"/></g></g></svg>