<svg xmlns="http://www.w3.org/2000/svg" width="200" height="230"><defs><clipPath id="a"><path data-name="長方形 180" transform="translate(450 1327)" fill="#ccc" d="M0 0h200v230H0z"/></clipPath></defs><g data-name="マスクグループ 572" transform="translate(-450 -1327)" clip-path="url(#a)"><g data-name="グループ 3440" fill="none" stroke="#c49535" stroke-linecap="round" stroke-linejoin="round" stroke-width="1.31"><path data-name="線 115580" d="M637.369 1518.278l-41.971 24.61"/><path data-name="線 115581" d="M548.994 1365.723l-41.578 23.824"/><path data-name="線 115582" d="M505.8 1389.548v-47.627"/><path data-name="線 115583" d="M638.177 1538.04v-197.735"/><path data-name="線 115584" d="M463.829 1544.089v-23.802"/><path data-name="線 115585" d="M579.26 1340.305h-74.661"/><path data-name="線 115586" d="M506.215 1341.921l.808-.415"/><path data-name="線 115587" d="M551.003 1364.522l-41.971-24.217"/><path data-name="線 115588" d="M551.003 1366.946l-46.404-26.641"/><path data-name="線 115589" d="M551.003 1418.198l-41.971 24.196"/><path data-name="線 115590" d="M548.994 1416.582l-41.971 24.61"/><path data-name="線 115591" d="M509.032 1391.142l41.971 24.217"/><path data-name="線 115592" d="M507.831 1393.173l43.172 25.025"/><path data-name="線 115593" d="M551.003 1366.946l-41.971 24.196"/><path data-name="線 115594" d="M505.8 1397.606v-4.433"/><path data-name="線 115595" d="M505.8 1440.385v-47.212"/><path data-name="線 115596" d="M505.8 1391.95l1.223.415"/><path data-name="線 115597" d="M507.023 1392.365l-42.386 24.217"/><path data-name="線 115598" d="M506.215 1341.921l-41.578 23.802"/><path data-name="線 115599" d="M463.829 1391.142v-23.388"/><path data-name="線 115600" d="M549.802 1363.714v-23.409"/><path data-name="線 115601" d="M506.215 1444.009l.808-.393"/><path data-name="線 115602" d="M551.003 1466.218l-41.971-23.824"/><path data-name="線 115603" d="M551.003 1468.642l-46.404-26.248"/><path data-name="線 115604" d="M551.003 1519.894l-41.971 24.196"/><path data-name="線 115605" d="M548.994 1518.278l-41.971 24.61"/><path data-name="線 115606" d="M505.8 1491.221v-47.212"/><path data-name="線 115607" d="M509.032 1492.837l41.971 24.217"/><path data-name="線 115608" d="M507.831 1494.868l43.172 25.025"/><path data-name="線 115609" d="M551.003 1468.642l-41.971 24.196"/><path data-name="線 115610" d="M505.8 1499.301v-4.433"/><path data-name="線 115611" d="M505.8 1542.08v-47.212"/><path data-name="線 115612" d="M505.8 1493.645l1.223.415"/><path data-name="線 115613" d="M507.023 1494.06l-42.386 24.217"/><path data-name="線 115614" d="M506.215 1444.009l-41.578 23.409"/><path data-name="線 115615" d="M594.59 1341.921l.808-.415"/><path data-name="線 115616" d="M638.177 1391.142v-23.388"/><path data-name="線 115617" d="M637.369 1416.582l-41.971 24.61"/><path data-name="線 115618" d="M594.175 1389.548v-47.627"/><path data-name="線 115619" d="M596.206 1389.548v-47.627"/><path data-name="線 115620" d="M592.974 1442.394l-41.971-24.196"/><path data-name="線 115621" d="M592.974 1391.142l-41.971 24.217"/><path data-name="線 115622" d="M597.407 1442.393l-46.404-27.034"/><path data-name="線 115623" d="M595.398 1392.365l-42.386 24.217"/><path data-name="線 115624" d="M594.59 1341.921l-41.578 23.802"/><path data-name="線 115625" d="M592.974 1340.305l-41.971 24.217"/><path data-name="線 115626" d="M637.369 1467.419l-41.578 23.802"/><path data-name="線 115627" d="M638.177 1492.838v-23.388"/><path data-name="線 115628" d="M638.177 1516.661v-23.824"/><path data-name="線 115629" d="M638.177 1544.089v-23.802"/><path data-name="線 115630" d="M594.175 1491.221v-47.212"/><path data-name="線 115631" d="M596.206 1542.08v-47.212"/><path data-name="線 115632" d="M594.175 1499.301v-4.433"/><path data-name="線 115633" d="M594.175 1542.08v-47.212"/><path data-name="線 115634" d="M594.175 1493.645l1.223.415"/><path data-name="線 115635" d="M592.974 1544.09l-41.971-24.196"/><path data-name="線 115636" d="M592.974 1492.837l-41.971 24.217"/><path data-name="線 115637" d="M597.407 1544.089l-46.404-27.034"/><path data-name="線 115638" d="M595.398 1494.06l-42.386 24.217"/><path data-name="線 115639" d="M552.204 1544.089v-23.802"/><path data-name="線 115640" d="M594.59 1444.009l-41.578 23.409"/><path data-name="線 115641" d="M592.974 1442.394l-41.971 23.824"/><path data-name="線 115642" d="M594.175 1493.646l-43.172-25.004"/><path data-name="線 115643" d="M638.177 1465.41v-23.016"/><path data-name="線 115644" d="M649.073 1554.593h-198.15"/><path data-name="線 115645" d="M649.073 1554.593v-225.185"/><path data-name="線 115646" d="M450.923 1554.593v-225.185"/><path data-name="線 115647" d="M649.073 1329.408h-198.15"/><path data-name="線 115648" d="M507.831 1543.281h0"/><path data-name="線 115649" d="M599.831 1540.071l-2.817 1.594"/><path data-name="線 115650" d="M507.023 1491.636l-3.647-2.009"/><path data-name="線 115651" d="M551.003 1517.055l-3.232-2.009"/><path data-name="線 115652" d="M463.829 1531.992v-191.687"/><path data-name="線 115653" d="M504.599 1340.305l-40.77 23.409"/><path data-name="線 115654" d="M507.831 1390.748l-44.002-25.833"/><path data-name="線 115655" d="M505.8 1391.95l-41.971-24.196"/><path data-name="線 115656" d="M504.599 1544.089h-40.77"/><path data-name="線 115657" d="M638.177 1544.089H504.599"/><path data-name="線 115658" d="M597.407 1492.837l40.77 23.824"/><path data-name="線 115659" d="M596.206 1494.868l41.971 24.217"/><path data-name="線 115660" d="M638.177 1520.287l-40.77 23.802"/><path data-name="線 115661" d="M597.407 1391.142l40.77 23.824"/><path data-name="線 115662" d="M596.206 1393.173l41.971 24.217"/><path data-name="線 115663" d="M638.177 1418.591l-40.77 23.802"/><path data-name="線 115664" d="M638.177 1363.714l-40.77-23.409"/><path data-name="線 115665" d="M638.177 1366.531l-45.203-26.226"/><path data-name="線 115666" d="M638.177 1367.754l-40.77 23.388"/><path data-name="線 115667" d="M638.177 1340.305H463.829"/><path data-name="線 115668" d="M450.923 1329.408l12.906 10.897"/><path data-name="線 115669" d="M638.177 1340.305l10.897-10.897"/><path data-name="線 115670" d="M450.923 1554.593l12.906-10.504"/><path data-name="線 115671" d="M638.177 1544.089l10.897 10.504"/><path data-name="線 115672" d="M504.599 1391.142l-40.77 23.824"/><path data-name="線 115673" d="M509.032 1442.393l-45.203-26.226"/><path data-name="線 115674" d="M504.599 1442.393l-40.77-23.802"/><path data-name="線 115675" d="M504.599 1492.837l-40.77 23.824"/><path data-name="線 115676" d="M509.032 1544.089l-45.203-26.226"/><path data-name="線 115677" d="M504.599 1544.089l-40.77-23.802"/><path data-name="線 115678" d="M507.831 1492.444l1.201.393"/><path data-name="線 115679" d="M507.023 1494.06l.808.808"/><path data-name="線 115680" d="M596.206 1499.301v-4.433"/><path data-name="線 115681" d="M596.206 1491.221v-47.212"/><path data-name="線 115682" d="M596.206 1492.444l1.201.393"/><path data-name="線 115683" d="M596.206 1492.444l-.808-.808"/><path data-name="線 115684" d="M594.175 1491.222l-43.172-25.004"/><path data-name="線 115685" d="M595.791 1491.221l-.393.415"/><path data-name="線 115686" d="M595.398 1491.636l-1.223-.415"/><path data-name="線 115687" d="M595.398 1494.06l.808.808"/><path data-name="線 115688" d="M594.175 1444.009l1.223-.393"/><path data-name="線 115689" d="M597.407 1391.141l-46.404-26.619"/><path data-name="線 115690" d="M596.599 1393.172l-45.596-26.226"/><path data-name="線 115691" d="M637.369 1365.723l-41.971 24.217"/><path data-name="線 115692" d="M638.177 1465.41l-40.77-23.016"/><path data-name="線 115693" d="M638.177 1468.227l-45.203-25.833"/><path data-name="線 115694" d="M638.177 1469.45l-40.77 23.388"/><path data-name="線 115695" d="M638.177 1465.41l-2.031-1.223"/><path data-name="線 115696" d="M504.599 1442.394l-40.77 23.016"/><path data-name="線 115697" d="M507.831 1492.444l-44.002-25.833"/><path data-name="線 115698" d="M505.8 1493.646l-41.971-24.196"/><path data-name="線 115699" d="M548.994 1467.419l-41.971 24.217"/><path data-name="線 115700" d="M507.831 1542.08v-47.212"/><path data-name="線 115701" d="M507.831 1491.221v-47.212"/><path data-name="線 115702" d="M507.023 1392.365l.808.808"/><path data-name="線 115703" d="M509.032 1391.142l-1.201-.393"/><path data-name="線 115704" d="M507.416 1389.548l-.393.393"/><path data-name="線 115705" d="M507.831 1440.385v-47.212"/><path data-name="線 115706" d="M507.831 1389.548v-47.627"/><path data-name="線 115707" d="M549.802 1363.715v-10.897"/><path data-name="線 115708" d="M552.204 1363.714v-23.409"/><path data-name="線 115709" d="M549.802 1544.089v-23.802"/><path data-name="線 115710" d="M549.802 1516.662v-47.212"/><path data-name="線 115711" d="M552.204 1540.879v-20.592"/><path data-name="線 115712" d="M552.204 1516.662v-47.212"/><path data-name="線 115713" d="M594.175 1440.385v-47.212"/><path data-name="線 115714" d="M596.206 1440.385v-47.212"/><path data-name="線 115715" d="M549.802 1465.41v-46.819"/><path data-name="線 115716" d="M549.802 1414.966v-47.212"/><path data-name="線 115717" d="M552.204 1414.966v-47.212"/><path data-name="線 115718" d="M552.204 1465.41v-46.819"/><path data-name="線 115719" d="M507.831 1341.921l9.281 34.699"/><path data-name="線 115720" d="M463.829 1412.128l20.986-20.986"/><path data-name="線 115721" d="M463.829 1414.966l22.208-22.601"/><path data-name="線 115722" d="M463.829 1367.754l29.873 29.851"/><path data-name="線 115723" d="M505.8 1440.384l-10.897-40.748"/><path data-name="線 115724" d="M464.637 1416.582l30.681-8.08"/><path data-name="線 115725" d="M467.061 1418.198l28.65-7.687"/><path data-name="線 115726" d="M496.934 1408.109l8.866-2.424"/><path data-name="線 115727" d="M497.742 1409.725l8.058-2.031"/><path data-name="線 115728" d="M503.376 1439.184l-10.089-38.761"/><path data-name="線 115729" d="M507.831 1440.384l10.897-40.748"/><path data-name="線 115730" d="M510.255 1439.184l10.482-38.761"/><path data-name="線 115731" d="M548.994 1416.582l-30.681-8.08"/><path data-name="線 115732" d="M516.697 1408.109l-8.866-2.424"/><path data-name="線 115733" d="M546.569 1418.198l-28.65-7.687"/><path data-name="線 115734" d="M516.304 1409.725l-8.473-2.031"/><path data-name="線 115735" d="M549.801 1367.754l-22.208 22.187"/><path data-name="線 115736" d="M526.393 1391.142l-6.464 6.464"/><path data-name="線 115737" d="M551.417 1368.955l-22.601 22.187"/><path data-name="線 115738" d="M527.593 1392.365l-6.049 6.049"/><path data-name="線 115739" d="M517.112 1376.62l1.616 6.464"/><path data-name="線 115740" d="M549.802 1414.966l-29.873-29.873"/><path data-name="線 115741" d="M520.736 1383.084h0"/><path data-name="線 115742" d="M549.801 1412.127l-28.257-28.235"/><path data-name="線 115743" d="M548.578 1364.107l-30.659 8.08"/><path data-name="線 115744" d="M548.994 1365.723l-30.681 8.08"/><path data-name="線 115745" d="M464.637 1365.723l30.681 8.08"/><path data-name="線 115746" d="M497.742 1372.58l8.058 2.424"/><path data-name="線 115747" d="M516.304 1372.58l-8.473 2.424"/><path data-name="線 115748" d="M496.934 1374.196l8.866 2.424"/><path data-name="線 115749" d="M516.697 1374.196l-8.866 2.424"/><path data-name="線 115750" d="M486.037 1389.941l6.049-6.049"/><path data-name="線 115751" d="M487.238 1391.142l6.464-6.049"/><path data-name="線 115752" d="M505.8 1341.921l-10.897 41.163"/><path data-name="線 115753" d="M467.061 1364.522l28.65 7.665"/><path data-name="線 115754" d="M503.376 1343.537l-10.089 38.739"/><path data-name="線 115755" d="M510.255 1343.537l10.482 38.739"/><path data-name="線 115756" d="M463.829 1370.156l28.257 28.257"/><path data-name="線 115757" d="M506.215 1444.009l.808-.393"/><path data-name="線 115758" d="M507.831 1444.009l9.281 34.306"/><path data-name="線 115759" d="M463.829 1513.823l20.986-20.986"/><path data-name="線 115760" d="M463.829 1516.661l22.208-22.601"/><path data-name="線 115761" d="M463.829 1469.45l29.873 29.851"/><path data-name="線 115762" d="M505.8 1542.08l-10.897-40.77"/><path data-name="線 115763" d="M464.637 1518.278l30.681-8.08"/><path data-name="線 115764" d="M467.061 1519.894l28.65-7.687"/><path data-name="線 115765" d="M496.934 1509.805l8.866-2.424"/><path data-name="線 115766" d="M497.742 1511.399l8.058-2.009"/><path data-name="線 115767" d="M503.376 1540.879l-10.089-38.761"/><path data-name="線 115768" d="M507.831 1542.08l10.897-40.77"/><path data-name="線 115769" d="M510.255 1540.879l10.482-38.761"/><path data-name="線 115770" d="M548.994 1518.278l-30.681-8.08"/><path data-name="線 115771" d="M516.697 1509.805l-8.866-2.424"/><path data-name="線 115772" d="M546.569 1519.894l-28.65-7.687"/><path data-name="線 115773" d="M516.304 1511.399l-8.473-2.009"/><path data-name="線 115774" d="M549.801 1469.45l-22.208 22.187"/><path data-name="線 115775" d="M526.393 1492.837l-6.464 6.464"/><path data-name="線 115776" d="M551.417 1470.651l-22.601 22.187"/><path data-name="線 115777" d="M527.593 1494.06l-6.049 6.049"/><path data-name="線 115778" d="M517.112 1478.316l1.616 6.464"/><path data-name="線 115779" d="M549.802 1516.661l-29.873-29.873"/><path data-name="線 115780" d="M520.736 1484.779h0"/><path data-name="線 115781" d="M549.801 1513.822l-28.257-28.235"/><path data-name="線 115782" d="M548.994 1467.419l-30.681 8.08"/><path data-name="線 115783" d="M464.637 1467.419l30.681 8.08"/><path data-name="線 115784" d="M497.742 1474.276l8.058 2.031"/><path data-name="線 115785" d="M516.304 1474.276l-8.473 2.031"/><path data-name="線 115786" d="M496.934 1475.892l8.866 2.424"/><path data-name="線 115787" d="M516.697 1475.892l-8.866 2.424"/><path data-name="線 115788" d="M486.037 1491.636l6.049-6.049"/><path data-name="線 115789" d="M487.238 1492.837l6.464-6.049"/><path data-name="線 115790" d="M505.8 1444.009l-10.897 40.77"/><path data-name="線 115791" d="M467.061 1466.218l28.65 7.665"/><path data-name="線 115792" d="M503.376 1445.625l-10.089 38.346"/><path data-name="線 115793" d="M510.255 1445.625l10.482 38.346"/><path data-name="線 115794" d="M463.829 1471.852l28.257 28.257"/><path data-name="線 115795" d="M546.569 1466.218l-28.65 7.665"/><path data-name="線 115796" d="M518.728 1501.31l-11.705-7.25"/><path data-name="線 115797" d="M594.59 1392.758l.808-.393"/><path data-name="線 115798" d="M596.206 1393.173l9.281 34.306"/><path data-name="線 115799" d="M552.204 1462.986l20.986-20.592"/><path data-name="線 115800" d="M552.204 1465.409l22.208-21.793"/><path data-name="線 115801" d="M552.204 1418.591l29.873 29.873"/><path data-name="線 115802" d="M594.175 1491.221l-10.897-40.748"/><path data-name="線 115803" d="M553.012 1467.419l30.681-8.058"/><path data-name="線 115804" d="M555.436 1468.642l28.65-7.687"/><path data-name="線 115805" d="M585.702 1459.361l8.473-2.424"/><path data-name="線 115806" d="M586.117 1460.562l8.058-2.009"/><path data-name="線 115807" d="M591.773 1489.627l-10.089-38.346"/><path data-name="線 115808" d="M596.206 1491.221l11.29-40.748"/><path data-name="線 115809" d="M598.63 1489.627l10.482-38.346"/><path data-name="線 115810" d="M637.369 1467.419l-30.681-8.058"/><path data-name="線 115811" d="M605.072 1459.361l-8.866-2.424"/><path data-name="線 115812" d="M634.944 1468.642l-28.65-7.687"/><path data-name="線 115813" d="M604.679 1460.562l-8.473-2.009"/><path data-name="線 115814" d="M638.176 1418.591l-22.208 22.601"/><path data-name="線 115815" d="M614.767 1442.394l-6.464 6.071"/><path data-name="線 115816" d="M639.792 1419.814l-22.601 22.58"/><path data-name="線 115817" d="M615.968 1443.616l-6.049 6.049"/><path data-name="線 115818" d="M605.486 1427.479l2.009 6.442"/><path data-name="線 115819" d="M638.176 1465.41l-29.873-29.458"/><path data-name="線 115820" d="M609.111 1434.336h0"/><path data-name="線 115821" d="M638.176 1462.986l-28.257-27.842"/><path data-name="線 115822" d="M637.369 1416.582l-30.681 8.473"/><path data-name="線 115823" d="M553.012 1416.582l30.681 8.473"/><path data-name="線 115824" d="M586.117 1423.832l8.058 2.031"/><path data-name="線 115825" d="M604.679 1423.832l-8.473 2.031"/><path data-name="線 115826" d="M585.702 1425.448l8.473 2.424"/><path data-name="線 115827" d="M605.072 1425.448l-8.866 2.424"/><path data-name="線 115828" d="M574.412 1441.193l6.049-6.049"/><path data-name="線 115829" d="M575.613 1442.394l6.464-6.442"/><path data-name="線 115830" d="M594.175 1393.173l-10.897 40.748"/><path data-name="線 115831" d="M555.436 1415.359l28.65 7.665"/><path data-name="線 115832" d="M591.773 1394.374l-10.089 38.739"/><path data-name="線 115833" d="M598.63 1394.374l10.482 38.739"/><path data-name="線 115834" d="M552.204 1421.408l28.257 28.257"/><path data-name="線 115835" d="M634.944 1415.359l-28.65 7.665"/><path data-name="線 115836" d="M607.496 1450.473l-12.098-6.857"/><path data-name="線 115837" d="M594.59 1494.453l.808-.393"/><path data-name="線 115838" d="M596.206 1494.868l9.281 34.306"/><path data-name="線 115839" d="M638.176 1520.287l-22.208 22.187"/><path data-name="線 115840" d="M638.177 1523.104l-20.986 20.986"/><path data-name="線 115841" d="M605.486 1529.174l2.009 6.442"/><path data-name="線 115842" d="M609.111 1536.031h0"/><path data-name="線 115843" d="M637.369 1518.278l-30.681 8.473"/><path data-name="線 115844" d="M553.012 1518.278l30.681 8.473"/><path data-name="線 115845" d="M586.117 1525.135l8.058 2.424"/><path data-name="線 115846" d="M604.679 1525.135l-8.473 2.424"/><path data-name="線 115847" d="M585.702 1527.144l8.473 2.424"/><path data-name="線 115848" d="M605.072 1527.144l-8.866 2.424"/><path data-name="線 115849" d="M574.412 1542.473l6.049-5.634"/><path data-name="線 115850" d="M575.613 1544.089l6.464-6.442"/><path data-name="線 115851" d="M594.175 1494.868l-10.897 40.748"/><path data-name="線 115852" d="M555.436 1517.055l28.65 7.665"/><path data-name="線 115853" d="M591.773 1496.069l-10.089 38.739"/><path data-name="線 115854" d="M598.63 1496.069l10.482 38.739"/><path data-name="線 115855" d="M634.944 1517.055l-28.65 7.665"/><path data-name="線 115856" d="M595.791 1389.548l-.393.393"/><path data-name="線 115857" d="M594.175 1389.548l-9.281-34.721"/><path data-name="線 115858" d="M552.204 1363.714l22.208-22.208"/><path data-name="線 115859" d="M551.003 1362.492l22.187-22.187"/><path data-name="線 115860" d="M584.894 1354.827l-1.616-6.442"/><path data-name="線 115861" d="M581.269 1348.385h0"/><path data-name="線 115862" d="M553.012 1365.723l30.681-8.058"/><path data-name="線 115863" d="M637.369 1365.723l-30.681-8.058"/><path data-name="線 115864" d="M604.679 1358.866l-8.473-2.009"/><path data-name="線 115865" d="M586.117 1358.866l8.058-2.009"/><path data-name="線 115866" d="M605.072 1357.251l-8.866-2.424"/><path data-name="線 115867" d="M585.702 1357.251l8.473-2.424"/><path data-name="線 115868" d="M615.968 1341.506l-6.049 6.071"/><path data-name="線 115869" d="M614.767 1340.305l-6.464 6.049"/><path data-name="線 115870" d="M596.206 1389.548l11.29-41.163"/><path data-name="線 115871" d="M634.944 1366.946l-28.65-7.665"/><path data-name="線 115872" d="M598.63 1387.932l10.482-38.739"/><path data-name="線 115873" d="M591.773 1387.932l-10.089-38.739"/><path data-name="線 115874" d="M555.436 1366.946l28.65-7.665"/><path data-name="線 115875" d="M552.204 1523.104l20.986 20.986"/><path data-name="線 115876" d="M552.204 1520.287l23.409 23.802"/><path data-name="線 115877" d="M614.767 1544.089l-6.464-6.442"/><path data-name="線 115878" d="M617.191 1544.089l-7.272-7.25"/><path data-name="線 115879" d="M573.189 1340.305l7.272 7.272"/><path data-name="線 115880" d="M575.613 1340.305l6.464 6.049"/><path data-name="線 115881" d="M638.176 1363.714l-23.409-23.409"/><path data-name="線 115882" d="M638.177 1361.291l-20.986-20.986"/></g></g></svg>