<svg xmlns="http://www.w3.org/2000/svg" width="200" height="230"><defs><clipPath id="a"><path data-name="長方形 180" transform="translate(450 1327)" fill="#ccc" d="M0 0h200v230H0z"/></clipPath></defs><g data-name="マスクグループ 577" transform="translate(-450 -1327)" clip-path="url(#a)"><g data-name="グループ 3445" fill="none" stroke="#c49535" stroke-linecap="round" stroke-linejoin="round" stroke-width="1.308"><path data-name="線 118166" d="M637.002 1518.323l-41.889 24.17"/><path data-name="線 118167" d="M548.8 1365.676l-41.082 23.778"/><path data-name="線 118168" d="M505.691 1389.039v-47.119"/><path data-name="線 118169" d="M638.2 1538.069v-198.176"/><path data-name="線 118170" d="M463.802 1543.692v-23.342"/><path data-name="線 118171" d="M579.007 1339.893h-74.122"/><path data-name="線 118172" d="M506.105 1341.92l.806-.414"/><path data-name="線 118173" d="M551.22 1364.477l-42.303-24.584"/><path data-name="線 118174" d="M551.22 1366.896l-46.335-27.003"/><path data-name="線 118175" d="M551.22 1417.633l-42.303 24.17"/><path data-name="線 118176" d="M548.8 1416.435l-41.889 24.148"/><path data-name="線 118177" d="M508.917 1391.044l42.303 24.17"/><path data-name="線 118178" d="M508.11 1393.071l43.109 24.562"/><path data-name="線 118179" d="M551.22 1366.896l-42.303 24.148"/><path data-name="線 118180" d="M505.691 1397.495v-4.424"/><path data-name="線 118181" d="M505.691 1440.19v-47.119"/><path data-name="線 118182" d="M505.691 1391.458l1.22.806"/><path data-name="線 118183" d="M506.912 1392.265l-41.889 24.17"/><path data-name="線 118184" d="M506.105 1341.92l-41.082 23.756"/><path data-name="線 118185" d="M463.802 1391.045v-23.756"/><path data-name="線 118186" d="M549.999 1363.671v-23.778"/><path data-name="線 118187" d="M506.105 1443.808l.806-.392"/><path data-name="線 118188" d="M551.22 1466.365l-42.303-24.562"/><path data-name="線 118189" d="M551.22 1468.784l-46.335-26.981"/><path data-name="線 118190" d="M551.22 1519.544l-42.303 24.148"/><path data-name="線 118191" d="M548.8 1518.323l-41.889 24.17"/><path data-name="線 118192" d="M505.691 1490.927v-47.119"/><path data-name="線 118193" d="M508.917 1492.955l42.303 24.17"/><path data-name="線 118194" d="M508.11 1494.96l43.109 24.584"/><path data-name="線 118195" d="M551.22 1468.785l-42.303 24.17"/><path data-name="線 118196" d="M505.691 1499.406v-4.446"/><path data-name="線 118197" d="M505.691 1542.079v-47.119"/><path data-name="線 118198" d="M505.691 1493.347l1.22.806"/><path data-name="線 118199" d="M506.912 1494.153l-41.889 24.17"/><path data-name="線 118200" d="M506.105 1443.808l-41.082 23.778"/><path data-name="線 118201" d="M594.307 1341.92l.806-.414"/><path data-name="線 118202" d="M638.2 1391.045v-23.756"/><path data-name="線 118203" d="M637.002 1416.435l-41.889 24.148"/><path data-name="線 118204" d="M593.893 1389.039v-47.119"/><path data-name="線 118205" d="M596.312 1389.039v-47.119"/><path data-name="線 118206" d="M593.086 1441.803l-41.867-24.17"/><path data-name="線 118207" d="M593.086 1391.044l-41.867 24.17"/><path data-name="線 118208" d="M597.118 1441.803l-45.899-26.589"/><path data-name="線 118209" d="M595.113 1392.265l-41.889 24.17"/><path data-name="線 118210" d="M594.306 1341.92l-41.082 23.756"/><path data-name="線 118211" d="M593.086 1339.893l-41.867 24.584"/><path data-name="線 118212" d="M637.001 1467.586l-41.082 23.756"/><path data-name="線 118213" d="M638.2 1492.955v-23.756"/><path data-name="線 118214" d="M638.2 1516.319v-23.364"/><path data-name="線 118215" d="M638.2 1543.692v-23.342"/><path data-name="線 118216" d="M593.893 1490.927v-47.119"/><path data-name="線 118217" d="M596.312 1542.079v-47.119"/><path data-name="線 118218" d="M593.893 1499.406v-4.446"/><path data-name="線 118219" d="M593.893 1542.079v-47.119"/><path data-name="線 118220" d="M593.893 1493.347l1.22.806"/><path data-name="線 118221" d="M593.086 1543.692l-41.867-24.148"/><path data-name="線 118222" d="M593.086 1492.955l-41.867 24.17"/><path data-name="線 118223" d="M597.118 1543.692l-45.899-26.567"/><path data-name="線 118224" d="M595.113 1494.153l-41.889 24.17"/><path data-name="線 118225" d="M552.004 1543.692v-23.342"/><path data-name="線 118226" d="M594.306 1443.808l-41.082 23.778"/><path data-name="線 118227" d="M593.086 1441.803l-41.867 24.562"/><path data-name="線 118228" d="M593.892 1493.347l-42.673-24.562"/><path data-name="線 118229" d="M638.2 1465.559v-23.756"/><path data-name="線 118230" d="M649.076 1554.567H450.922"/><path data-name="線 118231" d="M649.076 1554.567v-225.135"/><path data-name="線 118232" d="M450.922 1554.567v-225.135"/><path data-name="線 118233" d="M649.076 1329.432H450.922"/><path data-name="線 118234" d="M508.11 1543.299h0"/><path data-name="線 118235" d="M596.312 1542.079l.414-.392"/><path data-name="線 118236" d="M598.339 1543.299h0"/><path data-name="線 118237" d="M599.537 1540.074l-2.811 1.613"/><path data-name="線 118238" d="M506.912 1491.734l-3.64-2.005"/><path data-name="線 118239" d="M551.22 1517.125l-3.64-2.027"/><path data-name="線 118240" d="M463.802 1532.01v-192.117"/><path data-name="線 118241" d="M504.884 1339.893l-41.082 23.778"/><path data-name="線 118242" d="M508.11 1390.238l-44.308-25.369"/><path data-name="線 118243" d="M505.691 1391.459l-41.889-24.17"/><path data-name="線 118244" d="M504.884 1543.692h-41.082"/><path data-name="線 118245" d="M638.201 1543.692H504.885"/><path data-name="線 118246" d="M597.118 1492.955l41.082 23.364"/><path data-name="線 118247" d="M596.312 1494.96l41.889 24.17"/><path data-name="線 118248" d="M638.2 1520.35l-41.082 23.342"/><path data-name="線 118249" d="M597.118 1391.044l41.082 23.778"/><path data-name="線 118250" d="M596.312 1393.071l41.889 24.17"/><path data-name="線 118251" d="M638.2 1418.44l-41.082 23.364"/><path data-name="線 118252" d="M638.2 1363.671l-41.082-23.778"/><path data-name="線 118253" d="M638.2 1366.09l-45.114-26.197"/><path data-name="線 118254" d="M638.2 1367.289l-41.082 23.756"/><path data-name="線 118255" d="M638.2 1339.893H463.802"/><path data-name="線 118256" d="M450.922 1329.432l12.88 10.461"/><path data-name="線 118257" d="M638.2 1339.893l10.875-10.461"/><path data-name="線 118258" d="M450.922 1554.567l12.88-10.875"/><path data-name="線 118259" d="M638.2 1543.692l10.875 10.875"/><path data-name="線 118260" d="M504.884 1391.044l-41.082 23.778"/><path data-name="線 118261" d="M508.916 1441.804l-45.114-25.783"/><path data-name="線 118262" d="M504.884 1441.804l-41.082-23.364"/><path data-name="線 118263" d="M504.884 1492.955l-41.082 23.364"/><path data-name="線 118264" d="M508.916 1543.692l-45.114-25.761"/><path data-name="線 118265" d="M504.884 1543.692l-41.082-23.342"/><path data-name="線 118266" d="M508.11 1492.148l.806.806"/><path data-name="線 118267" d="M506.911 1494.153l1.199.806"/><path data-name="線 118268" d="M596.312 1499.406v-4.446"/><path data-name="線 118269" d="M596.312 1490.927v-47.119"/><path data-name="線 118270" d="M596.312 1492.148l.806.806"/><path data-name="線 118271" d="M596.312 1492.148l-1.199-.414"/><path data-name="線 118272" d="M593.892 1490.928l-42.673-24.562"/><path data-name="線 118273" d="M595.919 1491.342l-.806.392"/><path data-name="線 118274" d="M595.113 1491.734l-1.22-.806"/><path data-name="線 118275" d="M595.113 1494.153l1.199.806"/><path data-name="線 118276" d="M593.893 1443.808l1.22-.392"/><path data-name="線 118277" d="M597.532 1391.044l-46.313-26.567"/><path data-name="線 118278" d="M596.311 1393.071l-45.092-26.175"/><path data-name="線 118279" d="M637.002 1365.676l-41.889 24.17"/><path data-name="線 118280" d="M638.2 1465.559l-41.082-23.756"/><path data-name="線 118281" d="M638.2 1467.978l-45.114-26.175"/><path data-name="線 118282" d="M638.2 1469.199l-41.082 23.756"/><path data-name="線 118283" d="M638.2 1465.559l-2.419-1.199"/><path data-name="線 118284" d="M504.884 1441.803l-41.082 23.756"/><path data-name="線 118285" d="M508.11 1492.149l-44.308-25.369"/><path data-name="線 118286" d="M505.691 1493.347l-41.889-24.148"/><path data-name="線 118287" d="M548.8 1467.586l-41.889 24.148"/><path data-name="線 118288" d="M508.11 1542.079v-47.119"/><path data-name="線 118289" d="M508.11 1490.927v-47.119"/><path data-name="線 118290" d="M506.911 1392.265l1.199.806"/><path data-name="線 118291" d="M508.916 1391.044l-.806-.806"/><path data-name="線 118292" d="M507.717 1389.453l-.806.392"/><path data-name="線 118293" d="M508.11 1440.19v-47.119"/><path data-name="線 118294" d="M508.11 1389.039v-47.119"/><path data-name="線 118295" d="M549.999 1363.67v-11.289"/><path data-name="線 118296" d="M552.004 1363.671v-23.778"/><path data-name="線 118297" d="M549.999 1543.692v-23.342"/><path data-name="線 118298" d="M549.999 1516.318v-47.119"/><path data-name="線 118299" d="M552.004 1540.88v-20.53"/><path data-name="線 118300" d="M552.004 1516.318v-47.119"/><path data-name="線 118301" d="M593.893 1440.19v-47.119"/><path data-name="線 118302" d="M596.312 1440.19v-47.119"/><path data-name="線 118303" d="M549.999 1465.559v-47.119"/><path data-name="線 118304" d="M549.999 1414.822v-47.533"/><path data-name="線 118305" d="M552.004 1414.822v-47.533"/><path data-name="線 118306" d="M552.004 1465.559v-47.119"/><path data-name="線 118307" d="M523.824 1380.169v-28.986"/><path data-name="線 118308" d="M531.866 1375.353l-6.843-3.64"/><path data-name="線 118309" d="M533.087 1374.546l-8.064-4.446"/><path data-name="線 118310" d="M523.824 1370.906l-8.064-4.424"/><path data-name="線 118311" d="M523.824 1369.316l-6.451-3.64"/><path data-name="線 118312" d="M515.76 1364.869l-7.65-4.838"/><path data-name="線 118313" d="M514.561 1365.676l-6.451-4.032"/><path data-name="線 118314" d="M525.023 1379.384v-27.395"/><path data-name="線 118315" d="M525.023 1360.837l8.064-4.424"/><path data-name="線 118316" d="M508.11 1369.315l15.714-9.284"/><path data-name="線 118317" d="M525.023 1359.247l6.843-3.64"/><path data-name="線 118318" d="M508.11 1370.907l15.714-9.263"/><path data-name="線 118319" d="M523.824 1430.928v-29.008"/><path data-name="線 118320" d="M531.866 1426.504l-6.843-4.032"/><path data-name="線 118321" d="M533.087 1425.697l-8.064-4.838"/><path data-name="線 118322" d="M523.824 1421.665l-8.064-4.424"/><path data-name="線 118323" d="M523.824 1420.053l-6.451-3.618"/><path data-name="線 118324" d="M515.76 1415.628l-7.65-4.446"/><path data-name="線 118325" d="M514.561 1416.435l-6.451-3.64"/><path data-name="線 118326" d="M525.023 1430.121v-27.395"/><path data-name="線 118327" d="M525.023 1411.988l8.064-4.424"/><path data-name="線 118328" d="M508.11 1420.445l15.714-9.263"/><path data-name="線 118329" d="M525.023 1410.376l6.843-3.618"/><path data-name="線 118330" d="M508.11 1422.058l15.714-9.263"/><path data-name="線 118331" d="M479.516 1405.559v-29.008"/><path data-name="線 118332" d="M487.58 1401.113l-6.451-4.01"/><path data-name="線 118333" d="M488.779 1400.307l-7.65-4.817"/><path data-name="線 118334" d="M479.516 1396.297l-7.65-4.446"/><path data-name="線 118335" d="M479.516 1394.684l-6.451-3.64"/><path data-name="線 118336" d="M471.866 1390.238l-8.064-4.424"/><path data-name="線 118337" d="M470.253 1391.045l-6.451-3.618"/><path data-name="線 118338" d="M481.129 1404.753v-27.395"/><path data-name="線 118339" d="M481.129 1386.62l7.65-4.838"/><path data-name="線 118340" d="M463.802 1394.684l15.714-8.87"/><path data-name="線 118341" d="M481.129 1385.007l6.451-4.032"/><path data-name="線 118342" d="M463.802 1396.297l15.714-8.87"/><path data-name="線 118343" d="M612.025 1380.169v-28.986"/><path data-name="線 118344" d="M620.089 1375.353l-6.865-3.64"/><path data-name="線 118345" d="M621.288 1374.546l-8.064-4.446"/><path data-name="線 118346" d="M612.026 1370.906l-8.064-4.424"/><path data-name="線 118347" d="M612.025 1369.316l-6.451-3.64"/><path data-name="線 118348" d="M603.962 1364.869l-7.65-4.838"/><path data-name="線 118349" d="M602.763 1365.676l-6.451-4.032"/><path data-name="線 118350" d="M613.224 1379.384v-27.395"/><path data-name="線 118351" d="M613.224 1360.837l8.064-4.424"/><path data-name="線 118352" d="M596.312 1369.315l15.714-9.284"/><path data-name="線 118353" d="M613.224 1359.247l6.865-3.64"/><path data-name="線 118354" d="M596.312 1370.907l15.714-9.263"/><path data-name="線 118355" d="M567.718 1405.559v-29.008"/><path data-name="線 118356" d="M575.781 1401.113l-6.451-4.01"/><path data-name="線 118357" d="M577.394 1400.307l-8.064-4.817"/><path data-name="線 118358" d="M567.718 1396.297l-7.65-4.446"/><path data-name="線 118359" d="M567.717 1394.684l-6.429-3.64"/><path data-name="線 118360" d="M560.068 1390.238l-8.064-4.424"/><path data-name="線 118361" d="M558.455 1391.045l-6.451-3.618"/><path data-name="線 118362" d="M569.33 1404.753v-27.395"/><path data-name="線 118363" d="M569.33 1386.62l8.064-4.838"/><path data-name="線 118364" d="M552.004 1394.684l15.714-8.87"/><path data-name="線 118365" d="M569.33 1385.007l6.451-4.032"/><path data-name="線 118366" d="M552.004 1396.297l15.714-8.87"/><path data-name="線 118367" d="M523.824 1482.079v-29.008"/><path data-name="線 118368" d="M531.866 1477.241l-6.843-3.618"/><path data-name="線 118369" d="M533.087 1476.434l-8.064-4.424"/><path data-name="線 118370" d="M523.824 1472.816l-8.064-4.424"/><path data-name="線 118371" d="M523.824 1471.204l-6.451-3.618"/><path data-name="線 118372" d="M515.76 1466.779l-7.65-4.838"/><path data-name="線 118373" d="M514.561 1467.586l-6.451-4.032"/><path data-name="線 118374" d="M525.023 1481.272v-27.395"/><path data-name="線 118375" d="M525.023 1462.747l8.064-4.424"/><path data-name="線 118376" d="M508.11 1471.204l15.714-9.263"/><path data-name="線 118377" d="M525.023 1461.135l6.843-3.618"/><path data-name="線 118378" d="M508.11 1472.817l15.714-9.263"/><path data-name="線 118379" d="M612.025 1482.079v-29.008"/><path data-name="線 118380" d="M620.089 1477.241l-6.865-3.618"/><path data-name="線 118381" d="M621.288 1476.434l-8.064-4.424"/><path data-name="線 118382" d="M612.026 1472.816l-8.064-4.424"/><path data-name="線 118383" d="M612.025 1471.204l-6.451-3.618"/><path data-name="線 118384" d="M603.962 1466.779l-7.65-4.838"/><path data-name="線 118385" d="M602.763 1467.586l-6.451-4.032"/><path data-name="線 118386" d="M613.224 1481.272v-27.395"/><path data-name="線 118387" d="M613.224 1462.747l8.064-4.424"/><path data-name="線 118388" d="M596.312 1471.204l15.714-9.263"/><path data-name="線 118389" d="M613.224 1461.135l6.865-3.618"/><path data-name="線 118390" d="M596.312 1472.817l15.714-9.263"/><path data-name="線 118391" d="M612.025 1430.928v-29.008"/><path data-name="線 118392" d="M620.089 1426.504l-6.865-4.032"/><path data-name="線 118393" d="M621.288 1425.697l-8.064-4.838"/><path data-name="線 118394" d="M612.026 1421.665l-8.064-4.424"/><path data-name="線 118395" d="M612.025 1420.053l-6.451-3.618"/><path data-name="線 118396" d="M603.962 1415.628l-7.65-4.446"/><path data-name="線 118397" d="M602.763 1416.435l-6.451-3.64"/><path data-name="線 118398" d="M613.224 1430.121v-27.395"/><path data-name="線 118399" d="M613.224 1411.988l8.064-4.424"/><path data-name="線 118400" d="M596.312 1420.445l15.714-9.263"/><path data-name="線 118401" d="M613.224 1410.376l6.865-3.618"/><path data-name="線 118402" d="M596.312 1422.058l15.714-9.263"/><path data-name="線 118403" d="M479.516 1456.296v-28.986"/><path data-name="線 118404" d="M487.58 1451.872l-6.451-3.618"/><path data-name="線 118405" d="M488.779 1451.066l-7.65-4.424"/><path data-name="線 118406" d="M479.516 1447.448l-7.65-4.838"/><path data-name="線 118407" d="M479.516 1445.835l-6.451-4.032"/><path data-name="線 118408" d="M471.866 1440.997l-8.064-4.424"/><path data-name="線 118409" d="M470.253 1441.803l-6.451-3.618"/><path data-name="線 118410" d="M481.129 1455.491v-27.374"/><path data-name="線 118411" d="M481.129 1437.379l7.65-4.446"/><path data-name="線 118412" d="M463.802 1445.836l15.714-9.263"/><path data-name="線 118413" d="M481.129 1435.767l6.451-3.64"/><path data-name="線 118414" d="M463.802 1447.448l15.714-9.263"/><path data-name="線 118415" d="M523.824 1532.816v-28.986"/><path data-name="線 118416" d="M531.866 1528.392l-6.843-4.032"/><path data-name="線 118417" d="M533.087 1527.585l-8.064-4.838"/><path data-name="線 118418" d="M523.824 1523.554l-8.064-4.424"/><path data-name="線 118419" d="M523.824 1521.941l-6.451-3.618"/><path data-name="線 118420" d="M515.76 1517.517l-7.65-4.424"/><path data-name="線 118421" d="M514.561 1518.323l-6.451-3.618"/><path data-name="線 118422" d="M525.023 1532.01v-27.374"/><path data-name="線 118423" d="M525.023 1513.899l8.064-4.424"/><path data-name="線 118424" d="M508.11 1521.941l15.714-8.848"/><path data-name="線 118425" d="M525.023 1512.286l6.843-3.618"/><path data-name="線 118426" d="M508.11 1523.968l15.714-9.263"/><path data-name="線 118427" d="M612.025 1532.816v-28.986"/><path data-name="線 118428" d="M620.089 1528.392l-6.865-4.032"/><path data-name="線 118429" d="M621.288 1527.585l-8.064-4.838"/><path data-name="線 118430" d="M612.026 1523.554l-8.064-4.424"/><path data-name="線 118431" d="M612.025 1521.941l-6.451-3.618"/><path data-name="線 118432" d="M603.962 1517.517l-7.65-4.424"/><path data-name="線 118433" d="M602.763 1518.323l-6.451-3.618"/><path data-name="線 118434" d="M613.224 1532.01v-27.374"/><path data-name="線 118435" d="M613.224 1513.899l8.064-4.424"/><path data-name="線 118436" d="M596.312 1521.941l15.714-8.848"/><path data-name="線 118437" d="M613.224 1512.286l6.865-3.618"/><path data-name="線 118438" d="M596.312 1523.968l15.714-9.263"/><path data-name="線 118439" d="M505.69 1370.906l-24.954-14.493"/><path data-name="線 118440" d="M505.691 1361.644l-6.429 4.032"/><path data-name="線 118441" d="M505.691 1360.031l-7.65 4.838"/><path data-name="線 118442" d="M498.041 1366.482l-8.042 4.424"/><path data-name="線 118443" d="M496.428 1365.676l-6.429 3.64"/><path data-name="線 118444" d="M488.778 1370.1l-8.042 4.446"/><path data-name="線 118445" d="M488.778 1371.713l-6.843 3.64"/><path data-name="線 118446" d="M505.691 1369.316l-23.756-13.709"/><path data-name="線 118447" d="M489.999 1360.031v-8.848"/><path data-name="線 118448" d="M488.779 1379.384v-18.547"/><path data-name="線 118449" d="M488.779 1359.247v-7.258"/><path data-name="線 118450" d="M489.999 1380.169v-18.525"/><path data-name="線 118451" d="M505.69 1422.057l-24.954-14.493"/><path data-name="線 118452" d="M505.691 1412.795l-6.429 3.64"/><path data-name="線 118453" d="M505.691 1411.182l-7.65 4.446"/><path data-name="線 118454" d="M498.041 1417.241l-8.042 4.424"/><path data-name="線 118455" d="M496.428 1416.435l-6.429 3.618"/><path data-name="線 118456" d="M488.778 1420.859l-8.042 4.838"/><path data-name="線 118457" d="M488.778 1422.472l-6.843 4.032"/><path data-name="線 118458" d="M505.691 1420.445l-23.756-13.687"/><path data-name="線 118459" d="M489.999 1411.183v-9.263"/><path data-name="線 118460" d="M488.779 1430.122v-18.133"/><path data-name="線 118461" d="M488.779 1410.376v-7.65"/><path data-name="線 118462" d="M489.999 1430.928v-18.133"/><path data-name="線 118463" d="M505.69 1472.816l-24.954-14.493"/><path data-name="線 118464" d="M505.691 1463.554l-6.429 4.032"/><path data-name="線 118465" d="M505.691 1461.941l-7.65 4.838"/><path data-name="線 118466" d="M498.041 1468.392l-8.042 4.424"/><path data-name="線 118467" d="M496.428 1467.586l-6.429 3.618"/><path data-name="線 118468" d="M488.778 1472.01l-8.042 4.424"/><path data-name="線 118469" d="M488.778 1473.623l-6.843 3.618"/><path data-name="線 118470" d="M505.691 1471.204l-23.756-13.687"/><path data-name="線 118471" d="M489.999 1461.941v-8.87"/><path data-name="線 118472" d="M488.779 1481.273v-18.525"/><path data-name="線 118473" d="M488.779 1461.135v-7.258"/><path data-name="線 118474" d="M489.999 1482.079v-18.525"/><path data-name="線 118475" d="M549.999 1498.185l-25.369-14.493"/><path data-name="線 118476" d="M549.999 1489.337l-6.451 3.618"/><path data-name="線 118477" d="M549.999 1487.724l-8.064 4.424"/><path data-name="線 118478" d="M541.935 1493.761l-7.65 4.424"/><path data-name="線 118479" d="M540.736 1492.955l-6.451 3.618"/><path data-name="線 118480" d="M532.672 1497.379l-8.042 4.424"/><path data-name="線 118481" d="M532.672 1498.992l-6.429 4.032"/><path data-name="線 118482" d="M549.999 1496.573l-23.756-13.687"/><path data-name="線 118483" d="M534.285 1487.724v-9.263"/><path data-name="線 118484" d="M532.672 1506.641v-18.111"/><path data-name="線 118485" d="M532.672 1486.918v-7.65"/><path data-name="線 118486" d="M534.285 1507.448v-18.111"/><path data-name="線 118487" d="M593.892 1472.816l-24.954-14.493"/><path data-name="線 118488" d="M593.892 1463.554l-6.429 4.032"/><path data-name="線 118489" d="M593.893 1461.941l-7.65 4.838"/><path data-name="線 118490" d="M586.243 1468.392l-8.042 4.424"/><path data-name="線 118491" d="M584.63 1467.586l-6.429 3.618"/><path data-name="線 118492" d="M576.98 1472.01l-8.042 4.424"/><path data-name="線 118493" d="M576.98 1473.623l-6.843 3.618"/><path data-name="線 118494" d="M593.893 1471.204l-23.756-13.687"/><path data-name="線 118495" d="M578.201 1461.941v-8.87"/><path data-name="線 118496" d="M576.98 1481.273v-18.525"/><path data-name="線 118497" d="M576.98 1461.135v-7.258"/><path data-name="線 118498" d="M578.201 1482.079v-18.525"/><path data-name="線 118499" d="M593.892 1523.968l-24.954-14.493"/><path data-name="線 118500" d="M593.892 1514.705l-6.429 3.618"/><path data-name="線 118501" d="M593.893 1513.093l-7.65 4.424"/><path data-name="線 118502" d="M586.243 1519.13l-8.042 4.424"/><path data-name="線 118503" d="M584.63 1518.323l-6.429 3.618"/><path data-name="線 118504" d="M576.98 1522.747l-8.042 4.838"/><path data-name="線 118505" d="M576.98 1524.36l-6.843 4.032"/><path data-name="線 118506" d="M593.893 1521.941l-23.756-13.273"/><path data-name="線 118507" d="M578.201 1513.093v-9.263"/><path data-name="線 118508" d="M576.98 1532.01v-18.111"/><path data-name="線 118509" d="M576.98 1512.286v-7.65"/><path data-name="線 118510" d="M578.201 1532.816v-18.111"/><path data-name="線 118511" d="M638.2 1498.185l-24.976-14.493"/><path data-name="線 118512" d="M638.2 1489.337l-6.429 3.618"/><path data-name="線 118513" d="M638.2 1487.724l-8.042 4.424"/><path data-name="線 118514" d="M630.159 1493.761l-7.672 4.424"/><path data-name="線 118515" d="M628.938 1492.955l-6.451 3.618"/><path data-name="線 118516" d="M620.896 1497.379l-7.672 4.424"/><path data-name="線 118517" d="M620.896 1498.992l-6.451 4.032"/><path data-name="線 118518" d="M638.201 1496.573l-23.756-13.687"/><path data-name="線 118519" d="M622.487 1487.724v-9.263"/><path data-name="線 118520" d="M620.896 1506.641v-18.111"/><path data-name="線 118521" d="M620.896 1486.918v-7.65"/><path data-name="線 118522" d="M622.487 1507.448v-18.111"/><path data-name="線 118523" d="M549.999 1447.448l-25.369-14.515"/><path data-name="線 118524" d="M549.999 1438.185l-6.451 3.618"/><path data-name="線 118525" d="M549.999 1436.573l-8.064 4.424"/><path data-name="線 118526" d="M541.935 1442.61l-7.65 4.838"/><path data-name="線 118527" d="M540.736 1441.803l-6.451 4.032"/><path data-name="線 118528" d="M532.672 1446.642l-8.042 4.424"/><path data-name="線 118529" d="M532.672 1448.254l-6.429 3.618"/><path data-name="線 118530" d="M549.999 1445.836l-23.756-13.709"/><path data-name="線 118531" d="M534.285 1436.573v-9.263"/><path data-name="線 118532" d="M532.672 1455.49v-18.111"/><path data-name="線 118533" d="M532.672 1435.767v-7.65"/><path data-name="線 118534" d="M534.285 1456.296v-18.111"/><path data-name="線 118535" d="M549.999 1396.297l-25.369-14.515"/><path data-name="線 118536" d="M549.999 1387.427l-6.451 3.618"/><path data-name="線 118537" d="M549.999 1385.814l-8.064 4.424"/><path data-name="線 118538" d="M541.935 1391.851l-7.65 4.446"/><path data-name="線 118539" d="M540.736 1391.044l-6.451 3.64"/><path data-name="線 118540" d="M532.672 1395.49l-8.042 4.817"/><path data-name="線 118541" d="M532.672 1397.103l-6.429 4.01"/><path data-name="線 118542" d="M549.999 1394.684l-23.756-13.709"/><path data-name="線 118543" d="M534.285 1385.814v-9.263"/><path data-name="線 118544" d="M532.672 1404.753v-18.133"/><path data-name="線 118545" d="M532.672 1385.008v-7.65"/><path data-name="線 118546" d="M534.285 1405.56v-18.133"/><path data-name="線 118547" d="M593.892 1422.057l-24.954-14.493"/><path data-name="線 118548" d="M593.892 1412.795l-6.429 3.64"/><path data-name="線 118549" d="M593.893 1411.182l-7.65 4.446"/><path data-name="線 118550" d="M586.243 1417.241l-8.042 4.424"/><path data-name="線 118551" d="M584.63 1416.435l-6.429 3.618"/><path data-name="線 118552" d="M576.98 1420.859l-8.042 4.838"/><path data-name="線 118553" d="M576.98 1422.472l-6.843 4.032"/><path data-name="線 118554" d="M593.893 1420.445l-23.756-13.687"/><path data-name="線 118555" d="M578.201 1411.183v-9.263"/><path data-name="線 118556" d="M576.98 1430.122v-18.133"/><path data-name="線 118557" d="M576.98 1410.376v-7.65"/><path data-name="線 118558" d="M578.201 1430.928v-18.133"/><path data-name="線 118559" d="M638.2 1396.297l-24.976-14.515"/><path data-name="線 118560" d="M638.2 1387.427l-6.429 3.618"/><path data-name="線 118561" d="M638.2 1385.814l-8.042 4.424"/><path data-name="線 118562" d="M630.159 1391.851l-7.672 4.446"/><path data-name="線 118563" d="M628.938 1391.044l-6.451 3.64"/><path data-name="線 118564" d="M620.896 1395.49l-7.672 4.817"/><path data-name="線 118565" d="M620.896 1397.103l-6.451 4.01"/><path data-name="線 118566" d="M638.201 1394.684l-23.756-13.709"/><path data-name="線 118567" d="M622.487 1385.814v-9.263"/><path data-name="線 118568" d="M620.896 1404.753v-18.133"/><path data-name="線 118569" d="M620.896 1385.008v-7.65"/><path data-name="線 118570" d="M622.487 1405.56v-18.133"/><path data-name="線 118571" d="M638.2 1447.448l-24.976-14.515"/><path data-name="線 118572" d="M638.2 1438.185l-6.429 3.618"/><path data-name="線 118573" d="M638.2 1436.573l-8.042 4.424"/><path data-name="線 118574" d="M630.159 1442.61l-7.672 4.838"/><path data-name="線 118575" d="M628.938 1441.803l-6.451 4.032"/><path data-name="線 118576" d="M620.896 1446.642l-7.672 4.424"/><path data-name="線 118577" d="M620.896 1448.254l-6.451 3.618"/><path data-name="線 118578" d="M638.201 1445.836l-23.756-13.709"/><path data-name="線 118579" d="M622.487 1436.573v-9.263"/><path data-name="線 118580" d="M620.896 1455.49v-18.111"/><path data-name="線 118581" d="M620.896 1435.767v-7.65"/><path data-name="線 118582" d="M622.487 1456.296v-18.111"/><path data-name="線 118583" d="M593.892 1370.906l-24.954-14.493"/><path data-name="線 118584" d="M593.892 1361.644l-6.429 4.032"/><path data-name="線 118585" d="M593.893 1360.031l-7.65 4.838"/><path data-name="線 118586" d="M586.243 1366.482l-8.042 4.424"/><path data-name="線 118587" d="M584.63 1365.676l-6.429 3.64"/><path data-name="線 118588" d="M576.98 1370.1l-8.042 4.446"/><path data-name="線 118589" d="M576.98 1371.713l-6.843 3.64"/><path data-name="線 118590" d="M593.893 1369.316l-23.756-13.709"/><path data-name="線 118591" d="M578.201 1360.031v-8.848"/><path data-name="線 118592" d="M576.98 1379.384v-18.547"/><path data-name="線 118593" d="M576.98 1359.247v-7.258"/><path data-name="線 118594" d="M578.201 1380.169v-18.525"/><path data-name="線 118595" d="M479.516 1507.447v-28.986"/><path data-name="線 118596" d="M487.58 1503.024l-6.451-4.032"/><path data-name="線 118597" d="M488.779 1501.803l-7.65-4.424"/><path data-name="線 118598" d="M479.516 1498.185l-7.65-4.424"/><path data-name="線 118599" d="M479.516 1496.573l-6.451-3.618"/><path data-name="線 118600" d="M471.866 1492.148l-8.064-4.424"/><path data-name="線 118601" d="M470.253 1492.955l-6.451-3.618"/><path data-name="線 118602" d="M481.129 1506.642v-27.374"/><path data-name="線 118603" d="M481.129 1488.53l7.65-4.838"/><path data-name="線 118604" d="M463.802 1496.572l15.714-8.848"/><path data-name="線 118605" d="M481.129 1486.918l6.451-4.032"/><path data-name="線 118606" d="M463.802 1498.185l15.714-8.848"/><path data-name="線 118607" d="M567.718 1507.447v-28.986"/><path data-name="線 118608" d="M575.781 1503.024l-6.451-4.032"/><path data-name="線 118609" d="M577.394 1501.803l-8.064-4.424"/><path data-name="線 118610" d="M567.718 1498.185l-7.65-4.424"/><path data-name="線 118611" d="M567.717 1496.573l-6.429-3.618"/><path data-name="線 118612" d="M560.068 1492.148l-8.064-4.424"/><path data-name="線 118613" d="M558.455 1492.955l-6.451-3.618"/><path data-name="線 118614" d="M569.33 1506.642v-27.374"/><path data-name="線 118615" d="M569.33 1488.53l8.064-4.838"/><path data-name="線 118616" d="M552.004 1496.572l15.714-8.848"/><path data-name="線 118617" d="M569.33 1486.918l6.451-4.032"/><path data-name="線 118618" d="M552.004 1498.185l15.714-8.848"/><path data-name="線 118619" d="M567.718 1456.296v-28.986"/><path data-name="線 118620" d="M575.781 1451.872l-6.451-3.618"/><path data-name="線 118621" d="M577.394 1451.066l-8.064-4.424"/><path data-name="線 118622" d="M567.718 1447.448l-7.65-4.838"/><path data-name="線 118623" d="M567.717 1445.835l-6.429-4.032"/><path data-name="線 118624" d="M560.068 1440.997l-8.064-4.424"/><path data-name="線 118625" d="M558.455 1441.803l-6.451-3.618"/><path data-name="線 118626" d="M569.33 1455.491v-27.374"/><path data-name="線 118627" d="M569.33 1437.379l8.064-4.446"/><path data-name="線 118628" d="M552.004 1445.836l15.714-9.263"/><path data-name="線 118629" d="M569.33 1435.767l6.451-3.64"/><path data-name="線 118630" d="M552.004 1447.448l15.714-9.263"/><path data-name="線 118631" d="M505.69 1523.968l-24.954-14.493"/><path data-name="線 118632" d="M505.691 1514.705l-6.429 3.618"/><path data-name="線 118633" d="M505.691 1513.093l-7.65 4.424"/><path data-name="線 118634" d="M498.041 1519.13l-8.042 4.424"/><path data-name="線 118635" d="M496.428 1518.323l-6.429 3.618"/><path data-name="線 118636" d="M488.778 1522.747l-8.042 4.838"/><path data-name="線 118637" d="M488.778 1524.36l-6.843 4.032"/><path data-name="線 118638" d="M505.691 1521.941l-23.756-13.273"/><path data-name="線 118639" d="M489.999 1513.093v-9.263"/><path data-name="線 118640" d="M488.779 1532.01v-18.111"/><path data-name="線 118641" d="M488.779 1512.286v-7.65"/><path data-name="線 118642" d="M489.999 1532.816v-18.111"/></g></g></svg>