<svg xmlns="http://www.w3.org/2000/svg" width="200" height="230"><defs><clipPath id="a"><path data-name="長方形 180" transform="translate(450 1327)" fill="#ccc" d="M0 0h200v230H0z"/></clipPath></defs><g data-name="マスクグループ 582" transform="translate(-450 -1327)" clip-path="url(#a)"><g data-name="グループ 3450" fill="none" stroke="#c49535" stroke-linecap="round" stroke-linejoin="round" stroke-width="1.308"><path data-name="線 122160" d="M637.393 1518.128l-42.281 24.562"/><path data-name="線 122161" d="M549.191 1365.872l-41.475 23.778"/><path data-name="線 122162" d="M506.103 1389.65v-47.534"/><path data-name="線 122163" d="M638.2 1537.852v-197.349"/><path data-name="線 122164" d="M464.214 1543.889v-23.756"/><path data-name="線 122165" d="M579.398 1340.503h-74.515"/><path data-name="線 122166" d="M506.496 1342.116l.414-.414"/><path data-name="線 122167" d="M551.218 1364.673l-41.889-24.17"/><path data-name="線 122168" d="M551.218 1367.092l-46.335-26.589"/><path data-name="線 122169" d="M551.218 1418.244l-41.889 24.148"/><path data-name="線 122170" d="M549.191 1416.631l-42.281 24.562"/><path data-name="線 122171" d="M509.329 1391.241l41.889 24.17"/><path data-name="線 122172" d="M508.109 1393.268l43.109 24.976"/><path data-name="線 122173" d="M551.218 1367.093l-41.889 24.148"/><path data-name="線 122174" d="M506.103 1397.692v-4.424"/><path data-name="線 122175" d="M506.103 1440.388v-47.12"/><path data-name="線 122176" d="M506.103 1392.047l.806.414"/><path data-name="線 122177" d="M506.91 1392.461l-41.889 24.17"/><path data-name="線 122178" d="M506.496 1342.116l-41.475 23.756"/><path data-name="線 122179" d="M464.214 1391.241v-23.342"/><path data-name="線 122180" d="M549.997 1363.867v-23.364"/><path data-name="線 122181" d="M506.496 1444.005l.414-.392"/><path data-name="線 122182" d="M551.218 1466.17l-41.889-23.778"/><path data-name="線 122183" d="M551.218 1468.589l-46.335-26.197"/><path data-name="線 122184" d="M551.218 1519.741l-41.889 24.148"/><path data-name="線 122185" d="M549.191 1518.128l-42.281 24.562"/><path data-name="線 122186" d="M506.103 1491.125v-47.12"/><path data-name="線 122187" d="M509.329 1492.738l41.889 24.17"/><path data-name="線 122188" d="M508.109 1494.764l43.109 24.976"/><path data-name="線 122189" d="M551.218 1468.589l-41.889 24.148"/><path data-name="線 122190" d="M506.103 1499.188v-4.424"/><path data-name="線 122191" d="M506.103 1541.884v-47.12"/><path data-name="線 122192" d="M506.103 1493.544l.806.414"/><path data-name="線 122193" d="M506.91 1493.958l-41.889 24.17"/><path data-name="線 122194" d="M506.496 1444.005l-41.475 23.364"/><path data-name="線 122195" d="M594.698 1342.116l.414-.414"/><path data-name="線 122196" d="M638.2 1391.241v-23.342"/><path data-name="線 122197" d="M637.393 1416.631l-42.281 24.562"/><path data-name="線 122198" d="M594.306 1389.65v-47.534"/><path data-name="線 122199" d="M596.311 1389.65v-47.534"/><path data-name="線 122200" d="M593.085 1442.392l-41.867-24.148"/><path data-name="線 122201" d="M593.085 1391.241l-41.867 24.17"/><path data-name="線 122202" d="M597.531 1442.393l-46.313-26.982"/><path data-name="線 122203" d="M595.112 1392.461l-41.889 24.17"/><path data-name="線 122204" d="M594.698 1342.116l-41.475 23.756"/><path data-name="線 122205" d="M593.085 1340.503l-41.867 24.17"/><path data-name="線 122206" d="M637.393 1467.369l-41.475 23.756"/><path data-name="線 122207" d="M638.2 1492.738v-23.342"/><path data-name="線 122208" d="M638.2 1516.516v-23.778"/><path data-name="線 122209" d="M638.2 1543.889v-23.756"/><path data-name="線 122210" d="M594.306 1491.125v-47.12"/><path data-name="線 122211" d="M596.311 1541.884v-47.12"/><path data-name="線 122212" d="M594.306 1499.188v-4.424"/><path data-name="線 122213" d="M594.306 1541.884v-47.12"/><path data-name="線 122214" d="M594.306 1493.544l.806.414"/><path data-name="線 122215" d="M593.085 1543.889l-41.867-24.148"/><path data-name="線 122216" d="M593.085 1492.738l-41.867 24.17"/><path data-name="線 122217" d="M597.531 1543.89l-46.313-26.982"/><path data-name="線 122218" d="M595.112 1493.958l-41.889 24.17"/><path data-name="線 122219" d="M552.417 1543.889v-23.756"/><path data-name="線 122220" d="M594.698 1444.005l-41.475 23.364"/><path data-name="線 122221" d="M593.085 1442.392l-41.867 23.778"/><path data-name="線 122222" d="M594.306 1493.544l-43.088-24.955"/><path data-name="線 122223" d="M638.2 1465.363v-22.971"/><path data-name="線 122224" d="M649.075 1554.372H450.92"/><path data-name="線 122225" d="M649.075 1554.373v-224.745"/><path data-name="線 122226" d="M450.92 1554.373v-224.745"/><path data-name="線 122227" d="M649.075 1329.628H450.92"/><path data-name="線 122228" d="M508.109 1543.083h0"/><path data-name="線 122229" d="M596.311 1541.884l.806-.414"/><path data-name="線 122230" d="M598.73 1543.083h-.392"/><path data-name="線 122231" d="M599.95 1539.879l-2.833 1.591"/><path data-name="線 122232" d="M506.91 1491.539l-3.226-2.005"/><path data-name="線 122233" d="M551.218 1516.908l-3.64-2.005"/><path data-name="線 122234" d="M464.214 1531.815v-191.312"/><path data-name="線 122235" d="M504.882 1340.503l-40.668 23.364"/><path data-name="線 122236" d="M508.108 1390.849l-43.894-25.783"/><path data-name="線 122237" d="M506.103 1392.047l-41.889-24.148"/><path data-name="線 122238" d="M504.882 1543.889h-40.668"/><path data-name="線 122239" d="M638.2 1543.889H504.883"/><path data-name="線 122240" d="M597.531 1492.738l40.668 23.778"/><path data-name="線 122241" d="M596.311 1494.764l41.889 24.17"/><path data-name="線 122242" d="M638.199 1520.133l-40.668 23.756"/><path data-name="線 122243" d="M597.531 1391.241l40.668 23.778"/><path data-name="線 122244" d="M596.311 1393.268l41.889 24.17"/><path data-name="線 122245" d="M638.199 1418.636l-40.668 23.756"/><path data-name="線 122246" d="M638.199 1363.867l-40.668-23.364"/><path data-name="線 122247" d="M638.2 1366.678l-45.115-26.175"/><path data-name="線 122248" d="M638.199 1367.899l-40.668 23.342"/><path data-name="線 122249" d="M638.199 1340.503H464.214"/><path data-name="線 122250" d="M450.92 1329.628l13.295 10.875"/><path data-name="線 122251" d="M638.2 1340.503l10.875-10.875"/><path data-name="線 122252" d="M450.92 1554.372l13.295-10.483"/><path data-name="線 122253" d="M638.2 1543.889l10.875 10.483"/><path data-name="線 122254" d="M504.882 1391.241l-40.668 23.778"/><path data-name="線 122255" d="M509.329 1442.392l-45.115-26.175"/><path data-name="線 122256" d="M504.882 1442.392l-40.668-23.756"/><path data-name="線 122257" d="M504.882 1492.738l-40.668 23.778"/><path data-name="線 122258" d="M509.329 1543.889l-45.115-26.175"/><path data-name="線 122259" d="M504.882 1543.889l-40.668-23.756"/><path data-name="線 122260" d="M508.109 1492.345l1.22.392"/><path data-name="線 122261" d="M506.91 1493.958l1.199.806"/><path data-name="線 122262" d="M596.311 1499.188v-4.424"/><path data-name="線 122263" d="M596.311 1491.125v-47.12"/><path data-name="線 122264" d="M596.311 1492.345l1.22.392"/><path data-name="線 122265" d="M596.311 1492.345l-1.199-.806"/><path data-name="線 122266" d="M594.306 1491.125l-43.088-24.955"/><path data-name="線 122267" d="M595.918 1491.125l-.806.414"/><path data-name="線 122268" d="M595.112 1491.539l-.806-.414"/><path data-name="線 122269" d="M595.112 1493.958l1.199.806"/><path data-name="線 122270" d="M594.306 1444.005l.806-.392"/><path data-name="線 122271" d="M597.531 1391.24l-46.313-26.567"/><path data-name="線 122272" d="M596.725 1393.268l-45.507-26.175"/><path data-name="線 122273" d="M637.393 1365.872l-42.281 24.17"/><path data-name="線 122274" d="M638.199 1465.363l-40.668-22.971"/><path data-name="線 122275" d="M638.2 1468.175l-45.115-25.783"/><path data-name="線 122276" d="M638.199 1469.396l-40.668 23.342"/><path data-name="線 122277" d="M638.199 1465.363l-2.419-1.22"/><path data-name="線 122278" d="M504.882 1442.392l-40.668 22.971"/><path data-name="線 122279" d="M508.108 1492.345l-43.894-25.783"/><path data-name="線 122280" d="M506.103 1493.544l-41.889-24.148"/><path data-name="線 122281" d="M549.191 1467.369l-42.281 24.17"/><path data-name="線 122282" d="M508.109 1541.884v-47.12"/><path data-name="線 122283" d="M508.109 1491.125v-47.12"/><path data-name="線 122284" d="M506.91 1392.461l1.199.806"/><path data-name="線 122285" d="M509.329 1391.24l-1.22-.392"/><path data-name="線 122286" d="M507.716 1389.65l-.806.392"/><path data-name="線 122287" d="M508.109 1440.388v-47.12"/><path data-name="線 122288" d="M508.109 1389.65v-47.534"/><path data-name="線 122289" d="M549.997 1363.867v-10.875"/><path data-name="線 122290" d="M552.417 1363.867v-23.364"/><path data-name="線 122291" d="M549.997 1543.889v-23.756"/><path data-name="線 122292" d="M549.997 1516.516v-47.12"/><path data-name="線 122293" d="M552.417 1540.685v-20.552"/><path data-name="線 122294" d="M552.417 1516.516v-47.12"/><path data-name="線 122295" d="M594.306 1440.388v-47.12"/><path data-name="線 122296" d="M596.311 1440.388v-47.12"/><path data-name="線 122297" d="M549.997 1465.363v-46.727"/><path data-name="線 122298" d="M549.997 1415.019v-47.12"/><path data-name="線 122299" d="M552.417 1415.019v-47.12"/><path data-name="線 122300" d="M552.417 1465.363v-46.727"/><path data-name="線 122301" d="M525.827 1373.13l20.138-5.645"/><path data-name="線 122302" d="M508.109 1386.01l5.231-20.138"/><path data-name="線 122303" d="M508.109 1345.734l5.231 20.138"/><path data-name="線 122304" d="M509.721 1386.424l14.493-14.515"/><path data-name="線 122305" d="M525.827 1371.103l19.746-5.231"/><path data-name="線 122306" d="M511.334 1387.623l14.493-14.493"/><path data-name="線 122307" d="M511.334 1344.121l14.493 14.515"/><path data-name="線 122308" d="M509.721 1345.342l14.493 14.493"/><path data-name="線 122309" d="M545.573 1365.872l-19.746-5.231"/><path data-name="線 122310" d="M545.965 1364.259l-20.138-5.623"/><path data-name="線 122311" d="M509.721 1386.424l5.645-19.746"/><path data-name="線 122312" d="M509.721 1345.342l5.645 19.724"/><path data-name="線 122313" d="M508.109 1389.65l1.613-3.226"/><path data-name="線 122314" d="M549.191 1365.872h-3.618"/><path data-name="線 122315" d="M525.827 1360.641v-2.005"/><path data-name="線 122316" d="M524.215 1359.835l1.613-1.199"/><path data-name="線 122317" d="M525.827 1373.13v-2.027"/><path data-name="線 122318" d="M524.215 1371.909l1.613 1.22"/><path data-name="線 122319" d="M515.366 1366.678l-1.613-.806"/><path data-name="線 122320" d="M515.366 1365.066l-1.613.806"/><path data-name="線 122321" d="M509.722 1345.342l-1.613-3.226"/><path data-name="線 122322" d="M511.335 1344.121l-3.226-2.005"/><path data-name="線 122323" d="M549.191 1365.872l-3.226-1.613"/><path data-name="線 122324" d="M515.366 1365.066l8.849-5.231"/><path data-name="線 122325" d="M515.366 1366.678l8.849 5.231"/><path data-name="線 122326" d="M525.827 1371.102v-10.461"/><path data-name="線 122327" d="M517.371 1365.872l6.843-4.032"/><path data-name="線 122328" d="M517.371 1365.872l6.843 4.032"/><path data-name="線 122329" d="M524.215 1369.904v-8.064"/><path data-name="線 122330" d="M517.371 1365.872h-3.618"/><path data-name="線 122331" d="M524.215 1369.904l1.613 3.226"/><path data-name="線 122332" d="M524.215 1361.84l1.613-3.204"/><path data-name="線 122333" d="M525.827 1423.867l20.138-5.231"/><path data-name="線 122334" d="M508.109 1436.769l5.231-20.138"/><path data-name="線 122335" d="M508.109 1396.886l5.231 19.746"/><path data-name="線 122336" d="M509.721 1437.162l14.493-14.101"/><path data-name="線 122337" d="M525.827 1422.254l19.746-5.623"/><path data-name="線 122338" d="M511.334 1438.774l14.493-14.907"/><path data-name="線 122339" d="M511.334 1394.88l14.493 14.907"/><path data-name="線 122340" d="M509.721 1396.493l14.493 14.079"/><path data-name="線 122341" d="M545.573 1416.631l-19.746-5.252"/><path data-name="線 122342" d="M545.965 1415.019l-20.138-5.231"/><path data-name="線 122343" d="M509.721 1437.162l5.645-19.332"/><path data-name="線 122344" d="M509.721 1396.493l5.645 19.332"/><path data-name="線 122345" d="M508.109 1440.388l1.613-3.226"/><path data-name="線 122346" d="M549.191 1416.631h-3.618"/><path data-name="線 122347" d="M525.827 1411.379v-1.591"/><path data-name="線 122348" d="M524.215 1410.573l1.613-.785"/><path data-name="線 122349" d="M525.827 1423.867v-1.613"/><path data-name="線 122350" d="M524.215 1423.061l1.613.806"/><path data-name="線 122351" d="M515.366 1417.83l-1.613-1.199"/><path data-name="線 122352" d="M515.366 1415.825l-1.613.806"/><path data-name="線 122353" d="M509.722 1396.494l-1.613-3.226"/><path data-name="線 122354" d="M511.335 1394.881l-3.226-1.613"/><path data-name="線 122355" d="M549.191 1416.632l-3.226-1.613"/><path data-name="線 122356" d="M515.366 1415.824l8.849-5.252"/><path data-name="線 122357" d="M515.366 1417.83l8.849 5.231"/><path data-name="線 122358" d="M525.827 1422.254v-10.875"/><path data-name="線 122359" d="M517.371 1416.632l6.843-3.64"/><path data-name="線 122360" d="M517.371 1416.631l6.843 4.01"/><path data-name="線 122361" d="M524.215 1420.642v-7.65"/><path data-name="線 122362" d="M517.371 1416.631h-3.618"/><path data-name="線 122363" d="M524.215 1420.642l1.613 3.226"/><path data-name="線 122364" d="M524.215 1412.992l1.613-3.204"/><path data-name="線 122365" d="M481.933 1398.499l19.724-5.231"/><path data-name="線 122366" d="M464.214 1411.379l5.231-20.138"/><path data-name="線 122367" d="M464.214 1371.103l5.231 20.138"/><path data-name="線 122368" d="M465.827 1411.793l14.493-14.101"/><path data-name="線 122369" d="M481.933 1396.493l19.332-5.252"/><path data-name="線 122370" d="M467.026 1412.991l14.907-14.493"/><path data-name="線 122371" d="M467.026 1369.512l14.907 14.886"/><path data-name="線 122372" d="M465.827 1370.71l14.493 14.493"/><path data-name="線 122373" d="M501.265 1391.241l-19.332-5.231"/><path data-name="線 122374" d="M501.657 1389.649l-19.724-5.252"/><path data-name="線 122375" d="M465.827 1411.793l5.231-19.332"/><path data-name="線 122376" d="M465.827 1370.71l5.231 19.724"/><path data-name="線 122377" d="M464.214 1415.019l1.613-3.226"/><path data-name="線 122378" d="M504.883 1391.241h-3.618"/><path data-name="線 122379" d="M481.933 1386.01v-1.613"/><path data-name="線 122380" d="M480.321 1385.203l1.613-.806"/><path data-name="線 122381" d="M481.933 1398.498v-2.005"/><path data-name="線 122382" d="M480.321 1397.692l1.613.806"/><path data-name="線 122383" d="M471.058 1392.461l-1.613-1.22"/><path data-name="線 122384" d="M471.058 1390.434l-1.613.806"/><path data-name="線 122385" d="M465.827 1370.71l-1.613-2.811"/><path data-name="線 122386" d="M467.025 1369.512l-2.811-1.613"/><path data-name="線 122387" d="M504.883 1391.241l-3.226-1.591"/><path data-name="線 122388" d="M471.058 1390.435l9.263-5.231"/><path data-name="線 122389" d="M471.058 1392.461l9.263 5.231"/><path data-name="線 122390" d="M481.933 1396.493v-10.483"/><path data-name="線 122391" d="M473.063 1391.241l6.865-3.618"/><path data-name="線 122392" d="M473.063 1391.241l6.865 4.032"/><path data-name="線 122393" d="M479.928 1395.273v-7.65"/><path data-name="線 122394" d="M473.063 1391.241h-3.618"/><path data-name="線 122395" d="M479.928 1395.273l2.005 3.226"/><path data-name="線 122396" d="M479.928 1387.623l2.005-3.226"/><path data-name="線 122397" d="M570.136 1398.499l19.746-5.231"/><path data-name="線 122398" d="M552.417 1411.379l5.231-20.138"/><path data-name="線 122399" d="M552.417 1371.103l5.231 20.138"/><path data-name="線 122400" d="M554.029 1411.793l14.493-14.101"/><path data-name="線 122401" d="M570.136 1396.493l19.332-5.252"/><path data-name="線 122402" d="M555.228 1412.991l14.907-14.493"/><path data-name="線 122403" d="M555.228 1369.512l14.907 14.886"/><path data-name="線 122404" d="M554.029 1370.71l14.493 14.493"/><path data-name="線 122405" d="M589.468 1391.241l-19.332-5.231"/><path data-name="線 122406" d="M589.882 1389.649l-19.746-5.252"/><path data-name="線 122407" d="M554.029 1411.793l5.231-19.332"/><path data-name="線 122408" d="M554.029 1370.71l5.231 19.724"/><path data-name="線 122409" d="M552.417 1415.019l1.613-3.226"/><path data-name="線 122410" d="M593.085 1391.241h-3.618"/><path data-name="線 122411" d="M570.136 1386.01v-1.613"/><path data-name="線 122412" d="M568.523 1385.203l1.613-.806"/><path data-name="線 122413" d="M570.136 1398.498v-2.005"/><path data-name="線 122414" d="M568.523 1397.692l1.613.806"/><path data-name="線 122415" d="M559.26 1392.461l-1.613-1.22"/><path data-name="線 122416" d="M559.26 1390.434l-1.613.806"/><path data-name="線 122417" d="M554.03 1370.71l-1.613-2.811"/><path data-name="線 122418" d="M555.228 1369.512l-2.811-1.613"/><path data-name="線 122419" d="M593.085 1391.241l-3.204-1.591"/><path data-name="線 122420" d="M559.26 1390.435l9.263-5.231"/><path data-name="線 122421" d="M559.26 1392.461l9.263 5.231"/><path data-name="線 122422" d="M570.136 1396.493v-10.483"/><path data-name="線 122423" d="M561.287 1391.241l6.843-3.618"/><path data-name="線 122424" d="M561.287 1391.241l6.843 4.032"/><path data-name="線 122425" d="M568.13 1395.273v-7.65"/><path data-name="線 122426" d="M561.287 1391.241h-3.64"/><path data-name="線 122427" d="M568.13 1395.273l2.005 3.226"/><path data-name="線 122428" d="M568.13 1387.623l2.005-3.226"/><path data-name="線 122429" d="M614.03 1373.13l20.138-5.645"/><path data-name="線 122430" d="M596.311 1386.01l5.252-20.138"/><path data-name="線 122431" d="M596.311 1345.734l5.252 20.138"/><path data-name="線 122432" d="M598.338 1386.424l14.079-14.515"/><path data-name="線 122433" d="M614.03 1371.103l19.746-5.231"/><path data-name="線 122434" d="M599.536 1387.623l14.493-14.493"/><path data-name="線 122435" d="M599.536 1344.121l14.493 14.515"/><path data-name="線 122436" d="M598.338 1345.342l14.079 14.493"/><path data-name="線 122437" d="M633.776 1365.872l-19.746-5.231"/><path data-name="線 122438" d="M634.168 1364.259l-20.138-5.623"/><path data-name="線 122439" d="M598.338 1386.424l5.231-19.746"/><path data-name="線 122440" d="M598.338 1345.342l5.231 19.724"/><path data-name="線 122441" d="M596.311 1389.65l2.027-3.226"/><path data-name="線 122442" d="M637.393 1365.872h-3.618"/><path data-name="線 122443" d="M614.03 1360.641v-2.005"/><path data-name="線 122444" d="M612.417 1359.835l1.613-1.199"/><path data-name="線 122445" d="M614.03 1373.13v-2.027"/><path data-name="線 122446" d="M612.417 1371.909l1.613 1.22"/><path data-name="線 122447" d="M603.568 1366.678l-1.613-.806"/><path data-name="線 122448" d="M603.568 1365.066l-1.613.806"/><path data-name="線 122449" d="M598.338 1345.342l-2.027-3.226"/><path data-name="線 122450" d="M599.537 1344.121l-3.226-2.005"/><path data-name="線 122451" d="M637.394 1365.872l-3.226-1.613"/><path data-name="線 122452" d="M603.568 1365.066l8.849-5.231"/><path data-name="線 122453" d="M603.568 1366.678l8.849 5.231"/><path data-name="線 122454" d="M614.03 1371.102v-10.461"/><path data-name="線 122455" d="M605.573 1365.872l6.843-4.032"/><path data-name="線 122456" d="M605.573 1365.872l6.843 4.032"/><path data-name="線 122457" d="M612.417 1369.904v-8.064"/><path data-name="線 122458" d="M605.573 1365.872h-3.618"/><path data-name="線 122459" d="M612.417 1369.904l1.613 3.226"/><path data-name="線 122460" d="M612.417 1361.84l1.613-3.204"/><path data-name="線 122461" d="M614.444 1423.867l19.724-5.231"/><path data-name="線 122462" d="M596.725 1437.162l5.231-20.138"/><path data-name="線 122463" d="M596.725 1396.886l5.231 20.138"/><path data-name="線 122464" d="M598.338 1437.576l14.493-14.515"/><path data-name="線 122465" d="M614.444 1422.255l19.332-5.231"/><path data-name="線 122466" d="M599.536 1438.774l14.907-14.907"/><path data-name="線 122467" d="M599.536 1395.273l14.907 14.515"/><path data-name="線 122468" d="M598.338 1396.493l14.493 14.079"/><path data-name="線 122469" d="M633.776 1417.024l-19.332-5.231"/><path data-name="線 122470" d="M634.168 1415.019l-19.724-5.231"/><path data-name="線 122471" d="M598.338 1437.576l5.231-19.746"/><path data-name="線 122472" d="M598.338 1396.493l5.231 19.332"/><path data-name="線 122473" d="M596.725 1440.387l1.613-2.811"/><path data-name="線 122474" d="M637.393 1417.024h-3.618"/><path data-name="線 122475" d="M614.444 1411.793v-2.005"/><path data-name="線 122476" d="M612.831 1410.573l1.613-.785"/><path data-name="線 122477" d="M614.444 1423.867v-1.613"/><path data-name="線 122478" d="M612.831 1423.061l1.613.806"/><path data-name="線 122479" d="M603.568 1417.83l-1.613-.806"/><path data-name="線 122480" d="M603.568 1415.825l-1.613 1.199"/><path data-name="線 122481" d="M598.338 1396.494l-1.613-3.226"/><path data-name="線 122482" d="M599.536 1395.273l-2.811-2.005"/><path data-name="線 122483" d="M637.394 1417.024l-3.226-2.005"/><path data-name="線 122484" d="M603.568 1415.824l9.263-5.252"/><path data-name="線 122485" d="M603.568 1417.83l9.263 5.231"/><path data-name="線 122486" d="M614.444 1422.254v-10.461"/><path data-name="線 122487" d="M605.573 1417.024l6.843-4.032"/><path data-name="線 122488" d="M605.573 1417.024l6.843 3.618"/><path data-name="線 122489" d="M612.417 1420.642v-7.65"/><path data-name="線 122490" d="M605.573 1417.024h-3.618"/><path data-name="線 122491" d="M612.417 1420.642l2.027 3.226"/><path data-name="線 122492" d="M612.417 1412.992l2.027-3.204"/><path data-name="線 122493" d="M570.136 1449.257l19.746-5.252"/><path data-name="線 122494" d="M552.417 1462.138l5.231-19.746"/><path data-name="線 122495" d="M552.417 1422.254l5.231 20.138"/><path data-name="線 122496" d="M554.029 1462.53l14.493-14.079"/><path data-name="線 122497" d="M570.136 1447.644l19.332-5.252"/><path data-name="線 122498" d="M555.228 1463.751l14.907-14.493"/><path data-name="線 122499" d="M555.228 1420.642l14.907 14.515"/><path data-name="線 122500" d="M554.029 1421.862l14.493 14.101"/><path data-name="線 122501" d="M589.468 1442.393l-19.332-5.231"/><path data-name="線 122502" d="M589.882 1440.388l-19.746-5.231"/><path data-name="線 122503" d="M554.029 1462.531l5.231-19.332"/><path data-name="線 122504" d="M554.029 1421.862l5.231 19.332"/><path data-name="線 122505" d="M552.417 1465.363l1.613-2.833"/><path data-name="線 122506" d="M593.085 1442.392h-3.618"/><path data-name="線 122507" d="M570.136 1437.162v-2.005"/><path data-name="線 122508" d="M568.523 1435.963l1.613-.806"/><path data-name="線 122509" d="M570.136 1449.258v-1.613"/><path data-name="線 122510" d="M568.523 1448.451l1.613.806"/><path data-name="線 122511" d="M559.26 1443.198l-1.613-.806"/><path data-name="線 122512" d="M559.26 1441.194l-1.613 1.199"/><path data-name="線 122513" d="M554.03 1421.862l-1.613-3.226"/><path data-name="線 122514" d="M555.228 1420.641l-2.811-2.005"/><path data-name="線 122515" d="M593.085 1442.392l-3.204-2.005"/><path data-name="線 122516" d="M559.26 1441.194l9.263-5.231"/><path data-name="線 122517" d="M559.26 1443.199l9.263 5.252"/><path data-name="線 122518" d="M570.136 1447.645v-10.483"/><path data-name="線 122519" d="M561.287 1442.392l6.843-4.01"/><path data-name="線 122520" d="M561.287 1442.392l6.843 3.64"/><path data-name="線 122521" d="M568.13 1446.032v-7.65"/><path data-name="線 122522" d="M561.287 1442.392h-3.64"/><path data-name="線 122523" d="M568.13 1446.032l2.005 3.226"/><path data-name="線 122524" d="M568.13 1438.383l2.005-3.226"/><path data-name="線 122525" d="M481.933 1449.257l19.724-5.252"/><path data-name="線 122526" d="M464.214 1462.138l5.231-19.746"/><path data-name="線 122527" d="M464.214 1422.254l5.231 20.138"/><path data-name="線 122528" d="M465.827 1462.53l14.493-14.079"/><path data-name="線 122529" d="M481.933 1447.644l19.332-5.252"/><path data-name="線 122530" d="M467.026 1463.751l14.907-14.493"/><path data-name="線 122531" d="M467.026 1420.642l14.907 14.515"/><path data-name="線 122532" d="M465.827 1421.862l14.493 14.101"/><path data-name="線 122533" d="M501.265 1442.393l-19.332-5.231"/><path data-name="線 122534" d="M501.657 1440.388l-19.724-5.231"/><path data-name="線 122535" d="M465.827 1462.531l5.231-19.332"/><path data-name="線 122536" d="M465.827 1421.862l5.231 19.332"/><path data-name="線 122537" d="M464.214 1465.363l1.613-2.833"/><path data-name="線 122538" d="M504.883 1442.392h-3.618"/><path data-name="線 122539" d="M481.933 1437.162v-2.005"/><path data-name="線 122540" d="M480.321 1435.963l1.613-.806"/><path data-name="線 122541" d="M481.933 1449.258v-1.613"/><path data-name="線 122542" d="M480.321 1448.451l1.613.806"/><path data-name="線 122543" d="M471.058 1443.198l-1.613-.806"/><path data-name="線 122544" d="M471.058 1441.194l-1.613 1.199"/><path data-name="線 122545" d="M465.827 1421.862l-1.613-3.226"/><path data-name="線 122546" d="M467.025 1420.641l-2.811-2.005"/><path data-name="線 122547" d="M504.883 1442.392l-3.226-2.005"/><path data-name="線 122548" d="M471.058 1441.194l9.263-5.231"/><path data-name="線 122549" d="M471.058 1443.199l9.263 5.252"/><path data-name="線 122550" d="M481.933 1447.645v-10.483"/><path data-name="線 122551" d="M473.063 1442.392l6.865-4.01"/><path data-name="線 122552" d="M473.063 1442.392l6.865 3.64"/><path data-name="線 122553" d="M479.928 1446.032v-7.65"/><path data-name="線 122554" d="M473.063 1442.392h-3.618"/><path data-name="線 122555" d="M479.928 1446.032l2.005 3.226"/><path data-name="線 122556" d="M479.928 1438.383l2.005-3.226"/><path data-name="線 122557" d="M525.827 1474.627l20.138-5.645"/><path data-name="線 122558" d="M508.109 1487.507l5.231-20.138"/><path data-name="線 122559" d="M508.109 1447.645l5.231 19.724"/><path data-name="線 122560" d="M509.721 1487.921l14.493-14.515"/><path data-name="線 122561" d="M525.827 1472.6l19.746-5.231"/><path data-name="線 122562" d="M511.334 1489.119l14.493-14.493"/><path data-name="線 122563" d="M511.334 1446.032l14.493 14.101"/><path data-name="線 122564" d="M509.721 1447.231l14.493 14.101"/><path data-name="線 122565" d="M545.573 1467.369l-19.746-5.231"/><path data-name="線 122566" d="M545.965 1465.756l-20.138-5.623"/><path data-name="線 122567" d="M509.721 1487.921l5.645-19.746"/><path data-name="線 122568" d="M509.721 1447.231l5.645 19.332"/><path data-name="線 122569" d="M508.109 1491.125l1.613-3.204"/><path data-name="線 122570" d="M549.191 1467.369h-3.618"/><path data-name="線 122571" d="M525.827 1462.138v-2.005"/><path data-name="線 122572" d="M524.215 1461.332l1.613-1.199"/><path data-name="線 122573" d="M525.827 1474.627v-2.027"/><path data-name="線 122574" d="M524.215 1473.406l1.613 1.22"/><path data-name="線 122575" d="M515.366 1468.175l-1.613-.806"/><path data-name="線 122576" d="M515.366 1466.562l-1.613.806"/><path data-name="線 122577" d="M509.722 1447.231l-1.613-3.226"/><path data-name="線 122578" d="M511.335 1446.032l-3.226-2.027"/><path data-name="線 122579" d="M549.191 1467.369l-3.226-1.613"/><path data-name="線 122580" d="M515.366 1466.563l8.849-5.231"/><path data-name="線 122581" d="M515.366 1468.175l8.849 5.231"/><path data-name="線 122582" d="M525.827 1472.599v-10.461"/><path data-name="線 122583" d="M517.371 1467.369l6.843-4.032"/><path data-name="線 122584" d="M517.371 1467.369l6.843 4.032"/><path data-name="線 122585" d="M524.215 1471.401v-8.064"/><path data-name="線 122586" d="M517.371 1467.369h-3.618"/><path data-name="線 122587" d="M524.215 1471.401l1.613 3.226"/><path data-name="線 122588" d="M524.215 1463.337l1.613-3.204"/><path data-name="線 122589" d="M481.933 1499.995l19.724-5.231"/><path data-name="線 122590" d="M464.214 1512.876l5.231-20.138"/><path data-name="線 122591" d="M464.214 1472.6l5.231 20.138"/><path data-name="線 122592" d="M465.827 1513.29l14.493-14.101"/><path data-name="線 122593" d="M481.933 1497.99l19.332-5.252"/><path data-name="線 122594" d="M467.026 1514.488l14.907-14.493"/><path data-name="線 122595" d="M467.026 1470.987l14.907 14.515"/><path data-name="線 122596" d="M465.827 1472.207l14.493 14.493"/><path data-name="線 122597" d="M501.265 1492.738l-19.332-5.231"/><path data-name="線 122598" d="M501.657 1491.125l-19.724-5.623"/><path data-name="線 122599" d="M465.827 1513.29l5.231-19.746"/><path data-name="線 122600" d="M465.827 1472.207l5.231 19.724"/><path data-name="線 122601" d="M464.214 1516.516l1.613-3.226"/><path data-name="線 122602" d="M504.883 1492.738h-3.618"/><path data-name="線 122603" d="M481.933 1487.507v-1.613"/><path data-name="線 122604" d="M480.321 1486.7l1.613-.806"/><path data-name="線 122605" d="M481.933 1499.995v-2.005"/><path data-name="線 122606" d="M480.321 1499.189l1.613.806"/><path data-name="線 122607" d="M471.058 1493.544l-1.613-.806"/><path data-name="線 122608" d="M471.058 1491.931l-1.613.806"/><path data-name="線 122609" d="M465.827 1472.207l-1.613-2.811"/><path data-name="線 122610" d="M467.025 1470.987l-2.811-1.591"/><path data-name="線 122611" d="M504.883 1492.738l-3.226-1.613"/><path data-name="線 122612" d="M471.058 1491.932l9.263-5.231"/><path data-name="線 122613" d="M471.058 1493.544l9.263 5.645"/><path data-name="線 122614" d="M481.933 1497.99v-10.483"/><path data-name="線 122615" d="M473.063 1492.737l6.865-4.01"/><path data-name="線 122616" d="M473.063 1492.738l6.865 4.032"/><path data-name="線 122617" d="M479.928 1496.769v-8.042"/><path data-name="線 122618" d="M473.063 1492.738h-3.618"/><path data-name="線 122619" d="M479.928 1496.77l2.005 3.226"/><path data-name="線 122620" d="M479.928 1488.727l2.005-2.833"/><path data-name="線 122621" d="M525.827 1525.364l20.138-5.231"/><path data-name="線 122622" d="M508.109 1538.266l5.231-20.138"/><path data-name="線 122623" d="M508.109 1498.382l5.231 19.746"/><path data-name="線 122624" d="M509.721 1538.659l14.493-14.101"/><path data-name="線 122625" d="M525.827 1523.359l19.746-5.231"/><path data-name="線 122626" d="M511.334 1540.271l14.493-14.907"/><path data-name="線 122627" d="M511.334 1496.377l14.493 14.886"/><path data-name="線 122628" d="M509.721 1497.576l14.493 14.493"/><path data-name="線 122629" d="M545.573 1518.128l-19.746-5.252"/><path data-name="線 122630" d="M545.965 1516.515l-20.138-5.252"/><path data-name="線 122631" d="M509.721 1538.659l5.645-19.332"/><path data-name="線 122632" d="M509.721 1497.576l5.645 19.746"/><path data-name="線 122633" d="M508.109 1541.885l1.613-3.226"/><path data-name="線 122634" d="M549.191 1518.128h-3.618"/><path data-name="線 122635" d="M525.827 1512.876v-1.613"/><path data-name="線 122636" d="M524.215 1512.069l1.613-.806"/><path data-name="線 122637" d="M525.827 1525.364v-2.005"/><path data-name="線 122638" d="M524.215 1524.558l1.613.806"/><path data-name="線 122639" d="M515.366 1519.327l-1.613-1.199"/><path data-name="線 122640" d="M515.366 1517.322l-1.613.806"/><path data-name="線 122641" d="M509.722 1497.575l-1.613-2.811"/><path data-name="線 122642" d="M511.335 1496.377l-3.226-1.613"/><path data-name="線 122643" d="M549.191 1518.128l-3.226-1.613"/><path data-name="線 122644" d="M515.366 1517.321l8.849-5.252"/><path data-name="線 122645" d="M515.366 1519.327l8.849 5.231"/><path data-name="線 122646" d="M525.827 1523.359v-10.483"/><path data-name="線 122647" d="M517.371 1518.128l6.843-3.64"/><path data-name="線 122648" d="M517.371 1518.128l6.843 4.01"/><path data-name="線 122649" d="M524.215 1522.138v-7.65"/><path data-name="線 122650" d="M517.371 1518.128h-3.618"/><path data-name="線 122651" d="M524.215 1522.138l1.613 3.226"/><path data-name="線 122652" d="M524.215 1514.489l1.613-3.226"/><path data-name="線 122653" d="M570.136 1499.995l19.746-5.231"/><path data-name="線 122654" d="M552.417 1512.876l5.231-20.138"/><path data-name="線 122655" d="M552.417 1472.6l5.231 20.138"/><path data-name="線 122656" d="M554.029 1513.29l14.493-14.101"/><path data-name="線 122657" d="M570.136 1497.99l19.332-5.252"/><path data-name="線 122658" d="M555.228 1514.488l14.907-14.493"/><path data-name="線 122659" d="M555.228 1470.987l14.907 14.515"/><path data-name="線 122660" d="M554.029 1472.207l14.493 14.493"/><path data-name="線 122661" d="M589.468 1492.738l-19.332-5.231"/><path data-name="線 122662" d="M589.882 1491.125l-19.746-5.623"/><path data-name="線 122663" d="M554.029 1513.29l5.231-19.746"/><path data-name="線 122664" d="M554.029 1472.207l5.231 19.724"/><path data-name="線 122665" d="M552.417 1516.516l1.613-3.226"/><path data-name="線 122666" d="M593.085 1492.738h-3.618"/><path data-name="線 122667" d="M570.136 1487.507v-1.613"/><path data-name="線 122668" d="M568.523 1486.7l1.613-.806"/><path data-name="線 122669" d="M570.136 1499.995v-2.005"/><path data-name="線 122670" d="M568.523 1499.189l1.613.806"/><path data-name="線 122671" d="M559.26 1493.544l-1.613-.806"/><path data-name="線 122672" d="M559.26 1491.931l-1.613.806"/><path data-name="線 122673" d="M554.03 1472.207l-1.613-2.811"/><path data-name="線 122674" d="M555.228 1470.987l-2.811-1.591"/><path data-name="線 122675" d="M593.085 1492.738l-3.204-1.613"/><path data-name="線 122676" d="M559.26 1491.932l9.263-5.231"/><path data-name="線 122677" d="M559.26 1493.544l9.263 5.645"/><path data-name="線 122678" d="M570.136 1497.99v-10.483"/><path data-name="線 122679" d="M561.287 1492.737l6.843-4.01"/><path data-name="線 122680" d="M561.287 1492.738l6.843 4.032"/><path data-name="線 122681" d="M568.13 1496.769v-8.042"/><path data-name="線 122682" d="M561.287 1492.738h-3.64"/><path data-name="線 122683" d="M568.13 1496.77l2.005 3.226"/><path data-name="線 122684" d="M568.13 1488.727l2.005-2.833"/><path data-name="線 122685" d="M614.03 1474.627l20.138-5.645"/><path data-name="線 122686" d="M596.311 1487.507l5.252-20.138"/><path data-name="線 122687" d="M596.311 1447.645l5.252 19.724"/><path data-name="線 122688" d="M598.338 1487.921l14.079-14.515"/><path data-name="線 122689" d="M614.03 1472.6l19.746-5.231"/><path data-name="線 122690" d="M599.536 1489.119l14.493-14.493"/><path data-name="線 122691" d="M599.536 1446.032l14.493 14.101"/><path data-name="線 122692" d="M598.338 1447.231l14.079 14.101"/><path data-name="線 122693" d="M633.776 1467.369l-19.746-5.231"/><path data-name="線 122694" d="M634.168 1465.756l-20.138-5.623"/><path data-name="線 122695" d="M598.338 1487.921l5.231-19.746"/><path data-name="線 122696" d="M598.338 1447.231l5.231 19.332"/><path data-name="線 122697" d="M596.311 1491.125l2.027-3.204"/><path data-name="線 122698" d="M637.393 1467.369h-3.618"/><path data-name="線 122699" d="M614.03 1462.138v-2.005"/><path data-name="線 122700" d="M612.417 1461.332l1.613-1.199"/><path data-name="線 122701" d="M614.03 1474.627v-2.027"/><path data-name="線 122702" d="M612.417 1473.406l1.613 1.22"/><path data-name="線 122703" d="M603.568 1468.175l-1.613-.806"/><path data-name="線 122704" d="M603.568 1466.562l-1.613.806"/><path data-name="線 122705" d="M598.338 1447.231l-2.027-3.226"/><path data-name="線 122706" d="M599.537 1446.032l-3.226-2.027"/><path data-name="線 122707" d="M637.394 1467.369l-3.226-1.613"/><path data-name="線 122708" d="M603.568 1466.563l8.849-5.231"/><path data-name="線 122709" d="M603.568 1468.175l8.849 5.231"/><path data-name="線 122710" d="M614.03 1472.599v-10.461"/><path data-name="線 122711" d="M605.573 1467.369l6.843-4.032"/><path data-name="線 122712" d="M605.573 1467.369l6.843 4.032"/><path data-name="線 122713" d="M612.417 1471.401v-8.064"/><path data-name="線 122714" d="M605.573 1467.369h-3.618"/><path data-name="線 122715" d="M612.417 1471.401l1.613 3.226"/><path data-name="線 122716" d="M612.417 1463.337l1.613-3.204"/><path data-name="線 122717" d="M614.03 1525.364l20.138-5.231"/><path data-name="線 122718" d="M596.311 1538.266l5.252-20.138"/><path data-name="線 122719" d="M596.311 1498.382l5.252 19.746"/><path data-name="線 122720" d="M598.338 1538.659l14.079-14.101"/><path data-name="線 122721" d="M614.03 1523.359l19.746-5.231"/><path data-name="線 122722" d="M599.536 1540.271l14.493-14.907"/><path data-name="線 122723" d="M599.536 1496.377l14.493 14.886"/><path data-name="線 122724" d="M598.338 1497.576l14.079 14.493"/><path data-name="線 122725" d="M633.776 1518.128l-19.746-5.252"/><path data-name="線 122726" d="M634.168 1516.515l-20.138-5.252"/><path data-name="線 122727" d="M598.338 1538.659l5.231-19.332"/><path data-name="線 122728" d="M598.338 1497.576l5.231 19.746"/><path data-name="線 122729" d="M596.311 1541.885l2.027-3.226"/><path data-name="線 122730" d="M637.393 1518.128h-3.618"/><path data-name="線 122731" d="M614.03 1512.876v-1.613"/><path data-name="線 122732" d="M612.417 1512.069l1.613-.806"/><path data-name="線 122733" d="M614.03 1525.364v-2.005"/><path data-name="線 122734" d="M612.417 1524.558l1.613.806"/><path data-name="線 122735" d="M603.568 1519.327l-1.613-1.199"/><path data-name="線 122736" d="M603.568 1517.322l-1.613.806"/><path data-name="線 122737" d="M598.338 1497.575l-2.027-2.811"/><path data-name="線 122738" d="M599.537 1496.377l-3.226-1.613"/><path data-name="線 122739" d="M637.394 1518.128l-3.226-1.613"/><path data-name="線 122740" d="M603.568 1517.321l8.849-5.252"/><path data-name="線 122741" d="M603.568 1519.327l8.849 5.231"/><path data-name="線 122742" d="M614.03 1523.359v-10.483"/><path data-name="線 122743" d="M605.573 1518.128l6.843-3.64"/><path data-name="線 122744" d="M605.573 1518.128l6.843 4.01"/><path data-name="線 122745" d="M612.417 1522.138v-7.65"/><path data-name="線 122746" d="M605.573 1518.128h-3.618"/><path data-name="線 122747" d="M612.417 1522.138l1.613 3.226"/><path data-name="線 122748" d="M612.417 1514.489l1.613-3.226"/><path data-name="線 122749" d="M500.459 1365.872l5.645-20.138"/><path data-name="線 122750" d="M502.878 1387.623l-14.493-14.493"/><path data-name="線 122751" d="M468.246 1367.485l20.138 5.645"/><path data-name="線 122752" d="M504.077 1386.424l-5.231-19.746"/><path data-name="線 122753" d="M498.846 1365.066l5.231-19.724"/><path data-name="線 122754" d="M506.104 1386.01l-5.645-20.138"/><path data-name="線 122755" d="M468.246 1364.259l20.138-5.623"/><path data-name="線 122756" d="M468.639 1365.872l19.746-5.231"/><path data-name="線 122757" d="M504.076 1345.342l-14.079 14.493"/><path data-name="線 122758" d="M502.878 1344.121l-14.493 14.515"/><path data-name="線 122759" d="M504.076 1386.424l-14.079-14.515"/><path data-name="線 122760" d="M468.639 1365.872l19.746 5.231"/><path data-name="線 122761" d="M506.104 1389.65l-2.027-3.226"/><path data-name="線 122762" d="M504.077 1345.342l2.027-3.226"/><path data-name="線 122763" d="M489.998 1359.835l-1.613-1.199"/><path data-name="線 122764" d="M488.385 1360.641v-2.005"/><path data-name="線 122765" d="M498.846 1365.066l1.613.806"/><path data-name="線 122766" d="M498.846 1366.678l1.613-.806"/><path data-name="線 122767" d="M489.998 1371.909l-1.613 1.22"/><path data-name="線 122768" d="M488.385 1373.13v-2.027"/><path data-name="線 122769" d="M468.639 1365.872h-3.618"/><path data-name="線 122770" d="M468.247 1364.259l-3.226 1.613"/><path data-name="線 122771" d="M506.104 1342.116l-3.226 2.005"/><path data-name="線 122772" d="M488.385 1371.102v-10.461"/><path data-name="線 122773" d="M489.997 1371.909l8.849-5.231"/><path data-name="線 122774" d="M498.846 1365.066l-8.849-5.231"/><path data-name="線 122775" d="M489.997 1369.904v-8.064"/><path data-name="線 122776" d="M489.997 1369.904l6.843-4.032"/><path data-name="線 122777" d="M496.84 1365.872l-6.843-4.032"/><path data-name="線 122778" d="M488.385 1373.13l1.613-3.226"/><path data-name="線 122779" d="M500.459 1365.872h-3.618"/><path data-name="線 122780" d="M489.998 1361.84l-1.613-3.204"/><path data-name="線 122781" d="M500.459 1416.632l5.645-19.746"/><path data-name="線 122782" d="M502.878 1438.774l-14.493-14.907"/><path data-name="線 122783" d="M468.246 1418.636l20.138 5.231"/><path data-name="線 122784" d="M504.077 1437.162l-5.231-19.332"/><path data-name="線 122785" d="M498.846 1415.825l5.231-19.332"/><path data-name="線 122786" d="M506.104 1436.769l-5.645-20.138"/><path data-name="線 122787" d="M468.246 1415.019l20.138-5.231"/><path data-name="線 122788" d="M468.639 1416.631l19.746-5.252"/><path data-name="線 122789" d="M504.076 1396.493l-14.079 14.079"/><path data-name="線 122790" d="M502.878 1394.88l-14.493 14.907"/><path data-name="線 122791" d="M504.076 1437.162l-14.079-14.101"/><path data-name="線 122792" d="M468.639 1416.631l19.746 5.623"/><path data-name="線 122793" d="M506.104 1440.388l-2.027-3.226"/><path data-name="線 122794" d="M504.077 1396.494l2.027-3.226"/><path data-name="線 122795" d="M489.998 1410.573l-1.613-.785"/><path data-name="線 122796" d="M488.385 1411.379v-1.591"/><path data-name="線 122797" d="M498.846 1415.825l1.613.806"/><path data-name="線 122798" d="M498.846 1417.83l1.613-1.199"/><path data-name="線 122799" d="M489.998 1423.061l-1.613.806"/><path data-name="線 122800" d="M488.385 1423.867v-1.613"/><path data-name="線 122801" d="M468.639 1416.631h-3.618"/><path data-name="線 122802" d="M468.247 1415.019l-3.226 1.613"/><path data-name="線 122803" d="M506.104 1393.268l-3.226 1.613"/><path data-name="線 122804" d="M488.385 1422.254v-10.875"/><path data-name="線 122805" d="M489.997 1423.061l8.849-5.231"/><path data-name="線 122806" d="M498.846 1415.824l-8.849-5.252"/><path data-name="線 122807" d="M489.997 1420.642v-7.65"/><path data-name="線 122808" d="M489.997 1420.641l6.843-4.01"/><path data-name="線 122809" d="M496.84 1416.632l-6.843-3.64"/><path data-name="線 122810" d="M488.385 1423.868l1.613-3.226"/><path data-name="線 122811" d="M500.459 1416.631h-3.618"/><path data-name="線 122812" d="M489.998 1412.992l-1.613-3.204"/><path data-name="線 122813" d="M544.767 1391.241l5.231-20.138"/><path data-name="線 122814" d="M547.186 1412.991l-14.907-14.493"/><path data-name="線 122815" d="M512.14 1393.268l20.138 5.231"/><path data-name="線 122816" d="M548.385 1411.793l-5.231-19.332"/><path data-name="線 122817" d="M543.154 1390.434l5.231-19.724"/><path data-name="線 122818" d="M549.998 1411.379l-5.231-20.138"/><path data-name="線 122819" d="M512.14 1389.649l20.138-5.252"/><path data-name="線 122820" d="M512.947 1391.241l19.332-5.231"/><path data-name="線 122821" d="M548.384 1370.71l-14.493 14.493"/><path data-name="線 122822" d="M547.186 1369.512l-14.907 14.886"/><path data-name="線 122823" d="M548.384 1411.793l-14.493-14.101"/><path data-name="線 122824" d="M512.947 1391.241l19.332 5.252"/><path data-name="線 122825" d="M549.998 1415.019l-1.613-3.226"/><path data-name="線 122826" d="M548.385 1370.71l1.613-2.811"/><path data-name="線 122827" d="M533.892 1385.203l-1.613-.806"/><path data-name="線 122828" d="M532.279 1386.01v-1.613"/><path data-name="線 122829" d="M543.154 1390.434l1.613.806"/><path data-name="線 122830" d="M543.154 1392.461l1.613-1.22"/><path data-name="線 122831" d="M533.892 1397.692l-1.613.806"/><path data-name="線 122832" d="M532.279 1398.498v-2.005"/><path data-name="線 122833" d="M512.947 1391.241h-3.618"/><path data-name="線 122834" d="M512.14 1389.65l-2.811 1.591"/><path data-name="線 122835" d="M549.997 1367.899l-2.811 1.613"/><path data-name="線 122836" d="M532.279 1396.493v-10.483"/><path data-name="線 122837" d="M533.891 1397.692l9.263-5.231"/><path data-name="線 122838" d="M543.154 1390.435l-9.263-5.231"/><path data-name="線 122839" d="M534.284 1395.273v-7.65"/><path data-name="線 122840" d="M534.284 1395.273l6.865-4.032"/><path data-name="線 122841" d="M541.149 1391.241l-6.865-3.618"/><path data-name="線 122842" d="M532.279 1398.499l2.005-3.226"/><path data-name="線 122843" d="M544.767 1391.241h-3.618"/><path data-name="線 122844" d="M534.284 1387.623l-2.005-3.226"/><path data-name="線 122845" d="M500.459 1467.369l5.645-19.724"/><path data-name="線 122846" d="M502.878 1489.119l-14.493-14.493"/><path data-name="線 122847" d="M468.246 1468.982l20.138 5.645"/><path data-name="線 122848" d="M504.077 1487.921l-5.231-19.746"/><path data-name="線 122849" d="M498.846 1466.563l5.231-19.332"/><path data-name="線 122850" d="M506.104 1487.507l-5.645-20.138"/><path data-name="線 122851" d="M468.246 1465.756l20.138-5.623"/><path data-name="線 122852" d="M468.639 1467.369l19.746-5.231"/><path data-name="線 122853" d="M504.076 1447.231l-14.079 14.101"/><path data-name="線 122854" d="M502.878 1446.032l-14.493 14.101"/><path data-name="線 122855" d="M504.076 1487.921l-14.079-14.515"/><path data-name="線 122856" d="M468.639 1467.369l19.746 5.231"/><path data-name="線 122857" d="M506.104 1491.125l-2.027-3.204"/><path data-name="線 122858" d="M504.077 1447.231l2.027-3.226"/><path data-name="線 122859" d="M489.998 1461.332l-1.613-1.199"/><path data-name="線 122860" d="M488.385 1462.138v-2.005"/><path data-name="線 122861" d="M498.846 1466.562l1.613.806"/><path data-name="線 122862" d="M498.846 1468.175l1.613-.806"/><path data-name="線 122863" d="M489.998 1473.406l-1.613 1.22"/><path data-name="線 122864" d="M488.385 1474.627v-2.027"/><path data-name="線 122865" d="M468.639 1467.369h-3.618"/><path data-name="線 122866" d="M468.247 1465.756l-3.226 1.613"/><path data-name="線 122867" d="M506.104 1444.005l-3.226 2.027"/><path data-name="線 122868" d="M488.385 1472.599v-10.461"/><path data-name="線 122869" d="M489.997 1473.406l8.849-5.231"/><path data-name="線 122870" d="M498.846 1466.563l-8.849-5.231"/><path data-name="線 122871" d="M489.997 1471.401v-8.064"/><path data-name="線 122872" d="M489.997 1471.401l6.843-4.032"/><path data-name="線 122873" d="M496.84 1467.369l-6.843-4.032"/><path data-name="線 122874" d="M488.385 1474.627l1.613-3.226"/><path data-name="線 122875" d="M500.459 1467.369h-3.618"/><path data-name="線 122876" d="M489.998 1463.337l-1.613-3.204"/><path data-name="線 122877" d="M500.459 1518.128l5.645-19.746"/><path data-name="線 122878" d="M502.878 1540.271l-14.493-14.907"/><path data-name="線 122879" d="M468.246 1520.133l20.138 5.231"/><path data-name="線 122880" d="M504.077 1538.659l-5.231-19.332"/><path data-name="線 122881" d="M498.846 1517.322l5.231-19.746"/><path data-name="線 122882" d="M506.104 1538.266l-5.645-20.138"/><path data-name="線 122883" d="M468.246 1516.515l20.138-5.252"/><path data-name="線 122884" d="M468.639 1518.128l19.746-5.252"/><path data-name="線 122885" d="M504.076 1497.576l-14.079 14.493"/><path data-name="線 122886" d="M502.878 1496.377l-14.493 14.886"/><path data-name="線 122887" d="M504.076 1538.659l-14.079-14.101"/><path data-name="線 122888" d="M468.639 1518.128l19.746 5.231"/><path data-name="線 122889" d="M506.104 1541.885l-2.027-3.226"/><path data-name="線 122890" d="M504.077 1497.575l2.027-2.811"/><path data-name="線 122891" d="M489.998 1512.069l-1.613-.806"/><path data-name="線 122892" d="M488.385 1512.876v-1.613"/><path data-name="線 122893" d="M498.846 1517.322l1.613.806"/><path data-name="線 122894" d="M498.846 1519.327l1.613-1.199"/><path data-name="線 122895" d="M489.998 1524.558l-1.613.806"/><path data-name="線 122896" d="M488.385 1525.364v-2.005"/><path data-name="線 122897" d="M468.639 1518.128h-3.618"/><path data-name="線 122898" d="M468.247 1516.515l-3.226 1.613"/><path data-name="線 122899" d="M506.104 1494.764l-3.226 1.613"/><path data-name="線 122900" d="M488.385 1523.359v-10.483"/><path data-name="線 122901" d="M489.997 1524.558l8.849-5.231"/><path data-name="線 122902" d="M498.846 1517.321l-8.849-5.252"/><path data-name="線 122903" d="M489.997 1522.138v-7.65"/><path data-name="線 122904" d="M489.997 1522.138l6.843-4.01"/><path data-name="線 122905" d="M496.84 1518.128l-6.843-3.64"/><path data-name="線 122906" d="M488.385 1525.364l1.613-3.226"/><path data-name="線 122907" d="M500.459 1518.128h-3.618"/><path data-name="線 122908" d="M489.998 1514.489l-1.613-3.226"/><path data-name="線 122909" d="M544.767 1492.738l5.231-20.138"/><path data-name="線 122910" d="M547.186 1514.488l-14.907-14.493"/><path data-name="線 122911" d="M512.14 1494.764l20.138 5.231"/><path data-name="線 122912" d="M548.385 1513.29l-5.231-19.746"/><path data-name="線 122913" d="M543.154 1491.931l5.231-19.724"/><path data-name="線 122914" d="M549.998 1512.876l-5.231-20.138"/><path data-name="線 122915" d="M512.14 1491.125l20.138-5.623"/><path data-name="線 122916" d="M512.947 1492.738l19.332-5.231"/><path data-name="線 122917" d="M548.384 1472.207l-14.493 14.493"/><path data-name="線 122918" d="M547.186 1470.987l-14.907 14.515"/><path data-name="線 122919" d="M548.384 1513.29l-14.493-14.101"/><path data-name="線 122920" d="M512.947 1492.738l19.332 5.252"/><path data-name="線 122921" d="M549.998 1516.516l-1.613-3.226"/><path data-name="線 122922" d="M548.385 1472.207l1.613-2.811"/><path data-name="線 122923" d="M533.892 1486.7l-1.613-.806"/><path data-name="線 122924" d="M532.279 1487.507v-1.613"/><path data-name="線 122925" d="M543.154 1491.931l1.613.806"/><path data-name="線 122926" d="M543.154 1493.544l1.613-.806"/><path data-name="線 122927" d="M533.892 1499.189l-1.613.806"/><path data-name="線 122928" d="M532.279 1499.995v-2.005"/><path data-name="線 122929" d="M512.947 1492.738h-3.618"/><path data-name="線 122930" d="M512.14 1491.125l-2.811 1.613"/><path data-name="線 122931" d="M549.997 1469.396l-2.811 1.591"/><path data-name="線 122932" d="M532.279 1497.99v-10.483"/><path data-name="線 122933" d="M533.891 1499.189l9.263-5.645"/><path data-name="線 122934" d="M543.154 1491.932l-9.263-5.231"/><path data-name="線 122935" d="M534.284 1496.769v-8.042"/><path data-name="線 122936" d="M534.284 1496.77l6.865-4.032"/><path data-name="線 122937" d="M541.149 1492.737l-6.865-4.01"/><path data-name="線 122938" d="M532.279 1499.996l2.005-3.226"/><path data-name="線 122939" d="M544.767 1492.738h-3.618"/><path data-name="線 122940" d="M534.284 1488.727l-2.005-2.833"/><path data-name="線 122941" d="M544.767 1442.392l5.231-20.138"/><path data-name="線 122942" d="M547.186 1463.751l-14.907-14.493"/><path data-name="線 122943" d="M512.14 1444.005l20.138 5.252"/><path data-name="線 122944" d="M548.385 1462.531l-5.231-19.332"/><path data-name="線 122945" d="M543.154 1441.194l5.231-19.332"/><path data-name="線 122946" d="M549.998 1462.138l-5.231-19.746"/><path data-name="線 122947" d="M512.14 1440.388l20.138-5.231"/><path data-name="線 122948" d="M512.947 1442.393l19.332-5.231"/><path data-name="線 122949" d="M548.384 1421.862l-14.493 14.101"/><path data-name="線 122950" d="M547.186 1420.642l-14.907 14.515"/><path data-name="線 122951" d="M548.384 1462.53l-14.493-14.079"/><path data-name="線 122952" d="M512.947 1442.392l19.332 5.252"/><path data-name="線 122953" d="M549.998 1465.363l-1.613-2.833"/><path data-name="線 122954" d="M548.385 1421.862l1.613-3.226"/><path data-name="線 122955" d="M533.892 1435.963l-1.613-.806"/><path data-name="線 122956" d="M532.279 1437.162v-2.005"/><path data-name="線 122957" d="M543.154 1441.194l1.613 1.199"/><path data-name="線 122958" d="M543.154 1443.198l1.613-.806"/><path data-name="線 122959" d="M533.892 1448.451l-1.613.806"/><path data-name="線 122960" d="M532.279 1449.258v-1.613"/><path data-name="線 122961" d="M512.947 1442.392h-3.618"/><path data-name="線 122962" d="M512.14 1440.387l-2.811 2.005"/><path data-name="線 122963" d="M549.997 1418.636l-2.811 2.005"/><path data-name="線 122964" d="M532.279 1447.645v-10.483"/><path data-name="線 122965" d="M533.891 1448.451l9.263-5.252"/><path data-name="線 122966" d="M543.154 1441.194l-9.263-5.231"/><path data-name="線 122967" d="M534.284 1446.032v-7.65"/><path data-name="線 122968" d="M534.284 1446.032l6.865-3.64"/><path data-name="線 122969" d="M541.149 1442.392l-6.865-4.01"/><path data-name="線 122970" d="M532.279 1449.258l2.005-3.226"/><path data-name="線 122971" d="M544.767 1442.392h-3.618"/><path data-name="線 122972" d="M534.284 1438.383l-2.005-3.226"/><path data-name="線 122973" d="M588.661 1416.632l5.645-19.746"/><path data-name="線 122974" d="M591.08 1438.774l-14.493-14.907"/><path data-name="線 122975" d="M556.449 1418.636l20.138 5.231"/><path data-name="線 122976" d="M592.279 1437.162l-5.231-19.332"/><path data-name="線 122977" d="M587.048 1415.825l5.231-19.332"/><path data-name="線 122978" d="M594.306 1436.769l-5.645-20.138"/><path data-name="線 122979" d="M556.449 1415.019l20.138-5.231"/><path data-name="線 122980" d="M556.841 1416.631l19.746-5.252"/><path data-name="線 122981" d="M592.279 1396.493l-14.079 14.079"/><path data-name="線 122982" d="M591.08 1394.88l-14.493 14.907"/><path data-name="線 122983" d="M592.279 1437.162l-14.079-14.101"/><path data-name="線 122984" d="M556.841 1416.631l19.746 5.623"/><path data-name="線 122985" d="M594.306 1440.388l-2.027-3.226"/><path data-name="線 122986" d="M592.279 1396.494l2.027-3.226"/><path data-name="線 122987" d="M578.2 1410.573l-1.613-.785"/><path data-name="線 122988" d="M576.587 1411.379v-1.591"/><path data-name="線 122989" d="M587.048 1415.825l1.613.806"/><path data-name="線 122990" d="M587.048 1417.83l1.613-1.199"/><path data-name="線 122991" d="M578.2 1423.061l-1.613.806"/><path data-name="線 122992" d="M576.587 1423.867v-1.613"/><path data-name="線 122993" d="M556.841 1416.631h-3.618"/><path data-name="線 122994" d="M556.449 1415.019l-3.226 1.613"/><path data-name="線 122995" d="M594.306 1393.268l-3.226 1.613"/><path data-name="線 122996" d="M576.587 1422.254v-10.875"/><path data-name="線 122997" d="M578.2 1423.061l8.849-5.231"/><path data-name="線 122998" d="M587.049 1415.824l-8.849-5.252"/><path data-name="線 122999" d="M578.2 1420.642v-7.65"/><path data-name="線 123000" d="M578.2 1420.641l6.843-4.01"/><path data-name="線 123001" d="M585.043 1416.632l-6.843-3.64"/><path data-name="線 123002" d="M576.587 1423.868l1.613-3.226"/><path data-name="線 123003" d="M588.661 1416.631h-3.618"/><path data-name="線 123004" d="M578.2 1412.992l-1.613-3.204"/><path data-name="線 123005" d="M632.969 1391.241l5.645-19.724"/><path data-name="線 123006" d="M635.388 1413.405l-14.493-14.907"/><path data-name="線 123007" d="M600.757 1393.268l20.138 5.231"/><path data-name="線 123008" d="M636.587 1411.793l-5.231-19.332"/><path data-name="線 123009" d="M631.356 1390.434l5.231-19.724"/><path data-name="線 123010" d="M638.614 1411.379l-5.645-20.138"/><path data-name="線 123011" d="M600.757 1389.649l20.138-5.252"/><path data-name="線 123012" d="M601.149 1391.241l19.746-5.231"/><path data-name="線 123013" d="M636.587 1370.71l-14.101 14.493"/><path data-name="線 123014" d="M635.388 1369.512l-14.493 14.886"/><path data-name="線 123015" d="M636.587 1411.793l-14.101-14.101"/><path data-name="線 123016" d="M601.149 1391.241l19.746 5.645"/><path data-name="線 123017" d="M638.614 1415.019l-2.027-3.226"/><path data-name="線 123018" d="M636.587 1370.71l2.027-2.811"/><path data-name="線 123019" d="M622.486 1385.203l-1.591-.806"/><path data-name="線 123020" d="M620.895 1386.01v-1.613"/><path data-name="線 123021" d="M631.356 1390.434l1.613.806"/><path data-name="線 123022" d="M631.356 1392.461l1.613-1.22"/><path data-name="線 123023" d="M622.486 1397.692l-1.591.806"/><path data-name="線 123024" d="M620.895 1398.499v-1.613"/><path data-name="線 123025" d="M601.149 1391.241h-3.618"/><path data-name="線 123026" d="M600.757 1389.65l-3.226 1.591"/><path data-name="線 123027" d="M638.614 1367.899l-3.226 1.613"/><path data-name="線 123028" d="M620.895 1396.885v-10.875"/><path data-name="線 123029" d="M622.486 1397.692l8.87-5.231"/><path data-name="線 123030" d="M631.356 1390.435l-8.87-5.231"/><path data-name="線 123031" d="M622.486 1395.273v-7.65"/><path data-name="線 123032" d="M622.486 1395.273l6.865-4.032"/><path data-name="線 123033" d="M629.351 1391.241l-6.865-3.618"/><path data-name="線 123034" d="M620.895 1398.499l1.591-3.226"/><path data-name="線 123035" d="M632.969 1391.241h-3.618"/><path data-name="線 123036" d="M622.486 1387.623l-1.591-3.226"/><path data-name="線 123037" d="M588.661 1365.872l5.645-20.138"/><path data-name="線 123038" d="M591.08 1387.623l-14.493-14.493"/><path data-name="線 123039" d="M556.449 1367.485l20.138 5.645"/><path data-name="線 123040" d="M592.279 1386.424l-5.231-19.746"/><path data-name="線 123041" d="M587.048 1365.066l5.231-19.724"/><path data-name="線 123042" d="M594.306 1386.01l-5.645-20.138"/><path data-name="線 123043" d="M556.449 1364.259l20.138-5.623"/><path data-name="線 123044" d="M556.841 1365.872l19.746-5.231"/><path data-name="線 123045" d="M592.279 1345.342l-14.079 14.493"/><path data-name="線 123046" d="M591.08 1344.121l-14.493 14.515"/><path data-name="線 123047" d="M592.279 1386.424l-14.079-14.515"/><path data-name="線 123048" d="M556.841 1365.872l19.746 5.231"/><path data-name="線 123049" d="M594.306 1389.65l-2.027-3.226"/><path data-name="線 123050" d="M592.279 1345.342l2.027-3.226"/><path data-name="線 123051" d="M578.2 1359.835l-1.613-1.199"/><path data-name="線 123052" d="M576.587 1360.641v-2.005"/><path data-name="線 123053" d="M587.048 1365.066l1.613.806"/><path data-name="線 123054" d="M587.048 1366.678l1.613-.806"/><path data-name="線 123055" d="M578.2 1371.909l-1.613 1.22"/><path data-name="線 123056" d="M576.587 1373.13v-2.027"/><path data-name="線 123057" d="M556.841 1365.872h-3.618"/><path data-name="線 123058" d="M556.449 1364.259l-3.226 1.613"/><path data-name="線 123059" d="M594.306 1342.116l-3.226 2.005"/><path data-name="線 123060" d="M576.587 1371.102v-10.461"/><path data-name="線 123061" d="M578.2 1371.909l8.849-5.231"/><path data-name="線 123062" d="M587.049 1365.066l-8.849-5.231"/><path data-name="線 123063" d="M578.2 1369.904v-8.064"/><path data-name="線 123064" d="M578.2 1369.904l6.843-4.032"/><path data-name="線 123065" d="M585.043 1365.872l-6.843-4.032"/><path data-name="線 123066" d="M576.587 1373.13l1.613-3.226"/><path data-name="線 123067" d="M588.661 1365.872h-3.618"/><path data-name="線 123068" d="M578.2 1361.84l-1.613-3.204"/><path data-name="線 123069" d="M632.969 1442.392l5.231-20.138"/><path data-name="線 123070" d="M635.388 1463.751l-14.907-14.493"/><path data-name="線 123071" d="M600.343 1444.005l20.138 5.252"/><path data-name="線 123072" d="M636.587 1462.531l-5.231-19.332"/><path data-name="線 123073" d="M631.356 1441.194l5.231-19.332"/><path data-name="線 123074" d="M638.2 1462.138l-5.231-19.746"/><path data-name="線 123075" d="M600.343 1440.388l20.138-5.231"/><path data-name="線 123076" d="M601.149 1442.393l19.332-5.231"/><path data-name="線 123077" d="M636.587 1421.862l-14.493 14.101"/><path data-name="線 123078" d="M635.388 1420.642l-14.907 14.515"/><path data-name="線 123079" d="M636.587 1462.53l-14.493-14.079"/><path data-name="線 123080" d="M601.149 1442.392l19.332 5.252"/><path data-name="線 123081" d="M638.2 1465.363l-1.613-2.833"/><path data-name="線 123082" d="M636.587 1421.862l1.613-3.226"/><path data-name="線 123083" d="M622.094 1435.963l-1.613-.806"/><path data-name="線 123084" d="M620.481 1437.162v-2.005"/><path data-name="線 123085" d="M631.356 1441.194l1.613 1.199"/><path data-name="線 123086" d="M631.356 1443.198l1.613-.806"/><path data-name="線 123087" d="M622.094 1448.451l-1.613.806"/><path data-name="線 123088" d="M620.481 1449.258v-1.613"/><path data-name="線 123089" d="M601.149 1442.392h-3.618"/><path data-name="線 123090" d="M600.342 1440.387l-2.811 2.005"/><path data-name="線 123091" d="M638.199 1418.636l-2.811 2.005"/><path data-name="線 123092" d="M620.481 1447.645v-10.483"/><path data-name="線 123093" d="M622.094 1448.451l9.263-5.252"/><path data-name="線 123094" d="M631.357 1441.194l-9.263-5.231"/><path data-name="線 123095" d="M622.486 1446.032v-7.65"/><path data-name="線 123096" d="M622.486 1446.032l6.865-3.64"/><path data-name="線 123097" d="M629.351 1442.392l-6.865-4.01"/><path data-name="線 123098" d="M620.481 1449.258l2.005-3.226"/><path data-name="線 123099" d="M632.969 1442.392h-3.618"/><path data-name="線 123100" d="M622.486 1438.383l-2.005-3.226"/><path data-name="線 123101" d="M588.661 1467.369l5.645-19.724"/><path data-name="線 123102" d="M591.08 1489.119l-14.493-14.493"/><path data-name="線 123103" d="M556.449 1468.982l20.138 5.645"/><path data-name="線 123104" d="M592.279 1487.921l-5.231-19.746"/><path data-name="線 123105" d="M587.048 1466.563l5.231-19.332"/><path data-name="線 123106" d="M594.306 1487.507l-5.645-20.138"/><path data-name="線 123107" d="M556.449 1465.756l20.138-5.623"/><path data-name="線 123108" d="M556.841 1467.369l19.746-5.231"/><path data-name="線 123109" d="M592.279 1447.231l-14.079 14.101"/><path data-name="線 123110" d="M591.08 1446.032l-14.493 14.101"/><path data-name="線 123111" d="M592.279 1487.921l-14.079-14.515"/><path data-name="線 123112" d="M556.841 1467.369l19.746 5.231"/><path data-name="線 123113" d="M594.306 1491.125l-2.027-3.204"/><path data-name="線 123114" d="M592.279 1447.231l2.027-3.226"/><path data-name="線 123115" d="M578.2 1461.332l-1.613-1.199"/><path data-name="線 123116" d="M576.587 1462.138v-2.005"/><path data-name="線 123117" d="M587.048 1466.562l1.613.806"/><path data-name="線 123118" d="M587.048 1468.175l1.613-.806"/><path data-name="線 123119" d="M578.2 1473.406l-1.613 1.22"/><path data-name="線 123120" d="M576.587 1474.627v-2.027"/><path data-name="線 123121" d="M556.841 1467.369h-3.618"/><path data-name="線 123122" d="M556.449 1465.756l-3.226 1.613"/><path data-name="線 123123" d="M594.306 1444.005l-3.226 2.027"/><path data-name="線 123124" d="M576.587 1472.599v-10.461"/><path data-name="線 123125" d="M578.2 1473.406l8.849-5.231"/><path data-name="線 123126" d="M587.049 1466.563l-8.849-5.231"/><path data-name="線 123127" d="M578.2 1471.401v-8.064"/><path data-name="線 123128" d="M578.2 1471.401l6.843-4.032"/><path data-name="線 123129" d="M585.043 1467.369l-6.843-4.032"/><path data-name="線 123130" d="M576.587 1474.627l1.613-3.226"/><path data-name="線 123131" d="M588.661 1467.369h-3.618"/><path data-name="線 123132" d="M578.2 1463.337l-1.613-3.204"/><path data-name="線 123133" d="M632.969 1492.738l5.231-20.138"/><path data-name="線 123134" d="M635.388 1514.488l-14.907-14.493"/><path data-name="線 123135" d="M600.343 1494.764l20.138 5.231"/><path data-name="線 123136" d="M636.587 1513.29l-5.231-19.746"/><path data-name="線 123137" d="M631.356 1491.931l5.231-19.724"/><path data-name="線 123138" d="M638.2 1512.876l-5.231-20.138"/><path data-name="線 123139" d="M600.343 1491.125l20.138-5.623"/><path data-name="線 123140" d="M601.149 1492.738l19.332-5.231"/><path data-name="線 123141" d="M636.587 1472.207l-14.493 14.493"/><path data-name="線 123142" d="M635.388 1470.987l-14.907 14.515"/><path data-name="線 123143" d="M636.587 1513.29l-14.493-14.101"/><path data-name="線 123144" d="M601.149 1492.738l19.332 5.252"/><path data-name="線 123145" d="M638.2 1516.516l-1.613-3.226"/><path data-name="線 123146" d="M636.587 1472.207l1.613-2.811"/><path data-name="線 123147" d="M622.094 1486.7l-1.613-.806"/><path data-name="線 123148" d="M620.481 1487.507v-1.613"/><path data-name="線 123149" d="M631.356 1491.931l1.613.806"/><path data-name="線 123150" d="M631.356 1493.544l1.613-.806"/><path data-name="線 123151" d="M622.094 1499.189l-1.613.806"/><path data-name="線 123152" d="M620.481 1499.995v-2.005"/><path data-name="線 123153" d="M601.149 1492.738h-3.618"/><path data-name="線 123154" d="M600.342 1491.125l-2.811 1.613"/><path data-name="線 123155" d="M638.199 1469.396l-2.811 1.591"/><path data-name="線 123156" d="M620.481 1497.99v-10.483"/><path data-name="線 123157" d="M622.094 1499.189l9.263-5.645"/><path data-name="線 123158" d="M631.357 1491.932l-9.263-5.231"/><path data-name="線 123159" d="M622.486 1496.769v-8.042"/><path data-name="線 123160" d="M622.486 1496.77l6.865-4.032"/><path data-name="線 123161" d="M629.351 1492.737l-6.865-4.01"/><path data-name="線 123162" d="M620.481 1499.996l2.005-3.226"/><path data-name="線 123163" d="M632.969 1492.738h-3.618"/><path data-name="線 123164" d="M622.486 1488.727l-2.005-2.833"/><path data-name="線 123165" d="M588.661 1518.128l5.645-19.746"/><path data-name="線 123166" d="M591.08 1540.271l-14.493-14.907"/><path data-name="線 123167" d="M556.449 1520.133l20.138 5.231"/><path data-name="線 123168" d="M592.279 1538.659l-5.231-19.332"/><path data-name="線 123169" d="M587.048 1517.322l5.231-19.746"/><path data-name="線 123170" d="M594.306 1538.266l-5.645-20.138"/><path data-name="線 123171" d="M556.449 1516.515l20.138-5.252"/><path data-name="線 123172" d="M556.841 1518.128l19.746-5.252"/><path data-name="線 123173" d="M592.279 1497.576l-14.079 14.493"/><path data-name="線 123174" d="M591.08 1496.377l-14.493 14.886"/><path data-name="線 123175" d="M592.279 1538.659l-14.079-14.101"/><path data-name="線 123176" d="M556.841 1518.128l19.746 5.231"/><path data-name="線 123177" d="M594.306 1541.885l-2.027-3.226"/><path data-name="線 123178" d="M592.279 1497.575l2.027-2.811"/><path data-name="線 123179" d="M578.2 1512.069l-1.613-.806"/><path data-name="線 123180" d="M576.587 1512.876v-1.613"/><path data-name="線 123181" d="M587.048 1517.322l1.613.806"/><path data-name="線 123182" d="M587.048 1519.327l1.613-1.199"/><path data-name="線 123183" d="M578.2 1524.558l-1.613.806"/><path data-name="線 123184" d="M576.587 1525.364v-2.005"/><path data-name="線 123185" d="M556.841 1518.128h-3.618"/><path data-name="線 123186" d="M556.449 1516.515l-3.226 1.613"/><path data-name="線 123187" d="M594.306 1494.764l-3.226 1.613"/><path data-name="線 123188" d="M576.587 1523.359v-10.483"/><path data-name="線 123189" d="M578.2 1524.558l8.849-5.231"/><path data-name="線 123190" d="M587.049 1517.321l-8.849-5.252"/><path data-name="線 123191" d="M578.2 1522.138v-7.65"/><path data-name="線 123192" d="M578.2 1522.138l6.843-4.01"/><path data-name="線 123193" d="M585.043 1518.128l-6.843-3.64"/><path data-name="線 123194" d="M576.587 1525.364l1.613-3.226"/><path data-name="線 123195" d="M588.661 1518.128h-3.618"/><path data-name="線 123196" d="M578.2 1514.489l-1.613-3.226"/></g></g></svg>