<svg xmlns="http://www.w3.org/2000/svg" width="200" height="230"><defs><clipPath id="a"><path data-name="長方形 180" transform="translate(450 1327)" fill="#ccc" d="M0 0h200v230H0z"/></clipPath></defs><g data-name="マスクグループ 583" transform="translate(-450 -1327)" clip-path="url(#a)"><g data-name="グループ 3451" fill="none" stroke="#c49535" stroke-linecap="round" stroke-linejoin="round" stroke-width="1.308"><path data-name="線 123197" d="M637.002 1518.128l-41.889 24.562"/><path data-name="線 123198" d="M548.8 1365.873l-41.082 23.778"/><path data-name="線 123199" d="M505.691 1389.65v-47.533"/><path data-name="線 123200" d="M638.2 1537.852v-197.348"/><path data-name="線 123201" d="M463.802 1543.889v-23.756"/><path data-name="線 123202" d="M579.007 1340.504h-74.122"/><path data-name="線 123203" d="M506.105 1342.117l.806-.414"/><path data-name="線 123204" d="M550.806 1364.674l-41.889-24.17"/><path data-name="線 123205" d="M550.806 1367.093l-45.921-26.589"/><path data-name="線 123206" d="M550.806 1418.245l-41.889 24.148"/><path data-name="線 123207" d="M548.8 1416.632l-41.889 24.562"/><path data-name="線 123208" d="M508.917 1391.241l41.889 24.17"/><path data-name="線 123209" d="M508.11 1393.268l42.695 24.976"/><path data-name="線 123210" d="M550.806 1367.093l-41.889 24.148"/><path data-name="線 123211" d="M505.691 1397.692v-4.424"/><path data-name="線 123212" d="M505.691 1440.387v-47.119"/><path data-name="線 123213" d="M505.691 1392.048l1.22.414"/><path data-name="線 123214" d="M506.912 1392.462l-41.889 24.17"/><path data-name="線 123215" d="M506.105 1342.117l-41.082 23.756"/><path data-name="線 123216" d="M463.802 1391.242V1367.9"/><path data-name="線 123217" d="M549.999 1363.868v-23.364"/><path data-name="線 123218" d="M506.105 1444.005l.806-.392"/><path data-name="線 123219" d="M550.806 1466.171l-41.889-23.778"/><path data-name="線 123220" d="M550.806 1468.59l-45.921-26.197"/><path data-name="線 123221" d="M550.806 1519.741l-41.889 24.148"/><path data-name="線 123222" d="M548.8 1518.128l-41.889 24.562"/><path data-name="線 123223" d="M505.691 1491.124v-47.119"/><path data-name="線 123224" d="M508.917 1492.738l41.889 24.17"/><path data-name="線 123225" d="M508.11 1494.764l42.695 24.976"/><path data-name="線 123226" d="M550.806 1468.589l-41.889 24.148"/><path data-name="線 123227" d="M505.691 1499.188v-4.424"/><path data-name="線 123228" d="M505.691 1541.883v-47.119"/><path data-name="線 123229" d="M505.691 1493.544l1.22.414"/><path data-name="線 123230" d="M506.912 1493.958l-41.889 24.17"/><path data-name="線 123231" d="M506.105 1444.005l-41.082 23.364"/><path data-name="線 123232" d="M594.307 1342.117l.806-.414"/><path data-name="線 123233" d="M638.2 1391.242V1367.9"/><path data-name="線 123234" d="M637.002 1416.632l-41.889 24.562"/><path data-name="線 123235" d="M593.893 1389.65v-47.533"/><path data-name="線 123236" d="M596.312 1389.65v-47.533"/><path data-name="線 123237" d="M593.086 1442.393l-42.281-24.148"/><path data-name="線 123238" d="M593.086 1391.241l-42.281 24.17"/><path data-name="線 123239" d="M597.118 1442.392l-46.313-26.981"/><path data-name="線 123240" d="M595.113 1392.462l-41.889 24.17"/><path data-name="線 123241" d="M594.306 1342.117l-41.082 23.756"/><path data-name="線 123242" d="M593.086 1340.504l-42.281 24.17"/><path data-name="線 123243" d="M637.001 1467.369l-41.082 23.756"/><path data-name="線 123244" d="M638.2 1492.738v-23.342"/><path data-name="線 123245" d="M638.2 1516.516v-23.778"/><path data-name="線 123246" d="M638.2 1543.889v-23.756"/><path data-name="線 123247" d="M593.893 1491.124v-47.119"/><path data-name="線 123248" d="M596.312 1541.883v-47.119"/><path data-name="線 123249" d="M593.893 1499.188v-4.424"/><path data-name="線 123250" d="M593.893 1541.883v-47.119"/><path data-name="線 123251" d="M593.893 1493.544l1.22.414"/><path data-name="線 123252" d="M593.086 1543.889l-42.281-24.148"/><path data-name="線 123253" d="M593.086 1492.738l-42.281 24.17"/><path data-name="線 123254" d="M597.118 1543.888l-46.313-26.981"/><path data-name="線 123255" d="M595.113 1493.958l-41.889 24.17"/><path data-name="線 123256" d="M552.004 1543.889v-23.756"/><path data-name="線 123257" d="M594.306 1444.005l-41.082 23.364"/><path data-name="線 123258" d="M593.086 1442.393l-42.281 23.778"/><path data-name="線 123259" d="M593.892 1493.543l-43.087-24.954"/><path data-name="線 123260" d="M638.2 1465.364v-22.971"/><path data-name="線 123261" d="M649.076 1554.372H450.922"/><path data-name="線 123262" d="M649.076 1554.372v-224.743"/><path data-name="線 123263" d="M450.922 1554.372v-224.743"/><path data-name="線 123264" d="M649.076 1329.629H450.922"/><path data-name="線 123265" d="M508.11 1543.082h0"/><path data-name="線 123266" d="M596.312 1541.884l.414-.414"/><path data-name="線 123267" d="M598.339 1543.082h0"/><path data-name="線 123268" d="M599.537 1539.879l-2.811 1.591"/><path data-name="線 123269" d="M506.912 1491.539l-3.64-2.005"/><path data-name="線 123270" d="M550.806 1516.907l-3.226-2.005"/><path data-name="線 123271" d="M463.802 1531.815v-191.311"/><path data-name="線 123272" d="M504.884 1340.504l-41.082 23.364"/><path data-name="線 123273" d="M508.11 1390.849l-44.308-25.783"/><path data-name="線 123274" d="M505.691 1392.048l-41.889-24.148"/><path data-name="線 123275" d="M504.884 1543.889h-41.082"/><path data-name="線 123276" d="M638.201 1543.889H504.885"/><path data-name="線 123277" d="M597.118 1492.738l41.082 23.778"/><path data-name="線 123278" d="M596.312 1494.764l41.889 24.17"/><path data-name="線 123279" d="M638.2 1520.133l-41.082 23.756"/><path data-name="線 123280" d="M597.118 1391.241l41.082 23.778"/><path data-name="線 123281" d="M596.312 1393.268l41.889 24.17"/><path data-name="線 123282" d="M638.2 1418.637l-41.082 23.756"/><path data-name="線 123283" d="M638.2 1363.868l-41.082-23.364"/><path data-name="線 123284" d="M638.2 1366.679l-45.114-26.175"/><path data-name="線 123285" d="M638.2 1367.9l-41.082 23.342"/><path data-name="線 123286" d="M638.2 1340.504H463.802"/><path data-name="線 123287" d="M450.922 1329.629l12.88 10.875"/><path data-name="線 123288" d="M638.2 1340.504l10.875-10.875"/><path data-name="線 123289" d="M450.922 1554.372l12.88-10.483"/><path data-name="線 123290" d="M638.2 1543.889l10.875 10.483"/><path data-name="線 123291" d="M504.884 1391.241l-41.082 23.778"/><path data-name="線 123292" d="M508.916 1442.393l-45.114-26.175"/><path data-name="線 123293" d="M504.884 1442.393l-41.082-23.756"/><path data-name="線 123294" d="M504.884 1492.738l-41.082 23.778"/><path data-name="線 123295" d="M508.916 1543.889l-45.114-26.175"/><path data-name="線 123296" d="M504.884 1543.889l-41.082-23.756"/><path data-name="線 123297" d="M508.11 1492.345l.806.392"/><path data-name="線 123298" d="M506.911 1493.958l1.199.806"/><path data-name="線 123299" d="M596.312 1499.188v-4.424"/><path data-name="線 123300" d="M596.312 1491.124v-47.119"/><path data-name="線 123301" d="M596.312 1492.345l.806.392"/><path data-name="線 123302" d="M596.312 1492.345l-1.199-.806"/><path data-name="線 123303" d="M593.892 1491.124l-43.087-24.954"/><path data-name="線 123304" d="M595.919 1491.125l-.806.414"/><path data-name="線 123305" d="M595.113 1491.539l-1.22-.414"/><path data-name="線 123306" d="M595.113 1493.958l1.199.806"/><path data-name="線 123307" d="M593.893 1444.005l1.22-.392"/><path data-name="線 123308" d="M597.532 1391.241l-46.727-26.567"/><path data-name="線 123309" d="M596.312 1393.268l-45.507-26.175"/><path data-name="線 123310" d="M637.002 1365.873l-41.889 24.17"/><path data-name="線 123311" d="M638.2 1465.364l-41.082-22.971"/><path data-name="線 123312" d="M638.2 1468.176l-45.114-25.783"/><path data-name="線 123313" d="M638.2 1469.396l-41.082 23.342"/><path data-name="線 123314" d="M638.2 1465.363l-2.419-1.22"/><path data-name="線 123315" d="M504.884 1442.393l-41.082 22.971"/><path data-name="線 123316" d="M508.11 1492.346l-44.308-25.783"/><path data-name="線 123317" d="M505.691 1493.544l-41.889-24.148"/><path data-name="線 123318" d="M548.8 1467.369l-41.889 24.17"/><path data-name="線 123319" d="M508.11 1541.883v-47.119"/><path data-name="線 123320" d="M508.11 1491.124v-47.119"/><path data-name="線 123321" d="M506.911 1392.462l1.199.806"/><path data-name="線 123322" d="M508.916 1391.241l-.806-.392"/><path data-name="線 123323" d="M507.717 1389.65l-.806.392"/><path data-name="線 123324" d="M508.11 1440.387v-47.119"/><path data-name="線 123325" d="M508.11 1389.65v-47.533"/><path data-name="線 123326" d="M549.999 1363.867v-10.875"/><path data-name="線 123327" d="M552.004 1363.868v-23.364"/><path data-name="線 123328" d="M549.999 1543.889v-23.756"/><path data-name="線 123329" d="M549.999 1516.515v-47.119"/><path data-name="線 123330" d="M552.004 1540.685v-20.552"/><path data-name="線 123331" d="M552.004 1516.515v-47.119"/><path data-name="線 123332" d="M593.893 1440.387v-47.119"/><path data-name="線 123333" d="M596.312 1440.387v-47.119"/><path data-name="線 123334" d="M549.999 1465.364v-46.727"/><path data-name="線 123335" d="M549.999 1415.019V1367.9"/><path data-name="線 123336" d="M552.004 1415.019V1367.9"/><path data-name="線 123337" d="M552.004 1465.364v-46.727"/><path data-name="線 123338" d="M465.023 1417.024v-.392"/><path data-name="線 123339" d="M463.802 1412.992l8.87-15.3"/><path data-name="線 123340" d="M465.415 1414.213l8.87-15.714"/><path data-name="線 123341" d="M486.774 1391.241l-14.101-8.042"/><path data-name="線 123342" d="M465.415 1368.706l8.87 15.692"/><path data-name="線 123343" d="M463.802 1369.512l8.87 15.692"/><path data-name="線 123344" d="M472.673 1399.305v-16.106"/><path data-name="線 123345" d="M472.673 1399.305l14.101-8.064"/><path data-name="線 123346" d="M503.272 1390.435h-18.111"/><path data-name="線 123347" d="M503.272 1392.462h-18.111"/><path data-name="線 123348" d="M474.678 1396.08v-9.655"/><path data-name="線 123349" d="M474.678 1396.079l8.456-4.838"/><path data-name="線 123350" d="M474.678 1386.425l8.456 4.817"/><path data-name="線 123351" d="M504.885 1391.241l-1.613 1.22"/><path data-name="線 123352" d="M504.885 1391.241l-1.613 1.22"/><path data-name="線 123353" d="M508.917 1442.393h0"/><path data-name="線 123354" d="M508.11 1438.775l8.87-15.714"/><path data-name="線 123355" d="M509.723 1439.581l8.87-15.714"/><path data-name="線 123356" d="M530.667 1416.632l-13.687-7.65"/><path data-name="線 123357" d="M509.723 1394.075l8.87 15.714"/><path data-name="線 123358" d="M508.11 1394.881l8.87 15.692"/><path data-name="線 123359" d="M516.98 1424.674v-15.692"/><path data-name="線 123360" d="M516.98 1424.674l13.687-8.042"/><path data-name="線 123361" d="M547.187 1415.825h-18.133"/><path data-name="線 123362" d="M547.187 1417.83h-18.133"/><path data-name="線 123363" d="M518.985 1421.449v-9.263"/><path data-name="線 123364" d="M518.985 1421.449l8.064-4.817"/><path data-name="線 123365" d="M518.985 1412.186l8.064 4.446"/><path data-name="線 123366" d="M548.8 1416.632l-1.613 1.199"/><path data-name="線 123367" d="M548.8 1416.632l-1.613 1.199"/><path data-name="線 123368" d="M508.917 1391.241h0"/><path data-name="線 123369" d="M508.11 1387.624l8.87-15.714"/><path data-name="線 123370" d="M509.723 1388.43l8.87-15.3"/><path data-name="線 123371" d="M530.667 1365.873l-13.687-8.042"/><path data-name="線 123372" d="M509.723 1343.316l8.87 15.321"/><path data-name="線 123373" d="M508.11 1344.122l8.87 15.714"/><path data-name="線 123374" d="M516.98 1373.937v-16.106"/><path data-name="線 123375" d="M516.98 1373.937l13.687-8.064"/><path data-name="線 123376" d="M547.187 1365.066h-18.133"/><path data-name="線 123377" d="M547.187 1366.679h-18.133"/><path data-name="線 123378" d="M518.985 1370.711v-9.677"/><path data-name="線 123379" d="M518.985 1370.711l8.064-4.838"/><path data-name="線 123380" d="M518.985 1361.034l8.064 4.838"/><path data-name="線 123381" d="M548.8 1365.873l-1.613.806"/><path data-name="線 123382" d="M548.8 1365.873l-1.613.806"/><path data-name="線 123383" d="M553.224 1417.024v-.392"/><path data-name="線 123384" d="M552.004 1412.992l9.284-15.3"/><path data-name="線 123385" d="M553.617 1414.213l8.87-15.714"/><path data-name="線 123386" d="M574.975 1391.241l-13.687-8.042"/><path data-name="線 123387" d="M553.617 1368.706l8.87 15.692"/><path data-name="線 123388" d="M552.004 1369.512l9.284 15.692"/><path data-name="線 123389" d="M561.288 1399.305v-16.106"/><path data-name="線 123390" d="M561.288 1399.305l13.687-8.064"/><path data-name="線 123391" d="M591.495 1390.435h-18.133"/><path data-name="線 123392" d="M591.495 1392.462h-18.133"/><path data-name="線 123393" d="M562.879 1396.08v-9.655"/><path data-name="線 123394" d="M562.879 1396.079l8.478-4.838"/><path data-name="線 123395" d="M562.879 1386.425l8.478 4.817"/><path data-name="線 123396" d="M593.086 1391.241l-1.591 1.22"/><path data-name="線 123397" d="M593.086 1391.241l-1.591 1.22"/><path data-name="線 123398" d="M553.224 1467.369h0"/><path data-name="線 123399" d="M552.004 1463.751l9.284-15.3"/><path data-name="線 123400" d="M553.617 1464.558l8.87-15.3"/><path data-name="線 123401" d="M574.975 1442.393l-13.687-8.042"/><path data-name="線 123402" d="M553.617 1419.443l8.87 15.714"/><path data-name="線 123403" d="M552.004 1420.642l9.284 15.321"/><path data-name="線 123404" d="M561.288 1450.457v-16.106"/><path data-name="線 123405" d="M561.288 1450.457l13.687-8.064"/><path data-name="線 123406" d="M591.495 1441.194h-18.133"/><path data-name="線 123407" d="M591.495 1443.199h-18.133"/><path data-name="線 123408" d="M562.879 1447.231v-9.655"/><path data-name="線 123409" d="M562.879 1447.231l8.478-4.838"/><path data-name="線 123410" d="M562.879 1437.576l8.478 4.817"/><path data-name="線 123411" d="M593.086 1442.393l-1.591.806"/><path data-name="線 123412" d="M593.086 1442.393l-1.591.806"/><path data-name="線 123413" d="M597.118 1391.241h0"/><path data-name="線 123414" d="M596.312 1387.624l8.87-15.714"/><path data-name="線 123415" d="M597.925 1388.43l8.87-15.3"/><path data-name="線 123416" d="M618.869 1365.873l-13.687-8.042"/><path data-name="線 123417" d="M597.925 1343.316l8.87 15.321"/><path data-name="線 123418" d="M596.312 1344.122l8.87 15.714"/><path data-name="線 123419" d="M605.182 1373.937v-16.106"/><path data-name="線 123420" d="M605.182 1373.937l13.687-8.064"/><path data-name="線 123421" d="M635.389 1365.066h-18.133"/><path data-name="線 123422" d="M635.389 1366.679h-18.133"/><path data-name="線 123423" d="M607.187 1370.711v-9.677"/><path data-name="線 123424" d="M607.187 1370.711l8.064-4.838"/><path data-name="線 123425" d="M607.187 1361.034l8.064 4.838"/><path data-name="線 123426" d="M637.002 1365.873l-1.613.806"/><path data-name="線 123427" d="M637.002 1365.873l-1.613.806"/><path data-name="線 123428" d="M597.118 1442.393h0"/><path data-name="線 123429" d="M596.312 1438.775l8.87-15.714"/><path data-name="線 123430" d="M597.925 1439.581l8.87-15.714"/><path data-name="線 123431" d="M618.869 1416.632l-13.687-7.65"/><path data-name="線 123432" d="M597.925 1394.075l8.87 15.714"/><path data-name="線 123433" d="M596.312 1394.881l8.87 15.692"/><path data-name="線 123434" d="M605.182 1424.674v-15.692"/><path data-name="線 123435" d="M605.182 1424.674l13.687-8.042"/><path data-name="線 123436" d="M635.389 1415.825h-18.133"/><path data-name="線 123437" d="M635.389 1417.83h-18.133"/><path data-name="線 123438" d="M607.187 1421.449v-9.263"/><path data-name="線 123439" d="M607.187 1421.449l8.064-4.817"/><path data-name="線 123440" d="M607.187 1412.186l8.064 4.446"/><path data-name="線 123441" d="M637.002 1416.632l-1.613 1.199"/><path data-name="線 123442" d="M637.002 1416.632l-1.613 1.199"/><path data-name="線 123443" d="M508.917 1492.738h0"/><path data-name="線 123444" d="M508.11 1489.12l8.87-15.714"/><path data-name="線 123445" d="M509.723 1489.926l8.87-15.3"/><path data-name="線 123446" d="M530.667 1467.369l-13.687-8.042"/><path data-name="線 123447" d="M509.723 1445.226l8.87 14.907"/><path data-name="線 123448" d="M508.11 1446.032l8.87 15.3"/><path data-name="線 123449" d="M516.98 1475.433v-16.106"/><path data-name="線 123450" d="M516.98 1475.433l13.687-8.064"/><path data-name="線 123451" d="M547.187 1466.563h-18.133"/><path data-name="線 123452" d="M547.187 1468.175h-18.133"/><path data-name="線 123453" d="M518.985 1472.208v-9.677"/><path data-name="線 123454" d="M518.985 1472.207l8.064-4.838"/><path data-name="線 123455" d="M518.985 1462.531l8.064 4.838"/><path data-name="線 123456" d="M548.8 1467.369l-1.613.806"/><path data-name="線 123457" d="M548.8 1467.369l-1.613.806"/><path data-name="線 123458" d="M465.023 1467.369h0"/><path data-name="線 123459" d="M463.802 1463.751l8.87-15.3"/><path data-name="線 123460" d="M465.415 1464.558l8.87-15.3"/><path data-name="線 123461" d="M486.774 1442.393l-14.101-8.042"/><path data-name="線 123462" d="M465.415 1419.443l8.87 15.714"/><path data-name="線 123463" d="M463.802 1420.642l8.87 15.321"/><path data-name="線 123464" d="M472.673 1450.457v-16.106"/><path data-name="線 123465" d="M472.673 1450.457l14.101-8.064"/><path data-name="線 123466" d="M503.272 1441.194h-18.111"/><path data-name="線 123467" d="M503.272 1443.199h-18.111"/><path data-name="線 123468" d="M474.678 1447.231v-9.655"/><path data-name="線 123469" d="M474.678 1447.231l8.456-4.838"/><path data-name="線 123470" d="M474.678 1437.576l8.456 4.817"/><path data-name="線 123471" d="M504.885 1442.393l-1.613.806"/><path data-name="線 123472" d="M504.885 1442.393l-1.613.806"/><path data-name="線 123473" d="M465.023 1518.128h0"/><path data-name="線 123474" d="M463.802 1514.488l8.87-15.692"/><path data-name="線 123475" d="M465.415 1515.709l8.87-15.714"/><path data-name="線 123476" d="M486.774 1492.737l-14.101-8.042"/><path data-name="線 123477" d="M465.415 1470.202l8.87 15.692"/><path data-name="線 123478" d="M463.802 1470.987l8.87 15.714"/><path data-name="線 123479" d="M472.673 1500.801v-16.106"/><path data-name="線 123480" d="M472.673 1500.802l14.101-8.064"/><path data-name="線 123481" d="M503.272 1491.931h-18.111"/><path data-name="線 123482" d="M503.272 1493.544h-18.111"/><path data-name="線 123483" d="M474.678 1497.576v-9.655"/><path data-name="線 123484" d="M474.678 1497.576l8.456-4.838"/><path data-name="線 123485" d="M474.678 1487.921l8.456 4.817"/><path data-name="線 123486" d="M504.885 1492.738l-1.613.806"/><path data-name="線 123487" d="M504.885 1492.738l-1.613.806"/><path data-name="線 123488" d="M508.917 1543.889h0"/><path data-name="線 123489" d="M508.11 1539.878l8.87-15.321"/><path data-name="線 123490" d="M509.723 1541.078l8.87-15.714"/><path data-name="線 123491" d="M530.667 1518.128l-13.687-7.65"/><path data-name="線 123492" d="M509.723 1495.571l8.87 15.692"/><path data-name="線 123493" d="M508.11 1496.377l8.87 15.692"/><path data-name="線 123494" d="M516.98 1526.17v-15.692"/><path data-name="線 123495" d="M516.98 1526.17l13.687-8.042"/><path data-name="線 123496" d="M547.187 1517.322h-18.133"/><path data-name="線 123497" d="M547.187 1519.327h-18.133"/><path data-name="線 123498" d="M518.985 1522.945v-9.263"/><path data-name="線 123499" d="M518.985 1522.945l8.064-4.817"/><path data-name="線 123500" d="M518.985 1513.682l8.064 4.446"/><path data-name="線 123501" d="M548.8 1518.128l-1.613 1.199"/><path data-name="線 123502" d="M548.8 1518.128l-1.613 1.199"/><path data-name="線 123503" d="M553.224 1518.128h0"/><path data-name="線 123504" d="M552.004 1514.488l9.284-15.692"/><path data-name="線 123505" d="M553.617 1515.709l8.87-15.714"/><path data-name="線 123506" d="M574.975 1492.737l-13.687-8.042"/><path data-name="線 123507" d="M553.617 1470.202l8.87 15.692"/><path data-name="線 123508" d="M552.004 1470.987l9.284 15.714"/><path data-name="線 123509" d="M561.288 1500.801v-16.106"/><path data-name="線 123510" d="M561.288 1500.802l13.687-8.064"/><path data-name="線 123511" d="M591.495 1491.931h-18.133"/><path data-name="線 123512" d="M591.495 1493.544h-18.133"/><path data-name="線 123513" d="M562.879 1497.576v-9.655"/><path data-name="線 123514" d="M562.879 1497.576l8.478-4.838"/><path data-name="線 123515" d="M562.879 1487.921l8.478 4.817"/><path data-name="線 123516" d="M593.086 1492.738l-1.591.806"/><path data-name="線 123517" d="M593.086 1492.738l-1.591.806"/><path data-name="線 123518" d="M597.118 1492.738h0"/><path data-name="線 123519" d="M596.312 1489.12l8.87-15.714"/><path data-name="線 123520" d="M597.925 1489.926l8.87-15.3"/><path data-name="線 123521" d="M618.869 1467.369l-13.687-8.042"/><path data-name="線 123522" d="M597.925 1445.226l8.87 14.907"/><path data-name="線 123523" d="M596.312 1446.032l8.87 15.3"/><path data-name="線 123524" d="M605.182 1475.433v-16.106"/><path data-name="線 123525" d="M605.182 1475.433l13.687-8.064"/><path data-name="線 123526" d="M635.389 1466.563h-18.133"/><path data-name="線 123527" d="M635.389 1468.175h-18.133"/><path data-name="線 123528" d="M607.187 1472.208v-9.677"/><path data-name="線 123529" d="M607.187 1472.207l8.064-4.838"/><path data-name="線 123530" d="M607.187 1462.531l8.064 4.838"/><path data-name="線 123531" d="M637.002 1467.369l-1.613.806"/><path data-name="線 123532" d="M637.002 1467.369l-1.613.806"/><path data-name="線 123533" d="M597.118 1543.889h0"/><path data-name="線 123534" d="M596.312 1539.878l8.87-15.321"/><path data-name="線 123535" d="M597.925 1541.078l8.87-15.714"/><path data-name="線 123536" d="M618.869 1518.128l-13.687-7.65"/><path data-name="線 123537" d="M597.925 1495.571l8.87 15.692"/><path data-name="線 123538" d="M596.312 1496.377l8.87 15.692"/><path data-name="線 123539" d="M605.182 1526.17v-15.692"/><path data-name="線 123540" d="M605.182 1526.17l13.687-8.042"/><path data-name="線 123541" d="M635.389 1517.322h-18.133"/><path data-name="線 123542" d="M635.389 1519.327h-18.133"/><path data-name="線 123543" d="M607.187 1522.945v-9.263"/><path data-name="線 123544" d="M607.187 1522.945l8.064-4.817"/><path data-name="線 123545" d="M607.187 1513.682l8.064 4.446"/><path data-name="線 123546" d="M637.002 1518.128l-1.613 1.199"/><path data-name="線 123547" d="M637.002 1518.128l-1.613 1.199"/><path data-name="線 123548" d="M508.11 1389.65h0"/><path data-name="線 123549" d="M504.078 1388.43l-8.848-15.3"/><path data-name="線 123550" d="M505.69 1387.624l-8.848-15.714"/><path data-name="線 123551" d="M496.843 1357.831l-13.709 8.042"/><path data-name="線 123552" d="M484.355 1365.066h-17.719"/><path data-name="線 123553" d="M484.355 1366.679h-17.719"/><path data-name="線 123554" d="M483.134 1365.873l13.709 8.064"/><path data-name="線 123555" d="M496.842 1373.937v-16.106"/><path data-name="線 123556" d="M504.078 1343.316l-8.848 15.321"/><path data-name="線 123557" d="M505.69 1344.122l-8.848 15.714"/><path data-name="線 123558" d="M486.773 1365.873l8.042 4.838"/><path data-name="線 123559" d="M494.816 1370.711v-9.677"/><path data-name="線 123560" d="M486.773 1365.872l8.042-4.838"/><path data-name="線 123561" d="M505.691 1344.122v-2.005"/><path data-name="線 123562" d="M505.691 1344.122v-2.005"/><path data-name="線 123563" d="M508.11 1440.388h0"/><path data-name="線 123564" d="M504.078 1439.581l-8.848-15.714"/><path data-name="線 123565" d="M505.69 1438.775l-8.848-15.714"/><path data-name="線 123566" d="M496.843 1408.982l-13.709 7.65"/><path data-name="線 123567" d="M484.355 1415.825h-17.719"/><path data-name="線 123568" d="M484.355 1417.83h-17.719"/><path data-name="線 123569" d="M483.134 1416.632l13.709 8.042"/><path data-name="線 123570" d="M496.842 1424.674v-15.692"/><path data-name="線 123571" d="M504.078 1394.075l-8.848 15.714"/><path data-name="線 123572" d="M505.69 1394.881l-8.848 15.692"/><path data-name="線 123573" d="M486.773 1416.632l8.042 4.817"/><path data-name="線 123574" d="M494.816 1421.449v-9.263"/><path data-name="線 123575" d="M486.773 1416.632l8.042-4.446"/><path data-name="線 123576" d="M505.691 1394.881v-1.613"/><path data-name="線 123577" d="M505.691 1394.881v-1.613"/><path data-name="線 123578" d="M552.004 1415.019h0"/><path data-name="線 123579" d="M548.386 1414.213l-9.263-15.714"/><path data-name="線 123580" d="M549.999 1412.992l-9.263-15.3"/><path data-name="線 123581" d="M540.736 1383.199l-13.687 8.042"/><path data-name="線 123582" d="M528.662 1390.435h-18.133"/><path data-name="線 123583" d="M528.662 1392.462h-18.133"/><path data-name="線 123584" d="M527.049 1391.241l13.687 8.064"/><path data-name="線 123585" d="M540.736 1399.305v-16.106"/><path data-name="線 123586" d="M548.386 1368.706l-9.263 15.692"/><path data-name="線 123587" d="M549.999 1369.512l-9.263 15.692"/><path data-name="線 123588" d="M530.667 1391.241l8.456 4.838"/><path data-name="線 123589" d="M539.123 1396.08v-9.655"/><path data-name="線 123590" d="M530.667 1391.242l8.456-4.817"/><path data-name="線 123591" d="M549.999 1369.513v-1.613"/><path data-name="線 123592" d="M549.999 1369.513v-1.613"/><path data-name="線 123593" d="M596.312 1389.65h0"/><path data-name="線 123594" d="M592.279 1388.43l-8.848-15.3"/><path data-name="線 123595" d="M593.892 1387.624l-8.848-15.714"/><path data-name="線 123596" d="M585.044 1357.831l-13.687 8.042"/><path data-name="線 123597" d="M572.948 1365.066h-18.111"/><path data-name="線 123598" d="M572.948 1366.679h-18.111"/><path data-name="線 123599" d="M571.357 1365.873l13.687 8.064"/><path data-name="線 123600" d="M585.044 1373.937v-16.106"/><path data-name="線 123601" d="M592.279 1343.316l-8.848 15.321"/><path data-name="線 123602" d="M593.892 1344.122l-8.848 15.714"/><path data-name="線 123603" d="M574.975 1365.873l8.042 4.838"/><path data-name="線 123604" d="M583.017 1370.711v-9.677"/><path data-name="線 123605" d="M574.975 1365.872l8.042-4.838"/><path data-name="線 123606" d="M593.893 1344.122v-2.005"/><path data-name="線 123607" d="M593.893 1344.122v-2.005"/><path data-name="線 123608" d="M596.312 1440.388h0"/><path data-name="線 123609" d="M592.279 1439.581l-8.848-15.714"/><path data-name="線 123610" d="M593.892 1438.775l-8.848-15.714"/><path data-name="線 123611" d="M585.044 1408.982l-13.687 7.65"/><path data-name="線 123612" d="M572.948 1415.825h-18.111"/><path data-name="線 123613" d="M572.948 1417.83h-18.111"/><path data-name="線 123614" d="M571.357 1416.632l13.687 8.042"/><path data-name="線 123615" d="M585.044 1424.674v-15.692"/><path data-name="線 123616" d="M592.279 1394.075l-8.848 15.714"/><path data-name="線 123617" d="M593.892 1394.881l-8.848 15.692"/><path data-name="線 123618" d="M574.975 1416.632l8.042 4.817"/><path data-name="線 123619" d="M583.017 1421.449v-9.263"/><path data-name="線 123620" d="M574.975 1416.632l8.042-4.446"/><path data-name="線 123621" d="M593.893 1394.881v-1.613"/><path data-name="線 123622" d="M593.893 1394.881v-1.613"/><path data-name="線 123623" d="M552.004 1465.364h0"/><path data-name="線 123624" d="M548.386 1464.558l-9.263-15.3"/><path data-name="線 123625" d="M549.999 1463.751l-9.263-15.3"/><path data-name="線 123626" d="M540.736 1434.351l-13.687 8.042"/><path data-name="線 123627" d="M528.662 1441.194h-18.133"/><path data-name="線 123628" d="M528.662 1443.199h-18.133"/><path data-name="線 123629" d="M527.049 1442.393l13.687 8.064"/><path data-name="線 123630" d="M540.736 1450.457v-16.106"/><path data-name="線 123631" d="M548.386 1419.443l-9.263 15.714"/><path data-name="線 123632" d="M549.999 1420.642l-9.263 15.321"/><path data-name="線 123633" d="M530.667 1442.393l8.456 4.838"/><path data-name="線 123634" d="M539.123 1447.231v-9.655"/><path data-name="線 123635" d="M530.667 1442.393l8.456-4.817"/><path data-name="線 123636" d="M549.999 1420.642v-2.005"/><path data-name="線 123637" d="M549.999 1420.642v-2.005"/><path data-name="線 123638" d="M640.227 1415.019h0"/><path data-name="線 123639" d="M636.587 1414.213l-8.848-15.714"/><path data-name="線 123640" d="M638.201 1412.992l-9.263-15.3"/><path data-name="線 123641" d="M628.938 1383.199l-13.687 8.042"/><path data-name="線 123642" d="M616.864 1390.435h-18.133"/><path data-name="線 123643" d="M616.864 1392.462h-18.133"/><path data-name="線 123644" d="M615.251 1391.241l13.687 8.064"/><path data-name="線 123645" d="M628.938 1399.305v-16.106"/><path data-name="線 123646" d="M636.587 1368.706l-8.848 15.692"/><path data-name="線 123647" d="M638.201 1369.512l-9.263 15.692"/><path data-name="線 123648" d="M618.869 1391.241l8.456 4.838"/><path data-name="線 123649" d="M627.325 1396.08v-9.655"/><path data-name="線 123650" d="M618.869 1391.242l8.456-4.817"/><path data-name="線 123651" d="M638.2 1369.513v-1.613"/><path data-name="線 123652" d="M638.2 1369.513v-1.613"/><path data-name="線 123653" d="M640.227 1465.364h0"/><path data-name="線 123654" d="M636.587 1464.558l-8.848-15.3"/><path data-name="線 123655" d="M638.201 1463.751l-9.263-15.3"/><path data-name="線 123656" d="M628.938 1434.351l-13.687 8.042"/><path data-name="線 123657" d="M616.864 1441.194h-18.133"/><path data-name="線 123658" d="M616.864 1443.199h-18.133"/><path data-name="線 123659" d="M615.251 1442.393l13.687 8.064"/><path data-name="線 123660" d="M628.938 1450.457v-16.106"/><path data-name="線 123661" d="M636.587 1419.443l-8.848 15.714"/><path data-name="線 123662" d="M638.201 1420.642l-9.263 15.321"/><path data-name="線 123663" d="M618.869 1442.393l8.456 4.838"/><path data-name="線 123664" d="M627.325 1447.231v-9.655"/><path data-name="線 123665" d="M618.869 1442.393l8.456-4.817"/><path data-name="線 123666" d="M638.2 1420.642v-2.005"/><path data-name="線 123667" d="M638.2 1420.642v-2.005"/><path data-name="線 123668" d="M508.11 1491.125h0"/><path data-name="線 123669" d="M504.078 1489.926l-8.848-15.3"/><path data-name="線 123670" d="M505.69 1489.12l-8.848-15.714"/><path data-name="線 123671" d="M496.843 1459.327l-13.709 8.042"/><path data-name="線 123672" d="M484.355 1466.563h-17.719"/><path data-name="線 123673" d="M484.355 1468.175h-17.719"/><path data-name="線 123674" d="M483.134 1467.369l13.709 8.064"/><path data-name="線 123675" d="M496.842 1475.433v-16.106"/><path data-name="線 123676" d="M504.078 1445.226l-8.848 14.907"/><path data-name="線 123677" d="M505.69 1446.032l-8.848 15.3"/><path data-name="線 123678" d="M486.773 1467.369l8.042 4.838"/><path data-name="線 123679" d="M494.816 1472.208v-9.677"/><path data-name="線 123680" d="M486.773 1467.369l8.042-4.838"/><path data-name="線 123681" d="M505.691 1446.032v-2.027"/><path data-name="線 123682" d="M505.691 1446.032v-2.027"/><path data-name="線 123683" d="M508.11 1541.884h0"/><path data-name="線 123684" d="M504.078 1541.078l-8.848-15.714"/><path data-name="線 123685" d="M505.69 1539.878l-8.848-15.321"/><path data-name="線 123686" d="M496.843 1510.478l-13.709 7.65"/><path data-name="線 123687" d="M484.355 1517.322h-17.719"/><path data-name="線 123688" d="M484.355 1519.327h-17.719"/><path data-name="線 123689" d="M483.134 1518.128l13.709 8.042"/><path data-name="線 123690" d="M496.842 1526.17v-15.692"/><path data-name="線 123691" d="M504.078 1495.571l-8.848 15.692"/><path data-name="線 123692" d="M505.69 1496.377l-8.848 15.692"/><path data-name="線 123693" d="M486.773 1518.128l8.042 4.817"/><path data-name="線 123694" d="M494.816 1522.945v-9.263"/><path data-name="線 123695" d="M486.773 1518.128l8.042-4.446"/><path data-name="線 123696" d="M505.691 1496.377v-1.613"/><path data-name="線 123697" d="M505.691 1496.377v-1.613"/><path data-name="線 123698" d="M552.004 1516.515h0"/><path data-name="線 123699" d="M548.386 1515.709l-9.263-15.714"/><path data-name="線 123700" d="M549.999 1514.488l-9.263-15.692"/><path data-name="線 123701" d="M540.736 1484.695l-13.687 8.042"/><path data-name="線 123702" d="M528.662 1491.931h-18.133"/><path data-name="線 123703" d="M528.662 1493.544h-18.133"/><path data-name="線 123704" d="M527.049 1492.738l13.687 8.064"/><path data-name="線 123705" d="M540.736 1500.801v-16.106"/><path data-name="線 123706" d="M548.386 1470.202l-9.263 15.692"/><path data-name="線 123707" d="M549.999 1470.987l-9.263 15.714"/><path data-name="線 123708" d="M530.667 1492.738l8.456 4.838"/><path data-name="線 123709" d="M539.123 1497.576v-9.655"/><path data-name="線 123710" d="M530.667 1492.738l8.456-4.817"/><path data-name="線 123711" d="M549.999 1470.987v-1.591"/><path data-name="線 123712" d="M549.999 1470.987v-1.591"/><path data-name="線 123713" d="M596.312 1491.125h0"/><path data-name="線 123714" d="M592.279 1489.926l-8.848-15.3"/><path data-name="線 123715" d="M593.892 1489.12l-8.848-15.714"/><path data-name="線 123716" d="M585.044 1459.327l-13.687 8.042"/><path data-name="線 123717" d="M572.948 1466.563h-18.111"/><path data-name="線 123718" d="M572.948 1468.175h-18.111"/><path data-name="線 123719" d="M571.357 1467.369l13.687 8.064"/><path data-name="線 123720" d="M585.044 1475.433v-16.106"/><path data-name="線 123721" d="M592.279 1445.226l-8.848 14.907"/><path data-name="線 123722" d="M593.892 1446.032l-8.848 15.3"/><path data-name="線 123723" d="M574.975 1467.369l8.042 4.838"/><path data-name="線 123724" d="M583.017 1472.208v-9.677"/><path data-name="線 123725" d="M574.975 1467.369l8.042-4.838"/><path data-name="線 123726" d="M593.893 1446.032v-2.027"/><path data-name="線 123727" d="M593.893 1446.032v-2.027"/><path data-name="線 123728" d="M596.312 1541.884h0"/><path data-name="線 123729" d="M592.279 1541.078l-8.848-15.714"/><path data-name="線 123730" d="M593.892 1539.878l-8.848-15.321"/><path data-name="線 123731" d="M585.044 1510.478l-13.687 7.65"/><path data-name="線 123732" d="M572.948 1517.322h-18.111"/><path data-name="線 123733" d="M572.948 1519.327h-18.111"/><path data-name="線 123734" d="M571.357 1518.128l13.687 8.042"/><path data-name="線 123735" d="M585.044 1526.17v-15.692"/><path data-name="線 123736" d="M592.279 1495.571l-8.848 15.692"/><path data-name="線 123737" d="M593.892 1496.377l-8.848 15.692"/><path data-name="線 123738" d="M574.975 1518.128l8.042 4.817"/><path data-name="線 123739" d="M583.017 1522.945v-9.263"/><path data-name="線 123740" d="M574.975 1518.128l8.042-4.446"/><path data-name="線 123741" d="M593.893 1496.377v-1.613"/><path data-name="線 123742" d="M593.893 1496.377v-1.613"/><path data-name="線 123743" d="M640.227 1516.515h0"/><path data-name="線 123744" d="M636.587 1515.709l-8.848-15.714"/><path data-name="線 123745" d="M638.201 1514.488l-9.263-15.692"/><path data-name="線 123746" d="M628.938 1484.695l-13.687 8.042"/><path data-name="線 123747" d="M616.864 1491.931h-18.133"/><path data-name="線 123748" d="M616.864 1493.544h-18.133"/><path data-name="線 123749" d="M615.251 1492.738l13.687 8.064"/><path data-name="線 123750" d="M628.938 1500.801v-16.106"/><path data-name="線 123751" d="M636.587 1470.202l-8.848 15.692"/><path data-name="線 123752" d="M638.201 1470.987l-9.263 15.714"/><path data-name="線 123753" d="M618.869 1492.738l8.456 4.838"/><path data-name="線 123754" d="M627.325 1497.576v-9.655"/><path data-name="線 123755" d="M618.869 1492.738l8.456-4.817"/><path data-name="線 123756" d="M638.2 1470.987v-1.591"/><path data-name="線 123757" d="M638.2 1470.987v-1.591"/></g></g></svg>