<svg xmlns="http://www.w3.org/2000/svg" width="200" height="230"><defs><clipPath id="a"><path data-name="長方形 180" transform="translate(450 1327)" fill="#ccc" d="M0 0h200v230H0z"/></clipPath></defs><g transform="translate(-450 -1327)" clip-path="url(#a)"><g data-name="グループ 3460" stroke-linecap="round" stroke-linejoin="round" stroke-width="1.308"><g data-name="グループ 3458" fill="none"><path data-name="線 126267" stroke="#70685c" d="M512.144 1418.783h-13.687"/><path data-name="線 126268" stroke="#70685c" d="M512.144 1422.794h-13.687"/><path data-name="線 126269" stroke="#70685c" d="M556.844 1418.783h-13.687"/><path data-name="線 126270" stroke="#70685c" d="M556.844 1422.794h-13.687"/><path data-name="線 126271" stroke="#70685c" d="M601.564 1418.783h-13.708"/><path data-name="線 126272" stroke="#70685c" d="M601.564 1422.794h-13.708"/><path data-name="線 126273" stroke="#70685c" d="M587.856 1422.793v-4.01"/><path data-name="線 126274" stroke="#70685c" d="M601.565 1422.793v-4.01"/><path data-name="線 126275" stroke="#70685c" d="M543.157 1422.793v-4.01"/><path data-name="線 126276" stroke="#70685c" d="M556.843 1422.793v-4.01"/><path data-name="線 126277" stroke="#70685c" d="M498.457 1422.793v-4.01"/><path data-name="線 126278" stroke="#70685c" d="M475.901 1433.276v-4.424"/><path data-name="線 126279" stroke="#70685c" d="M489.588 1433.276h-13.687"/><path data-name="線 126280" stroke="#70685c" d="M489.587 1433.276v-4.424"/><path data-name="線 126281" stroke="#70685c" d="M498.457 1443.345v-4.424"/><path data-name="線 126282" stroke="#70685c" d="M512.144 1443.345v-4.424"/><path data-name="線 126283" stroke="#70685c" d="M512.144 1438.921h-13.687"/><path data-name="線 126284" stroke="#70685c" d="M512.144 1443.345h-13.687"/><path data-name="線 126285" stroke="#70685c" d="M512.144 1422.793v-4.01"/><path data-name="線 126286" stroke="#70685c" d="M489.588 1428.852h-13.687"/><path data-name="線 126287" stroke="#70685c" d="M520.6 1433.276v-4.424"/><path data-name="線 126288" stroke="#70685c" d="M534.287 1428.852H520.6"/><path data-name="線 126289" stroke="#70685c" d="M534.287 1433.276H520.6"/><path data-name="線 126290" stroke="#70685c" d="M534.287 1433.276v-4.424"/><path data-name="線 126291" stroke="#70685c" d="M543.157 1443.345v-4.424"/><path data-name="線 126292" stroke="#70685c" d="M556.844 1443.345h-13.687"/><path data-name="線 126293" stroke="#70685c" d="M556.844 1438.921h-13.687"/><path data-name="線 126294" stroke="#70685c" d="M556.843 1443.345v-4.424"/><path data-name="線 126295" stroke="#70685c" d="M565.714 1433.276v-4.424"/><path data-name="線 126296" stroke="#70685c" d="M579.401 1428.852h-13.687"/><path data-name="線 126297" stroke="#70685c" d="M579.401 1433.276h-13.687"/><path data-name="線 126298" stroke="#70685c" d="M579.4 1433.276v-4.424"/><path data-name="線 126299" stroke="#70685c" d="M624.1 1428.852h-13.687"/><path data-name="線 126300" stroke="#70685c" d="M624.1 1433.276h-13.687"/><path data-name="線 126301" stroke="#70685c" d="M624.1 1433.276v-4.424"/><path data-name="線 126302" stroke="#70685c" d="M610.413 1433.276v-4.424"/><path data-name="線 126303" stroke="#70685c" d="M587.856 1443.345v-4.424"/><path data-name="線 126304" stroke="#70685c" d="M601.564 1438.921h-13.708"/><path data-name="線 126305" stroke="#70685c" d="M601.565 1443.345v-4.424"/><path data-name="線 126306" stroke="#70685c" d="M601.564 1443.345h-13.708"/><path data-name="線 126307" stroke="#c59535" d="M593.501 1455.419h-42.28"/><path data-name="線 126308" stroke="#c59535" d="M461.8 1497.307v-4.032"/><path data-name="線 126309" stroke="#c59535" d="M593.501 1400.651h-42.28"/><path data-name="線 126310" stroke="#c59535" d="M593.501 1397.425h-42.28"/><path data-name="線 126311" stroke="#c59535" d="M649.076 1554.102H450.925"/><path data-name="線 126312" stroke="#c59535" d="M450.925 1554.102v-224.739"/><path data-name="線 126313" stroke="#c59535" d="M483.943 1554.908v-.806"/><path data-name="線 126314" stroke="#c59535" d="M548.387 1455.419h-41.888"/><path data-name="線 126315" stroke="#c59535" d="M548.387 1452.608h-41.888"/><path data-name="線 126316" stroke="#c59535" d="M593.501 1452.608h-42.28"/><path data-name="線 126317" stroke="#c59535" d="M510.531 1455.419h-4.032"/><path data-name="線 126318" stroke="#c59535" d="M548.388 1455.419h-1.199"/><path data-name="線 126319" stroke="#c59535" d="M552.812 1452.608h-1.591"/><path data-name="線 126320" stroke="#c59535" d="M555.231 1411.112h-4.01"/><path data-name="線 126321" stroke="#c59535" d="M593.501 1411.112h-1.613"/><path data-name="線 126322" stroke="#c59535" d="M600.344 1455.419h-4.032"/><path data-name="線 126323" stroke="#c59535" d="M503.688 1497.307v-1.199"/><path data-name="線 126324" stroke="#c59535" d="M548.387 1452.607v-1.22"/><path data-name="線 126325" stroke="#c59535" d="M506.499 1452.608v-4.032"/><path data-name="線 126326" stroke="#c59535" d="M506.499 1412.332v-1.22"/><path data-name="線 126327" stroke="#c59535" d="M593.501 1497.307v-1.199"/><path data-name="線 126328" stroke="#c59535" d="M551.221 1497.307v-4.032"/><path data-name="線 126329" stroke="#c59535" d="M551.221 1456.639v-1.22"/><path data-name="線 126330" stroke="#c59535" d="M596.312 1452.608v-4.032"/><path data-name="線 126331" stroke="#c59535" d="M596.312 1412.332v-1.22"/><path data-name="線 126332" stroke="#c59535" d="M593.501 1497.307h-42.28"/><path data-name="線 126333" stroke="#c59535" d="M593.501 1500.14h-42.28"/><path data-name="線 126334" stroke="#c59535" d="M548.387 1497.307h-41.888"/><path data-name="線 126335" stroke="#c59535" d="M548.387 1500.14h-41.888"/><path data-name="線 126336" stroke="#c59535" d="M548.388 1497.307h-3.618"/><path data-name="線 126337" stroke="#c59535" d="M507.719 1497.307h-1.22"/><path data-name="線 126338" stroke="#c59535" d="M593.501 1497.307v-1.199"/><path data-name="線 126339" stroke="#c59535" d="M503.688 1497.307v-1.199"/><path data-name="線 126340" stroke="#c59535" d="M615.643 1411.112h-19.331"/><path data-name="線 126341" stroke="#c59535" d="M615.643 1407.908h-19.331"/><path data-name="線 126342" stroke="#c59535" d="M615.643 1400.651h-19.331"/><path data-name="線 126343" stroke="#c59535" d="M615.643 1397.425h-19.331"/><path data-name="線 126344" stroke="#c59535" d="M615.643 1507.79h-19.331"/><path data-name="線 126345" stroke="#c59535" d="M615.643 1510.601h-19.331"/><path data-name="線 126346" stroke="#c59535" d="M593.501 1507.79h-19.745"/><path data-name="線 126347" stroke="#c59535" d="M570.945 1507.79h-19.724"/><path data-name="線 126348" stroke="#c59535" d="M593.501 1510.601h-19.745"/><path data-name="線 126349" stroke="#c59535" d="M570.945 1510.601h-19.724"/><path data-name="線 126350" stroke="#c59535" d="M548.387 1507.79h-19.331"/><path data-name="線 126351" stroke="#c59535" d="M526.244 1507.79h-19.745"/><path data-name="線 126352" stroke="#c59535" d="M548.387 1510.601h-19.331"/><path data-name="線 126353" stroke="#c59535" d="M526.244 1510.601h-19.745"/><path data-name="線 126354" stroke="#c59535" d="M503.688 1507.79h-19.745"/><path data-name="線 126355" stroke="#c59535" d="M503.688 1510.601h-19.745"/><path data-name="線 126356" stroke="#c59535" d="M481.131 1543.227v-43.087"/><path data-name="線 126357" stroke="#c59535" d="M483.943 1543.227v-43.087"/><path data-name="線 126358" stroke="#c59535" d="M529.056 1543.227v-43.087"/><path data-name="線 126359" stroke="#c59535" d="M526.245 1543.227v-43.087"/><path data-name="線 126360" stroke="#c59535" d="M573.756 1543.227v-43.087"/><path data-name="線 126361" stroke="#c59535" d="M570.944 1543.227v-43.087"/><path data-name="線 126362" stroke="#c59535" d="M615.644 1543.227v-43.087"/><path data-name="線 126363" stroke="#c59535" d="M618.477 1543.227v-43.087"/><path data-name="線 126364" stroke="#c59535" d="M503.688 1497.307H461.8"/><path data-name="線 126365" stroke="#c59535" d="M503.688 1452.608H461.8"/><path data-name="線 126366" stroke="#c59535" d="M503.688 1455.419H461.8"/><path data-name="線 126367" stroke="#c59535" d="M638.2 1455.419h-41.888"/><path data-name="線 126368" stroke="#c59535" d="M638.2 1452.608h-41.888"/><path data-name="線 126369" stroke="#c59535" d="M462.999 1452.608H461.8"/><path data-name="線 126370" stroke="#c59535" d="M638.201 1455.419h-1.199"/><path data-name="線 126371" stroke="#c59535" d="M461.8 1456.639v-1.22"/><path data-name="線 126372" stroke="#c59535" d="M638.2 1452.607v-1.22"/><path data-name="線 126373" stroke="#c59535" d="M638.2 1497.307h-41.888"/><path data-name="線 126374" stroke="#c59535" d="M638.2 1500.14h-41.888"/><path data-name="線 126375" stroke="#c59535" d="M503.688 1500.14H461.8"/><path data-name="線 126376" stroke="#c59535" d="M638.201 1411.112h-19.724"/><path data-name="線 126377" stroke="#c59535" d="M638.201 1407.908h-19.724"/><path data-name="線 126378" stroke="#c59535" d="M638.201 1400.651h-19.724"/><path data-name="線 126379" stroke="#c59535" d="M638.201 1397.425h-19.724"/><path data-name="線 126380" stroke="#c59535" d="M638.201 1507.79h-19.724"/><path data-name="線 126381" stroke="#c59535" d="M638.201 1510.601h-19.724"/><path data-name="線 126382" stroke="#c59535" d="M481.131 1507.79H461.8"/><path data-name="線 126383" stroke="#c59535" d="M481.131 1510.601H461.8"/><path data-name="線 126384" stroke="#c59535" d="M481.131 1352.311v-9.262"/><path data-name="線 126385" stroke="#c59535" d="M483.943 1352.311v-9.262"/><path data-name="線 126386" stroke="#c59535" d="M506.499 1352.311v-9.262"/><path data-name="線 126387" stroke="#c59535" d="M503.688 1352.311v-9.262"/><path data-name="線 126388" stroke="#c59535" d="M526.245 1352.311v-9.262"/><path data-name="線 126389" stroke="#c59535" d="M529.056 1352.311v-9.262"/><path data-name="線 126390" stroke="#c59535" d="M551.221 1352.311v-9.262"/><path data-name="線 126391" stroke="#c59535" d="M548.387 1352.311v-9.262"/><path data-name="線 126392" stroke="#c59535" d="M570.944 1352.311v-9.262"/><path data-name="線 126393" stroke="#c59535" d="M573.756 1352.311v-9.262"/><path data-name="線 126394" stroke="#c59535" d="M593.501 1352.311v-9.262"/><path data-name="線 126395" stroke="#c59535" d="M596.312 1352.311v-9.262"/><path data-name="線 126396" stroke="#c59535" d="M481.131 1343.049v-2.811"/><path data-name="線 126397" stroke="#c59535" d="M483.943 1343.049v-2.811"/><path data-name="線 126398" stroke="#c59535" d="M503.688 1343.049v-2.811"/><path data-name="線 126399" stroke="#c59535" d="M506.499 1343.049v-2.811"/><path data-name="線 126400" stroke="#c59535" d="M526.245 1343.049v-2.811"/><path data-name="線 126401" stroke="#c59535" d="M529.056 1343.049v-2.811"/><path data-name="線 126402" stroke="#c59535" d="M548.387 1343.049v-2.811"/><path data-name="線 126403" stroke="#c59535" d="M551.221 1343.049v-2.811"/><path data-name="線 126404" stroke="#c59535" d="M570.944 1343.049v-2.811"/><path data-name="線 126405" stroke="#c59535" d="M573.756 1343.049v-2.811"/><path data-name="線 126406" stroke="#c59535" d="M593.501 1343.049v-2.811"/><path data-name="線 126407" stroke="#c59535" d="M596.312 1343.049v-2.811"/><path data-name="線 126408" stroke="#c59535" d="M615.644 1352.312v-12.074"/><path data-name="線 126409" stroke="#c59535" d="M618.477 1352.312v-12.074"/><path data-name="線 126410" stroke="#c59535" d="M638.2 1340.238H461.8"/><path data-name="線 126411" stroke="#c59535" d="M649.076 1554.102v-224.739"/><path data-name="線 126412" stroke="#c59535" d="M481.131 1397.425H461.8"/><path data-name="線 126413" stroke="#c59535" d="M503.688 1397.425h-19.745"/><path data-name="線 126414" stroke="#c59535" d="M481.131 1400.651H461.8"/><path data-name="線 126415" stroke="#c59535" d="M503.688 1400.651h-19.745"/><path data-name="線 126416" stroke="#c59535" d="M481.131 1407.908H461.8"/><path data-name="線 126417" stroke="#c59535" d="M503.688 1407.908h-19.745"/><path data-name="線 126418" stroke="#c59535" d="M481.131 1411.112H461.8"/><path data-name="線 126419" stroke="#c59535" d="M503.688 1411.112h-19.745"/><path data-name="線 126420" stroke="#c59535" d="M526.244 1411.112h-19.745"/><path data-name="線 126421" stroke="#c59535" d="M548.387 1411.112h-19.331"/><path data-name="線 126422" stroke="#c59535" d="M526.244 1407.908h-19.745"/><path data-name="線 126423" stroke="#c59535" d="M548.387 1407.908h-19.331"/><path data-name="線 126424" stroke="#c59535" d="M526.244 1400.651h-19.745"/><path data-name="線 126425" stroke="#c59535" d="M548.387 1400.651h-19.331"/><path data-name="線 126426" stroke="#c59535" d="M526.244 1397.425h-19.745"/><path data-name="線 126427" stroke="#c59535" d="M548.387 1397.425h-19.331"/><path data-name="線 126428" stroke="#c59535" d="M570.945 1411.112h-19.724"/><path data-name="線 126429" stroke="#c59535" d="M593.501 1411.112h-19.745"/><path data-name="線 126430" stroke="#c59535" d="M570.945 1407.908h-19.724"/><path data-name="線 126431" stroke="#c59535" d="M593.501 1407.908h-19.745"/><path data-name="線 126432" stroke="#c59535" d="M497.651 1452.608l-14.907-8.87"/><path data-name="線 126433" stroke="#c59535" d="M467.445 1452.608l15.299-8.87"/><path data-name="線 126434" stroke="#c59535" d="M461.8 1452.607l19.331-11.289"/><path data-name="線 126435" stroke="#c59535" d="M503.688 1452.607l-19.745-11.289"/><path data-name="線 126436" stroke="#c59535" d="M483.943 1441.318l-1.199.806"/><path data-name="線 126437" stroke="#c59535" d="M482.744 1443.738v-1.613"/><path data-name="線 126438" stroke="#c59535" d="M481.131 1441.318l1.613.806"/><path data-name="線 126439" stroke="#c59535" d="M526.245 1411.112v-58.8"/><path data-name="線 126440" stroke="#c59535" d="M529.056 1411.112v-58.8"/><path data-name="線 126441" stroke="#c59535" d="M573.756 1411.112v-58.8"/><path data-name="線 126442" stroke="#c59535" d="M570.944 1411.112v-58.8"/><path data-name="線 126443" stroke="#c59535" d="M618.477 1411.112v-58.8"/><path data-name="線 126444" stroke="#c59535" d="M615.644 1411.112v-58.8"/><path data-name="線 126445" stroke="#c59535" d="M548.387 1452.608h-41.888"/><path data-name="線 126446" stroke="#c59535" d="M507.719 1452.608h-1.22"/><path data-name="線 126447" stroke="#c59535" d="M526.244 1411.112h-19.745"/><path data-name="線 126448" stroke="#c59535" d="M548.387 1411.112h-19.331"/><path data-name="線 126449" stroke="#c59535" d="M542.742 1452.608l-15.299-8.87"/><path data-name="線 126450" stroke="#c59535" d="M512.536 1452.608l14.907-8.87"/><path data-name="線 126451" stroke="#c59535" d="M506.499 1452.607l19.745-11.289"/><path data-name="線 126452" stroke="#c59535" d="M548.387 1452.607l-19.331-11.289"/><path data-name="線 126453" stroke="#c59535" d="M529.056 1441.318l-1.613.806"/><path data-name="線 126454" stroke="#c59535" d="M527.443 1443.738v-1.613"/><path data-name="線 126455" stroke="#c59535" d="M526.245 1441.318l1.199.806"/><path data-name="線 126456" stroke="#c59535" d="M638.2 1452.608h-41.888"/><path data-name="線 126457" stroke="#c59535" d="M597.532 1452.608h-1.22"/><path data-name="線 126458" stroke="#c59535" d="M615.643 1411.112h-19.331"/><path data-name="線 126459" stroke="#c59535" d="M638.201 1411.112h-19.724"/><path data-name="線 126460" stroke="#c59535" d="M632.163 1452.608l-14.907-8.87"/><path data-name="線 126461" stroke="#c59535" d="M601.957 1452.608l15.299-8.87"/><path data-name="線 126462" stroke="#c59535" d="M596.312 1452.607l19.331-11.289"/><path data-name="線 126463" stroke="#c59535" d="M638.201 1452.607l-19.724-11.289"/><path data-name="線 126464" stroke="#c59535" d="M618.476 1441.318l-1.22.806"/><path data-name="線 126465" stroke="#c59535" d="M617.256 1443.738v-1.613"/><path data-name="線 126466" stroke="#c59535" d="M615.644 1441.318l1.613.806"/><path data-name="線 126467" stroke="#c59535" d="M593.501 1452.608h-42.28"/><path data-name="線 126468" stroke="#c59535" d="M552.812 1452.608h-1.591"/><path data-name="線 126469" stroke="#c59535" d="M570.945 1411.112h-19.724"/><path data-name="線 126470" stroke="#c59535" d="M593.501 1411.112h-19.745"/><path data-name="線 126471" stroke="#c59535" d="M587.464 1452.608l-14.907-8.87"/><path data-name="線 126472" stroke="#c59535" d="M557.258 1452.608l15.299-8.87"/><path data-name="線 126473" stroke="#c59535" d="M551.221 1452.607l19.724-11.289"/><path data-name="線 126474" stroke="#c59535" d="M593.501 1452.607l-19.745-11.289"/><path data-name="線 126475" stroke="#c59535" d="M573.756 1441.318l-1.199.806"/><path data-name="線 126476" stroke="#c59535" d="M572.557 1443.738v-1.613"/><path data-name="線 126477" stroke="#c59535" d="M570.944 1441.318l1.613.806"/><path data-name="線 126478" stroke="#c59535" d="M573.756 1441.319v-13.687"/><path data-name="線 126479" stroke="#c59535" d="M481.131 1413.139v-60.827"/><path data-name="線 126480" stroke="#c59535" d="M483.943 1412.725v-60.413"/><path data-name="線 126481" stroke="#c59535" d="M593.501 1543.227v-107.139"/><path data-name="線 126482" stroke="#c59535" d="M596.312 1543.227v-107.139"/><path data-name="線 126483" stroke="#c59535" d="M461.8 1495.302l19.331-19.331"/><path data-name="線 126484" stroke="#c59535" d="M463.805 1497.307l19.331-19.331"/><path data-name="線 126485" stroke="#c59535" d="M492.399 1477.976l11.289 19.331"/><path data-name="線 126486" stroke="#c59535" d="M494.818 1476.363l8.87 15.299"/><path data-name="線 126487" stroke="#c59535" d="M492.399 1474.75h-8.456"/><path data-name="線 126488" stroke="#c59535" d="M503.688 1455.419l-11.289 19.331"/><path data-name="線 126489" stroke="#c59535" d="M467.445 1455.419l15.299 8.87"/><path data-name="線 126490" stroke="#c59535" d="M483.943 1474.75v-8.042"/><path data-name="線 126491" stroke="#c59535" d="M503.688 1455.419l-19.745 11.289"/><path data-name="線 126492" stroke="#c59535" d="M461.8 1455.419l19.331 11.289"/><path data-name="線 126493" stroke="#c59535" d="M503.688 1461.064l-8.87 15.299"/><path data-name="線 126494" stroke="#c59535" d="M506.499 1491.662l8.87-15.299"/><path data-name="線 126495" stroke="#c59535" d="M506.499 1455.419l11.289 19.331"/><path data-name="線 126496" stroke="#c59535" d="M506.499 1497.307l11.289-19.331"/><path data-name="線 126497" stroke="#c59535" d="M506.499 1461.064l8.87 15.299"/><path data-name="線 126498" stroke="#c59535" d="M526.245 1474.75h-8.456"/><path data-name="線 126499" stroke="#c59535" d="M527.051 1477.976h-9.262"/><path data-name="線 126500" stroke="#c59535" d="M506.499 1455.419l19.745 11.289"/><path data-name="線 126501" stroke="#c59535" d="M548.387 1455.419l-19.331 11.289"/><path data-name="線 126502" stroke="#c59535" d="M529.056 1475.97v-9.262"/><path data-name="線 126503" stroke="#c59535" d="M512.536 1455.419l14.907 8.87"/><path data-name="線 126504" stroke="#c59535" d="M526.245 1474.75v-8.042"/><path data-name="線 126505" stroke="#c59535" d="M492.398 1477.976h-9.262"/><path data-name="線 126506" stroke="#c59535" d="M497.651 1455.419l-16.52 9.677"/><path data-name="線 126507" stroke="#c59535" d="M481.131 1475.971v-10.875"/><path data-name="線 126508" stroke="#c59535" d="M481.131 1465.096l2.811 1.613"/><path data-name="線 126509" stroke="#c59535" d="M483.942 1474.75l-2.811 3.226"/><path data-name="線 126510" stroke="#c59535" d="M542.742 1455.419l-15.299 8.87"/><path data-name="線 126511" stroke="#c59535" d="M483.136 1477.976h-2.005"/><path data-name="線 126512" stroke="#c59535" d="M481.131 1477.976v-2.005"/><path data-name="線 126513" stroke="#c59535" d="M494.012 1477.976h-1.613"/><path data-name="線 126514" stroke="#c59535" d="M494.817 1476.363l-.806 1.613"/><path data-name="線 126515" stroke="#c59535" d="M492.399 1474.75l1.613 3.226"/><path data-name="線 126516" stroke="#c59535" d="M527.051 1477.976l19.331 19.331"/><path data-name="線 126517" stroke="#c59535" d="M529.056 1475.971l19.331 19.331"/><path data-name="線 126518" stroke="#c59535" d="M551.221 1497.307v-4.032"/><path data-name="線 126519" stroke="#c59535" d="M638.2 1455.419h-41.888"/><path data-name="線 126520" stroke="#c59535" d="M600.344 1455.419h-4.032"/><path data-name="線 126521" stroke="#c59535" d="M638.201 1455.419h-1.199"/><path data-name="線 126522" stroke="#c59535" d="M593.501 1497.307v-1.199"/><path data-name="線 126523" stroke="#c59535" d="M638.2 1497.307h-41.888"/><path data-name="線 126524" stroke="#c59535" d="M638.2 1497.307h-4.032"/><path data-name="線 126525" stroke="#c59535" d="M597.532 1497.307h-1.22"/><path data-name="線 126526" stroke="#c59535" d="M593.501 1497.307v-1.199"/><path data-name="線 126527" stroke="#c59535" d="M593.501 1497.307h-42.28"/><path data-name="線 126528" stroke="#c59535" d="M593.501 1455.419h-42.28"/><path data-name="線 126529" stroke="#c59535" d="M551.221 1456.639v-1.22"/><path data-name="線 126530" stroke="#c59535" d="M551.221 1495.302l19.724-19.331"/><path data-name="線 126531" stroke="#c59535" d="M553.618 1497.307l19.331-19.331"/><path data-name="線 126532" stroke="#c59535" d="M582.212 1477.976l11.289 19.331"/><path data-name="線 126533" stroke="#c59535" d="M584.631 1476.363l8.87 15.299"/><path data-name="線 126534" stroke="#c59535" d="M582.212 1474.75h-8.456"/><path data-name="線 126535" stroke="#c59535" d="M593.501 1455.419l-11.289 19.331"/><path data-name="線 126536" stroke="#c59535" d="M557.258 1455.419l15.299 8.87"/><path data-name="線 126537" stroke="#c59535" d="M573.756 1474.75v-8.042"/><path data-name="線 126538" stroke="#c59535" d="M593.501 1455.419l-19.745 11.289"/><path data-name="線 126539" stroke="#c59535" d="M551.221 1455.419l19.724 11.289"/><path data-name="線 126540" stroke="#c59535" d="M593.501 1461.064l-8.87 15.299"/><path data-name="線 126541" stroke="#c59535" d="M596.312 1491.662l8.87-15.299"/><path data-name="線 126542" stroke="#c59535" d="M596.312 1455.419l11.289 19.331"/><path data-name="線 126543" stroke="#c59535" d="M596.312 1497.307l11.289-19.331"/><path data-name="線 126544" stroke="#c59535" d="M596.312 1461.064l8.87 15.299"/><path data-name="線 126545" stroke="#c59535" d="M615.644 1474.75h-8.042"/><path data-name="線 126546" stroke="#c59535" d="M616.45 1477.976h-8.848"/><path data-name="線 126547" stroke="#c59535" d="M596.312 1455.419l19.331 11.289"/><path data-name="線 126548" stroke="#c59535" d="M638.201 1455.419l-19.724 11.289"/><path data-name="線 126549" stroke="#c59535" d="M618.477 1475.97v-9.262"/><path data-name="線 126550" stroke="#c59535" d="M601.957 1455.419l15.299 8.87"/><path data-name="線 126551" stroke="#c59535" d="M615.644 1474.75v-8.042"/><path data-name="線 126552" stroke="#c59535" d="M582.211 1477.976h-9.262"/><path data-name="線 126553" stroke="#c59535" d="M587.464 1455.419l-16.52 9.677"/><path data-name="線 126554" stroke="#c59535" d="M570.944 1475.971v-10.875"/><path data-name="線 126555" stroke="#c59535" d="M570.944 1465.096l2.811 1.613"/><path data-name="線 126556" stroke="#c59535" d="M573.755 1474.75l-2.811 3.226"/><path data-name="線 126557" stroke="#c59535" d="M632.163 1455.419l-14.907 8.87"/><path data-name="線 126558" stroke="#c59535" d="M572.949 1477.976h-2.005"/><path data-name="線 126559" stroke="#c59535" d="M570.944 1477.976v-2.005"/><path data-name="線 126560" stroke="#c59535" d="M583.825 1477.976h-1.613"/><path data-name="線 126561" stroke="#c59535" d="M584.63 1476.363l-.806 1.613"/><path data-name="線 126562" stroke="#c59535" d="M582.212 1474.75l1.613 3.226"/><path data-name="線 126563" stroke="#c59535" d="M616.45 1477.976l19.745 19.331"/><path data-name="線 126564" stroke="#c59535" d="M618.477 1475.971l19.724 19.331"/><path data-name="線 126565" stroke="#c59535" d="M638.2 1543.227H461.8"/><path data-name="線 126566" stroke="#c59535" d="M638.2 1543.227v-202.989"/><path data-name="線 126567" stroke="#c59535" d="M649.076 1329.363H450.925"/><path data-name="線 126568" stroke="#c59535" d="M453.344 1554.102h-2.419"/><path data-name="線 126569" stroke="#c59535" d="M461.8 1543.227v-202.989"/><path data-name="線 126570" stroke="#c59535" d="M638.2 1543.227H461.8"/><path data-name="線 126571" stroke="#c59535" d="M450.925 1329.363l10.875 10.875"/><path data-name="線 126572" stroke="#c59535" d="M638.2 1340.238l10.875-10.875"/><path data-name="線 126573" stroke="#c59535" d="M461.8 1543.227l-10.875 10.875"/><path data-name="線 126574" stroke="#c59535" d="M638.2 1543.227l10.875 10.875"/><path data-name="線 126575" stroke="#c59535" d="M548.387 1418.784v-66.472"/><path data-name="線 126576" stroke="#c59535" d="M551.221 1418.784v-66.472"/><path data-name="線 126577" stroke="#c59535" d="M615.644 1432.862v-21.75"/><path data-name="線 126578" stroke="#c59535" d="M618.477 1434.083v-22.971"/><path data-name="線 126579" stroke="#c59535" d="M481.131 1428.438v-17.326"/><path data-name="線 126580" stroke="#c59535" d="M483.943 1432.47v-21.358"/><path data-name="線 126581" stroke="#c59535" d="M526.245 1427.632v-16.52"/><path data-name="線 126582" stroke="#c59535" d="M573.756 1428.438v-17.326"/><path data-name="線 126583" stroke="#c59535" d="M551.221 1436.502v-13.708"/><path data-name="線 126584" stroke="#c59535" d="M548.387 1436.895v-14.101"/><path data-name="線 126585" stroke="#c59535" d="M593.501 1436.895v-14.101"/><path data-name="線 126586" stroke="#c59535" d="M596.312 1418.784v-66.472"/><path data-name="線 126587" stroke="#c59535" d="M503.688 1438.507v-15.713"/><path data-name="線 126588" stroke="#c59535" d="M506.499 1437.309v-14.515"/><path data-name="線 126589" stroke="#c59535" d="M481.131 1428.852v-1.22"/><path data-name="線 126590" stroke="#c59535" d="M481.131 1441.318v-8.042"/><path data-name="線 126591" stroke="#c59535" d="M483.943 1428.852v-1.22"/><path data-name="線 126592" stroke="#c59535" d="M483.943 1441.318v-8.042"/><path data-name="線 126593" stroke="#c59535" d="M503.688 1438.921v-2.833"/><path data-name="線 126594" stroke="#c59535" d="M503.688 1543.227v-99.882"/><path data-name="線 126595" stroke="#c59535" d="M506.499 1438.921v-2.833"/><path data-name="線 126596" stroke="#c59535" d="M506.499 1543.227v-99.882"/><path data-name="線 126597" stroke="#c59535" d="M526.245 1428.852v-1.22"/><path data-name="線 126598" stroke="#c59535" d="M526.245 1441.318v-8.042"/><path data-name="線 126599" stroke="#c59535" d="M529.056 1428.852v-1.22"/><path data-name="線 126600" stroke="#c59535" d="M529.056 1441.318v-8.042"/><path data-name="線 126601" stroke="#c59535" d="M548.387 1438.921v-2.833"/><path data-name="線 126602" stroke="#c59535" d="M548.387 1543.227v-99.882"/><path data-name="線 126603" stroke="#c59535" d="M551.221 1438.921v-2.833"/><path data-name="線 126604" stroke="#c59535" d="M551.221 1543.227v-99.882"/><path data-name="線 126605" stroke="#c59535" d="M570.944 1428.852v-1.22"/><path data-name="線 126606" stroke="#c59535" d="M570.944 1441.318v-8.042"/><path data-name="線 126607" stroke="#c59535" d="M506.499 1418.784v-66.472"/><path data-name="線 126608" stroke="#c59535" d="M503.688 1418.784v-66.472"/><path data-name="線 126609" stroke="#c59535" d="M570.944 1428.852v-17.74"/><path data-name="線 126610" stroke="#c59535" d="M615.644 1428.852v-1.22"/><path data-name="線 126611" stroke="#c59535" d="M615.644 1441.318v-8.042"/><path data-name="線 126612" stroke="#c59535" d="M618.477 1428.852v-1.22"/><path data-name="線 126613" stroke="#c59535" d="M618.477 1441.318v-8.042"/><path data-name="線 126614" stroke="#c59535" d="M596.312 1436.895v-14.101"/><path data-name="線 126615" stroke="#c59535" d="M593.501 1418.784v-66.472"/><path data-name="線 126616" stroke="#c59535" d="M529.056 1428.852v-17.74"/><path data-name="線 126617" stroke="#c59535" d="M529.056 1433.276h0"/></g><g data-name="グループ 3459" fill="#70685c" stroke="#70685c"><path data-name="長方形 2042" d="M475.901 1428.852h13.687v4.424h-13.687z"/><path data-name="長方形 2043" d="M498.457 1418.566h13.687v4.424h-13.687z"/><path data-name="長方形 2044" d="M498.457 1438.921h13.687v4.424h-13.687z"/><path data-name="長方形 2045" d="M520.6 1428.852h13.687v4.424H520.6z"/><path data-name="長方形 2046" d="M543.157 1418.566h13.687v4.424h-13.687z"/><path data-name="長方形 2047" d="M543.157 1438.921h13.687v4.424h-13.687z"/><path data-name="長方形 2048" d="M565.3 1428.852h13.687v4.424H565.3z"/><path data-name="長方形 2049" d="M587.856 1418.566h13.687v4.424h-13.687z"/><path data-name="長方形 2050" d="M587.856 1438.921h13.687v4.424h-13.687z"/><path data-name="長方形 2051" d="M610.021 1428.852h13.687v4.424h-13.687z"/></g></g></g></svg>