<svg xmlns="http://www.w3.org/2000/svg" width="200" height="230"><defs><clipPath id="a"><path data-name="長方形 180" transform="translate(450 1327)" fill="#ccc" d="M0 0h200v230H0z"/></clipPath></defs><g data-name="マスクグループ 587" transform="translate(-450 -1327)" clip-path="url(#a)"><g data-name="グループ 3455" fill="none" stroke="#c59535" stroke-linecap="round" stroke-linejoin="round" stroke-width="1.308"><path data-name="線 124957" d="M550.001 1418.048l-3.226 1.613"/><path data-name="線 124958" d="M547.582 1416.828l-3.226 1.613"/><path data-name="線 124959" d="M542.351 1413.602l-3.226 1.613"/><path data-name="線 124960" d="M550.001 1411.597l-3.226 2.005"/><path data-name="線 124961" d="M544.356 1414.823l-3.204 2.005"/><path data-name="線 124962" d="M547.582 1410.377l-3.226 2.027"/><path data-name="線 124963" d="M553.226 1419.661l-3.226 2.005"/><path data-name="線 124964" d="M555.231 1420.859l-3.226 2.005"/><path data-name="線 124965" d="M560.876 1418.048l-3.226 1.613"/><path data-name="線 124966" d="M558.457 1416.828l-3.226 1.613"/><path data-name="線 124967" d="M555.231 1414.823l-3.226 2.005"/><path data-name="線 124968" d="M553.226 1413.602l-3.226 1.613"/><path data-name="線 124969" d="M591.888 1492.954L550 1468.784"/><path data-name="線 124970" d="M591.888 1499.405l-31.013 17.718"/><path data-name="線 124971" d="M550 1364.479l-41.888-24.17"/><path data-name="線 124972" d="M550 1366.898l-46.312-26.589"/><path data-name="線 124973" d="M577.787 1340.309h-74.099"/><path data-name="線 124974" d="M505.301 1341.922l.392-.414"/><path data-name="線 124975" d="M461.8 1453.877v-113.568"/><path data-name="線 124976" d="M503.688 1391.046l-41.888-24.148"/><path data-name="線 124977" d="M508.112 1391.046l-46.312-26.567"/><path data-name="線 124978" d="M461.8 1391.046v-37.05"/><path data-name="線 124979" d="M516.569 1341.508l-3.226 2.027"/><path data-name="線 124980" d="M514.564 1340.309l-3.226 1.613"/><path data-name="線 124981" d="M508.919 1343.535l-3.226 1.613"/><path data-name="線 124982" d="M505.301 1341.922l-2.833 1.613"/><path data-name="線 124983" d="M503.688 1340.309l-3.226 1.613"/><path data-name="線 124984" d="M550 1358.442l-31.405-18.133"/><path data-name="線 124985" d="M550 1360.839l-35.437-20.53"/><path data-name="線 124986" d="M550 1370.515l-52.763-30.206"/><path data-name="線 124987" d="M550 1373.327l-57.187-33.018"/><path data-name="線 124988" d="M550.001 1366.898l-3.226 2.005"/><path data-name="線 124989" d="M547.582 1365.677l-3.226 2.027"/><path data-name="線 124990" d="M542.351 1362.452l-3.226 2.027"/><path data-name="線 124991" d="M550.001 1360.839l-3.226 1.613"/><path data-name="線 124992" d="M544.356 1363.672l-3.204 2.005"/><path data-name="線 124993" d="M547.582 1359.64l-3.226 1.613"/><path data-name="線 124994" d="M550 1373.327l-31.405 17.718"/><path data-name="線 124995" d="M547.581 1372.128l-31.013 17.718"/><path data-name="線 124996" d="M544.356 1370.101l-31.013 18.133"/><path data-name="線 124997" d="M511.338 1389.454l-3.226 1.591"/><path data-name="線 124998" d="M542.351 1368.903l-31.013 17.718"/><path data-name="線 124999" d="M508.919 1388.234l-3.226 1.613"/><path data-name="線 125000" d="M539.125 1366.898l-31.013 18.111"/><path data-name="線 125001" d="M537.12 1365.677l-31.427 18.133"/><path data-name="線 125002" d="M503.688 1385.008l-3.226 1.613"/><path data-name="線 125003" d="M505.694 1386.229l-3.226 2.005"/><path data-name="線 125004" d="M500.463 1389.454l-3.226 1.591"/><path data-name="線 125005" d="M498.458 1388.234l-3.226 1.613"/><path data-name="線 125006" d="M497.237 1391.045l-35.437-20.53"/><path data-name="線 125007" d="M492.813 1391.045l-31.013-17.718"/><path data-name="線 125008" d="M465.026 1368.903l-3.226 1.613"/><path data-name="線 125009" d="M467.031 1370.101l-3.226 2.027"/><path data-name="線 125010" d="M472.676 1366.898l-3.226 2.005"/><path data-name="線 125011" d="M503.688 1346.346l-31.013 18.133"/><path data-name="線 125012" d="M470.257 1365.677l-3.226 2.027"/><path data-name="線 125013" d="M500.463 1344.733l-31.013 17.718"/><path data-name="線 125014" d="M467.031 1363.672l-3.226 2.005"/><path data-name="線 125015" d="M498.458 1343.535l-31.427 17.718"/><path data-name="線 125016" d="M465.026 1362.452l-3.226 2.027"/><path data-name="線 125017" d="M495.232 1341.508l-31.427 18.133"/><path data-name="線 125018" d="M518.595 1391.046l-56.795-32.604"/><path data-name="線 125019" d="M492.813 1340.309l-31.013 18.133"/><path data-name="線 125020" d="M514.563 1391.045l-52.763-30.206"/><path data-name="線 125021" d="M511.338 1344.733l-3.226 1.613"/><path data-name="線 125022" d="M505.693 1347.566l-31.013 18.111"/><path data-name="線 125023" d="M638.2 1364.479l-41.888-24.17"/><path data-name="線 125024" d="M638.2 1366.898l-46.312-26.589"/><path data-name="線 125025" d="M593.501 1341.922l.392-.414"/><path data-name="線 125026" d="M591.888 1391.046L550 1366.898"/><path data-name="線 125027" d="M596.312 1391.046L550 1364.479"/><path data-name="線 125028" d="M604.769 1341.508l-3.204 2.027"/><path data-name="線 125029" d="M602.764 1340.309l-3.226 1.613"/><path data-name="線 125030" d="M597.119 1343.535l-3.226 1.613"/><path data-name="線 125031" d="M593.501 1341.922l-2.811 1.613"/><path data-name="線 125032" d="M591.889 1340.309l-3.226 1.613"/><path data-name="線 125033" d="M638.201 1358.442l-31.013-18.133"/><path data-name="線 125034" d="M638.2 1360.839l-35.437-20.53"/><path data-name="線 125035" d="M638.2 1370.515l-52.763-30.206"/><path data-name="線 125036" d="M638.201 1366.898l-3.226 2.005"/><path data-name="線 125037" d="M636.196 1365.677l-3.226 2.027"/><path data-name="線 125038" d="M638.201 1360.839l-3.226 1.613"/><path data-name="線 125039" d="M636.196 1359.64l-3.226 1.613"/><path data-name="線 125040" d="M638.201 1373.327l-31.013 17.718"/><path data-name="線 125041" d="M636.195 1372.128l-31.427 17.718"/><path data-name="線 125042" d="M632.97 1370.101l-31.405 18.133"/><path data-name="線 125043" d="M599.538 1389.454l-3.226 1.591"/><path data-name="線 125044" d="M630.551 1368.903l-31.013 17.718"/><path data-name="線 125045" d="M597.119 1388.234l-3.226 1.613"/><path data-name="線 125046" d="M627.325 1366.898l-31.013 18.111"/><path data-name="線 125047" d="M625.32 1365.677l-31.427 18.133"/><path data-name="線 125048" d="M591.889 1385.008l-3.226 1.613"/><path data-name="線 125049" d="M593.894 1386.229l-3.204 2.005"/><path data-name="線 125050" d="M588.663 1389.454l-3.226 1.591"/><path data-name="線 125051" d="M586.658 1388.234l-3.226 1.613"/><path data-name="線 125052" d="M585.437 1391.045L550 1370.515"/><path data-name="線 125053" d="M581.013 1391.045L550 1373.327"/><path data-name="線 125054" d="M553.226 1368.903l-3.226 1.613"/><path data-name="線 125055" d="M555.231 1370.101l-3.226 2.027"/><path data-name="線 125056" d="M607.187 1391.046L550 1358.442"/><path data-name="線 125057" d="M581.013 1340.309L550 1358.442"/><path data-name="線 125058" d="M602.763 1391.045L550 1360.839"/><path data-name="線 125059" d="M599.538 1344.733l-3.226 1.613"/><path data-name="線 125060" d="M550 1415.215l-41.888-24.17"/><path data-name="線 125061" d="M550 1418.048l-46.312-27.003"/><path data-name="線 125062" d="M505.301 1392.658l.392-.392"/><path data-name="線 125063" d="M503.688 1442.196l-41.888-24.148"/><path data-name="線 125064" d="M508.112 1442.196l-46.312-26.981"/><path data-name="線 125065" d="M461.8 1442.196v-37.442"/><path data-name="線 125066" d="M516.569 1392.266l-3.226 2.005"/><path data-name="線 125067" d="M514.564 1391.045l-3.226 2.027"/><path data-name="線 125068" d="M508.919 1394.271l-3.226 2.027"/><path data-name="線 125069" d="M505.301 1392.658l-2.833 1.613"/><path data-name="線 125070" d="M503.688 1391.045l-3.226 2.027"/><path data-name="線 125071" d="M550 1409.178l-31.405-18.133"/><path data-name="線 125072" d="M550 1411.597l-35.437-20.552"/><path data-name="線 125073" d="M550 1421.666l-52.763-30.621"/><path data-name="線 125074" d="M550 1424.085l-57.187-33.04"/><path data-name="線 125075" d="M550 1424.085l-31.405 18.111"/><path data-name="線 125076" d="M547.581 1422.865l-31.013 18.133"/><path data-name="線 125077" d="M544.356 1420.859l-31.013 18.133"/><path data-name="線 125078" d="M511.338 1440.191l-3.226 2.005"/><path data-name="線 125079" d="M542.351 1419.661l-31.013 18.111"/><path data-name="線 125080" d="M508.919 1438.992l-3.226 2.005"/><path data-name="線 125081" d="M539.125 1418.048l-31.013 17.718"/><path data-name="線 125082" d="M537.12 1416.828l-31.427 17.718"/><path data-name="線 125083" d="M503.688 1435.767l-3.226 2.005"/><path data-name="線 125084" d="M505.694 1436.965l-3.226 2.027"/><path data-name="線 125085" d="M500.463 1440.191l-3.226 2.005"/><path data-name="線 125086" d="M498.458 1438.992l-3.226 2.005"/><path data-name="線 125087" d="M497.237 1442.196l-35.437-20.53"/><path data-name="線 125088" d="M492.813 1442.196l-31.013-18.111"/><path data-name="線 125089" d="M465.026 1419.661l-3.226 2.005"/><path data-name="線 125090" d="M467.031 1420.859l-3.226 2.005"/><path data-name="線 125091" d="M472.676 1418.048l-3.226 1.613"/><path data-name="線 125092" d="M503.688 1397.496l-31.013 17.718"/><path data-name="線 125093" d="M470.257 1416.828l-3.226 1.613"/><path data-name="線 125094" d="M500.463 1395.491l-31.013 18.111"/><path data-name="線 125095" d="M467.031 1414.823l-3.226 2.005"/><path data-name="線 125096" d="M498.458 1394.271l-31.427 18.133"/><path data-name="線 125097" d="M465.026 1413.602l-3.226 1.613"/><path data-name="線 125098" d="M495.232 1392.266l-31.427 18.111"/><path data-name="線 125099" d="M518.595 1442.196l-56.795-33.018"/><path data-name="線 125100" d="M492.813 1391.045l-31.013 18.133"/><path data-name="線 125101" d="M514.563 1442.196l-52.763-30.599"/><path data-name="線 125102" d="M511.338 1395.491l-3.226 2.005"/><path data-name="線 125103" d="M505.693 1398.717l-31.013 18.111"/><path data-name="線 125104" d="M638.2 1415.215l-41.888-24.17"/><path data-name="線 125105" d="M638.2 1418.048l-46.312-27.003"/><path data-name="線 125106" d="M593.501 1392.658l.392-.392"/><path data-name="線 125107" d="M591.888 1442.196L550 1418.048"/><path data-name="線 125108" d="M596.312 1442.196L550 1415.215"/><path data-name="線 125109" d="M604.769 1392.266l-3.204 2.005"/><path data-name="線 125110" d="M602.764 1391.045l-3.226 2.027"/><path data-name="線 125111" d="M597.119 1394.271l-3.226 2.027"/><path data-name="線 125112" d="M593.501 1392.658l-2.811 1.613"/><path data-name="線 125113" d="M591.889 1391.045l-3.226 2.027"/><path data-name="線 125114" d="M638.201 1409.178l-31.013-18.133"/><path data-name="線 125115" d="M638.2 1411.597l-35.437-20.552"/><path data-name="線 125116" d="M638.2 1421.666l-52.763-30.621"/><path data-name="線 125117" d="M638.2 1424.085l-57.187-33.04"/><path data-name="線 125118" d="M638.201 1418.048l-3.226 1.613"/><path data-name="線 125119" d="M636.196 1416.828l-3.226 1.613"/><path data-name="線 125120" d="M630.551 1413.602l-3.226 1.613"/><path data-name="線 125121" d="M638.201 1411.597l-3.226 2.005"/><path data-name="線 125122" d="M632.97 1414.823l-3.618 2.005"/><path data-name="線 125123" d="M636.196 1410.377l-3.226 2.027"/><path data-name="線 125124" d="M638.201 1424.085l-31.013 18.111"/><path data-name="線 125125" d="M636.195 1422.865l-31.427 18.133"/><path data-name="線 125126" d="M632.97 1420.859l-31.405 18.133"/><path data-name="線 125127" d="M599.538 1440.191l-3.226 2.005"/><path data-name="線 125128" d="M630.551 1419.661l-31.013 18.111"/><path data-name="線 125129" d="M597.119 1438.992l-3.226 2.005"/><path data-name="線 125130" d="M627.325 1418.048l-31.013 17.718"/><path data-name="線 125131" d="M625.32 1416.828l-31.427 17.718"/><path data-name="線 125132" d="M591.889 1435.767l-3.226 2.005"/><path data-name="線 125133" d="M593.894 1436.965l-3.204 2.027"/><path data-name="線 125134" d="M588.663 1440.191l-3.226 2.005"/><path data-name="線 125135" d="M586.658 1438.992l-3.226 2.005"/><path data-name="線 125136" d="M585.437 1442.196L550 1421.666"/><path data-name="線 125137" d="M581.013 1442.196L550 1424.085"/><path data-name="線 125138" d="M591.888 1397.496l-31.013 17.718"/><path data-name="線 125139" d="M588.663 1395.491l-31.013 18.111"/><path data-name="線 125140" d="M586.658 1394.271l-31.427 18.133"/><path data-name="線 125141" d="M583.432 1392.266l-31.427 18.111"/><path data-name="線 125142" d="M607.187 1442.196L550 1409.178"/><path data-name="線 125143" d="M581.013 1391.045L550 1409.178"/><path data-name="線 125144" d="M602.763 1442.196L550 1411.597"/><path data-name="線 125145" d="M599.538 1395.491l-3.226 2.005"/><path data-name="線 125146" d="M593.893 1398.717l-31.013 18.111"/><path data-name="線 125147" d="M550 1466.366l-41.888-24.17"/><path data-name="線 125148" d="M550 1468.785l-46.312-26.589"/><path data-name="線 125149" d="M505.301 1443.808l.392-.392"/><path data-name="線 125150" d="M503.688 1492.954l-41.888-24.17"/><path data-name="線 125151" d="M508.112 1492.954l-46.312-26.589"/><path data-name="線 125152" d="M461.8 1492.954v-39.077"/><path data-name="線 125153" d="M516.569 1443.416l-3.226 1.613"/><path data-name="線 125154" d="M514.564 1442.196l-3.226 1.613"/><path data-name="線 125155" d="M508.919 1445.029l-3.226 2.005"/><path data-name="線 125156" d="M505.301 1443.809l-2.833 1.22"/><path data-name="線 125157" d="M503.688 1442.196l-3.226 1.613"/><path data-name="線 125158" d="M550 1459.936l-31.405-17.74"/><path data-name="線 125159" d="M550 1462.748l-35.437-20.552"/><path data-name="線 125160" d="M550 1472.402l-52.763-30.206"/><path data-name="線 125161" d="M550 1475.236l-57.187-33.04"/><path data-name="線 125162" d="M550.001 1468.784l-3.226 2.005"/><path data-name="線 125163" d="M547.582 1467.586l-3.226 2.005"/><path data-name="線 125164" d="M542.351 1464.36l-3.226 2.005"/><path data-name="線 125165" d="M550.001 1462.747l-3.226 1.613"/><path data-name="線 125166" d="M544.356 1465.559l-3.204 2.027"/><path data-name="線 125167" d="M547.582 1461.527l-3.226 1.613"/><path data-name="線 125168" d="M550 1475.235l-31.405 17.718"/><path data-name="線 125169" d="M547.581 1473.623l-31.013 18.111"/><path data-name="線 125170" d="M544.356 1472.01l-31.013 18.133"/><path data-name="線 125171" d="M511.338 1491.341l-3.226 1.613"/><path data-name="線 125172" d="M542.351 1470.789l-31.013 17.74"/><path data-name="線 125173" d="M508.919 1490.143l-3.226 1.591"/><path data-name="線 125174" d="M539.125 1468.784l-31.013 18.133"/><path data-name="線 125175" d="M537.12 1467.586l-31.427 18.111"/><path data-name="線 125176" d="M503.688 1486.917l-3.226 1.613"/><path data-name="線 125177" d="M505.694 1488.116l-3.226 2.027"/><path data-name="線 125178" d="M500.463 1491.341l-3.226 1.613"/><path data-name="線 125179" d="M498.458 1490.143l-3.226 1.591"/><path data-name="線 125180" d="M497.237 1492.954l-35.437-20.552"/><path data-name="線 125181" d="M492.813 1492.953l-31.013-17.718"/><path data-name="線 125182" d="M465.026 1470.789l-3.226 1.613"/><path data-name="線 125183" d="M467.031 1472.01l-3.226 1.613"/><path data-name="線 125184" d="M472.676 1468.784l-3.226 2.005"/><path data-name="線 125185" d="M503.688 1448.255l-31.013 18.111"/><path data-name="線 125186" d="M470.257 1467.586l-3.226 2.005"/><path data-name="線 125187" d="M500.463 1446.642l-31.013 17.718"/><path data-name="線 125188" d="M467.031 1465.559l-3.226 2.027"/><path data-name="線 125189" d="M498.458 1445.029l-31.427 18.111"/><path data-name="線 125190" d="M465.026 1464.36l-3.226 2.005"/><path data-name="線 125191" d="M495.232 1443.416l-31.427 18.111"/><path data-name="線 125192" d="M518.595 1492.954l-56.795-33.018"/><path data-name="線 125193" d="M492.813 1442.196l-31.013 17.74"/><path data-name="線 125194" d="M514.563 1492.953l-52.763-30.206"/><path data-name="線 125195" d="M511.338 1446.642l-3.226 1.613"/><path data-name="線 125196" d="M505.693 1449.453l-31.013 18.133"/><path data-name="線 125197" d="M638.2 1466.366l-41.888-24.17"/><path data-name="線 125198" d="M638.2 1468.785l-46.312-26.589"/><path data-name="線 125199" d="M593.501 1443.808l.392-.392"/><path data-name="線 125200" d="M596.312 1492.954L550 1466.365"/><path data-name="線 125201" d="M604.769 1443.416l-3.204 1.613"/><path data-name="線 125202" d="M602.764 1442.196l-3.226 1.613"/><path data-name="線 125203" d="M597.119 1445.029l-3.226 2.005"/><path data-name="線 125204" d="M593.501 1443.809l-2.811 1.22"/><path data-name="線 125205" d="M591.889 1442.196l-3.226 1.613"/><path data-name="線 125206" d="M638.201 1459.936l-31.013-17.74"/><path data-name="線 125207" d="M638.2 1462.748l-35.437-20.552"/><path data-name="線 125208" d="M638.2 1472.402l-52.763-30.206"/><path data-name="線 125209" d="M638.2 1475.236l-57.187-33.04"/><path data-name="線 125210" d="M638.201 1468.784l-3.226 2.005"/><path data-name="線 125211" d="M636.196 1467.586l-3.226 2.005"/><path data-name="線 125212" d="M630.551 1464.36l-3.226 2.005"/><path data-name="線 125213" d="M638.201 1462.747l-3.226 1.613"/><path data-name="線 125214" d="M632.97 1465.559l-3.618 2.027"/><path data-name="線 125215" d="M636.196 1461.527l-3.226 1.613"/><path data-name="線 125216" d="M638.201 1475.235l-31.013 17.718"/><path data-name="線 125217" d="M636.195 1473.623l-31.427 18.111"/><path data-name="線 125218" d="M632.97 1472.01l-31.405 18.133"/><path data-name="線 125219" d="M599.538 1491.341l-3.226 1.613"/><path data-name="線 125220" d="M630.551 1470.789l-31.013 17.74"/><path data-name="線 125221" d="M597.119 1490.143l-3.226 1.591"/><path data-name="線 125222" d="M627.325 1468.784l-31.013 18.133"/><path data-name="線 125223" d="M625.32 1467.586l-31.427 18.111"/><path data-name="線 125224" d="M591.889 1486.917l-3.226 1.613"/><path data-name="線 125225" d="M593.894 1488.116l-3.204 2.027"/><path data-name="線 125226" d="M588.663 1491.341l-3.226 1.613"/><path data-name="線 125227" d="M586.658 1490.143l-3.226 1.591"/><path data-name="線 125228" d="M585.437 1492.954L550 1472.402"/><path data-name="線 125229" d="M581.013 1492.953L550 1475.235"/><path data-name="線 125230" d="M553.226 1470.789l-3.226 1.613"/><path data-name="線 125231" d="M555.231 1472.01l-3.226 1.613"/><path data-name="線 125232" d="M560.876 1468.784l-3.226 2.005"/><path data-name="線 125233" d="M591.888 1448.255l-31.013 18.111"/><path data-name="線 125234" d="M558.457 1467.586l-3.226 2.005"/><path data-name="線 125235" d="M588.663 1446.642l-31.013 17.718"/><path data-name="線 125236" d="M555.231 1465.559l-3.226 2.027"/><path data-name="線 125237" d="M586.658 1445.029l-31.427 18.111"/><path data-name="線 125238" d="M553.226 1464.36l-3.226 2.005"/><path data-name="線 125239" d="M583.432 1443.416l-31.427 18.111"/><path data-name="線 125240" d="M607.187 1492.954L550 1459.936"/><path data-name="線 125241" d="M581.013 1442.196L550 1459.936"/><path data-name="線 125242" d="M602.763 1492.953L550 1462.747"/><path data-name="線 125243" d="M599.538 1446.642l-3.226 1.613"/><path data-name="線 125244" d="M593.893 1449.453l-31.013 18.133"/><path data-name="線 125245" d="M550 1517.124l-41.888-24.17"/><path data-name="線 125246" d="M550 1519.935l-46.312-26.981"/><path data-name="線 125247" d="M505.301 1494.567l.392-.414"/><path data-name="線 125248" d="M503.688 1544.105l-41.888-24.17"/><path data-name="線 125249" d="M508.112 1544.104l-46.312-26.981"/><path data-name="線 125250" d="M461.8 1544.105v-37.464"/><path data-name="線 125251" d="M516.569 1494.153l-3.226 2.027"/><path data-name="線 125252" d="M514.564 1492.954l-3.226 2.005"/><path data-name="線 125253" d="M508.919 1496.179l-3.226 2.005"/><path data-name="線 125254" d="M505.301 1494.567l-2.833 1.613"/><path data-name="線 125255" d="M503.688 1492.954l-3.226 2.005"/><path data-name="線 125256" d="M550 1511.065l-31.405-18.111"/><path data-name="線 125257" d="M550 1513.484l-35.437-20.53"/><path data-name="線 125258" d="M550 1523.553l-52.763-30.599"/><path data-name="線 125259" d="M550 1525.972l-57.187-33.018"/><path data-name="線 125260" d="M550.001 1519.935l-3.226 1.613"/><path data-name="線 125261" d="M542.351 1515.511l-3.226 1.613"/><path data-name="線 125262" d="M550.001 1513.484l-3.226 2.027"/><path data-name="線 125263" d="M544.356 1516.709l-3.204 1.613"/><path data-name="線 125264" d="M547.582 1512.285l-3.226 2.005"/><path data-name="線 125265" d="M550 1525.972l-31.405 18.133"/><path data-name="線 125266" d="M547.581 1524.773l-31.013 18.111"/><path data-name="線 125267" d="M544.356 1522.746l-31.013 18.133"/><path data-name="線 125268" d="M511.338 1542.078l-3.226 2.027"/><path data-name="線 125269" d="M542.351 1521.548l-31.013 18.133"/><path data-name="線 125270" d="M508.919 1540.879l-3.226 2.005"/><path data-name="線 125271" d="M539.125 1519.935l-31.013 17.718"/><path data-name="線 125272" d="M536.771 1518.518l-31.078 17.936"/><path data-name="線 125273" d="M503.688 1537.653l-3.226 2.027"/><path data-name="線 125274" d="M505.694 1538.874l-3.226 2.005"/><path data-name="線 125275" d="M500.463 1542.078l-3.226 2.027"/><path data-name="線 125276" d="M498.458 1540.879l-3.226 2.005"/><path data-name="線 125277" d="M497.237 1544.105l-35.437-20.552"/><path data-name="線 125278" d="M492.813 1544.105l-31.013-18.133"/><path data-name="線 125279" d="M466.965 1522.921l-3.16 1.852"/><path data-name="線 125280" d="M503.688 1499.405l-31.013 17.718"/><path data-name="線 125281" d="M500.463 1497.378l-31.013 18.133"/><path data-name="線 125282" d="M467.031 1516.709l-3.226 1.613"/><path data-name="線 125283" d="M498.458 1496.179l-31.427 18.111"/><path data-name="線 125284" d="M465.026 1515.511l-3.226 1.613"/><path data-name="線 125285" d="M495.232 1494.153l-31.427 18.133"/><path data-name="線 125286" d="M518.595 1544.105l-56.795-33.04"/><path data-name="線 125287" d="M492.813 1492.954l-31.013 18.111"/><path data-name="線 125288" d="M514.563 1544.105l-52.763-30.621"/><path data-name="線 125289" d="M511.338 1497.378l-3.226 2.027"/><path data-name="線 125290" d="M505.693 1500.604l-31.013 17.718"/><path data-name="線 125291" d="M638.2 1517.124l-41.888-24.17"/><path data-name="線 125292" d="M638.2 1519.935l-46.312-26.981"/><path data-name="線 125293" d="M593.501 1494.567l.392-.414"/><path data-name="線 125294" d="M591.888 1544.105L550 1519.935"/><path data-name="線 125295" d="M596.312 1544.104L550 1517.123"/><path data-name="線 125296" d="M604.769 1494.153l-3.204 2.027"/><path data-name="線 125297" d="M602.764 1492.954l-3.226 2.005"/><path data-name="線 125298" d="M597.119 1496.179l-3.226 2.005"/><path data-name="線 125299" d="M593.501 1494.567l-2.811 1.613"/><path data-name="線 125300" d="M591.889 1492.954l-3.226 2.005"/><path data-name="線 125301" d="M638.201 1511.065l-31.013-18.111"/><path data-name="線 125302" d="M638.2 1513.484l-35.437-20.53"/><path data-name="線 125303" d="M638.2 1523.553l-52.763-30.599"/><path data-name="線 125304" d="M638.2 1525.972l-57.187-33.018"/><path data-name="線 125305" d="M638.201 1519.935l-3.226 1.613"/><path data-name="線 125306" d="M636.196 1518.322l-3.226 2.027"/><path data-name="線 125307" d="M630.551 1515.511l-3.226 1.613"/><path data-name="線 125308" d="M638.201 1513.484l-3.226 2.027"/><path data-name="線 125309" d="M632.97 1516.709l-3.618 1.613"/><path data-name="線 125310" d="M636.196 1512.285l-3.226 2.005"/><path data-name="線 125311" d="M638.201 1525.972l-31.013 18.133"/><path data-name="線 125312" d="M636.195 1524.773l-31.427 18.111"/><path data-name="線 125313" d="M632.97 1522.746l-31.405 18.133"/><path data-name="線 125314" d="M599.538 1542.078l-3.226 2.027"/><path data-name="線 125315" d="M630.551 1521.548l-31.013 18.133"/><path data-name="線 125316" d="M597.119 1540.879l-3.226 2.005"/><path data-name="線 125317" d="M627.325 1519.935l-31.013 17.718"/><path data-name="線 125318" d="M625.32 1518.322l-31.427 18.133"/><path data-name="線 125319" d="M591.889 1537.653l-3.226 2.027"/><path data-name="線 125320" d="M593.894 1538.874l-3.204 2.005"/><path data-name="線 125321" d="M588.663 1542.078l-3.226 2.027"/><path data-name="線 125322" d="M586.658 1540.879l-3.226 2.005"/><path data-name="線 125323" d="M585.437 1544.105L550 1523.553"/><path data-name="線 125324" d="M581.013 1544.105L550 1525.972"/><path data-name="線 125325" d="M553.008 1521.678l-3.008 1.874"/><path data-name="線 125326" d="M555.056 1522.855l-3.051 1.918"/><path data-name="線 125327" d="M560.876 1519.935l-3.226 1.613"/><path data-name="線 125328" d="M558.457 1518.322l-3.226 2.027"/><path data-name="線 125329" d="M588.663 1497.378l-31.013 18.133"/><path data-name="線 125330" d="M555.231 1516.709l-3.226 1.613"/><path data-name="線 125331" d="M586.658 1496.179l-31.427 18.111"/><path data-name="線 125332" d="M553.226 1515.511l-3.226 1.613"/><path data-name="線 125333" d="M583.432 1494.153l-31.427 18.133"/><path data-name="線 125334" d="M607.187 1544.105L550 1511.065"/><path data-name="線 125335" d="M581.013 1492.954L550 1511.065"/><path data-name="線 125336" d="M602.763 1544.105L550 1513.484"/><path data-name="線 125337" d="M599.538 1497.378l-3.226 2.027"/><path data-name="線 125338" d="M593.893 1500.604l-31.013 17.718"/><path data-name="線 125339" d="M492.813 1544.104H461.8"/><path data-name="線 125340" d="M461.8 1506.641v-13.687"/><path data-name="線 125341" d="M638.201 1544.104H492.813"/><path data-name="線 125342" d="M461.8 1522.965l2.615-1.417"/><path data-name="線 125343" d="M472.392 1519.63l-3.16 1.809"/><path data-name="線 125344" d="M467.183 1520.262l3.16-1.809"/><path data-name="線 125345" d="M547.581 1518.518l-3.334 1.7"/><path data-name="線 125346" d="M632.97 1363.672l-3.618 2.005"/><path data-name="線 125347" d="M627.325 1366.898l-2.811 1.613"/><path data-name="線 125348" d="M630.551 1362.452l-3.226 2.027"/><path data-name="線 125349" d="M625.32 1365.677l-.806.414"/><path data-name="線 125350" d="M638.2 1373.327l-57.187-33.018"/><path data-name="線 125351" d="M583.432 1341.508l-31.427 18.133"/><path data-name="線 125352" d="M553.226 1362.452l-3.226 2.027"/><path data-name="線 125353" d="M555.231 1363.672l-3.226 2.005"/><path data-name="線 125354" d="M558.457 1365.677l-3.226 2.027"/><path data-name="線 125355" d="M560.876 1366.898l-3.226 2.005"/><path data-name="線 125356" d="M593.893 1347.566l-31.013 18.111"/><path data-name="線 125357" d="M591.888 1346.346l-31.013 18.133"/><path data-name="線 125358" d="M588.663 1344.733l-31.013 17.718"/><path data-name="線 125359" d="M586.658 1343.535l-31.427 17.718"/><path data-name="線 125360" d="M591.889 1340.309l-3.226 1.613"/><path data-name="線 125361" d="M604.769 1341.508l-3.204 2.027"/><path data-name="線 125362" d="M599.538 1344.733l-3.226 1.613"/><path data-name="線 125363" d="M602.764 1340.309l-3.226 1.613"/><path data-name="線 125364" d="M597.119 1343.535l-3.226 1.613"/><path data-name="線 125365" d="M593.894 1341.508l-3.204 2.027"/><path data-name="線 125366" d="M638.2 1340.309H461.8"/><path data-name="線 125367" d="M638.2 1544.104v-203.795"/><path data-name="線 125368" d="M649.076 1329.434H450.925"/><path data-name="線 125369" d="M649.076 1554.566v-225.132"/><path data-name="線 125370" d="M649.076 1554.565H450.925"/><path data-name="線 125371" d="M450.925 1554.566v-225.132"/><path data-name="線 125372" d="M450.925 1554.565l10.875-10.461"/><path data-name="線 125373" d="M638.2 1544.104l10.875 10.461"/><path data-name="線 125374" d="M638.2 1340.309l10.875-10.875"/><path data-name="線 125375" d="M450.925 1329.434l10.875 10.875"/></g></g></svg>