<svg xmlns="http://www.w3.org/2000/svg" width="200" height="230"><defs><clipPath id="a"><path data-name="長方形 180" transform="translate(450 1327)" fill="#ccc" d="M0 0h200v230H0z"/></clipPath></defs><g data-name="マスクグループ 579" transform="translate(-450 -1327)" clip-path="url(#a)"><g data-name="グループ 3447" fill="none" stroke="#c49535" stroke-linecap="round" stroke-linejoin="round" stroke-width="1.31"><path data-name="線 119459" d="M637.369 1518.682l-41.971 24.196"/><path data-name="線 119460" d="M548.994 1365.319l-41.578 23.824"/><path data-name="線 119461" d="M505.8 1389.144v-47.234"/><path data-name="線 119462" d="M638.177 1538.444v-198.543"/><path data-name="線 119463" d="M463.829 1544.1v-23.802"/><path data-name="線 119464" d="M579.26 1339.901h-74.661"/><path data-name="線 119465" d="M506.215 1341.517l.808-.415"/><path data-name="線 119466" d="M551.003 1364.118l-41.971-24.217"/><path data-name="線 119467" d="M551.003 1366.542l-46.404-26.641"/><path data-name="線 119468" d="M551.003 1417.794l-41.971 24.196"/><path data-name="線 119469" d="M548.994 1416.571l-41.971 24.217"/><path data-name="線 119470" d="M509.032 1391.153l41.971 24.217"/><path data-name="線 119471" d="M507.831 1392.769l43.172 25.025"/><path data-name="線 119472" d="M551.003 1366.542l-41.971 24.61"/><path data-name="線 119473" d="M505.8 1397.202v-4.433"/><path data-name="線 119474" d="M505.8 1439.981v-47.212"/><path data-name="線 119475" d="M505.8 1391.546l1.223.808"/><path data-name="線 119476" d="M507.023 1392.354l-42.386 24.217"/><path data-name="線 119477" d="M506.215 1341.517l-41.578 23.802"/><path data-name="線 119478" d="M463.829 1391.152v-23.802"/><path data-name="線 119479" d="M549.802 1363.703v-23.802"/><path data-name="線 119480" d="M506.215 1443.605l.808-.393"/><path data-name="線 119481" d="M551.003 1466.207l-41.971-24.217"/><path data-name="線 119482" d="M551.003 1468.631l-46.404-26.641"/><path data-name="線 119483" d="M551.003 1519.883l-41.971 24.217"/><path data-name="線 119484" d="M548.994 1518.682l-41.971 24.196"/><path data-name="線 119485" d="M505.8 1491.232v-47.212"/><path data-name="線 119486" d="M509.032 1493.241l41.971 24.217"/><path data-name="線 119487" d="M507.831 1494.857l43.172 25.025"/><path data-name="線 119488" d="M551.003 1468.631l-41.971 24.61"/><path data-name="線 119489" d="M505.8 1499.312v-4.455"/><path data-name="線 119490" d="M505.8 1542.069v-47.212"/><path data-name="線 119491" d="M505.8 1493.656l1.223.808"/><path data-name="線 119492" d="M507.023 1494.464l-42.386 24.217"/><path data-name="線 119493" d="M506.215 1443.605l-41.578 23.824"/><path data-name="線 119494" d="M594.59 1341.517l.808-.415"/><path data-name="線 119495" d="M638.177 1391.152v-23.802"/><path data-name="線 119496" d="M637.369 1416.571l-41.971 24.217"/><path data-name="線 119497" d="M594.175 1389.144v-47.234"/><path data-name="線 119498" d="M596.206 1389.144v-47.234"/><path data-name="線 119499" d="M592.974 1441.99l-41.971-24.196"/><path data-name="線 119500" d="M592.974 1391.153l-41.971 24.217"/><path data-name="線 119501" d="M597.407 1441.989l-46.404-26.619"/><path data-name="線 119502" d="M595.398 1392.354l-42.386 24.217"/><path data-name="線 119503" d="M594.59 1341.517l-41.578 23.802"/><path data-name="線 119504" d="M592.974 1339.901l-41.971 24.217"/><path data-name="線 119505" d="M637.369 1467.43l-41.578 23.802"/><path data-name="線 119506" d="M638.177 1493.241v-23.802"/><path data-name="線 119507" d="M638.177 1516.65v-23.409"/><path data-name="線 119508" d="M638.177 1544.1v-23.802"/><path data-name="線 119509" d="M594.175 1491.232v-47.212"/><path data-name="線 119510" d="M596.206 1542.069v-47.212"/><path data-name="線 119511" d="M594.175 1499.312v-4.455"/><path data-name="線 119512" d="M594.175 1542.069v-47.212"/><path data-name="線 119513" d="M594.175 1493.656l1.223.808"/><path data-name="線 119514" d="M592.974 1544.1l-41.971-24.217"/><path data-name="線 119515" d="M592.974 1493.241l-41.971 24.217"/><path data-name="線 119516" d="M597.407 1544.1l-46.404-26.641"/><path data-name="線 119517" d="M595.398 1494.464l-42.386 24.217"/><path data-name="線 119518" d="M552.204 1544.1v-23.802"/><path data-name="線 119519" d="M594.59 1443.605l-41.578 23.824"/><path data-name="線 119520" d="M592.974 1441.99l-41.971 24.217"/><path data-name="線 119521" d="M594.175 1493.656l-43.172-25.025"/><path data-name="線 119522" d="M638.177 1465.814v-23.824"/><path data-name="線 119523" d="M649.073 1554.997h-198.15"/><path data-name="線 119524" d="M649.073 1554.997v-225.993"/><path data-name="線 119525" d="M450.923 1554.997v-225.993"/><path data-name="線 119526" d="M649.073 1329.004h-198.15"/><path data-name="線 119527" d="M507.831 1543.292h0"/><path data-name="線 119528" d="M596.206 1542.069l.808-.393"/><path data-name="線 119529" d="M598.63 1543.292h0"/><path data-name="線 119530" d="M599.831 1540.06l-2.817 1.616"/><path data-name="線 119531" d="M507.023 1491.625l-3.647-1.594"/><path data-name="線 119532" d="M551.003 1517.459l-3.232-2.009"/><path data-name="線 119533" d="M463.829 1532.396v-192.495"/><path data-name="線 119534" d="M504.599 1339.901l-40.77 23.802"/><path data-name="線 119535" d="M507.831 1390.344l-44.002-25.418"/><path data-name="線 119536" d="M505.8 1391.546l-41.971-24.196"/><path data-name="線 119537" d="M504.599 1544.1h-40.77"/><path data-name="線 119538" d="M638.177 1544.1H504.599"/><path data-name="線 119539" d="M597.407 1493.241l40.77 23.409"/><path data-name="線 119540" d="M596.206 1494.857l41.971 24.217"/><path data-name="線 119541" d="M638.177 1520.298l-40.77 23.802"/><path data-name="線 119542" d="M597.407 1391.153l40.77 23.409"/><path data-name="線 119543" d="M596.206 1392.769l41.971 24.217"/><path data-name="線 119544" d="M638.177 1418.187l-40.77 23.802"/><path data-name="線 119545" d="M638.177 1363.703l-40.77-23.802"/><path data-name="線 119546" d="M638.177 1366.127l-45.203-26.226"/><path data-name="線 119547" d="M638.177 1367.35l-40.77 23.802"/><path data-name="線 119548" d="M638.177 1339.901H463.829"/><path data-name="線 119549" d="M450.923 1329.004l12.906 10.897"/><path data-name="線 119550" d="M638.177 1339.901l10.897-10.897"/><path data-name="線 119551" d="M450.923 1554.997l12.906-10.897"/><path data-name="線 119552" d="M638.177 1544.1l10.897 10.897"/><path data-name="線 119553" d="M504.599 1391.153l-40.77 23.409"/><path data-name="線 119554" d="M509.032 1441.989l-45.203-26.226"/><path data-name="線 119555" d="M504.599 1441.989l-40.77-23.802"/><path data-name="線 119556" d="M504.599 1493.241l-40.77 23.409"/><path data-name="線 119557" d="M509.032 1544.1l-45.203-26.226"/><path data-name="線 119558" d="M504.599 1544.1l-40.77-23.802"/><path data-name="線 119559" d="M507.831 1492.433l1.201.808"/><path data-name="線 119560" d="M507.023 1494.464l.808.393"/><path data-name="線 119561" d="M596.206 1499.312v-4.455"/><path data-name="線 119562" d="M596.206 1491.232v-47.212"/><path data-name="線 119563" d="M596.206 1492.433l1.201.808"/><path data-name="線 119564" d="M596.206 1492.433l-.808-.808"/><path data-name="線 119565" d="M594.175 1491.232l-43.172-25.025"/><path data-name="線 119566" d="M595.791 1491.232l-.393.393"/><path data-name="線 119567" d="M595.398 1491.625l-1.223-.393"/><path data-name="線 119568" d="M595.398 1494.464l.808.393"/><path data-name="線 119569" d="M594.175 1444.02l1.223-.808"/><path data-name="線 119570" d="M597.407 1391.152l-46.404-27.034"/><path data-name="線 119571" d="M596.599 1392.768l-45.596-26.226"/><path data-name="線 119572" d="M637.369 1365.319l-41.971 24.217"/><path data-name="線 119573" d="M638.177 1465.814l-40.77-23.824"/><path data-name="線 119574" d="M638.177 1468.238l-45.203-26.248"/><path data-name="線 119575" d="M638.177 1469.439l-40.77 23.802"/><path data-name="線 119576" d="M638.177 1465.814l-2.031-1.616"/><path data-name="線 119577" d="M504.599 1441.99l-40.77 23.824"/><path data-name="線 119578" d="M507.831 1492.433l-44.002-25.418"/><path data-name="線 119579" d="M505.8 1493.656l-41.971-24.217"/><path data-name="線 119580" d="M548.994 1467.43l-41.971 24.196"/><path data-name="線 119581" d="M507.831 1542.069v-47.212"/><path data-name="線 119582" d="M507.831 1491.232v-47.212"/><path data-name="線 119583" d="M507.023 1392.354l.808.415"/><path data-name="線 119584" d="M509.032 1391.153l-1.201-.808"/><path data-name="線 119585" d="M507.416 1389.144l-.393.393"/><path data-name="線 119586" d="M507.831 1439.981v-47.212"/><path data-name="線 119587" d="M507.831 1389.144v-47.234"/><path data-name="線 119588" d="M549.802 1363.704v-11.29"/><path data-name="線 119589" d="M552.204 1363.703v-23.802"/><path data-name="線 119590" d="M549.802 1544.1v-23.802"/><path data-name="線 119591" d="M549.802 1516.651v-47.212"/><path data-name="線 119592" d="M552.204 1540.869v-20.571"/><path data-name="線 119593" d="M552.204 1516.651v-47.212"/><path data-name="線 119594" d="M594.175 1439.981v-47.212"/><path data-name="線 119595" d="M596.206 1439.981v-47.212"/><path data-name="線 119596" d="M549.802 1465.814v-47.627"/><path data-name="線 119597" d="M549.802 1414.562v-47.212"/><path data-name="線 119598" d="M552.204 1414.562v-47.212"/><path data-name="線 119599" d="M552.204 1465.814v-47.627"/><path data-name="線 119600" d="M491.671 1364.511l14.129-8.058"/><path data-name="線 119601" d="M492.479 1366.127l13.321-7.665"/><path data-name="線 119602" d="M491.671 1364.511l-14.107 8.473"/><path data-name="線 119603" d="M490.077 1365.319l-12.513-7.25"/><path data-name="線 119604" d="M491.278 1380.649v-13.714"/><path data-name="線 119605" d="M492.894 1363.704v-14.522"/><path data-name="線 119606" d="M494.095 1365.319l11.705 6.857"/><path data-name="線 119607" d="M492.086 1366.542l13.714 8.058"/><path data-name="線 119608" d="M492.086 1364.511l-12.906-7.665"/><path data-name="線 119609" d="M491.278 1363.704v-13.321"/><path data-name="線 119610" d="M492.894 1381.872v-14.937"/><path data-name="線 119611" d="M492.479 1366.127l-13.299 7.665"/><path data-name="線 119612" d="M505.8 1356.454v-14.544"/><path data-name="線 119613" d="M491.671 1415.763l14.129-8.058"/><path data-name="線 119614" d="M492.479 1417.379l13.321-7.665"/><path data-name="線 119615" d="M491.671 1415.763l-14.107 8.08"/><path data-name="線 119616" d="M490.077 1416.571l-12.513-7.25"/><path data-name="線 119617" d="M491.278 1431.901v-13.714"/><path data-name="線 119618" d="M492.894 1414.956v-14.937"/><path data-name="線 119619" d="M494.095 1416.571l11.705 6.857"/><path data-name="線 119620" d="M492.086 1417.379l13.714 8.08"/><path data-name="線 119621" d="M492.086 1415.37l-12.906-7.272"/><path data-name="線 119622" d="M491.278 1414.955v-13.714"/><path data-name="線 119623" d="M492.894 1432.709v-14.522"/><path data-name="線 119624" d="M492.479 1417.379l-13.299 7.665"/><path data-name="線 119625" d="M505.8 1407.706v-14.937"/><path data-name="線 119626" d="M491.671 1466.622l14.129-8.08"/><path data-name="線 119627" d="M492.479 1468.238l13.321-7.687"/><path data-name="線 119628" d="M491.671 1466.622l-14.107 8.473"/><path data-name="線 119629" d="M490.077 1467.43l-12.513-7.272"/><path data-name="線 119630" d="M491.278 1482.76v-13.714"/><path data-name="線 119631" d="M492.894 1465.814v-14.544"/><path data-name="線 119632" d="M494.095 1467.43l11.705 6.857"/><path data-name="線 119633" d="M492.086 1468.631l13.714 7.665"/><path data-name="線 119634" d="M492.086 1466.622l-12.906-7.665"/><path data-name="線 119635" d="M491.278 1465.814v-13.321"/><path data-name="線 119636" d="M492.894 1483.961v-14.915"/><path data-name="線 119637" d="M492.479 1468.238l-13.299 7.665"/><path data-name="線 119638" d="M505.8 1458.542v-14.522"/><path data-name="線 119639" d="M491.671 1517.874l14.129-8.08"/><path data-name="線 119640" d="M492.479 1519.49l13.321-7.687"/><path data-name="線 119641" d="M491.671 1517.874l-14.107 8.058"/><path data-name="線 119642" d="M490.077 1518.682l-12.513-7.272"/><path data-name="線 119643" d="M491.278 1534.012v-13.714"/><path data-name="線 119644" d="M492.894 1517.066v-14.937"/><path data-name="線 119645" d="M494.095 1518.682l11.705 6.857"/><path data-name="線 119646" d="M492.086 1519.49l13.714 8.058"/><path data-name="線 119647" d="M492.086 1517.459l-12.906-7.25"/><path data-name="線 119648" d="M491.278 1517.066v-13.736"/><path data-name="線 119649" d="M492.894 1534.82v-14.522"/><path data-name="線 119650" d="M492.479 1519.49l-13.299 7.665"/><path data-name="線 119651" d="M505.8 1509.794v-14.937"/><path data-name="線 119652" d="M535.673 1492.434l14.129-8.473"/><path data-name="線 119653" d="M536.874 1493.656l12.928-7.272"/><path data-name="線 119654" d="M535.673 1492.433l-14.129 8.08"/><path data-name="線 119655" d="M534.45 1493.242l-12.906-7.665"/><path data-name="線 119656" d="M535.258 1508.178v-13.714"/><path data-name="線 119657" d="M537.289 1491.626v-14.915"/><path data-name="線 119658" d="M538.097 1493.241l11.705 6.464"/><path data-name="線 119659" d="M536.481 1494.049l13.321 8.08"/><path data-name="線 119660" d="M536.481 1492.041l-12.928-7.272"/><path data-name="線 119661" d="M535.258 1491.626v-13.714"/><path data-name="線 119662" d="M537.289 1509.401v-14.937"/><path data-name="線 119663" d="M536.874 1493.656l-13.321 7.665"/><path data-name="線 119664" d="M549.802 1483.961v-14.522"/><path data-name="線 119665" d="M535.673 1441.182l14.129-8.058"/><path data-name="線 119666" d="M536.874 1442.798l12.928-7.665"/><path data-name="線 119667" d="M535.673 1441.182l-14.129 8.08"/><path data-name="線 119668" d="M534.45 1441.99l-12.906-7.25"/><path data-name="線 119669" d="M535.258 1457.341v-13.736"/><path data-name="線 119670" d="M537.289 1440.374v-14.522"/><path data-name="線 119671" d="M538.097 1441.99l11.705 6.879"/><path data-name="線 119672" d="M536.481 1443.212l13.321 7.665"/><path data-name="線 119673" d="M536.481 1440.789l-12.928-7.272"/><path data-name="線 119674" d="M535.258 1440.374v-13.714"/><path data-name="線 119675" d="M537.289 1458.149v-14.544"/><path data-name="線 119676" d="M536.874 1442.798l-13.321 7.665"/><path data-name="線 119677" d="M549.802 1433.124v-14.937"/><path data-name="線 119678" d="M535.673 1390.345l14.129-8.473"/><path data-name="線 119679" d="M536.874 1391.961l12.928-7.665"/><path data-name="線 119680" d="M535.673 1390.345l-14.129 8.08"/><path data-name="線 119681" d="M534.45 1391.153l-12.906-7.665"/><path data-name="線 119682" d="M535.258 1406.09v-13.321"/><path data-name="線 119683" d="M537.289 1389.537V1374.6"/><path data-name="線 119684" d="M538.097 1391.153l11.705 6.464"/><path data-name="線 119685" d="M536.481 1391.961l13.321 8.058"/><path data-name="線 119686" d="M536.481 1389.93l-12.928-7.25"/><path data-name="線 119687" d="M535.258 1389.537v-13.714"/><path data-name="線 119688" d="M537.289 1407.291v-14.522"/><path data-name="線 119689" d="M536.874 1391.961l-13.321 7.272"/><path data-name="線 119690" d="M549.802 1381.872v-14.522"/><path data-name="線 119691" d="M580.068 1364.511l14.107-8.058"/><path data-name="線 119692" d="M580.876 1366.127l13.299-7.665"/><path data-name="線 119693" d="M580.068 1364.511l-14.129 8.473"/><path data-name="線 119694" d="M578.845 1365.319l-12.906-7.25"/><path data-name="線 119695" d="M579.653 1380.649v-13.714"/><path data-name="線 119696" d="M581.269 1363.704v-14.522"/><path data-name="線 119697" d="M582.47 1365.319l11.705 6.857"/><path data-name="線 119698" d="M580.461 1366.542l13.714 8.058"/><path data-name="線 119699" d="M580.461 1364.511l-12.513-7.665"/><path data-name="線 119700" d="M579.653 1363.704v-13.321"/><path data-name="線 119701" d="M581.269 1381.872v-14.937"/><path data-name="線 119702" d="M580.876 1366.127l-12.928 7.665"/><path data-name="線 119703" d="M594.175 1356.454v-14.544"/><path data-name="線 119704" d="M580.068 1415.763l14.107-8.058"/><path data-name="線 119705" d="M580.876 1417.379l13.299-7.665"/><path data-name="線 119706" d="M580.068 1415.763l-14.129 8.08"/><path data-name="線 119707" d="M578.845 1416.571l-12.906-7.25"/><path data-name="線 119708" d="M579.653 1431.901v-13.714"/><path data-name="線 119709" d="M581.269 1414.956v-14.937"/><path data-name="線 119710" d="M582.47 1416.571l11.705 6.857"/><path data-name="線 119711" d="M580.461 1417.379l13.714 8.08"/><path data-name="線 119712" d="M580.461 1415.37l-12.513-7.272"/><path data-name="線 119713" d="M579.653 1414.955v-13.714"/><path data-name="線 119714" d="M581.269 1432.709v-14.522"/><path data-name="線 119715" d="M580.876 1417.379l-12.928 7.665"/><path data-name="線 119716" d="M594.175 1407.706v-14.937"/><path data-name="線 119717" d="M580.068 1466.622l14.107-8.08"/><path data-name="線 119718" d="M580.876 1468.238l13.299-7.687"/><path data-name="線 119719" d="M580.068 1466.622l-14.129 8.473"/><path data-name="線 119720" d="M578.845 1467.43l-12.906-7.272"/><path data-name="線 119721" d="M579.653 1482.76v-13.714"/><path data-name="線 119722" d="M581.269 1465.814v-14.544"/><path data-name="線 119723" d="M582.47 1467.43l11.705 6.857"/><path data-name="線 119724" d="M580.461 1468.631l13.714 7.665"/><path data-name="線 119725" d="M580.461 1466.622l-12.513-7.665"/><path data-name="線 119726" d="M579.653 1465.814v-13.321"/><path data-name="線 119727" d="M581.269 1483.961v-14.915"/><path data-name="線 119728" d="M580.876 1468.238l-12.928 7.665"/><path data-name="線 119729" d="M594.175 1458.542v-14.522"/><path data-name="線 119730" d="M580.068 1517.874l14.107-8.08"/><path data-name="線 119731" d="M580.876 1519.49l13.299-7.687"/><path data-name="線 119732" d="M580.068 1517.874l-14.129 8.058"/><path data-name="線 119733" d="M578.845 1518.682l-12.906-7.272"/><path data-name="線 119734" d="M579.653 1534.012v-13.714"/><path data-name="線 119735" d="M581.269 1517.066v-14.937"/><path data-name="線 119736" d="M582.47 1518.682l11.705 6.857"/><path data-name="線 119737" d="M580.461 1519.49l13.714 8.058"/><path data-name="線 119738" d="M580.461 1517.459l-12.513-7.25"/><path data-name="線 119739" d="M579.653 1517.066v-13.736"/><path data-name="線 119740" d="M581.269 1534.82v-14.522"/><path data-name="線 119741" d="M580.876 1519.49l-12.928 7.665"/><path data-name="線 119742" d="M594.175 1509.794v-14.937"/><path data-name="線 119743" d="M624.048 1492.434l14.129-8.473"/><path data-name="線 119744" d="M625.249 1493.656l12.928-7.272"/><path data-name="線 119745" d="M624.048 1492.433l-14.129 8.08"/><path data-name="線 119746" d="M622.825 1493.242l-12.906-7.665"/><path data-name="線 119747" d="M623.633 1508.178v-13.714"/><path data-name="線 119748" d="M625.664 1491.626v-14.915"/><path data-name="線 119749" d="M626.472 1493.241l11.705 6.464"/><path data-name="線 119750" d="M624.856 1494.049l13.321 8.08"/><path data-name="線 119751" d="M624.856 1492.041l-12.906-7.272"/><path data-name="線 119752" d="M623.633 1491.626v-13.714"/><path data-name="線 119753" d="M625.664 1509.401v-14.937"/><path data-name="線 119754" d="M625.249 1493.656l-13.299 7.665"/><path data-name="線 119755" d="M638.177 1483.961v-14.522"/><path data-name="線 119756" d="M624.048 1441.182l14.129-8.058"/><path data-name="線 119757" d="M625.249 1442.798l12.928-7.665"/><path data-name="線 119758" d="M624.048 1441.182l-14.129 8.08"/><path data-name="線 119759" d="M622.825 1441.99l-12.906-7.25"/><path data-name="線 119760" d="M623.633 1457.341v-13.736"/><path data-name="線 119761" d="M625.664 1440.374v-14.522"/><path data-name="線 119762" d="M626.472 1441.99l11.705 6.879"/><path data-name="線 119763" d="M624.856 1443.212l13.321 7.665"/><path data-name="線 119764" d="M624.856 1440.789l-12.906-7.272"/><path data-name="線 119765" d="M623.633 1440.374v-13.714"/><path data-name="線 119766" d="M625.664 1458.149v-14.544"/><path data-name="線 119767" d="M625.249 1442.798l-13.299 7.665"/><path data-name="線 119768" d="M638.177 1433.124v-14.937"/><path data-name="線 119769" d="M624.048 1390.345l14.129-8.473"/><path data-name="線 119770" d="M625.249 1391.961l12.928-7.665"/><path data-name="線 119771" d="M624.048 1390.345l-14.129 8.08"/><path data-name="線 119772" d="M622.825 1391.153l-12.906-7.665"/><path data-name="線 119773" d="M623.633 1406.09v-13.321"/><path data-name="線 119774" d="M625.664 1389.537V1374.6"/><path data-name="線 119775" d="M626.472 1391.153l11.705 6.464"/><path data-name="線 119776" d="M624.856 1391.961l13.321 8.058"/><path data-name="線 119777" d="M624.856 1389.93l-12.906-7.25"/><path data-name="線 119778" d="M623.633 1389.537v-13.714"/><path data-name="線 119779" d="M625.664 1407.291v-14.522"/><path data-name="線 119780" d="M625.249 1391.961l-13.299 7.272"/><path data-name="線 119781" d="M638.177 1381.872v-14.522"/><path data-name="線 119782" d="M477.564 1391.546v-16.138"/><path data-name="線 119783" d="M479.18 1391.546v-15.33"/><path data-name="線 119784" d="M477.564 1408.099v-16.553"/><path data-name="線 119785" d="M477.565 1393.162l-12.928 7.272"/><path data-name="線 119786" d="M479.18 1393.162l12.098 6.857"/><path data-name="線 119787" d="M477.565 1389.93l-12.928-7.25"/><path data-name="線 119788" d="M479.18 1389.93l12.098-6.857"/><path data-name="線 119789" d="M479.18 1391.961l13.714-7.665"/><path data-name="線 119790" d="M477.565 1391.153l-12.928 7.272"/><path data-name="線 119791" d="M476.757 1391.546l-12.12-6.857"/><path data-name="線 119792" d="M480.381 1391.546l12.513 7.272"/><path data-name="線 119793" d="M479.18 1406.898v-15.352"/><path data-name="線 119794" d="M464.637 1368.158l12.928 7.25"/><path data-name="線 119795" d="M520.736 1365.32v-16.138"/><path data-name="線 119796" d="M522.352 1365.32v-14.937"/><path data-name="線 119797" d="M520.736 1381.872v-16.553"/><path data-name="線 119798" d="M520.737 1366.935l-12.906 7.665"/><path data-name="線 119799" d="M522.352 1366.935l12.098 6.857"/><path data-name="線 119800" d="M520.737 1363.703l-12.906-7.25"/><path data-name="線 119801" d="M522.352 1363.703l12.098-6.857"/><path data-name="線 119802" d="M522.352 1366.127l13.714-8.058"/><path data-name="線 119803" d="M520.737 1364.926l-12.906 7.25"/><path data-name="線 119804" d="M519.536 1365.319l-11.705-6.857"/><path data-name="線 119805" d="M523.553 1365.319l12.513 7.665"/><path data-name="線 119806" d="M522.352 1380.649v-15.33"/><path data-name="線 119807" d="M507.831 1341.91l12.906 7.272"/><path data-name="線 119808" d="M520.736 1416.572v-16.553"/><path data-name="線 119809" d="M522.352 1416.571v-15.33"/><path data-name="線 119810" d="M520.736 1432.709v-16.138"/><path data-name="線 119811" d="M520.737 1418.187l-12.906 7.272"/><path data-name="線 119812" d="M522.352 1418.187l12.098 6.857"/><path data-name="線 119813" d="M520.737 1414.955l-12.906-7.25"/><path data-name="線 119814" d="M522.352 1414.955l12.098-6.857"/><path data-name="線 119815" d="M522.352 1416.986l13.714-7.665"/><path data-name="線 119816" d="M520.737 1416.178l-12.906 7.25"/><path data-name="線 119817" d="M519.536 1416.571l-11.705-6.857"/><path data-name="線 119818" d="M523.553 1416.571l12.513 7.272"/><path data-name="線 119819" d="M522.352 1431.901v-15.33"/><path data-name="線 119820" d="M507.831 1392.769l12.906 7.25"/><path data-name="線 119821" d="M476.342 1441.99v-16.138"/><path data-name="線 119822" d="M478.372 1441.99v-15.33"/><path data-name="線 119823" d="M476.342 1458.149v-16.159"/><path data-name="線 119824" d="M476.342 1443.605l-12.513 7.272"/><path data-name="線 119825" d="M478.372 1443.605l11.705 6.857"/><path data-name="線 119826" d="M476.342 1440.374l-12.513-7.25"/><path data-name="線 119827" d="M478.372 1440.374l11.705-6.857"/><path data-name="線 119828" d="M478.372 1442.405l13.714-7.665"/><path data-name="線 119829" d="M476.342 1441.596l-12.513 7.272"/><path data-name="線 119830" d="M475.534 1441.99l-11.705-6.857"/><path data-name="線 119831" d="M479.18 1441.99l12.906 7.272"/><path data-name="線 119832" d="M478.372 1457.342v-15.352"/><path data-name="線 119833" d="M463.829 1418.187l12.513 7.665"/><path data-name="線 119834" d="M520.736 1467.429v-16.159"/><path data-name="線 119835" d="M522.352 1467.43v-14.937"/><path data-name="線 119836" d="M520.736 1483.961v-16.531"/><path data-name="線 119837" d="M520.737 1469.046l-12.906 7.25"/><path data-name="線 119838" d="M522.352 1469.046l12.098 6.857"/><path data-name="線 119839" d="M520.737 1465.814l-12.906-7.272"/><path data-name="線 119840" d="M522.352 1465.814l12.098-6.857"/><path data-name="線 119841" d="M522.352 1468.238l13.714-8.08"/><path data-name="線 119842" d="M520.737 1467.015l-12.906 7.272"/><path data-name="線 119843" d="M519.536 1467.43l-11.705-6.879"/><path data-name="線 119844" d="M523.553 1467.43l12.513 7.665"/><path data-name="線 119845" d="M522.352 1482.76v-15.33"/><path data-name="線 119846" d="M507.831 1444.02l12.906 7.25"/><path data-name="線 119847" d="M476.342 1493.242v-16.531"/><path data-name="線 119848" d="M478.372 1493.242v-15.33"/><path data-name="線 119849" d="M476.342 1509.4v-16.159"/><path data-name="線 119850" d="M476.342 1494.464l-12.513 7.665"/><path data-name="線 119851" d="M478.372 1494.464l11.705 6.857"/><path data-name="線 119852" d="M476.342 1491.626l-12.513-7.665"/><path data-name="線 119853" d="M478.372 1491.626l11.705-6.857"/><path data-name="線 119854" d="M478.372 1493.657l13.714-8.08"/><path data-name="線 119855" d="M476.342 1492.433l-12.513 7.272"/><path data-name="線 119856" d="M475.534 1493.241l-11.705-6.857"/><path data-name="線 119857" d="M479.18 1493.241l12.906 7.272"/><path data-name="線 119858" d="M478.372 1508.178v-14.937"/><path data-name="線 119859" d="M463.829 1469.439l12.513 7.272"/><path data-name="線 119860" d="M520.736 1518.682v-16.553"/><path data-name="線 119861" d="M522.352 1518.682v-15.352"/><path data-name="線 119862" d="M520.736 1534.82v-16.138"/><path data-name="線 119863" d="M520.737 1520.298l-12.906 7.25"/><path data-name="線 119864" d="M522.352 1520.298l12.098 6.857"/><path data-name="線 119865" d="M520.737 1517.066l-12.906-7.272"/><path data-name="線 119866" d="M522.352 1517.066l12.098-6.857"/><path data-name="線 119867" d="M522.352 1519.075l13.714-7.665"/><path data-name="線 119868" d="M520.737 1517.874l-12.906 7.665"/><path data-name="線 119869" d="M519.536 1518.682l-11.705-6.879"/><path data-name="線 119870" d="M523.553 1518.682l12.513 7.25"/><path data-name="線 119871" d="M522.352 1534.012v-15.33"/><path data-name="線 119872" d="M507.831 1494.857l12.906 7.272"/><path data-name="線 119873" d="M565.939 1493.657v-16.138"/><path data-name="線 119874" d="M567.948 1493.657v-15.33"/><path data-name="線 119875" d="M565.939 1509.794v-16.138"/><path data-name="線 119876" d="M565.94 1495.272l-12.928 7.25"/><path data-name="線 119877" d="M567.948 1495.272l11.705 6.857"/><path data-name="線 119878" d="M565.94 1492.041l-12.928-7.272"/><path data-name="線 119879" d="M567.948 1492.04l11.705-6.857"/><path data-name="線 119880" d="M567.948 1494.049l13.321-7.665"/><path data-name="線 119881" d="M565.94 1493.241l-12.928 7.272"/><path data-name="線 119882" d="M565.132 1493.656l-12.12-6.857"/><path data-name="線 119883" d="M568.756 1493.656l12.513 7.25"/><path data-name="線 119884" d="M567.948 1508.986v-15.33"/><path data-name="線 119885" d="M553.012 1469.854l12.928 7.665"/><path data-name="線 119886" d="M564.717 1441.99v-16.138"/><path data-name="線 119887" d="M566.747 1441.99v-15.33"/><path data-name="線 119888" d="M564.717 1458.149v-16.159"/><path data-name="線 119889" d="M564.717 1443.605l-12.513 7.272"/><path data-name="線 119890" d="M566.747 1443.605l11.705 6.857"/><path data-name="線 119891" d="M564.717 1440.374l-12.513-7.25"/><path data-name="線 119892" d="M566.747 1440.374l11.705-6.857"/><path data-name="線 119893" d="M566.747 1442.405l13.714-7.665"/><path data-name="線 119894" d="M564.717 1441.596l-12.513 7.272"/><path data-name="線 119895" d="M563.909 1441.99l-11.705-6.857"/><path data-name="線 119896" d="M567.555 1441.99l12.906 7.272"/><path data-name="線 119897" d="M566.747 1457.342v-15.352"/><path data-name="線 119898" d="M552.204 1418.187l12.513 7.665"/><path data-name="線 119899" d="M564.717 1391.153V1374.6"/><path data-name="線 119900" d="M566.747 1391.153v-15.33"/><path data-name="線 119901" d="M564.717 1407.291v-16.138"/><path data-name="線 119902" d="M564.717 1392.769l-12.513 7.25"/><path data-name="線 119903" d="M566.747 1392.769l11.705 6.464"/><path data-name="線 119904" d="M564.717 1389.537l-12.513-7.665"/><path data-name="線 119905" d="M566.747 1389.537l11.705-6.857"/><path data-name="線 119906" d="M566.747 1391.546l13.714-8.058"/><path data-name="線 119907" d="M564.717 1390.345l-12.513 7.272"/><path data-name="線 119908" d="M563.909 1391.153l-11.705-6.857"/><path data-name="線 119909" d="M567.555 1391.153l12.906 7.272"/><path data-name="線 119910" d="M566.747 1406.09v-14.937"/><path data-name="線 119911" d="M552.204 1367.35l12.513 7.25"/><path data-name="線 119912" d="M609.111 1365.32v-16.138"/><path data-name="線 119913" d="M610.727 1365.32v-14.937"/><path data-name="線 119914" d="M609.111 1381.872v-16.553"/><path data-name="線 119915" d="M609.112 1366.935l-12.906 7.665"/><path data-name="線 119916" d="M610.727 1366.935l12.098 6.857"/><path data-name="線 119917" d="M609.112 1363.703l-12.906-7.25"/><path data-name="線 119918" d="M610.727 1363.703l12.098-6.857"/><path data-name="線 119919" d="M610.727 1366.127l13.714-8.058"/><path data-name="線 119920" d="M609.112 1364.926l-12.906 7.25"/><path data-name="線 119921" d="M608.304 1365.319l-12.098-6.857"/><path data-name="線 119922" d="M611.95 1365.319l12.491 7.665"/><path data-name="線 119923" d="M610.727 1380.649v-15.33"/><path data-name="線 119924" d="M596.206 1341.91l12.906 7.272"/><path data-name="線 119925" d="M609.111 1416.572v-16.553"/><path data-name="線 119926" d="M610.727 1416.571v-15.33"/><path data-name="線 119927" d="M609.111 1432.709v-16.138"/><path data-name="線 119928" d="M609.112 1418.187l-12.906 7.272"/><path data-name="線 119929" d="M610.727 1418.187l12.098 6.857"/><path data-name="線 119930" d="M609.112 1414.955l-12.906-7.25"/><path data-name="線 119931" d="M610.727 1414.955l12.098-6.857"/><path data-name="線 119932" d="M610.727 1416.986l13.714-7.665"/><path data-name="線 119933" d="M609.112 1416.178l-12.906 7.25"/><path data-name="線 119934" d="M608.304 1416.571l-12.098-6.857"/><path data-name="線 119935" d="M611.95 1416.571l12.491 7.272"/><path data-name="線 119936" d="M610.727 1431.901v-15.33"/><path data-name="線 119937" d="M596.206 1392.769l12.906 7.25"/><path data-name="線 119938" d="M609.111 1467.429v-16.159"/><path data-name="線 119939" d="M610.727 1467.43v-14.937"/><path data-name="線 119940" d="M609.111 1483.961v-16.531"/><path data-name="線 119941" d="M609.112 1469.046l-12.906 7.25"/><path data-name="線 119942" d="M610.727 1469.046l12.098 6.857"/><path data-name="線 119943" d="M609.112 1465.814l-12.906-7.272"/><path data-name="線 119944" d="M610.727 1465.814l12.098-6.857"/><path data-name="線 119945" d="M610.727 1468.238l13.714-8.08"/><path data-name="線 119946" d="M609.112 1467.015l-12.906 7.272"/><path data-name="線 119947" d="M608.304 1467.43l-12.098-6.879"/><path data-name="線 119948" d="M611.95 1467.43l12.491 7.665"/><path data-name="線 119949" d="M610.727 1482.76v-15.33"/><path data-name="線 119950" d="M596.206 1444.02l12.906 7.25"/><path data-name="線 119951" d="M609.111 1518.682v-16.553"/><path data-name="線 119952" d="M610.727 1518.682v-15.352"/><path data-name="線 119953" d="M609.111 1534.82v-16.138"/><path data-name="線 119954" d="M609.112 1520.298l-12.906 7.25"/><path data-name="線 119955" d="M610.727 1520.298l12.098 6.857"/><path data-name="線 119956" d="M609.112 1517.066l-12.906-7.272"/><path data-name="線 119957" d="M610.727 1517.066l12.098-6.857"/><path data-name="線 119958" d="M610.727 1519.075l13.714-7.665"/><path data-name="線 119959" d="M609.112 1517.874l-12.906 7.665"/><path data-name="線 119960" d="M608.304 1518.682l-12.098-6.879"/><path data-name="線 119961" d="M611.95 1518.682l12.491 7.25"/><path data-name="線 119962" d="M610.727 1534.012v-15.33"/><path data-name="線 119963" d="M596.206 1494.857l12.906 7.272"/></g></g></svg>