<svg xmlns="http://www.w3.org/2000/svg" width="200" height="230"><defs><clipPath id="a"><path data-name="長方形 180" transform="translate(450 1327)" fill="#ccc" d="M0 0h200v230H0z"/></clipPath></defs><g data-name="マスクグループ 569" transform="translate(-450 -1327)" clip-path="url(#a)"><g data-name="グループ 3437" fill="none" stroke="#c49535" stroke-linecap="round" stroke-linejoin="round" stroke-width="1.31"><path data-name="線 114775" d="M637.369 1518.682l-41.971 24.196"/><path data-name="線 114776" d="M548.994 1365.319l-41.578 23.824"/><path data-name="線 114777" d="M505.8 1389.144v-47.234"/><path data-name="線 114778" d="M638.177 1538.444v-198.543"/><path data-name="線 114779" d="M463.829 1544.1v-23.802"/><path data-name="線 114780" d="M579.26 1339.901h-74.661"/><path data-name="線 114781" d="M506.215 1341.517l.808-.415"/><path data-name="線 114782" d="M551.003 1364.118l-41.971-24.217"/><path data-name="線 114783" d="M551.003 1366.542l-46.404-26.641"/><path data-name="線 114784" d="M551.003 1417.794l-41.971 24.196"/><path data-name="線 114785" d="M548.994 1416.571l-41.971 24.217"/><path data-name="線 114786" d="M509.032 1391.153l41.971 24.217"/><path data-name="線 114787" d="M507.831 1392.769l43.172 25.025"/><path data-name="線 114788" d="M551.003 1366.542l-41.971 24.61"/><path data-name="線 114789" d="M505.8 1397.202v-4.433"/><path data-name="線 114790" d="M505.8 1439.981v-47.212"/><path data-name="線 114791" d="M505.8 1391.546l1.223.808"/><path data-name="線 114792" d="M507.023 1392.354l-42.386 24.217"/><path data-name="線 114793" d="M506.215 1341.517l-41.578 23.802"/><path data-name="線 114794" d="M463.829 1391.152v-23.802"/><path data-name="線 114795" d="M549.802 1363.703v-23.802"/><path data-name="線 114796" d="M506.215 1443.605l.808-.393"/><path data-name="線 114797" d="M551.003 1466.207l-41.971-24.217"/><path data-name="線 114798" d="M551.003 1468.631l-46.404-26.641"/><path data-name="線 114799" d="M551.003 1519.883l-41.971 24.217"/><path data-name="線 114800" d="M548.994 1518.682l-41.971 24.196"/><path data-name="線 114801" d="M505.8 1491.232v-47.212"/><path data-name="線 114802" d="M509.032 1493.241l41.971 24.217"/><path data-name="線 114803" d="M507.831 1494.857l43.172 25.025"/><path data-name="線 114804" d="M551.003 1468.631l-41.971 24.61"/><path data-name="線 114805" d="M505.8 1499.312v-4.455"/><path data-name="線 114806" d="M505.8 1542.069v-47.212"/><path data-name="線 114807" d="M505.8 1493.656l1.223.808"/><path data-name="線 114808" d="M507.023 1494.464l-42.386 24.217"/><path data-name="線 114809" d="M506.215 1443.605l-41.578 23.824"/><path data-name="線 114810" d="M594.59 1341.517l.808-.415"/><path data-name="線 114811" d="M638.177 1391.152v-23.802"/><path data-name="線 114812" d="M637.369 1416.571l-41.971 24.217"/><path data-name="線 114813" d="M594.175 1389.144v-47.234"/><path data-name="線 114814" d="M596.206 1389.144v-47.234"/><path data-name="線 114815" d="M592.974 1441.99l-41.971-24.196"/><path data-name="線 114816" d="M592.974 1391.153l-41.971 24.217"/><path data-name="線 114817" d="M597.407 1441.989l-46.404-26.619"/><path data-name="線 114818" d="M595.398 1392.354l-42.386 24.217"/><path data-name="線 114819" d="M594.59 1341.517l-41.578 23.802"/><path data-name="線 114820" d="M592.974 1339.901l-41.971 24.217"/><path data-name="線 114821" d="M637.369 1467.43l-41.578 23.802"/><path data-name="線 114822" d="M638.177 1493.241v-23.802"/><path data-name="線 114823" d="M638.177 1516.65v-23.409"/><path data-name="線 114824" d="M638.177 1544.1v-23.802"/><path data-name="線 114825" d="M594.175 1491.232v-47.212"/><path data-name="線 114826" d="M596.206 1542.069v-47.212"/><path data-name="線 114827" d="M594.175 1499.312v-4.455"/><path data-name="線 114828" d="M594.175 1542.069v-47.212"/><path data-name="線 114829" d="M594.175 1493.656l1.223.808"/><path data-name="線 114830" d="M592.974 1544.1l-41.971-24.217"/><path data-name="線 114831" d="M592.974 1493.241l-41.971 24.217"/><path data-name="線 114832" d="M597.407 1544.1l-46.404-26.641"/><path data-name="線 114833" d="M595.398 1494.464l-42.386 24.217"/><path data-name="線 114834" d="M552.204 1544.1v-23.802"/><path data-name="線 114835" d="M594.59 1443.605l-41.578 23.824"/><path data-name="線 114836" d="M592.974 1441.99l-41.971 24.217"/><path data-name="線 114837" d="M594.175 1493.656l-43.172-25.025"/><path data-name="線 114838" d="M638.177 1465.814v-23.824"/><path data-name="線 114839" d="M649.073 1554.997h-198.15"/><path data-name="線 114840" d="M649.073 1554.997v-225.993"/><path data-name="線 114841" d="M450.923 1554.997v-225.993"/><path data-name="線 114842" d="M649.073 1329.004h-198.15"/><path data-name="線 114843" d="M507.831 1543.292h0"/><path data-name="線 114844" d="M596.206 1542.069l.808-.393"/><path data-name="線 114845" d="M598.63 1543.292h0"/><path data-name="線 114846" d="M599.831 1540.06l-2.817 1.616"/><path data-name="線 114847" d="M507.023 1491.625l-3.647-1.594"/><path data-name="線 114848" d="M551.003 1517.459l-3.232-2.009"/><path data-name="線 114849" d="M463.829 1532.396v-192.495"/><path data-name="線 114850" d="M504.599 1339.901l-40.77 23.802"/><path data-name="線 114851" d="M507.831 1390.344l-44.002-25.418"/><path data-name="線 114852" d="M505.8 1391.546l-41.971-24.196"/><path data-name="線 114853" d="M504.599 1544.1h-40.77"/><path data-name="線 114854" d="M638.177 1544.1H504.599"/><path data-name="線 114855" d="M597.407 1493.241l40.77 23.409"/><path data-name="線 114856" d="M596.206 1494.857l41.971 24.217"/><path data-name="線 114857" d="M638.177 1520.298l-40.77 23.802"/><path data-name="線 114858" d="M597.407 1391.153l40.77 23.409"/><path data-name="線 114859" d="M596.206 1392.769l41.971 24.217"/><path data-name="線 114860" d="M638.177 1418.187l-40.77 23.802"/><path data-name="線 114861" d="M638.177 1363.703l-40.77-23.802"/><path data-name="線 114862" d="M638.177 1366.127l-45.203-26.226"/><path data-name="線 114863" d="M638.177 1367.35l-40.77 23.802"/><path data-name="線 114864" d="M638.177 1339.901H463.829"/><path data-name="線 114865" d="M450.923 1329.004l12.906 10.897"/><path data-name="線 114866" d="M638.177 1339.901l10.897-10.897"/><path data-name="線 114867" d="M450.923 1554.997l12.906-10.897"/><path data-name="線 114868" d="M638.177 1544.1l10.897 10.897"/><path data-name="線 114869" d="M504.599 1391.153l-40.77 23.409"/><path data-name="線 114870" d="M509.032 1441.989l-45.203-26.226"/><path data-name="線 114871" d="M504.599 1441.989l-40.77-23.802"/><path data-name="線 114872" d="M504.599 1493.241l-40.77 23.409"/><path data-name="線 114873" d="M509.032 1544.1l-45.203-26.226"/><path data-name="線 114874" d="M504.599 1544.1l-40.77-23.802"/><path data-name="線 114875" d="M507.831 1492.433l1.201.808"/><path data-name="線 114876" d="M507.023 1494.464l.808.393"/><path data-name="線 114877" d="M596.206 1499.312v-4.455"/><path data-name="線 114878" d="M596.206 1491.232v-47.212"/><path data-name="線 114879" d="M596.206 1492.433l1.201.808"/><path data-name="線 114880" d="M596.206 1492.433l-.808-.808"/><path data-name="線 114881" d="M594.175 1491.232l-43.172-25.025"/><path data-name="線 114882" d="M595.791 1491.232l-.393.393"/><path data-name="線 114883" d="M595.398 1491.625l-1.223-.393"/><path data-name="線 114884" d="M595.398 1494.464l.808.393"/><path data-name="線 114885" d="M594.175 1444.02l1.223-.808"/><path data-name="線 114886" d="M597.407 1391.152l-46.404-27.034"/><path data-name="線 114887" d="M596.599 1392.768l-45.596-26.226"/><path data-name="線 114888" d="M637.369 1365.319l-41.971 24.217"/><path data-name="線 114889" d="M638.177 1465.814l-40.77-23.824"/><path data-name="線 114890" d="M638.177 1468.238l-45.203-26.248"/><path data-name="線 114891" d="M638.177 1469.439l-40.77 23.802"/><path data-name="線 114892" d="M638.177 1465.814l-2.031-1.616"/><path data-name="線 114893" d="M504.599 1441.99l-40.77 23.824"/><path data-name="線 114894" d="M507.831 1492.433l-44.002-25.418"/><path data-name="線 114895" d="M505.8 1493.656l-41.971-24.217"/><path data-name="線 114896" d="M548.994 1467.43l-41.971 24.196"/><path data-name="線 114897" d="M507.831 1542.069v-47.212"/><path data-name="線 114898" d="M507.831 1491.232v-47.212"/><path data-name="線 114899" d="M507.023 1392.354l.808.415"/><path data-name="線 114900" d="M509.032 1391.153l-1.201-.808"/><path data-name="線 114901" d="M507.416 1389.144l-.393.393"/><path data-name="線 114902" d="M507.831 1439.981v-47.212"/><path data-name="線 114903" d="M507.831 1389.144v-47.234"/><path data-name="線 114904" d="M549.802 1363.704v-11.29"/><path data-name="線 114905" d="M552.204 1363.703v-23.802"/><path data-name="線 114906" d="M549.802 1544.1v-23.802"/><path data-name="線 114907" d="M549.802 1516.651v-47.212"/><path data-name="線 114908" d="M552.204 1540.869v-20.571"/><path data-name="線 114909" d="M552.204 1516.651v-47.212"/><path data-name="線 114910" d="M594.175 1439.981v-47.212"/><path data-name="線 114911" d="M596.206 1439.981v-47.212"/><path data-name="線 114912" d="M549.802 1465.814v-47.627"/><path data-name="線 114913" d="M549.802 1414.562v-47.212"/><path data-name="線 114914" d="M552.204 1414.562v-47.212"/><path data-name="線 114915" d="M552.204 1465.814v-47.627"/></g></g></svg>