<svg xmlns="http://www.w3.org/2000/svg" width="200" height="230"><defs><clipPath id="a"><path data-name="長方形 180" transform="translate(450 1327)" fill="#ccc" d="M0 0h200v230H0z"/></clipPath></defs><g data-name="マスクグループ 581" transform="translate(-450 -1327)" clip-path="url(#a)"><g data-name="グループ 3449" fill="none" stroke="#c49535" stroke-linecap="round" stroke-linejoin="round" stroke-width="1.31"><path data-name="線 121037" d="M637.369 1518.277l-41.971 24.61"/><path data-name="線 121038" d="M548.994 1365.722l-41.578 23.824"/><path data-name="線 121039" d="M505.8 1389.547v-47.627"/><path data-name="線 121040" d="M638.57 1538.039v-197.735"/><path data-name="線 121041" d="M463.829 1544.088v-23.802"/><path data-name="線 121042" d="M579.26 1340.304h-74.661"/><path data-name="線 121043" d="M506.215 1341.92l.808-.415"/><path data-name="線 121044" d="M551.003 1364.521l-41.971-24.217"/><path data-name="線 121045" d="M551.003 1366.945l-46.404-26.641"/><path data-name="線 121046" d="M551.003 1418.197l-41.971 24.196"/><path data-name="線 121047" d="M548.994 1416.581l-41.971 24.61"/><path data-name="線 121048" d="M509.032 1391.141l41.971 24.217"/><path data-name="線 121049" d="M507.831 1393.172l43.172 25.025"/><path data-name="線 121050" d="M551.003 1366.945l-41.971 24.196"/><path data-name="線 121051" d="M505.8 1397.605v-4.433"/><path data-name="線 121052" d="M505.8 1440.384v-47.212"/><path data-name="線 121053" d="M505.8 1391.949l1.223.415"/><path data-name="線 121054" d="M507.023 1392.364l-41.971 24.217"/><path data-name="線 121055" d="M506.215 1341.92l-41.163 23.802"/><path data-name="線 121056" d="M463.829 1391.141v-23.388"/><path data-name="線 121057" d="M550.195 1363.713v-23.409"/><path data-name="線 121058" d="M506.215 1444.008l.808-.393"/><path data-name="線 121059" d="M551.003 1466.217l-41.971-23.824"/><path data-name="線 121060" d="M551.003 1468.641l-46.404-26.248"/><path data-name="線 121061" d="M551.003 1519.893l-41.971 24.196"/><path data-name="線 121062" d="M548.994 1518.277l-41.971 24.61"/><path data-name="線 121063" d="M505.8 1491.22v-47.212"/><path data-name="線 121064" d="M509.032 1492.836l41.971 24.217"/><path data-name="線 121065" d="M507.831 1494.867l43.172 25.025"/><path data-name="線 121066" d="M551.003 1468.641l-41.971 24.196"/><path data-name="線 121067" d="M505.8 1499.3v-4.433"/><path data-name="線 121068" d="M505.8 1542.079v-47.212"/><path data-name="線 121069" d="M505.8 1493.644l1.223.415"/><path data-name="線 121070" d="M507.023 1494.059l-41.971 24.217"/><path data-name="線 121071" d="M506.215 1444.008l-41.163 23.409"/><path data-name="線 121072" d="M594.59 1341.92l.808-.415"/><path data-name="線 121073" d="M638.57 1391.141v-23.388"/><path data-name="線 121074" d="M637.369 1416.581l-41.971 24.61"/><path data-name="線 121075" d="M594.175 1389.547v-47.627"/><path data-name="線 121076" d="M596.206 1389.547v-47.627"/><path data-name="線 121077" d="M592.974 1442.393l-41.971-24.196"/><path data-name="線 121078" d="M592.974 1391.141l-41.971 24.217"/><path data-name="線 121079" d="M597.407 1442.392l-46.404-27.034"/><path data-name="線 121080" d="M595.398 1392.364l-41.971 24.217"/><path data-name="線 121081" d="M594.59 1341.92l-41.163 23.802"/><path data-name="線 121082" d="M592.974 1340.304l-41.971 24.217"/><path data-name="線 121083" d="M637.369 1467.418l-41.578 23.802"/><path data-name="線 121084" d="M638.57 1492.837v-23.388"/><path data-name="線 121085" d="M638.57 1516.66v-23.824"/><path data-name="線 121086" d="M638.57 1544.088v-23.802"/><path data-name="線 121087" d="M594.175 1491.22v-47.212"/><path data-name="線 121088" d="M596.206 1542.079v-47.212"/><path data-name="線 121089" d="M594.175 1499.3v-4.433"/><path data-name="線 121090" d="M594.175 1542.079v-47.212"/><path data-name="線 121091" d="M594.175 1493.644l1.223.415"/><path data-name="線 121092" d="M592.974 1544.089l-41.971-24.196"/><path data-name="線 121093" d="M592.974 1492.836l-41.971 24.217"/><path data-name="線 121094" d="M597.407 1544.088l-46.404-27.034"/><path data-name="線 121095" d="M595.398 1494.059l-41.971 24.217"/><path data-name="線 121096" d="M552.204 1544.088v-23.802"/><path data-name="線 121097" d="M594.59 1444.008l-41.163 23.409"/><path data-name="線 121098" d="M592.974 1442.393l-41.971 23.824"/><path data-name="線 121099" d="M594.175 1493.645l-43.172-25.004"/><path data-name="線 121100" d="M638.57 1465.409v-23.016"/><path data-name="線 121101" d="M649.073 1554.592h-198.15"/><path data-name="線 121102" d="M649.073 1554.592v-225.185"/><path data-name="線 121103" d="M450.923 1554.592v-225.185"/><path data-name="線 121104" d="M649.073 1329.407h-198.15"/><path data-name="線 121105" d="M507.831 1543.28h0"/><path data-name="線 121106" d="M596.206 1542.079l.808-.415"/><path data-name="線 121107" d="M598.63 1543.28h0"/><path data-name="線 121108" d="M599.831 1540.07l-2.817 1.594"/><path data-name="線 121109" d="M507.023 1491.635l-3.647-2.009"/><path data-name="線 121110" d="M551.003 1517.054l-3.232-2.009"/><path data-name="線 121111" d="M463.829 1531.991v-191.687"/><path data-name="線 121112" d="M504.599 1340.304l-40.77 23.409"/><path data-name="線 121113" d="M507.831 1390.747l-44.002-25.833"/><path data-name="線 121114" d="M505.8 1391.949l-41.971-24.196"/><path data-name="線 121115" d="M504.599 1544.088h-40.77"/><path data-name="線 121116" d="M638.57 1544.088H504.599"/><path data-name="線 121117" d="M597.407 1492.836l41.163 23.824"/><path data-name="線 121118" d="M596.206 1494.867l42.364 24.217"/><path data-name="線 121119" d="M638.57 1520.286l-41.163 23.802"/><path data-name="線 121120" d="M597.407 1391.141l41.163 23.824"/><path data-name="線 121121" d="M596.206 1393.172l42.364 24.217"/><path data-name="線 121122" d="M638.57 1418.59l-41.163 23.802"/><path data-name="線 121123" d="M638.57 1363.713l-41.163-23.409"/><path data-name="線 121124" d="M638.57 1366.53l-45.596-26.226"/><path data-name="線 121125" d="M638.57 1367.753l-41.163 23.388"/><path data-name="線 121126" d="M638.57 1340.304H463.829"/><path data-name="線 121127" d="M450.923 1329.407l12.906 10.897"/><path data-name="線 121128" d="M638.57 1340.304l10.504-10.897"/><path data-name="線 121129" d="M450.923 1554.592l12.906-10.504"/><path data-name="線 121130" d="M638.57 1544.088l10.504 10.504"/><path data-name="線 121131" d="M504.599 1391.141l-40.77 23.824"/><path data-name="線 121132" d="M509.032 1442.392l-45.203-26.226"/><path data-name="線 121133" d="M504.599 1442.392l-40.77-23.802"/><path data-name="線 121134" d="M504.599 1492.836l-40.77 23.824"/><path data-name="線 121135" d="M509.032 1544.088l-45.203-26.226"/><path data-name="線 121136" d="M504.599 1544.088l-40.77-23.802"/><path data-name="線 121137" d="M507.831 1492.443l1.201.393"/><path data-name="線 121138" d="M507.023 1494.059l.808.808"/><path data-name="線 121139" d="M596.206 1499.3v-4.433"/><path data-name="線 121140" d="M596.206 1491.22v-47.212"/><path data-name="線 121141" d="M596.206 1492.443l1.201.393"/><path data-name="線 121142" d="M596.206 1492.443l-.808-.808"/><path data-name="線 121143" d="M594.175 1491.221l-43.172-25.004"/><path data-name="線 121144" d="M595.791 1491.22l-.393.415"/><path data-name="線 121145" d="M595.398 1491.635l-1.223-.415"/><path data-name="線 121146" d="M595.398 1494.059l.808.808"/><path data-name="線 121147" d="M594.175 1444.008l1.223-.393"/><path data-name="線 121148" d="M597.407 1391.14l-46.404-26.619"/><path data-name="線 121149" d="M596.599 1393.171l-45.596-26.226"/><path data-name="線 121150" d="M637.369 1365.722l-41.971 24.217"/><path data-name="線 121151" d="M638.57 1465.409l-41.163-23.016"/><path data-name="線 121152" d="M638.57 1468.226l-45.596-25.833"/><path data-name="線 121153" d="M638.57 1469.449l-41.163 23.388"/><path data-name="線 121154" d="M638.57 1465.409l-2.424-1.223"/><path data-name="線 121155" d="M504.599 1442.393l-40.77 23.016"/><path data-name="線 121156" d="M507.831 1492.443l-44.002-25.833"/><path data-name="線 121157" d="M505.8 1493.645l-41.971-24.196"/><path data-name="線 121158" d="M548.994 1467.418l-41.971 24.217"/><path data-name="線 121159" d="M507.831 1542.079v-47.212"/><path data-name="線 121160" d="M507.831 1491.22v-47.212"/><path data-name="線 121161" d="M507.023 1392.364l.808.808"/><path data-name="線 121162" d="M509.032 1391.141l-1.201-.393"/><path data-name="線 121163" d="M507.416 1389.547l-.393.393"/><path data-name="線 121164" d="M507.831 1440.384v-47.212"/><path data-name="線 121165" d="M507.831 1389.547v-47.627"/><path data-name="線 121166" d="M550.195 1363.714v-10.897"/><path data-name="線 121167" d="M552.204 1363.713v-23.409"/><path data-name="線 121168" d="M550.195 1544.088v-23.802"/><path data-name="線 121169" d="M550.195 1516.661v-47.212"/><path data-name="線 121170" d="M552.204 1540.878v-20.592"/><path data-name="線 121171" d="M552.204 1516.661v-47.212"/><path data-name="線 121172" d="M594.175 1440.384v-47.212"/><path data-name="線 121173" d="M596.206 1440.384v-47.212"/><path data-name="線 121174" d="M550.195 1465.409v-46.819"/><path data-name="線 121175" d="M550.195 1414.965v-47.212"/><path data-name="線 121176" d="M552.204 1414.965v-47.212"/><path data-name="線 121177" d="M552.204 1465.409v-46.819"/><path data-name="線 121178" d="M477.564 1393.172l2.424 4.433"/><path data-name="線 121179" d="M478.372 1391.141l3.21 5.263"/><path data-name="線 121180" d="M481.582 1398.413l20.178-5.241"/><path data-name="線 121181" d="M463.829 1411.319l5.263-20.178"/><path data-name="線 121182" d="M463.829 1370.963l5.263 20.178"/><path data-name="線 121183" d="M465.445 1411.734l14.544-14.129"/><path data-name="線 121184" d="M481.582 1396.404l19.784-5.263"/><path data-name="線 121185" d="M466.668 1412.935l14.915-14.522"/><path data-name="線 121186" d="M466.668 1369.369l14.915 14.915"/><path data-name="線 121187" d="M465.445 1370.57l14.544 14.522"/><path data-name="線 121188" d="M501.366 1391.141l-19.784-5.241"/><path data-name="線 121189" d="M501.76 1389.547l-20.178-5.263"/><path data-name="線 121190" d="M465.445 1411.734l5.263-19.37"/><path data-name="線 121191" d="M465.445 1370.57l5.263 19.763"/><path data-name="線 121192" d="M475.949 1392.364h-5.241"/><path data-name="線 121193" d="M475.949 1390.333h-5.241"/><path data-name="線 121194" d="M463.829 1414.965l1.616-3.232"/><path data-name="線 121195" d="M504.599 1391.141h-3.232"/><path data-name="線 121196" d="M481.582 1385.9v-1.616"/><path data-name="線 121197" d="M479.988 1385.092l1.594-.808"/><path data-name="線 121198" d="M481.582 1398.412v-2.009"/><path data-name="線 121199" d="M479.988 1397.605l1.594.808"/><path data-name="線 121200" d="M470.708 1392.364l-1.616-1.223"/><path data-name="線 121201" d="M470.708 1390.333l-1.616.808"/><path data-name="線 121202" d="M465.445 1370.57l-1.616-2.817"/><path data-name="線 121203" d="M466.668 1369.369l-2.839-1.616"/><path data-name="線 121204" d="M504.599 1391.141l-2.839-1.594"/><path data-name="線 121205" d="M481.582 1385.9l-3.21 5.241"/><path data-name="線 121206" d="M476.756 1392.364l.808-1.223"/><path data-name="線 121207" d="M477.564 1393.172l-.808-.808"/><path data-name="線 121208" d="M478.372 1391.141h-.808"/><path data-name="線 121209" d="M479.988 1385.092l-3.232 5.241"/><path data-name="線 121210" d="M476.756 1390.333h-.808"/><path data-name="線 121211" d="M476.756 1390.333l.808.808"/><path data-name="線 121212" d="M476.756 1392.364h-.808"/><path data-name="線 121213" d="M477.564 1444.008l2.424 4.455"/><path data-name="線 121214" d="M478.372 1442.393l3.21 5.263"/><path data-name="線 121215" d="M481.582 1449.271l20.178-5.263"/><path data-name="線 121216" d="M463.829 1462.177l5.263-19.784"/><path data-name="線 121217" d="M463.829 1422.215l5.263 20.178"/><path data-name="線 121218" d="M465.445 1462.57l14.544-14.107"/><path data-name="線 121219" d="M481.582 1447.656l19.784-5.263"/><path data-name="線 121220" d="M466.668 1463.793l14.915-14.522"/><path data-name="線 121221" d="M466.668 1420.599l14.915 14.544"/><path data-name="線 121222" d="M465.445 1421.822l14.544 14.129"/><path data-name="線 121223" d="M501.366 1442.393l-19.784-5.241"/><path data-name="線 121224" d="M501.76 1440.384l-20.178-5.241"/><path data-name="線 121225" d="M465.445 1462.571l5.263-19.37"/><path data-name="線 121226" d="M465.445 1421.822l5.263 19.37"/><path data-name="線 121227" d="M475.949 1443.201h-5.241"/><path data-name="線 121228" d="M475.949 1441.192h-5.241"/><path data-name="線 121229" d="M463.829 1465.409l1.616-2.839"/><path data-name="線 121230" d="M504.599 1442.393h-3.232"/><path data-name="線 121231" d="M481.582 1437.152v-2.009"/><path data-name="線 121232" d="M479.988 1435.951l1.594-.808"/><path data-name="線 121233" d="M481.582 1449.271v-1.616"/><path data-name="線 121234" d="M479.988 1448.463l1.594.808"/><path data-name="線 121235" d="M470.708 1443.201l-1.616-.808"/><path data-name="線 121236" d="M470.708 1441.192l-1.616 1.201"/><path data-name="線 121237" d="M465.445 1421.822l-1.616-3.232"/><path data-name="線 121238" d="M466.668 1420.599l-2.839-2.009"/><path data-name="線 121239" d="M504.599 1442.393l-2.839-2.009"/><path data-name="線 121240" d="M481.582 1437.152l-3.21 5.241"/><path data-name="線 121241" d="M476.756 1443.201l.808-.808"/><path data-name="線 121242" d="M477.564 1444.009l-.808-.808"/><path data-name="線 121243" d="M478.372 1442.393h-.808"/><path data-name="線 121244" d="M479.988 1435.951l-3.232 5.241"/><path data-name="線 121245" d="M476.756 1441.192h-.808"/><path data-name="線 121246" d="M476.756 1441.192l.808 1.201"/><path data-name="線 121247" d="M476.756 1443.201h-.808"/><path data-name="線 121248" d="M467.869 1471.851l-2.817-2.009"/><path data-name="線 121249" d="M505.8 1493.644l-3.232-2.009"/><path data-name="線 121250" d="M521.544 1469.449l2.424 4.018"/><path data-name="線 121251" d="M522.746 1467.418l2.839 5.241"/><path data-name="線 121252" d="M525.584 1474.69l20.178-5.656"/><path data-name="線 121253" d="M507.831 1487.596l5.634-20.178"/><path data-name="線 121254" d="M507.831 1447.655l5.634 19.763"/><path data-name="線 121255" d="M509.84 1488.011l14.129-14.544"/><path data-name="線 121256" d="M525.584 1472.659l19.763-5.241"/><path data-name="線 121257" d="M511.063 1489.212l14.522-14.522"/><path data-name="線 121258" d="M511.063 1446.039l14.522 14.129"/><path data-name="線 121259" d="M509.84 1447.24l14.129 14.129"/><path data-name="線 121260" d="M545.347 1467.418l-19.763-5.241"/><path data-name="線 121261" d="M545.762 1465.802l-20.178-5.634"/><path data-name="線 121262" d="M509.84 1488.01l5.241-19.784"/><path data-name="線 121263" d="M509.84 1447.24l5.241 19.37"/><path data-name="線 121264" d="M519.929 1468.226h-4.848"/><path data-name="線 121265" d="M519.929 1466.61h-4.848"/><path data-name="線 121266" d="M507.831 1491.22l2.009-3.21"/><path data-name="線 121267" d="M548.994 1467.418h-3.647"/><path data-name="線 121268" d="M525.584 1462.177v-2.009"/><path data-name="線 121269" d="M523.968 1461.369l1.616-1.201"/><path data-name="線 121270" d="M525.584 1474.69v-2.031"/><path data-name="線 121271" d="M523.968 1473.467l1.616 1.223"/><path data-name="線 121272" d="M515.081 1468.226l-1.616-.808"/><path data-name="線 121273" d="M515.081 1466.61l-1.616.808"/><path data-name="線 121274" d="M509.84 1447.24l-2.009-3.232"/><path data-name="線 121275" d="M511.063 1446.039l-3.232-2.031"/><path data-name="線 121276" d="M548.994 1467.418l-3.232-1.616"/><path data-name="線 121277" d="M525.585 1462.177l-2.839 5.241"/><path data-name="線 121278" d="M521.151 1468.226l.393-.808"/><path data-name="線 121279" d="M521.544 1469.449l-.393-1.223"/><path data-name="線 121280" d="M522.745 1467.418h-1.201"/><path data-name="線 121281" d="M523.968 1461.369l-2.817 5.241"/><path data-name="線 121282" d="M521.152 1466.61h-1.223"/><path data-name="線 121283" d="M521.151 1466.61l.393.808"/><path data-name="線 121284" d="M521.152 1468.226h-1.223"/><path data-name="線 121285" d="M521.544 1520.286l2.424 4.433"/><path data-name="線 121286" d="M522.746 1518.277l2.839 5.241"/><path data-name="線 121287" d="M525.584 1525.527l20.178-5.241"/><path data-name="線 121288" d="M507.831 1538.455l5.634-20.178"/><path data-name="線 121289" d="M507.831 1498.492l5.634 19.784"/><path data-name="線 121290" d="M509.84 1538.848l14.129-14.129"/><path data-name="線 121291" d="M525.584 1523.518l19.763-5.241"/><path data-name="線 121292" d="M511.063 1540.464l14.522-14.937"/><path data-name="線 121293" d="M511.063 1496.483l14.522 14.915"/><path data-name="線 121294" d="M509.84 1497.684l14.129 14.522"/><path data-name="線 121295" d="M545.347 1518.277l-19.763-5.263"/><path data-name="線 121296" d="M545.762 1516.661l-20.178-5.263"/><path data-name="線 121297" d="M509.84 1538.848l5.241-19.37"/><path data-name="線 121298" d="M509.84 1497.684l5.241 19.784"/><path data-name="線 121299" d="M519.929 1519.478h-4.848"/><path data-name="線 121300" d="M519.929 1517.469h-4.848"/><path data-name="線 121301" d="M507.831 1542.079l2.009-3.232"/><path data-name="線 121302" d="M548.994 1518.277h-3.647"/><path data-name="線 121303" d="M525.584 1513.014v-1.616"/><path data-name="線 121304" d="M523.968 1512.206l1.616-.808"/><path data-name="線 121305" d="M525.584 1525.527v-2.009"/><path data-name="線 121306" d="M523.968 1524.719l1.616.808"/><path data-name="線 121307" d="M515.081 1519.478l-1.616-1.201"/><path data-name="線 121308" d="M515.081 1517.469l-1.616.808"/><path data-name="線 121309" d="M509.84 1497.684l-2.009-2.817"/><path data-name="線 121310" d="M511.063 1496.483l-3.232-1.616"/><path data-name="線 121311" d="M548.994 1518.277l-3.232-1.616"/><path data-name="線 121312" d="M525.585 1513.014l-2.839 5.263"/><path data-name="線 121313" d="M521.151 1519.478l.393-1.201"/><path data-name="線 121314" d="M521.544 1520.286l-.393-.808"/><path data-name="線 121315" d="M522.745 1518.277h-1.201"/><path data-name="線 121316" d="M523.968 1512.206l-2.817 5.263"/><path data-name="線 121317" d="M521.152 1517.469h-1.223"/><path data-name="線 121318" d="M521.151 1517.469l.393.808"/><path data-name="線 121319" d="M521.152 1519.478h-1.223"/><path data-name="線 121320" d="M565.939 1494.867l2.424 4.433"/><path data-name="線 121321" d="M566.747 1492.836l3.232 5.263"/><path data-name="線 121322" d="M569.979 1500.108l20.178-5.241"/><path data-name="線 121323" d="M552.204 1513.014l5.263-20.178"/><path data-name="線 121324" d="M552.204 1472.659l5.263 20.178"/><path data-name="線 121325" d="M553.82 1513.429l14.544-14.129"/><path data-name="線 121326" d="M569.979 1498.099l19.763-5.263"/><path data-name="線 121327" d="M555.436 1514.63l14.544-14.522"/><path data-name="線 121328" d="M555.436 1471.043l14.544 14.544"/><path data-name="線 121329" d="M553.82 1472.266l14.544 14.522"/><path data-name="線 121330" d="M589.742 1492.836l-19.763-5.241"/><path data-name="線 121331" d="M590.157 1491.22l-20.178-5.634"/><path data-name="線 121332" d="M553.82 1513.428l5.263-19.784"/><path data-name="線 121333" d="M553.82 1472.266l5.263 19.763"/><path data-name="線 121334" d="M564.324 1493.644h-5.241"/><path data-name="線 121335" d="M564.324 1492.028h-5.241"/><path data-name="線 121336" d="M552.204 1516.661l1.616-3.232"/><path data-name="線 121337" d="M592.974 1492.836h-3.232"/><path data-name="線 121338" d="M569.979 1487.596v-1.616"/><path data-name="線 121339" d="M568.363 1486.788l1.616-.808"/><path data-name="線 121340" d="M569.979 1500.108v-2.009"/><path data-name="線 121341" d="M568.363 1499.3l1.616.808"/><path data-name="線 121342" d="M559.083 1493.644l-1.616-.808"/><path data-name="線 121343" d="M559.083 1492.028l-1.616.808"/><path data-name="線 121344" d="M553.82 1472.266l-1.616-2.817"/><path data-name="線 121345" d="M555.436 1471.043l-3.232-1.594"/><path data-name="線 121346" d="M592.974 1492.836l-2.817-1.616"/><path data-name="線 121347" d="M569.979 1487.595l-3.232 5.241"/><path data-name="線 121348" d="M565.131 1493.644l.808-.808"/><path data-name="線 121349" d="M565.939 1494.867l-.808-1.223"/><path data-name="線 121350" d="M566.747 1492.836h-.808"/><path data-name="線 121351" d="M568.363 1486.787l-3.232 5.241"/><path data-name="線 121352" d="M565.131 1492.028h-.808"/><path data-name="線 121353" d="M565.131 1492.028l.808.808"/><path data-name="線 121354" d="M565.131 1493.644h-.808"/><path data-name="線 121355" d="M609.919 1520.286l2.424 4.433"/><path data-name="線 121356" d="M611.142 1518.277l2.817 5.241"/><path data-name="線 121357" d="M614.352 1525.527l19.784-5.241"/><path data-name="線 121358" d="M596.206 1538.455l5.656-20.178"/><path data-name="線 121359" d="M596.206 1498.492l5.656 19.784"/><path data-name="線 121360" d="M598.215 1538.848l14.129-14.129"/><path data-name="線 121361" d="M613.959 1523.518l19.763-5.241"/><path data-name="線 121362" d="M599.438 1540.464l14.915-14.937"/><path data-name="線 121363" d="M599.438 1496.483l14.915 14.915"/><path data-name="線 121364" d="M598.215 1497.684l14.129 14.522"/><path data-name="線 121365" d="M633.722 1518.277l-19.763-5.263"/><path data-name="線 121366" d="M634.136 1516.661l-19.784-5.263"/><path data-name="線 121367" d="M598.215 1538.848l5.241-19.37"/><path data-name="線 121368" d="M598.215 1497.684l5.241 19.784"/><path data-name="線 121369" d="M608.304 1519.478h-4.848"/><path data-name="線 121370" d="M608.304 1517.469h-4.848"/><path data-name="線 121371" d="M596.206 1542.079l2.009-3.232"/><path data-name="線 121372" d="M637.369 1518.277h-3.647"/><path data-name="線 121373" d="M613.959 1513.014v-1.616"/><path data-name="線 121374" d="M612.343 1512.206l1.616-.808"/><path data-name="線 121375" d="M613.959 1525.527v-2.009"/><path data-name="線 121376" d="M612.343 1524.719l1.616.808"/><path data-name="線 121377" d="M603.456 1519.478l-1.594-1.201"/><path data-name="線 121378" d="M603.456 1517.469l-1.594.808"/><path data-name="線 121379" d="M598.215 1497.684l-2.009-2.817"/><path data-name="線 121380" d="M599.438 1496.483l-3.232-1.616"/><path data-name="線 121381" d="M637.369 1518.277l-3.232-1.616"/><path data-name="線 121382" d="M613.959 1513.014l-2.817 5.263"/><path data-name="線 121383" d="M609.526 1519.478l.393-1.201"/><path data-name="線 121384" d="M609.919 1520.286l-.393-.808"/><path data-name="線 121385" d="M611.142 1518.277h-1.223"/><path data-name="線 121386" d="M612.343 1512.206l-2.817 5.263"/><path data-name="線 121387" d="M609.526 1517.469h-1.223"/><path data-name="線 121388" d="M609.526 1517.469l.393.808"/><path data-name="線 121389" d="M609.526 1519.478h-1.223"/><path data-name="線 121390" d="M609.919 1469.449l2.424 4.018"/><path data-name="線 121391" d="M611.142 1467.418l2.817 5.241"/><path data-name="線 121392" d="M614.352 1474.69l19.784-5.656"/><path data-name="線 121393" d="M596.206 1487.596l5.656-20.178"/><path data-name="線 121394" d="M596.206 1447.655l5.656 19.763"/><path data-name="線 121395" d="M598.215 1488.011l14.129-14.544"/><path data-name="線 121396" d="M613.959 1472.659l19.763-5.241"/><path data-name="線 121397" d="M599.438 1489.212l14.915-14.522"/><path data-name="線 121398" d="M599.438 1446.039l14.915 14.129"/><path data-name="線 121399" d="M598.215 1447.24l14.129 14.129"/><path data-name="線 121400" d="M633.722 1467.418l-19.763-5.241"/><path data-name="線 121401" d="M634.136 1465.802l-19.784-5.634"/><path data-name="線 121402" d="M598.215 1488.01l5.241-19.784"/><path data-name="線 121403" d="M598.215 1447.24l5.241 19.37"/><path data-name="線 121404" d="M608.304 1468.226h-4.848"/><path data-name="線 121405" d="M608.304 1466.61h-4.848"/><path data-name="線 121406" d="M596.206 1491.22l2.009-3.21"/><path data-name="線 121407" d="M637.369 1467.418h-3.647"/><path data-name="線 121408" d="M613.959 1462.177v-2.009"/><path data-name="線 121409" d="M612.343 1461.369l1.616-1.201"/><path data-name="線 121410" d="M613.959 1474.69v-2.031"/><path data-name="線 121411" d="M612.343 1473.467l1.616 1.223"/><path data-name="線 121412" d="M603.456 1468.226l-1.594-.808"/><path data-name="線 121413" d="M603.456 1466.61l-1.594.808"/><path data-name="線 121414" d="M598.215 1447.24l-2.009-3.232"/><path data-name="線 121415" d="M599.438 1446.039l-3.232-2.031"/><path data-name="線 121416" d="M637.369 1467.418l-3.232-1.616"/><path data-name="線 121417" d="M613.959 1462.177l-2.817 5.241"/><path data-name="線 121418" d="M609.526 1468.226l.393-.808"/><path data-name="線 121419" d="M609.919 1469.449l-.393-1.223"/><path data-name="線 121420" d="M611.142 1467.418h-1.223"/><path data-name="線 121421" d="M612.343 1461.369l-2.817 5.241"/><path data-name="線 121422" d="M609.526 1466.61h-1.223"/><path data-name="線 121423" d="M609.526 1466.61l.393.808"/><path data-name="線 121424" d="M609.526 1468.226h-1.223"/><path data-name="線 121425" d="M565.939 1444.008l2.424 4.455"/><path data-name="線 121426" d="M566.747 1442.393l3.232 5.263"/><path data-name="線 121427" d="M569.979 1449.271l20.178-5.263"/><path data-name="線 121428" d="M552.204 1462.177l5.263-19.784"/><path data-name="線 121429" d="M552.204 1422.215l5.263 20.178"/><path data-name="線 121430" d="M553.82 1462.57l14.544-14.107"/><path data-name="線 121431" d="M569.979 1447.656l19.763-5.263"/><path data-name="線 121432" d="M555.436 1463.793l14.544-14.522"/><path data-name="線 121433" d="M555.436 1420.599l14.544 14.544"/><path data-name="線 121434" d="M553.82 1421.822l14.544 14.129"/><path data-name="線 121435" d="M589.742 1442.393l-19.763-5.241"/><path data-name="線 121436" d="M590.157 1440.384l-20.178-5.241"/><path data-name="線 121437" d="M553.82 1462.571l5.263-19.37"/><path data-name="線 121438" d="M553.82 1421.822l5.263 19.37"/><path data-name="線 121439" d="M564.324 1443.201h-5.241"/><path data-name="線 121440" d="M564.324 1441.192h-5.241"/><path data-name="線 121441" d="M552.204 1465.409l1.616-2.839"/><path data-name="線 121442" d="M592.974 1442.393h-3.232"/><path data-name="線 121443" d="M569.979 1437.152v-2.009"/><path data-name="線 121444" d="M568.363 1435.951l1.616-.808"/><path data-name="線 121445" d="M569.979 1449.271v-1.616"/><path data-name="線 121446" d="M568.363 1448.463l1.616.808"/><path data-name="線 121447" d="M559.083 1443.201l-1.616-.808"/><path data-name="線 121448" d="M559.083 1441.192l-1.616 1.201"/><path data-name="線 121449" d="M553.82 1421.822l-1.616-3.232"/><path data-name="線 121450" d="M555.436 1420.599l-3.232-2.009"/><path data-name="線 121451" d="M592.974 1442.393l-2.817-2.009"/><path data-name="線 121452" d="M569.979 1437.152l-3.232 5.241"/><path data-name="線 121453" d="M565.131 1443.201l.808-.808"/><path data-name="線 121454" d="M565.939 1444.009l-.808-.808"/><path data-name="線 121455" d="M566.747 1442.393h-.808"/><path data-name="線 121456" d="M568.363 1435.951l-3.232 5.241"/><path data-name="線 121457" d="M565.131 1441.192h-.808"/><path data-name="線 121458" d="M565.131 1441.192l.808 1.201"/><path data-name="線 121459" d="M565.131 1443.201h-.808"/><path data-name="線 121460" d="M609.919 1418.59l2.424 4.433"/><path data-name="線 121461" d="M611.142 1416.581l2.817 5.634"/><path data-name="線 121462" d="M614.352 1423.831l19.784-5.241"/><path data-name="線 121463" d="M596.206 1436.759l5.656-20.178"/><path data-name="線 121464" d="M596.206 1396.797l5.656 19.784"/><path data-name="線 121465" d="M598.215 1437.152l14.129-14.129"/><path data-name="線 121466" d="M613.959 1422.215l19.763-5.634"/><path data-name="線 121467" d="M599.438 1438.768l14.915-14.937"/><path data-name="線 121468" d="M599.438 1394.788l14.915 14.937"/><path data-name="線 121469" d="M598.215 1396.403l14.129 14.107"/><path data-name="線 121470" d="M633.722 1416.581l-19.763-5.263"/><path data-name="線 121471" d="M634.136 1414.965l-19.784-5.241"/><path data-name="線 121472" d="M598.215 1437.152l5.241-19.37"/><path data-name="線 121473" d="M598.215 1396.403l5.241 19.37"/><path data-name="線 121474" d="M608.304 1417.782h-4.848"/><path data-name="線 121475" d="M608.304 1415.773h-4.848"/><path data-name="線 121476" d="M596.206 1440.384l2.009-3.232"/><path data-name="線 121477" d="M637.369 1416.581h-3.647"/><path data-name="線 121478" d="M613.959 1411.318v-1.594"/><path data-name="線 121479" d="M612.343 1410.51l1.616-.786"/><path data-name="線 121480" d="M613.959 1423.831v-1.616"/><path data-name="線 121481" d="M612.343 1423.023l1.616.808"/><path data-name="線 121482" d="M603.456 1417.782l-1.594-1.201"/><path data-name="線 121483" d="M603.456 1415.773l-1.594.808"/><path data-name="線 121484" d="M598.215 1396.404l-2.009-3.232"/><path data-name="線 121485" d="M599.438 1394.788l-3.232-1.616"/><path data-name="線 121486" d="M637.369 1416.581l-3.232-1.616"/><path data-name="線 121487" d="M613.959 1411.318l-2.817 5.263"/><path data-name="線 121488" d="M609.526 1417.782l.393-1.201"/><path data-name="線 121489" d="M609.919 1418.59l-.393-.808"/><path data-name="線 121490" d="M611.142 1416.581h-1.223"/><path data-name="線 121491" d="M612.343 1410.51l-2.817 5.263"/><path data-name="線 121492" d="M609.526 1415.773h-1.223"/><path data-name="線 121493" d="M609.526 1415.773l.393.808"/><path data-name="線 121494" d="M609.526 1417.782h-1.223"/><path data-name="線 121495" d="M565.939 1393.172l2.424 4.433"/><path data-name="線 121496" d="M566.747 1391.141l3.232 5.263"/><path data-name="線 121497" d="M569.979 1398.413l20.178-5.241"/><path data-name="線 121498" d="M552.204 1411.319l5.263-20.178"/><path data-name="線 121499" d="M552.204 1370.963l5.263 20.178"/><path data-name="線 121500" d="M553.82 1411.734l14.544-14.129"/><path data-name="線 121501" d="M569.979 1396.404l19.763-5.263"/><path data-name="線 121502" d="M555.436 1412.935l14.544-14.522"/><path data-name="線 121503" d="M555.436 1369.369l14.544 14.915"/><path data-name="線 121504" d="M553.82 1370.57l14.544 14.522"/><path data-name="線 121505" d="M589.742 1391.141l-19.763-5.241"/><path data-name="線 121506" d="M590.157 1389.547l-20.178-5.263"/><path data-name="線 121507" d="M553.82 1411.734l5.263-19.37"/><path data-name="線 121508" d="M553.82 1370.57l5.263 19.763"/><path data-name="線 121509" d="M564.324 1392.364h-5.241"/><path data-name="線 121510" d="M564.324 1390.333h-5.241"/><path data-name="線 121511" d="M552.204 1414.965l1.616-3.232"/><path data-name="線 121512" d="M592.974 1391.141h-3.232"/><path data-name="線 121513" d="M569.979 1385.9v-1.616"/><path data-name="線 121514" d="M568.363 1385.092l1.616-.808"/><path data-name="線 121515" d="M569.979 1398.412v-2.009"/><path data-name="線 121516" d="M568.363 1397.605l1.616.808"/><path data-name="線 121517" d="M559.083 1392.364l-1.616-1.223"/><path data-name="線 121518" d="M559.083 1390.333l-1.616.808"/><path data-name="線 121519" d="M553.82 1370.57l-1.616-2.817"/><path data-name="線 121520" d="M555.436 1369.369l-3.232-1.616"/><path data-name="線 121521" d="M592.974 1391.141l-2.817-1.594"/><path data-name="線 121522" d="M569.979 1385.9l-3.232 5.241"/><path data-name="線 121523" d="M565.131 1392.364l.808-1.223"/><path data-name="線 121524" d="M565.939 1393.172l-.808-.808"/><path data-name="線 121525" d="M566.747 1391.141h-.808"/><path data-name="線 121526" d="M568.363 1385.092l-3.232 5.241"/><path data-name="線 121527" d="M565.131 1390.333h-.808"/><path data-name="線 121528" d="M565.131 1390.333l.808.808"/><path data-name="線 121529" d="M565.131 1392.364h-.808"/><path data-name="線 121530" d="M521.544 1367.753l2.424 4.018"/><path data-name="線 121531" d="M522.746 1365.722l2.839 5.241"/><path data-name="線 121532" d="M525.584 1372.994l20.178-5.656"/><path data-name="線 121533" d="M507.831 1385.9l5.634-20.178"/><path data-name="線 121534" d="M507.831 1345.545l5.634 20.178"/><path data-name="線 121535" d="M509.84 1386.315l14.129-14.544"/><path data-name="線 121536" d="M525.584 1370.963l19.763-5.241"/><path data-name="線 121537" d="M511.063 1387.516l14.522-14.522"/><path data-name="線 121538" d="M511.063 1343.929l14.522 14.544"/><path data-name="線 121539" d="M509.84 1345.152l14.129 14.522"/><path data-name="線 121540" d="M545.347 1365.722l-19.763-5.241"/><path data-name="線 121541" d="M545.762 1364.106l-20.178-5.634"/><path data-name="線 121542" d="M509.84 1386.314l5.241-19.784"/><path data-name="線 121543" d="M509.84 1345.152l5.241 19.763"/><path data-name="線 121544" d="M519.929 1366.53h-4.848"/><path data-name="線 121545" d="M519.929 1364.914h-4.848"/><path data-name="線 121546" d="M507.831 1389.547l2.009-3.232"/><path data-name="線 121547" d="M548.994 1365.722h-3.647"/><path data-name="線 121548" d="M525.584 1360.481v-2.009"/><path data-name="線 121549" d="M523.968 1359.673l1.616-1.201"/><path data-name="線 121550" d="M525.584 1372.994v-2.031"/><path data-name="線 121551" d="M523.968 1371.771l1.616 1.223"/><path data-name="線 121552" d="M515.081 1366.53l-1.616-.808"/><path data-name="線 121553" d="M515.081 1364.914l-1.616.808"/><path data-name="線 121554" d="M509.84 1345.152l-2.009-3.232"/><path data-name="線 121555" d="M511.063 1343.929l-3.232-2.009"/><path data-name="線 121556" d="M548.994 1365.722l-3.232-1.616"/><path data-name="線 121557" d="M525.585 1360.481l-2.839 5.241"/><path data-name="線 121558" d="M521.151 1366.53l.393-.808"/><path data-name="線 121559" d="M521.544 1367.753l-.393-1.223"/><path data-name="線 121560" d="M522.745 1365.722h-1.201"/><path data-name="線 121561" d="M523.968 1359.673l-2.817 5.241"/><path data-name="線 121562" d="M521.152 1364.914h-1.223"/><path data-name="線 121563" d="M521.151 1364.914l.393.808"/><path data-name="線 121564" d="M521.152 1366.53h-1.223"/><path data-name="線 121565" d="M609.919 1367.753l2.424 4.018"/><path data-name="線 121566" d="M611.142 1365.722l2.817 5.241"/><path data-name="線 121567" d="M614.352 1372.994l19.784-5.656"/><path data-name="線 121568" d="M596.206 1385.9l5.656-20.178"/><path data-name="線 121569" d="M596.206 1345.545l5.656 20.178"/><path data-name="線 121570" d="M598.215 1386.315l14.129-14.544"/><path data-name="線 121571" d="M613.959 1370.963l19.763-5.241"/><path data-name="線 121572" d="M599.438 1387.516l14.915-14.522"/><path data-name="線 121573" d="M599.438 1343.929l14.915 14.544"/><path data-name="線 121574" d="M598.215 1345.152l14.129 14.522"/><path data-name="線 121575" d="M633.722 1365.722l-19.763-5.241"/><path data-name="線 121576" d="M634.136 1364.106l-19.784-5.634"/><path data-name="線 121577" d="M598.215 1386.314l5.241-19.784"/><path data-name="線 121578" d="M598.215 1345.152l5.241 19.763"/><path data-name="線 121579" d="M608.304 1366.53h-4.848"/><path data-name="線 121580" d="M608.304 1364.914h-4.848"/><path data-name="線 121581" d="M596.206 1389.547l2.009-3.232"/><path data-name="線 121582" d="M637.369 1365.722h-3.647"/><path data-name="線 121583" d="M613.959 1360.481v-2.009"/><path data-name="線 121584" d="M612.343 1359.673l1.616-1.201"/><path data-name="線 121585" d="M613.959 1372.994v-2.031"/><path data-name="線 121586" d="M612.343 1371.771l1.616 1.223"/><path data-name="線 121587" d="M603.456 1366.53l-1.594-.808"/><path data-name="線 121588" d="M603.456 1364.914l-1.594.808"/><path data-name="線 121589" d="M598.215 1345.152l-2.009-3.232"/><path data-name="線 121590" d="M599.438 1343.929l-3.232-2.009"/><path data-name="線 121591" d="M637.369 1365.722l-3.232-1.616"/><path data-name="線 121592" d="M613.959 1360.481l-2.817 5.241"/><path data-name="線 121593" d="M609.526 1366.53l.393-.808"/><path data-name="線 121594" d="M609.919 1367.753l-.393-1.223"/><path data-name="線 121595" d="M611.142 1365.722h-1.223"/><path data-name="線 121596" d="M612.343 1359.673l-2.817 5.241"/><path data-name="線 121597" d="M609.526 1364.914h-1.223"/><path data-name="線 121598" d="M609.526 1364.914l.393.808"/><path data-name="線 121599" d="M609.526 1366.53h-1.223"/><path data-name="線 121600" d="M498.943 1366.53h-5.241"/><path data-name="線 121601" d="M498.943 1364.914h-6.049"/><path data-name="線 121602" d="M500.559 1365.723l5.241-20.178"/><path data-name="線 121603" d="M502.568 1387.516l-14.522-14.522"/><path data-name="線 121604" d="M467.869 1367.338l20.178 5.656"/><path data-name="線 121605" d="M504.184 1386.314l-5.241-19.784"/><path data-name="線 121606" d="M498.943 1364.915l5.241-19.763"/><path data-name="線 121607" d="M505.8 1385.9l-5.241-20.178"/><path data-name="線 121608" d="M467.869 1364.106l20.178-5.634"/><path data-name="線 121609" d="M468.284 1365.722l19.763-5.241"/><path data-name="線 121610" d="M504.184 1345.152l-14.522 14.522"/><path data-name="線 121611" d="M502.568 1343.929l-14.522 14.544"/><path data-name="線 121612" d="M504.184 1386.315l-14.522-14.544"/><path data-name="線 121613" d="M468.284 1365.722l19.763 5.241"/><path data-name="線 121614" d="M489.662 1371.771l2.424-4.018"/><path data-name="線 121615" d="M488.046 1370.963l2.424-4.433"/><path data-name="線 121616" d="M505.8 1389.547l-1.616-3.232"/><path data-name="線 121617" d="M504.184 1345.152l1.616-3.232"/><path data-name="線 121618" d="M489.662 1359.673l-1.616-1.201"/><path data-name="線 121619" d="M488.046 1360.481v-2.009"/><path data-name="線 121620" d="M498.943 1364.914l1.616.808"/><path data-name="線 121621" d="M498.943 1366.53l1.616-.808"/><path data-name="線 121622" d="M489.662 1371.771l-1.616 1.223"/><path data-name="線 121623" d="M488.046 1372.994v-2.031"/><path data-name="線 121624" d="M468.284 1365.722h-3.232"/><path data-name="線 121625" d="M467.869 1364.106l-2.817 1.616"/><path data-name="線 121626" d="M505.8 1341.92l-3.232 2.009"/><path data-name="線 121627" d="M489.662 1359.673l3.232 5.241"/><path data-name="線 121628" d="M492.894 1366.53l-.808-.808"/><path data-name="線 121629" d="M493.702 1366.53h-.808"/><path data-name="線 121630" d="M492.894 1364.914l-.808.808"/><path data-name="線 121631" d="M488.046 1360.481l3.232 5.241"/><path data-name="線 121632" d="M490.47 1366.53l.808-.808"/><path data-name="線 121633" d="M492.086 1365.722h-.808"/><path data-name="線 121634" d="M492.086 1367.753l.808-1.223"/><path data-name="線 121635" d="M498.943 1417.782h-5.241"/><path data-name="線 121636" d="M498.943 1415.773h-6.049"/><path data-name="線 121637" d="M500.559 1416.581l5.241-19.784"/><path data-name="線 121638" d="M502.568 1438.768l-14.522-14.937"/><path data-name="線 121639" d="M467.869 1418.59l20.178 5.241"/><path data-name="線 121640" d="M504.184 1437.152l-5.241-19.37"/><path data-name="線 121641" d="M498.943 1415.773l5.241-19.37"/><path data-name="線 121642" d="M505.8 1436.759l-5.241-20.178"/><path data-name="線 121643" d="M467.869 1414.965l20.178-5.241"/><path data-name="線 121644" d="M468.284 1416.581l19.763-5.263"/><path data-name="線 121645" d="M504.184 1396.403l-14.522 14.107"/><path data-name="線 121646" d="M502.568 1394.788l-14.522 14.937"/><path data-name="線 121647" d="M504.184 1437.152l-14.522-14.129"/><path data-name="線 121648" d="M468.284 1416.581l19.763 5.634"/><path data-name="線 121649" d="M489.662 1423.023l2.424-4.433"/><path data-name="線 121650" d="M488.046 1422.215l2.424-4.433"/><path data-name="線 121651" d="M505.8 1440.384l-1.616-3.232"/><path data-name="線 121652" d="M504.184 1396.404l1.616-3.232"/><path data-name="線 121653" d="M489.662 1410.51l-1.616-.786"/><path data-name="線 121654" d="M488.046 1411.318v-1.594"/><path data-name="線 121655" d="M498.943 1415.773l1.616.808"/><path data-name="線 121656" d="M498.943 1417.782l1.616-1.201"/><path data-name="線 121657" d="M489.662 1423.023l-1.616.808"/><path data-name="線 121658" d="M488.046 1423.831v-1.616"/><path data-name="線 121659" d="M468.284 1416.581h-3.232"/><path data-name="線 121660" d="M467.869 1414.965l-2.817 1.616"/><path data-name="線 121661" d="M505.8 1393.172l-3.232 1.616"/><path data-name="線 121662" d="M489.662 1410.51l3.232 5.263"/><path data-name="線 121663" d="M492.894 1417.782l-.808-1.201"/><path data-name="線 121664" d="M493.702 1417.782h-.808"/><path data-name="線 121665" d="M492.894 1415.773l-.808.808"/><path data-name="線 121666" d="M488.046 1411.318l3.232 5.263"/><path data-name="線 121667" d="M490.47 1417.782l.808-1.201"/><path data-name="線 121668" d="M492.086 1416.581h-.808"/><path data-name="線 121669" d="M492.086 1418.59l.808-.808"/><path data-name="線 121670" d="M542.923 1392.364h-4.826"/><path data-name="線 121671" d="M542.923 1390.333h-6.049"/><path data-name="線 121672" d="M544.539 1391.141l5.656-20.178"/><path data-name="線 121673" d="M546.963 1412.935l-14.937-14.522"/><path data-name="線 121674" d="M512.264 1393.172l19.763 5.241"/><path data-name="線 121675" d="M548.186 1411.734l-5.263-19.37"/><path data-name="線 121676" d="M542.923 1390.333l5.263-19.763"/><path data-name="線 121677" d="M550.195 1411.319l-5.656-20.178"/><path data-name="線 121678" d="M512.264 1389.547l19.763-5.263"/><path data-name="線 121679" d="M512.657 1391.141l19.784-5.241"/><path data-name="線 121680" d="M548.186 1370.57l-14.544 14.522"/><path data-name="線 121681" d="M546.963 1369.369l-14.937 14.915"/><path data-name="線 121682" d="M548.186 1411.734l-14.544-14.129"/><path data-name="線 121683" d="M512.657 1391.141l19.784 5.263"/><path data-name="線 121684" d="M533.642 1397.605l2.839-4.433"/><path data-name="線 121685" d="M532.441 1396.404l2.424-4.04"/><path data-name="線 121686" d="M550.195 1414.965l-2.009-3.232"/><path data-name="線 121687" d="M548.186 1370.57l2.009-2.817"/><path data-name="線 121688" d="M533.642 1385.092l-1.201-.808"/><path data-name="線 121689" d="M532.441 1385.9v-1.616"/><path data-name="線 121690" d="M542.923 1390.333l1.616.808"/><path data-name="線 121691" d="M542.923 1392.364l1.616-1.223"/><path data-name="線 121692" d="M533.642 1397.605l-1.201.808"/><path data-name="線 121693" d="M532.441 1398.412v-2.009"/><path data-name="線 121694" d="M512.657 1391.141h-3.625"/><path data-name="線 121695" d="M512.264 1389.547l-3.232 1.594"/><path data-name="線 121696" d="M550.195 1367.753l-3.232 1.616"/><path data-name="線 121697" d="M533.642 1385.092l3.232 5.241"/><path data-name="線 121698" d="M536.874 1392.364l-.393-1.223"/><path data-name="線 121699" d="M538.097 1392.364h-1.223"/><path data-name="線 121700" d="M536.874 1390.333l-.393.808"/><path data-name="線 121701" d="M532.441 1385.9l2.817 5.241"/><path data-name="線 121702" d="M534.865 1392.364l.393-1.223"/><path data-name="線 121703" d="M536.481 1391.141h-1.223"/><path data-name="線 121704" d="M536.481 1393.172l.393-.808"/><path data-name="線 121705" d="M542.923 1443.201h-4.826"/><path data-name="線 121706" d="M542.923 1441.192h-6.049"/><path data-name="線 121707" d="M544.539 1442.393l5.656-20.178"/><path data-name="線 121708" d="M546.963 1463.793l-14.937-14.522"/><path data-name="線 121709" d="M512.264 1444.008l19.763 5.263"/><path data-name="線 121710" d="M548.186 1462.571l-5.263-19.37"/><path data-name="線 121711" d="M542.923 1441.192l5.263-19.37"/><path data-name="線 121712" d="M550.195 1462.177l-5.656-19.784"/><path data-name="線 121713" d="M512.264 1440.384l19.763-5.241"/><path data-name="線 121714" d="M512.657 1442.393l19.784-5.241"/><path data-name="線 121715" d="M548.186 1421.822l-14.544 14.129"/><path data-name="線 121716" d="M546.963 1420.599l-14.937 14.544"/><path data-name="線 121717" d="M548.186 1462.57l-14.544-14.107"/><path data-name="線 121718" d="M512.657 1442.393l19.784 5.263"/><path data-name="線 121719" d="M533.642 1448.463l2.839-4.455"/><path data-name="線 121720" d="M532.441 1447.656l2.424-4.455"/><path data-name="線 121721" d="M550.195 1465.409l-2.009-2.839"/><path data-name="線 121722" d="M548.186 1421.822l2.009-3.232"/><path data-name="線 121723" d="M533.642 1435.951l-1.201-.808"/><path data-name="線 121724" d="M532.441 1437.152v-2.009"/><path data-name="線 121725" d="M542.923 1441.192l1.616 1.201"/><path data-name="線 121726" d="M542.923 1443.201l1.616-.808"/><path data-name="線 121727" d="M533.642 1448.463l-1.201.808"/><path data-name="線 121728" d="M532.441 1449.271v-1.616"/><path data-name="線 121729" d="M512.657 1442.393h-3.625"/><path data-name="線 121730" d="M512.264 1440.384l-3.232 2.009"/><path data-name="線 121731" d="M550.195 1418.59l-3.232 2.009"/><path data-name="線 121732" d="M533.642 1435.951l3.232 5.241"/><path data-name="線 121733" d="M536.874 1443.201l-.393-.808"/><path data-name="線 121734" d="M538.097 1443.201h-1.223"/><path data-name="線 121735" d="M536.874 1441.192l-.393 1.201"/><path data-name="線 121736" d="M532.441 1437.152l2.817 5.241"/><path data-name="線 121737" d="M534.865 1443.201l.393-.808"/><path data-name="線 121738" d="M536.481 1442.393h-1.223"/><path data-name="線 121739" d="M536.481 1444.009l.393-.808"/><path data-name="線 121740" d="M587.318 1417.782h-5.241"/><path data-name="線 121741" d="M587.318 1415.773h-6.049"/><path data-name="線 121742" d="M588.934 1416.581l5.241-19.784"/><path data-name="線 121743" d="M590.965 1438.768l-14.544-14.937"/><path data-name="線 121744" d="M556.244 1418.59l20.178 5.241"/><path data-name="線 121745" d="M592.559 1437.152l-5.241-19.37"/><path data-name="線 121746" d="M587.318 1415.773l5.241-19.37"/><path data-name="線 121747" d="M594.175 1436.759l-5.241-20.178"/><path data-name="線 121748" d="M556.244 1414.965l20.178-5.241"/><path data-name="線 121749" d="M556.659 1416.581l19.763-5.263"/><path data-name="線 121750" d="M592.559 1396.403l-14.522 14.107"/><path data-name="線 121751" d="M590.965 1394.788l-14.544 14.937"/><path data-name="線 121752" d="M592.559 1437.152l-14.522-14.129"/><path data-name="線 121753" d="M556.659 1416.581l19.763 5.634"/><path data-name="線 121754" d="M578.037 1423.023l2.424-4.433"/><path data-name="線 121755" d="M576.421 1422.215l2.424-4.433"/><path data-name="線 121756" d="M594.175 1440.384l-1.616-3.232"/><path data-name="線 121757" d="M592.559 1396.404l1.616-3.232"/><path data-name="線 121758" d="M578.037 1410.51l-1.616-.786"/><path data-name="線 121759" d="M576.421 1411.318v-1.594"/><path data-name="線 121760" d="M587.318 1415.773l1.616.808"/><path data-name="線 121761" d="M587.318 1417.782l1.616-1.201"/><path data-name="線 121762" d="M578.037 1423.023l-1.616.808"/><path data-name="線 121763" d="M576.421 1423.831v-1.616"/><path data-name="線 121764" d="M556.659 1416.581h-3.232"/><path data-name="線 121765" d="M556.244 1414.965l-2.817 1.616"/><path data-name="線 121766" d="M594.175 1393.172l-3.21 1.616"/><path data-name="線 121767" d="M578.037 1410.51l3.232 5.263"/><path data-name="線 121768" d="M581.269 1417.782l-.808-1.201"/><path data-name="線 121769" d="M582.077 1417.782h-.808"/><path data-name="線 121770" d="M581.269 1415.773l-.808.808"/><path data-name="線 121771" d="M576.421 1411.318l3.232 5.263"/><path data-name="線 121772" d="M578.845 1417.782l.808-1.201"/><path data-name="線 121773" d="M580.461 1416.581h-.808"/><path data-name="線 121774" d="M580.461 1418.59l.808-.808"/><path data-name="線 121775" d="M631.32 1392.364h-4.848"/><path data-name="線 121776" d="M631.32 1390.333h-6.071"/><path data-name="線 121777" d="M632.914 1391.141l5.656-20.178"/><path data-name="線 121778" d="M635.338 1412.935l-14.522-14.522"/><path data-name="線 121779" d="M600.639 1393.172l20.178 5.241"/><path data-name="線 121780" d="M636.561 1411.734l-5.241-19.37"/><path data-name="線 121781" d="M631.32 1390.333l5.241-19.763"/><path data-name="線 121782" d="M638.57 1411.319l-5.656-20.178"/><path data-name="線 121783" d="M600.639 1389.547l20.178-5.263"/><path data-name="線 121784" d="M601.054 1391.141l19.763-5.241"/><path data-name="線 121785" d="M636.561 1370.57l-14.129 14.522"/><path data-name="線 121786" d="M635.338 1369.369l-14.522 14.915"/><path data-name="線 121787" d="M636.561 1411.734l-14.129-14.129"/><path data-name="線 121788" d="M601.054 1391.141l19.763 5.263"/><path data-name="線 121789" d="M622.432 1397.605l2.424-4.433"/><path data-name="線 121790" d="M620.816 1396.404l2.424-4.04"/><path data-name="線 121791" d="M638.57 1414.965l-2.009-3.232"/><path data-name="線 121792" d="M636.561 1370.57l2.009-2.817"/><path data-name="線 121793" d="M622.432 1385.092l-1.616-.808"/><path data-name="線 121794" d="M620.816 1385.9v-1.616"/><path data-name="線 121795" d="M631.32 1390.333l1.594.808"/><path data-name="線 121796" d="M631.32 1392.364l1.594-1.223"/><path data-name="線 121797" d="M622.432 1397.605l-1.616.808"/><path data-name="線 121798" d="M620.816 1398.412v-2.009"/><path data-name="線 121799" d="M601.054 1391.141h-3.647"/><path data-name="線 121800" d="M600.639 1389.547l-3.232 1.594"/><path data-name="線 121801" d="M638.57 1367.753l-3.232 1.616"/><path data-name="線 121802" d="M622.432 1385.092l2.817 5.241"/><path data-name="線 121803" d="M625.249 1392.364l-.393-1.223"/><path data-name="線 121804" d="M626.472 1392.364h-1.223"/><path data-name="線 121805" d="M625.249 1390.333l-.393.808"/><path data-name="線 121806" d="M620.816 1385.9l2.817 5.241"/><path data-name="線 121807" d="M623.24 1392.364l.393-1.223"/><path data-name="線 121808" d="M624.856 1391.141h-1.223"/><path data-name="線 121809" d="M624.856 1393.172l.393-.808"/><path data-name="線 121810" d="M587.318 1366.53h-5.241"/><path data-name="線 121811" d="M587.318 1364.914h-6.049"/><path data-name="線 121812" d="M588.934 1365.723l5.241-20.178"/><path data-name="線 121813" d="M590.965 1387.516l-14.544-14.522"/><path data-name="線 121814" d="M556.244 1367.338l20.178 5.656"/><path data-name="線 121815" d="M592.559 1386.314l-5.241-19.784"/><path data-name="線 121816" d="M587.318 1364.915l5.241-19.763"/><path data-name="線 121817" d="M594.175 1385.9l-5.241-20.178"/><path data-name="線 121818" d="M556.244 1364.106l20.178-5.634"/><path data-name="線 121819" d="M556.659 1365.722l19.763-5.241"/><path data-name="線 121820" d="M592.559 1345.152l-14.522 14.522"/><path data-name="線 121821" d="M590.965 1343.929l-14.544 14.544"/><path data-name="線 121822" d="M592.559 1386.315l-14.522-14.544"/><path data-name="線 121823" d="M556.659 1365.722l19.763 5.241"/><path data-name="線 121824" d="M578.037 1371.771l2.424-4.018"/><path data-name="線 121825" d="M576.421 1370.963l2.424-4.433"/><path data-name="線 121826" d="M594.175 1389.547l-1.616-3.232"/><path data-name="線 121827" d="M592.559 1345.152l1.616-3.232"/><path data-name="線 121828" d="M578.037 1359.673l-1.616-1.201"/><path data-name="線 121829" d="M576.421 1360.481v-2.009"/><path data-name="線 121830" d="M587.318 1364.914l1.616.808"/><path data-name="線 121831" d="M587.318 1366.53l1.616-.808"/><path data-name="線 121832" d="M578.037 1371.771l-1.616 1.223"/><path data-name="線 121833" d="M576.421 1372.994v-2.031"/><path data-name="線 121834" d="M556.659 1365.722h-3.232"/><path data-name="線 121835" d="M556.244 1364.106l-2.817 1.616"/><path data-name="線 121836" d="M594.175 1341.92l-3.21 2.009"/><path data-name="線 121837" d="M578.037 1359.673l3.232 5.241"/><path data-name="線 121838" d="M581.269 1366.53l-.808-.808"/><path data-name="線 121839" d="M582.077 1366.53h-.808"/><path data-name="線 121840" d="M581.269 1364.914l-.808.808"/><path data-name="線 121841" d="M576.421 1360.481l3.232 5.241"/><path data-name="線 121842" d="M578.845 1366.53l.808-.808"/><path data-name="線 121843" d="M580.461 1365.722h-.808"/><path data-name="線 121844" d="M580.461 1367.753l.808-1.223"/><path data-name="線 121845" d="M498.943 1468.226h-5.241"/><path data-name="線 121846" d="M498.943 1466.61h-6.049"/><path data-name="線 121847" d="M500.559 1467.418l5.241-19.763"/><path data-name="線 121848" d="M502.568 1489.212l-14.522-14.522"/><path data-name="線 121849" d="M467.869 1469.034l20.178 5.656"/><path data-name="線 121850" d="M504.184 1488.01l-5.241-19.784"/><path data-name="線 121851" d="M498.943 1466.61l5.241-19.37"/><path data-name="線 121852" d="M505.8 1487.596l-5.241-20.178"/><path data-name="線 121853" d="M467.869 1465.802l20.178-5.634"/><path data-name="線 121854" d="M468.284 1467.418l19.763-5.241"/><path data-name="線 121855" d="M504.184 1447.24l-14.522 14.129"/><path data-name="線 121856" d="M502.568 1446.039l-14.522 14.129"/><path data-name="線 121857" d="M504.184 1488.011l-14.522-14.544"/><path data-name="線 121858" d="M468.284 1467.418l19.763 5.241"/><path data-name="線 121859" d="M489.662 1473.467l2.424-4.018"/><path data-name="線 121860" d="M488.046 1472.659l2.424-4.433"/><path data-name="線 121861" d="M505.8 1491.22l-1.616-3.21"/><path data-name="線 121862" d="M504.184 1447.24l1.616-3.232"/><path data-name="線 121863" d="M489.662 1461.369l-1.616-1.201"/><path data-name="線 121864" d="M488.046 1462.177v-2.009"/><path data-name="線 121865" d="M498.943 1466.61l1.616.808"/><path data-name="線 121866" d="M498.943 1468.226l1.616-.808"/><path data-name="線 121867" d="M489.662 1473.467l-1.616 1.223"/><path data-name="線 121868" d="M488.046 1474.69v-2.031"/><path data-name="線 121869" d="M468.284 1467.418h-3.232"/><path data-name="線 121870" d="M467.869 1465.802l-2.817 1.616"/><path data-name="線 121871" d="M505.8 1444.008l-3.232 2.031"/><path data-name="線 121872" d="M489.662 1461.369l3.232 5.241"/><path data-name="線 121873" d="M492.894 1468.226l-.808-.808"/><path data-name="線 121874" d="M493.702 1468.226h-.808"/><path data-name="線 121875" d="M492.894 1466.61l-.808.808"/><path data-name="線 121876" d="M488.046 1462.177l3.232 5.241"/><path data-name="線 121877" d="M490.47 1468.226l.808-.808"/><path data-name="線 121878" d="M492.086 1467.418h-.808"/><path data-name="線 121879" d="M492.086 1469.449l.808-1.223"/><path data-name="線 121880" d="M498.943 1519.478h-5.241"/><path data-name="線 121881" d="M498.943 1517.469h-6.049"/><path data-name="線 121882" d="M500.559 1518.276l5.241-19.784"/><path data-name="線 121883" d="M502.568 1540.464l-14.522-14.937"/><path data-name="線 121884" d="M467.869 1520.286l20.178 5.241"/><path data-name="線 121885" d="M504.184 1538.848l-5.241-19.37"/><path data-name="線 121886" d="M498.943 1517.468l5.241-19.784"/><path data-name="線 121887" d="M505.8 1538.455l-5.241-20.178"/><path data-name="線 121888" d="M467.869 1516.661l20.178-5.263"/><path data-name="線 121889" d="M468.284 1518.277l19.763-5.263"/><path data-name="線 121890" d="M504.184 1497.684l-14.522 14.522"/><path data-name="線 121891" d="M502.568 1496.483l-14.522 14.915"/><path data-name="線 121892" d="M504.184 1538.848l-14.522-14.129"/><path data-name="線 121893" d="M468.284 1518.277l19.763 5.241"/><path data-name="線 121894" d="M489.662 1524.719l2.424-4.433"/><path data-name="線 121895" d="M488.046 1523.518l2.424-4.04"/><path data-name="線 121896" d="M505.8 1542.079l-1.616-3.232"/><path data-name="線 121897" d="M504.184 1497.684l1.616-2.817"/><path data-name="線 121898" d="M489.662 1512.206l-1.616-.808"/><path data-name="線 121899" d="M488.046 1513.014v-1.616"/><path data-name="線 121900" d="M498.943 1517.469l1.616.808"/><path data-name="線 121901" d="M498.943 1519.478l1.616-1.201"/><path data-name="線 121902" d="M489.662 1524.719l-1.616.808"/><path data-name="線 121903" d="M488.046 1525.527v-2.009"/><path data-name="線 121904" d="M468.284 1518.277h-3.232"/><path data-name="線 121905" d="M467.869 1516.661l-2.817 1.616"/><path data-name="線 121906" d="M505.8 1494.867l-3.232 1.616"/><path data-name="線 121907" d="M489.662 1512.206l3.232 5.263"/><path data-name="線 121908" d="M492.894 1519.478l-.808-1.201"/><path data-name="線 121909" d="M493.702 1519.478h-.808"/><path data-name="線 121910" d="M492.894 1517.469l-.808.808"/><path data-name="線 121911" d="M488.046 1513.014l3.232 5.263"/><path data-name="線 121912" d="M490.47 1519.478l.808-1.201"/><path data-name="線 121913" d="M492.086 1518.277h-.808"/><path data-name="線 121914" d="M492.086 1520.286l.808-.808"/><path data-name="線 121915" d="M542.923 1493.644h-4.826"/><path data-name="線 121916" d="M542.923 1492.028h-6.049"/><path data-name="線 121917" d="M544.539 1492.837l5.656-20.178"/><path data-name="線 121918" d="M546.963 1514.63l-14.937-14.522"/><path data-name="線 121919" d="M512.264 1494.867l19.763 5.241"/><path data-name="線 121920" d="M548.186 1513.428l-5.263-19.784"/><path data-name="線 121921" d="M542.923 1492.029l5.263-19.763"/><path data-name="線 121922" d="M550.195 1513.014l-5.656-20.178"/><path data-name="線 121923" d="M512.264 1491.22l19.763-5.634"/><path data-name="線 121924" d="M512.657 1492.836l19.784-5.241"/><path data-name="線 121925" d="M548.186 1472.266l-14.544 14.522"/><path data-name="線 121926" d="M546.963 1471.043l-14.937 14.544"/><path data-name="線 121927" d="M548.186 1513.429l-14.544-14.129"/><path data-name="線 121928" d="M512.657 1492.836l19.784 5.263"/><path data-name="線 121929" d="M533.642 1499.3l2.839-4.433"/><path data-name="線 121930" d="M532.441 1498.099l2.424-4.455"/><path data-name="線 121931" d="M550.195 1516.661l-2.009-3.232"/><path data-name="線 121932" d="M548.186 1472.266l2.009-2.817"/><path data-name="線 121933" d="M533.642 1486.788l-1.201-.808"/><path data-name="線 121934" d="M532.441 1487.596v-1.616"/><path data-name="線 121935" d="M542.923 1492.028l1.616.808"/><path data-name="線 121936" d="M542.923 1493.644l1.616-.808"/><path data-name="線 121937" d="M533.642 1499.3l-1.201.808"/><path data-name="線 121938" d="M532.441 1500.108v-2.009"/><path data-name="線 121939" d="M512.657 1492.836h-3.625"/><path data-name="線 121940" d="M512.264 1491.22l-3.232 1.616"/><path data-name="線 121941" d="M550.195 1469.449l-3.232 1.594"/><path data-name="線 121942" d="M533.642 1486.787l3.232 5.241"/><path data-name="線 121943" d="M536.874 1493.644l-.393-.808"/><path data-name="線 121944" d="M538.097 1493.644h-1.223"/><path data-name="線 121945" d="M536.874 1492.028l-.393.808"/><path data-name="線 121946" d="M532.441 1487.595l2.817 5.241"/><path data-name="線 121947" d="M534.865 1493.644l.393-.808"/><path data-name="線 121948" d="M536.481 1492.836h-1.223"/><path data-name="線 121949" d="M536.481 1494.867l.393-1.223"/><path data-name="線 121950" d="M587.318 1519.478h-5.241"/><path data-name="線 121951" d="M587.318 1517.469h-6.049"/><path data-name="線 121952" d="M588.934 1518.276l5.241-19.784"/><path data-name="線 121953" d="M590.965 1540.464l-14.544-14.937"/><path data-name="線 121954" d="M556.244 1520.286l20.178 5.241"/><path data-name="線 121955" d="M592.559 1538.848l-5.241-19.37"/><path data-name="線 121956" d="M587.318 1517.468l5.241-19.784"/><path data-name="線 121957" d="M594.175 1538.455l-5.241-20.178"/><path data-name="線 121958" d="M556.244 1516.661l20.178-5.263"/><path data-name="線 121959" d="M556.659 1518.277l19.763-5.263"/><path data-name="線 121960" d="M592.559 1497.684l-14.522 14.522"/><path data-name="線 121961" d="M590.965 1496.483l-14.544 14.915"/><path data-name="線 121962" d="M592.559 1538.848l-14.522-14.129"/><path data-name="線 121963" d="M556.659 1518.277l19.763 5.241"/><path data-name="線 121964" d="M578.037 1524.719l2.424-4.433"/><path data-name="線 121965" d="M576.421 1523.518l2.424-4.04"/><path data-name="線 121966" d="M594.175 1542.079l-1.616-3.232"/><path data-name="線 121967" d="M592.559 1497.684l1.616-2.817"/><path data-name="線 121968" d="M578.037 1512.206l-1.616-.808"/><path data-name="線 121969" d="M576.421 1513.014v-1.616"/><path data-name="線 121970" d="M587.318 1517.469l1.616.808"/><path data-name="線 121971" d="M587.318 1519.478l1.616-1.201"/><path data-name="線 121972" d="M578.037 1524.719l-1.616.808"/><path data-name="線 121973" d="M576.421 1525.527v-2.009"/><path data-name="線 121974" d="M556.659 1518.277h-3.232"/><path data-name="線 121975" d="M556.244 1516.661l-2.817 1.616"/><path data-name="線 121976" d="M594.175 1494.867l-3.21 1.616"/><path data-name="線 121977" d="M578.037 1512.206l3.232 5.263"/><path data-name="線 121978" d="M581.269 1519.478l-.808-1.201"/><path data-name="線 121979" d="M582.077 1519.478h-.808"/><path data-name="線 121980" d="M581.269 1517.469l-.808.808"/><path data-name="線 121981" d="M576.421 1513.014l3.232 5.263"/><path data-name="線 121982" d="M578.845 1519.478l.808-1.201"/><path data-name="線 121983" d="M580.461 1518.277h-.808"/><path data-name="線 121984" d="M580.461 1520.286l.808-.808"/><path data-name="線 121985" d="M587.318 1468.226h-5.241"/><path data-name="線 121986" d="M587.318 1466.61h-6.049"/><path data-name="線 121987" d="M588.934 1467.418l5.241-19.763"/><path data-name="線 121988" d="M590.965 1489.212l-14.544-14.522"/><path data-name="線 121989" d="M556.244 1469.034l20.178 5.656"/><path data-name="線 121990" d="M592.559 1488.01l-5.241-19.784"/><path data-name="線 121991" d="M587.318 1466.61l5.241-19.37"/><path data-name="線 121992" d="M594.175 1487.596l-5.241-20.178"/><path data-name="線 121993" d="M556.244 1465.802l20.178-5.634"/><path data-name="線 121994" d="M556.659 1467.418l19.763-5.241"/><path data-name="線 121995" d="M592.559 1447.24l-14.522 14.129"/><path data-name="線 121996" d="M590.965 1446.039l-14.544 14.129"/><path data-name="線 121997" d="M592.559 1488.011l-14.522-14.544"/><path data-name="線 121998" d="M556.659 1467.418l19.763 5.241"/><path data-name="線 121999" d="M578.037 1473.467l2.424-4.018"/><path data-name="線 122000" d="M576.421 1472.659l2.424-4.433"/><path data-name="線 122001" d="M594.175 1491.22l-1.616-3.21"/><path data-name="線 122002" d="M592.559 1447.24l1.616-3.232"/><path data-name="線 122003" d="M578.037 1461.369l-1.616-1.201"/><path data-name="線 122004" d="M576.421 1462.177v-2.009"/><path data-name="線 122005" d="M587.318 1466.61l1.616.808"/><path data-name="線 122006" d="M587.318 1468.226l1.616-.808"/><path data-name="線 122007" d="M578.037 1473.467l-1.616 1.223"/><path data-name="線 122008" d="M576.421 1474.69v-2.031"/><path data-name="線 122009" d="M556.659 1467.418h-3.232"/><path data-name="線 122010" d="M556.244 1465.802l-2.817 1.616"/><path data-name="線 122011" d="M594.175 1444.008l-3.21 2.031"/><path data-name="線 122012" d="M578.037 1461.369l3.232 5.241"/><path data-name="線 122013" d="M581.269 1468.226l-.808-.808"/><path data-name="線 122014" d="M582.077 1468.226h-.808"/><path data-name="線 122015" d="M581.269 1466.61l-.808.808"/><path data-name="線 122016" d="M576.421 1462.177l3.232 5.241"/><path data-name="線 122017" d="M578.845 1468.226l.808-.808"/><path data-name="線 122018" d="M580.461 1467.418h-.808"/><path data-name="線 122019" d="M580.461 1469.449l.808-1.223"/><path data-name="線 122020" d="M631.32 1493.644h-4.848"/><path data-name="線 122021" d="M631.32 1492.028h-6.071"/><path data-name="線 122022" d="M632.914 1492.837l5.656-20.178"/><path data-name="線 122023" d="M635.338 1514.63l-14.522-14.522"/><path data-name="線 122024" d="M600.639 1494.867l20.178 5.241"/><path data-name="線 122025" d="M636.561 1513.428l-5.241-19.784"/><path data-name="線 122026" d="M631.32 1492.029l5.241-19.763"/><path data-name="線 122027" d="M638.57 1513.014l-5.656-20.178"/><path data-name="線 122028" d="M600.639 1491.22l20.178-5.634"/><path data-name="線 122029" d="M601.054 1492.836l19.763-5.241"/><path data-name="線 122030" d="M636.561 1472.266l-14.129 14.522"/><path data-name="線 122031" d="M635.338 1471.043l-14.522 14.544"/><path data-name="線 122032" d="M636.561 1513.429l-14.129-14.129"/><path data-name="線 122033" d="M601.054 1492.836l19.763 5.263"/><path data-name="線 122034" d="M622.432 1499.3l2.424-4.433"/><path data-name="線 122035" d="M620.816 1498.099l2.424-4.455"/><path data-name="線 122036" d="M638.57 1516.661l-2.009-3.232"/><path data-name="線 122037" d="M636.561 1472.266l2.009-2.817"/><path data-name="線 122038" d="M622.432 1486.788l-1.616-.808"/><path data-name="線 122039" d="M620.816 1487.596v-1.616"/><path data-name="線 122040" d="M631.32 1492.028l1.594.808"/><path data-name="線 122041" d="M631.32 1493.644l1.594-.808"/><path data-name="線 122042" d="M622.432 1499.3l-1.616.808"/><path data-name="線 122043" d="M620.816 1500.108v-2.009"/><path data-name="線 122044" d="M601.054 1492.836h-3.647"/><path data-name="線 122045" d="M600.639 1491.22l-3.232 1.616"/><path data-name="線 122046" d="M638.57 1469.449l-3.232 1.594"/><path data-name="線 122047" d="M622.432 1486.787l2.817 5.241"/><path data-name="線 122048" d="M625.249 1493.644l-.393-.808"/><path data-name="線 122049" d="M626.472 1493.644h-1.223"/><path data-name="線 122050" d="M625.249 1492.028l-.393.808"/><path data-name="線 122051" d="M620.816 1487.595l2.817 5.241"/><path data-name="線 122052" d="M623.24 1493.644l.393-.808"/><path data-name="線 122053" d="M624.856 1492.836h-1.223"/><path data-name="線 122054" d="M624.856 1494.867l.393-1.223"/><path data-name="線 122055" d="M631.32 1443.201h-4.848"/><path data-name="線 122056" d="M631.32 1441.192h-6.071"/><path data-name="線 122057" d="M632.914 1442.393l5.656-20.178"/><path data-name="線 122058" d="M635.338 1463.793l-14.522-14.522"/><path data-name="線 122059" d="M600.639 1444.008l20.178 5.263"/><path data-name="線 122060" d="M636.561 1462.571l-5.241-19.37"/><path data-name="線 122061" d="M631.32 1441.192l5.241-19.37"/><path data-name="線 122062" d="M638.57 1462.177l-5.656-19.784"/><path data-name="線 122063" d="M600.639 1440.384l20.178-5.241"/><path data-name="線 122064" d="M601.054 1442.393l19.763-5.241"/><path data-name="線 122065" d="M636.561 1421.822l-14.129 14.129"/><path data-name="線 122066" d="M635.338 1420.599l-14.522 14.544"/><path data-name="線 122067" d="M636.561 1462.57l-14.129-14.107"/><path data-name="線 122068" d="M601.054 1442.393l19.763 5.263"/><path data-name="線 122069" d="M622.432 1448.463l2.424-4.455"/><path data-name="線 122070" d="M620.816 1447.656l2.424-4.455"/><path data-name="線 122071" d="M638.57 1465.409l-2.009-2.839"/><path data-name="線 122072" d="M636.561 1421.822l2.009-3.232"/><path data-name="線 122073" d="M622.432 1435.951l-1.616-.808"/><path data-name="線 122074" d="M620.816 1437.152v-2.009"/><path data-name="線 122075" d="M631.32 1441.192l1.594 1.201"/><path data-name="線 122076" d="M631.32 1443.201l1.594-.808"/><path data-name="線 122077" d="M622.432 1448.463l-1.616.808"/><path data-name="線 122078" d="M620.816 1449.271v-1.616"/><path data-name="線 122079" d="M601.054 1442.393h-3.647"/><path data-name="線 122080" d="M600.639 1440.384l-3.232 2.009"/><path data-name="線 122081" d="M638.57 1418.59l-3.232 2.009"/><path data-name="線 122082" d="M622.432 1435.951l2.817 5.241"/><path data-name="線 122083" d="M625.249 1443.201l-.393-.808"/><path data-name="線 122084" d="M626.472 1443.201h-1.223"/><path data-name="線 122085" d="M625.249 1441.192l-.393 1.201"/><path data-name="線 122086" d="M620.816 1437.152l2.817 5.241"/><path data-name="線 122087" d="M623.24 1443.201l.393-.808"/><path data-name="線 122088" d="M624.856 1442.393h-1.223"/><path data-name="線 122089" d="M624.856 1444.009l.393-.808"/><path data-name="線 122090" d="M521.544 1418.59l2.424 4.433"/><path data-name="線 122091" d="M522.746 1416.581l2.839 5.634"/><path data-name="線 122092" d="M525.584 1423.831l20.178-5.241"/><path data-name="線 122093" d="M507.831 1436.759l5.634-20.178"/><path data-name="線 122094" d="M507.831 1396.797l5.634 19.784"/><path data-name="線 122095" d="M509.84 1437.152l14.129-14.129"/><path data-name="線 122096" d="M525.584 1422.215l19.763-5.634"/><path data-name="線 122097" d="M511.063 1438.768l14.522-14.937"/><path data-name="線 122098" d="M511.063 1394.788l14.522 14.937"/><path data-name="線 122099" d="M509.84 1396.403l14.129 14.107"/><path data-name="線 122100" d="M545.347 1416.581l-19.763-5.263"/><path data-name="線 122101" d="M545.762 1414.965l-20.178-5.241"/><path data-name="線 122102" d="M509.84 1437.152l5.241-19.37"/><path data-name="線 122103" d="M509.84 1396.403l5.241 19.37"/><path data-name="線 122104" d="M519.929 1417.782h-4.848"/><path data-name="線 122105" d="M519.929 1415.773h-4.848"/><path data-name="線 122106" d="M507.831 1440.384l2.009-3.232"/><path data-name="線 122107" d="M548.994 1416.581h-3.647"/><path data-name="線 122108" d="M525.584 1411.318v-1.594"/><path data-name="線 122109" d="M523.968 1410.51l1.616-.786"/><path data-name="線 122110" d="M525.584 1423.831v-1.616"/><path data-name="線 122111" d="M523.968 1423.023l1.616.808"/><path data-name="線 122112" d="M515.081 1417.782l-1.616-1.201"/><path data-name="線 122113" d="M515.081 1415.773l-1.616.808"/><path data-name="線 122114" d="M509.84 1396.404l-2.009-3.232"/><path data-name="線 122115" d="M511.063 1394.788l-3.232-1.616"/><path data-name="線 122116" d="M548.994 1416.581l-3.232-1.616"/><path data-name="線 122117" d="M525.585 1411.318l-2.839 5.263"/><path data-name="線 122118" d="M521.151 1417.782l.393-1.201"/><path data-name="線 122119" d="M521.544 1418.59l-.393-.808"/><path data-name="線 122120" d="M522.745 1416.581h-1.201"/><path data-name="線 122121" d="M523.968 1410.51l-2.817 5.263"/><path data-name="線 122122" d="M521.152 1415.773h-1.223"/><path data-name="線 122123" d="M521.151 1415.773l.393.808"/><path data-name="線 122124" d="M521.152 1417.782h-1.223"/><path data-name="線 122125" d="M477.564 1494.867l2.424 4.433"/><path data-name="線 122126" d="M478.372 1492.836l3.21 5.263"/><path data-name="線 122127" d="M481.582 1500.108l20.178-5.241"/><path data-name="線 122128" d="M463.829 1513.014l5.263-20.178"/><path data-name="線 122129" d="M463.829 1472.659l5.263 20.178"/><path data-name="線 122130" d="M465.445 1513.429l14.544-14.129"/><path data-name="線 122131" d="M481.582 1498.099l19.784-5.263"/><path data-name="線 122132" d="M466.668 1514.63l14.915-14.522"/><path data-name="線 122133" d="M466.668 1471.043l14.915 14.544"/><path data-name="線 122134" d="M465.445 1472.266l14.544 14.522"/><path data-name="線 122135" d="M501.366 1492.836l-19.784-5.241"/><path data-name="線 122136" d="M501.76 1491.22l-20.178-5.634"/><path data-name="線 122137" d="M465.445 1513.428l5.263-19.784"/><path data-name="線 122138" d="M465.445 1472.266l5.263 19.763"/><path data-name="線 122139" d="M475.949 1493.644h-5.241"/><path data-name="線 122140" d="M475.949 1492.028h-5.241"/><path data-name="線 122141" d="M463.829 1516.661l1.616-3.232"/><path data-name="線 122142" d="M504.599 1492.836h-3.232"/><path data-name="線 122143" d="M481.582 1487.596v-1.616"/><path data-name="線 122144" d="M479.988 1486.788l1.594-.808"/><path data-name="線 122145" d="M481.582 1500.108v-2.009"/><path data-name="線 122146" d="M479.988 1499.3l1.594.808"/><path data-name="線 122147" d="M470.708 1493.644l-1.616-.808"/><path data-name="線 122148" d="M470.708 1492.028l-1.616.808"/><path data-name="線 122149" d="M465.445 1472.266l-1.616-2.817"/><path data-name="線 122150" d="M466.668 1471.043l-2.839-1.594"/><path data-name="線 122151" d="M504.599 1492.836l-2.839-1.616"/><path data-name="線 122152" d="M481.582 1487.595l-3.21 5.241"/><path data-name="線 122153" d="M476.756 1493.644l.808-.808"/><path data-name="線 122154" d="M477.564 1494.867l-.808-1.223"/><path data-name="線 122155" d="M478.372 1492.836h-.808"/><path data-name="線 122156" d="M479.988 1486.787l-3.232 5.241"/><path data-name="線 122157" d="M476.756 1492.028h-.808"/><path data-name="線 122158" d="M476.756 1492.028l.808.808"/><path data-name="線 122159" d="M476.756 1493.644h-.808"/></g></g></svg>