<svg xmlns="http://www.w3.org/2000/svg" width="200" height="230"><defs><clipPath id="a"><path data-name="長方形 180" transform="translate(450 1327)" fill="#ccc" d="M0 0h200v230H0z"/></clipPath></defs><g data-name="マスクグループ 575" transform="translate(-450 -1327)" clip-path="url(#a)"><g data-name="グループ 3443" fill="none" stroke="#c49535" stroke-linecap="round" stroke-linejoin="round" stroke-width="1.324"><path data-name="線 117095" d="M638.056 1544.936H503.11"/><path data-name="線 117096" d="M503.11 1544.936h-41.585"/><path data-name="線 117097" d="M450.936 1555.944v-227.888"/><path data-name="線 117098" d="M649.064 1555.944H450.936"/><path data-name="線 117099" d="M638.056 1338.645l11.008-10.589"/><path data-name="線 117100" d="M638.056 1544.936l11.008 11.008"/><path data-name="線 117101" d="M461.525 1544.936l-10.589 11.008"/><path data-name="線 117102" d="M450.936 1328.056l10.589 10.589"/><path data-name="線 117103" d="M503.529 1390.84l-42.004-24.465"/><path data-name="線 117104" d="M497.418 1384.73l-35.893-20.803"/><path data-name="線 117105" d="M503.11 1338.645l-41.585 24.068"/><path data-name="線 117106" d="M503.11 1441.801l-41.585-23.649"/><path data-name="線 117107" d="M497.418 1436.506l-35.893-20.803"/><path data-name="線 117108" d="M503.11 1390.422l-41.585 24.068"/><path data-name="線 117109" d="M504.345 1493.975l-42.82-24.443"/><path data-name="線 117110" d="M506.375 1492.762l-44.85-25.679"/><path data-name="線 117111" d="M503.11 1441.801l-41.585 24.046"/><path data-name="線 117112" d="M503.11 1544.935l-41.585-23.627"/><path data-name="線 117113" d="M507.61 1544.936l-46.085-26.076"/><path data-name="線 117114" d="M503.11 1493.578l-41.585 23.649"/><path data-name="線 117115" d="M638.055 1521.308l-41.165 23.627"/><path data-name="線 117116" d="M595.655 1495.608l42.401 24.465"/><path data-name="線 117117" d="M596.89 1493.578l41.165 23.649"/><path data-name="線 117118" d="M638.055 1469.532l-41.165 24.046"/><path data-name="線 117119" d="M638.056 1468.296l-45.644-26.495"/><path data-name="線 117120" d="M638.055 1465.847l-41.165-24.046"/><path data-name="線 117121" d="M638.055 1366.375l-41.165 24.046"/><path data-name="線 117122" d="M638.056 1365.162l-45.644-26.517"/><path data-name="線 117123" d="M638.055 1362.713l-41.165-24.068"/><path data-name="線 117124" d="M638.056 1338.645H461.525"/><path data-name="線 117125" d="M548.775 1414.49l1.235.397"/><path data-name="線 117126" d="M507.61 1390.422l34.658 19.987"/><path data-name="線 117127" d="M587.095 1436.507l-37.084-21.62"/><path data-name="線 117128" d="M596.89 1441.801l-3.265-1.632"/><path data-name="線 117129" d="M638.056 1533.927v-195.282"/><path data-name="線 117130" d="M461.525 1535.163v-196.518"/><path data-name="線 117131" d="M649.064 1328.056H450.936"/><path data-name="線 117132" d="M507.61 1441.801l-3.265-1.632"/><path data-name="線 117133" d="M558.571 1471.561l-8.56-4.897"/><path data-name="線 117134" d="M595.655 1492.762l-32.606-18.752"/><path data-name="線 117135" d="M542.268 1462.185l-34.658-20.384"/><path data-name="線 117136" d="M550.01 1466.664l-1.235-.816"/><path data-name="線 117137" d="M596.89 1390.422l41.165 24.068"/><path data-name="線 117138" d="M468.055 1375.354l4.478-2.449"/><path data-name="線 117139" d="M466.422 1376.568l-4.897 2.449"/><path data-name="線 117140" d="M506.375 1389.605l-2.03-1.213"/><path data-name="線 117141" d="M492.101 1396.555v-5.317"/><path data-name="線 117142" d="M466.422 1404.298l-4.897-2.449"/><path data-name="線 117143" d="M472.533 1407.96l-4.478-2.846"/><path data-name="線 117144" d="M587.095 1384.73l6.53 3.662"/><path data-name="線 117145" d="M558.57 1368.427l4.478 2.427"/><path data-name="線 117146" d="M563.048 1365.559l-1.632-.816"/><path data-name="線 117147" d="M563.048 1363.53l-1.632 1.213"/><path data-name="線 117148" d="M563.049 1363.53v-5.295"/><path data-name="線 117149" d="M588.728 1350.47l4.897 2.868"/><path data-name="線 117150" d="M587.095 1349.653l1.632-.816"/><path data-name="線 117151" d="M588.728 1350.469v-1.632"/><path data-name="線 117152" d="M587.095 1379.413l1.632 1.235"/><path data-name="線 117153" d="M588.728 1380.649v-2.03"/><path data-name="線 117154" d="M563.049 1370.854v-5.295"/><path data-name="線 117155" d="M578.955 1363.53h-15.906"/><path data-name="線 117156" d="M578.955 1365.559h-15.906"/><path data-name="線 117157" d="M587.095 1349.653l-8.14 13.876"/><path data-name="線 117158" d="M588.727 1350.47l-8.14 14.273"/><path data-name="線 117159" d="M588.727 1378.619l-8.14-13.876"/><path data-name="線 117160" d="M587.095 1379.413l-8.14-13.854"/><path data-name="線 117161" d="M587.095 1349.654l-4.478-2.427"/><path data-name="線 117162" d="M587.095 1379.413l-4.478 2.868"/><path data-name="線 117163" d="M593.625 1375.751l-4.897 2.868"/><path data-name="線 117164" d="M593.625 1381.046l-6.53 3.684"/><path data-name="線 117165" d="M590.36 1346.41l3.265 2.03"/><path data-name="線 117166" d="M590.36 1346.411l-3.265-2.052"/><path data-name="線 117167" d="M558.57 1364.743v-4.081"/><path data-name="線 117168" d="M558.57 1368.427v-3.684"/><path data-name="線 117169" d="M542.268 1410.409l6.508 4.081"/><path data-name="線 117170" d="M514.118 1394.106l4.081 2.449"/><path data-name="線 117171" d="M518.199 1391.238l-1.632-.816"/><path data-name="線 117172" d="M518.199 1389.605l-1.632.816"/><path data-name="線 117173" d="M518.199 1389.606v-5.692"/><path data-name="線 117174" d="M544.297 1376.568l4.478 2.449"/><path data-name="線 117175" d="M542.665 1375.354l1.632-.816"/><path data-name="線 117176" d="M544.297 1376.568v-2.03"/><path data-name="線 117177" d="M542.665 1405.114l1.632 1.213"/><path data-name="線 117178" d="M544.297 1406.328v-2.03"/><path data-name="線 117179" d="M518.199 1396.555v-5.317"/><path data-name="線 117180" d="M534.502 1389.605h-16.303"/><path data-name="線 117181" d="M534.502 1391.238h-16.303"/><path data-name="線 117182" d="M542.664 1375.354l-8.162 14.251"/><path data-name="線 117183" d="M544.297 1376.568l-8.162 13.854"/><path data-name="線 117184" d="M544.297 1404.298l-8.162-13.876"/><path data-name="線 117185" d="M542.664 1405.114l-8.162-13.876"/><path data-name="線 117186" d="M542.664 1375.354l-4.897-2.449"/><path data-name="線 117187" d="M542.664 1405.114l-4.897 2.846"/><path data-name="線 117188" d="M548.775 1401.849l-4.478 2.449"/><path data-name="線 117189" d="M548.776 1406.747l-6.508 3.662"/><path data-name="線 117190" d="M545.51 1372.089l3.265 2.03"/><path data-name="線 117191" d="M545.511 1372.089l-3.243-1.632"/><path data-name="線 117192" d="M514.118 1390.422v-3.662"/><path data-name="線 117193" d="M514.118 1394.106v-3.684"/><path data-name="線 117194" d="M587.095 1436.507l6.53 3.662"/><path data-name="線 117195" d="M563.048 1416.939l-1.632-.816"/><path data-name="線 117196" d="M563.048 1415.306l-1.632.816"/><path data-name="線 117197" d="M563.049 1415.307v-5.317"/><path data-name="線 117198" d="M588.728 1402.246l4.897 2.449"/><path data-name="線 117199" d="M587.095 1401.43l1.632-1.213"/><path data-name="線 117200" d="M588.728 1402.247v-2.03"/><path data-name="線 117201" d="M587.095 1431.19l1.632.816"/><path data-name="線 117202" d="M588.728 1432.007v-2.03"/><path data-name="線 117203" d="M563.049 1422.631v-5.692"/><path data-name="線 117204" d="M578.955 1415.306h-15.906"/><path data-name="線 117205" d="M578.955 1416.939h-15.906"/><path data-name="線 117206" d="M587.095 1401.43l-8.14 13.876"/><path data-name="線 117207" d="M588.727 1402.246l-8.14 13.876"/><path data-name="線 117208" d="M588.727 1429.977l-8.14-13.854"/><path data-name="線 117209" d="M587.095 1431.19l-8.14-14.251"/><path data-name="線 117210" d="M587.095 1401.43l-4.478-2.846"/><path data-name="線 117211" d="M587.095 1431.19l-4.478 2.449"/><path data-name="線 117212" d="M593.625 1427.528l-4.897 2.449"/><path data-name="線 117213" d="M593.625 1432.425l-6.53 4.081"/><path data-name="線 117214" d="M590.36 1397.768l3.265 2.03"/><path data-name="線 117215" d="M590.36 1397.767l-3.265-1.632"/><path data-name="線 117216" d="M558.57 1416.122v-3.684"/><path data-name="線 117217" d="M558.57 1419.785v-3.662"/><path data-name="線 117218" d="M631.548 1410.409l6.508 4.081"/><path data-name="線 117219" d="M603.42 1394.106l4.059 2.449"/><path data-name="線 117220" d="M607.479 1391.238l-1.632-.816"/><path data-name="線 117221" d="M607.479 1389.605l-1.632.816"/><path data-name="線 117222" d="M607.479 1389.606v-5.692"/><path data-name="線 117223" d="M633.577 1376.568l4.478 2.449"/><path data-name="線 117224" d="M631.945 1375.354l1.632-.816"/><path data-name="線 117225" d="M633.577 1376.568v-2.03"/><path data-name="線 117226" d="M631.945 1405.114l1.632 1.213"/><path data-name="線 117227" d="M633.577 1406.328v-2.03"/><path data-name="線 117228" d="M607.479 1396.555v-5.317"/><path data-name="線 117229" d="M623.804 1389.605h-16.325"/><path data-name="線 117230" d="M623.804 1391.238h-16.325"/><path data-name="線 117231" d="M631.944 1375.354l-8.14 14.251"/><path data-name="線 117232" d="M633.577 1376.568l-8.162 13.854"/><path data-name="線 117233" d="M633.577 1404.298l-8.162-13.876"/><path data-name="線 117234" d="M631.944 1405.114l-8.14-13.876"/><path data-name="線 117235" d="M631.944 1375.354l-4.897-2.449"/><path data-name="線 117236" d="M631.944 1405.114l-4.897 2.846"/><path data-name="線 117237" d="M638.055 1401.849l-4.478 2.449"/><path data-name="線 117238" d="M638.056 1406.747l-6.508 3.662"/><path data-name="線 117239" d="M634.791 1372.089l3.265 2.03"/><path data-name="線 117240" d="M634.791 1372.089l-3.243-1.632"/><path data-name="線 117241" d="M603.42 1390.422v-3.662"/><path data-name="線 117242" d="M603.42 1394.106v-3.684"/><path data-name="線 117243" d="M631.548 1462.186l6.508 3.662"/><path data-name="線 117244" d="M603.42 1445.883l4.059 2.449"/><path data-name="線 117245" d="M607.479 1443.014l-1.632-1.213"/><path data-name="線 117246" d="M607.479 1440.985l-1.632.816"/><path data-name="線 117247" d="M607.479 1440.985v-5.295"/><path data-name="線 117248" d="M633.577 1427.947l4.478 2.846"/><path data-name="線 117249" d="M631.945 1427.131l1.632-.816"/><path data-name="線 117250" d="M633.577 1427.947v-1.632"/><path data-name="線 117251" d="M631.945 1456.891l1.632.816"/><path data-name="線 117252" d="M633.577 1457.707v-1.632"/><path data-name="線 117253" d="M607.479 1448.332v-5.317"/><path data-name="線 117254" d="M623.804 1440.985h-16.325"/><path data-name="線 117255" d="M623.804 1443.015h-16.325"/><path data-name="線 117256" d="M631.944 1427.131l-8.14 13.854"/><path data-name="線 117257" d="M633.577 1427.947l-8.162 13.854"/><path data-name="線 117258" d="M633.577 1456.074l-8.162-14.273"/><path data-name="線 117259" d="M631.944 1456.891l-8.14-13.876"/><path data-name="線 117260" d="M631.944 1427.131l-4.897-2.868"/><path data-name="線 117261" d="M631.944 1456.891l-4.897 2.846"/><path data-name="線 117262" d="M638.055 1453.207l-4.478 2.868"/><path data-name="線 117263" d="M638.056 1458.104l-6.508 4.081"/><path data-name="線 117264" d="M634.791 1423.866l3.265 1.632"/><path data-name="線 117265" d="M634.791 1423.866l-3.243-2.052"/><path data-name="線 117266" d="M603.42 1441.801v-3.662"/><path data-name="線 117267" d="M603.42 1445.882v-4.081"/><path data-name="線 117268" d="M542.268 1462.186l6.508 3.662"/><path data-name="線 117269" d="M514.118 1445.883l4.081 2.449"/><path data-name="線 117270" d="M518.199 1443.014l-1.632-1.213"/><path data-name="線 117271" d="M518.199 1440.985l-1.632.816"/><path data-name="線 117272" d="M518.199 1440.985v-5.295"/><path data-name="線 117273" d="M544.297 1427.947l4.478 2.846"/><path data-name="線 117274" d="M542.665 1427.131l1.632-.816"/><path data-name="線 117275" d="M544.297 1427.947v-1.632"/><path data-name="線 117276" d="M542.665 1456.891l1.632.816"/><path data-name="線 117277" d="M544.297 1457.707v-1.632"/><path data-name="線 117278" d="M518.199 1448.332v-5.317"/><path data-name="線 117279" d="M534.502 1440.985h-16.303"/><path data-name="線 117280" d="M534.502 1443.015h-16.303"/><path data-name="線 117281" d="M542.664 1427.131l-8.162 13.854"/><path data-name="線 117282" d="M544.297 1427.947l-8.162 13.854"/><path data-name="線 117283" d="M544.297 1456.074l-8.162-14.273"/><path data-name="線 117284" d="M542.664 1456.891l-8.162-13.876"/><path data-name="線 117285" d="M542.664 1427.131l-4.897-2.868"/><path data-name="線 117286" d="M542.664 1456.891l-4.897 2.846"/><path data-name="線 117287" d="M548.775 1453.207l-4.478 2.868"/><path data-name="線 117288" d="M548.776 1458.104l-6.508 4.081"/><path data-name="線 117289" d="M545.51 1423.866l3.265 1.632"/><path data-name="線 117290" d="M545.511 1423.866l-3.243-2.052"/><path data-name="線 117291" d="M514.118 1441.801v-3.662"/><path data-name="線 117292" d="M514.118 1445.882v-4.081"/><path data-name="線 117293" d="M587.095 1487.864l6.53 3.662"/><path data-name="線 117294" d="M558.57 1471.561l4.478 2.449"/><path data-name="線 117295" d="M563.048 1468.715l-1.632-.816"/><path data-name="線 117296" d="M563.048 1466.664l-1.632 1.235"/><path data-name="線 117297" d="M563.049 1466.664v-5.295"/><path data-name="線 117298" d="M588.728 1453.626l4.897 2.846"/><path data-name="線 117299" d="M587.095 1452.809l1.632-.816"/><path data-name="線 117300" d="M588.728 1453.625v-1.632"/><path data-name="線 117301" d="M587.095 1482.57l1.632.816"/><path data-name="線 117302" d="M588.728 1483.385v-1.632"/><path data-name="線 117303" d="M563.049 1474.011v-5.295"/><path data-name="線 117304" d="M578.955 1466.664h-15.906"/><path data-name="線 117305" d="M578.955 1468.716h-15.906"/><path data-name="線 117306" d="M587.095 1452.81l-8.14 13.854"/><path data-name="線 117307" d="M588.727 1453.626l-8.14 14.273"/><path data-name="線 117308" d="M588.727 1481.753l-8.14-13.854"/><path data-name="線 117309" d="M587.095 1482.57l-8.14-13.854"/><path data-name="線 117310" d="M587.095 1452.81l-4.478-2.449"/><path data-name="線 117311" d="M587.095 1482.57l-4.478 2.846"/><path data-name="線 117312" d="M593.625 1478.908l-4.897 2.846"/><path data-name="線 117313" d="M593.625 1484.202l-6.53 3.662"/><path data-name="線 117314" d="M590.36 1449.545l3.265 2.03"/><path data-name="線 117315" d="M590.36 1449.545l-3.265-2.03"/><path data-name="線 117316" d="M558.57 1467.899v-4.081"/><path data-name="線 117317" d="M558.57 1471.561v-3.662"/><path data-name="線 117318" d="M631.548 1513.543l6.508 3.684"/><path data-name="線 117319" d="M603.42 1497.24l4.059 2.449"/><path data-name="線 117320" d="M607.479 1494.394l-1.632-.816"/><path data-name="線 117321" d="M607.479 1492.762l-1.632.816"/><path data-name="線 117322" d="M607.479 1492.762v-5.714"/><path data-name="線 117323" d="M633.577 1479.724l4.478 2.427"/><path data-name="線 117324" d="M631.945 1478.488l1.632-.816"/><path data-name="線 117325" d="M633.577 1479.724v-2.052"/><path data-name="線 117326" d="M631.945 1508.248l1.632 1.235"/><path data-name="線 117327" d="M633.577 1509.484v-2.052"/><path data-name="線 117328" d="M607.479 1499.689v-5.295"/><path data-name="線 117329" d="M623.804 1492.762h-16.325"/><path data-name="線 117330" d="M623.804 1494.394h-16.325"/><path data-name="線 117331" d="M631.944 1478.488l-8.14 14.273"/><path data-name="線 117332" d="M633.577 1479.724l-8.162 13.854"/><path data-name="線 117333" d="M633.577 1507.432l-8.162-13.854"/><path data-name="線 117334" d="M631.944 1508.248l-8.14-13.854"/><path data-name="線 117335" d="M631.944 1478.489l-4.897-2.449"/><path data-name="線 117336" d="M631.944 1508.248l-4.897 2.868"/><path data-name="線 117337" d="M638.055 1504.983l-4.478 2.449"/><path data-name="線 117338" d="M638.056 1509.881l-6.508 3.662"/><path data-name="線 117339" d="M634.791 1475.223l3.265 2.052"/><path data-name="線 117340" d="M634.791 1475.223l-3.243-1.632"/><path data-name="線 117341" d="M603.42 1493.578v-3.662"/><path data-name="線 117342" d="M603.42 1497.24v-3.662"/><path data-name="線 117343" d="M587.095 1539.244l6.53 4.059"/><path data-name="線 117344" d="M558.57 1522.919l4.478 2.868"/><path data-name="線 117345" d="M563.048 1520.073l-1.632-.816"/><path data-name="線 117346" d="M563.048 1518.441l-1.632.816"/><path data-name="線 117347" d="M563.049 1518.441v-5.295"/><path data-name="線 117348" d="M588.728 1505.403l4.897 2.449"/><path data-name="線 117349" d="M587.095 1504.586l1.632-1.235"/><path data-name="線 117350" d="M588.728 1505.403v-2.052"/><path data-name="線 117351" d="M587.095 1534.346l1.632.816"/><path data-name="線 117352" d="M588.728 1535.163v-2.052"/><path data-name="線 117353" d="M563.049 1525.787v-5.714"/><path data-name="線 117354" d="M578.955 1518.441h-15.906"/><path data-name="線 117355" d="M578.955 1520.073h-15.906"/><path data-name="線 117356" d="M587.095 1504.586l-8.14 13.854"/><path data-name="線 117357" d="M588.727 1505.403l-8.14 13.854"/><path data-name="線 117358" d="M588.727 1533.111l-8.14-13.854"/><path data-name="線 117359" d="M587.095 1534.346l-8.14-14.273"/><path data-name="線 117360" d="M587.095 1504.586l-4.478-2.868"/><path data-name="線 117361" d="M587.095 1534.346l-4.478 2.449"/><path data-name="線 117362" d="M593.625 1530.684l-4.897 2.427"/><path data-name="線 117363" d="M593.625 1535.56l-6.53 3.684"/><path data-name="線 117364" d="M590.36 1500.924l3.265 2.03"/><path data-name="線 117365" d="M590.36 1500.924l-3.265-1.632"/><path data-name="線 117366" d="M558.57 1519.257v-3.662"/><path data-name="線 117367" d="M558.57 1522.919v-3.662"/><path data-name="線 117368" d="M542.268 1513.543l6.508 3.684"/><path data-name="線 117369" d="M514.118 1497.24l4.081 2.449"/><path data-name="線 117370" d="M518.199 1494.394l-1.632-.816"/><path data-name="線 117371" d="M518.199 1492.762l-1.632.816"/><path data-name="線 117372" d="M518.199 1492.762v-5.714"/><path data-name="線 117373" d="M544.297 1479.724l4.478 2.427"/><path data-name="線 117374" d="M542.665 1478.488l1.632-.816"/><path data-name="線 117375" d="M544.297 1479.724v-2.052"/><path data-name="線 117376" d="M542.665 1508.248l1.632 1.235"/><path data-name="線 117377" d="M544.297 1509.484v-2.052"/><path data-name="線 117378" d="M518.199 1499.689v-5.295"/><path data-name="線 117379" d="M534.502 1492.762h-16.303"/><path data-name="線 117380" d="M534.502 1494.394h-16.303"/><path data-name="線 117381" d="M542.664 1478.488l-8.162 14.273"/><path data-name="線 117382" d="M544.297 1479.724l-8.162 13.854"/><path data-name="線 117383" d="M544.297 1507.432l-8.162-13.854"/><path data-name="線 117384" d="M542.664 1508.248l-8.162-13.854"/><path data-name="線 117385" d="M542.664 1478.489l-4.897-2.449"/><path data-name="線 117386" d="M542.664 1508.248l-4.897 2.868"/><path data-name="線 117387" d="M548.775 1504.983l-4.478 2.449"/><path data-name="線 117388" d="M548.776 1509.881l-6.508 3.662"/><path data-name="線 117389" d="M545.51 1475.223l3.265 2.052"/><path data-name="線 117390" d="M545.511 1475.223l-3.243-1.632"/><path data-name="線 117391" d="M514.118 1493.578v-3.662"/><path data-name="線 117392" d="M514.118 1497.24v-3.662"/><path data-name="線 117393" d="M497.418 1539.244l6.927 4.059"/><path data-name="線 117394" d="M469.29 1522.919l4.478 2.868"/><path data-name="線 117395" d="M473.768 1520.073l-1.632-.816"/><path data-name="線 117396" d="M473.768 1518.441l-1.632.816"/><path data-name="線 117397" d="M473.769 1518.441v-5.295"/><path data-name="線 117398" d="M499.448 1505.403l4.897 2.449"/><path data-name="線 117399" d="M497.815 1504.586l1.632-1.235"/><path data-name="線 117400" d="M499.448 1505.403v-2.052"/><path data-name="線 117401" d="M497.815 1534.346l1.632.816"/><path data-name="線 117402" d="M499.448 1535.163v-2.052"/><path data-name="線 117403" d="M473.769 1525.787v-5.714"/><path data-name="線 117404" d="M489.675 1518.441h-15.906"/><path data-name="線 117405" d="M489.675 1520.073h-15.906"/><path data-name="線 117406" d="M497.815 1504.586l-8.14 13.854"/><path data-name="線 117407" d="M499.447 1505.403l-8.14 13.854"/><path data-name="線 117408" d="M499.447 1533.111l-8.14-13.854"/><path data-name="線 117409" d="M497.815 1534.346l-8.14-14.273"/><path data-name="線 117410" d="M497.815 1504.586l-4.478-2.868"/><path data-name="線 117411" d="M497.815 1534.346l-4.478 2.449"/><path data-name="線 117412" d="M504.345 1530.684l-4.897 2.427"/><path data-name="線 117413" d="M504.345 1535.56l-6.927 3.684"/><path data-name="線 117414" d="M501.08 1500.924l3.265 2.03"/><path data-name="線 117415" d="M501.08 1500.924l-3.662-1.632"/><path data-name="線 117416" d="M469.29 1519.257v-3.662"/><path data-name="線 117417" d="M469.29 1522.919v-3.662"/><path data-name="線 117418" d="M497.418 1487.864l6.927 3.662"/><path data-name="線 117419" d="M469.29 1471.561l4.478 2.449"/><path data-name="線 117420" d="M473.768 1468.715l-1.632-.816"/><path data-name="線 117421" d="M473.768 1466.664l-1.632 1.235"/><path data-name="線 117422" d="M473.769 1466.664v-5.295"/><path data-name="線 117423" d="M499.448 1453.626l4.897 2.846"/><path data-name="線 117424" d="M497.815 1452.809l1.632-.816"/><path data-name="線 117425" d="M499.448 1453.625v-1.632"/><path data-name="線 117426" d="M497.815 1482.57l1.632.816"/><path data-name="線 117427" d="M499.448 1483.385v-1.632"/><path data-name="線 117428" d="M473.769 1474.011v-5.295"/><path data-name="線 117429" d="M489.675 1466.664h-15.906"/><path data-name="線 117430" d="M489.675 1468.716h-15.906"/><path data-name="線 117431" d="M497.815 1452.81l-8.14 13.854"/><path data-name="線 117432" d="M499.447 1453.626l-8.14 14.273"/><path data-name="線 117433" d="M499.447 1481.753l-8.14-13.854"/><path data-name="線 117434" d="M497.815 1482.57l-8.14-13.854"/><path data-name="線 117435" d="M497.815 1452.81l-4.478-2.449"/><path data-name="線 117436" d="M497.815 1482.57l-4.478 2.846"/><path data-name="線 117437" d="M504.345 1478.908l-4.897 2.846"/><path data-name="線 117438" d="M504.345 1484.202l-6.927 3.662"/><path data-name="線 117439" d="M501.08 1449.545l3.265 2.03"/><path data-name="線 117440" d="M501.08 1449.545l-3.662-2.03"/><path data-name="線 117441" d="M469.29 1467.899v-4.081"/><path data-name="線 117442" d="M469.29 1471.561v-3.662"/><path data-name="線 117443" d="M497.418 1436.507l6.927 3.662"/><path data-name="線 117444" d="M469.29 1419.785l4.478 2.846"/><path data-name="線 117445" d="M473.768 1416.939l-1.632-.816"/><path data-name="線 117446" d="M473.768 1415.306l-1.632.816"/><path data-name="線 117447" d="M473.769 1415.307v-5.317"/><path data-name="線 117448" d="M499.448 1402.246l4.897 2.449"/><path data-name="線 117449" d="M497.815 1401.43l1.632-1.213"/><path data-name="線 117450" d="M499.448 1402.247v-2.03"/><path data-name="線 117451" d="M497.815 1431.19l1.632.816"/><path data-name="線 117452" d="M499.448 1432.007v-2.03"/><path data-name="線 117453" d="M473.769 1422.631v-5.692"/><path data-name="線 117454" d="M489.675 1415.306h-15.906"/><path data-name="線 117455" d="M489.675 1416.939h-15.906"/><path data-name="線 117456" d="M497.815 1401.43l-8.14 13.876"/><path data-name="線 117457" d="M499.447 1402.246l-8.14 13.876"/><path data-name="線 117458" d="M499.447 1429.977l-8.14-13.854"/><path data-name="線 117459" d="M497.815 1431.19l-8.14-14.251"/><path data-name="線 117460" d="M497.815 1401.43l-4.478-2.846"/><path data-name="線 117461" d="M497.815 1431.19l-4.478 2.449"/><path data-name="線 117462" d="M504.345 1427.528l-4.897 2.449"/><path data-name="線 117463" d="M504.345 1432.425l-6.927 4.081"/><path data-name="線 117464" d="M501.08 1397.768l3.265 2.03"/><path data-name="線 117465" d="M501.08 1397.767l-3.662-1.632"/><path data-name="線 117466" d="M469.29 1416.122v-3.684"/><path data-name="線 117467" d="M469.29 1419.785v-3.662"/><path data-name="線 117468" d="M497.418 1384.73l6.927 3.662"/><path data-name="線 117469" d="M469.29 1368.427l4.478 2.427"/><path data-name="線 117470" d="M473.768 1365.559l-1.632-.816"/><path data-name="線 117471" d="M473.768 1363.53l-1.632 1.213"/><path data-name="線 117472" d="M473.769 1363.53v-5.295"/><path data-name="線 117473" d="M499.448 1350.47l4.897 2.868"/><path data-name="線 117474" d="M497.815 1349.653l1.632-.816"/><path data-name="線 117475" d="M499.448 1350.469v-1.632"/><path data-name="線 117476" d="M497.815 1379.413l1.632 1.235"/><path data-name="線 117477" d="M499.448 1380.649v-2.03"/><path data-name="線 117478" d="M473.769 1370.854v-5.295"/><path data-name="線 117479" d="M489.675 1363.53h-15.906"/><path data-name="線 117480" d="M489.675 1365.559h-15.906"/><path data-name="線 117481" d="M497.815 1349.653l-8.14 13.876"/><path data-name="線 117482" d="M499.447 1350.47l-8.14 14.273"/><path data-name="線 117483" d="M499.447 1378.619l-8.14-13.876"/><path data-name="線 117484" d="M497.815 1379.413l-8.14-13.854"/><path data-name="線 117485" d="M497.815 1349.654l-4.478-2.427"/><path data-name="線 117486" d="M497.815 1379.413l-4.478 2.868"/><path data-name="線 117487" d="M504.345 1375.751l-4.897 2.868"/><path data-name="線 117488" d="M504.345 1381.046l-6.927 3.684"/><path data-name="線 117489" d="M501.08 1346.41l3.265 2.03"/><path data-name="線 117490" d="M501.08 1346.411l-3.662-2.052"/><path data-name="線 117491" d="M469.29 1364.743v-4.081"/><path data-name="線 117492" d="M469.29 1368.427v-3.684"/><path data-name="線 117493" d="M595.655 1388.392v-7.346"/><path data-name="線 117494" d="M595.655 1353.337v-4.897"/><path data-name="線 117495" d="M600.155 1350.469v-1.632"/><path data-name="線 117496" d="M601.787 1349.653l-1.632-.816"/><path data-name="線 117497" d="M601.788 1349.654l4.875-2.427"/><path data-name="線 117498" d="M626.231 1370.854v-5.295"/><path data-name="線 117499" d="M626.231 1363.53l1.632 1.213"/><path data-name="線 117500" d="M626.231 1365.559l1.632-.816"/><path data-name="線 117501" d="M600.155 1380.649v-2.03"/><path data-name="線 117502" d="M601.787 1379.413l-1.632 1.235"/><path data-name="線 117503" d="M600.155 1350.47l-4.5 2.868"/><path data-name="線 117504" d="M601.788 1349.653l8.14 13.876"/><path data-name="線 117505" d="M600.155 1350.47l8.14 14.273"/><path data-name="線 117506" d="M626.231 1363.53h-16.303"/><path data-name="線 117507" d="M626.231 1365.559h-16.303"/><path data-name="線 117508" d="M601.788 1379.413l8.14-13.854"/><path data-name="線 117509" d="M600.155 1378.619l8.14-13.876"/><path data-name="線 117510" d="M626.231 1363.53v-5.295"/><path data-name="線 117511" d="M600.155 1378.619l-4.5-2.868"/><path data-name="線 117512" d="M606.663 1382.281l-4.875-2.868"/><path data-name="線 117513" d="M602.185 1384.73l-6.53-3.684"/><path data-name="線 117514" d="M630.312 1368.427v-3.684"/><path data-name="線 117515" d="M630.312 1364.743v-4.081"/><path data-name="線 117516" d="M598.92 1346.411l3.265-2.052"/><path data-name="線 117517" d="M598.92 1346.41l-3.265 2.03"/><path data-name="線 117518" d="M595.655 1440.168v-7.743"/><path data-name="線 117519" d="M595.655 1404.695v-4.897"/><path data-name="線 117520" d="M600.155 1402.247v-2.03"/><path data-name="線 117521" d="M601.787 1401.43l-1.632-1.213"/><path data-name="線 117522" d="M601.788 1401.43l4.875-2.846"/><path data-name="線 117523" d="M626.231 1422.631v-5.692"/><path data-name="線 117524" d="M626.231 1415.306l1.632.816"/><path data-name="線 117525" d="M626.231 1416.939l1.632-.816"/><path data-name="線 117526" d="M600.155 1432.007v-2.03"/><path data-name="線 117527" d="M601.787 1431.19l-1.632.816"/><path data-name="線 117528" d="M600.155 1402.246l-4.5 2.449"/><path data-name="線 117529" d="M601.788 1401.43l8.14 13.876"/><path data-name="線 117530" d="M600.155 1402.246l8.14 13.876"/><path data-name="線 117531" d="M626.231 1415.306h-16.303"/><path data-name="線 117532" d="M626.231 1416.939h-16.303"/><path data-name="線 117533" d="M601.788 1431.19l8.14-14.251"/><path data-name="線 117534" d="M600.155 1429.977l8.14-13.854"/><path data-name="線 117535" d="M626.231 1415.307v-5.317"/><path data-name="線 117536" d="M600.155 1429.977l-4.5-2.449"/><path data-name="線 117537" d="M606.663 1433.639l-4.875-2.449"/><path data-name="線 117538" d="M602.185 1436.506l-6.53-4.081"/><path data-name="線 117539" d="M630.312 1419.785v-3.662"/><path data-name="線 117540" d="M630.312 1416.122v-3.684"/><path data-name="線 117541" d="M598.92 1397.767l3.265-1.632"/><path data-name="線 117542" d="M598.92 1397.768l-3.265 2.03"/><path data-name="線 117543" d="M506.375 1491.526v-7.324"/><path data-name="線 117544" d="M506.375 1456.471v-4.897"/><path data-name="線 117545" d="M510.875 1453.625v-1.632"/><path data-name="線 117546" d="M512.485 1452.809l-1.61-.816"/><path data-name="線 117547" d="M512.485 1452.81l4.897-2.449"/><path data-name="線 117548" d="M536.951 1474.011v-5.295"/><path data-name="線 117549" d="M536.951 1466.664l1.632 1.235"/><path data-name="線 117550" d="M536.951 1468.715l1.632-.816"/><path data-name="線 117551" d="M510.875 1483.385v-1.632"/><path data-name="線 117552" d="M512.485 1482.57l-1.61.816"/><path data-name="線 117553" d="M510.875 1453.626l-4.5 2.846"/><path data-name="線 117554" d="M512.485 1452.81l8.162 13.854"/><path data-name="線 117555" d="M510.875 1453.626l8.14 14.273"/><path data-name="線 117556" d="M536.951 1466.664h-16.303"/><path data-name="線 117557" d="M536.951 1468.716h-16.303"/><path data-name="線 117558" d="M512.485 1482.57l8.162-13.854"/><path data-name="線 117559" d="M510.875 1481.753l8.14-13.854"/><path data-name="線 117560" d="M536.951 1466.664v-5.295"/><path data-name="線 117561" d="M510.875 1481.754l-4.5-2.846"/><path data-name="線 117562" d="M517.382 1485.416l-4.897-2.846"/><path data-name="線 117563" d="M512.905 1487.864l-6.53-3.662"/><path data-name="線 117564" d="M541.032 1471.561v-3.662"/><path data-name="線 117565" d="M541.032 1467.899v-4.081"/><path data-name="線 117566" d="M509.64 1449.545l3.265-2.03"/><path data-name="線 117567" d="M509.64 1449.545l-3.265 2.03"/><path data-name="線 117568" d="M550.827 1517.227v-7.346"/><path data-name="線 117569" d="M550.827 1482.15v-4.875"/><path data-name="線 117570" d="M555.703 1479.724v-2.052"/><path data-name="線 117571" d="M557.335 1478.488l-1.632-.816"/><path data-name="線 117572" d="M557.335 1478.489l4.5-2.449"/><path data-name="線 117573" d="M581.403 1499.689v-5.295"/><path data-name="線 117574" d="M581.403 1492.762l1.632.816"/><path data-name="線 117575" d="M581.403 1494.394l1.632-.816"/><path data-name="線 117576" d="M555.703 1509.484v-2.052"/><path data-name="線 117577" d="M557.335 1508.248l-1.632 1.235"/><path data-name="線 117578" d="M555.702 1479.724l-4.875 2.427"/><path data-name="線 117579" d="M557.335 1478.488l8.162 14.273"/><path data-name="線 117580" d="M555.703 1479.724l8.162 13.854"/><path data-name="線 117581" d="M581.404 1492.762h-15.906"/><path data-name="線 117582" d="M581.404 1494.394h-15.906"/><path data-name="線 117583" d="M557.335 1508.248l8.162-13.854"/><path data-name="線 117584" d="M555.703 1507.432l8.162-13.854"/><path data-name="線 117585" d="M581.403 1492.762v-5.714"/><path data-name="線 117586" d="M555.702 1507.432l-4.875-2.449"/><path data-name="線 117587" d="M561.835 1511.116l-4.5-2.868"/><path data-name="線 117588" d="M557.335 1513.543l-6.508-3.662"/><path data-name="線 117589" d="M585.882 1497.24v-3.662"/><path data-name="線 117590" d="M585.882 1493.578v-3.662"/><path data-name="線 117591" d="M554.07 1475.223l3.265-1.632"/><path data-name="線 117592" d="M554.07 1475.223l-3.243 2.052"/><path data-name="線 117593" d="M595.655 1491.526v-7.324"/><path data-name="線 117594" d="M595.655 1456.471v-4.897"/><path data-name="線 117595" d="M600.155 1453.625v-1.632"/><path data-name="線 117596" d="M601.787 1452.809l-1.632-.816"/><path data-name="線 117597" d="M601.788 1452.81l4.875-2.449"/><path data-name="線 117598" d="M626.231 1474.011v-5.295"/><path data-name="線 117599" d="M626.231 1466.664l1.632 1.235"/><path data-name="線 117600" d="M626.231 1468.715l1.632-.816"/><path data-name="線 117601" d="M600.155 1483.385v-1.632"/><path data-name="線 117602" d="M601.787 1482.57l-1.632.816"/><path data-name="線 117603" d="M600.155 1453.626l-4.5 2.846"/><path data-name="線 117604" d="M601.788 1452.81l8.14 13.854"/><path data-name="線 117605" d="M600.155 1453.626l8.14 14.273"/><path data-name="線 117606" d="M626.231 1466.664h-16.303"/><path data-name="線 117607" d="M626.231 1468.716h-16.303"/><path data-name="線 117608" d="M601.788 1482.57l8.14-13.854"/><path data-name="線 117609" d="M600.155 1481.753l8.14-13.854"/><path data-name="線 117610" d="M626.231 1466.664v-5.295"/><path data-name="線 117611" d="M600.155 1481.754l-4.5-2.846"/><path data-name="線 117612" d="M606.663 1485.416l-4.875-2.846"/><path data-name="線 117613" d="M602.185 1487.864l-6.53-3.662"/><path data-name="線 117614" d="M630.312 1471.561v-3.662"/><path data-name="線 117615" d="M630.312 1467.899v-4.081"/><path data-name="線 117616" d="M598.92 1449.545l3.265-2.03"/><path data-name="線 117617" d="M598.92 1449.545l-3.265 2.03"/><path data-name="線 117618" d="M595.655 1543.303v-7.743"/><path data-name="線 117619" d="M595.655 1507.851v-4.897"/><path data-name="線 117620" d="M600.155 1505.403v-2.052"/><path data-name="線 117621" d="M601.787 1504.586l-1.632-1.235"/><path data-name="線 117622" d="M601.788 1504.586l4.875-2.868"/><path data-name="線 117623" d="M626.231 1525.787v-5.714"/><path data-name="線 117624" d="M626.231 1518.441l1.632.816"/><path data-name="線 117625" d="M626.231 1520.073l1.632-.816"/><path data-name="線 117626" d="M600.155 1535.163v-2.052"/><path data-name="線 117627" d="M601.787 1534.346l-1.632.816"/><path data-name="線 117628" d="M600.155 1505.403l-4.5 2.449"/><path data-name="線 117629" d="M601.788 1504.586l8.14 13.854"/><path data-name="線 117630" d="M600.155 1505.403l8.14 13.854"/><path data-name="線 117631" d="M626.231 1518.441h-16.303"/><path data-name="線 117632" d="M626.231 1520.073h-16.303"/><path data-name="線 117633" d="M601.788 1534.346l8.14-14.273"/><path data-name="線 117634" d="M600.155 1533.111l8.14-13.854"/><path data-name="線 117635" d="M626.231 1518.441v-5.295"/><path data-name="線 117636" d="M600.155 1533.111l-4.5-2.427"/><path data-name="線 117637" d="M606.663 1536.795l-4.875-2.449"/><path data-name="線 117638" d="M602.185 1539.244l-6.53-3.684"/><path data-name="線 117639" d="M630.312 1522.919v-3.662"/><path data-name="線 117640" d="M630.312 1519.257v-3.662"/><path data-name="線 117641" d="M598.92 1500.924l3.265-1.632"/><path data-name="線 117642" d="M598.92 1500.924l-3.265 2.03"/><path data-name="線 117643" d="M506.375 1543.303v-7.743"/><path data-name="線 117644" d="M506.375 1507.851v-4.897"/><path data-name="線 117645" d="M510.875 1505.403v-2.052"/><path data-name="線 117646" d="M512.485 1504.586l-1.61-1.235"/><path data-name="線 117647" d="M512.485 1504.586l4.897-2.868"/><path data-name="線 117648" d="M536.951 1525.787v-5.714"/><path data-name="線 117649" d="M536.951 1518.441l1.632.816"/><path data-name="線 117650" d="M536.951 1520.073l1.632-.816"/><path data-name="線 117651" d="M510.875 1535.163v-2.052"/><path data-name="線 117652" d="M512.485 1534.346l-1.61.816"/><path data-name="線 117653" d="M510.875 1505.403l-4.5 2.449"/><path data-name="線 117654" d="M512.485 1504.586l8.162 13.854"/><path data-name="線 117655" d="M510.875 1505.403l8.14 13.854"/><path data-name="線 117656" d="M536.951 1518.441h-16.303"/><path data-name="線 117657" d="M536.951 1520.073h-16.303"/><path data-name="線 117658" d="M512.485 1534.346l8.162-14.273"/><path data-name="線 117659" d="M510.875 1533.111l8.14-13.854"/><path data-name="線 117660" d="M536.951 1518.441v-5.295"/><path data-name="線 117661" d="M510.875 1533.111l-4.5-2.427"/><path data-name="線 117662" d="M517.382 1536.795l-4.897-2.449"/><path data-name="線 117663" d="M512.905 1539.244l-6.53-3.684"/><path data-name="線 117664" d="M541.032 1522.919v-3.662"/><path data-name="線 117665" d="M541.032 1519.257v-3.662"/><path data-name="線 117666" d="M509.64 1500.924l3.265-1.632"/><path data-name="線 117667" d="M509.64 1500.924l-3.265 2.03"/><path data-name="線 117668" d="M461.525 1517.227v-7.346"/><path data-name="線 117669" d="M461.525 1482.15v-4.875"/><path data-name="線 117670" d="M466.423 1479.724v-2.052"/><path data-name="線 117671" d="M468.055 1478.488l-1.632-.816"/><path data-name="線 117672" d="M468.055 1478.489l4.478-2.449"/><path data-name="線 117673" d="M492.101 1499.689v-5.295"/><path data-name="線 117674" d="M492.101 1492.762l1.632.816"/><path data-name="線 117675" d="M492.101 1494.394l1.632-.816"/><path data-name="線 117676" d="M466.423 1509.484v-2.052"/><path data-name="線 117677" d="M468.055 1508.248l-1.632 1.235"/><path data-name="線 117678" d="M466.422 1479.724l-4.897 2.427"/><path data-name="線 117679" d="M468.055 1478.488l8.162 14.273"/><path data-name="線 117680" d="M466.423 1479.724l8.162 13.854"/><path data-name="線 117681" d="M492.102 1492.762h-15.884"/><path data-name="線 117682" d="M492.102 1494.394h-15.884"/><path data-name="線 117683" d="M468.055 1508.248l8.162-13.854"/><path data-name="線 117684" d="M466.423 1507.432l8.162-13.854"/><path data-name="線 117685" d="M492.101 1492.762v-5.714"/><path data-name="線 117686" d="M466.422 1507.432l-4.897-2.449"/><path data-name="線 117687" d="M472.533 1511.116l-4.478-2.868"/><path data-name="線 117688" d="M468.055 1513.543l-6.53-3.662"/><path data-name="線 117689" d="M496.602 1497.24v-3.662"/><path data-name="線 117690" d="M496.602 1493.578v-3.662"/><path data-name="線 117691" d="M464.79 1475.223l3.265-1.632"/><path data-name="線 117692" d="M464.79 1475.223l-3.265 2.052"/><path data-name="線 117693" d="M550.827 1465.847v-7.743"/><path data-name="線 117694" d="M550.827 1430.793v-5.295"/><path data-name="線 117695" d="M555.703 1427.947v-1.632"/><path data-name="線 117696" d="M557.335 1427.131l-1.632-.816"/><path data-name="線 117697" d="M557.335 1427.131l4.5-2.868"/><path data-name="線 117698" d="M581.403 1448.332v-5.317"/><path data-name="線 117699" d="M581.403 1440.985l1.632.816"/><path data-name="線 117700" d="M581.403 1443.014l1.632-1.213"/><path data-name="線 117701" d="M555.703 1457.707v-1.632"/><path data-name="線 117702" d="M557.335 1456.891l-1.632.816"/><path data-name="線 117703" d="M555.702 1427.947l-4.875 2.846"/><path data-name="線 117704" d="M557.335 1427.131l8.162 13.854"/><path data-name="線 117705" d="M555.703 1427.947l8.162 13.854"/><path data-name="線 117706" d="M581.404 1440.985h-15.906"/><path data-name="線 117707" d="M581.404 1443.015h-15.906"/><path data-name="線 117708" d="M557.335 1456.891l8.162-13.876"/><path data-name="線 117709" d="M555.703 1456.074l8.162-14.273"/><path data-name="線 117710" d="M581.403 1440.985v-5.295"/><path data-name="線 117711" d="M555.702 1456.075l-4.875-2.868"/><path data-name="線 117712" d="M561.835 1459.737l-4.5-2.846"/><path data-name="線 117713" d="M557.335 1462.185l-6.508-4.081"/><path data-name="線 117714" d="M585.882 1445.882v-4.081"/><path data-name="線 117715" d="M585.882 1441.801v-3.662"/><path data-name="線 117716" d="M554.07 1423.866l3.265-2.052"/><path data-name="線 117717" d="M554.07 1423.866l-3.243 1.632"/><path data-name="線 117718" d="M550.827 1414.49v-7.743"/><path data-name="線 117719" d="M550.827 1379.016v-4.897"/><path data-name="線 117720" d="M555.703 1376.568v-2.03"/><path data-name="線 117721" d="M557.335 1375.354l-1.632-.816"/><path data-name="線 117722" d="M557.335 1375.354l4.5-2.449"/><path data-name="線 117723" d="M581.403 1396.555v-5.317"/><path data-name="線 117724" d="M581.403 1389.605l1.632.816"/><path data-name="線 117725" d="M581.403 1391.238l1.632-.816"/><path data-name="線 117726" d="M555.703 1406.328v-2.03"/><path data-name="線 117727" d="M557.335 1405.114l-1.632 1.213"/><path data-name="線 117728" d="M555.702 1376.568l-4.875 2.449"/><path data-name="線 117729" d="M557.335 1375.354l8.162 14.251"/><path data-name="線 117730" d="M555.703 1376.568l8.162 13.854"/><path data-name="線 117731" d="M581.404 1389.605h-15.906"/><path data-name="線 117732" d="M581.404 1391.238h-15.906"/><path data-name="線 117733" d="M557.335 1405.114l8.162-13.876"/><path data-name="線 117734" d="M555.703 1404.298l8.162-13.876"/><path data-name="線 117735" d="M581.403 1389.606v-5.692"/><path data-name="線 117736" d="M555.702 1404.298l-4.875-2.449"/><path data-name="線 117737" d="M561.835 1407.96l-4.5-2.846"/><path data-name="線 117738" d="M557.335 1410.409l-6.508-3.662"/><path data-name="線 117739" d="M585.882 1394.106v-3.684"/><path data-name="線 117740" d="M585.882 1390.422v-3.662"/><path data-name="線 117741" d="M554.07 1372.089l3.265-1.632"/><path data-name="線 117742" d="M554.07 1372.089l-3.243 2.03"/><path data-name="線 117743" d="M506.375 1388.392v-7.346"/><path data-name="線 117744" d="M506.375 1353.337v-4.897"/><path data-name="線 117745" d="M510.875 1350.469v-1.632"/><path data-name="線 117746" d="M512.485 1349.653l-1.61-.816"/><path data-name="線 117747" d="M512.485 1349.654l4.897-2.427"/><path data-name="線 117748" d="M536.951 1370.854v-5.295"/><path data-name="線 117749" d="M536.951 1363.53l1.632 1.213"/><path data-name="線 117750" d="M536.951 1365.559l1.632-.816"/><path data-name="線 117751" d="M510.875 1380.649v-2.03"/><path data-name="線 117752" d="M512.485 1379.413l-1.61 1.235"/><path data-name="線 117753" d="M510.875 1350.47l-4.5 2.868"/><path data-name="線 117754" d="M512.485 1349.653l8.162 13.876"/><path data-name="線 117755" d="M510.875 1350.47l8.14 14.273"/><path data-name="線 117756" d="M536.951 1363.53h-16.303"/><path data-name="線 117757" d="M536.951 1365.559h-16.303"/><path data-name="線 117758" d="M512.485 1379.413l8.162-13.854"/><path data-name="線 117759" d="M510.875 1378.619l8.14-13.876"/><path data-name="線 117760" d="M536.951 1363.53v-5.295"/><path data-name="線 117761" d="M510.875 1378.619l-4.5-2.868"/><path data-name="線 117762" d="M517.382 1382.281l-4.897-2.868"/><path data-name="線 117763" d="M512.905 1384.73l-6.53-3.684"/><path data-name="線 117764" d="M541.032 1368.427v-3.684"/><path data-name="線 117765" d="M541.032 1364.743v-4.081"/><path data-name="線 117766" d="M509.64 1346.411l3.265-2.052"/><path data-name="線 117767" d="M509.64 1346.41l-3.265 2.03"/><path data-name="線 117768" d="M506.375 1440.168v-7.743"/><path data-name="線 117769" d="M506.375 1404.695v-4.897"/><path data-name="線 117770" d="M510.875 1402.247v-2.03"/><path data-name="線 117771" d="M512.485 1401.43l-1.61-1.213"/><path data-name="線 117772" d="M512.485 1401.43l4.897-2.846"/><path data-name="線 117773" d="M536.951 1422.631v-5.692"/><path data-name="線 117774" d="M536.951 1415.306l1.632.816"/><path data-name="線 117775" d="M536.951 1416.939l1.632-.816"/><path data-name="線 117776" d="M510.875 1432.007v-2.03"/><path data-name="線 117777" d="M512.485 1431.19l-1.61.816"/><path data-name="線 117778" d="M510.875 1402.246l-4.5 2.449"/><path data-name="線 117779" d="M512.485 1401.43l8.162 13.876"/><path data-name="線 117780" d="M510.875 1402.246l8.14 13.876"/><path data-name="線 117781" d="M536.951 1415.306h-16.303"/><path data-name="線 117782" d="M536.951 1416.939h-16.303"/><path data-name="線 117783" d="M512.485 1431.19l8.162-14.251"/><path data-name="線 117784" d="M510.875 1429.977l8.14-13.854"/><path data-name="線 117785" d="M536.951 1415.307v-5.317"/><path data-name="線 117786" d="M510.875 1429.977l-4.5-2.449"/><path data-name="線 117787" d="M517.382 1433.639l-4.897-2.449"/><path data-name="線 117788" d="M512.905 1436.506l-6.53-4.081"/><path data-name="線 117789" d="M541.032 1419.785v-3.662"/><path data-name="線 117790" d="M541.032 1416.122v-3.684"/><path data-name="線 117791" d="M509.64 1397.767l3.265-1.632"/><path data-name="線 117792" d="M509.64 1397.768l-3.265 2.03"/><path data-name="線 117793" d="M461.525 1465.847v-7.743"/><path data-name="線 117794" d="M461.525 1430.793v-5.295"/><path data-name="線 117795" d="M466.423 1427.947v-1.632"/><path data-name="線 117796" d="M468.055 1427.131l-1.632-.816"/><path data-name="線 117797" d="M468.055 1427.131l4.478-2.868"/><path data-name="線 117798" d="M492.101 1448.332v-5.317"/><path data-name="線 117799" d="M492.101 1440.985l1.632.816"/><path data-name="線 117800" d="M492.101 1443.014l1.632-1.213"/><path data-name="線 117801" d="M466.423 1457.707v-1.632"/><path data-name="線 117802" d="M468.055 1456.891l-1.632.816"/><path data-name="線 117803" d="M466.422 1427.947l-4.897 2.846"/><path data-name="線 117804" d="M468.055 1427.131l8.162 13.854"/><path data-name="線 117805" d="M466.423 1427.947l8.162 13.854"/><path data-name="線 117806" d="M492.102 1440.985h-15.884"/><path data-name="線 117807" d="M492.102 1443.015h-15.884"/><path data-name="線 117808" d="M468.055 1456.891l8.162-13.876"/><path data-name="線 117809" d="M466.423 1456.074l8.162-14.273"/><path data-name="線 117810" d="M492.101 1440.985v-5.295"/><path data-name="線 117811" d="M466.422 1456.075l-4.897-2.868"/><path data-name="線 117812" d="M472.533 1459.737l-4.478-2.846"/><path data-name="線 117813" d="M468.055 1462.185l-6.53-4.081"/><path data-name="線 117814" d="M496.602 1445.882v-4.081"/><path data-name="線 117815" d="M496.602 1441.801v-3.662"/><path data-name="線 117816" d="M464.79 1423.866l3.265-2.052"/><path data-name="線 117817" d="M464.79 1423.866l-3.265 1.632"/><path data-name="線 117818" d="M461.525 1414.49v-7.743"/><path data-name="線 117819" d="M461.525 1379.016v-4.897"/><path data-name="線 117820" d="M466.423 1376.568v-2.03"/><path data-name="線 117821" d="M468.055 1375.354l-1.632-.816"/><path data-name="線 117822" d="M468.055 1375.354l4.478-2.449"/><path data-name="線 117823" d="M492.101 1396.555v-5.317"/><path data-name="線 117824" d="M492.101 1389.605l1.632.816"/><path data-name="線 117825" d="M492.101 1391.238l1.632-.816"/><path data-name="線 117826" d="M466.423 1406.328v-2.03"/><path data-name="線 117827" d="M468.055 1405.114l-1.632 1.213"/><path data-name="線 117828" d="M466.422 1376.568l-4.897 2.449"/><path data-name="線 117829" d="M468.055 1375.354l8.162 14.251"/><path data-name="線 117830" d="M466.423 1376.568l8.162 13.854"/><path data-name="線 117831" d="M492.102 1389.605h-15.884"/><path data-name="線 117832" d="M492.102 1391.238h-15.884"/><path data-name="線 117833" d="M468.055 1405.114l8.162-13.876"/><path data-name="線 117834" d="M466.423 1404.298l8.162-13.876"/><path data-name="線 117835" d="M492.101 1389.606v-5.692"/><path data-name="線 117836" d="M466.422 1404.298l-4.897-2.449"/><path data-name="線 117837" d="M472.533 1407.96l-4.478-2.846"/><path data-name="線 117838" d="M468.055 1410.409l-6.53-3.662"/><path data-name="線 117839" d="M496.602 1394.106v-3.684"/><path data-name="線 117840" d="M496.602 1390.422v-3.662"/><path data-name="線 117841" d="M464.79 1372.089l3.265-1.632"/><path data-name="線 117842" d="M464.79 1372.089l-3.265 2.03"/><path data-name="線 117843" d="M468.055 1410.409l-6.53-3.662"/><path data-name="線 117844" d="M496.602 1394.106v-3.684"/><path data-name="線 117845" d="M496.602 1390.422v-3.662"/><path data-name="線 117846" d="M492.101 1390.422v-6.508"/><path data-name="線 117847" d="M474.585 1371.67l.397-.397"/><path data-name="線 117848" d="M464.79 1372.089l3.265-1.632"/><path data-name="線 117849" d="M464.79 1372.089l-3.265 2.03"/><path data-name="線 117850" d="M504.345 1390.841h-.816"/><path data-name="線 117851" d="M649.064 1555.944v-227.888"/><path data-name="線 117852" d="M638.056 1465.847v-24.046"/><path data-name="線 117853" d="M550.827 1465.847v-24.046"/><path data-name="線 117854" d="M593.625 1493.976l-43.614-24.863"/><path data-name="線 117855" d="M592.412 1441.801l-42.401 24.863"/><path data-name="線 117856" d="M550.827 1493.578v-24.046"/><path data-name="線 117857" d="M594.022 1443.831l-41.982 24.068"/><path data-name="線 117858" d="M550.827 1517.227v-23.649"/><path data-name="線 117859" d="M550.827 1544.935v-23.627"/><path data-name="線 117860" d="M594.441 1494.791l-42.401 24.465"/><path data-name="線 117861" d="M596.89 1544.935l-46.879-26.892"/><path data-name="線 117862" d="M592.412 1493.578l-42.401 24.465"/><path data-name="線 117863" d="M592.412 1544.935l-42.401-24.443"/><path data-name="線 117864" d="M595.655 1492.762l1.235.816"/><path data-name="線 117865" d="M593.625 1493.975l.816.816"/><path data-name="線 117866" d="M593.625 1543.303v-47.695"/><path data-name="線 117867" d="M593.625 1500.108v-4.5"/><path data-name="線 117868" d="M595.655 1543.303v-47.695"/><path data-name="線 117869" d="M595.654 1495.607l-1.213-.816"/><path data-name="線 117870" d="M595.655 1491.526v-47.695"/><path data-name="線 117871" d="M596.89 1493.578h0"/><path data-name="線 117872" d="M595.655 1500.108v-4.5"/><path data-name="線 117873" d="M593.625 1491.526v-47.695"/><path data-name="線 117874" d="M636.842 1519.257l-42.401 24.465"/><path data-name="線 117875" d="M638.056 1544.935v-23.627"/><path data-name="線 117876" d="M638.056 1517.227v-23.649"/><path data-name="線 117877" d="M638.056 1493.578v-24.046"/><path data-name="線 117878" d="M636.843 1467.899l-41.585 24.046"/><path data-name="線 117879" d="M594.022 1443.831l.419-.397"/><path data-name="線 117880" d="M594.441 1492.343l.816-.397"/><path data-name="線 117881" d="M550.827 1362.713v-24.068"/><path data-name="線 117882" d="M593.625 1390.841l-43.614-24.863"/><path data-name="線 117883" d="M595.655 1389.606l-45.644-26.076"/><path data-name="線 117884" d="M592.412 1338.645l-42.401 24.885"/><path data-name="線 117885" d="M550.827 1390.421v-24.046"/><path data-name="線 117886" d="M594.022 1340.697l-41.982 24.046"/><path data-name="線 117887" d="M550.827 1414.49v-24.068"/><path data-name="線 117888" d="M550.827 1441.801v-23.649"/><path data-name="線 117889" d="M594.441 1391.657l-42.401 24.465"/><path data-name="線 117890" d="M592.412 1390.422l-42.401 24.465"/><path data-name="線 117891" d="M592.412 1441.801l-42.401-24.465"/><path data-name="線 117892" d="M595.655 1389.605l1.235.816"/><path data-name="線 117893" d="M593.625 1390.841l.816.816"/><path data-name="線 117894" d="M593.625 1440.168v-47.695"/><path data-name="線 117895" d="M593.625 1396.951v-4.478"/><path data-name="線 117896" d="M595.655 1440.168v-47.695"/><path data-name="線 117897" d="M595.655 1392.473l43.636 24.863"/><path data-name="線 117898" d="M595.654 1392.473l-1.213-.816"/><path data-name="線 117899" d="M595.655 1388.392v-47.695"/><path data-name="線 117900" d="M596.89 1390.422h0"/><path data-name="線 117901" d="M595.655 1396.951v-4.478"/><path data-name="線 117902" d="M593.625 1388.392v-47.695"/><path data-name="線 117903" d="M636.842 1416.123l-42.401 24.443"/><path data-name="線 117904" d="M639.291 1417.336l-42.401 24.465"/><path data-name="線 117905" d="M638.056 1441.801v-23.649"/><path data-name="線 117906" d="M638.056 1390.421v-24.046"/><path data-name="線 117907" d="M636.843 1364.743l-41.585 24.068"/><path data-name="線 117908" d="M594.022 1340.697l.419-.419"/><path data-name="線 117909" d="M594.441 1389.208l.816-.397"/><path data-name="線 117910" d="M548.775 1465.847v-24.046"/><path data-name="線 117911" d="M461.525 1465.847v-24.046"/><path data-name="線 117912" d="M461.525 1493.578v-24.046"/><path data-name="線 117913" d="M504.345 1443.831l-41.585 24.068"/><path data-name="線 117914" d="M461.525 1517.227v-23.649"/><path data-name="線 117915" d="M461.525 1544.935v-23.627"/><path data-name="線 117916" d="M505.161 1494.791l-42.401 24.465"/><path data-name="線 117917" d="M506.375 1492.762l1.235.816"/><path data-name="線 117918" d="M504.345 1493.975l.816.816"/><path data-name="線 117919" d="M504.345 1543.303v-47.695"/><path data-name="線 117920" d="M504.345 1500.108v-4.5"/><path data-name="線 117921" d="M506.375 1543.303v-47.695"/><path data-name="線 117922" d="M550.011 1469.113l-42.401 24.465"/><path data-name="線 117923" d="M506.375 1495.608l43.636 24.885"/><path data-name="線 117924" d="M506.374 1495.607l-1.213-.816"/><path data-name="線 117925" d="M507.61 1493.578l42.401 24.465"/><path data-name="線 117926" d="M506.375 1491.526v-47.695"/><path data-name="線 117927" d="M507.61 1493.578h0"/><path data-name="線 117928" d="M506.375 1500.108v-4.5"/><path data-name="線 117929" d="M504.345 1491.526v-47.695"/><path data-name="線 117930" d="M547.562 1519.257l-42.401 24.465"/><path data-name="線 117931" d="M550.011 1520.492l-42.401 24.443"/><path data-name="線 117932" d="M548.775 1544.935v-23.627"/><path data-name="線 117933" d="M548.775 1517.227v-23.649"/><path data-name="線 117934" d="M548.775 1493.578v-24.046"/><path data-name="線 117935" d="M547.563 1467.899l-41.585 24.046"/><path data-name="線 117936" d="M550.011 1469.112l-46.901-27.311"/><path data-name="線 117937" d="M504.345 1443.831l.816-.397"/><path data-name="線 117938" d="M505.161 1492.343l.816-.397"/><path data-name="線 117939" d="M548.775 1362.713v-24.068"/><path data-name="線 117940" d="M461.525 1390.421v-24.046"/><path data-name="線 117941" d="M504.345 1340.697l-41.585 24.046"/><path data-name="線 117942" d="M461.525 1414.49v-24.068"/><path data-name="線 117943" d="M461.525 1441.801v-23.649"/><path data-name="線 117944" d="M505.161 1391.657l-42.401 24.465"/><path data-name="線 117945" d="M506.375 1389.605l1.235.816"/><path data-name="線 117946" d="M504.345 1390.841l.816.816"/><path data-name="線 117947" d="M504.345 1440.168v-47.695"/><path data-name="線 117948" d="M504.345 1396.951v-4.478"/><path data-name="線 117949" d="M506.375 1440.168v-47.695"/><path data-name="線 117950" d="M550.011 1365.978l-42.401 24.443"/><path data-name="線 117951" d="M506.375 1392.473l43.636 24.863"/><path data-name="線 117952" d="M506.374 1392.473l-1.213-.816"/><path data-name="線 117953" d="M506.375 1388.392v-47.695"/><path data-name="線 117954" d="M507.61 1390.422h0"/><path data-name="線 117955" d="M506.375 1396.951v-4.478"/><path data-name="線 117956" d="M504.345 1388.392v-47.695"/><path data-name="線 117957" d="M547.562 1416.123l-42.401 24.443"/><path data-name="線 117958" d="M550.011 1417.336l-42.401 24.465"/><path data-name="線 117959" d="M548.775 1441.801v-23.649"/><path data-name="線 117960" d="M548.775 1414.49v-24.068"/><path data-name="線 117961" d="M548.775 1390.421v-24.046"/><path data-name="線 117962" d="M547.563 1364.743l-41.585 24.068"/><path data-name="線 117963" d="M550.011 1365.978l-46.901-27.333"/><path data-name="線 117964" d="M550.011 1363.53l-42.401-24.885"/><path data-name="線 117965" d="M504.345 1340.697l.816-.419"/><path data-name="線 117966" d="M578.139 1338.645H503.11"/><path data-name="線 117967" d="M505.161 1389.208l.816-.397"/><path data-name="線 117968" d="M638.056 1414.49v-24.068"/></g></g></svg>