<svg xmlns="http://www.w3.org/2000/svg" width="200" height="230"><defs><clipPath id="a"><path data-name="長方形 180" transform="translate(450 1327)" fill="#ccc" d="M0 0h200v230H0z"/></clipPath></defs><g data-name="マスクグループ 593" transform="translate(-450 -1327)" clip-path="url(#a)"><g data-name="グループ 3463" fill="none" stroke="#c59535" stroke-linecap="round" stroke-linejoin="round" stroke-width="1.308"><path data-name="パス 2670" d="M588.03 1541.937a29.016 29.016 0 00-27.156-19.048 29.557 29.557 0 00-4.424.349"/><path data-name="パス 2671" d="M632.168 1421.871a26.936 26.936 0 00-4.424-.349 29 29 0 00-27.161 19.049"/><path data-name="線 128018" d="M463.802 1391.796v-24.017"/><path data-name="線 128019" d="M649.076 1554.774H450.922"/><path data-name="線 128020" d="M649.076 1554.774v-225.549"/><path data-name="線 128021" d="M450.922 1554.774v-225.549"/><path data-name="線 128022" d="M649.076 1329.225H450.922"/><path data-name="線 128023" d="M463.802 1532.217V1340.1"/><path data-name="線 128024" d="M638.2 1340.1H463.802"/><path data-name="線 128025" d="M450.922 1329.225l12.88 10.875"/><path data-name="線 128026" d="M638.2 1340.1l10.875-10.875"/><path data-name="線 128027" d="M450.922 1554.774l12.88-10.875"/><path data-name="線 128028" d="M638.2 1543.899l10.875 10.875"/><path data-name="線 128029" d="M638.2 1543.899V1340.1"/><path data-name="線 128030" d="M463.802 1543.899v-9.633"/><path data-name="線 128031" d="M463.802 1442.686v-24.017"/><path data-name="線 128032" d="M463.802 1493.554v-24.017"/><path data-name="線 128033" d="M463.802 1544.029v-23.603"/><path data-name="線 128034" d="M507.718 1544.03h-43.916"/><path data-name="線 128035" d="M638.201 1543.899H507.718"/><path data-name="パス 2672" d="M588.03 1440.158a29.016 29.016 0 00-27.156-19.048 29.56 29.56 0 00-4.424.349"/><path data-name="線 128036" d="M550.413 1417.841l6.037 3.661"/><path data-name="線 128037" d="M552.004 1415.007l4.838 2.833"/><path data-name="線 128038" d="M590.689 1437.39l4.817 3.247"/><path data-name="線 128039" d="M587.856 1439.831l6.037 3.661"/><path data-name="パス 2673" d="M590.536 1437.695a32.2 32.2 0 00-29.662-19.854 24.506 24.506 0 00-3.64.24"/><path data-name="パス 2674" d="M544.528 1414.92a29.016 29.016 0 00-27.16-19.049 29.558 29.558 0 00-4.424.349"/><path data-name="パス 2675" d="M547.035 1412.457a32.2 32.2 0 00-29.667-19.854 27.925 27.925 0 00-3.64.218"/><path data-name="パス 2676" d="M500.635 1389.271a29.016 29.016 0 00-27.156-19.051 29.558 29.558 0 00-4.424.351"/><path data-name="パス 2677" d="M503.119 1386.805a32.2 32.2 0 00-29.662-19.854 27.925 27.925 0 00-3.64.218"/><path data-name="パス 2678" d="M544.528 1364.03a29.016 29.016 0 00-27.16-19.048 29.559 29.559 0 00-4.424.349"/><path data-name="パス 2679" d="M547.035 1361.571a32.2 32.2 0 00-29.667-19.858 24.507 24.507 0 00-3.64.24"/><path data-name="パス 2680" d="M588.03 1389.271a29.016 29.016 0 00-27.156-19.048 29.558 29.558 0 00-4.424.349"/><path data-name="パス 2681" d="M590.536 1386.805a32.2 32.2 0 00-29.662-19.854 27.925 27.925 0 00-3.64.218"/><path data-name="パス 2682" d="M588.03 1491.048A29.016 29.016 0 00560.874 1472a29.557 29.557 0 00-4.424.349"/><path data-name="パス 2683" d="M590.536 1488.585a32.2 32.2 0 00-29.662-19.855 27.842 27.842 0 00-3.64.24"/><path data-name="パス 2684" d="M545.335 1466.224a29.016 29.016 0 00-27.156-19.053 29.559 29.559 0 00-4.424.349"/><path data-name="パス 2685" d="M547.841 1463.739a32.2 32.2 0 00-29.662-19.855 24.506 24.506 0 00-3.64.24"/><path data-name="パス 2686" d="M501.441 1440.571a29.016 29.016 0 00-27.156-19.047 29.559 29.559 0 00-4.424.349"/><path data-name="パス 2687" d="M503.926 1438.109a32.2 32.2 0 00-29.658-19.854 24.507 24.507 0 00-3.64.24"/><path data-name="パス 2688" d="M590.536 1539.453a32.2 32.2 0 00-29.662-19.855 27.842 27.842 0 00-3.64.24"/><path data-name="パス 2689" d="M545.335 1517.092a29.016 29.016 0 00-27.156-19.048 29.557 29.557 0 00-4.424.349"/><path data-name="パス 2690" d="M547.841 1514.629a32.2 32.2 0 00-29.662-19.858 27.842 27.842 0 00-3.64.24"/><path data-name="パス 2691" d="M500.635 1491.048A29.016 29.016 0 00473.479 1472a29.557 29.557 0 00-4.424.349"/><path data-name="パス 2692" d="M503.119 1488.585a32.2 32.2 0 00-29.662-19.855 27.842 27.842 0 00-3.64.24"/><path data-name="パス 2693" d="M631.531 1414.92a29.016 29.016 0 00-27.155-19.049 29.558 29.558 0 00-4.424.349"/><path data-name="パス 2694" d="M634.016 1412.457a32.2 32.2 0 00-29.662-19.855 27.925 27.925 0 00-3.64.218"/><path data-name="パス 2695" d="M631.531 1465.396a29.016 29.016 0 00-27.156-19.048 29.559 29.559 0 00-4.424.349"/><path data-name="パス 2696" d="M634.016 1462.933a32.2 32.2 0 00-29.662-19.855 24.507 24.507 0 00-3.64.24"/><path data-name="パス 2697" d="M631.531 1516.285a29.016 29.016 0 00-27.156-19.048 29.557 29.557 0 00-4.424.349"/><path data-name="パス 2698" d="M634.016 1513.823a32.2 32.2 0 00-29.662-19.852 24.506 24.506 0 00-3.64.24"/><path data-name="パス 2699" d="M501.659 1396.635a26.936 26.936 0 00-4.424-.349 29 29 0 00-27.156 19.048"/><path data-name="パス 2700" d="M500.896 1393.257a28.1 28.1 0 00-3.64-.24 32.161 32.161 0 00-29.662 19.854"/><path data-name="パス 2701" d="M545.16 1370.983a26.936 26.936 0 00-4.424-.349 29 29 0 00-27.155 19.048"/><path data-name="パス 2702" d="M544.398 1367.605a28.1 28.1 0 00-3.64-.24 32.161 32.161 0 00-29.662 19.855"/><path data-name="パス 2703" d="M588.662 1345.745a26.936 26.936 0 00-4.424-.349 29 29 0 00-27.156 19.048"/><path data-name="パス 2704" d="M587.877 1342.371a28.1 28.1 0 00-3.64-.24 32.161 32.161 0 00-29.662 19.855"/><path data-name="パス 2705" d="M588.662 1396.635a26.936 26.936 0 00-4.424-.349 29 29 0 00-27.156 19.048"/><path data-name="パス 2706" d="M587.877 1393.257a28.1 28.1 0 00-3.64-.24 32.161 32.161 0 00-29.661 19.854"/><path data-name="パス 2707" d="M545.16 1421.871a26.936 26.936 0 00-4.424-.349 29 29 0 00-27.155 19.049"/><path data-name="パス 2708" d="M544.398 1418.494a28.1 28.1 0 00-3.64-.24 32.161 32.161 0 00-29.662 19.855"/><path data-name="パス 2709" d="M545.16 1472.762a26.935 26.935 0 00-4.424-.349 29 29 0 00-27.156 19.048"/><path data-name="パス 2710" d="M544.398 1469.362a28.1 28.1 0 00-3.64-.24 32.161 32.161 0 00-29.662 19.855"/><path data-name="パス 2711" d="M501.659 1447.524a26.936 26.936 0 00-4.424-.349 29 29 0 00-27.156 19.048"/><path data-name="パス 2712" d="M500.896 1444.124a28.1 28.1 0 00-3.64-.24 32.161 32.161 0 00-29.662 19.855"/><path data-name="パス 2713" d="M588.662 1447.524a26.936 26.936 0 00-4.424-.349 29 29 0 00-27.156 19.048"/><path data-name="パス 2714" d="M587.877 1444.124a28.1 28.1 0 00-3.64-.24 32.161 32.161 0 00-29.662 19.855"/><path data-name="パス 2715" d="M631.379 1418.494a28.1 28.1 0 00-3.64-.24 32.161 32.161 0 00-29.662 19.855"/><path data-name="パス 2716" d="M632.168 1472.762a26.935 26.935 0 00-4.424-.349 29 29 0 00-27.156 19.048"/><path data-name="パス 2717" d="M631.379 1469.362a28.1 28.1 0 00-3.64-.24 32.161 32.161 0 00-29.662 19.855"/><path data-name="パス 2718" d="M588.662 1498.392a26.935 26.935 0 00-4.424-.349 29 29 0 00-27.156 19.048"/><path data-name="パス 2719" d="M587.877 1495.014a28.1 28.1 0 00-3.64-.24 32.161 32.161 0 00-29.662 19.855"/><path data-name="パス 2720" d="M501.659 1498.392a26.935 26.935 0 00-4.424-.349 29 29 0 00-27.156 19.048"/><path data-name="パス 2721" d="M500.896 1495.014a28.1 28.1 0 00-3.64-.24 32.161 32.161 0 00-29.662 19.855"/><path data-name="パス 2722" d="M544.354 1524.044a26.937 26.937 0 00-4.424-.349 29 29 0 00-27.156 19.048"/><path data-name="パス 2723" d="M543.591 1520.671a28.16 28.16 0 00-3.64-.218 32.161 32.161 0 00-29.662 19.855"/><path data-name="パス 2724" d="M631.357 1524.044a26.937 26.937 0 00-4.424-.349 29 29 0 00-27.156 19.048"/><path data-name="パス 2725" d="M630.568 1520.671a28.16 28.16 0 00-3.64-.218 32.161 32.161 0 00-29.66 19.85"/><path data-name="パス 2726" d="M631.357 1371.397a26.936 26.936 0 00-4.424-.349 29 29 0 00-27.156 19.048"/><path data-name="パス 2727" d="M630.568 1368.019a28.1 28.1 0 00-3.64-.24 32.161 32.161 0 00-29.66 19.855"/><path data-name="線 128040" d="M510.944 1340.1h-6.059"/><path data-name="パス 2728" d="M500.874 1346.159a26.936 26.936 0 00-4.424-.349 29 29 0 00-27.156 19.049"/><path data-name="線 128041" d="M500.874 1345.788l6.037-3.247"/><path data-name="パス 2729" d="M500.09 1342.781a28.1 28.1 0 00-3.64-.24 32.161 32.161 0 00-29.662 19.855"/><path data-name="線 128042" d="M467.028 1365.752l2.027-1.22"/><path data-name="線 128043" d="M500.874 1345.788l6.843-3.661"/><path data-name="線 128044" d="M504.492 1340.1l8.042 4.882"/><path data-name="線 128045" d="M544.354 1363.703l6.059 3.269"/><path data-name="線 128046" d="M551.219 1367.365l-6.059 3.661"/><path data-name="線 128047" d="M463.802 1367.365l5.252 3.269"/><path data-name="線 128048" d="M500.874 1388.941l6.037 3.661"/><path data-name="線 128049" d="M507.718 1393.017l-6.059 3.247"/><path data-name="線 128050" d="M469.861 1415.007l-2.833 1.613"/><path data-name="線 128051" d="M506.911 1392.603l5.623 3.269"/><path data-name="線 128052" d="M544.354 1414.593l6.059 3.247"/><path data-name="線 128053" d="M551.219 1418.255l-6.059 3.661"/><path data-name="線 128054" d="M513.34 1440.245l-2.397 1.613"/><path data-name="線 128055" d="M594.699 1393.017l-6.037 3.247"/><path data-name="線 128056" d="M550.413 1366.973l6.037 3.661"/><path data-name="線 128057" d="M587.856 1388.941l6.037 3.661"/><path data-name="線 128058" d="M594.699 1342.127l-6.037 3.269"/><path data-name="線 128059" d="M557.256 1364.118l-2.833 1.635"/><path data-name="線 128060" d="M638.2 1367.365l-6.843 4.076"/><path data-name="線 128061" d="M599.952 1389.769l-2.027 1.22"/><path data-name="線 128062" d="M593.893 1392.603l6.059 3.269"/><path data-name="線 128063" d="M631.357 1414.593l6.843 3.661"/><path data-name="線 128064" d="M506.911 1443.492l6.429 3.661"/><path data-name="線 128065" d="M545.16 1465.875l5.252 2.855"/><path data-name="線 128066" d="M463.802 1418.255l6.059 3.661"/><path data-name="線 128067" d="M501.659 1440.245l5.252 3.247"/><path data-name="線 128068" d="M507.718 1443.907l-6.059 3.247"/><path data-name="線 128069" d="M469.861 1465.875l-2.833 1.635"/><path data-name="線 128070" d="M463.802 1469.144l5.252 2.855"/><path data-name="線 128071" d="M500.874 1490.721l6.037 3.247"/><path data-name="線 128072" d="M506.911 1493.968l6.429 4.076"/><path data-name="線 128073" d="M545.16 1516.765l5.252 2.855"/><path data-name="線 128074" d="M551.219 1469.144l-6.059 3.661"/><path data-name="線 128075" d="M513.34 1491.113l-2.397 1.635"/><path data-name="線 128076" d="M550.413 1468.73l6.037 3.269"/><path data-name="線 128077" d="M587.856 1490.721l6.037 3.247"/><path data-name="線 128078" d="M594.699 1443.907l-6.037 3.247"/><path data-name="線 128079" d="M557.256 1465.875l-2.833 1.635"/><path data-name="線 128080" d="M593.893 1443.492l6.059 3.247"/><path data-name="線 128081" d="M631.357 1465.069l6.843 4.076"/><path data-name="線 128082" d="M638.2 1469.144l-6.037 3.661"/><path data-name="線 128083" d="M600.758 1491.113l-2.833 1.635"/><path data-name="線 128084" d="M593.893 1493.968l6.059 3.661"/><path data-name="線 128085" d="M631.357 1515.959l6.843 4.054"/><path data-name="線 128086" d="M594.699 1494.774l-6.037 3.269"/><path data-name="線 128087" d="M557.256 1516.765l-2.833 1.22"/><path data-name="線 128088" d="M551.219 1520.012l-6.865 4.076"/><path data-name="線 128089" d="M512.534 1542.417l-1.591 1.22"/><path data-name="パス 2730" d="M501.441 1542.33a29.016 29.016 0 00-27.156-19.049 29.557 29.557 0 00-4.424.349"/><path data-name="パス 2731" d="M503.926 1539.871a32.2 32.2 0 00-29.658-19.859 24.506 24.506 0 00-3.64.24"/><path data-name="線 128090" d="M500.068 1342.541l4.424-2.441"/><path data-name="線 128091" d="M510.943 1340.1l2.397 1.635"/><path data-name="線 128092" d="M463.802 1363.704l2.833-1.613"/><path data-name="線 128093" d="M463.802 1363.703l6.059 3.269"/><path data-name="線 128094" d="M503.272 1386.5l5.252 3.269"/><path data-name="線 128095" d="M504.492 1390.99l-3.618 2.027"/><path data-name="線 128096" d="M513.34 1389.355l-2.397 1.635"/><path data-name="線 128097" d="M507.718 1393.017l-4.032 2.027"/><path data-name="線 128098" d="M556.45 1411.346l-5.231 3.247"/><path data-name="線 128099" d="M557.256 1415.007l-2.833 1.613"/><path data-name="線 128100" d="M551.219 1418.255l-4.838 2.855"/><path data-name="線 128101" d="M546.773 1412.152l5.231 2.855"/><path data-name="線 128102" d="M508.524 1389.769l4.817 2.833"/><path data-name="線 128103" d="M510.944 1387.328l-3.226 1.613"/><path data-name="線 128104" d="M546.773 1361.262l5.231 2.855"/><path data-name="線 128105" d="M552.004 1364.118l4.838 2.855"/><path data-name="線 128106" d="M554.423 1361.677l-3.204 2.027"/><path data-name="線 128107" d="M547.994 1365.752l-3.64 1.613"/><path data-name="線 128108" d="M500.068 1342.541l4.424-2.441"/><path data-name="線 128109" d="M591.496 1340.1l-3.226 2.027"/><path data-name="線 128110" d="M590.689 1386.5l4.817 3.269"/><path data-name="線 128111" d="M597.118 1387.721l-2.419 1.22"/><path data-name="線 128112" d="M595.505 1389.769l4.838 2.833"/><path data-name="線 128113" d="M591.496 1390.99l-3.226 2.027"/><path data-name="線 128114" d="M634.975 1365.752l-4.01 2.441"/><path data-name="線 128115" d="M634.168 1412.152l4.032 2.441"/><path data-name="線 128116" d="M634.975 1416.62l-3.204 1.635"/><path data-name="線 128117" d="M638.2 1418.255l-6.037 3.661"/><path data-name="線 128118" d="M600.758 1440.245l-2.833 1.613"/><path data-name="線 128119" d="M594.699 1443.907l-4.01 2.027"/><path data-name="線 128120" d="M597.925 1438.196l-3.226 1.635"/><path data-name="線 128121" d="M591.496 1441.858l-3.226 2.049"/><path data-name="線 128122" d="M595.505 1440.637l4.838 2.855"/><path data-name="線 128123" d="M634.168 1463.042l4.032 2.441"/><path data-name="線 128124" d="M634.975 1467.51l-3.204 1.635"/><path data-name="線 128125" d="M590.689 1488.28l4.817 2.833"/><path data-name="線 128126" d="M597.925 1489.086l-3.226 1.635"/><path data-name="線 128127" d="M595.505 1491.113l4.838 3.269"/><path data-name="線 128128" d="M591.496 1492.748l-3.226 2.027"/><path data-name="線 128129" d="M554.423 1514.324l-3.204 2.027"/><path data-name="線 128130" d="M552.004 1516.765l10.069 6.102"/><path data-name="線 128131" d="M550.413 1519.62l6.037 3.247"/><path data-name="線 128132" d="M587.856 1541.589l3.64 2.049"/><path data-name="線 128133" d="M590.689 1539.148l7.236 4.49"/><path data-name="線 128134" d="M597.118 1540.368l-2.419 1.22"/><path data-name="線 128135" d="M638.2 1520.012l-6.843 4.076"/><path data-name="線 128136" d="M599.952 1542.417l-2.027 1.22"/><path data-name="線 128137" d="M634.975 1517.985l-4.01 2.441"/><path data-name="線 128138" d="M634.168 1513.91l4.032 2.441"/><path data-name="線 128139" d="M591.496 1492.748l-3.226 2.027"/><path data-name="線 128140" d="M547.58 1514.324l4.424 2.441"/><path data-name="線 128141" d="M508.524 1491.113l5.623 3.661"/><path data-name="線 128142" d="M547.994 1517.985l-4.446 2.441"/><path data-name="線 128143" d="M510.137 1540.368l-2.419 1.22"/><path data-name="線 128144" d="M463.802 1520.012l6.059 3.683"/><path data-name="線 128145" d="M501.659 1542.003l2.833 1.635"/><path data-name="線 128146" d="M504.078 1539.562l6.865 4.076"/><path data-name="線 128147" d="M463.802 1516.351l6.865 3.661"/><path data-name="線 128148" d="M467.442 1514.324l-3.64 2.027"/><path data-name="線 128149" d="M507.718 1494.774l-6.059 3.269"/><path data-name="線 128150" d="M469.861 1516.765l-2.833 1.22"/><path data-name="線 128151" d="M504.492 1492.748l-3.618 2.027"/><path data-name="線 128152" d="M463.802 1465.483l6.059 3.247"/><path data-name="線 128153" d="M467.442 1463.434l-3.64 2.049"/><path data-name="線 128154" d="M503.272 1488.28l5.252 2.833"/><path data-name="線 128155" d="M510.944 1489.086l-3.226 1.635"/><path data-name="線 128156" d="M547.994 1467.51l-3.64 1.635"/><path data-name="線 128157" d="M547.58 1463.434l4.424 2.441"/><path data-name="線 128158" d="M552.004 1465.875l4.838 2.855"/><path data-name="線 128159" d="M554.423 1463.434l-3.204 2.049"/><path data-name="線 128160" d="M508.524 1440.637l5.623 3.269"/><path data-name="線 128161" d="M510.944 1438.196l-3.226 1.635"/><path data-name="線 128162" d="M504.078 1438.196l4.446 2.441"/><path data-name="線 128163" d="M504.492 1441.858l-3.618 2.049"/><path data-name="線 128164" d="M467.442 1412.566l-3.64 2.027"/><path data-name="線 128165" d="M463.802 1414.593l6.865 3.661"/><path data-name="線 128166" d="M516.566 1384.059h-.392"/><path data-name="線 128167" d="M510.944 1387.328l-3.226 1.613"/><path data-name="線 128168" d="M554.423 1412.566l-3.204 2.027"/><path data-name="線 128169" d="M547.994 1416.62l-3.64 1.635"/><path data-name="線 128170" d="M597.925 1438.196l-3.226 1.635"/><path data-name="パス 2732" d="M631.531 1364.03a29.016 29.016 0 00-27.156-19.048 29.559 29.559 0 00-4.424.349"/><path data-name="パス 2733" d="M634.016 1361.571a32.2 32.2 0 00-29.662-19.855 24.507 24.507 0 00-3.64.24"/><path data-name="線 128171" d="M597.925 1340.1l2.419 1.635"/><path data-name="線 128172" d="M591.495 1340.1l8.456 4.882"/><path data-name="線 128173" d="M631.357 1363.703l6.843 3.661"/><path data-name="線 128174" d="M634.168 1361.262l4.032 2.441"/></g></g></svg>