<svg xmlns="http://www.w3.org/2000/svg" width="200" height="230"><defs><clipPath id="a"><path data-name="長方形 180" transform="translate(450 1327)" fill="#ccc" d="M0 0h200v230H0z"/></clipPath></defs><g data-name="マスクグループ 591" transform="translate(-450 -1327)" clip-path="url(#a)"><g data-name="グループ 3461" fill="none" stroke="#c59535" stroke-linecap="round" stroke-linejoin="round" stroke-width="1.314"><path data-name="線 126618" d="M572.86 1439.985H461.167"/><path data-name="線 126619" d="M640.847 1340.029h-179.68"/><path data-name="線 126620" d="M640.848 1543.97h-136.37"/><path data-name="線 126621" d="M461.167 1543.97v-203.941"/><path data-name="線 126622" d="M640.847 1532.628v-192.599"/><path data-name="線 126623" d="M649.343 1554.897v-225.794"/><path data-name="線 126624" d="M450.657 1554.897v-225.794"/><path data-name="線 126625" d="M649.343 1329.103H450.657"/><path data-name="線 126626" d="M649.343 1554.897H450.657"/><path data-name="線 126627" d="M504.478 1543.97h-43.311"/><path data-name="線 126628" d="M640.847 1356.21h-179.68"/><path data-name="線 126629" d="M640.847 1359.451h-179.68"/><path data-name="線 126630" d="M640.848 1527.789h-136.37"/><path data-name="線 126631" d="M640.848 1524.548h-136.37"/><path data-name="線 126632" d="M504.478 1527.789h-43.311"/><path data-name="線 126633" d="M504.478 1524.548h-43.311"/><path data-name="線 126634" d="M640.847 1532.628v11.342"/><path data-name="線 126635" d="M468.064 1356.21v-16.181"/><path data-name="線 126636" d="M471.283 1356.21v-16.181"/><path data-name="線 126637" d="M468.064 1543.97v-16.181"/><path data-name="線 126638" d="M471.283 1543.97v-16.181"/><path data-name="線 126639" d="M572.86 1443.204H461.167"/><path data-name="線 126640" d="M640.847 1443.204H483.019"/><path data-name="線 126641" d="M640.847 1439.985H483.019"/><path data-name="線 126642" d="M468.064 1439.985v-80.534"/><path data-name="線 126643" d="M468.064 1524.548v-81.344"/><path data-name="線 126644" d="M471.283 1439.985v-80.534"/><path data-name="線 126645" d="M471.283 1524.548v-81.344"/><path data-name="線 126646" d="M478.18 1356.21v-16.181"/><path data-name="線 126647" d="M481.399 1356.21v-16.181"/><path data-name="線 126648" d="M478.18 1543.97v-16.181"/><path data-name="線 126649" d="M481.399 1543.97v-16.181"/><path data-name="線 126650" d="M478.18 1439.985v-80.534"/><path data-name="線 126651" d="M478.18 1524.548v-81.344"/><path data-name="線 126652" d="M481.399 1439.985v-80.534"/><path data-name="線 126653" d="M481.399 1524.548v-81.344"/><path data-name="線 126654" d="M488.296 1356.21v-16.181"/><path data-name="線 126655" d="M491.515 1356.21v-16.181"/><path data-name="線 126656" d="M488.296 1543.97v-16.181"/><path data-name="線 126657" d="M491.515 1543.97v-16.181"/><path data-name="線 126658" d="M488.296 1439.985v-80.534"/><path data-name="線 126659" d="M488.296 1524.548v-81.344"/><path data-name="線 126660" d="M491.515 1439.985v-80.534"/><path data-name="線 126661" d="M491.515 1524.548v-81.344"/><path data-name="線 126662" d="M498.413 1356.21v-16.181"/><path data-name="線 126663" d="M501.631 1356.21v-16.181"/><path data-name="線 126664" d="M498.413 1543.97v-16.181"/><path data-name="線 126665" d="M501.631 1543.97v-16.181"/><path data-name="線 126666" d="M498.413 1439.985v-80.534"/><path data-name="線 126667" d="M498.413 1524.548v-81.344"/><path data-name="線 126668" d="M501.631 1439.985v-80.534"/><path data-name="線 126669" d="M501.631 1524.548v-81.344"/><path data-name="線 126670" d="M508.113 1356.21v-16.181"/><path data-name="線 126671" d="M511.353 1356.21v-16.181"/><path data-name="線 126672" d="M508.113 1543.97v-16.181"/><path data-name="線 126673" d="M511.353 1543.97v-16.181"/><path data-name="線 126674" d="M508.113 1439.985v-80.534"/><path data-name="線 126675" d="M508.113 1524.548v-81.344"/><path data-name="線 126676" d="M511.353 1439.985v-80.534"/><path data-name="線 126677" d="M511.353 1524.548v-81.344"/><path data-name="線 126678" d="M518.229 1356.21v-16.181"/><path data-name="線 126679" d="M521.469 1356.21v-16.181"/><path data-name="線 126680" d="M518.229 1543.97v-16.181"/><path data-name="線 126681" d="M521.469 1543.97v-16.181"/><path data-name="線 126682" d="M518.229 1439.985v-80.534"/><path data-name="線 126683" d="M518.229 1524.548v-81.344"/><path data-name="線 126684" d="M521.469 1439.985v-80.534"/><path data-name="線 126685" d="M521.469 1524.548v-81.344"/><path data-name="線 126686" d="M528.345 1356.21v-16.181"/><path data-name="線 126687" d="M531.585 1356.21v-16.181"/><path data-name="線 126688" d="M528.345 1543.97v-16.181"/><path data-name="線 126689" d="M531.585 1543.97v-16.181"/><path data-name="線 126690" d="M528.345 1439.985v-80.534"/><path data-name="線 126691" d="M528.345 1524.548v-81.344"/><path data-name="線 126692" d="M531.585 1439.985v-80.534"/><path data-name="線 126693" d="M531.585 1524.548v-81.344"/><path data-name="線 126694" d="M538.461 1356.21v-16.181"/><path data-name="線 126695" d="M541.701 1356.21v-16.181"/><path data-name="線 126696" d="M538.461 1543.97v-16.181"/><path data-name="線 126697" d="M541.701 1543.97v-16.181"/><path data-name="線 126698" d="M538.461 1439.985v-80.534"/><path data-name="線 126699" d="M538.461 1524.548v-81.344"/><path data-name="線 126700" d="M541.701 1439.985v-80.534"/><path data-name="線 126701" d="M541.701 1524.548v-81.344"/><path data-name="線 126702" d="M548.577 1356.21v-16.181"/><path data-name="線 126703" d="M551.817 1356.21v-16.181"/><path data-name="線 126704" d="M548.577 1543.97v-16.181"/><path data-name="線 126705" d="M551.817 1543.97v-16.181"/><path data-name="線 126706" d="M548.577 1439.985v-80.534"/><path data-name="線 126707" d="M548.577 1524.548v-81.344"/><path data-name="線 126708" d="M551.817 1439.985v-80.534"/><path data-name="線 126709" d="M551.817 1524.548v-81.344"/><path data-name="線 126710" d="M558.299 1356.21v-16.181"/><path data-name="線 126711" d="M561.539 1356.21v-16.181"/><path data-name="線 126712" d="M558.299 1543.97v-16.181"/><path data-name="線 126713" d="M561.539 1543.97v-16.181"/><path data-name="線 126714" d="M558.299 1439.985v-80.534"/><path data-name="線 126715" d="M558.299 1524.548v-81.344"/><path data-name="線 126716" d="M561.539 1439.985v-80.534"/><path data-name="線 126717" d="M561.539 1524.548v-81.344"/><path data-name="線 126718" d="M568.415 1356.21v-16.181"/><path data-name="線 126719" d="M571.655 1356.21v-16.181"/><path data-name="線 126720" d="M568.415 1543.97v-16.181"/><path data-name="線 126721" d="M571.655 1543.97v-16.181"/><path data-name="線 126722" d="M568.415 1439.985v-80.534"/><path data-name="線 126723" d="M568.415 1524.548v-81.344"/><path data-name="線 126724" d="M571.655 1439.985v-80.534"/><path data-name="線 126725" d="M571.655 1524.548v-81.344"/><path data-name="線 126726" d="M578.531 1356.21v-16.181"/><path data-name="線 126727" d="M581.771 1356.21v-16.181"/><path data-name="線 126728" d="M578.531 1543.97v-16.181"/><path data-name="線 126729" d="M581.771 1543.97v-16.181"/><path data-name="線 126730" d="M578.531 1439.985v-80.534"/><path data-name="線 126731" d="M578.531 1524.548v-81.344"/><path data-name="線 126732" d="M581.771 1439.985v-80.534"/><path data-name="線 126733" d="M581.771 1524.548v-81.344"/><path data-name="線 126734" d="M588.647 1356.21v-16.181"/><path data-name="線 126735" d="M591.887 1356.21v-16.181"/><path data-name="線 126736" d="M588.647 1543.97v-16.181"/><path data-name="線 126737" d="M591.887 1543.97v-16.181"/><path data-name="線 126738" d="M588.647 1439.985v-80.534"/><path data-name="線 126739" d="M588.647 1524.548v-81.344"/><path data-name="線 126740" d="M591.887 1439.985v-80.534"/><path data-name="線 126741" d="M591.887 1524.548v-81.344"/><path data-name="線 126742" d="M598.347 1356.21v-16.181"/><path data-name="線 126743" d="M602.003 1356.21v-16.181"/><path data-name="線 126744" d="M598.347 1543.97v-16.181"/><path data-name="線 126745" d="M602.003 1543.97v-16.181"/><path data-name="線 126746" d="M598.347 1439.985v-80.534"/><path data-name="線 126747" d="M598.347 1524.548v-81.344"/><path data-name="線 126748" d="M602.003 1439.985v-80.534"/><path data-name="線 126749" d="M602.003 1524.548v-81.344"/><path data-name="線 126750" d="M608.463 1356.21v-16.181"/><path data-name="線 126751" d="M611.704 1356.21v-16.181"/><path data-name="線 126752" d="M608.463 1543.97v-16.181"/><path data-name="線 126753" d="M611.704 1543.97v-16.181"/><path data-name="線 126754" d="M608.463 1439.985v-80.534"/><path data-name="線 126755" d="M608.463 1524.548v-81.344"/><path data-name="線 126756" d="M611.704 1439.985v-80.534"/><path data-name="線 126757" d="M611.704 1524.548v-81.344"/><path data-name="線 126758" d="M618.579 1356.21v-16.181"/><path data-name="線 126759" d="M621.82 1356.21v-16.181"/><path data-name="線 126760" d="M618.579 1543.97v-16.181"/><path data-name="線 126761" d="M621.82 1543.97v-16.181"/><path data-name="線 126762" d="M618.579 1439.985v-80.534"/><path data-name="線 126763" d="M618.579 1524.548v-81.344"/><path data-name="線 126764" d="M621.82 1439.985v-80.534"/><path data-name="線 126765" d="M621.82 1524.548v-81.344"/><path data-name="線 126766" d="M628.695 1356.21v-16.181"/><path data-name="線 126767" d="M631.936 1356.21v-16.181"/><path data-name="線 126768" d="M628.695 1543.97v-16.181"/><path data-name="線 126769" d="M631.936 1543.97v-16.181"/><path data-name="線 126770" d="M628.695 1439.985v-80.534"/><path data-name="線 126771" d="M628.695 1524.548v-81.344"/><path data-name="線 126772" d="M631.936 1439.985v-80.534"/><path data-name="線 126773" d="M631.936 1524.548v-81.344"/></g></g></svg>