<svg xmlns="http://www.w3.org/2000/svg" width="200" height="230"><defs><clipPath id="a"><path data-name="長方形 180" transform="translate(450 1327)" fill="#ccc" d="M0 0h200v230H0z"/></clipPath></defs><g data-name="マスクグループ 576" transform="translate(-450 -1327)" clip-path="url(#a)"><g data-name="グループ 3444" fill="none" stroke="#c49535" stroke-linecap="round" stroke-linejoin="round" stroke-width="1.308"><path data-name="線 117969" d="M637.394 1518.323l-42.281 24.17"/><path data-name="線 117970" d="M548.8 1365.676l-41.082 23.778"/><path data-name="線 117971" d="M506.105 1389.039v-47.119"/><path data-name="線 117972" d="M638.2 1538.069v-198.176"/><path data-name="線 117973" d="M463.802 1543.692v-23.342"/><path data-name="線 117974" d="M579.007 1339.893h-74.122"/><path data-name="線 117975" d="M506.497 1341.92l.414-.414"/><path data-name="線 117976" d="M551.22 1364.477l-41.889-24.584"/><path data-name="線 117977" d="M551.22 1366.896l-46.335-27.003"/><path data-name="線 117978" d="M551.22 1417.633l-41.889 24.17"/><path data-name="線 117979" d="M548.8 1416.435l-41.889 24.148"/><path data-name="線 117980" d="M509.331 1391.044l41.889 24.17"/><path data-name="線 117981" d="M508.11 1393.071l43.109 24.562"/><path data-name="線 117982" d="M551.22 1366.896l-41.889 24.148"/><path data-name="線 117983" d="M506.105 1397.495v-4.424"/><path data-name="線 117984" d="M506.105 1440.19v-47.119"/><path data-name="線 117985" d="M506.105 1391.458l.806.806"/><path data-name="線 117986" d="M506.912 1392.265l-41.889 24.17"/><path data-name="線 117987" d="M506.498 1341.92l-41.475 23.756"/><path data-name="線 117988" d="M463.802 1391.045v-23.756"/><path data-name="線 117989" d="M549.999 1363.671v-23.778"/><path data-name="線 117990" d="M506.497 1443.808l.414-.392"/><path data-name="線 117991" d="M551.22 1466.365l-41.889-24.562"/><path data-name="線 117992" d="M551.22 1468.784l-46.335-26.981"/><path data-name="線 117993" d="M551.22 1519.544l-41.889 24.148"/><path data-name="線 117994" d="M548.8 1518.323l-41.889 24.17"/><path data-name="線 117995" d="M506.105 1490.927v-47.119"/><path data-name="線 117996" d="M509.331 1492.955l41.889 24.17"/><path data-name="線 117997" d="M508.11 1494.96l43.109 24.584"/><path data-name="線 117998" d="M551.22 1468.785l-41.889 24.17"/><path data-name="線 117999" d="M506.105 1499.406v-4.446"/><path data-name="線 118000" d="M506.105 1542.079v-47.119"/><path data-name="線 118001" d="M506.105 1493.347l.806.806"/><path data-name="線 118002" d="M506.912 1494.153l-41.889 24.17"/><path data-name="線 118003" d="M506.498 1443.808l-41.475 23.778"/><path data-name="線 118004" d="M594.699 1341.92l.414-.414"/><path data-name="線 118005" d="M638.2 1391.045v-23.756"/><path data-name="線 118006" d="M637.394 1416.435l-42.281 24.148"/><path data-name="線 118007" d="M594.307 1389.039v-47.119"/><path data-name="線 118008" d="M596.312 1389.039v-47.119"/><path data-name="線 118009" d="M593.086 1441.803l-41.867-24.17"/><path data-name="線 118010" d="M593.086 1391.044l-41.867 24.17"/><path data-name="線 118011" d="M597.532 1441.803l-46.313-26.589"/><path data-name="線 118012" d="M595.113 1392.265l-41.889 24.17"/><path data-name="線 118013" d="M594.699 1341.92l-41.475 23.756"/><path data-name="線 118014" d="M593.086 1339.893l-41.867 24.584"/><path data-name="線 118015" d="M637.394 1467.586l-41.475 23.756"/><path data-name="線 118016" d="M638.2 1492.955v-23.756"/><path data-name="線 118017" d="M638.2 1516.319v-23.364"/><path data-name="線 118018" d="M638.2 1543.692v-23.342"/><path data-name="線 118019" d="M594.307 1490.927v-47.119"/><path data-name="線 118020" d="M596.312 1542.079v-47.119"/><path data-name="線 118021" d="M594.307 1499.406v-4.446"/><path data-name="線 118022" d="M594.307 1542.079v-47.119"/><path data-name="線 118023" d="M594.307 1493.347l.806.806"/><path data-name="線 118024" d="M593.086 1543.692l-41.867-24.148"/><path data-name="線 118025" d="M593.086 1492.955l-41.867 24.17"/><path data-name="線 118026" d="M597.532 1543.692l-46.313-26.567"/><path data-name="線 118027" d="M595.113 1494.153l-41.889 24.17"/><path data-name="線 118028" d="M552.004 1543.692v-23.342"/><path data-name="線 118029" d="M594.699 1443.808l-41.475 23.778"/><path data-name="線 118030" d="M593.086 1441.803l-41.867 24.562"/><path data-name="線 118031" d="M594.306 1493.347l-43.087-24.562"/><path data-name="線 118032" d="M638.2 1465.559v-23.756"/><path data-name="線 118033" d="M649.076 1554.567H450.922"/><path data-name="線 118034" d="M649.076 1554.567v-225.135"/><path data-name="線 118035" d="M450.922 1554.567v-225.135"/><path data-name="線 118036" d="M649.076 1329.432H450.922"/><path data-name="線 118037" d="M508.11 1543.299h0"/><path data-name="線 118038" d="M596.312 1542.079l.806-.392"/><path data-name="線 118039" d="M598.339 1543.299h0"/><path data-name="線 118040" d="M599.951 1540.074l-2.833 1.613"/><path data-name="線 118041" d="M506.912 1491.734l-3.226-2.005"/><path data-name="線 118042" d="M551.22 1517.125l-3.64-2.027"/><path data-name="線 118043" d="M463.802 1532.01v-192.117"/><path data-name="線 118044" d="M504.884 1339.893l-41.082 23.778"/><path data-name="線 118045" d="M508.11 1390.238l-44.308-25.369"/><path data-name="線 118046" d="M506.105 1391.459l-42.303-24.17"/><path data-name="線 118047" d="M504.884 1543.692h-41.082"/><path data-name="線 118048" d="M638.201 1543.692H504.885"/><path data-name="線 118049" d="M597.532 1492.955l40.668 23.364"/><path data-name="線 118050" d="M596.312 1494.96l41.889 24.17"/><path data-name="線 118051" d="M638.2 1520.35l-40.668 23.342"/><path data-name="線 118052" d="M597.532 1391.044l40.668 23.778"/><path data-name="線 118053" d="M596.312 1393.071l41.889 24.17"/><path data-name="線 118054" d="M638.2 1418.44l-40.668 23.364"/><path data-name="線 118055" d="M638.2 1363.671l-40.668-23.778"/><path data-name="線 118056" d="M638.2 1366.09l-45.114-26.197"/><path data-name="線 118057" d="M638.2 1367.289l-40.668 23.756"/><path data-name="線 118058" d="M638.2 1339.893H463.802"/><path data-name="線 118059" d="M450.922 1329.432l12.88 10.461"/><path data-name="線 118060" d="M638.2 1339.893l10.875-10.461"/><path data-name="線 118061" d="M450.922 1554.567l12.88-10.875"/><path data-name="線 118062" d="M638.2 1543.692l10.875 10.875"/><path data-name="線 118063" d="M504.884 1391.044l-41.082 23.778"/><path data-name="線 118064" d="M509.33 1441.804l-45.528-25.783"/><path data-name="線 118065" d="M504.884 1441.804l-41.082-23.364"/><path data-name="線 118066" d="M504.884 1492.955l-41.082 23.364"/><path data-name="線 118067" d="M509.33 1543.692l-45.528-25.761"/><path data-name="線 118068" d="M504.884 1543.692l-41.082-23.342"/><path data-name="線 118069" d="M508.11 1492.148l1.22.806"/><path data-name="線 118070" d="M506.911 1494.153l1.199.806"/><path data-name="線 118071" d="M596.312 1499.406v-4.446"/><path data-name="線 118072" d="M596.312 1490.927v-47.119"/><path data-name="線 118073" d="M596.312 1492.148l1.22.806"/><path data-name="線 118074" d="M596.312 1492.148l-1.199-.414"/><path data-name="線 118075" d="M594.306 1490.928l-43.087-24.562"/><path data-name="線 118076" d="M595.919 1491.342l-.806.392"/><path data-name="線 118077" d="M595.113 1491.734l-.806-.806"/><path data-name="線 118078" d="M595.113 1494.153l1.199.806"/><path data-name="線 118079" d="M594.307 1443.808l.806-.392"/><path data-name="線 118080" d="M597.532 1391.044l-46.313-26.567"/><path data-name="線 118081" d="M596.311 1393.071l-45.092-26.175"/><path data-name="線 118082" d="M637.394 1365.676l-42.281 24.17"/><path data-name="線 118083" d="M638.2 1465.559l-40.668-23.756"/><path data-name="線 118084" d="M638.2 1467.978l-45.114-26.175"/><path data-name="線 118085" d="M638.2 1469.199l-40.668 23.756"/><path data-name="線 118086" d="M638.2 1465.559l-2.419-1.199"/><path data-name="線 118087" d="M504.884 1441.803l-41.082 23.756"/><path data-name="線 118088" d="M508.11 1492.149l-44.308-25.369"/><path data-name="線 118089" d="M506.105 1493.347l-42.303-24.148"/><path data-name="線 118090" d="M548.8 1467.586l-41.889 24.148"/><path data-name="線 118091" d="M508.11 1542.079v-47.119"/><path data-name="線 118092" d="M508.11 1490.927v-47.119"/><path data-name="線 118093" d="M506.911 1392.265l1.199.806"/><path data-name="線 118094" d="M509.33 1391.044l-1.22-.806"/><path data-name="線 118095" d="M507.717 1389.453l-.806.392"/><path data-name="線 118096" d="M508.11 1440.19v-47.119"/><path data-name="線 118097" d="M508.11 1389.039v-47.119"/><path data-name="線 118098" d="M549.999 1363.67v-11.289"/><path data-name="線 118099" d="M552.004 1363.671v-23.778"/><path data-name="線 118100" d="M549.999 1543.692v-23.342"/><path data-name="線 118101" d="M549.999 1516.318v-47.119"/><path data-name="線 118102" d="M552.004 1540.88v-20.53"/><path data-name="線 118103" d="M552.004 1516.318v-47.119"/><path data-name="線 118104" d="M594.307 1440.19v-47.119"/><path data-name="線 118105" d="M596.312 1440.19v-47.119"/><path data-name="線 118106" d="M549.999 1465.559v-47.119"/><path data-name="線 118107" d="M549.999 1414.822v-47.533"/><path data-name="線 118108" d="M552.004 1414.822v-47.533"/><path data-name="線 118109" d="M552.004 1465.559v-47.119"/><path data-name="パス 2246" d="M547.994 1464.36a47.9 47.9 0 00-37.026-21.249"/><path data-name="パス 2247" d="M510.968 1440.888a47.844 47.844 0 0037.026-21.249"/><path data-name="パス 2248" d="M550.086 1420.706a47.834 47.834 0 000 42.194"/><path data-name="パス 2249" d="M550.13 1465.494a49.032 49.032 0 00-41.213-23.669"/><path data-name="パス 2250" d="M549.999 1418.222a49.075 49.075 0 000 47.163"/><path data-name="パス 2251" d="M508.917 1442.178a49.032 49.032 0 0041.213-23.673"/><path data-name="パス 2252" d="M503.686 1388.233a47.9 47.9 0 00-37.029-21.25"/><path data-name="パス 2253" d="M466.657 1364.368a47.843 47.843 0 0037.029-21.249"/><path data-name="パス 2254" d="M505.778 1344.578a47.834 47.834 0 000 42.194"/><path data-name="パス 2255" d="M505.822 1389.366a49.032 49.032 0 00-41.213-23.668"/><path data-name="パス 2256" d="M505.691 1342.094a49.075 49.075 0 000 47.163"/><path data-name="パス 2257" d="M464.609 1365.654a49.032 49.032 0 0041.213-23.669"/><path data-name="線 118110" d="M506.105 1344.339v-2.419"/><path data-name="線 118111" d="M506.105 1389.039v-2.005"/><path data-name="パス 2258" d="M503.686 1438.992a47.9 47.9 0 00-37.029-21.25"/><path data-name="パス 2259" d="M466.657 1415.127a47.843 47.843 0 0037.029-21.249"/><path data-name="パス 2260" d="M505.778 1395.338a47.834 47.834 0 000 42.194"/><path data-name="パス 2261" d="M505.822 1440.125a49.032 49.032 0 00-41.213-23.668"/><path data-name="パス 2262" d="M505.691 1392.832a49.075 49.075 0 000 47.163"/><path data-name="パス 2263" d="M464.609 1416.413a49.032 49.032 0 0041.213-23.669"/><path data-name="線 118112" d="M506.105 1395.076v-2.005"/><path data-name="線 118113" d="M506.105 1440.19v-2.419"/><path data-name="パス 2264" d="M503.686 1489.729a47.9 47.9 0 00-37.029-21.251"/><path data-name="パス 2265" d="M466.657 1466.278a47.843 47.843 0 0037.029-21.249"/><path data-name="パス 2266" d="M505.778 1446.489a47.834 47.834 0 000 42.194"/><path data-name="パス 2267" d="M505.822 1490.862a49.032 49.032 0 00-41.213-23.669"/><path data-name="パス 2268" d="M505.691 1443.978a49.075 49.075 0 000 47.163"/><path data-name="パス 2269" d="M464.609 1467.542a49.032 49.032 0 0041.213-23.664"/><path data-name="線 118114" d="M506.105 1446.227v-2.419"/><path data-name="線 118115" d="M506.105 1490.927v-2.397"/><path data-name="パス 2270" d="M503.686 1540.878a47.9 47.9 0 00-37.029-21.249"/><path data-name="パス 2271" d="M466.657 1517.016a47.843 47.843 0 0037.029-21.249"/><path data-name="パス 2272" d="M505.778 1497.226a47.834 47.834 0 000 42.194"/><path data-name="パス 2273" d="M505.822 1542.014a49.032 49.032 0 00-41.213-23.669"/><path data-name="パス 2274" d="M505.691 1494.742a49.075 49.075 0 000 47.163"/><path data-name="パス 2275" d="M464.609 1518.301a49.032 49.032 0 0041.213-23.669"/><path data-name="線 118116" d="M506.105 1496.987v-2.027"/><path data-name="線 118117" d="M506.105 1542.079v-2.397"/><path data-name="パス 2276" d="M547.994 1515.512a47.9 47.9 0 00-37.026-21.25"/><path data-name="パス 2277" d="M510.968 1491.647a47.844 47.844 0 0037.029-21.249"/><path data-name="パス 2278" d="M550.086 1471.858a47.834 47.834 0 000 42.194"/><path data-name="パス 2279" d="M550.13 1516.645a49.032 49.032 0 00-41.213-23.667"/><path data-name="パス 2280" d="M549.999 1469.378a49.075 49.075 0 000 47.163"/><path data-name="パス 2281" d="M508.917 1492.933a49.032 49.032 0 0041.213-23.669"/><path data-name="線 118118" d="M549.999 1471.596v-2.397"/><path data-name="線 118119" d="M549.999 1516.318v-2.027"/><path data-name="パス 2282" d="M591.887 1540.878a47.9 47.9 0 00-37.029-21.249"/><path data-name="パス 2283" d="M554.859 1517.016a47.843 47.843 0 0037.029-21.249"/><path data-name="パス 2284" d="M594.368 1497.226a47.834 47.834 0 000 42.194"/><path data-name="パス 2285" d="M594.023 1542.014a49.032 49.032 0 00-41.213-23.669"/><path data-name="パス 2286" d="M594.307 1494.742a49.075 49.075 0 000 47.163"/><path data-name="パス 2287" d="M552.81 1518.301a49.032 49.032 0 0041.213-23.669"/><path data-name="線 118120" d="M594.307 1496.987v-2.027"/><path data-name="線 118121" d="M594.307 1542.079v-2.397"/><path data-name="パス 2288" d="M636.195 1464.36a47.9 47.9 0 00-37.027-21.249"/><path data-name="パス 2289" d="M599.168 1440.888a47.844 47.844 0 0037.029-21.249"/><path data-name="パス 2290" d="M638.288 1420.706a47.834 47.834 0 000 42.194"/><path data-name="パス 2291" d="M638.331 1465.494a49.032 49.032 0 00-41.213-23.669"/><path data-name="パス 2292" d="M638.2 1418.222a49.075 49.075 0 000 47.163"/><path data-name="パス 2293" d="M597.118 1442.178a49.032 49.032 0 0041.213-23.669"/><path data-name="線 118122" d="M638.2 1420.859v-2.419"/><path data-name="線 118123" d="M638.2 1465.559v-2.419"/><path data-name="パス 2294" d="M636.195 1515.512a47.9 47.9 0 00-37.027-21.25"/><path data-name="パス 2295" d="M599.168 1491.647a47.844 47.844 0 0037.029-21.249"/><path data-name="パス 2296" d="M638.288 1471.858a47.834 47.834 0 000 42.194"/><path data-name="パス 2297" d="M638.331 1516.645a49.032 49.032 0 00-41.213-23.667"/><path data-name="パス 2298" d="M638.2 1469.378a49.075 49.075 0 000 47.163"/><path data-name="パス 2299" d="M597.118 1492.933a49.032 49.032 0 0041.213-23.669"/><path data-name="線 118124" d="M638.2 1471.596v-2.397"/><path data-name="線 118125" d="M638.2 1516.318v-2.027"/><path data-name="パス 2300" d="M591.887 1438.992a47.9 47.9 0 00-37.029-21.249"/><path data-name="パス 2301" d="M554.859 1415.127a47.843 47.843 0 0037.028-21.249"/><path data-name="パス 2302" d="M594.368 1395.338a47.834 47.834 0 000 42.194"/><path data-name="パス 2303" d="M594.023 1440.125a49.032 49.032 0 00-41.213-23.669"/><path data-name="パス 2304" d="M594.307 1392.832a49.075 49.075 0 000 47.163"/><path data-name="パス 2305" d="M552.81 1416.413a49.032 49.032 0 0041.213-23.669"/><path data-name="線 118126" d="M594.307 1395.076v-2.005"/><path data-name="線 118127" d="M594.307 1440.19v-2.419"/><path data-name="パス 2306" d="M547.994 1413.601a47.9 47.9 0 00-37.026-21.249"/><path data-name="パス 2307" d="M510.968 1389.737a47.844 47.844 0 0037.026-21.25"/><path data-name="パス 2308" d="M550.086 1369.969a47.834 47.834 0 000 42.194"/><path data-name="パス 2309" d="M550.13 1414.735a49.032 49.032 0 00-41.213-23.669"/><path data-name="パス 2310" d="M549.999 1367.463a49.075 49.075 0 000 47.163"/><path data-name="パス 2311" d="M508.917 1391.023a49.032 49.032 0 0041.213-23.669"/><path data-name="線 118128" d="M549.999 1369.708v-2.419"/><path data-name="線 118129" d="M549.999 1414.822v-2.419"/><path data-name="パス 2312" d="M591.887 1388.233a47.9 47.9 0 00-37.029-21.249"/><path data-name="パス 2313" d="M554.859 1364.368a47.843 47.843 0 0037.029-21.249"/><path data-name="パス 2314" d="M594.368 1344.578a47.834 47.834 0 000 42.194"/><path data-name="パス 2315" d="M594.023 1389.366a49.032 49.032 0 00-41.213-23.668"/><path data-name="パス 2316" d="M594.307 1342.094a49.075 49.075 0 000 47.163"/><path data-name="パス 2317" d="M552.81 1365.654a49.032 49.032 0 0041.213-23.669"/><path data-name="線 118130" d="M594.307 1344.339v-2.419"/><path data-name="線 118131" d="M594.307 1389.039v-2.005"/><path data-name="パス 2318" d="M636.195 1413.601a47.9 47.9 0 00-37.027-21.249"/><path data-name="パス 2319" d="M599.168 1389.737a47.844 47.844 0 0037.029-21.249"/><path data-name="パス 2320" d="M638.288 1369.969a47.834 47.834 0 000 42.194"/><path data-name="パス 2321" d="M638.331 1414.735a49.032 49.032 0 00-41.213-23.669"/><path data-name="パス 2322" d="M638.2 1367.463a49.075 49.075 0 000 47.163"/><path data-name="パス 2323" d="M597.118 1391.023a49.032 49.032 0 0041.213-23.669"/><path data-name="線 118132" d="M638.2 1369.708v-2.419"/><path data-name="線 118133" d="M638.2 1414.822v-2.419"/><path data-name="パス 2324" d="M547.168 1366.983a47.843 47.843 0 00-37.031 21.25"/><path data-name="パス 2325" d="M508.045 1386.773a47.834 47.834 0 000-42.194"/><path data-name="パス 2326" d="M510.137 1343.119a47.9 47.9 0 0037.031 21.249"/><path data-name="パス 2327" d="M549.192 1365.698a49.032 49.032 0 00-41.213 23.668"/><path data-name="パス 2328" d="M507.979 1341.985a49.032 49.032 0 0041.213 23.669"/><path data-name="パス 2329" d="M508.11 1389.257a49.075 49.075 0 000-47.163"/><path data-name="線 118134" d="M508.11 1341.92l2.027 1.199"/><path data-name="線 118135" d="M546.773 1364.477l2.027 1.199"/><path data-name="パス 2330" d="M591.452 1392.352a47.844 47.844 0 00-37.029 21.249"/><path data-name="パス 2331" d="M552.331 1412.141a47.834 47.834 0 000-42.194"/><path data-name="パス 2332" d="M554.423 1368.509a47.9 47.9 0 0037.029 21.249"/><path data-name="パス 2333" d="M593.5 1391.088a49.032 49.032 0 00-41.213 23.669"/><path data-name="パス 2334" d="M552.287 1367.378a49.032 49.032 0 0041.213 23.669"/><path data-name="パス 2335" d="M552.418 1414.648a49.075 49.075 0 000-47.163"/><path data-name="線 118136" d="M552.004 1367.289l2.027 1.22"/><path data-name="線 118137" d="M591.081 1389.846l2.005 1.199"/><path data-name="パス 2336" d="M635.368 1366.983a47.843 47.843 0 00-37.029 21.249"/><path data-name="パス 2337" d="M596.246 1386.773a47.834 47.834 0 000-42.194"/><path data-name="パス 2338" d="M598.339 1343.119a47.9 47.9 0 0037.029 21.249"/><path data-name="パス 2339" d="M637.394 1365.698a49.032 49.032 0 00-41.213 23.669"/><path data-name="パス 2340" d="M596.203 1341.985a49.032 49.032 0 0041.213 23.669"/><path data-name="パス 2341" d="M596.312 1389.257a49.075 49.075 0 000-47.163"/><path data-name="線 118138" d="M596.312 1341.92l2.027 1.199"/><path data-name="線 118139" d="M634.975 1364.477l2.419 1.199"/><path data-name="パス 2342" d="M547.168 1417.742a47.844 47.844 0 00-37.029 21.249"/><path data-name="パス 2343" d="M508.045 1437.532a47.834 47.834 0 000-42.194"/><path data-name="パス 2344" d="M510.137 1393.878a47.9 47.9 0 0037.031 21.249"/><path data-name="パス 2345" d="M549.192 1416.457a49.032 49.032 0 00-41.213 23.669"/><path data-name="パス 2346" d="M507.979 1392.744a49.032 49.032 0 0041.213 23.669"/><path data-name="パス 2347" d="M508.11 1440.016a49.075 49.075 0 000-47.163"/><path data-name="線 118140" d="M508.11 1393.071l2.027.806"/><path data-name="線 118141" d="M546.773 1415.214l2.027 1.22"/><path data-name="パス 2348" d="M503.25 1392.352a47.843 47.843 0 00-37.029 21.249"/><path data-name="パス 2349" d="M464.129 1412.141a47.731 47.731 0 004.9-21.1 47.731 47.731 0 00-4.9-21.1"/><path data-name="パス 2350" d="M466.221 1368.509a47.9 47.9 0 0037.029 21.25"/><path data-name="パス 2351" d="M505.299 1391.088a49.032 49.032 0 00-41.213 23.669"/><path data-name="パス 2352" d="M464.086 1367.378a49.032 49.032 0 0041.213 23.666"/><path data-name="パス 2353" d="M464.216 1414.648a48.918 48.918 0 006.037-23.581 48.918 48.918 0 00-6.037-23.581"/><path data-name="線 118142" d="M463.802 1367.289l2.027 1.22"/><path data-name="線 118143" d="M502.879 1389.846l2.005 1.199"/><path data-name="パス 2354" d="M503.25 1443.111a47.844 47.844 0 00-37.029 21.249"/><path data-name="パス 2355" d="M464.129 1462.9a47.731 47.731 0 004.9-21.1 47.731 47.731 0 00-4.9-21.1"/><path data-name="パス 2356" d="M466.221 1419.66a47.9 47.9 0 0037.029 21.249"/><path data-name="パス 2357" d="M505.299 1441.825a49.032 49.032 0 00-41.213 23.669"/><path data-name="パス 2358" d="M464.086 1418.527a49.032 49.032 0 0041.213 23.669"/><path data-name="パス 2359" d="M464.216 1465.385a48.918 48.918 0 006.037-23.581 48.918 48.918 0 00-6.037-23.581"/><path data-name="線 118144" d="M463.802 1418.44l2.027 1.22"/><path data-name="線 118145" d="M502.879 1440.997l2.005.806"/><path data-name="パス 2360" d="M547.168 1468.478a47.844 47.844 0 00-37.029 21.249"/><path data-name="パス 2361" d="M508.045 1488.678a47.834 47.834 0 000-42.194"/><path data-name="パス 2362" d="M510.137 1445.029a47.9 47.9 0 0037.031 21.249"/><path data-name="パス 2363" d="M549.192 1467.194a49.032 49.032 0 00-41.213 23.669"/><path data-name="パス 2364" d="M507.979 1443.896a49.032 49.032 0 0041.213 23.669"/><path data-name="パス 2365" d="M508.11 1491.167a49.075 49.075 0 000-47.163"/><path data-name="線 118146" d="M508.11 1443.808l2.027 1.22"/><path data-name="線 118147" d="M546.773 1466.366l2.027 1.22"/><path data-name="パス 2366" d="M591.452 1443.111a47.844 47.844 0 00-37.029 21.249"/><path data-name="パス 2367" d="M552.331 1462.9a47.834 47.834 0 000-42.194"/><path data-name="パス 2368" d="M554.423 1419.66a47.9 47.9 0 0037.029 21.249"/><path data-name="パス 2369" d="M593.5 1441.825a49.032 49.032 0 00-41.213 23.669"/><path data-name="パス 2370" d="M552.287 1418.527a49.032 49.032 0 0041.213 23.669"/><path data-name="パス 2371" d="M552.418 1465.385a49.075 49.075 0 000-47.163"/><path data-name="線 118148" d="M552.004 1418.44l2.027 1.22"/><path data-name="線 118149" d="M591.081 1440.997l2.005.806"/><path data-name="パス 2372" d="M635.759 1417.742a47.843 47.843 0 00-37.029 21.249"/><path data-name="パス 2373" d="M596.639 1437.532a47.834 47.834 0 000-42.194"/><path data-name="パス 2374" d="M598.731 1394.27a47.9 47.9 0 0037.029 21.249"/><path data-name="パス 2375" d="M637.808 1416.457a49.032 49.032 0 00-41.213 23.669"/><path data-name="パス 2376" d="M596.595 1393.137a49.032 49.032 0 0041.213 23.668"/><path data-name="パス 2377" d="M596.726 1440.016a49.075 49.075 0 000-47.163"/><path data-name="線 118150" d="M596.312 1393.071l2.027 1.199"/><path data-name="線 118151" d="M635.389 1415.628l2.005.806"/><path data-name="パス 2378" d="M503.25 1494.262a47.843 47.843 0 00-37.029 21.249"/><path data-name="パス 2379" d="M464.129 1514.052a47.731 47.731 0 004.9-21.1 47.731 47.731 0 00-4.9-21.1"/><path data-name="パス 2380" d="M466.221 1470.397a47.9 47.9 0 0037.029 21.249"/><path data-name="パス 2381" d="M505.299 1492.978a49.032 49.032 0 00-41.213 23.669"/><path data-name="パス 2382" d="M464.086 1469.264a49.032 49.032 0 0041.213 23.669"/><path data-name="パス 2383" d="M464.216 1516.536a48.918 48.918 0 006.037-23.581 48.918 48.918 0 00-6.037-23.577"/><path data-name="線 118152" d="M463.802 1469.199l2.027 1.199"/><path data-name="線 118153" d="M502.879 1491.734l2.005 1.22"/><path data-name="パス 2384" d="M547.168 1519.631a47.843 47.843 0 00-37.031 21.247"/><path data-name="パス 2385" d="M508.045 1539.42a47.834 47.834 0 000-42.194"/><path data-name="パス 2386" d="M510.137 1495.766a47.9 47.9 0 0037.031 21.25"/><path data-name="パス 2387" d="M549.192 1518.345a49.032 49.032 0 00-41.213 23.669"/><path data-name="パス 2388" d="M507.979 1494.633a49.032 49.032 0 0041.213 23.669"/><path data-name="パス 2389" d="M508.11 1541.905a49.075 49.075 0 000-47.163"/><path data-name="線 118154" d="M508.11 1494.96l2.027.806"/><path data-name="線 118155" d="M546.773 1517.125l2.027 1.199"/><path data-name="パス 2390" d="M591.452 1494.262a47.843 47.843 0 00-37.029 21.249"/><path data-name="パス 2391" d="M552.331 1514.052a47.834 47.834 0 000-42.194"/><path data-name="パス 2392" d="M554.423 1470.397a47.9 47.9 0 0037.029 21.249"/><path data-name="パス 2393" d="M593.5 1492.978a49.032 49.032 0 00-41.213 23.669"/><path data-name="パス 2394" d="M552.287 1469.264a49.032 49.032 0 0041.213 23.669"/><path data-name="パス 2395" d="M552.418 1516.536a49.075 49.075 0 000-47.163"/><path data-name="線 118156" d="M552.004 1469.199l2.027 1.199"/><path data-name="線 118157" d="M591.081 1491.734l2.005 1.22"/><path data-name="パス 2396" d="M635.368 1519.631a47.843 47.843 0 00-37.029 21.247"/><path data-name="パス 2397" d="M596.246 1539.42a47.834 47.834 0 000-42.194"/><path data-name="パス 2398" d="M598.339 1495.766a47.9 47.9 0 0037.029 21.25"/><path data-name="パス 2399" d="M637.394 1518.345a49.032 49.032 0 00-41.213 23.669"/><path data-name="パス 2400" d="M596.203 1494.633a49.032 49.032 0 0041.213 23.669"/><path data-name="パス 2401" d="M596.312 1541.905a49.075 49.075 0 000-47.163"/><path data-name="線 118158" d="M596.312 1494.96l2.027.806"/><path data-name="線 118159" d="M634.975 1517.125l2.419 1.199"/><path data-name="線 118160" d="M595.113 1443.416l2.005.806"/><path data-name="線 118161" d="M634.168 1465.559l2.027 1.22"/><path data-name="パス 2402" d="M635.368 1468.478a47.844 47.844 0 00-37.029 21.249"/><path data-name="パス 2403" d="M596.246 1488.678a47.834 47.834 0 000-42.194"/><path data-name="パス 2404" d="M598.339 1445.029a47.9 47.9 0 0037.029 21.249"/><path data-name="パス 2405" d="M637.394 1467.194a49.032 49.032 0 00-41.213 23.669"/><path data-name="パス 2406" d="M596.203 1443.896a49.032 49.032 0 0041.213 23.669"/><path data-name="パス 2407" d="M596.312 1491.167a49.075 49.075 0 000-47.163"/><path data-name="線 118162" d="M596.312 1443.808l2.027 1.22"/><path data-name="線 118163" d="M634.975 1466.366l2.419 1.22"/><path data-name="パス 2408" d="M591.887 1489.729a47.9 47.9 0 00-37.028-21.251"/><path data-name="パス 2409" d="M554.859 1466.278a47.843 47.843 0 0037.029-21.249"/><path data-name="パス 2410" d="M594.368 1446.489a47.834 47.834 0 000 42.194"/><path data-name="パス 2411" d="M594.023 1490.862a49.032 49.032 0 00-41.213-23.669"/><path data-name="パス 2412" d="M594.307 1443.978a49.075 49.075 0 000 47.163"/><path data-name="パス 2413" d="M552.81 1467.542a49.032 49.032 0 0041.213-23.664"/><path data-name="線 118164" d="M594.307 1446.227v-2.419"/><path data-name="線 118165" d="M594.307 1490.927v-2.397"/></g></g></svg>