<svg xmlns="http://www.w3.org/2000/svg" width="200" height="230"><defs><clipPath id="a"><path data-name="長方形 180" transform="translate(450 1327)" fill="#ccc" d="M0 0h200v230H0z"/></clipPath></defs><g data-name="マスクグループ 592" transform="translate(-450 -1327)" clip-path="url(#a)"><g data-name="グループ 3462" fill="none" stroke="#c59535" stroke-linecap="round" stroke-linejoin="round" stroke-width="1.308"><path data-name="線 126774" d="M483.943 1395.812l2.027 2.419"/><path data-name="線 126775" d="M638.201 1353.924H461.8"/><path data-name="線 126776" d="M649.076 1343.463H450.925"/><path data-name="線 126777" d="M450.925 1343.463l10.875 10.461"/><path data-name="線 126778" d="M638.201 1353.924l10.875-10.461"/><path data-name="線 126779" d="M483.943 1353.924h0"/><path data-name="線 126780" d="M483.943 1353.924h0"/><path data-name="線 126781" d="M483.943 1353.924h0"/><path data-name="線 126782" d="M483.943 1353.924h0"/><path data-name="線 126783" d="M483.943 1353.924h0"/><path data-name="線 126784" d="M483.943 1356.343l-2.005-2.419"/><path data-name="線 126785" d="M483.943 1353.924h0"/><path data-name="パス 2414" d="M503.579 1374.04a19.763 19.763 0 00-17.588-17.588"/><path data-name="パス 2415" d="M484.052 1355.973a22.142 22.142 0 0020.007 20.006"/><path data-name="パス 2416" d="M486.471 1355.973a19.763 19.763 0 0017.588 17.587"/><path data-name="線 126786" d="M483.943 1353.924l2.419 2.419"/><path data-name="線 126787" d="M506.107 1376.088h0"/><path data-name="線 126788" d="M506.107 1376.088h0"/><path data-name="線 126789" d="M506.107 1376.088h0"/><path data-name="線 126790" d="M506.107 1376.088h0"/><path data-name="線 126791" d="M506.107 1376.088h0"/><path data-name="線 126792" d="M506.107 1376.088h0"/><path data-name="線 126793" d="M506.107 1376.088h0"/><path data-name="線 126794" d="M506.107 1376.088h0"/><path data-name="線 126795" d="M506.107 1376.088h0"/><path data-name="線 126796" d="M506.107 1376.088h0"/><path data-name="線 126797" d="M506.107 1376.088h0"/><path data-name="線 126798" d="M503.688 1376.088h0"/><path data-name="線 126799" d="M503.688 1376.088h0"/><path data-name="線 126800" d="M504.08 1376.088h-.392"/><path data-name="線 126801" d="M506.107 1374.062h0"/><path data-name="線 126802" d="M505.693 1374.062h0"/><path data-name="線 126803" d="M505.693 1374.062h0"/><path data-name="線 126804" d="M506.107 1378.093h-.414"/><path data-name="線 126805" d="M506.107 1378.093h0"/><path data-name="線 126806" d="M506.107 1378.093h0"/><path data-name="線 126807" d="M505.693 1378.093h0"/><path data-name="線 126808" d="M505.693 1378.093h0"/><path data-name="線 126809" d="M481.938 1354.338v-.414"/><path data-name="線 126810" d="M483.943 1356.343v-.392"/><path data-name="パス 2417" d="M463.849 1373.56a19.763 19.763 0 0017.587-17.587"/><path data-name="パス 2418" d="M481.916 1356.452a19.763 19.763 0 00-17.588 17.588"/><path data-name="パス 2419" d="M481.916 1354.033a22.142 22.142 0 00-20.007 20.007"/><path data-name="線 126811" d="M461.8 1376.088h0"/><path data-name="線 126812" d="M461.8 1376.088h0"/><path data-name="線 126813" d="M461.8 1378.093h0"/><path data-name="線 126814" d="M461.8 1374.062h0"/><path data-name="線 126815" d="M461.8 1376.088h0"/><path data-name="線 126816" d="M461.8 1376.088h0"/><path data-name="線 126817" d="M461.8 1376.088h0"/><path data-name="線 126818" d="M461.8 1376.088h0"/><path data-name="パス 2420" d="M463.849 1375.979a22.142 22.142 0 0020.007-20.006"/><path data-name="線 126819" d="M464.219 1376.089l-2.419-2.027"/><path data-name="線 126820" d="M461.8 1376.088h0"/><path data-name="線 126821" d="M464.219 1376.088h-.414"/><path data-name="パス 2421" d="M481.436 1396.209a19.763 19.763 0 00-17.587-17.592"/><path data-name="パス 2422" d="M464.306 1378.115a19.763 19.763 0 0017.588 17.588"/><path data-name="パス 2423" d="M504.059 1378.595a19.763 19.763 0 00-17.588 17.588"/><path data-name="パス 2424" d="M485.991 1395.725a19.763 19.763 0 0017.588-17.588"/><path data-name="パス 2425" d="M461.909 1378.115a22.142 22.142 0 0020.007 20.007"/><path data-name="線 126822" d="M481.938 1398.231h0"/><path data-name="線 126823" d="M485.97 1398.231h0"/><path data-name="線 126824" d="M483.943 1398.231h0"/><path data-name="線 126825" d="M483.943 1398.231h0"/><path data-name="パス 2426" d="M485.991 1398.144a22.142 22.142 0 0020.007-20.007"/><path data-name="パス 2427" d="M483.856 1396.209a22.142 22.142 0 00-20.007-20.012"/><path data-name="パス 2428" d="M504.059 1376.176a22.142 22.142 0 00-20.007 20.007"/><path data-name="線 126826" d="M483.943 1398.231h0"/><path data-name="線 126827" d="M483.943 1398.231h0"/><path data-name="線 126828" d="M483.943 1395.812v.414"/><path data-name="線 126829" d="M483.943 1398.231h0"/><path data-name="線 126830" d="M482.744 1355.144l-1.22 1.199"/><path data-name="線 126831" d="M464.219 1373.669l-1.22 1.613"/><path data-name="線 126832" d="M461.8 1376.088l2.419 2.419"/><path data-name="線 126833" d="M481.524 1395.812l2.419 2.419"/><path data-name="線 126834" d="M503.688 1378.508h0"/><path data-name="線 126835" d="M486.362 1395.812l-1.199 1.22"/><path data-name="線 126836" d="M503.688 1376.088l2.419 2.005"/><path data-name="線 126837" d="M505.693 1374.062h.414"/><path data-name="線 126838" d="M506.107 1378.093h0"/><path data-name="線 126839" d="M506.107 1378.093h0"/><path data-name="線 126840" d="M506.107 1376.088h0"/><path data-name="線 126841" d="M506.107 1376.088h0"/><path data-name="線 126842" d="M506.107 1378.093h0"/><path data-name="線 126843" d="M506.107 1374.062h0"/><path data-name="線 126844" d="M506.107 1376.088h0"/><path data-name="線 126845" d="M506.107 1376.088h0"/><path data-name="線 126846" d="M506.107 1376.088h0"/><path data-name="線 126847" d="M506.107 1376.088h0"/><path data-name="線 126848" d="M506.107 1376.088h0"/><path data-name="パス 2429" d="M505.998 1374.04a22.142 22.142 0 00-20.007-20.007"/><path data-name="線 126849" d="M485.97 1354.338v-.414"/><path data-name="線 126850" d="M483.943 1353.924l2.419 2.419"/><path data-name="線 126851" d="M503.688 1373.669l2.419 2.419"/><path data-name="線 126852" d="M506.107 1374.062h-.414"/><path data-name="線 126853" d="M506.107 1378.093h0"/><path data-name="線 126854" d="M506.107 1378.093h0"/><path data-name="線 126855" d="M527.858 1395.812l2.419 2.419"/><path data-name="線 126856" d="M527.858 1353.924h0"/><path data-name="線 126857" d="M527.858 1353.924h0"/><path data-name="線 126858" d="M527.858 1353.924h0"/><path data-name="線 126859" d="M527.858 1353.924h0"/><path data-name="線 126860" d="M527.858 1353.924h0"/><path data-name="線 126861" d="M528.25 1356.343l-2.419-2.419"/><path data-name="線 126862" d="M527.858 1353.924h0"/><path data-name="パス 2430" d="M547.494 1374.04a19.763 19.763 0 00-17.588-17.588"/><path data-name="パス 2431" d="M527.945 1355.973a22.143 22.143 0 0020.007 20.006"/><path data-name="パス 2432" d="M530.364 1355.973a19.763 19.763 0 0017.588 17.587"/><path data-name="線 126863" d="M527.858 1353.924l2.419 2.419"/><path data-name="線 126864" d="M550 1376.088h0"/><path data-name="線 126865" d="M550 1376.088h0"/><path data-name="線 126866" d="M550 1376.088h0"/><path data-name="線 126867" d="M550 1376.088h0"/><path data-name="線 126868" d="M550 1376.088h0"/><path data-name="線 126869" d="M550 1376.088h0"/><path data-name="線 126870" d="M550 1376.088h0"/><path data-name="線 126871" d="M550 1376.088h0"/><path data-name="線 126872" d="M550 1376.088h0"/><path data-name="線 126873" d="M550 1376.088h0"/><path data-name="線 126874" d="M550 1376.088h0"/><path data-name="線 126875" d="M547.995 1376.088h0"/><path data-name="線 126876" d="M547.995 1376.088h0"/><path data-name="線 126877" d="M547.995 1376.088h0"/><path data-name="線 126878" d="M550.414 1374.062H550"/><path data-name="線 126879" d="M550 1374.062h0"/><path data-name="線 126880" d="M550 1374.062h0"/><path data-name="線 126881" d="M550 1378.093h0"/><path data-name="線 126882" d="M550.414 1378.093h0"/><path data-name="線 126883" d="M550.414 1378.093h0"/><path data-name="線 126884" d="M550 1378.093h0"/><path data-name="線 126885" d="M550 1378.093h0"/><path data-name="線 126886" d="M525.831 1354.338v-.414"/><path data-name="線 126887" d="M527.858 1356.343v-.392"/><path data-name="パス 2433" d="M508.134 1373.56a19.763 19.763 0 0017.588-17.587"/><path data-name="パス 2434" d="M525.809 1356.452a19.763 19.763 0 00-17.588 17.588"/><path data-name="パス 2435" d="M525.809 1354.033a22.142 22.142 0 00-20.007 20.007"/><path data-name="線 126888" d="M506.107 1376.088h0"/><path data-name="線 126889" d="M506.107 1376.088h0"/><path data-name="線 126890" d="M506.107 1378.093h0"/><path data-name="線 126891" d="M506.107 1374.062h0"/><path data-name="線 126892" d="M506.107 1376.088h0"/><path data-name="線 126893" d="M506.107 1376.088h0"/><path data-name="線 126894" d="M506.107 1376.088h0"/><path data-name="線 126895" d="M506.107 1376.088h0"/><path data-name="パス 2436" d="M508.134 1375.979a22.142 22.142 0 0020.007-20.006"/><path data-name="線 126896" d="M508.112 1376.089l-2.005-2.027"/><path data-name="線 126897" d="M506.107 1376.088h0"/><path data-name="線 126898" d="M508.112 1376.088h0"/><path data-name="パス 2437" d="M525.744 1396.209a19.763 19.763 0 00-17.588-17.592"/><path data-name="パス 2438" d="M508.221 1378.115a19.763 19.763 0 0017.588 17.588"/><path data-name="パス 2439" d="M547.971 1378.595a19.763 19.763 0 00-17.585 17.588"/><path data-name="パス 2440" d="M529.884 1395.725a19.763 19.763 0 0017.587-17.588"/><path data-name="パス 2441" d="M505.802 1378.115a22.142 22.142 0 0020.007 20.007"/><path data-name="線 126899" d="M525.831 1398.231h0"/><path data-name="線 126900" d="M530.277 1398.231h0"/><path data-name="線 126901" d="M527.858 1398.231h0"/><path data-name="線 126902" d="M527.858 1398.231h0"/><path data-name="パス 2442" d="M529.884 1398.144a22.142 22.142 0 0020.007-20.007"/><path data-name="パス 2443" d="M528.163 1396.209a22.143 22.143 0 00-20.007-20.012"/><path data-name="パス 2444" d="M547.971 1376.176a22.142 22.142 0 00-20 20.007"/><path data-name="線 126903" d="M527.858 1398.231h0"/><path data-name="線 126904" d="M527.858 1398.231h0"/><path data-name="線 126905" d="M528.25 1395.812l-.392.414"/><path data-name="線 126906" d="M527.858 1398.231h0"/><path data-name="線 126907" d="M527.051 1355.144l-1.22 1.199"/><path data-name="線 126908" d="M508.113 1373.669l-1.199 1.613"/><path data-name="線 126909" d="M506.107 1376.088l2.005 2.419"/><path data-name="線 126910" d="M525.831 1395.812l2.027 2.419"/><path data-name="線 126911" d="M547.995 1378.508h0"/><path data-name="線 126912" d="M530.276 1395.812l-1.22 1.22"/><path data-name="線 126913" d="M547.995 1376.088l2.419 2.005"/><path data-name="線 126914" d="M550 1374.062h0"/><path data-name="線 126915" d="M550.414 1378.093h0"/><path data-name="線 126916" d="M550.414 1378.093h0"/><path data-name="線 126917" d="M550 1376.088h0"/><path data-name="線 126918" d="M550 1376.088h0"/><path data-name="線 126919" d="M550.414 1378.093H550"/><path data-name="線 126920" d="M550.414 1374.062H550"/><path data-name="線 126921" d="M550 1376.088h0"/><path data-name="線 126922" d="M550 1376.088h0"/><path data-name="線 126923" d="M550 1376.088h0"/><path data-name="線 126924" d="M550 1376.088h0"/><path data-name="線 126925" d="M550 1376.088h0"/><path data-name="パス 2445" d="M549.891 1374.04a22.143 22.143 0 00-20.007-20.007"/><path data-name="線 126926" d="M530.277 1354.338v-.414"/><path data-name="線 126927" d="M527.858 1353.924l2.419 2.419"/><path data-name="線 126928" d="M547.995 1373.669l2.005 2.419"/><path data-name="線 126929" d="M550 1374.062h0"/><path data-name="線 126930" d="M550.414 1378.093h0"/><path data-name="線 126931" d="M550.414 1378.093h0"/><path data-name="線 126932" d="M572.143 1396.226l2.027 2.005"/><path data-name="線 126933" d="M572.143 1353.924h0"/><path data-name="線 126934" d="M572.143 1353.924h0"/><path data-name="線 126935" d="M572.143 1353.924h0"/><path data-name="線 126936" d="M572.143 1353.924h0"/><path data-name="線 126937" d="M572.143 1353.924h0"/><path data-name="線 126938" d="M572.143 1356.343l-2.005-2.419"/><path data-name="線 126939" d="M572.143 1353.924h0"/><path data-name="パス 2446" d="M591.779 1374.04a19.763 19.763 0 00-17.588-17.588"/><path data-name="パス 2447" d="M572.252 1355.973a22.142 22.142 0 0020.007 20.006"/><path data-name="パス 2448" d="M574.671 1355.973a19.763 19.763 0 0017.588 17.588"/><path data-name="線 126940" d="M572.143 1353.924l2.419 2.419"/><path data-name="線 126941" d="M594.308 1376.088h0"/><path data-name="線 126942" d="M594.308 1376.088h0"/><path data-name="線 126943" d="M594.308 1376.088h0"/><path data-name="線 126944" d="M594.308 1376.088h0"/><path data-name="線 126945" d="M594.308 1376.088h0"/><path data-name="線 126946" d="M594.308 1376.088h0"/><path data-name="線 126947" d="M594.308 1376.088h0"/><path data-name="線 126948" d="M594.308 1376.088h0"/><path data-name="線 126949" d="M594.308 1376.088h0"/><path data-name="線 126950" d="M594.308 1376.088h0"/><path data-name="線 126951" d="M594.308 1376.088h0"/><path data-name="線 126952" d="M591.888 1376.088h0"/><path data-name="線 126953" d="M591.888 1376.088h0"/><path data-name="線 126954" d="M592.28 1376.088h-.392"/><path data-name="線 126955" d="M594.308 1374.062h0"/><path data-name="線 126956" d="M593.893 1374.062h0"/><path data-name="線 126957" d="M593.893 1374.062h0"/><path data-name="線 126958" d="M594.307 1378.093h-.414"/><path data-name="線 126959" d="M594.308 1378.093h0"/><path data-name="線 126960" d="M594.308 1378.093h0"/><path data-name="線 126961" d="M594.307 1378.093h-.414"/><path data-name="線 126962" d="M593.893 1378.093h0"/><path data-name="線 126963" d="M570.138 1354.338v-.414"/><path data-name="線 126964" d="M572.143 1356.343v-.392"/><path data-name="パス 2449" d="M552.049 1373.56a19.763 19.763 0 0017.588-17.588"/><path data-name="パス 2450" d="M570.116 1356.452a19.763 19.763 0 00-17.588 17.588"/><path data-name="パス 2451" d="M570.116 1354.033a22.142 22.142 0 00-20.007 20.007"/><path data-name="線 126965" d="M550 1376.088h0"/><path data-name="線 126966" d="M550 1376.088h0"/><path data-name="線 126967" d="M550.414 1378.093H550"/><path data-name="線 126968" d="M550.414 1374.062H550"/><path data-name="線 126969" d="M550 1376.088h0"/><path data-name="線 126970" d="M550 1376.088h0"/><path data-name="線 126971" d="M550 1376.088h0"/><path data-name="線 126972" d="M550 1376.088h0"/><path data-name="パス 2452" d="M552.049 1375.979a22.142 22.142 0 0020.007-20.007"/><path data-name="線 126973" d="M552.419 1376.089l-2.419-2.027"/><path data-name="線 126974" d="M550 1376.088h0"/><path data-name="線 126975" d="M552.419 1376.088h-.414"/><path data-name="パス 2453" d="M569.637 1396.209a19.763 19.763 0 00-17.588-17.588"/><path data-name="パス 2454" d="M552.528 1378.115a19.763 19.763 0 0017.588 17.588"/><path data-name="パス 2455" d="M592.259 1378.595a19.763 19.763 0 00-17.588 17.588"/><path data-name="パス 2456" d="M574.192 1395.725a19.763 19.763 0 0017.588-17.588"/><path data-name="パス 2457" d="M550.109 1378.115a22.143 22.143 0 0020.007 20.007"/><path data-name="線 126976" d="M570.138 1398.231h0"/><path data-name="線 126977" d="M574.17 1398.231h0"/><path data-name="線 126978" d="M572.143 1398.231h0"/><path data-name="線 126979" d="M572.143 1398.231h0"/><path data-name="パス 2458" d="M574.192 1398.144a22.143 22.143 0 0020.007-20.007"/><path data-name="パス 2459" d="M572.056 1396.209a22.143 22.143 0 00-20.007-20.007"/><path data-name="パス 2460" d="M592.259 1376.176a22.142 22.142 0 00-20.007 20.007"/><path data-name="線 126980" d="M572.143 1398.231h0"/><path data-name="線 126981" d="M572.143 1398.231h0"/><path data-name="線 126982" d="M572.143 1396.226h0"/><path data-name="線 126983" d="M572.143 1398.231h0"/><path data-name="線 126984" d="M570.945 1355.144l-1.199 1.199"/><path data-name="線 126985" d="M552.42 1373.669l-1.199 1.613"/><path data-name="線 126986" d="M550 1376.088l2.419 2.419"/><path data-name="線 126987" d="M569.746 1395.812l2.397 2.419"/><path data-name="線 126988" d="M591.888 1378.508h0"/><path data-name="線 126989" d="M574.563 1395.812l-1.199 1.22"/><path data-name="線 126990" d="M591.888 1376.088l2.419 2.005"/><path data-name="線 126991" d="M593.893 1374.062h.414"/><path data-name="線 126992" d="M594.308 1378.093h0"/><path data-name="線 126993" d="M594.308 1378.093h0"/><path data-name="線 126994" d="M594.308 1376.088h0"/><path data-name="線 126995" d="M594.308 1376.088h0"/><path data-name="線 126996" d="M594.308 1378.093h0"/><path data-name="線 126997" d="M594.308 1374.062h0"/><path data-name="線 126998" d="M594.308 1376.088h0"/><path data-name="線 126999" d="M594.308 1376.088h0"/><path data-name="線 127000" d="M594.308 1376.088h0"/><path data-name="線 127001" d="M594.308 1376.088h0"/><path data-name="線 127002" d="M594.308 1376.088h0"/><path data-name="パス 2461" d="M594.199 1374.04a22.142 22.142 0 00-20.007-20.007"/><path data-name="線 127003" d="M574.17 1354.338v-.414"/><path data-name="線 127004" d="M572.143 1353.924l2.419 2.419"/><path data-name="線 127005" d="M591.888 1373.669l2.419 2.419"/><path data-name="線 127006" d="M594.307 1374.062h-.414"/><path data-name="線 127007" d="M594.308 1378.093h0"/><path data-name="線 127008" d="M594.308 1378.093h0"/><path data-name="線 127009" d="M616.058 1396.226l2.419 2.005"/><path data-name="線 127010" d="M616.058 1353.924h0"/><path data-name="線 127011" d="M616.058 1353.924h0"/><path data-name="線 127012" d="M616.45 1353.924h0"/><path data-name="線 127013" d="M616.45 1353.924h-.392"/><path data-name="線 127014" d="M616.058 1353.924h0"/><path data-name="線 127015" d="M616.45 1356.343l-2.419-2.419"/><path data-name="線 127016" d="M616.45 1353.924h-.392"/><path data-name="パス 2462" d="M636.087 1374.04a19.763 19.763 0 00-17.588-17.588"/><path data-name="パス 2463" d="M616.145 1355.973a22.142 22.142 0 0020.007 20.006"/><path data-name="パス 2464" d="M618.564 1355.973a19.763 19.763 0 0017.588 17.588"/><path data-name="線 127017" d="M616.45 1353.924l2.027 2.419"/><path data-name="線 127018" d="M638.201 1376.088h0"/><path data-name="線 127019" d="M638.201 1376.088h0"/><path data-name="線 127020" d="M638.201 1376.088h0"/><path data-name="線 127021" d="M638.201 1376.088h0"/><path data-name="線 127022" d="M638.201 1376.088h0"/><path data-name="線 127023" d="M638.201 1376.088h0"/><path data-name="線 127024" d="M638.201 1376.088h0"/><path data-name="線 127025" d="M638.201 1376.088h0"/><path data-name="線 127026" d="M638.201 1376.088h0"/><path data-name="線 127027" d="M638.201 1376.088h0"/><path data-name="線 127028" d="M638.201 1376.088h0"/><path data-name="線 127029" d="M636.196 1376.088h0"/><path data-name="線 127030" d="M636.196 1376.088h0"/><path data-name="線 127031" d="M636.196 1376.088h0"/><path data-name="線 127032" d="M638.615 1374.062h-.414"/><path data-name="線 127033" d="M638.201 1374.062h0"/><path data-name="線 127034" d="M638.201 1374.062h0"/><path data-name="線 127035" d="M638.201 1378.093h0"/><path data-name="線 127036" d="M638.615 1378.093h0"/><path data-name="線 127037" d="M638.615 1378.093h0"/><path data-name="線 127038" d="M638.201 1378.093h0"/><path data-name="線 127039" d="M638.201 1378.093h0"/><path data-name="線 127040" d="M614.031 1354.338v-.414"/><path data-name="線 127041" d="M616.058 1356.343l.392-.392"/><path data-name="パス 2465" d="M596.334 1373.56a19.763 19.763 0 0017.588-17.588"/><path data-name="パス 2466" d="M614.423 1356.452a19.763 19.763 0 00-17.588 17.588"/><path data-name="パス 2467" d="M614.423 1354.033a22.142 22.142 0 00-20.007 20.007"/><path data-name="線 127042" d="M594.308 1376.088h0"/><path data-name="線 127043" d="M594.308 1376.088h0"/><path data-name="線 127044" d="M594.308 1378.093h0"/><path data-name="線 127045" d="M594.308 1374.062h0"/><path data-name="線 127046" d="M594.308 1376.088h0"/><path data-name="線 127047" d="M594.308 1376.088h0"/><path data-name="線 127048" d="M594.308 1376.088h0"/><path data-name="線 127049" d="M594.308 1376.088h0"/><path data-name="パス 2468" d="M596.334 1375.979a22.142 22.142 0 0020.007-20.006"/><path data-name="線 127050" d="M596.313 1376.089l-2.005-2.027"/><path data-name="線 127051" d="M594.308 1376.088h0"/><path data-name="線 127052" d="M596.313 1376.088h0"/><path data-name="パス 2469" d="M613.944 1396.209a19.763 19.763 0 00-17.588-17.588"/><path data-name="パス 2470" d="M596.814 1378.115a19.763 19.763 0 0017.588 17.588"/><path data-name="パス 2471" d="M636.171 1378.595a19.763 19.763 0 00-17.588 17.588"/><path data-name="パス 2472" d="M618.499 1395.725a19.763 19.763 0 0017.588-17.588"/><path data-name="パス 2473" d="M594.417 1378.115a22.142 22.142 0 0020.007 20.007"/><path data-name="線 127053" d="M614.031 1398.231h0"/><path data-name="線 127054" d="M618.477 1398.231h0"/><path data-name="線 127055" d="M616.058 1398.231h.392"/><path data-name="線 127056" d="M616.45 1398.231h0"/><path data-name="パス 2474" d="M618.499 1398.144a22.142 22.142 0 0020.007-20.007"/><path data-name="パス 2475" d="M616.363 1396.209a22.142 22.142 0 00-20.007-20.007"/><path data-name="パス 2476" d="M636.171 1376.176a22.142 22.142 0 00-20 20.007"/><path data-name="線 127057" d="M616.45 1398.231h0"/><path data-name="線 127058" d="M616.45 1398.231h0"/><path data-name="線 127059" d="M616.45 1396.226h0"/><path data-name="線 127060" d="M616.45 1398.231h0"/><path data-name="線 127061" d="M615.251 1355.144l-1.22 1.199"/><path data-name="線 127062" d="M596.313 1373.669l-1.199 1.613"/><path data-name="線 127063" d="M594.308 1376.088l2.005 2.419"/><path data-name="線 127064" d="M614.031 1395.812l2.419 2.419"/><path data-name="線 127065" d="M636.196 1378.508h0"/><path data-name="線 127066" d="M618.477 1395.812l-1.22 1.22"/><path data-name="線 127067" d="M636.196 1376.088l2.419 2.005"/><path data-name="線 127068" d="M638.201 1374.062h0"/><path data-name="線 127069" d="M638.615 1378.093h0"/><path data-name="線 127070" d="M638.615 1378.093h0"/><path data-name="線 127071" d="M638.201 1376.088h0"/><path data-name="線 127072" d="M638.201 1376.088h0"/><path data-name="線 127073" d="M638.615 1378.093h-.414"/><path data-name="線 127074" d="M638.615 1374.062h-.414"/><path data-name="線 127075" d="M638.201 1376.088h0"/><path data-name="線 127076" d="M638.201 1376.088h0"/><path data-name="線 127077" d="M638.201 1376.088h0"/><path data-name="線 127078" d="M638.201 1376.088h0"/><path data-name="線 127079" d="M638.201 1376.088h0"/><path data-name="パス 2477" d="M638.506 1374.04a22.142 22.142 0 00-20.007-20.007"/><path data-name="線 127080" d="M618.477 1354.338v-.414"/><path data-name="線 127081" d="M616.45 1353.924l2.027 2.419"/><path data-name="線 127082" d="M636.196 1373.669l2.005 2.419"/><path data-name="線 127083" d="M638.201 1374.062h0"/><path data-name="線 127084" d="M638.615 1378.093h0"/><path data-name="線 127085" d="M638.615 1378.093h0"/><path data-name="線 127086" d="M483.943 1439.727l2.027 2.005"/><path data-name="線 127087" d="M483.943 1398.231h0"/><path data-name="線 127088" d="M483.943 1398.231h0"/><path data-name="線 127089" d="M483.943 1398.231h0"/><path data-name="線 127090" d="M483.943 1398.231h0"/><path data-name="線 127091" d="M483.943 1398.231h0"/><path data-name="線 127092" d="M483.943 1400.258l-2.005-2.027"/><path data-name="線 127093" d="M483.943 1398.231h0"/><path data-name="パス 2478" d="M503.579 1417.955a19.763 19.763 0 00-17.588-17.588"/><path data-name="パス 2479" d="M484.052 1400.28a22.143 22.143 0 0020.007 20.007"/><path data-name="パス 2480" d="M486.471 1400.28a19.763 19.763 0 0017.588 17.588"/><path data-name="線 127094" d="M483.943 1398.231l2.419 2.419"/><path data-name="線 127095" d="M506.107 1419.982h0"/><path data-name="線 127096" d="M506.107 1419.982h0"/><path data-name="線 127097" d="M506.107 1419.982h0"/><path data-name="線 127098" d="M506.107 1419.982h0"/><path data-name="線 127099" d="M506.107 1419.982h0"/><path data-name="線 127100" d="M506.107 1419.982h0"/><path data-name="線 127101" d="M506.107 1419.982h0"/><path data-name="線 127102" d="M506.107 1419.982h0"/><path data-name="線 127103" d="M506.107 1419.982h0"/><path data-name="線 127104" d="M506.107 1419.982h0"/><path data-name="線 127105" d="M506.107 1419.982h0"/><path data-name="線 127106" d="M503.688 1419.589h0"/><path data-name="線 127107" d="M503.688 1419.589h0"/><path data-name="線 127108" d="M504.08 1419.982h-.392"/><path data-name="線 127109" d="M506.107 1417.562v.414"/><path data-name="線 127110" d="M505.693 1417.562h0"/><path data-name="線 127111" d="M505.693 1417.562h0"/><path data-name="線 127112" d="M506.107 1422.008h-.414"/><path data-name="線 127113" d="M506.107 1422.008h0"/><path data-name="線 127114" d="M506.107 1422.008h0"/><path data-name="線 127115" d="M505.693 1422.008h0"/><path data-name="線 127116" d="M505.693 1422.008h0"/><path data-name="線 127117" d="M481.938 1398.231h0"/><path data-name="線 127118" d="M483.943 1400.258h0"/><path data-name="パス 2481" d="M463.849 1417.868a19.763 19.763 0 0017.587-17.588"/><path data-name="パス 2482" d="M481.916 1400.345a19.763 19.763 0 00-17.588 17.588"/><path data-name="パス 2483" d="M481.916 1397.926a22.142 22.142 0 00-20.007 20.007"/><path data-name="線 127119" d="M461.8 1419.982h0"/><path data-name="線 127120" d="M461.8 1419.982h0"/><path data-name="線 127121" d="M461.8 1422.008h0"/><path data-name="線 127122" d="M461.8 1417.562v.414"/><path data-name="線 127123" d="M461.8 1419.982h0"/><path data-name="線 127124" d="M461.8 1419.982h0"/><path data-name="線 127125" d="M461.8 1419.982h0"/><path data-name="線 127126" d="M461.8 1419.982h0"/><path data-name="パス 2484" d="M463.849 1420.287a22.142 22.142 0 0020.007-20.007"/><path data-name="線 127127" d="M464.219 1419.982l-2.419-2.005"/><path data-name="線 127128" d="M461.8 1419.982h0"/><path data-name="線 127129" d="M464.219 1419.589l-.414.392"/><path data-name="パス 2485" d="M481.436 1439.709a19.763 19.763 0 00-17.587-17.592"/><path data-name="パス 2486" d="M464.306 1422.03a19.763 19.763 0 0017.588 17.588"/><path data-name="パス 2487" d="M504.059 1422.096a19.763 19.763 0 00-17.588 17.587"/><path data-name="パス 2488" d="M485.991 1439.618a19.763 19.763 0 0017.588-17.588"/><path data-name="パス 2489" d="M461.909 1422.03a22.142 22.142 0 0020.007 20.007"/><path data-name="線 127130" d="M481.938 1441.732h0"/><path data-name="線 127131" d="M485.97 1441.732h0"/><path data-name="線 127132" d="M483.943 1441.732h0"/><path data-name="線 127133" d="M483.943 1441.732h0"/><path data-name="パス 2490" d="M485.991 1442.037a22.142 22.142 0 0020.007-20.007"/><path data-name="パス 2491" d="M483.856 1439.709a22.142 22.142 0 00-20.007-20.011"/><path data-name="パス 2492" d="M504.059 1419.676a22.142 22.142 0 00-20.007 20.007"/><path data-name="線 127134" d="M483.943 1441.732h0"/><path data-name="線 127135" d="M483.943 1441.732h0"/><path data-name="線 127136" d="M483.943 1439.727h0"/><path data-name="線 127137" d="M483.943 1441.732h0"/><path data-name="線 127138" d="M482.744 1399.038l-1.22 1.613"/><path data-name="線 127139" d="M464.219 1417.562l-1.22 1.22"/><path data-name="線 127140" d="M461.8 1419.982l2.419 2.027"/><path data-name="線 127141" d="M481.524 1439.727l2.419 2.005"/><path data-name="線 127142" d="M503.688 1422.008h0"/><path data-name="線 127143" d="M486.362 1439.727l-1.613 1.199"/><path data-name="線 127144" d="M503.688 1419.589l2.419 2.419"/><path data-name="線 127145" d="M505.693 1417.562l.414.414"/><path data-name="線 127146" d="M506.107 1422.008h0"/><path data-name="線 127147" d="M506.107 1422.008h0"/><path data-name="線 127148" d="M506.107 1419.982h0"/><path data-name="線 127149" d="M506.107 1419.982h0"/><path data-name="線 127150" d="M506.107 1422.008h0"/><path data-name="線 127151" d="M506.107 1417.562v.414"/><path data-name="線 127152" d="M506.107 1419.982h0"/><path data-name="線 127153" d="M506.107 1419.982h0"/><path data-name="線 127154" d="M506.107 1419.982h0"/><path data-name="線 127155" d="M506.107 1419.982h0"/><path data-name="線 127156" d="M506.107 1419.982h0"/><path data-name="パス 2493" d="M505.998 1417.955a22.142 22.142 0 00-20.007-20.007"/><path data-name="線 127157" d="M485.97 1398.231h0"/><path data-name="線 127158" d="M483.943 1398.231l2.419 2.419"/><path data-name="線 127159" d="M503.688 1417.562l2.419 2.419"/><path data-name="線 127160" d="M506.107 1417.976l-.414-.414"/><path data-name="線 127161" d="M506.107 1422.008h0"/><path data-name="線 127162" d="M506.107 1422.008h0"/><path data-name="線 127163" d="M527.858 1439.727l2.419 2.005"/><path data-name="線 127164" d="M527.858 1398.231h0"/><path data-name="線 127165" d="M527.858 1398.231h0"/><path data-name="線 127166" d="M527.858 1398.231h0"/><path data-name="線 127167" d="M527.858 1398.231h0"/><path data-name="線 127168" d="M527.858 1398.231h0"/><path data-name="線 127169" d="M528.25 1400.258l-2.419-2.027"/><path data-name="線 127170" d="M527.858 1398.231h0"/><path data-name="パス 2494" d="M547.494 1417.955a19.763 19.763 0 00-17.588-17.588"/><path data-name="パス 2495" d="M527.945 1400.28a22.143 22.143 0 0020.007 20.007"/><path data-name="パス 2496" d="M530.364 1400.28a19.763 19.763 0 0017.588 17.588"/><path data-name="線 127171" d="M527.858 1398.231l2.419 2.419"/><path data-name="線 127172" d="M550 1419.982h0"/><path data-name="線 127173" d="M550 1419.982h0"/><path data-name="線 127174" d="M550 1419.982h0"/><path data-name="線 127175" d="M550 1419.982h0"/><path data-name="線 127176" d="M550 1419.982h0"/><path data-name="線 127177" d="M550 1419.982h0"/><path data-name="線 127178" d="M550 1419.982h0"/><path data-name="線 127179" d="M550 1419.982h0"/><path data-name="線 127180" d="M550 1419.982h0"/><path data-name="線 127181" d="M550 1419.982h0"/><path data-name="線 127182" d="M550 1419.982h0"/><path data-name="線 127183" d="M547.995 1419.589h0"/><path data-name="線 127184" d="M547.995 1419.589h0"/><path data-name="線 127185" d="M547.995 1419.982h0"/><path data-name="線 127186" d="M550 1417.562v.414"/><path data-name="線 127187" d="M550 1417.562h0"/><path data-name="線 127188" d="M550 1417.562h0"/><path data-name="線 127189" d="M550 1422.008h0"/><path data-name="線 127190" d="M550 1422.008h0"/><path data-name="線 127191" d="M550 1422.008h0"/><path data-name="線 127192" d="M550 1422.008h0"/><path data-name="線 127193" d="M550 1422.008h0"/><path data-name="線 127194" d="M525.831 1398.231h0"/><path data-name="線 127195" d="M527.858 1400.258h0"/><path data-name="パス 2497" d="M508.134 1417.868a19.763 19.763 0 0017.588-17.588"/><path data-name="パス 2498" d="M525.809 1400.345a19.763 19.763 0 00-17.588 17.588"/><path data-name="パス 2499" d="M525.809 1397.926a22.142 22.142 0 00-20.007 20.007"/><path data-name="線 127196" d="M506.107 1419.982h0"/><path data-name="線 127197" d="M506.107 1419.982h0"/><path data-name="線 127198" d="M506.107 1422.008h0"/><path data-name="線 127199" d="M506.107 1417.562v.414"/><path data-name="線 127200" d="M506.107 1419.982h0"/><path data-name="線 127201" d="M506.107 1419.982h0"/><path data-name="線 127202" d="M506.107 1419.982h0"/><path data-name="線 127203" d="M506.107 1419.982h0"/><path data-name="パス 2500" d="M508.134 1420.287a22.142 22.142 0 0020.007-20.007"/><path data-name="線 127204" d="M508.112 1419.982l-2.005-2.005"/><path data-name="線 127205" d="M506.107 1419.982h0"/><path data-name="線 127206" d="M508.112 1419.589v.392"/><path data-name="パス 2501" d="M525.744 1439.709a19.763 19.763 0 00-17.588-17.592"/><path data-name="パス 2502" d="M508.221 1422.03a19.763 19.763 0 0017.588 17.588"/><path data-name="パス 2503" d="M547.971 1422.096a19.763 19.763 0 00-17.585 17.587"/><path data-name="パス 2504" d="M529.884 1439.618a19.763 19.763 0 0017.587-17.588"/><path data-name="パス 2505" d="M505.802 1422.03a22.142 22.142 0 0020.007 20.007"/><path data-name="線 127207" d="M525.831 1441.732h0"/><path data-name="線 127208" d="M530.277 1441.732h0"/><path data-name="線 127209" d="M527.858 1441.732h0"/><path data-name="線 127210" d="M527.858 1441.732h0"/><path data-name="パス 2506" d="M529.884 1442.037a22.143 22.143 0 0020.007-20.007"/><path data-name="パス 2507" d="M528.163 1439.709a22.143 22.143 0 00-20.007-20.011"/><path data-name="パス 2508" d="M547.971 1419.676a22.143 22.143 0 00-20 20.007"/><path data-name="線 127211" d="M527.858 1441.732h0"/><path data-name="線 127212" d="M527.858 1441.732h0"/><path data-name="線 127213" d="M528.25 1439.727h-.392"/><path data-name="線 127214" d="M527.858 1441.732h0"/><path data-name="線 127215" d="M527.051 1399.038l-1.22 1.613"/><path data-name="線 127216" d="M508.113 1417.562l-1.199 1.22"/><path data-name="線 127217" d="M506.107 1419.982l2.005 2.027"/><path data-name="線 127218" d="M525.831 1439.727l2.027 2.005"/><path data-name="線 127219" d="M547.995 1422.008h0"/><path data-name="線 127220" d="M530.276 1439.727l-1.22 1.199"/><path data-name="線 127221" d="M547.995 1419.589l2.005 2.419"/><path data-name="線 127222" d="M550 1417.562v.414"/><path data-name="線 127223" d="M550 1422.008h0"/><path data-name="線 127224" d="M550 1422.008h0"/><path data-name="線 127225" d="M550 1419.982h0"/><path data-name="線 127226" d="M550 1419.982h0"/><path data-name="線 127227" d="M550 1422.008h0"/><path data-name="線 127228" d="M550 1417.562v.414"/><path data-name="線 127229" d="M550 1419.982h0"/><path data-name="線 127230" d="M550 1419.982h0"/><path data-name="線 127231" d="M550 1419.982h0"/><path data-name="線 127232" d="M550 1419.982h0"/><path data-name="線 127233" d="M550 1419.982h0"/><path data-name="パス 2509" d="M549.891 1417.955a22.143 22.143 0 00-20.007-20.007"/><path data-name="線 127234" d="M530.277 1398.231h0"/><path data-name="線 127235" d="M527.858 1398.231l2.419 2.419"/><path data-name="線 127236" d="M547.995 1417.562l2.005 2.419"/><path data-name="線 127237" d="M550 1417.976v-.414"/><path data-name="線 127238" d="M550 1422.008h0"/><path data-name="線 127239" d="M550 1422.008h0"/><path data-name="線 127240" d="M572.143 1439.727l2.027 2.005"/><path data-name="線 127241" d="M572.143 1398.231h0"/><path data-name="線 127242" d="M572.143 1398.231h0"/><path data-name="線 127243" d="M572.143 1398.231h0"/><path data-name="線 127244" d="M572.143 1398.231h0"/><path data-name="線 127245" d="M572.143 1398.231h0"/><path data-name="線 127246" d="M572.143 1400.258l-2.005-2.027"/><path data-name="線 127247" d="M572.143 1398.231h0"/><path data-name="パス 2510" d="M591.779 1417.955a19.763 19.763 0 00-17.588-17.588"/><path data-name="パス 2511" d="M572.252 1400.28a22.143 22.143 0 0020.007 20.007"/><path data-name="パス 2512" d="M574.671 1400.28a19.763 19.763 0 0017.588 17.588"/><path data-name="線 127248" d="M572.143 1398.231l2.419 2.419"/><path data-name="線 127249" d="M594.308 1419.982h0"/><path data-name="線 127250" d="M594.308 1419.982h0"/><path data-name="線 127251" d="M594.308 1419.982h0"/><path data-name="線 127252" d="M594.308 1419.982h0"/><path data-name="線 127253" d="M594.308 1419.982h0"/><path data-name="線 127254" d="M594.308 1419.982h0"/><path data-name="線 127255" d="M594.308 1419.982h0"/><path data-name="線 127256" d="M594.308 1419.982h0"/><path data-name="線 127257" d="M594.308 1419.982h0"/><path data-name="線 127258" d="M594.308 1419.982h0"/><path data-name="線 127259" d="M594.308 1419.982h0"/><path data-name="線 127260" d="M591.888 1419.589h0"/><path data-name="線 127261" d="M591.888 1419.589h0"/><path data-name="線 127262" d="M592.28 1419.982h-.392"/><path data-name="線 127263" d="M594.308 1417.562v.414"/><path data-name="線 127264" d="M593.893 1417.562h0"/><path data-name="線 127265" d="M593.893 1417.562h0"/><path data-name="線 127266" d="M594.307 1422.008h-.414"/><path data-name="線 127267" d="M594.308 1422.008h0"/><path data-name="線 127268" d="M594.308 1422.008h0"/><path data-name="線 127269" d="M593.893 1422.008h0"/><path data-name="線 127270" d="M593.893 1422.008h0"/><path data-name="線 127271" d="M570.138 1398.231h0"/><path data-name="線 127272" d="M572.143 1400.258h0"/><path data-name="パス 2513" d="M552.049 1417.868a19.763 19.763 0 0017.588-17.588"/><path data-name="パス 2514" d="M570.116 1400.345a19.763 19.763 0 00-17.588 17.588"/><path data-name="パス 2515" d="M570.116 1397.926a22.142 22.142 0 00-20.007 20.007"/><path data-name="線 127273" d="M550 1419.982h0"/><path data-name="線 127274" d="M550 1419.982h0"/><path data-name="線 127275" d="M550 1422.008h0"/><path data-name="線 127276" d="M550 1417.562v.414"/><path data-name="線 127277" d="M550 1419.982h0"/><path data-name="線 127278" d="M550 1419.982h0"/><path data-name="線 127279" d="M550 1419.982h0"/><path data-name="線 127280" d="M550 1419.982h0"/><path data-name="パス 2516" d="M552.049 1420.287a22.143 22.143 0 0020.007-20.007"/><path data-name="線 127281" d="M552.419 1419.982l-2.419-2.005"/><path data-name="線 127282" d="M550 1419.982h0"/><path data-name="線 127283" d="M552.419 1419.589l-.414.392"/><path data-name="パス 2517" d="M569.637 1439.709a19.763 19.763 0 00-17.588-17.588"/><path data-name="パス 2518" d="M552.528 1422.03a19.763 19.763 0 0017.588 17.588"/><path data-name="パス 2519" d="M592.259 1422.096a19.763 19.763 0 00-17.588 17.587"/><path data-name="パス 2520" d="M574.192 1439.618a19.763 19.763 0 0017.588-17.588"/><path data-name="パス 2521" d="M550.109 1422.03a22.143 22.143 0 0020.007 20.007"/><path data-name="線 127284" d="M570.138 1441.732h0"/><path data-name="線 127285" d="M574.17 1441.732h0"/><path data-name="線 127286" d="M572.143 1441.732h0"/><path data-name="線 127287" d="M572.143 1441.732h0"/><path data-name="パス 2522" d="M574.192 1442.037a22.143 22.143 0 0020.007-20.007"/><path data-name="パス 2523" d="M572.056 1439.709a22.143 22.143 0 00-20.007-20.007"/><path data-name="パス 2524" d="M592.259 1419.676a22.142 22.142 0 00-20.007 20.007"/><path data-name="線 127288" d="M572.143 1441.732h0"/><path data-name="線 127289" d="M572.143 1441.732h0"/><path data-name="線 127290" d="M572.143 1439.727h0"/><path data-name="線 127291" d="M572.143 1441.732h0"/><path data-name="線 127292" d="M570.945 1399.038l-1.199 1.613"/><path data-name="線 127293" d="M552.42 1417.562l-1.199 1.22"/><path data-name="線 127294" d="M550 1419.982l2.419 2.027"/><path data-name="線 127295" d="M569.746 1439.727l2.397 2.005"/><path data-name="線 127296" d="M591.888 1422.008h0"/><path data-name="線 127297" d="M574.563 1439.727l-1.199 1.199"/><path data-name="線 127298" d="M591.888 1419.589l2.419 2.419"/><path data-name="線 127299" d="M593.893 1417.562l.414.414"/><path data-name="線 127300" d="M594.308 1422.008h0"/><path data-name="線 127301" d="M594.308 1422.008h0"/><path data-name="線 127302" d="M594.308 1419.982h0"/><path data-name="線 127303" d="M594.308 1419.982h0"/><path data-name="線 127304" d="M594.308 1422.008h0"/><path data-name="線 127305" d="M594.308 1417.562v.414"/><path data-name="線 127306" d="M594.308 1419.982h0"/><path data-name="線 127307" d="M594.308 1419.982h0"/><path data-name="線 127308" d="M594.308 1419.982h0"/><path data-name="線 127309" d="M594.308 1419.982h0"/><path data-name="線 127310" d="M594.308 1419.982h0"/><path data-name="パス 2525" d="M594.199 1417.955a22.142 22.142 0 00-20.007-20.007"/><path data-name="線 127311" d="M574.17 1398.231h0"/><path data-name="線 127312" d="M572.143 1398.231l2.419 2.419"/><path data-name="線 127313" d="M591.888 1417.562l2.419 2.419"/><path data-name="線 127314" d="M594.307 1417.976l-.414-.414"/><path data-name="線 127315" d="M594.308 1422.008h0"/><path data-name="線 127316" d="M594.308 1422.008h0"/><path data-name="線 127317" d="M616.058 1439.727l2.419 2.005"/><path data-name="線 127318" d="M616.058 1398.231h0"/><path data-name="線 127319" d="M616.058 1398.231h0"/><path data-name="線 127320" d="M616.058 1398.231h0"/><path data-name="線 127321" d="M616.058 1398.231h0"/><path data-name="線 127322" d="M616.058 1398.231h0"/><path data-name="線 127323" d="M616.45 1400.258l-2.419-2.027"/><path data-name="線 127324" d="M616.058 1398.231h0"/><path data-name="パス 2526" d="M635.694 1417.955a19.763 19.763 0 00-17.588-17.588"/><path data-name="パス 2527" d="M616.145 1400.28a22.143 22.143 0 0020.007 20.007"/><path data-name="パス 2528" d="M618.564 1400.28a19.763 19.763 0 0017.588 17.588"/><path data-name="線 127325" d="M616.058 1398.231l2.419 2.419"/><path data-name="線 127326" d="M638.201 1419.982h0"/><path data-name="線 127327" d="M638.201 1419.982h0"/><path data-name="線 127328" d="M638.201 1419.982h0"/><path data-name="線 127329" d="M638.201 1419.982h0"/><path data-name="線 127330" d="M638.201 1419.982h0"/><path data-name="線 127331" d="M638.201 1419.982h0"/><path data-name="線 127332" d="M638.201 1419.982h0"/><path data-name="線 127333" d="M638.201 1419.982h0"/><path data-name="線 127334" d="M638.201 1419.982h0"/><path data-name="線 127335" d="M638.201 1419.982h0"/><path data-name="線 127336" d="M638.201 1419.982h0"/><path data-name="線 127337" d="M636.196 1419.589h0"/><path data-name="線 127338" d="M636.196 1419.589h0"/><path data-name="線 127339" d="M636.196 1419.982h0"/><path data-name="線 127340" d="M638.615 1417.562l-.414.414"/><path data-name="線 127341" d="M638.201 1417.562h0"/><path data-name="線 127342" d="M638.201 1417.562h0"/><path data-name="線 127343" d="M638.201 1422.008h0"/><path data-name="線 127344" d="M638.615 1422.008h0"/><path data-name="線 127345" d="M638.615 1422.008h0"/><path data-name="線 127346" d="M638.201 1422.008h0"/><path data-name="線 127347" d="M638.201 1422.008h0"/><path data-name="線 127348" d="M614.031 1398.231h0"/><path data-name="線 127349" d="M616.058 1400.258h0"/><path data-name="パス 2529" d="M596.334 1417.868a19.763 19.763 0 0017.588-17.588"/><path data-name="パス 2530" d="M614.009 1400.345a19.763 19.763 0 00-17.588 17.588"/><path data-name="パス 2531" d="M614.009 1397.926a22.142 22.142 0 00-20.007 20.007"/><path data-name="線 127350" d="M594.308 1419.982h0"/><path data-name="線 127351" d="M594.308 1419.982h0"/><path data-name="線 127352" d="M594.308 1422.008h0"/><path data-name="線 127353" d="M594.308 1417.562v.414"/><path data-name="線 127354" d="M594.308 1419.982h0"/><path data-name="線 127355" d="M594.308 1419.982h0"/><path data-name="線 127356" d="M594.308 1419.982h0"/><path data-name="線 127357" d="M594.308 1419.982h0"/><path data-name="パス 2532" d="M596.334 1420.287a22.142 22.142 0 0020.007-20.007"/><path data-name="線 127358" d="M596.313 1419.982l-2.005-2.005"/><path data-name="線 127359" d="M594.308 1419.982h0"/><path data-name="線 127360" d="M596.313 1419.589v.392"/><path data-name="パス 2533" d="M613.944 1439.709a19.763 19.763 0 00-17.588-17.588"/><path data-name="パス 2534" d="M596.422 1422.03a19.763 19.763 0 0017.588 17.588"/><path data-name="パス 2535" d="M636.171 1422.096a19.763 19.763 0 00-17.588 17.588"/><path data-name="パス 2536" d="M618.085 1439.618a19.763 19.763 0 0017.586-17.588"/><path data-name="パス 2537" d="M594.002 1422.03a22.142 22.142 0 0020.007 20.007"/><path data-name="線 127361" d="M614.031 1441.732h0"/><path data-name="線 127362" d="M618.477 1441.732h0"/><path data-name="線 127363" d="M616.058 1441.732h0"/><path data-name="線 127364" d="M616.058 1441.732h0"/><path data-name="パス 2538" d="M618.085 1442.037a22.142 22.142 0 0020.007-20.007"/><path data-name="パス 2539" d="M616.363 1439.709a22.142 22.142 0 00-20.007-20.007"/><path data-name="パス 2540" d="M636.171 1419.676a22.142 22.142 0 00-20 20.007"/><path data-name="線 127365" d="M616.058 1441.732h0"/><path data-name="線 127366" d="M616.058 1441.732h0"/><path data-name="線 127367" d="M616.45 1439.727h-.392"/><path data-name="線 127368" d="M616.058 1441.732h0"/><path data-name="線 127369" d="M615.251 1399.038l-1.22 1.613"/><path data-name="線 127370" d="M596.313 1417.562l-1.199 1.22"/><path data-name="線 127371" d="M594.308 1419.982l2.005 2.027"/><path data-name="線 127372" d="M614.031 1439.727l2.027 2.005"/><path data-name="線 127373" d="M636.196 1422.008h0"/><path data-name="線 127374" d="M618.477 1439.727l-1.22 1.199"/><path data-name="線 127375" d="M636.196 1419.589l2.419 2.419"/><path data-name="線 127376" d="M638.201 1417.562v.414"/><path data-name="線 127377" d="M638.615 1422.008h0"/><path data-name="線 127378" d="M638.615 1422.008h0"/><path data-name="線 127379" d="M638.201 1419.982h0"/><path data-name="線 127380" d="M638.201 1419.982h0"/><path data-name="線 127381" d="M638.615 1422.008h-.414"/><path data-name="線 127382" d="M638.615 1417.562l-.414.414"/><path data-name="線 127383" d="M638.201 1419.982h0"/><path data-name="線 127384" d="M638.201 1419.982h0"/><path data-name="線 127385" d="M638.201 1419.982h0"/><path data-name="線 127386" d="M638.201 1419.982h0"/><path data-name="線 127387" d="M638.201 1419.982h0"/><path data-name="パス 2541" d="M638.114 1417.955a22.142 22.142 0 00-20.007-20.007"/><path data-name="線 127388" d="M618.477 1398.231h0"/><path data-name="線 127389" d="M616.058 1398.231l2.419 2.419"/><path data-name="線 127390" d="M636.196 1417.562l2.005 2.419"/><path data-name="線 127391" d="M638.201 1417.976v-.414"/><path data-name="線 127392" d="M638.615 1422.008h0"/><path data-name="線 127393" d="M638.615 1422.008h0"/><path data-name="線 127394" d="M483.943 1484.034l2.027 2.005"/><path data-name="線 127395" d="M483.943 1441.732h0"/><path data-name="線 127396" d="M483.943 1441.732h0"/><path data-name="線 127397" d="M483.943 1441.732h0"/><path data-name="線 127398" d="M483.943 1441.732h0"/><path data-name="線 127399" d="M483.943 1441.732h0"/><path data-name="線 127400" d="M483.943 1444.151l-2.005-2.419"/><path data-name="線 127401" d="M483.943 1441.732h0"/><path data-name="パス 2542" d="M503.579 1461.848a19.763 19.763 0 00-17.588-17.588"/><path data-name="パス 2543" d="M484.052 1443.781a22.142 22.142 0 0020.007 20.007"/><path data-name="パス 2544" d="M486.471 1443.781a19.763 19.763 0 0017.588 17.588"/><path data-name="線 127402" d="M483.943 1441.732l2.419 2.419"/><path data-name="線 127403" d="M506.107 1463.896h0"/><path data-name="線 127404" d="M506.107 1463.896h0"/><path data-name="線 127405" d="M506.107 1463.896h0"/><path data-name="線 127406" d="M506.107 1463.896h0"/><path data-name="線 127407" d="M506.107 1463.896h0"/><path data-name="線 127408" d="M506.107 1463.896h0"/><path data-name="線 127409" d="M506.107 1463.896h0"/><path data-name="線 127410" d="M506.107 1463.896h0"/><path data-name="線 127411" d="M506.107 1463.896h0"/><path data-name="線 127412" d="M506.107 1463.896h0"/><path data-name="線 127413" d="M506.107 1463.896h0"/><path data-name="線 127414" d="M503.688 1463.896h0"/><path data-name="線 127415" d="M503.688 1463.896h0"/><path data-name="線 127416" d="M504.08 1463.896h-.392"/><path data-name="線 127417" d="M506.107 1461.87h0"/><path data-name="線 127418" d="M505.693 1461.87h0"/><path data-name="線 127419" d="M505.693 1461.87h0"/><path data-name="線 127420" d="M506.107 1465.902h-.414"/><path data-name="線 127421" d="M506.107 1465.902h0"/><path data-name="線 127422" d="M506.107 1465.902h0"/><path data-name="線 127423" d="M505.693 1465.902h0"/><path data-name="線 127424" d="M505.693 1465.902h0"/><path data-name="線 127425" d="M481.938 1442.146v-.414"/><path data-name="線 127426" d="M483.943 1444.151v-.392"/><path data-name="パス 2545" d="M463.849 1461.368a19.763 19.763 0 0017.588-17.588"/><path data-name="パス 2546" d="M481.916 1444.26a19.763 19.763 0 00-17.588 17.588"/><path data-name="パス 2547" d="M481.916 1441.841a22.142 22.142 0 00-20.007 20.007"/><path data-name="線 127427" d="M461.8 1463.896h0"/><path data-name="線 127428" d="M461.8 1463.896h0"/><path data-name="線 127429" d="M461.8 1465.902h0"/><path data-name="線 127430" d="M461.8 1461.87h0"/><path data-name="線 127431" d="M461.8 1463.896h0"/><path data-name="線 127432" d="M461.8 1463.896h0"/><path data-name="線 127433" d="M461.8 1463.896h0"/><path data-name="線 127434" d="M461.8 1463.896h0"/><path data-name="パス 2548" d="M463.849 1463.788a22.142 22.142 0 0020.007-20.007"/><path data-name="線 127435" d="M464.219 1463.897l-2.419-2.027"/><path data-name="線 127436" d="M461.8 1463.896h0"/><path data-name="線 127437" d="M464.219 1463.896h-.414"/><path data-name="パス 2549" d="M481.436 1483.991a19.763 19.763 0 00-17.588-17.588"/><path data-name="パス 2550" d="M464.306 1465.923a19.763 19.763 0 0017.588 17.586"/><path data-name="パス 2551" d="M504.059 1466.403a19.763 19.763 0 00-17.588 17.588"/><path data-name="パス 2552" d="M485.991 1483.509a19.763 19.763 0 0017.588-17.588"/><path data-name="パス 2553" d="M461.909 1465.923a22.142 22.142 0 0020.007 20.007"/><path data-name="線 127438" d="M481.938 1486.039h0"/><path data-name="線 127439" d="M485.97 1486.039h0"/><path data-name="線 127440" d="M483.943 1486.039h0"/><path data-name="線 127441" d="M483.943 1486.039h0"/><path data-name="パス 2554" d="M485.991 1485.93a22.142 22.142 0 0020.007-20.007"/><path data-name="パス 2555" d="M483.856 1483.991a22.143 22.143 0 00-20.007-20.007"/><path data-name="パス 2556" d="M504.059 1463.984a22.143 22.143 0 00-20.007 20.007"/><path data-name="線 127442" d="M483.943 1486.039h0"/><path data-name="線 127443" d="M483.943 1486.039h0"/><path data-name="線 127444" d="M483.943 1484.034h0"/><path data-name="線 127445" d="M483.943 1486.039h0"/><path data-name="線 127446" d="M482.744 1442.952l-1.22 1.199"/><path data-name="線 127447" d="M464.219 1461.477l-1.22 1.613"/><path data-name="線 127448" d="M461.8 1463.896l2.419 2.397"/><path data-name="線 127449" d="M481.524 1483.62l2.419 2.419"/><path data-name="線 127450" d="M503.688 1466.294h0"/><path data-name="線 127451" d="M486.362 1483.62l-1.613 1.199"/><path data-name="線 127452" d="M503.688 1463.896l2.419 2.005"/><path data-name="線 127453" d="M505.693 1461.87h.414"/><path data-name="線 127454" d="M506.107 1465.902h0"/><path data-name="線 127455" d="M506.107 1465.902h0"/><path data-name="線 127456" d="M506.107 1463.896h0"/><path data-name="線 127457" d="M506.107 1463.896h0"/><path data-name="線 127458" d="M506.107 1465.902h0"/><path data-name="線 127459" d="M506.107 1461.87h0"/><path data-name="線 127460" d="M506.107 1463.896h0"/><path data-name="線 127461" d="M506.107 1463.896h0"/><path data-name="線 127462" d="M506.107 1463.896h0"/><path data-name="線 127463" d="M506.107 1463.896h0"/><path data-name="線 127464" d="M506.107 1463.896h0"/><path data-name="パス 2557" d="M505.998 1461.848a22.142 22.142 0 00-20.007-20.007"/><path data-name="線 127465" d="M485.97 1442.146v-.414"/><path data-name="線 127466" d="M483.943 1441.732l2.419 2.419"/><path data-name="線 127467" d="M503.688 1461.477l2.419 2.419"/><path data-name="線 127468" d="M506.107 1461.87h-.414"/><path data-name="線 127469" d="M506.107 1465.902h0"/><path data-name="線 127470" d="M506.107 1465.902h0"/><path data-name="線 127471" d="M527.858 1484.034l2.419 2.005"/><path data-name="線 127472" d="M527.858 1441.732h0"/><path data-name="線 127473" d="M527.858 1441.732h0"/><path data-name="線 127474" d="M527.858 1441.732h0"/><path data-name="線 127475" d="M527.858 1441.732h0"/><path data-name="線 127476" d="M527.858 1441.732h0"/><path data-name="線 127477" d="M528.25 1444.151l-2.419-2.419"/><path data-name="線 127478" d="M527.858 1441.732h0"/><path data-name="パス 2558" d="M547.494 1461.848a19.763 19.763 0 00-17.588-17.588"/><path data-name="パス 2559" d="M527.945 1443.781a22.142 22.142 0 0020.007 20.007"/><path data-name="パス 2560" d="M530.364 1443.781a19.763 19.763 0 0017.588 17.588"/><path data-name="線 127479" d="M527.858 1441.732l2.419 2.419"/><path data-name="線 127480" d="M550 1463.896h0"/><path data-name="線 127481" d="M550 1463.896h0"/><path data-name="線 127482" d="M550 1463.896h0"/><path data-name="線 127483" d="M550 1463.896h0"/><path data-name="線 127484" d="M550 1463.896h0"/><path data-name="線 127485" d="M550 1463.896h0"/><path data-name="線 127486" d="M550 1463.896h0"/><path data-name="線 127487" d="M550 1463.896h0"/><path data-name="線 127488" d="M550 1463.896h0"/><path data-name="線 127489" d="M550 1463.896h0"/><path data-name="線 127490" d="M550 1463.896h0"/><path data-name="線 127491" d="M547.995 1463.896h0"/><path data-name="線 127492" d="M547.995 1463.896h0"/><path data-name="線 127493" d="M547.995 1463.896h0"/><path data-name="線 127494" d="M550 1461.87h0"/><path data-name="線 127495" d="M550 1461.87h0"/><path data-name="線 127496" d="M550 1461.87h0"/><path data-name="線 127497" d="M550 1465.902h0"/><path data-name="線 127498" d="M550 1465.902h0"/><path data-name="線 127499" d="M550 1465.902h0"/><path data-name="線 127500" d="M550 1465.902h0"/><path data-name="線 127501" d="M550 1465.902h0"/><path data-name="線 127502" d="M525.831 1442.146v-.414"/><path data-name="線 127503" d="M527.858 1444.151v-.392"/><path data-name="パス 2561" d="M508.134 1461.368a19.763 19.763 0 0017.588-17.588"/><path data-name="パス 2562" d="M525.809 1444.26a19.763 19.763 0 00-17.588 17.588"/><path data-name="パス 2563" d="M525.809 1441.841a22.142 22.142 0 00-20.007 20.007"/><path data-name="線 127504" d="M506.107 1463.896h0"/><path data-name="線 127505" d="M506.107 1463.896h0"/><path data-name="線 127506" d="M506.107 1465.902h0"/><path data-name="線 127507" d="M506.107 1461.87h0"/><path data-name="線 127508" d="M506.107 1463.896h0"/><path data-name="線 127509" d="M506.107 1463.896h0"/><path data-name="線 127510" d="M506.107 1463.896h0"/><path data-name="線 127511" d="M506.107 1463.896h0"/><path data-name="パス 2564" d="M508.134 1463.788a22.142 22.142 0 0020.007-20.007"/><path data-name="線 127512" d="M508.112 1463.897l-2.005-2.027"/><path data-name="線 127513" d="M506.107 1463.896h0"/><path data-name="線 127514" d="M508.112 1463.896h0"/><path data-name="パス 2565" d="M525.744 1483.991a19.763 19.763 0 00-17.588-17.588"/><path data-name="パス 2566" d="M508.221 1465.923a19.763 19.763 0 0017.588 17.586"/><path data-name="パス 2567" d="M547.971 1466.403a19.763 19.763 0 00-17.588 17.588"/><path data-name="パス 2568" d="M529.884 1483.509a19.763 19.763 0 0017.587-17.586"/><path data-name="パス 2569" d="M505.802 1465.923a22.142 22.142 0 0020.007 20.007"/><path data-name="線 127515" d="M525.831 1486.039h0"/><path data-name="線 127516" d="M530.277 1486.039h0"/><path data-name="線 127517" d="M527.858 1486.039h0"/><path data-name="線 127518" d="M527.858 1486.039h0"/><path data-name="パス 2570" d="M529.884 1485.93a22.142 22.142 0 0020.007-20.007"/><path data-name="パス 2571" d="M528.163 1483.991a22.143 22.143 0 00-20.007-20.007"/><path data-name="パス 2572" d="M547.971 1463.984a22.143 22.143 0 00-20 20.007"/><path data-name="線 127519" d="M527.858 1486.039h0"/><path data-name="線 127520" d="M527.858 1486.039h0"/><path data-name="線 127521" d="M528.25 1484.034h-.392"/><path data-name="線 127522" d="M527.858 1486.039h0"/><path data-name="線 127523" d="M527.051 1442.952l-1.22 1.199"/><path data-name="線 127524" d="M508.113 1461.477l-1.199 1.613"/><path data-name="線 127525" d="M506.107 1463.896l2.005 2.397"/><path data-name="線 127526" d="M525.831 1483.62l2.027 2.419"/><path data-name="線 127527" d="M547.581 1466.294h0"/><path data-name="線 127528" d="M530.276 1483.62l-1.22 1.199"/><path data-name="線 127529" d="M547.995 1463.896l2.005 2.005"/><path data-name="線 127530" d="M550 1461.87h0"/><path data-name="線 127531" d="M550 1465.902h0"/><path data-name="線 127532" d="M550 1465.902h0"/><path data-name="線 127533" d="M550 1463.896h0"/><path data-name="線 127534" d="M550 1463.896h0"/><path data-name="線 127535" d="M550 1465.902h0"/><path data-name="線 127536" d="M550 1461.87h0"/><path data-name="線 127537" d="M550 1463.896h0"/><path data-name="線 127538" d="M550 1463.896h0"/><path data-name="線 127539" d="M550 1463.896h0"/><path data-name="線 127540" d="M550 1463.896h0"/><path data-name="線 127541" d="M550 1463.896h0"/><path data-name="パス 2573" d="M549.891 1461.848a22.142 22.142 0 00-20.007-20.007"/><path data-name="線 127542" d="M530.277 1442.146v-.414"/><path data-name="線 127543" d="M527.858 1441.732l2.419 2.419"/><path data-name="線 127544" d="M547.581 1461.477l2.419 2.419"/><path data-name="線 127545" d="M550 1461.87h0"/><path data-name="線 127546" d="M550 1465.902h0"/><path data-name="線 127547" d="M550 1465.902h0"/><path data-name="線 127548" d="M572.143 1484.034l2.027 2.005"/><path data-name="線 127549" d="M572.143 1441.732h0"/><path data-name="線 127550" d="M572.143 1441.732h0"/><path data-name="線 127551" d="M572.143 1441.732h0"/><path data-name="線 127552" d="M572.143 1441.732h0"/><path data-name="線 127553" d="M572.143 1441.732h0"/><path data-name="線 127554" d="M572.143 1444.151l-2.005-2.419"/><path data-name="線 127555" d="M572.143 1441.732h0"/><path data-name="パス 2574" d="M591.779 1461.848a19.763 19.763 0 00-17.588-17.588"/><path data-name="パス 2575" d="M572.252 1443.781a22.142 22.142 0 0020.007 20.007"/><path data-name="パス 2576" d="M574.671 1443.781a19.763 19.763 0 0017.588 17.588"/><path data-name="線 127556" d="M572.143 1441.732l2.419 2.419"/><path data-name="線 127557" d="M594.308 1463.896h0"/><path data-name="線 127558" d="M594.308 1463.896h0"/><path data-name="線 127559" d="M594.308 1463.896h0"/><path data-name="線 127560" d="M594.308 1463.896h0"/><path data-name="線 127561" d="M594.308 1463.896h0"/><path data-name="線 127562" d="M594.308 1463.896h0"/><path data-name="線 127563" d="M594.308 1463.896h0"/><path data-name="線 127564" d="M594.308 1463.896h0"/><path data-name="線 127565" d="M594.308 1463.896h0"/><path data-name="線 127566" d="M594.308 1463.896h0"/><path data-name="線 127567" d="M594.308 1463.896h0"/><path data-name="線 127568" d="M591.888 1463.896h0"/><path data-name="線 127569" d="M591.888 1463.896h0"/><path data-name="線 127570" d="M592.28 1463.896h-.392"/><path data-name="線 127571" d="M594.308 1461.87h0"/><path data-name="線 127572" d="M593.893 1461.87h0"/><path data-name="線 127573" d="M593.893 1461.87h0"/><path data-name="線 127574" d="M594.307 1465.902l-.414.392"/><path data-name="線 127575" d="M594.308 1465.902h0"/><path data-name="線 127576" d="M594.308 1465.902h0"/><path data-name="線 127577" d="M593.893 1465.902h0"/><path data-name="線 127578" d="M593.893 1465.902h0"/><path data-name="線 127579" d="M570.138 1442.146v-.414"/><path data-name="線 127580" d="M572.143 1444.151v-.392"/><path data-name="パス 2577" d="M552.049 1461.368a19.763 19.763 0 0017.588-17.588"/><path data-name="パス 2578" d="M570.116 1444.26a19.763 19.763 0 00-17.588 17.588"/><path data-name="パス 2579" d="M570.116 1441.841a22.142 22.142 0 00-20.007 20.007"/><path data-name="線 127581" d="M550 1463.896h0"/><path data-name="線 127582" d="M550 1463.896h0"/><path data-name="線 127583" d="M550 1465.902h0"/><path data-name="線 127584" d="M550 1461.87h0"/><path data-name="線 127585" d="M550 1463.896h0"/><path data-name="線 127586" d="M550 1463.896h0"/><path data-name="線 127587" d="M550 1463.896h0"/><path data-name="線 127588" d="M550 1463.896h0"/><path data-name="パス 2580" d="M552.049 1463.788a22.143 22.143 0 0020.007-20.007"/><path data-name="線 127589" d="M552.419 1463.897L550 1461.87"/><path data-name="線 127590" d="M550 1463.896h0"/><path data-name="線 127591" d="M552.419 1463.896h-.414"/><path data-name="パス 2581" d="M569.637 1483.991a19.763 19.763 0 00-17.588-17.588"/><path data-name="パス 2582" d="M552.528 1465.923a19.763 19.763 0 0017.588 17.586"/><path data-name="パス 2583" d="M592.259 1466.403a19.763 19.763 0 00-17.588 17.588"/><path data-name="パス 2584" d="M574.192 1483.509a19.763 19.763 0 0017.588-17.588"/><path data-name="パス 2585" d="M550.109 1465.923a22.142 22.142 0 0020.007 20.007"/><path data-name="線 127592" d="M570.138 1486.039h0"/><path data-name="線 127593" d="M574.17 1486.039h0"/><path data-name="線 127594" d="M572.143 1486.039h0"/><path data-name="線 127595" d="M572.143 1486.039h0"/><path data-name="パス 2586" d="M574.192 1485.93a22.142 22.142 0 0020.007-20.007"/><path data-name="パス 2587" d="M572.056 1483.991a22.143 22.143 0 00-20.007-20.007"/><path data-name="パス 2588" d="M592.259 1463.984a22.143 22.143 0 00-20.007 20.007"/><path data-name="線 127596" d="M572.143 1486.039h0"/><path data-name="線 127597" d="M572.143 1486.039h0"/><path data-name="線 127598" d="M572.143 1484.034h0"/><path data-name="線 127599" d="M572.143 1486.039h0"/><path data-name="線 127600" d="M570.945 1442.952l-1.199 1.199"/><path data-name="線 127601" d="M552.42 1461.477l-1.199 1.613"/><path data-name="線 127602" d="M550 1463.896l2.419 2.397"/><path data-name="線 127603" d="M569.746 1483.62l2.397 2.419"/><path data-name="線 127604" d="M591.888 1466.294h0"/><path data-name="線 127605" d="M574.562 1483.62l-1.613 1.199"/><path data-name="線 127606" d="M591.888 1463.896l2.419 2.397"/><path data-name="線 127607" d="M593.893 1461.87h.414"/><path data-name="線 127608" d="M594.308 1465.902v.392"/><path data-name="線 127609" d="M594.308 1466.294h0"/><path data-name="線 127610" d="M594.308 1463.896h0"/><path data-name="線 127611" d="M594.308 1463.896h0"/><path data-name="線 127612" d="M594.308 1465.902h0"/><path data-name="線 127613" d="M594.308 1461.87h0"/><path data-name="線 127614" d="M594.308 1463.896h0"/><path data-name="線 127615" d="M594.308 1463.896h0"/><path data-name="線 127616" d="M594.308 1463.896h0"/><path data-name="線 127617" d="M594.308 1463.896h0"/><path data-name="線 127618" d="M594.308 1463.896h0"/><path data-name="パス 2589" d="M594.199 1461.848a22.142 22.142 0 00-20.007-20.007"/><path data-name="線 127619" d="M574.17 1442.146v-.414"/><path data-name="線 127620" d="M572.143 1441.732l2.419 2.419"/><path data-name="線 127621" d="M591.888 1461.477l2.419 2.419"/><path data-name="線 127622" d="M594.307 1461.87h-.414"/><path data-name="線 127623" d="M594.308 1465.902v.392"/><path data-name="線 127624" d="M594.308 1466.294h0"/><path data-name="線 127625" d="M616.058 1484.034l2.419 2.005"/><path data-name="線 127626" d="M616.058 1441.732h0"/><path data-name="線 127627" d="M616.058 1441.732h0"/><path data-name="線 127628" d="M616.058 1441.732h0"/><path data-name="線 127629" d="M616.058 1441.732h0"/><path data-name="線 127630" d="M616.058 1441.732h0"/><path data-name="線 127631" d="M616.45 1444.151l-2.419-2.419"/><path data-name="線 127632" d="M616.058 1441.732h0"/><path data-name="パス 2590" d="M635.694 1461.848a19.763 19.763 0 00-17.588-17.588"/><path data-name="パス 2591" d="M616.145 1443.781a22.142 22.142 0 0020.007 20.007"/><path data-name="パス 2592" d="M618.564 1443.781a19.763 19.763 0 0017.588 17.588"/><path data-name="線 127633" d="M616.058 1441.732l2.419 2.419"/><path data-name="線 127634" d="M638.201 1463.896h0"/><path data-name="線 127635" d="M638.201 1463.896h0"/><path data-name="線 127636" d="M638.201 1463.896h0"/><path data-name="線 127637" d="M638.201 1463.896h0"/><path data-name="線 127638" d="M638.201 1463.896h0"/><path data-name="線 127639" d="M638.201 1463.896h0"/><path data-name="線 127640" d="M638.201 1463.896h0"/><path data-name="線 127641" d="M638.201 1463.896h0"/><path data-name="線 127642" d="M638.201 1463.896h0"/><path data-name="線 127643" d="M638.201 1463.896h0"/><path data-name="線 127644" d="M638.201 1463.896h0"/><path data-name="線 127645" d="M636.196 1463.896h0"/><path data-name="線 127646" d="M636.196 1463.896h0"/><path data-name="線 127647" d="M636.196 1463.896h0"/><path data-name="線 127648" d="M638.615 1461.87h-.414"/><path data-name="線 127649" d="M638.201 1461.87h0"/><path data-name="線 127650" d="M638.201 1461.87h0"/><path data-name="線 127651" d="M638.201 1465.902v.392"/><path data-name="線 127652" d="M638.615 1466.294h-.414"/><path data-name="線 127653" d="M638.201 1466.294h0"/><path data-name="線 127654" d="M638.201 1466.294h0"/><path data-name="線 127655" d="M638.201 1466.294h0"/><path data-name="線 127656" d="M614.031 1442.146v-.414"/><path data-name="線 127657" d="M616.058 1444.151v-.392"/><path data-name="パス 2593" d="M596.334 1461.368a19.763 19.763 0 0017.588-17.588"/><path data-name="パス 2594" d="M614.009 1444.26a19.763 19.763 0 00-17.588 17.588"/><path data-name="パス 2595" d="M614.009 1441.841a22.142 22.142 0 00-20.007 20.007"/><path data-name="線 127658" d="M594.308 1463.896h0"/><path data-name="線 127659" d="M594.308 1463.896h0"/><path data-name="線 127660" d="M594.308 1466.294v-.392"/><path data-name="線 127661" d="M594.308 1461.87h0"/><path data-name="線 127662" d="M594.308 1463.896h0"/><path data-name="線 127663" d="M594.308 1463.896h0"/><path data-name="線 127664" d="M594.308 1463.896h0"/><path data-name="線 127665" d="M594.308 1463.896h0"/><path data-name="パス 2596" d="M596.334 1463.788a22.142 22.142 0 0020.007-20.007"/><path data-name="線 127666" d="M596.313 1463.897l-2.005-2.027"/><path data-name="線 127667" d="M594.308 1463.896h0"/><path data-name="線 127668" d="M596.313 1463.896h0"/><path data-name="パス 2597" d="M613.944 1483.991a19.763 19.763 0 00-17.588-17.588"/><path data-name="パス 2598" d="M596.422 1465.923a19.763 19.763 0 0017.587 17.586"/><path data-name="パス 2599" d="M636.171 1466.403a19.763 19.763 0 00-17.588 17.588"/><path data-name="パス 2600" d="M618.085 1483.509a19.763 19.763 0 0017.586-17.586"/><path data-name="パス 2601" d="M594.002 1465.923a22.142 22.142 0 0020.007 20.007"/><path data-name="線 127669" d="M614.031 1486.039h0"/><path data-name="線 127670" d="M618.477 1486.039h0"/><path data-name="線 127671" d="M616.058 1486.039h0"/><path data-name="線 127672" d="M616.058 1486.039h0"/><path data-name="パス 2602" d="M618.085 1485.93a22.142 22.142 0 0020.007-20.007"/><path data-name="パス 2603" d="M616.363 1483.991a22.142 22.142 0 00-20.007-20.007"/><path data-name="パス 2604" d="M636.171 1463.984a22.143 22.143 0 00-20 20.007"/><path data-name="線 127673" d="M616.058 1486.039h0"/><path data-name="線 127674" d="M616.058 1486.039h0"/><path data-name="線 127675" d="M616.45 1484.034h-.392"/><path data-name="線 127676" d="M616.058 1486.039h0"/><path data-name="線 127677" d="M615.251 1442.952l-1.22 1.199"/><path data-name="線 127678" d="M596.313 1461.477l-1.199 1.613"/><path data-name="線 127679" d="M594.308 1463.896l2.005 2.397"/><path data-name="線 127680" d="M614.031 1483.62l2.027 2.419"/><path data-name="線 127681" d="M636.196 1466.294h0"/><path data-name="線 127682" d="M618.477 1483.62l-1.22 1.199"/><path data-name="線 127683" d="M636.196 1463.896l2.419 2.397"/><path data-name="線 127684" d="M638.201 1461.87h0"/><path data-name="線 127685" d="M638.615 1466.294h0"/><path data-name="線 127686" d="M638.615 1466.294h0"/><path data-name="線 127687" d="M638.201 1463.896h0"/><path data-name="線 127688" d="M638.201 1463.896h0"/><path data-name="線 127689" d="M638.615 1466.294l-.414-.392"/><path data-name="線 127690" d="M638.615 1461.87h-.414"/><path data-name="線 127691" d="M638.201 1463.896h0"/><path data-name="線 127692" d="M638.201 1463.896h0"/><path data-name="線 127693" d="M638.201 1463.896h0"/><path data-name="線 127694" d="M638.201 1463.896h0"/><path data-name="線 127695" d="M638.201 1463.896h0"/><path data-name="パス 2605" d="M638.114 1461.848a22.142 22.142 0 00-20.007-20.007"/><path data-name="線 127696" d="M618.477 1442.146v-.414"/><path data-name="線 127697" d="M616.058 1441.732l2.419 2.419"/><path data-name="線 127698" d="M636.196 1461.477l2.005 2.419"/><path data-name="線 127699" d="M638.201 1461.87h0"/><path data-name="線 127700" d="M638.615 1466.294h0"/><path data-name="線 127701" d="M638.615 1466.294h0"/><path data-name="線 127702" d="M483.943 1527.927l2.027 2.005"/><path data-name="線 127703" d="M483.943 1486.039h0"/><path data-name="線 127704" d="M483.943 1486.039h0"/><path data-name="線 127705" d="M483.943 1486.039h0"/><path data-name="線 127706" d="M483.943 1486.039h0"/><path data-name="線 127707" d="M483.943 1486.039h0"/><path data-name="線 127708" d="M483.943 1488.044l-2.005-2.005"/><path data-name="線 127709" d="M483.943 1486.039h0"/><path data-name="パス 2606" d="M503.579 1506.155a19.763 19.763 0 00-17.588-17.588"/><path data-name="パス 2607" d="M484.052 1488.066a22.142 22.142 0 0020.007 20.007"/><path data-name="パス 2608" d="M486.471 1488.066a19.763 19.763 0 0017.588 17.588"/><path data-name="線 127710" d="M483.943 1486.039l2.419 2.419"/><path data-name="線 127711" d="M506.107 1508.182h0"/><path data-name="線 127712" d="M506.107 1508.182h0"/><path data-name="線 127713" d="M506.107 1508.182h0"/><path data-name="線 127714" d="M506.107 1508.182h0"/><path data-name="線 127715" d="M506.107 1508.182h0"/><path data-name="線 127716" d="M506.107 1508.182h0"/><path data-name="線 127717" d="M506.107 1508.182h0"/><path data-name="線 127718" d="M506.107 1508.182h0"/><path data-name="線 127719" d="M506.107 1508.182h0"/><path data-name="線 127720" d="M506.107 1508.182h0"/><path data-name="線 127721" d="M506.107 1508.182h0"/><path data-name="線 127722" d="M503.688 1507.79h0"/><path data-name="線 127723" d="M503.688 1507.79h0"/><path data-name="線 127724" d="M504.08 1508.182h-.392"/><path data-name="線 127725" d="M506.107 1505.763v.414"/><path data-name="線 127726" d="M505.693 1505.763h0"/><path data-name="線 127727" d="M505.693 1505.763h0"/><path data-name="線 127728" d="M506.107 1510.209h-.414"/><path data-name="線 127729" d="M506.107 1510.209h0"/><path data-name="線 127730" d="M506.107 1510.209h0"/><path data-name="線 127731" d="M505.693 1510.209h0"/><path data-name="線 127732" d="M505.693 1510.209h0"/><path data-name="線 127733" d="M481.938 1486.039h0"/><path data-name="線 127734" d="M483.943 1488.044h0"/><path data-name="パス 2609" d="M463.849 1505.676a19.763 19.763 0 0017.588-17.588"/><path data-name="パス 2610" d="M481.916 1488.545a19.763 19.763 0 00-17.588 17.588"/><path data-name="パス 2611" d="M481.916 1486.148a22.142 22.142 0 00-20.007 20.007"/><path data-name="線 127735" d="M461.8 1508.182h0"/><path data-name="線 127736" d="M461.8 1508.182h0"/><path data-name="線 127737" d="M461.8 1510.209h0"/><path data-name="線 127738" d="M461.8 1505.763v.414"/><path data-name="線 127739" d="M461.8 1508.182h0"/><path data-name="線 127740" d="M461.8 1508.182h0"/><path data-name="線 127741" d="M461.8 1508.182h0"/><path data-name="線 127742" d="M461.8 1508.182h0"/><path data-name="パス 2612" d="M463.849 1508.095a22.142 22.142 0 0020.007-20.007"/><path data-name="線 127743" d="M463.805 1508.182l-2.005-2.005"/><path data-name="線 127744" d="M461.8 1508.182h0"/><path data-name="線 127745" d="M463.805 1507.79v.392"/><path data-name="パス 2613" d="M481.436 1527.909a19.763 19.763 0 00-17.588-17.588"/><path data-name="パス 2614" d="M464.306 1510.231a19.763 19.763 0 0017.588 17.588"/><path data-name="パス 2615" d="M504.059 1510.296a19.763 19.763 0 00-17.588 17.588"/><path data-name="パス 2616" d="M485.991 1527.818a19.763 19.763 0 0017.588-17.588"/><path data-name="パス 2617" d="M461.909 1510.231a22.142 22.142 0 0020.007 20.007"/><path data-name="線 127746" d="M481.938 1529.932h0"/><path data-name="線 127747" d="M485.97 1529.932h0"/><path data-name="線 127748" d="M483.943 1529.932h0"/><path data-name="線 127749" d="M483.943 1529.932h0"/><path data-name="パス 2618" d="M485.991 1530.237a22.142 22.142 0 0020.007-20.007"/><path data-name="パス 2619" d="M483.856 1527.909a22.142 22.142 0 00-20.007-20.01"/><path data-name="パス 2620" d="M504.059 1507.877a22.142 22.142 0 00-20.007 20.007"/><path data-name="線 127750" d="M483.943 1529.932h0"/><path data-name="線 127751" d="M483.943 1529.932h0"/><path data-name="線 127752" d="M483.943 1527.927h0"/><path data-name="線 127753" d="M483.943 1529.932h0"/><path data-name="線 127754" d="M482.744 1486.846l-1.22 1.613"/><path data-name="線 127755" d="M464.219 1505.763l-1.22 1.22"/><path data-name="線 127756" d="M461.8 1508.182l2.419 2.027"/><path data-name="線 127757" d="M481.524 1527.927l2.419 2.005"/><path data-name="線 127758" d="M503.688 1510.209h0"/><path data-name="線 127759" d="M486.362 1527.927l-1.613 1.199"/><path data-name="線 127760" d="M503.688 1507.79l2.419 2.419"/><path data-name="線 127761" d="M505.693 1505.763l.414.414"/><path data-name="線 127762" d="M506.107 1510.209h0"/><path data-name="線 127763" d="M506.107 1510.209h0"/><path data-name="線 127764" d="M506.107 1508.182h0"/><path data-name="線 127765" d="M506.107 1508.182h0"/><path data-name="線 127766" d="M506.107 1510.209h0"/><path data-name="線 127767" d="M506.107 1505.763v.414"/><path data-name="線 127768" d="M506.107 1508.182h0"/><path data-name="線 127769" d="M506.107 1508.182h0"/><path data-name="線 127770" d="M506.107 1508.182h0"/><path data-name="線 127771" d="M506.107 1508.182h0"/><path data-name="線 127772" d="M506.107 1508.182h0"/><path data-name="パス 2621" d="M505.998 1506.155a22.143 22.143 0 00-20.007-20.007"/><path data-name="線 127773" d="M485.97 1486.039h0"/><path data-name="線 127774" d="M483.943 1486.039l2.419 2.419"/><path data-name="線 127775" d="M503.688 1505.763l2.419 2.419"/><path data-name="線 127776" d="M506.107 1506.177l-.414-.414"/><path data-name="線 127777" d="M506.107 1510.209h0"/><path data-name="線 127778" d="M506.107 1510.209h0"/><path data-name="線 127779" d="M527.858 1527.927l2.005 2.005"/><path data-name="線 127780" d="M527.858 1486.039h0"/><path data-name="線 127781" d="M527.858 1486.039h0"/><path data-name="線 127782" d="M527.858 1486.039h0"/><path data-name="線 127783" d="M527.858 1486.039h0"/><path data-name="線 127784" d="M527.858 1486.039h0"/><path data-name="線 127785" d="M528.25 1488.044l-2.419-2.005"/><path data-name="線 127786" d="M527.858 1486.039h0"/><path data-name="パス 2622" d="M547.494 1506.155a19.763 19.763 0 00-17.588-17.588"/><path data-name="パス 2623" d="M527.945 1488.066a22.142 22.142 0 0020.007 20.007"/><path data-name="パス 2624" d="M530.364 1488.066a19.763 19.763 0 0017.588 17.588"/><path data-name="線 127787" d="M527.858 1486.039l2.419 2.419"/><path data-name="線 127788" d="M550 1508.182h0"/><path data-name="線 127789" d="M550 1508.182h0"/><path data-name="線 127790" d="M550 1508.182h0"/><path data-name="線 127791" d="M550 1508.182h0"/><path data-name="線 127792" d="M550 1508.182h0"/><path data-name="線 127793" d="M550 1508.182h0"/><path data-name="線 127794" d="M550 1508.182h0"/><path data-name="線 127795" d="M550 1508.182h0"/><path data-name="線 127796" d="M550 1508.182h0"/><path data-name="線 127797" d="M550 1508.182h0"/><path data-name="線 127798" d="M550 1508.182h0"/><path data-name="線 127799" d="M547.995 1507.79h0"/><path data-name="線 127800" d="M547.995 1507.79h0"/><path data-name="線 127801" d="M547.995 1508.182h0"/><path data-name="線 127802" d="M550 1505.763v.414"/><path data-name="線 127803" d="M550 1505.763h0"/><path data-name="線 127804" d="M550 1505.763h0"/><path data-name="線 127805" d="M550 1510.209h0"/><path data-name="線 127806" d="M550 1510.209h0"/><path data-name="線 127807" d="M550 1510.209h0"/><path data-name="線 127808" d="M550 1510.209h0"/><path data-name="線 127809" d="M550 1510.209h0"/><path data-name="線 127810" d="M525.831 1486.039h0"/><path data-name="線 127811" d="M527.858 1488.044h0"/><path data-name="パス 2625" d="M508.134 1505.676a19.763 19.763 0 0017.588-17.588"/><path data-name="パス 2626" d="M525.809 1488.545a19.763 19.763 0 00-17.588 17.588"/><path data-name="パス 2627" d="M525.809 1486.148a22.142 22.142 0 00-20.007 20.007"/><path data-name="線 127812" d="M506.107 1508.182h0"/><path data-name="線 127813" d="M506.107 1508.182h0"/><path data-name="線 127814" d="M506.107 1510.209h0"/><path data-name="線 127815" d="M506.107 1505.763v.414"/><path data-name="線 127816" d="M506.107 1508.182h0"/><path data-name="線 127817" d="M506.107 1508.182h0"/><path data-name="線 127818" d="M506.107 1508.182h0"/><path data-name="線 127819" d="M506.107 1508.182h0"/><path data-name="パス 2628" d="M508.134 1508.095a22.142 22.142 0 0020.007-20.007"/><path data-name="線 127820" d="M508.112 1508.182l-2.005-2.005"/><path data-name="線 127821" d="M506.107 1508.182h0"/><path data-name="線 127822" d="M508.112 1507.79v.392"/><path data-name="パス 2629" d="M525.744 1527.909a19.763 19.763 0 00-17.588-17.588"/><path data-name="パス 2630" d="M508.221 1510.231a19.763 19.763 0 0017.588 17.588"/><path data-name="パス 2631" d="M547.971 1510.296a19.763 19.763 0 00-17.588 17.588"/><path data-name="パス 2632" d="M529.884 1527.818a19.763 19.763 0 0017.587-17.587"/><path data-name="パス 2633" d="M505.802 1510.231a22.142 22.142 0 0020.007 20.007"/><path data-name="線 127823" d="M525.831 1529.932h0"/><path data-name="線 127824" d="M530.277 1529.932h0"/><path data-name="線 127825" d="M527.858 1529.932h0"/><path data-name="線 127826" d="M527.858 1529.932h0"/><path data-name="パス 2634" d="M529.884 1530.237a22.143 22.143 0 0020.007-20.006"/><path data-name="パス 2635" d="M528.163 1527.909a22.142 22.142 0 00-20.007-20.01"/><path data-name="パス 2636" d="M547.971 1507.877a22.143 22.143 0 00-20 20.007"/><path data-name="線 127827" d="M527.858 1529.932h0"/><path data-name="線 127828" d="M527.858 1529.932h0"/><path data-name="線 127829" d="M528.25 1527.927h-.392"/><path data-name="線 127830" d="M527.858 1529.932h0"/><path data-name="線 127831" d="M527.051 1486.846l-1.22 1.613"/><path data-name="線 127832" d="M508.113 1505.763l-1.199 1.22"/><path data-name="線 127833" d="M506.107 1508.182l2.005 2.027"/><path data-name="線 127834" d="M525.831 1527.927l2.027 2.005"/><path data-name="線 127835" d="M547.581 1510.209h0"/><path data-name="線 127836" d="M530.276 1527.927l-1.22 1.199"/><path data-name="線 127837" d="M547.995 1507.79l2.005 2.419"/><path data-name="線 127838" d="M550 1505.763v.414"/><path data-name="線 127839" d="M550 1510.209h0"/><path data-name="線 127840" d="M550 1510.209h0"/><path data-name="線 127841" d="M550 1508.182h0"/><path data-name="線 127842" d="M550 1508.182h0"/><path data-name="線 127843" d="M550 1510.209h0"/><path data-name="線 127844" d="M550 1505.763v.414"/><path data-name="線 127845" d="M550 1508.182h0"/><path data-name="線 127846" d="M550 1508.182h0"/><path data-name="線 127847" d="M550 1508.182h0"/><path data-name="線 127848" d="M550 1508.182h0"/><path data-name="線 127849" d="M550 1508.182h0"/><path data-name="パス 2637" d="M549.891 1506.155a22.143 22.143 0 00-20.007-20.007"/><path data-name="線 127850" d="M530.277 1486.039h0"/><path data-name="線 127851" d="M527.858 1486.039l2.419 2.419"/><path data-name="線 127852" d="M547.581 1505.763l2.419 2.419"/><path data-name="線 127853" d="M550 1506.177v-.414"/><path data-name="線 127854" d="M550 1510.209h0"/><path data-name="線 127855" d="M550 1510.209h0"/><path data-name="線 127856" d="M572.143 1527.927l2.027 2.005"/><path data-name="線 127857" d="M572.143 1486.039h0"/><path data-name="線 127858" d="M572.143 1486.039h0"/><path data-name="線 127859" d="M572.143 1486.039h0"/><path data-name="線 127860" d="M572.143 1486.039h0"/><path data-name="線 127861" d="M572.143 1486.039h0"/><path data-name="線 127862" d="M572.143 1488.044l-2.005-2.005"/><path data-name="線 127863" d="M572.143 1486.039h0"/><path data-name="パス 2638" d="M591.779 1506.155a19.763 19.763 0 00-17.588-17.588"/><path data-name="パス 2639" d="M572.252 1488.066a22.142 22.142 0 0020.007 20.007"/><path data-name="パス 2640" d="M574.671 1488.066a19.763 19.763 0 0017.588 17.588"/><path data-name="線 127864" d="M572.143 1486.039l2.419 2.419"/><path data-name="線 127865" d="M594.308 1508.182h0"/><path data-name="線 127866" d="M594.308 1508.182h0"/><path data-name="線 127867" d="M594.308 1508.182h0"/><path data-name="線 127868" d="M594.308 1508.182h0"/><path data-name="線 127869" d="M594.308 1508.182h0"/><path data-name="線 127870" d="M594.308 1508.182h0"/><path data-name="線 127871" d="M594.308 1508.182h0"/><path data-name="線 127872" d="M594.308 1508.182h0"/><path data-name="線 127873" d="M594.308 1508.182h0"/><path data-name="線 127874" d="M594.308 1508.182h0"/><path data-name="線 127875" d="M594.308 1508.182h0"/><path data-name="線 127876" d="M591.888 1507.79h0"/><path data-name="線 127877" d="M591.888 1507.79h0"/><path data-name="線 127878" d="M592.28 1508.182h-.392"/><path data-name="線 127879" d="M594.308 1505.763v.414"/><path data-name="線 127880" d="M593.893 1505.763h0"/><path data-name="線 127881" d="M593.893 1505.763h0"/><path data-name="線 127882" d="M594.307 1510.209h-.414"/><path data-name="線 127883" d="M594.308 1510.209h0"/><path data-name="線 127884" d="M594.308 1510.209h0"/><path data-name="線 127885" d="M593.893 1510.209h0"/><path data-name="線 127886" d="M593.893 1510.209h0"/><path data-name="線 127887" d="M570.138 1486.039h0"/><path data-name="線 127888" d="M572.143 1488.044h0"/><path data-name="パス 2641" d="M552.049 1505.676a19.763 19.763 0 0017.588-17.588"/><path data-name="パス 2642" d="M570.116 1488.545a19.763 19.763 0 00-17.588 17.588"/><path data-name="パス 2643" d="M570.116 1486.148a22.143 22.143 0 00-20.007 20.007"/><path data-name="線 127889" d="M550 1508.182h0"/><path data-name="線 127890" d="M550 1508.182h0"/><path data-name="線 127891" d="M550 1510.209h0"/><path data-name="線 127892" d="M550 1505.763v.414"/><path data-name="線 127893" d="M550 1508.182h0"/><path data-name="線 127894" d="M550 1508.182h0"/><path data-name="線 127895" d="M550 1508.182h0"/><path data-name="線 127896" d="M550 1508.182h0"/><path data-name="パス 2644" d="M552.049 1508.095a22.143 22.143 0 0020.007-20.007"/><path data-name="線 127897" d="M552.419 1508.182l-2.419-2.005"/><path data-name="線 127898" d="M550 1508.182h0"/><path data-name="線 127899" d="M552.419 1507.79l-.414.392"/><path data-name="パス 2645" d="M569.637 1527.909a19.763 19.763 0 00-17.588-17.588"/><path data-name="パス 2646" d="M552.528 1510.231a19.763 19.763 0 0017.588 17.588"/><path data-name="パス 2647" d="M592.259 1510.296a19.763 19.763 0 00-17.588 17.588"/><path data-name="パス 2648" d="M574.192 1527.818a19.763 19.763 0 0017.588-17.588"/><path data-name="パス 2649" d="M550.109 1510.231a22.143 22.143 0 0020.007 20.007"/><path data-name="線 127900" d="M570.138 1529.932h0"/><path data-name="線 127901" d="M574.17 1529.932h0"/><path data-name="線 127902" d="M572.143 1529.932h0"/><path data-name="線 127903" d="M572.143 1529.932h0"/><path data-name="パス 2650" d="M574.192 1530.237a22.143 22.143 0 0020.007-20.007"/><path data-name="パス 2651" d="M572.056 1527.909a22.142 22.142 0 00-20.007-20.007"/><path data-name="パス 2652" d="M592.259 1507.877a22.142 22.142 0 00-20.007 20.007"/><path data-name="線 127904" d="M572.143 1529.932h0"/><path data-name="線 127905" d="M572.143 1529.932h0"/><path data-name="線 127906" d="M572.143 1527.927h0"/><path data-name="線 127907" d="M572.143 1529.932h0"/><path data-name="線 127908" d="M570.945 1486.846l-1.199 1.613"/><path data-name="線 127909" d="M552.42 1505.763l-1.199 1.22"/><path data-name="線 127910" d="M550 1508.182l2.419 2.027"/><path data-name="線 127911" d="M569.746 1527.927l2.397 2.005"/><path data-name="線 127912" d="M591.888 1510.209h0"/><path data-name="線 127913" d="M574.562 1527.927l-1.613 1.199"/><path data-name="線 127914" d="M591.888 1507.79l2.419 2.419"/><path data-name="線 127915" d="M593.893 1505.763l.414.414"/><path data-name="線 127916" d="M594.308 1510.209h0"/><path data-name="線 127917" d="M594.308 1510.209h0"/><path data-name="線 127918" d="M594.308 1508.182h0"/><path data-name="線 127919" d="M594.308 1508.182h0"/><path data-name="線 127920" d="M594.308 1510.209h0"/><path data-name="線 127921" d="M594.308 1505.763v.414"/><path data-name="線 127922" d="M594.308 1508.182h0"/><path data-name="線 127923" d="M594.308 1508.182h0"/><path data-name="線 127924" d="M594.308 1508.182h0"/><path data-name="線 127925" d="M594.308 1508.182h0"/><path data-name="線 127926" d="M594.308 1508.182h0"/><path data-name="パス 2653" d="M594.199 1506.155a22.143 22.143 0 00-20.007-20.007"/><path data-name="線 127927" d="M574.17 1486.039h0"/><path data-name="線 127928" d="M572.143 1486.039l2.419 2.419"/><path data-name="線 127929" d="M591.888 1505.763l2.419 2.419"/><path data-name="線 127930" d="M594.307 1506.177l-.414-.414"/><path data-name="線 127931" d="M594.308 1510.209h0"/><path data-name="線 127932" d="M594.308 1510.209h0"/><path data-name="線 127933" d="M616.058 1527.927l2.419 2.005"/><path data-name="線 127934" d="M616.058 1486.039h0"/><path data-name="線 127935" d="M616.058 1486.039h0"/><path data-name="線 127936" d="M616.058 1486.039h0"/><path data-name="線 127937" d="M616.058 1486.039h0"/><path data-name="線 127938" d="M616.058 1486.039h0"/><path data-name="線 127939" d="M616.45 1488.044l-2.419-2.005"/><path data-name="線 127940" d="M616.058 1486.039h0"/><path data-name="パス 2654" d="M635.694 1506.155a19.763 19.763 0 00-17.588-17.588"/><path data-name="パス 2655" d="M616.145 1488.066a22.142 22.142 0 0020.007 20.007"/><path data-name="パス 2656" d="M618.564 1488.066a19.763 19.763 0 0017.588 17.588"/><path data-name="線 127941" d="M616.058 1486.039l2.419 2.419"/><path data-name="線 127942" d="M638.201 1508.182h0"/><path data-name="線 127943" d="M638.201 1508.182h0"/><path data-name="線 127944" d="M638.201 1508.182h0"/><path data-name="線 127945" d="M638.201 1508.182h0"/><path data-name="線 127946" d="M638.201 1508.182h0"/><path data-name="線 127947" d="M638.201 1508.182h0"/><path data-name="線 127948" d="M638.201 1508.182h0"/><path data-name="線 127949" d="M638.201 1508.182h0"/><path data-name="線 127950" d="M638.201 1508.182h0"/><path data-name="線 127951" d="M638.201 1508.182h0"/><path data-name="線 127952" d="M638.201 1508.182h0"/><path data-name="線 127953" d="M636.196 1507.79h0"/><path data-name="線 127954" d="M636.196 1507.79h0"/><path data-name="線 127955" d="M636.196 1508.182h0"/><path data-name="線 127956" d="M638.201 1505.763v.414"/><path data-name="線 127957" d="M638.201 1505.763h0"/><path data-name="線 127958" d="M638.201 1505.763h0"/><path data-name="線 127959" d="M638.201 1510.209h0"/><path data-name="線 127960" d="M638.201 1510.209h0"/><path data-name="線 127961" d="M638.201 1510.209h0"/><path data-name="線 127962" d="M638.201 1510.209h0"/><path data-name="線 127963" d="M638.201 1510.209h0"/><path data-name="線 127964" d="M614.031 1486.039h0"/><path data-name="線 127965" d="M616.058 1488.044h0"/><path data-name="パス 2657" d="M596.334 1505.676a19.763 19.763 0 0017.588-17.588"/><path data-name="パス 2658" d="M614.009 1488.545a19.763 19.763 0 00-17.588 17.588"/><path data-name="パス 2659" d="M614.009 1486.148a22.142 22.142 0 00-20.007 20.007"/><path data-name="線 127966" d="M594.308 1508.182h0"/><path data-name="線 127967" d="M594.308 1508.182h0"/><path data-name="線 127968" d="M594.308 1510.209h0"/><path data-name="線 127969" d="M594.308 1505.763v.414"/><path data-name="線 127970" d="M594.308 1508.182h0"/><path data-name="線 127971" d="M594.308 1508.182h0"/><path data-name="線 127972" d="M594.308 1508.182h0"/><path data-name="線 127973" d="M594.308 1508.182h0"/><path data-name="パス 2660" d="M596.334 1508.095a22.142 22.142 0 0020.007-20.007"/><path data-name="線 127974" d="M596.313 1508.182l-2.005-2.005"/><path data-name="線 127975" d="M594.308 1508.182h0"/><path data-name="線 127976" d="M596.313 1507.79v.392"/><path data-name="パス 2661" d="M613.944 1527.909a19.763 19.763 0 00-17.588-17.588"/><path data-name="パス 2662" d="M596.422 1510.231a19.763 19.763 0 0017.588 17.588"/><path data-name="パス 2663" d="M636.171 1510.296a19.763 19.763 0 00-17.588 17.588"/><path data-name="パス 2664" d="M618.085 1527.818a19.763 19.763 0 0017.586-17.587"/><path data-name="パス 2665" d="M594.002 1510.231a22.142 22.142 0 0020.007 20.007"/><path data-name="線 127977" d="M614.031 1529.932h0"/><path data-name="線 127978" d="M618.477 1529.932h0"/><path data-name="線 127979" d="M616.058 1529.932h0"/><path data-name="線 127980" d="M616.058 1529.932h0"/><path data-name="パス 2666" d="M618.085 1530.237a22.142 22.142 0 0020.007-20.007"/><path data-name="パス 2667" d="M616.363 1527.909a22.142 22.142 0 00-20.007-20.007"/><path data-name="パス 2668" d="M636.171 1507.877a22.142 22.142 0 00-20 20.007"/><path data-name="線 127981" d="M616.058 1529.932h0"/><path data-name="線 127982" d="M616.058 1529.932h0"/><path data-name="線 127983" d="M616.45 1527.927h-.392"/><path data-name="線 127984" d="M616.058 1529.932h0"/><path data-name="線 127985" d="M615.251 1486.846l-1.22 1.613"/><path data-name="線 127986" d="M596.313 1505.763l-1.199 1.22"/><path data-name="線 127987" d="M594.308 1508.182l2.005 2.027"/><path data-name="線 127988" d="M614.031 1527.927l2.027 2.005"/><path data-name="線 127989" d="M636.196 1510.209h0"/><path data-name="線 127990" d="M618.477 1527.927l-1.22 1.199"/><path data-name="線 127991" d="M636.196 1507.79l2.005 2.419"/><path data-name="線 127992" d="M638.201 1505.763v.414"/><path data-name="線 127993" d="M638.201 1510.209h0"/><path data-name="線 127994" d="M638.201 1510.209h0"/><path data-name="線 127995" d="M638.201 1508.182h0"/><path data-name="線 127996" d="M638.201 1508.182h0"/><path data-name="線 127997" d="M638.201 1510.209h0"/><path data-name="線 127998" d="M638.201 1505.763v.414"/><path data-name="線 127999" d="M638.201 1508.182h0"/><path data-name="線 128000" d="M638.201 1508.182h0"/><path data-name="線 128001" d="M638.201 1508.182h0"/><path data-name="線 128002" d="M638.201 1508.182h0"/><path data-name="線 128003" d="M638.201 1508.182h0"/><path data-name="パス 2669" d="M638.114 1506.155a22.143 22.143 0 00-20.007-20.007"/><path data-name="線 128004" d="M618.477 1486.039h0"/><path data-name="線 128005" d="M616.058 1486.039l2.419 2.419"/><path data-name="線 128006" d="M636.196 1505.763l2.005 2.419"/><path data-name="線 128007" d="M638.201 1506.177v-.414"/><path data-name="線 128008" d="M638.201 1510.209h0"/><path data-name="線 128009" d="M638.201 1510.209h0"/><path data-name="線 128010" d="M483.943 1529.932H461.8"/><path data-name="線 128011" d="M483.943 1540.808h-33.018"/><path data-name="線 128012" d="M450.925 1540.808v-197.345"/><path data-name="線 128013" d="M461.8 1529.932v-176.008"/><path data-name="線 128014" d="M638.201 1529.932H483.943"/><path data-name="線 128015" d="M638.201 1529.932v-176.008"/><path data-name="線 128016" d="M649.076 1540.808v-197.345"/><path data-name="線 128017" d="M649.076 1540.808H483.943"/></g></g></svg>