<svg xmlns="http://www.w3.org/2000/svg" width="200" height="230"><defs><clipPath id="a"><path data-name="長方形 180" transform="translate(450 1327)" fill="#ccc" d="M0 0h200v230H0z"/></clipPath></defs><g data-name="マスクグループ 574" transform="translate(-450 -1327)" clip-path="url(#a)"><g data-name="グループ 3442" fill="none" stroke="#c49535" stroke-linecap="round" stroke-linejoin="round" stroke-width="1.321"><path data-name="線 116389" d="M461.919 1544.918v-192.43"/><path data-name="線 116390" d="M505.442 1389.517l.815-.396"/><path data-name="線 116391" d="M578.266 1339.478h-74.85"/><path data-name="線 116392" d="M504.627 1341.107l.815-.418"/><path data-name="線 116393" d="M550.197 1363.892l-42.708-24.414"/><path data-name="線 116394" d="M550.197 1366.336l-46.781-26.858"/><path data-name="線 116395" d="M547.754 1365.103l-41.498 24.018"/><path data-name="線 116396" d="M548.987 1390.728v-23.578"/><path data-name="線 116397" d="M548.987 1414.746v-24.018"/><path data-name="線 116398" d="M548.987 1442.396V1418.4"/><path data-name="線 116399" d="M550.197 1418.004l-42.708 24.392"/><path data-name="線 116400" d="M547.754 1416.375l-42.312 24.811"/><path data-name="線 116401" d="M504.231 1389.121v-48.014"/><path data-name="線 116402" d="M506.675 1397.244v-4.469"/><path data-name="線 116403" d="M507.885 1390.728h-.396"/><path data-name="線 116404" d="M506.675 1389.121v-48.014"/><path data-name="線 116405" d="M507.489 1390.728l42.708 24.414"/><path data-name="線 116406" d="M506.675 1392.776l-1.233-.815"/><path data-name="線 116407" d="M506.675 1392.775l43.523 25.229"/><path data-name="線 116408" d="M550.197 1366.336l-42.708 24.392"/><path data-name="線 116409" d="M506.675 1440.371v-47.596"/><path data-name="線 116410" d="M504.231 1397.244v-4.469"/><path data-name="線 116411" d="M504.231 1440.371v-47.596"/><path data-name="線 116412" d="M504.231 1391.542l1.211.418"/><path data-name="線 116413" d="M506.675 1390.332l.815.396"/><path data-name="線 116414" d="M505.442 1391.961l-42.312 24.414"/><path data-name="線 116415" d="M461.919 1442.396V1418.4"/><path data-name="線 116416" d="M461.919 1414.746v-24.018"/><path data-name="線 116417" d="M504.628 1341.107l-41.498 23.996"/><path data-name="線 116418" d="M461.919 1390.728v-23.578"/><path data-name="線 116419" d="M461.919 1363.078v-23.6"/><path data-name="線 116420" d="M548.987 1363.078v-23.6"/><path data-name="線 116421" d="M505.442 1492.039l.815-.418"/><path data-name="線 116422" d="M504.627 1444.025l.815-.396"/><path data-name="線 116423" d="M550.197 1466.414l-42.708-24.018"/><path data-name="線 116424" d="M550.197 1468.858l-46.781-26.462"/><path data-name="線 116425" d="M547.754 1467.625l-41.498 23.996"/><path data-name="線 116426" d="M548.987 1493.25v-23.578"/><path data-name="線 116427" d="M548.987 1517.268v-24.018"/><path data-name="線 116428" d="M548.987 1544.919v-23.996"/><path data-name="線 116429" d="M550.197 1520.526l-42.708 24.392"/><path data-name="線 116430" d="M547.754 1518.897l-42.312 24.811"/><path data-name="線 116431" d="M504.231 1491.621v-47.596"/><path data-name="線 116432" d="M506.675 1499.767v-4.469"/><path data-name="線 116433" d="M507.885 1493.25h-.396"/><path data-name="線 116434" d="M506.675 1491.621v-47.596"/><path data-name="線 116435" d="M507.489 1493.25l42.708 24.414"/><path data-name="線 116436" d="M506.675 1495.298l-1.233-.815"/><path data-name="線 116437" d="M506.675 1495.298l43.523 25.229"/><path data-name="線 116438" d="M550.197 1468.858l-42.708 24.392"/><path data-name="線 116439" d="M506.675 1542.894v-47.596"/><path data-name="線 116440" d="M504.231 1499.767v-4.469"/><path data-name="線 116441" d="M504.231 1542.894v-47.596"/><path data-name="線 116442" d="M504.231 1494.065l1.211.418"/><path data-name="線 116443" d="M506.675 1492.854l.815.396"/><path data-name="線 116444" d="M505.442 1494.483l-42.312 24.414"/><path data-name="線 116445" d="M461.919 1517.268v-24.018"/><path data-name="線 116446" d="M504.628 1444.025l-41.498 23.6"/><path data-name="線 116447" d="M461.919 1493.25v-23.578"/><path data-name="線 116448" d="M461.919 1465.599v-23.203"/><path data-name="線 116449" d="M548.987 1465.599v-23.203"/><path data-name="線 116450" d="M594.535 1389.517l.815-.396"/><path data-name="線 116451" d="M593.721 1341.107l.815-.418"/><path data-name="線 116452" d="M636.848 1365.103l-41.498 24.018"/><path data-name="線 116453" d="M638.08 1390.728v-23.578"/><path data-name="線 116454" d="M638.08 1414.746v-24.018"/><path data-name="線 116455" d="M638.08 1442.396V1418.4"/><path data-name="線 116456" d="M636.847 1416.375l-42.312 24.811"/><path data-name="線 116457" d="M593.324 1389.121v-48.014"/><path data-name="線 116458" d="M595.768 1397.244v-4.469"/><path data-name="線 116459" d="M596.979 1390.728h0"/><path data-name="線 116460" d="M595.768 1389.121v-48.014"/><path data-name="線 116461" d="M595.768 1392.776l-1.233-.815"/><path data-name="線 116462" d="M595.768 1440.371v-47.596"/><path data-name="線 116463" d="M593.324 1397.244v-4.469"/><path data-name="線 116464" d="M593.324 1440.371v-47.596"/><path data-name="線 116465" d="M593.324 1391.542l1.211.418"/><path data-name="線 116466" d="M595.768 1390.332l1.211.396"/><path data-name="線 116467" d="M592.51 1442.396l-42.312-24.392"/><path data-name="線 116468" d="M592.51 1390.728l-42.312 24.414"/><path data-name="線 116469" d="M596.979 1442.396l-46.781-27.254"/><path data-name="線 116470" d="M594.535 1391.961l-42.29 24.414"/><path data-name="線 116471" d="M551.012 1442.396V1418.4"/><path data-name="線 116472" d="M551.012 1414.746v-24.018"/><path data-name="線 116473" d="M593.721 1341.107l-41.476 23.996"/><path data-name="線 116474" d="M551.012 1390.728v-23.578"/><path data-name="線 116475" d="M592.51 1339.478l-42.312 24.414"/><path data-name="線 116476" d="M595.768 1390.332l-45.57-26.44"/><path data-name="線 116477" d="M593.325 1391.543l-43.127-25.207"/><path data-name="線 116478" d="M551.012 1363.078v-23.6"/><path data-name="線 116479" d="M594.535 1492.039l.815-.418"/><path data-name="線 116480" d="M593.721 1444.025l.815-.396"/><path data-name="線 116481" d="M636.848 1467.625l-41.498 23.996"/><path data-name="線 116482" d="M638.08 1493.25v-23.578"/><path data-name="線 116483" d="M638.08 1517.268v-24.018"/><path data-name="線 116484" d="M638.08 1544.919v-23.996"/><path data-name="線 116485" d="M636.847 1518.897l-42.312 24.811"/><path data-name="線 116486" d="M593.324 1491.621v-47.596"/><path data-name="線 116487" d="M595.768 1499.767v-4.469"/><path data-name="線 116488" d="M596.979 1493.25h0"/><path data-name="線 116489" d="M595.768 1491.621v-47.596"/><path data-name="線 116490" d="M595.768 1495.298l-1.233-.815"/><path data-name="線 116491" d="M595.768 1542.894v-47.596"/><path data-name="線 116492" d="M593.324 1499.767v-4.469"/><path data-name="線 116493" d="M593.324 1542.894v-47.596"/><path data-name="線 116494" d="M593.324 1494.065l1.211.418"/><path data-name="線 116495" d="M595.768 1492.854l1.211.396"/><path data-name="線 116496" d="M592.51 1544.918l-42.312-24.392"/><path data-name="線 116497" d="M592.51 1493.25l-42.312 24.414"/><path data-name="線 116498" d="M596.979 1544.918l-46.781-27.254"/><path data-name="線 116499" d="M594.535 1494.483l-42.29 24.414"/><path data-name="線 116500" d="M551.012 1544.919v-23.996"/><path data-name="線 116501" d="M551.012 1517.268v-24.018"/><path data-name="線 116502" d="M593.721 1444.025l-41.476 23.6"/><path data-name="線 116503" d="M551.012 1493.25v-23.578"/><path data-name="線 116504" d="M592.51 1442.396l-42.312 24.018"/><path data-name="線 116505" d="M595.768 1492.854l-45.57-26.44"/><path data-name="線 116506" d="M593.325 1494.065l-43.127-25.207"/><path data-name="線 116507" d="M551.012 1465.599v-23.203"/><path data-name="線 116508" d="M638.08 1465.599v-23.203"/><path data-name="線 116509" d="M649.065 1555.507v-227.015"/><path data-name="線 116510" d="M486.729 1360.216l1.233-.815"/><path data-name="線 116511" d="M489.591 1364.289l-2.862-4.073"/><path data-name="線 116512" d="M491.22 1364.288l-3.258-4.887"/><path data-name="線 116513" d="M504.231 1342.736l-12.218 21.552"/><path data-name="線 116514" d="M487.962 1370.805l-1.233-.815"/><path data-name="線 116515" d="M496.9 1365.917h-32.538"/><path data-name="線 116516" d="M496.9 1364.288h-32.538"/><path data-name="線 116517" d="M496.9 1365.917v-1.629"/><path data-name="線 116518" d="M504.231 1387.491l-12.218-21.574"/><path data-name="線 116519" d="M502.998 1388.306l-12.592-22.389"/><path data-name="線 116520" d="M489.591 1365.917l-2.862 4.073"/><path data-name="線 116521" d="M502.998 1341.921l-12.196 21.971"/><path data-name="線 116522" d="M490.802 1366.336l-2.84 4.469"/><path data-name="線 116523" d="M507.885 1442.396h-.396"/><path data-name="線 116524" d="M486.729 1411.488l1.233-.815"/><path data-name="線 116525" d="M489.591 1415.957l-2.862-4.469"/><path data-name="線 116526" d="M491.22 1415.957l-3.258-5.284"/><path data-name="線 116527" d="M504.231 1393.986l-12.218 21.971"/><path data-name="線 116528" d="M487.962 1422.474l-1.233-.815"/><path data-name="線 116529" d="M496.9 1417.19h-32.538"/><path data-name="線 116530" d="M496.9 1415.957h-32.538"/><path data-name="線 116531" d="M496.9 1417.19v-1.233"/><path data-name="線 116532" d="M504.231 1439.161l-12.218-21.971"/><path data-name="線 116533" d="M502.998 1439.557l-12.592-22.367"/><path data-name="線 116534" d="M489.591 1417.19l-2.862 4.469"/><path data-name="線 116535" d="M502.998 1393.59l-12.196 21.552"/><path data-name="線 116536" d="M490.802 1418.004l-2.84 4.469"/><path data-name="線 116537" d="M464.363 1417.19l-1.233-.815"/><path data-name="線 116538" d="M464.363 1415.957l-1.233.418"/><path data-name="線 116539" d="M504.231 1440.371l-1.233-.815"/><path data-name="線 116540" d="M504.231 1393.986v-1.211"/><path data-name="線 116541" d="M504.231 1440.371v-1.211"/><path data-name="線 116542" d="M504.231 1392.775l-1.233.815"/><path data-name="線 116543" d="M552.245 1467.625h0"/><path data-name="線 116544" d="M531.485 1437.113l1.211-.396"/><path data-name="線 116545" d="M533.929 1441.582l-2.444-4.469"/><path data-name="線 116546" d="M535.558 1441.582l-2.862-4.865"/><path data-name="線 116547" d="M548.986 1420.029l-12.614 21.552"/><path data-name="線 116548" d="M532.696 1448.099l-1.211-.815"/><path data-name="線 116549" d="M541.26 1442.815H508.7"/><path data-name="線 116550" d="M541.26 1441.582H508.7"/><path data-name="線 116551" d="M541.26 1442.815v-1.233"/><path data-name="線 116552" d="M548.986 1464.367l-12.614-21.552"/><path data-name="線 116553" d="M547.754 1465.182l-13.011-22.367"/><path data-name="線 116554" d="M533.929 1442.815l-2.444 4.469"/><path data-name="線 116555" d="M547.754 1419.215l-12.614 21.552"/><path data-name="線 116556" d="M535.14 1443.629l-2.444 4.469"/><path data-name="線 116557" d="M508.7 1442.814l-1.211-.418"/><path data-name="線 116558" d="M508.7 1441.582l-1.211.815"/><path data-name="線 116559" d="M548.987 1465.6l-1.233-.418"/><path data-name="線 116560" d="M548.987 1420.029v-1.629"/><path data-name="線 116561" d="M548.987 1465.6v-1.233"/><path data-name="線 116562" d="M548.987 1418.4l-1.233.815"/><path data-name="線 116563" d="M552.245 1416.771v-.396"/><path data-name="線 116564" d="M531.485 1385.863l1.211-.815"/><path data-name="線 116565" d="M533.929 1390.332l-2.444-4.469"/><path data-name="線 116566" d="M535.558 1390.332l-2.862-5.284"/><path data-name="線 116567" d="M548.986 1368.361l-12.614 21.971"/><path data-name="線 116568" d="M532.696 1396.429l-1.211-.396"/><path data-name="線 116569" d="M541.26 1391.542H508.7"/><path data-name="線 116570" d="M541.26 1390.332H508.7"/><path data-name="線 116571" d="M541.26 1391.543v-1.211"/><path data-name="線 116572" d="M548.986 1413.116l-12.614-21.574"/><path data-name="線 116573" d="M547.754 1413.931l-13.011-22.389"/><path data-name="線 116574" d="M533.929 1391.542l-2.444 4.491"/><path data-name="線 116575" d="M547.754 1367.546l-12.614 21.971"/><path data-name="線 116576" d="M535.14 1392.357l-2.444 4.073"/><path data-name="線 116577" d="M508.7 1391.543l-1.211-.815"/><path data-name="線 116578" d="M508.7 1390.332l-1.211.396"/><path data-name="線 116579" d="M548.987 1414.746l-1.233-.815"/><path data-name="線 116580" d="M548.987 1368.361v-1.211"/><path data-name="線 116581" d="M548.987 1414.746v-1.629"/><path data-name="線 116582" d="M548.987 1367.15l-1.233.396"/><path data-name="線 116583" d="M596.979 1390.728h0"/><path data-name="線 116584" d="M575.823 1360.216l1.233-.815"/><path data-name="線 116585" d="M578.685 1364.289l-2.862-4.073"/><path data-name="線 116586" d="M580.313 1364.288l-3.258-4.887"/><path data-name="線 116587" d="M593.324 1342.736l-12.196 21.552"/><path data-name="線 116588" d="M577.056 1370.805l-1.233-.815"/><path data-name="線 116589" d="M585.994 1365.917h-32.538"/><path data-name="線 116590" d="M585.994 1364.288h-32.538"/><path data-name="線 116591" d="M585.993 1365.917v-1.629"/><path data-name="線 116592" d="M593.324 1387.491l-12.196-21.574"/><path data-name="線 116593" d="M592.51 1388.306l-13.011-22.389"/><path data-name="線 116594" d="M578.685 1365.917l-2.862 4.073"/><path data-name="線 116595" d="M592.509 1341.921l-12.614 21.971"/><path data-name="線 116596" d="M579.895 1366.336l-2.84 4.469"/><path data-name="線 116597" d="M553.456 1365.918l-1.211-.815"/><path data-name="線 116598" d="M553.456 1364.288l-1.211.815"/><path data-name="線 116599" d="M593.325 1389.121l-.815-.815"/><path data-name="線 116600" d="M593.324 1342.736v-1.629"/><path data-name="線 116601" d="M593.324 1389.121v-1.629"/><path data-name="線 116602" d="M593.325 1341.107l-.815.815"/><path data-name="線 116603" d="M641.338 1416.771v-.396"/><path data-name="線 116604" d="M620.578 1385.863l1.233-.815"/><path data-name="線 116605" d="M623.022 1390.332l-2.444-4.469"/><path data-name="線 116606" d="M624.651 1390.332l-2.84-5.284"/><path data-name="線 116607" d="M638.08 1368.361l-12.614 21.971"/><path data-name="線 116608" d="M621.811 1396.429l-1.233-.396"/><path data-name="線 116609" d="M630.749 1391.542h-32.956"/><path data-name="線 116610" d="M630.749 1390.332h-32.956"/><path data-name="線 116611" d="M630.749 1391.543v-1.211"/><path data-name="線 116612" d="M638.08 1413.116l-12.614-21.574"/><path data-name="線 116613" d="M636.848 1413.931l-13.011-22.389"/><path data-name="線 116614" d="M623.022 1391.542l-2.444 4.491"/><path data-name="線 116615" d="M636.847 1367.546l-12.614 21.971"/><path data-name="線 116616" d="M624.233 1392.357l-2.422 4.073"/><path data-name="線 116617" d="M597.794 1391.543l-.815-.815"/><path data-name="線 116618" d="M597.794 1390.332l-.815.396"/><path data-name="線 116619" d="M638.08 1414.746l-1.233-.815"/><path data-name="線 116620" d="M638.08 1368.361v-1.211"/><path data-name="線 116621" d="M638.08 1414.746v-1.629"/><path data-name="線 116622" d="M638.08 1367.15l-1.233.396"/><path data-name="線 116623" d="M596.979 1442.396h0"/><path data-name="線 116624" d="M575.823 1411.488l1.233-.815"/><path data-name="線 116625" d="M578.685 1415.957l-2.862-4.469"/><path data-name="線 116626" d="M580.313 1415.957l-3.258-5.284"/><path data-name="線 116627" d="M593.324 1393.986l-12.196 21.971"/><path data-name="線 116628" d="M577.056 1422.474l-1.233-.815"/><path data-name="線 116629" d="M585.994 1417.19h-32.538"/><path data-name="線 116630" d="M585.994 1415.957h-32.538"/><path data-name="線 116631" d="M585.993 1417.19v-1.233"/><path data-name="線 116632" d="M593.324 1439.161l-12.196-21.971"/><path data-name="線 116633" d="M592.51 1439.557l-13.011-22.367"/><path data-name="線 116634" d="M578.685 1417.19l-2.862 4.469"/><path data-name="線 116635" d="M592.509 1393.59l-12.614 21.552"/><path data-name="線 116636" d="M579.895 1418.004l-2.84 4.469"/><path data-name="線 116637" d="M553.456 1417.19l-1.211-.815"/><path data-name="線 116638" d="M553.456 1415.957l-1.211.418"/><path data-name="線 116639" d="M593.325 1440.371l-.815-.815"/><path data-name="線 116640" d="M593.324 1393.986v-1.211"/><path data-name="線 116641" d="M593.324 1440.371v-1.211"/><path data-name="線 116642" d="M593.325 1392.775l-.815.815"/><path data-name="線 116643" d="M641.338 1467.625h0"/><path data-name="線 116644" d="M620.578 1437.113l1.233-.396"/><path data-name="線 116645" d="M623.022 1441.582l-2.444-4.469"/><path data-name="線 116646" d="M624.651 1441.582l-2.84-4.865"/><path data-name="線 116647" d="M638.08 1420.029l-12.614 21.552"/><path data-name="線 116648" d="M621.811 1448.099l-1.233-.815"/><path data-name="線 116649" d="M630.749 1442.815h-32.956"/><path data-name="線 116650" d="M630.749 1441.582h-32.956"/><path data-name="線 116651" d="M630.749 1442.815v-1.233"/><path data-name="線 116652" d="M638.08 1464.367l-12.614-21.552"/><path data-name="線 116653" d="M636.848 1465.182l-13.011-22.367"/><path data-name="線 116654" d="M623.022 1442.815l-2.444 4.469"/><path data-name="線 116655" d="M636.847 1419.215l-12.614 21.552"/><path data-name="線 116656" d="M624.233 1443.629l-2.422 4.469"/><path data-name="線 116657" d="M597.794 1442.814l-.815-.418"/><path data-name="線 116658" d="M597.794 1441.582l-.815.815"/><path data-name="線 116659" d="M638.08 1465.6l-1.233-.418"/><path data-name="線 116660" d="M638.08 1420.029v-1.629"/><path data-name="線 116661" d="M638.08 1465.6v-1.233"/><path data-name="線 116662" d="M638.08 1418.4l-1.233.815"/><path data-name="線 116663" d="M507.885 1493.25h0"/><path data-name="線 116664" d="M464.759 1466.811l-1.211.418"/><path data-name="線 116665" d="M504.627 1444.025l-1.211.815"/><path data-name="線 116666" d="M507.885 1544.919h-.396"/><path data-name="線 116667" d="M486.729 1514.01l1.233-.815"/><path data-name="線 116668" d="M489.591 1518.479l-2.862-4.469"/><path data-name="線 116669" d="M491.22 1518.479l-3.258-5.284"/><path data-name="線 116670" d="M504.231 1496.508l-12.218 21.971"/><path data-name="線 116671" d="M487.962 1524.996l-1.233-.815"/><path data-name="線 116672" d="M496.9 1519.712h-32.538"/><path data-name="線 116673" d="M496.9 1518.479h-32.538"/><path data-name="線 116674" d="M496.9 1519.712v-1.233"/><path data-name="線 116675" d="M504.231 1541.683l-12.218-21.971"/><path data-name="線 116676" d="M502.998 1542.079l-12.592-22.367"/><path data-name="線 116677" d="M489.591 1519.712l-2.862 4.469"/><path data-name="線 116678" d="M502.998 1496.112l-12.196 21.552"/><path data-name="線 116679" d="M490.802 1520.526l-2.84 4.469"/><path data-name="線 116680" d="M464.363 1519.712l-1.233-.815"/><path data-name="線 116681" d="M464.363 1518.479l-1.233.418"/><path data-name="線 116682" d="M504.231 1542.894l-1.233-.815"/><path data-name="線 116683" d="M504.231 1496.509v-1.211"/><path data-name="線 116684" d="M504.231 1542.893v-1.211"/><path data-name="線 116685" d="M504.231 1495.298l-1.233.815"/><path data-name="線 116686" d="M552.245 1518.897h0"/><path data-name="線 116687" d="M531.485 1488.385l1.211-.815"/><path data-name="線 116688" d="M533.929 1492.854l-2.444-4.469"/><path data-name="線 116689" d="M535.558 1492.854l-2.862-5.284"/><path data-name="線 116690" d="M548.986 1470.883l-12.614 21.971"/><path data-name="線 116691" d="M532.696 1498.952l-1.211-.396"/><path data-name="線 116692" d="M541.26 1494.065H508.7"/><path data-name="線 116693" d="M541.26 1492.854H508.7"/><path data-name="線 116694" d="M541.26 1494.065v-1.211"/><path data-name="線 116695" d="M548.986 1515.639l-12.614-21.574"/><path data-name="線 116696" d="M547.754 1516.454l-13.011-22.389"/><path data-name="線 116697" d="M533.929 1494.065l-2.444 4.491"/><path data-name="線 116698" d="M547.754 1470.069l-12.614 21.971"/><path data-name="線 116699" d="M535.14 1494.879l-2.444 4.073"/><path data-name="線 116700" d="M508.7 1494.065l-1.211-.815"/><path data-name="線 116701" d="M508.7 1492.854l-1.211.396"/><path data-name="線 116702" d="M548.987 1517.269l-1.233-.815"/><path data-name="線 116703" d="M548.987 1470.883v-1.211"/><path data-name="線 116704" d="M548.987 1517.268v-1.629"/><path data-name="線 116705" d="M548.987 1469.672l-1.233.396"/><path data-name="線 116706" d="M596.979 1493.25h0"/><path data-name="線 116707" d="M575.823 1462.738l1.233-.815"/><path data-name="線 116708" d="M578.685 1466.811l-2.862-4.073"/><path data-name="線 116709" d="M580.313 1466.81l-3.258-4.887"/><path data-name="線 116710" d="M593.324 1445.654l-12.196 21.156"/><path data-name="線 116711" d="M577.056 1473.327l-1.233-.815"/><path data-name="線 116712" d="M585.994 1468.44h-32.538"/><path data-name="線 116713" d="M585.994 1466.811h-32.538"/><path data-name="線 116714" d="M585.993 1468.44v-1.629"/><path data-name="線 116715" d="M593.324 1490.014l-12.196-21.574"/><path data-name="線 116716" d="M592.51 1490.829l-13.011-22.389"/><path data-name="線 116717" d="M578.685 1468.44l-2.862 4.073"/><path data-name="線 116718" d="M592.509 1444.84l-12.614 21.574"/><path data-name="線 116719" d="M579.895 1468.858l-2.84 4.469"/><path data-name="線 116720" d="M553.456 1468.44l-1.211-.815"/><path data-name="線 116721" d="M553.456 1466.811l-1.211.815"/><path data-name="線 116722" d="M593.325 1491.622l-.815-.793"/><path data-name="線 116723" d="M593.324 1445.654v-1.629"/><path data-name="線 116724" d="M593.324 1491.621v-1.607"/><path data-name="線 116725" d="M593.325 1444.025l-.815.815"/><path data-name="線 116726" d="M596.979 1544.919h0"/><path data-name="線 116727" d="M575.823 1514.01l1.233-.815"/><path data-name="線 116728" d="M578.685 1518.479l-2.862-4.469"/><path data-name="線 116729" d="M580.313 1518.479l-3.258-5.284"/><path data-name="線 116730" d="M593.324 1496.508l-12.196 21.971"/><path data-name="線 116731" d="M577.056 1524.996l-1.233-.815"/><path data-name="線 116732" d="M585.994 1519.712h-32.538"/><path data-name="線 116733" d="M585.994 1518.479h-32.538"/><path data-name="線 116734" d="M585.993 1519.712v-1.233"/><path data-name="線 116735" d="M593.324 1541.683l-12.196-21.971"/><path data-name="線 116736" d="M592.51 1542.079l-13.011-22.367"/><path data-name="線 116737" d="M578.685 1519.712l-2.862 4.469"/><path data-name="線 116738" d="M592.509 1496.112l-12.614 21.552"/><path data-name="線 116739" d="M579.895 1520.526l-2.84 4.469"/><path data-name="線 116740" d="M553.456 1519.712l-1.211-.815"/><path data-name="線 116741" d="M553.456 1518.479l-1.211.418"/><path data-name="線 116742" d="M593.325 1542.894l-.815-.815"/><path data-name="線 116743" d="M593.324 1496.509v-1.211"/><path data-name="線 116744" d="M593.324 1542.893v-1.211"/><path data-name="線 116745" d="M593.325 1495.298l-.815.815"/><path data-name="線 116746" d="M641.338 1518.897h0"/><path data-name="線 116747" d="M620.578 1488.385l1.233-.815"/><path data-name="線 116748" d="M623.022 1492.854l-2.444-4.469"/><path data-name="線 116749" d="M624.651 1492.854l-2.84-5.284"/><path data-name="線 116750" d="M638.08 1470.883l-12.614 21.971"/><path data-name="線 116751" d="M621.811 1498.952l-1.233-.396"/><path data-name="線 116752" d="M630.749 1494.065h-32.956"/><path data-name="線 116753" d="M630.749 1492.854h-32.956"/><path data-name="線 116754" d="M630.749 1494.065v-1.211"/><path data-name="線 116755" d="M638.08 1515.639l-12.614-21.574"/><path data-name="線 116756" d="M636.848 1516.454l-13.011-22.389"/><path data-name="線 116757" d="M623.022 1494.065l-2.444 4.491"/><path data-name="線 116758" d="M636.847 1470.069l-12.614 21.971"/><path data-name="線 116759" d="M624.233 1494.879l-2.422 4.073"/><path data-name="線 116760" d="M597.794 1494.065l-.815-.815"/><path data-name="線 116761" d="M597.794 1492.854l-.815.396"/><path data-name="線 116762" d="M638.08 1517.269l-1.233-.815"/><path data-name="線 116763" d="M638.08 1470.883v-1.211"/><path data-name="線 116764" d="M638.08 1517.268v-1.629"/><path data-name="線 116765" d="M638.08 1469.672l-1.233.396"/><path data-name="線 116766" d="M551.012 1363.077h0"/><path data-name="線 116767" d="M513.983 1365.917v-1.629"/><path data-name="線 116768" d="M519.289 1365.917h-5.306"/><path data-name="線 116769" d="M520.103 1364.288h-6.12"/><path data-name="線 116770" d="M507.885 1341.921l12.614 21.971"/><path data-name="線 116771" d="M524.154 1369.99l-1.211.815"/><path data-name="線 116772" d="M507.885 1388.307l16.269-28.091"/><path data-name="線 116773" d="M506.675 1387.492l16.269-28.091"/><path data-name="線 116774" d="M524.154 1360.216l-1.211-.815"/><path data-name="線 116775" d="M546.544 1364.288h-24.811"/><path data-name="線 116776" d="M546.543 1365.917h-25.625"/><path data-name="線 116777" d="M520.5 1366.336l2.444 4.469"/><path data-name="線 116778" d="M506.675 1342.736l12.614 21.552"/><path data-name="線 116779" d="M521.733 1365.917l2.422 4.073"/><path data-name="線 116780" d="M507.886 1388.306l-1.211.815"/><path data-name="線 116781" d="M506.675 1389.121v-1.629"/><path data-name="線 116782" d="M547.754 1365.103l-1.211.815"/><path data-name="線 116783" d="M506.675 1341.107l1.211.815"/><path data-name="線 116784" d="M546.543 1364.288l1.211.815"/><path data-name="線 116785" d="M506.675 1342.736v-1.629"/><path data-name="線 116786" d="M506.675 1389.121h0"/><path data-name="線 116787" d="M469.646 1391.543v-1.211"/><path data-name="線 116788" d="M474.533 1391.542h-4.887"/><path data-name="線 116789" d="M475.348 1390.332h-5.702"/><path data-name="線 116790" d="M463.13 1367.546l12.614 21.971"/><path data-name="線 116791" d="M479.421 1396.033l-1.233.396"/><path data-name="線 116792" d="M463.13 1413.932l16.291-28.069"/><path data-name="線 116793" d="M461.919 1413.117l16.269-28.069"/><path data-name="線 116794" d="M479.421 1385.863l-1.233-.815"/><path data-name="線 116795" d="M502.184 1390.332h-25.207"/><path data-name="線 116796" d="M502.183 1391.542h-26.021"/><path data-name="線 116797" d="M475.744 1392.357l2.444 4.073"/><path data-name="線 116798" d="M461.919 1368.361l12.614 21.971"/><path data-name="線 116799" d="M476.977 1391.542l2.444 4.491"/><path data-name="線 116800" d="M463.13 1413.931l-1.211.815"/><path data-name="線 116801" d="M461.919 1414.746v-1.629"/><path data-name="線 116802" d="M503.417 1390.728l-1.233.815"/><path data-name="線 116803" d="M461.919 1367.15l1.211.396"/><path data-name="線 116804" d="M502.184 1390.332l1.233.396"/><path data-name="線 116805" d="M461.919 1368.361v-1.211"/><path data-name="線 116806" d="M551.012 1414.746h0"/><path data-name="線 116807" d="M513.983 1417.19v-1.233"/><path data-name="線 116808" d="M519.289 1417.19h-5.306"/><path data-name="線 116809" d="M520.103 1415.957h-6.12"/><path data-name="線 116810" d="M507.885 1393.59l12.614 21.552"/><path data-name="線 116811" d="M524.154 1421.659l-1.211.815"/><path data-name="線 116812" d="M507.885 1439.557l16.269-28.069"/><path data-name="線 116813" d="M506.675 1439.16l16.269-28.487"/><path data-name="線 116814" d="M524.154 1411.488l-1.211-.815"/><path data-name="線 116815" d="M546.544 1415.957h-24.811"/><path data-name="線 116816" d="M546.543 1417.19h-25.625"/><path data-name="線 116817" d="M520.5 1418.004l2.444 4.469"/><path data-name="線 116818" d="M506.675 1393.986l12.614 21.971"/><path data-name="線 116819" d="M521.733 1417.19l2.422 4.469"/><path data-name="線 116820" d="M507.886 1439.556l-1.211.815"/><path data-name="線 116821" d="M506.675 1440.371v-1.211"/><path data-name="線 116822" d="M547.754 1416.375l-1.211.815"/><path data-name="線 116823" d="M506.675 1392.775l1.211.815"/><path data-name="線 116824" d="M546.543 1415.957l1.211.418"/><path data-name="線 116825" d="M506.675 1393.986v-1.211"/><path data-name="線 116826" d="M595.768 1389.121h0"/><path data-name="線 116827" d="M558.739 1391.543v-1.211"/><path data-name="線 116828" d="M563.626 1391.542h-4.887"/><path data-name="線 116829" d="M564.441 1390.332h-5.702"/><path data-name="線 116830" d="M552.245 1367.546l12.592 21.971"/><path data-name="線 116831" d="M568.514 1396.033l-1.233.396"/><path data-name="線 116832" d="M552.245 1413.932l16.269-28.069"/><path data-name="線 116833" d="M551.012 1413.117l16.269-28.069"/><path data-name="線 116834" d="M568.514 1385.863l-1.233-.815"/><path data-name="線 116835" d="M591.299 1390.332H566.07"/><path data-name="線 116836" d="M591.299 1391.542h-26.043"/><path data-name="線 116837" d="M564.837 1392.357l2.444 4.073"/><path data-name="線 116838" d="M551.012 1368.361l12.614 21.971"/><path data-name="線 116839" d="M566.07 1391.542l2.444 4.491"/><path data-name="線 116840" d="M552.245 1413.931l-1.233.815"/><path data-name="線 116841" d="M551.012 1414.746v-1.629"/><path data-name="線 116842" d="M592.51 1390.728l-1.211.815"/><path data-name="線 116843" d="M551.012 1367.15l1.233.396"/><path data-name="線 116844" d="M591.299 1390.332l1.211.396"/><path data-name="線 116845" d="M551.012 1368.361v-1.211"/><path data-name="線 116846" d="M640.105 1363.077h0"/><path data-name="線 116847" d="M603.099 1365.917v-1.629"/><path data-name="線 116848" d="M608.383 1365.917h-5.284"/><path data-name="線 116849" d="M609.197 1364.288h-6.098"/><path data-name="線 116850" d="M596.979 1341.921l12.614 21.971"/><path data-name="線 116851" d="M613.27 1369.99l-1.233.815"/><path data-name="線 116852" d="M596.979 1388.307l16.291-28.091"/><path data-name="線 116853" d="M595.768 1387.492l16.269-28.091"/><path data-name="線 116854" d="M613.27 1360.216l-1.233-.815"/><path data-name="線 116855" d="M635.637 1364.288h-24.811"/><path data-name="線 116856" d="M635.636 1365.917h-25.625"/><path data-name="線 116857" d="M609.593 1366.336l2.444 4.469"/><path data-name="線 116858" d="M595.768 1342.736l12.614 21.552"/><path data-name="線 116859" d="M610.826 1365.917l2.444 4.073"/><path data-name="線 116860" d="M596.979 1388.306l-1.211.815"/><path data-name="線 116861" d="M595.768 1389.121v-1.629"/><path data-name="線 116862" d="M636.847 1365.103l-1.211.815"/><path data-name="線 116863" d="M595.768 1341.107l1.211.815"/><path data-name="線 116864" d="M635.636 1364.288l1.211.815"/><path data-name="線 116865" d="M595.768 1342.736v-1.629"/><path data-name="線 116866" d="M640.105 1414.746h0"/><path data-name="線 116867" d="M603.099 1417.19v-1.233"/><path data-name="線 116868" d="M608.383 1417.19h-5.284"/><path data-name="線 116869" d="M609.197 1415.957h-6.098"/><path data-name="線 116870" d="M596.979 1393.59l12.614 21.552"/><path data-name="線 116871" d="M613.27 1421.659l-1.233.815"/><path data-name="線 116872" d="M596.979 1439.557l16.291-28.069"/><path data-name="線 116873" d="M595.768 1439.16l16.269-28.487"/><path data-name="線 116874" d="M613.27 1411.488l-1.233-.815"/><path data-name="線 116875" d="M635.637 1415.957h-24.811"/><path data-name="線 116876" d="M635.636 1417.19h-25.625"/><path data-name="線 116877" d="M609.593 1418.004l2.444 4.469"/><path data-name="線 116878" d="M595.768 1393.986l12.614 21.971"/><path data-name="線 116879" d="M610.826 1417.19l2.444 4.469"/><path data-name="線 116880" d="M596.979 1439.556l-1.211.815"/><path data-name="線 116881" d="M595.768 1440.371v-1.211"/><path data-name="線 116882" d="M636.847 1416.375l-1.211.815"/><path data-name="線 116883" d="M595.768 1392.775l1.211.815"/><path data-name="線 116884" d="M635.636 1415.957l1.211.418"/><path data-name="線 116885" d="M595.768 1393.986v-1.211"/><path data-name="線 116886" d="M595.768 1440.371h0"/><path data-name="線 116887" d="M558.739 1442.815v-1.233"/><path data-name="線 116888" d="M563.626 1442.815h-4.887"/><path data-name="線 116889" d="M564.441 1441.582h-5.702"/><path data-name="線 116890" d="M552.245 1419.215l12.592 21.552"/><path data-name="線 116891" d="M568.514 1447.284l-1.233.815"/><path data-name="線 116892" d="M552.245 1465.182l16.269-28.069"/><path data-name="線 116893" d="M551.012 1464.367l16.269-27.65"/><path data-name="線 116894" d="M568.514 1437.113l-1.233-.396"/><path data-name="線 116895" d="M591.299 1441.582H566.07"/><path data-name="線 116896" d="M591.299 1442.815h-26.043"/><path data-name="線 116897" d="M564.837 1443.629l2.444 4.469"/><path data-name="線 116898" d="M551.012 1420.029l12.614 21.552"/><path data-name="線 116899" d="M566.07 1442.815l2.444 4.469"/><path data-name="線 116900" d="M552.245 1465.182l-1.233.418"/><path data-name="線 116901" d="M551.012 1465.6v-1.233"/><path data-name="線 116902" d="M592.51 1442.396l-1.211.418"/><path data-name="線 116903" d="M551.012 1418.4l1.233.815"/><path data-name="線 116904" d="M591.299 1441.582l1.211.815"/><path data-name="線 116905" d="M551.012 1420.029v-1.629"/><path data-name="線 116906" d="M506.675 1440.371h0"/><path data-name="線 116907" d="M469.646 1442.815v-1.233"/><path data-name="線 116908" d="M474.533 1442.815h-4.887"/><path data-name="線 116909" d="M475.348 1441.582h-5.702"/><path data-name="線 116910" d="M463.13 1419.215l12.614 21.552"/><path data-name="線 116911" d="M479.421 1447.284l-1.233.815"/><path data-name="線 116912" d="M463.13 1465.182l16.291-28.069"/><path data-name="線 116913" d="M461.919 1464.367l16.269-27.65"/><path data-name="線 116914" d="M479.421 1437.113l-1.233-.396"/><path data-name="線 116915" d="M502.184 1441.582h-25.207"/><path data-name="線 116916" d="M502.183 1442.815h-26.021"/><path data-name="線 116917" d="M475.744 1443.629l2.444 4.469"/><path data-name="線 116918" d="M461.919 1420.029l12.614 21.552"/><path data-name="線 116919" d="M476.977 1442.815l2.444 4.469"/><path data-name="線 116920" d="M463.13 1465.182l-1.211.418"/><path data-name="線 116921" d="M461.919 1465.6v-1.233"/><path data-name="線 116922" d="M503.417 1442.396l-1.233.418"/><path data-name="線 116923" d="M461.919 1418.4l1.211.815"/><path data-name="線 116924" d="M502.184 1441.582l1.233.815"/><path data-name="線 116925" d="M461.919 1420.029v-1.629"/><path data-name="線 116926" d="M551.012 1465.6h0"/><path data-name="線 116927" d="M513.983 1468.44v-1.629"/><path data-name="線 116928" d="M519.289 1468.44h-5.306"/><path data-name="線 116929" d="M520.103 1466.811h-6.12"/><path data-name="線 116930" d="M507.885 1444.84l12.614 21.574"/><path data-name="線 116931" d="M524.154 1472.512l-1.211.815"/><path data-name="線 116932" d="M507.885 1490.829l16.269-28.091"/><path data-name="線 116933" d="M506.675 1490.014l16.269-28.091"/><path data-name="線 116934" d="M524.154 1462.738l-1.211-.815"/><path data-name="線 116935" d="M546.544 1466.811h-24.811"/><path data-name="線 116936" d="M546.543 1468.44h-25.625"/><path data-name="線 116937" d="M520.5 1468.858l2.444 4.469"/><path data-name="線 116938" d="M506.675 1445.654l12.614 21.156"/><path data-name="線 116939" d="M521.733 1468.44l2.422 4.073"/><path data-name="線 116940" d="M507.886 1490.829l-1.211.793"/><path data-name="線 116941" d="M506.675 1491.621v-1.607"/><path data-name="線 116942" d="M547.754 1467.625l-1.211.815"/><path data-name="線 116943" d="M506.675 1444.025l1.211.815"/><path data-name="線 116944" d="M546.543 1466.811l1.211.815"/><path data-name="線 116945" d="M506.675 1445.654v-1.629"/><path data-name="線 116946" d="M506.675 1491.621h0"/><path data-name="線 116947" d="M469.646 1494.065v-1.211"/><path data-name="線 116948" d="M474.533 1494.065h-4.887"/><path data-name="線 116949" d="M475.348 1492.854h-5.702"/><path data-name="線 116950" d="M463.13 1470.069l12.614 21.971"/><path data-name="線 116951" d="M479.421 1498.556l-1.233.396"/><path data-name="線 116952" d="M463.13 1516.454l16.291-28.069"/><path data-name="線 116953" d="M461.919 1515.639l16.269-28.069"/><path data-name="線 116954" d="M479.421 1488.385l-1.233-.815"/><path data-name="線 116955" d="M502.184 1492.854h-25.207"/><path data-name="線 116956" d="M502.183 1494.065h-26.021"/><path data-name="線 116957" d="M475.744 1494.879l2.444 4.073"/><path data-name="線 116958" d="M461.919 1470.883l12.614 21.971"/><path data-name="線 116959" d="M476.977 1494.065l2.444 4.491"/><path data-name="線 116960" d="M463.13 1516.454l-1.211.815"/><path data-name="線 116961" d="M461.919 1517.268v-1.629"/><path data-name="線 116962" d="M503.417 1493.25l-1.233.815"/><path data-name="線 116963" d="M461.919 1469.672l1.211.396"/><path data-name="線 116964" d="M502.184 1492.854l1.233.396"/><path data-name="線 116965" d="M461.919 1470.883v-1.211"/><path data-name="線 116966" d="M551.012 1517.268h0"/><path data-name="線 116967" d="M513.983 1519.712v-1.233"/><path data-name="線 116968" d="M519.289 1519.712h-5.306"/><path data-name="線 116969" d="M520.103 1518.479h-6.12"/><path data-name="線 116970" d="M507.885 1496.112l12.614 21.552"/><path data-name="線 116971" d="M524.154 1524.181l-1.211.815"/><path data-name="線 116972" d="M507.885 1542.079l16.269-28.069"/><path data-name="線 116973" d="M506.675 1541.682l16.269-28.487"/><path data-name="線 116974" d="M524.154 1514.01l-1.211-.815"/><path data-name="線 116975" d="M546.544 1518.479h-24.811"/><path data-name="線 116976" d="M546.543 1519.712h-25.625"/><path data-name="線 116977" d="M520.5 1520.526l2.444 4.469"/><path data-name="線 116978" d="M506.675 1496.508l12.614 21.971"/><path data-name="線 116979" d="M521.733 1519.712l2.422 4.469"/><path data-name="線 116980" d="M507.886 1542.079l-1.211.815"/><path data-name="線 116981" d="M506.675 1542.893v-1.211"/><path data-name="線 116982" d="M547.754 1518.897l-1.211.815"/><path data-name="線 116983" d="M506.675 1495.298l1.211.815"/><path data-name="線 116984" d="M546.543 1518.479l1.211.418"/><path data-name="線 116985" d="M506.675 1496.509v-1.211"/><path data-name="線 116986" d="M595.768 1491.621h0"/><path data-name="線 116987" d="M558.739 1494.065v-1.211"/><path data-name="線 116988" d="M563.626 1494.065h-4.887"/><path data-name="線 116989" d="M564.441 1492.854h-5.702"/><path data-name="線 116990" d="M552.245 1470.069l12.592 21.971"/><path data-name="線 116991" d="M568.514 1498.556l-1.233.396"/><path data-name="線 116992" d="M552.245 1516.454l16.269-28.069"/><path data-name="線 116993" d="M551.012 1515.639l16.269-28.069"/><path data-name="線 116994" d="M568.514 1488.385l-1.233-.815"/><path data-name="線 116995" d="M591.299 1492.854H566.07"/><path data-name="線 116996" d="M591.299 1494.065h-26.043"/><path data-name="線 116997" d="M564.837 1494.879l2.444 4.073"/><path data-name="線 116998" d="M551.012 1470.883l12.614 21.971"/><path data-name="線 116999" d="M566.07 1494.065l2.444 4.491"/><path data-name="線 117000" d="M552.245 1516.454l-1.233.815"/><path data-name="線 117001" d="M551.012 1517.268v-1.629"/><path data-name="線 117002" d="M592.51 1493.25l-1.211.815"/><path data-name="線 117003" d="M551.012 1469.672l1.233.396"/><path data-name="線 117004" d="M591.299 1492.854l1.211.396"/><path data-name="線 117005" d="M551.012 1470.883v-1.211"/><path data-name="線 117006" d="M603.099 1519.712v-1.233"/><path data-name="線 117007" d="M608.383 1519.712h-5.284"/><path data-name="線 117008" d="M609.197 1518.479h-6.098"/><path data-name="線 117009" d="M596.979 1496.112l12.614 21.552"/><path data-name="線 117010" d="M613.27 1524.181l-1.233.815"/><path data-name="線 117011" d="M596.979 1542.079l16.291-28.069"/><path data-name="線 117012" d="M595.768 1541.682l16.269-28.487"/><path data-name="線 117013" d="M613.27 1514.01l-1.233-.815"/><path data-name="線 117014" d="M635.637 1518.479h-24.811"/><path data-name="線 117015" d="M635.636 1519.712h-25.625"/><path data-name="線 117016" d="M609.593 1520.526l2.444 4.469"/><path data-name="線 117017" d="M595.768 1496.508l12.614 21.971"/><path data-name="線 117018" d="M610.826 1519.712l2.444 4.469"/><path data-name="線 117019" d="M596.979 1542.079l-1.211.815"/><path data-name="線 117020" d="M595.768 1542.893v-1.211"/><path data-name="線 117021" d="M636.847 1518.897l-1.211.815"/><path data-name="線 117022" d="M595.768 1495.298l1.211.815"/><path data-name="線 117023" d="M635.636 1518.479l1.211.418"/><path data-name="線 117024" d="M595.768 1496.509v-1.211"/><path data-name="線 117025" d="M640.105 1465.6h0"/><path data-name="線 117026" d="M603.099 1468.44v-1.629"/><path data-name="線 117027" d="M608.383 1468.44h-5.284"/><path data-name="線 117028" d="M609.197 1466.811h-6.098"/><path data-name="線 117029" d="M596.979 1444.84l12.614 21.574"/><path data-name="線 117030" d="M613.27 1472.512l-1.233.815"/><path data-name="線 117031" d="M596.979 1490.829l16.291-28.091"/><path data-name="線 117032" d="M595.768 1490.014l16.269-28.091"/><path data-name="線 117033" d="M613.27 1462.738l-1.233-.815"/><path data-name="線 117034" d="M635.637 1466.811h-24.811"/><path data-name="線 117035" d="M635.636 1468.44h-25.625"/><path data-name="線 117036" d="M609.593 1468.858l2.444 4.469"/><path data-name="線 117037" d="M595.768 1445.654l12.614 21.156"/><path data-name="線 117038" d="M610.826 1468.44l2.444 4.073"/><path data-name="線 117039" d="M596.979 1490.829l-1.211.793"/><path data-name="線 117040" d="M595.768 1491.621v-1.607"/><path data-name="線 117041" d="M636.847 1467.625l-1.211.815"/><path data-name="線 117042" d="M595.768 1444.025l1.211.815"/><path data-name="線 117043" d="M635.636 1466.811l1.211.815"/><path data-name="線 117044" d="M595.768 1445.654v-1.629"/><path data-name="線 117045" d="M503.417 1442.396l-41.498 23.203"/><path data-name="線 117046" d="M638.08 1531.512v-192.034"/><path data-name="線 117047" d="M506.675 1492.854l-44.756-26.043"/><path data-name="線 117048" d="M504.231 1494.064l-42.312-24.392"/><path data-name="線 117049" d="M503.417 1390.728l-41.498 24.018"/><path data-name="線 117050" d="M507.489 1442.397l-45.57-26.44"/><path data-name="線 117051" d="M503.417 1442.396l-41.498-23.996"/><path data-name="線 117052" d="M503.417 1493.25l-41.498 24.018"/><path data-name="線 117053" d="M507.489 1544.919l-45.57-26.44"/><path data-name="線 117054" d="M503.417 1544.919l-41.498-23.996"/><path data-name="線 117055" d="M503.417 1544.919h-41.498"/><path data-name="線 117056" d="M595.768 1495.298l42.312 24.414"/><path data-name="線 117057" d="M638.08 1520.923l-41.101 23.996"/><path data-name="線 117058" d="M596.979 1493.25l41.101 24.018"/><path data-name="線 117059" d="M638.08 1544.919H503.416"/><path data-name="線 117060" d="M638.08 1468.439l-45.57-26.043"/><path data-name="線 117061" d="M638.08 1469.672l-41.101 23.578"/><path data-name="線 117062" d="M638.08 1465.599l-41.101-23.203"/><path data-name="線 117063" d="M596.979 1390.728l41.101 24.018"/><path data-name="線 117064" d="M595.768 1392.775l42.312 24.414"/><path data-name="線 117065" d="M638.08 1418.4l-41.101 23.996"/><path data-name="線 117066" d="M638.08 1365.918l-45.57-26.44"/><path data-name="線 117067" d="M638.08 1367.15l-41.101 23.578"/><path data-name="線 117068" d="M638.08 1363.078l-41.101-23.6"/><path data-name="線 117069" d="M503.417 1339.478l-41.498 23.6"/><path data-name="線 117070" d="M504.231 1391.542l-42.312-24.392"/><path data-name="線 117071" d="M506.675 1390.331l-44.756-26.043"/><path data-name="線 117072" d="M638.08 1339.478H461.919"/><path data-name="線 117073" d="M638.08 1339.477l10.985-10.985"/><path data-name="線 117074" d="M649.065 1328.492H450.933"/><path data-name="線 117075" d="M461.918 1339.477l-10.985-10.985"/><path data-name="線 117076" d="M461.918 1544.919l-10.985 10.589"/><path data-name="線 117077" d="M638.08 1544.919l10.985 10.589"/><path data-name="線 117078" d="M649.065 1555.508H450.933"/><path data-name="線 117079" d="M450.933 1555.507v-227.015"/><path data-name="線 117080" d="M486.729 1462.738l1.233-.815"/><path data-name="線 117081" d="M489.591 1466.811l-2.862-4.073"/><path data-name="線 117082" d="M491.22 1466.81l-3.258-4.887"/><path data-name="線 117083" d="M504.231 1445.654l-12.218 21.156"/><path data-name="線 117084" d="M487.962 1473.327l-1.233-.815"/><path data-name="線 117085" d="M496.9 1468.44h-32.538"/><path data-name="線 117086" d="M496.9 1466.811h-32.538"/><path data-name="線 117087" d="M496.9 1468.44v-1.629"/><path data-name="線 117088" d="M504.231 1490.014l-12.218-21.574"/><path data-name="線 117089" d="M502.998 1490.829l-12.592-22.389"/><path data-name="線 117090" d="M489.591 1468.44l-2.862 4.073"/><path data-name="線 117091" d="M502.998 1444.84l-12.196 21.574"/><path data-name="線 117092" d="M490.802 1468.858l-2.84 4.469"/><path data-name="線 117093" d="M504.231 1445.654v-1.629"/><path data-name="線 117094" d="M502.998 1444.84l1.233-.815"/></g></g></svg>