<svg xmlns="http://www.w3.org/2000/svg" width="200" height="230"><defs><clipPath id="a"><path data-name="長方形 180" transform="translate(450 1327)" fill="#ccc" d="M0 0h200v230H0z"/></clipPath></defs><g data-name="マスクグループ 580" transform="translate(-450 -1327)" clip-path="url(#a)"><g data-name="グループ 3448" fill="none" stroke="#c49535" stroke-linecap="round" stroke-linejoin="round" stroke-width="1.308"><path data-name="線 119964" d="M487.972 1372.726l14.907 14.907"/><path data-name="線 119965" d="M637.002 1518.53l-41.889 24.148"/><path data-name="線 119966" d="M548.8 1365.469l-41.082 23.778"/><path data-name="線 119967" d="M505.691 1389.246v-47.141"/><path data-name="線 119968" d="M638.2 1538.254V1340.1"/><path data-name="線 119969" d="M463.802 1543.899v-23.756"/><path data-name="線 119970" d="M579.007 1340.1h-74.122"/><path data-name="線 119971" d="M506.105 1341.713l.806-.414"/><path data-name="線 119972" d="M550.806 1364.27l-41.889-24.17"/><path data-name="線 119973" d="M550.806 1366.689l-45.921-26.589"/><path data-name="線 119974" d="M550.806 1417.841l-41.889 24.148"/><path data-name="線 119975" d="M548.8 1416.62l-41.889 24.17"/><path data-name="線 119976" d="M508.917 1391.251l41.889 24.17"/><path data-name="線 119977" d="M508.11 1392.864l42.695 24.976"/><path data-name="線 119978" d="M550.806 1366.689l-41.889 24.562"/><path data-name="線 119979" d="M505.691 1397.288v-4.424"/><path data-name="線 119980" d="M505.691 1439.983v-47.119"/><path data-name="線 119981" d="M505.691 1391.644l1.22.806"/><path data-name="線 119982" d="M506.912 1392.45l-41.889 24.17"/><path data-name="線 119983" d="M506.105 1341.713l-41.082 23.756"/><path data-name="線 119984" d="M463.802 1391.252v-23.756"/><path data-name="線 119985" d="M549.999 1363.856V1340.1"/><path data-name="線 119986" d="M506.105 1443.601l.806-.392"/><path data-name="線 119987" d="M550.806 1466.159l-41.889-24.17"/><path data-name="線 119988" d="M550.806 1468.578l-45.921-26.589"/><path data-name="線 119989" d="M550.806 1519.729l-41.889 24.17"/><path data-name="線 119990" d="M548.8 1518.53l-41.889 24.148"/><path data-name="線 119991" d="M505.691 1491.135v-47.119"/><path data-name="線 119992" d="M508.917 1493.14l41.889 24.17"/><path data-name="線 119993" d="M508.11 1494.753l42.695 24.976"/><path data-name="線 119994" d="M550.806 1468.578l-41.889 24.562"/><path data-name="線 119995" d="M505.691 1499.199v-4.446"/><path data-name="線 119996" d="M505.691 1541.872v-47.119"/><path data-name="線 119997" d="M505.691 1493.554l1.22.806"/><path data-name="線 119998" d="M506.912 1494.36l-41.889 24.17"/><path data-name="線 119999" d="M506.105 1443.601l-41.082 23.778"/><path data-name="線 120000" d="M594.307 1341.713l.806-.414"/><path data-name="線 120001" d="M638.2 1391.252v-23.756"/><path data-name="線 120002" d="M637.002 1416.62l-41.889 24.17"/><path data-name="線 120003" d="M593.893 1389.246v-47.141"/><path data-name="線 120004" d="M596.312 1389.246v-47.141"/><path data-name="線 120005" d="M593.086 1441.989l-42.281-24.148"/><path data-name="線 120006" d="M593.086 1391.251l-42.281 24.17"/><path data-name="線 120007" d="M597.118 1441.988l-46.313-26.567"/><path data-name="線 120008" d="M595.113 1392.45l-41.889 24.17"/><path data-name="線 120009" d="M594.306 1341.713l-41.082 23.756"/><path data-name="線 120010" d="M593.086 1340.1l-42.281 24.17"/><path data-name="線 120011" d="M637.001 1467.379l-41.082 23.756"/><path data-name="線 120012" d="M638.2 1493.14v-23.756"/><path data-name="線 120013" d="M638.2 1516.504v-23.364"/><path data-name="線 120014" d="M638.2 1543.899v-23.756"/><path data-name="線 120015" d="M593.893 1491.135v-47.119"/><path data-name="線 120016" d="M596.312 1541.872v-47.119"/><path data-name="線 120017" d="M593.893 1499.199v-4.446"/><path data-name="線 120018" d="M593.893 1541.872v-47.119"/><path data-name="線 120019" d="M593.893 1493.554l1.22.806"/><path data-name="線 120020" d="M593.086 1543.899l-42.281-24.17"/><path data-name="線 120021" d="M593.086 1493.14l-42.281 24.17"/><path data-name="線 120022" d="M597.118 1543.899l-46.313-26.589"/><path data-name="線 120023" d="M595.113 1494.36l-41.889 24.17"/><path data-name="線 120024" d="M552.004 1543.899v-23.756"/><path data-name="線 120025" d="M594.306 1443.601l-41.082 23.778"/><path data-name="線 120026" d="M593.086 1441.989l-42.281 24.17"/><path data-name="線 120027" d="M593.892 1493.554l-43.087-24.976"/><path data-name="線 120028" d="M638.2 1465.767v-23.778"/><path data-name="線 120029" d="M649.076 1554.774H450.922"/><path data-name="線 120030" d="M649.076 1554.774v-225.549"/><path data-name="線 120031" d="M450.922 1554.774v-225.549"/><path data-name="線 120032" d="M649.076 1329.225H450.922"/><path data-name="線 120033" d="M508.11 1543.092h0"/><path data-name="線 120034" d="M596.312 1541.872l.414-.392"/><path data-name="線 120035" d="M598.339 1543.092h0"/><path data-name="線 120036" d="M599.537 1539.867l-2.811 1.613"/><path data-name="線 120037" d="M506.912 1491.527l-3.64-1.591"/><path data-name="線 120038" d="M550.806 1517.31l-3.226-2.005"/><path data-name="線 120039" d="M463.802 1532.217V1340.1"/><path data-name="線 120040" d="M504.884 1340.1l-41.082 23.756"/><path data-name="線 120041" d="M508.11 1390.445l-44.308-25.369"/><path data-name="線 120042" d="M505.691 1391.644l-41.889-24.148"/><path data-name="線 120043" d="M504.884 1543.899h-41.082"/><path data-name="線 120044" d="M638.201 1543.899H504.885"/><path data-name="線 120045" d="M597.118 1493.14l41.082 23.364"/><path data-name="線 120046" d="M596.312 1494.753l41.889 24.17"/><path data-name="線 120047" d="M638.2 1520.143l-41.082 23.756"/><path data-name="線 120048" d="M597.118 1391.251l41.082 23.364"/><path data-name="線 120049" d="M596.312 1392.864l41.889 24.17"/><path data-name="線 120050" d="M638.2 1418.233l-41.082 23.756"/><path data-name="線 120051" d="M638.2 1363.856l-41.082-23.756"/><path data-name="線 120052" d="M638.2 1366.275l-45.114-26.175"/><path data-name="線 120053" d="M638.2 1367.496l-41.082 23.756"/><path data-name="線 120054" d="M638.2 1340.1H463.802"/><path data-name="線 120055" d="M450.922 1329.225l12.88 10.875"/><path data-name="線 120056" d="M638.2 1340.1l10.875-10.875"/><path data-name="線 120057" d="M450.922 1554.774l12.88-10.875"/><path data-name="線 120058" d="M638.2 1543.899l10.875 10.875"/><path data-name="線 120059" d="M504.884 1391.251l-41.082 23.364"/><path data-name="線 120060" d="M508.916 1441.989l-45.114-26.175"/><path data-name="線 120061" d="M504.884 1441.989l-41.082-23.756"/><path data-name="線 120062" d="M504.884 1493.14l-41.082 23.364"/><path data-name="線 120063" d="M508.916 1543.899l-45.114-26.175"/><path data-name="線 120064" d="M504.884 1543.899l-41.082-23.756"/><path data-name="線 120065" d="M508.11 1492.334l.806.806"/><path data-name="線 120066" d="M506.911 1494.36l1.199.392"/><path data-name="線 120067" d="M596.312 1499.199v-4.446"/><path data-name="線 120068" d="M596.312 1491.135v-47.119"/><path data-name="線 120069" d="M596.312 1492.334l.806.806"/><path data-name="線 120070" d="M596.312 1492.333l-1.199-.806"/><path data-name="線 120071" d="M593.892 1491.135l-43.087-24.976"/><path data-name="線 120072" d="M595.919 1491.135l-.806.392"/><path data-name="線 120073" d="M595.113 1491.527l-1.22-.392"/><path data-name="線 120074" d="M595.113 1494.36l1.199.392"/><path data-name="線 120075" d="M593.893 1444.015l1.22-.806"/><path data-name="線 120076" d="M597.532 1391.251l-46.727-26.981"/><path data-name="線 120077" d="M596.312 1392.864l-45.507-26.175"/><path data-name="線 120078" d="M637.002 1365.469l-41.889 24.17"/><path data-name="線 120079" d="M638.2 1465.767l-41.082-23.778"/><path data-name="線 120080" d="M638.2 1468.186l-45.114-26.197"/><path data-name="線 120081" d="M638.2 1469.384l-41.082 23.756"/><path data-name="線 120082" d="M638.2 1465.766l-2.419-1.613"/><path data-name="線 120083" d="M504.884 1441.989l-41.082 23.778"/><path data-name="線 120084" d="M508.11 1492.334l-44.308-25.369"/><path data-name="線 120085" d="M505.691 1493.554l-41.889-24.17"/><path data-name="線 120086" d="M548.8 1467.379l-41.889 24.148"/><path data-name="線 120087" d="M508.11 1541.872v-47.119"/><path data-name="線 120088" d="M508.11 1491.135v-47.119"/><path data-name="線 120089" d="M506.911 1392.45l1.199.414"/><path data-name="線 120090" d="M508.916 1391.251l-.806-.806"/><path data-name="線 120091" d="M507.717 1389.246l-.806.392"/><path data-name="線 120092" d="M508.11 1439.983v-47.119"/><path data-name="線 120093" d="M508.11 1389.246v-47.141"/><path data-name="線 120094" d="M549.999 1363.856v-11.268"/><path data-name="線 120095" d="M552.004 1363.856V1340.1"/><path data-name="線 120096" d="M549.999 1543.899v-23.756"/><path data-name="線 120097" d="M549.999 1516.503v-47.119"/><path data-name="線 120098" d="M552.004 1540.673v-20.53"/><path data-name="線 120099" d="M552.004 1516.503v-47.119"/><path data-name="線 120100" d="M593.893 1439.983v-47.119"/><path data-name="線 120101" d="M596.312 1439.983v-47.119"/><path data-name="線 120102" d="M549.999 1465.766v-47.533"/><path data-name="線 120103" d="M549.999 1414.615v-47.119"/><path data-name="線 120104" d="M552.004 1414.615v-47.119"/><path data-name="線 120105" d="M552.004 1465.766v-47.533"/><path data-name="線 120106" d="M467.834 1363.856l20.138-5.231"/><path data-name="線 120107" d="M502.879 1343.718l-14.907 14.907"/><path data-name="線 120108" d="M468.641 1365.469l19.332 5.231"/><path data-name="線 120109" d="M489.585 1371.92l14.493 14.101"/><path data-name="線 120110" d="M467.834 1367.496l20.138 5.231"/><path data-name="線 120111" d="M505.691 1345.745l-5.231 19.724"/><path data-name="線 120112" d="M504.079 1344.939l-5.231 19.724"/><path data-name="線 120113" d="M504.079 1386.021l-5.231-19.332"/><path data-name="線 120114" d="M498.847 1364.662h-26.981"/><path data-name="線 120115" d="M505.691 1385.607l-5.231-20.138"/><path data-name="線 120116" d="M498.847 1366.689h-26.981"/><path data-name="線 120117" d="M468.641 1365.469l19.332-5.231"/><path data-name="線 120118" d="M504.078 1344.939l-14.493 14.493"/><path data-name="線 120119" d="M501.659 1347.75l-10.069 16.912"/><path data-name="線 120120" d="M487.972 1360.238l2.419 4.424"/><path data-name="線 120121" d="M490.391 1366.689l-2.419 4.01"/><path data-name="線 120122" d="M503.272 1348.556l-9.655 16.106"/><path data-name="線 120123" d="M493.617 1366.689l.806.806"/><path data-name="線 120124" d="M492.811 1366.689l-3.226 5.231"/><path data-name="線 120125" d="M489.585 1359.432l2.419 4.424"/><path data-name="線 120126" d="M492.004 1367.496l.806.806"/><path data-name="線 120127" d="M468.641 1365.469h-3.618"/><path data-name="線 120128" d="M504.078 1386.021l1.613 3.226"/><path data-name="線 120129" d="M501.659 1383.602l-8.848-15.3"/><path data-name="線 120130" d="M503.271 1382.796l-8.848-15.3"/><path data-name="線 120131" d="M498.848 1366.689l1.613-1.22"/><path data-name="線 120132" d="M498.848 1364.662l1.613.806"/><path data-name="線 120133" d="M489.585 1371.92l-1.613.806"/><path data-name="線 120134" d="M487.972 1372.726v-2.027"/><path data-name="線 120135" d="M487.972 1360.238v-1.613"/><path data-name="線 120136" d="M489.585 1359.431l-1.613-.806"/><path data-name="線 120137" d="M504.078 1344.938l1.613-2.833"/><path data-name="線 120138" d="M487.972 1423.878l14.907 14.493"/><path data-name="線 120139" d="M467.834 1414.615l20.138-5.231"/><path data-name="線 120140" d="M502.879 1394.869l-14.907 14.515"/><path data-name="線 120141" d="M468.641 1416.62l19.332 5.231"/><path data-name="線 120142" d="M489.585 1422.657l14.493 14.515"/><path data-name="線 120143" d="M467.834 1418.233l20.138 5.645"/><path data-name="線 120144" d="M505.691 1396.482l-5.231 20.138"/><path data-name="線 120145" d="M504.079 1396.09l-5.231 19.724"/><path data-name="線 120146" d="M504.079 1437.172l-5.231-19.746"/><path data-name="線 120147" d="M498.847 1415.814h-26.981"/><path data-name="線 120148" d="M505.691 1436.758l-5.231-20.138"/><path data-name="線 120149" d="M498.847 1417.426h-26.981"/><path data-name="線 120150" d="M468.641 1416.62l19.332-5.231"/><path data-name="線 120151" d="M504.078 1396.09l-14.493 14.079"/><path data-name="線 120152" d="M501.659 1398.509l-10.069 17.305"/><path data-name="線 120153" d="M487.972 1411.389l2.419 4.424"/><path data-name="線 120154" d="M490.391 1417.426l-2.419 4.424"/><path data-name="線 120155" d="M503.272 1399.315l-9.655 16.498"/><path data-name="線 120156" d="M493.617 1417.426l.806.806"/><path data-name="線 120157" d="M492.811 1417.426l-3.226 5.231"/><path data-name="線 120158" d="M489.585 1410.169l2.419 4.446"/><path data-name="線 120159" d="M492.004 1418.233l.806.806"/><path data-name="線 120160" d="M468.641 1416.62h-3.618"/><path data-name="線 120161" d="M504.078 1437.172l1.613 2.811"/><path data-name="線 120162" d="M501.659 1434.753l-8.848-15.714"/><path data-name="線 120163" d="M503.271 1433.533l-8.848-15.3"/><path data-name="線 120164" d="M498.848 1417.426l1.613-.806"/><path data-name="線 120165" d="M498.848 1415.814l1.613.806"/><path data-name="線 120166" d="M489.585 1422.657l-1.613.806"/><path data-name="線 120167" d="M487.972 1423.464v-1.613"/><path data-name="線 120168" d="M487.972 1411.389v-2.005"/><path data-name="線 120169" d="M489.585 1410.169l-1.613-.785"/><path data-name="線 120170" d="M504.078 1396.09l1.613-3.226"/><path data-name="線 120171" d="M506.105 1392.864h-.414"/><path data-name="線 120172" d="M532.28 1398.095l14.493 14.907"/><path data-name="線 120173" d="M512.142 1389.246l20.138-5.252"/><path data-name="線 120174" d="M546.773 1369.108l-14.493 14.886"/><path data-name="線 120175" d="M512.534 1391.251l19.746 5.231"/><path data-name="線 120176" d="M533.893 1397.288l14.101 14.493"/><path data-name="線 120177" d="M512.142 1392.864l20.138 5.231"/><path data-name="線 120178" d="M549.999 1371.114l-5.645 20.138"/><path data-name="線 120179" d="M547.993 1370.699l-5.252 19.332"/><path data-name="線 120180" d="M547.993 1411.782l-5.252-19.724"/><path data-name="線 120181" d="M542.741 1390.031h-26.567"/><path data-name="線 120182" d="M549.999 1410.975l-5.645-19.724"/><path data-name="線 120183" d="M542.741 1392.058h-26.567"/><path data-name="線 120184" d="M512.534 1391.252l19.746-5.231"/><path data-name="線 120185" d="M547.994 1370.699l-14.101 14.101"/><path data-name="線 120186" d="M545.575 1373.119l-9.677 16.912"/><path data-name="線 120187" d="M532.28 1386.021l2.419 4.01"/><path data-name="線 120188" d="M534.699 1392.058l-2.419 4.424"/><path data-name="線 120189" d="M547.188 1373.925l-9.263 16.106"/><path data-name="線 120190" d="M537.925 1392.058l.392.806"/><path data-name="線 120191" d="M536.704 1392.058l-2.811 5.231"/><path data-name="線 120192" d="M533.893 1384.8l2.419 4.446"/><path data-name="線 120193" d="M536.312 1392.864l.392.806"/><path data-name="線 120194" d="M512.535 1391.251h-3.618"/><path data-name="線 120195" d="M547.994 1411.782l2.005 2.833"/><path data-name="線 120196" d="M545.574 1408.971l-8.87-15.3"/><path data-name="線 120197" d="M547.187 1408.164l-8.87-15.3"/><path data-name="線 120198" d="M542.741 1392.057l1.613-.806"/><path data-name="線 120199" d="M542.741 1390.031l1.613 1.22"/><path data-name="線 120200" d="M533.893 1397.288l-1.613.806"/><path data-name="線 120201" d="M532.28 1398.095v-1.613"/><path data-name="線 120202" d="M532.28 1386.021v-2.027"/><path data-name="線 120203" d="M533.893 1384.8l-1.613-.806"/><path data-name="線 120204" d="M547.994 1370.7l2.005-3.204"/><path data-name="線 120205" d="M550.413 1367.082l-.414.414"/><path data-name="線 120206" d="M532.28 1449.246l14.493 14.493"/><path data-name="線 120207" d="M512.142 1440.376l20.138-5.623"/><path data-name="線 120208" d="M546.773 1420.238l-14.493 14.515"/><path data-name="線 120209" d="M512.534 1441.989l19.746 5.252"/><path data-name="線 120210" d="M533.893 1448.047l14.101 14.493"/><path data-name="線 120211" d="M512.142 1443.601l20.138 5.645"/><path data-name="線 120212" d="M549.999 1421.851l-5.645 20.138"/><path data-name="線 120213" d="M547.993 1421.458l-5.252 19.724"/><path data-name="線 120214" d="M547.993 1462.541l-5.252-19.746"/><path data-name="線 120215" d="M542.741 1441.182h-26.567"/><path data-name="線 120216" d="M549.999 1462.127l-5.645-20.138"/><path data-name="線 120217" d="M542.741 1442.795h-26.567"/><path data-name="線 120218" d="M512.534 1441.989l19.746-5.231"/><path data-name="線 120219" d="M547.994 1421.458l-14.101 14.493"/><path data-name="線 120220" d="M545.575 1423.878l-9.677 17.305"/><path data-name="線 120221" d="M532.28 1436.758l2.419 4.424"/><path data-name="線 120222" d="M534.699 1442.795l-2.419 4.446"/><path data-name="線 120223" d="M547.188 1425.076l-9.263 16.106"/><path data-name="線 120224" d="M537.925 1442.795l.392.806"/><path data-name="線 120225" d="M536.704 1442.795l-2.811 5.252"/><path data-name="線 120226" d="M533.893 1435.952l2.419 4.032"/><path data-name="線 120227" d="M536.312 1444.016l.392.806"/><path data-name="線 120228" d="M512.535 1441.989h-3.618"/><path data-name="線 120229" d="M547.994 1462.541l2.005 3.226"/><path data-name="線 120230" d="M545.574 1460.122l-8.87-15.3"/><path data-name="線 120231" d="M547.187 1459.315l-8.87-15.714"/><path data-name="線 120232" d="M542.741 1442.795l1.613-.806"/><path data-name="線 120233" d="M542.741 1441.182l1.613.806"/><path data-name="線 120234" d="M533.893 1448.047l-1.613 1.199"/><path data-name="線 120235" d="M532.28 1449.246v-2.005"/><path data-name="線 120236" d="M532.28 1436.758v-2.005"/><path data-name="線 120237" d="M533.893 1435.952l-1.613-1.199"/><path data-name="線 120238" d="M547.994 1421.459l2.005-3.226"/><path data-name="線 120239" d="M550.413 1418.233h-.414"/><path data-name="線 120240" d="M487.972 1474.615l14.907 14.515"/><path data-name="線 120241" d="M467.834 1465.766l20.138-5.252"/><path data-name="線 120242" d="M502.879 1445.628l-14.907 14.886"/><path data-name="線 120243" d="M468.641 1467.379l19.332 5.231"/><path data-name="線 120244" d="M489.585 1473.808l14.493 14.101"/><path data-name="線 120245" d="M467.834 1469.384l20.138 5.231"/><path data-name="線 120246" d="M505.691 1447.241l-5.231 20.138"/><path data-name="線 120247" d="M504.079 1446.827l-5.231 19.746"/><path data-name="線 120248" d="M504.079 1487.91l-5.231-19.332"/><path data-name="線 120249" d="M498.847 1466.573h-26.981"/><path data-name="線 120250" d="M505.691 1487.517l-5.231-20.138"/><path data-name="線 120251" d="M498.847 1468.578h-26.981"/><path data-name="線 120252" d="M468.641 1467.379l19.332-5.252"/><path data-name="線 120253" d="M504.078 1446.827l-14.493 14.493"/><path data-name="線 120254" d="M501.659 1449.66l-10.069 16.912"/><path data-name="線 120255" d="M487.972 1462.127l2.419 4.446"/><path data-name="線 120256" d="M490.391 1468.578l-2.419 4.032"/><path data-name="線 120257" d="M503.272 1450.445l-9.655 16.128"/><path data-name="線 120258" d="M493.617 1468.578l.806.806"/><path data-name="線 120259" d="M492.811 1468.578l-3.226 5.231"/><path data-name="線 120260" d="M489.585 1461.32l2.419 4.446"/><path data-name="線 120261" d="M492.004 1469.384l.806.806"/><path data-name="線 120262" d="M468.641 1467.379h-3.618"/><path data-name="線 120263" d="M504.078 1487.909l1.613 3.226"/><path data-name="線 120264" d="M501.659 1485.491l-8.848-15.3"/><path data-name="線 120265" d="M503.271 1484.684l-8.848-15.3"/><path data-name="線 120266" d="M498.848 1468.578l1.613-1.199"/><path data-name="線 120267" d="M498.848 1466.573l1.613.806"/><path data-name="線 120268" d="M489.585 1473.808l-1.613.806"/><path data-name="線 120269" d="M487.972 1474.615v-2.005"/><path data-name="線 120270" d="M487.972 1462.127v-1.613"/><path data-name="線 120271" d="M489.585 1461.32l-1.613-.806"/><path data-name="線 120272" d="M504.078 1446.827l1.613-2.811"/><path data-name="線 120273" d="M506.105 1443.601l-.414.414"/><path data-name="線 120274" d="M532.28 1500.005l14.493 14.886"/><path data-name="線 120275" d="M512.142 1491.135l20.138-5.231"/><path data-name="線 120276" d="M546.773 1470.997l-14.493 14.907"/><path data-name="線 120277" d="M512.534 1493.14l19.746 5.252"/><path data-name="線 120278" d="M533.893 1499.199l14.101 14.493"/><path data-name="線 120279" d="M512.142 1494.753l20.138 5.252"/><path data-name="線 120280" d="M549.999 1473.002l-5.645 20.138"/><path data-name="線 120281" d="M547.993 1472.61l-5.252 19.332"/><path data-name="線 120282" d="M547.993 1513.692l-5.252-19.746"/><path data-name="線 120283" d="M542.741 1491.941h-26.567"/><path data-name="線 120284" d="M549.999 1512.886l-5.645-19.746"/><path data-name="線 120285" d="M542.741 1493.946h-26.567"/><path data-name="線 120286" d="M512.534 1493.14l19.746-5.623"/><path data-name="線 120287" d="M547.994 1472.61l-14.101 14.101"/><path data-name="線 120288" d="M545.575 1475.029l-9.677 16.912"/><path data-name="線 120289" d="M532.28 1487.517l2.419 4.424"/><path data-name="線 120290" d="M534.699 1493.946l-2.419 4.446"/><path data-name="線 120291" d="M547.188 1475.835l-9.263 16.106"/><path data-name="線 120292" d="M537.925 1493.946l.392.806"/><path data-name="線 120293" d="M536.704 1493.946l-2.811 5.252"/><path data-name="線 120294" d="M533.893 1486.711l2.419 4.424"/><path data-name="線 120295" d="M536.312 1494.753l.392.806"/><path data-name="線 120296" d="M512.535 1493.14h-3.618"/><path data-name="線 120297" d="M547.994 1513.692l2.005 2.811"/><path data-name="線 120298" d="M545.574 1510.859l-8.87-15.3"/><path data-name="線 120299" d="M547.187 1510.074l-8.87-15.321"/><path data-name="線 120300" d="M542.741 1493.946l1.613-.806"/><path data-name="線 120301" d="M542.741 1491.941l1.613 1.199"/><path data-name="線 120302" d="M533.893 1499.199l-1.613.806"/><path data-name="線 120303" d="M532.28 1500.005v-1.613"/><path data-name="線 120304" d="M532.28 1487.517v-1.613"/><path data-name="線 120305" d="M533.893 1486.71l-1.613-.806"/><path data-name="線 120306" d="M547.994 1472.61l2.005-3.226"/><path data-name="線 120307" d="M550.413 1468.992l-.414.392"/><path data-name="線 120308" d="M487.972 1525.766l14.907 14.515"/><path data-name="線 120309" d="M467.834 1516.504l20.138-5.231"/><path data-name="線 120310" d="M502.879 1496.78l-14.907 14.493"/><path data-name="線 120311" d="M468.641 1518.53l19.332 5.231"/><path data-name="線 120312" d="M489.585 1524.567l14.493 14.493"/><path data-name="線 120313" d="M467.834 1520.143l20.138 5.623"/><path data-name="線 120314" d="M505.691 1498.392l-5.231 20.138"/><path data-name="線 120315" d="M504.079 1497.978l-5.231 19.332"/><path data-name="線 120316" d="M504.079 1539.061l-5.231-19.724"/><path data-name="線 120317" d="M498.847 1517.31h-26.981"/><path data-name="線 120318" d="M505.691 1538.668l-5.231-20.138"/><path data-name="線 120319" d="M498.847 1519.337h-26.981"/><path data-name="線 120320" d="M468.641 1518.53l19.332-5.252"/><path data-name="線 120321" d="M504.078 1497.978l-14.493 14.101"/><path data-name="線 120322" d="M501.659 1500.397l-10.069 16.912"/><path data-name="線 120323" d="M487.972 1513.278l2.419 4.032"/><path data-name="線 120324" d="M490.391 1519.337l-2.419 4.424"/><path data-name="線 120325" d="M503.272 1501.204l-9.655 16.106"/><path data-name="線 120326" d="M493.617 1519.337l.806.806"/><path data-name="線 120327" d="M492.811 1519.337l-3.226 5.231"/><path data-name="線 120328" d="M489.585 1512.079l2.419 4.424"/><path data-name="線 120329" d="M492.004 1520.143l.806.785"/><path data-name="線 120330" d="M468.641 1518.53h-3.618"/><path data-name="線 120331" d="M504.078 1539.061l1.613 2.811"/><path data-name="線 120332" d="M501.659 1536.642l-8.848-15.714"/><path data-name="線 120333" d="M503.271 1535.443l-8.848-15.3"/><path data-name="線 120334" d="M498.848 1519.336l1.613-.806"/><path data-name="線 120335" d="M498.848 1517.31l1.613 1.22"/><path data-name="線 120336" d="M489.585 1524.567l-1.613.806"/><path data-name="線 120337" d="M487.972 1525.374v-1.613"/><path data-name="線 120338" d="M487.972 1513.278v-2.005"/><path data-name="線 120339" d="M489.585 1512.079l-1.613-.806"/><path data-name="線 120340" d="M504.078 1497.979l1.613-3.226"/><path data-name="線 120341" d="M506.105 1494.753h-.414"/><path data-name="線 120342" d="M576.174 1525.766l14.907 14.515"/><path data-name="線 120343" d="M556.036 1516.504l20.138-5.231"/><path data-name="線 120344" d="M591.081 1496.78l-14.907 14.493"/><path data-name="線 120345" d="M556.842 1518.53l19.332 5.231"/><path data-name="線 120346" d="M577.787 1524.567l14.493 14.493"/><path data-name="線 120347" d="M556.036 1520.143l20.138 5.623"/><path data-name="線 120348" d="M593.893 1498.392l-5.231 20.138"/><path data-name="線 120349" d="M592.28 1497.978l-5.231 19.332"/><path data-name="線 120350" d="M592.28 1539.061l-5.231-19.724"/><path data-name="線 120351" d="M587.049 1517.31h-26.981"/><path data-name="線 120352" d="M593.893 1538.668l-5.231-20.138"/><path data-name="線 120353" d="M587.049 1519.337h-26.981"/><path data-name="線 120354" d="M556.842 1518.53l19.332-5.252"/><path data-name="線 120355" d="M592.28 1497.978l-14.493 14.101"/><path data-name="線 120356" d="M589.882 1500.397l-10.069 16.912"/><path data-name="線 120357" d="M576.174 1513.278l2.833 4.032"/><path data-name="線 120358" d="M579.007 1519.337l-2.833 4.424"/><path data-name="線 120359" d="M591.496 1501.204l-9.677 16.106"/><path data-name="線 120360" d="M581.819 1519.337l.806.806"/><path data-name="線 120361" d="M581.013 1519.337l-3.226 5.231"/><path data-name="線 120362" d="M577.787 1512.079l2.419 4.424"/><path data-name="線 120363" d="M580.206 1520.143l.806.785"/><path data-name="線 120364" d="M556.842 1518.53h-3.618"/><path data-name="線 120365" d="M592.28 1539.061l1.613 2.811"/><path data-name="線 120366" d="M589.882 1536.642l-8.87-15.714"/><path data-name="線 120367" d="M591.495 1535.443l-8.87-15.3"/><path data-name="線 120368" d="M587.049 1519.336l1.613-.806"/><path data-name="線 120369" d="M587.049 1517.31l1.613 1.22"/><path data-name="線 120370" d="M577.787 1524.567l-1.613.806"/><path data-name="線 120371" d="M576.174 1525.374v-1.613"/><path data-name="線 120372" d="M576.174 1513.278v-2.005"/><path data-name="線 120373" d="M577.787 1512.079l-1.613-.806"/><path data-name="線 120374" d="M592.28 1497.979l1.613-3.226"/><path data-name="線 120375" d="M594.307 1494.753h-.414"/><path data-name="線 120376" d="M576.174 1474.615l14.907 14.515"/><path data-name="線 120377" d="M556.036 1465.766l20.138-5.252"/><path data-name="線 120378" d="M591.081 1445.628l-14.907 14.886"/><path data-name="線 120379" d="M556.842 1467.379l19.332 5.231"/><path data-name="線 120380" d="M577.787 1473.808l14.493 14.101"/><path data-name="線 120381" d="M556.036 1469.384l20.138 5.231"/><path data-name="線 120382" d="M593.893 1447.241l-5.231 20.138"/><path data-name="線 120383" d="M592.28 1446.827l-5.231 19.746"/><path data-name="線 120384" d="M592.28 1487.91l-5.231-19.332"/><path data-name="線 120385" d="M587.049 1466.573h-26.981"/><path data-name="線 120386" d="M593.893 1487.517l-5.231-20.138"/><path data-name="線 120387" d="M587.049 1468.578h-26.981"/><path data-name="線 120388" d="M556.842 1467.379l19.332-5.252"/><path data-name="線 120389" d="M592.28 1446.827l-14.493 14.493"/><path data-name="線 120390" d="M589.882 1449.66l-10.069 16.912"/><path data-name="線 120391" d="M576.174 1462.127l2.833 4.446"/><path data-name="線 120392" d="M579.007 1468.578l-2.833 4.032"/><path data-name="線 120393" d="M591.496 1450.445l-9.677 16.128"/><path data-name="線 120394" d="M581.819 1468.578l.806.806"/><path data-name="線 120395" d="M581.013 1468.578l-3.226 5.231"/><path data-name="線 120396" d="M577.787 1461.32l2.419 4.446"/><path data-name="線 120397" d="M580.206 1469.384l.806.806"/><path data-name="線 120398" d="M556.842 1467.379h-3.618"/><path data-name="線 120399" d="M592.28 1487.909l1.613 3.226"/><path data-name="線 120400" d="M589.882 1485.491l-8.87-15.3"/><path data-name="線 120401" d="M591.495 1484.684l-8.87-15.3"/><path data-name="線 120402" d="M587.049 1468.578l1.613-1.199"/><path data-name="線 120403" d="M587.049 1466.573l1.613.806"/><path data-name="線 120404" d="M577.787 1473.808l-1.613.806"/><path data-name="線 120405" d="M576.174 1474.615v-2.005"/><path data-name="線 120406" d="M576.174 1462.127v-1.613"/><path data-name="線 120407" d="M577.787 1461.32l-1.613-.806"/><path data-name="線 120408" d="M592.28 1446.827l1.613-2.811"/><path data-name="線 120409" d="M594.307 1443.601l-.414.414"/><path data-name="線 120410" d="M620.482 1500.005l14.493 14.886"/><path data-name="線 120411" d="M600.344 1491.135l20.138-5.231"/><path data-name="線 120412" d="M634.975 1470.997l-14.493 14.907"/><path data-name="線 120413" d="M600.758 1493.14l19.724 5.252"/><path data-name="線 120414" d="M622.094 1499.199l14.101 14.493"/><path data-name="線 120415" d="M600.344 1494.753l20.138 5.252"/><path data-name="線 120416" d="M638.201 1473.002l-5.231 20.138"/><path data-name="線 120417" d="M636.196 1472.61l-5.231 19.332"/><path data-name="線 120418" d="M636.196 1513.692l-5.231-19.746"/><path data-name="線 120419" d="M630.965 1491.941h-26.589"/><path data-name="線 120420" d="M638.201 1512.886l-5.231-19.746"/><path data-name="線 120421" d="M630.965 1493.946h-26.589"/><path data-name="線 120422" d="M600.758 1493.14l19.724-5.623"/><path data-name="線 120423" d="M636.195 1472.61l-14.101 14.101"/><path data-name="線 120424" d="M633.776 1475.029l-9.677 16.912"/><path data-name="線 120425" d="M620.482 1487.517l2.419 4.424"/><path data-name="線 120426" d="M622.901 1493.946l-2.419 4.446"/><path data-name="線 120427" d="M635.389 1475.835l-9.263 16.106"/><path data-name="線 120428" d="M626.126 1493.946l.392.806"/><path data-name="線 120429" d="M624.905 1493.946l-2.811 5.252"/><path data-name="線 120430" d="M622.094 1486.711l2.419 4.424"/><path data-name="線 120431" d="M624.514 1494.753l.392.806"/><path data-name="線 120432" d="M600.758 1493.14h-3.64"/><path data-name="線 120433" d="M636.195 1513.692l2.005 2.811"/><path data-name="線 120434" d="M633.776 1510.859l-8.87-15.3"/><path data-name="線 120435" d="M635.389 1510.074l-8.87-15.321"/><path data-name="線 120436" d="M630.965 1493.946l1.591-.806"/><path data-name="線 120437" d="M630.965 1491.941l1.591 1.199"/><path data-name="線 120438" d="M622.095 1499.199l-1.613.806"/><path data-name="線 120439" d="M620.482 1500.005v-1.613"/><path data-name="線 120440" d="M620.482 1487.517v-1.613"/><path data-name="線 120441" d="M622.095 1486.71l-1.613-.806"/><path data-name="線 120442" d="M636.195 1472.61l2.005-3.226"/><path data-name="線 120443" d="M620.482 1449.246l14.493 14.493"/><path data-name="線 120444" d="M600.344 1440.376l20.138-5.623"/><path data-name="線 120445" d="M634.975 1420.238l-14.493 14.515"/><path data-name="線 120446" d="M600.758 1441.989l19.724 5.252"/><path data-name="線 120447" d="M622.094 1448.047l14.101 14.493"/><path data-name="線 120448" d="M600.344 1443.601l20.138 5.645"/><path data-name="線 120449" d="M638.201 1421.851l-5.231 20.138"/><path data-name="線 120450" d="M636.196 1421.458l-5.231 19.724"/><path data-name="線 120451" d="M636.196 1462.541l-5.231-19.746"/><path data-name="線 120452" d="M630.965 1441.182h-26.589"/><path data-name="線 120453" d="M638.201 1462.127l-5.231-20.138"/><path data-name="線 120454" d="M630.965 1442.795h-26.589"/><path data-name="線 120455" d="M600.758 1441.989l19.724-5.231"/><path data-name="線 120456" d="M636.195 1421.458l-14.101 14.493"/><path data-name="線 120457" d="M633.776 1423.878l-9.677 17.305"/><path data-name="線 120458" d="M620.482 1436.758l2.419 4.424"/><path data-name="線 120459" d="M622.901 1442.795l-2.419 4.446"/><path data-name="線 120460" d="M635.389 1425.076l-9.263 16.106"/><path data-name="線 120461" d="M626.126 1442.795l.392.806"/><path data-name="線 120462" d="M624.905 1442.795l-2.811 5.252"/><path data-name="線 120463" d="M622.094 1435.952l2.419 4.032"/><path data-name="線 120464" d="M624.514 1444.016l.392.806"/><path data-name="線 120465" d="M600.758 1441.989h-3.64"/><path data-name="線 120466" d="M636.195 1462.541l2.005 3.226"/><path data-name="線 120467" d="M633.776 1460.122l-8.87-15.3"/><path data-name="線 120468" d="M635.389 1459.315l-8.87-15.714"/><path data-name="線 120469" d="M630.965 1442.795l1.591-.806"/><path data-name="線 120470" d="M630.965 1441.182l1.591.806"/><path data-name="線 120471" d="M622.095 1448.047l-1.613 1.199"/><path data-name="線 120472" d="M620.482 1449.246v-2.005"/><path data-name="線 120473" d="M620.482 1436.758v-2.005"/><path data-name="線 120474" d="M622.095 1435.952l-1.613-1.199"/><path data-name="線 120475" d="M636.195 1421.459l2.005-3.226"/><path data-name="線 120476" d="M620.482 1398.095l14.493 14.907"/><path data-name="線 120477" d="M600.344 1389.246l20.138-5.252"/><path data-name="線 120478" d="M634.975 1369.108l-14.493 14.886"/><path data-name="線 120479" d="M600.758 1391.251l19.724 5.231"/><path data-name="線 120480" d="M622.094 1397.288l14.101 14.493"/><path data-name="線 120481" d="M600.344 1392.864l20.138 5.231"/><path data-name="線 120482" d="M638.201 1371.114l-5.231 20.138"/><path data-name="線 120483" d="M636.196 1370.699l-5.231 19.332"/><path data-name="線 120484" d="M636.196 1411.782l-5.231-19.724"/><path data-name="線 120485" d="M630.965 1390.031h-26.589"/><path data-name="線 120486" d="M638.201 1410.975l-5.231-19.724"/><path data-name="線 120487" d="M630.965 1392.058h-26.589"/><path data-name="線 120488" d="M600.758 1391.252l19.724-5.231"/><path data-name="線 120489" d="M636.195 1370.699l-14.101 14.101"/><path data-name="線 120490" d="M633.776 1373.119l-9.677 16.912"/><path data-name="線 120491" d="M620.482 1386.021l2.419 4.01"/><path data-name="線 120492" d="M622.901 1392.058l-2.419 4.424"/><path data-name="線 120493" d="M635.389 1373.925l-9.263 16.106"/><path data-name="線 120494" d="M626.126 1392.058l.392.806"/><path data-name="線 120495" d="M624.905 1392.058l-2.811 5.231"/><path data-name="線 120496" d="M622.094 1384.8l2.419 4.446"/><path data-name="線 120497" d="M624.514 1392.864l.392.806"/><path data-name="線 120498" d="M600.758 1391.251h-3.64"/><path data-name="線 120499" d="M636.195 1411.782l2.005 2.833"/><path data-name="線 120500" d="M633.776 1408.971l-8.87-15.3"/><path data-name="線 120501" d="M635.389 1408.164l-8.87-15.3"/><path data-name="線 120502" d="M630.965 1392.057l1.591-.806"/><path data-name="線 120503" d="M630.965 1390.031l1.591 1.22"/><path data-name="線 120504" d="M622.095 1397.288l-1.613.806"/><path data-name="線 120505" d="M620.482 1398.095v-1.613"/><path data-name="線 120506" d="M620.482 1386.021v-2.027"/><path data-name="線 120507" d="M622.095 1384.8l-1.613-.806"/><path data-name="線 120508" d="M636.195 1370.7l2.005-3.204"/><path data-name="線 120509" d="M525.829 1372.727l20.138-5.231"/><path data-name="線 120510" d="M508.11 1385.607l5.231-20.138"/><path data-name="線 120511" d="M508.11 1345.745l5.231 19.724"/><path data-name="線 120512" d="M509.723 1386.021l14.493-14.101"/><path data-name="線 120513" d="M525.829 1370.7l19.332-5.231"/><path data-name="線 120514" d="M510.943 1387.633l14.886-14.907"/><path data-name="線 120515" d="M510.943 1343.718l14.886 14.907"/><path data-name="線 120516" d="M509.723 1344.939l14.493 14.493"/><path data-name="線 120517" d="M545.161 1365.469l-19.332-5.231"/><path data-name="線 120518" d="M510.529 1382.796l13.687-23.364"/><path data-name="線 120519" d="M545.967 1363.856l-20.138-5.231"/><path data-name="線 120520" d="M512.142 1383.602l13.687-23.364"/><path data-name="線 120521" d="M509.723 1386.021l5.231-19.332"/><path data-name="線 120522" d="M509.723 1344.939l5.231 19.724"/><path data-name="線 120523" d="M510.529 1348.556l10.069 16.912"/><path data-name="線 120524" d="M520.206 1366.689h-5.252"/><path data-name="線 120525" d="M521.405 1367.496l2.811 4.424"/><path data-name="線 120526" d="M512.142 1347.75l9.263 16.106"/><path data-name="線 120527" d="M524.216 1364.662h-1.199"/><path data-name="線 120528" d="M522.603 1365.469l3.226 5.231"/><path data-name="線 120529" d="M520.206 1364.662h-5.252"/><path data-name="線 120530" d="M524.216 1366.689h-1.199"/><path data-name="線 120531" d="M508.11 1389.247l1.613-3.226"/><path data-name="線 120532" d="M548.8 1365.469h-3.64"/><path data-name="線 120533" d="M541.935 1366.689h-17.719"/><path data-name="線 120534" d="M541.935 1364.662h-17.719"/><path data-name="線 120535" d="M525.829 1360.238v-1.613"/><path data-name="線 120536" d="M524.216 1359.431l1.613-.806"/><path data-name="線 120537" d="M525.829 1372.726v-2.027"/><path data-name="線 120538" d="M524.216 1371.92l1.613.806"/><path data-name="線 120539" d="M514.954 1366.689l-1.613-1.22"/><path data-name="線 120540" d="M514.954 1364.662l-1.613.806"/><path data-name="線 120541" d="M509.723 1344.938l-1.613-2.833"/><path data-name="線 120542" d="M569.744 1398.095l20.138-5.231"/><path data-name="線 120543" d="M552.004 1410.975l5.252-19.724"/><path data-name="線 120544" d="M552.004 1371.114l5.252 20.138"/><path data-name="線 120545" d="M554.031 1411.781l14.101-14.493"/><path data-name="線 120546" d="M569.744 1396.482l19.724-5.231"/><path data-name="線 120547" d="M555.229 1413.002l14.515-14.907"/><path data-name="線 120548" d="M555.229 1369.108l14.515 14.886"/><path data-name="線 120549" d="M554.031 1370.699l14.101 14.101"/><path data-name="線 120550" d="M589.468 1391.252l-19.724-5.231"/><path data-name="線 120551" d="M554.837 1408.164l13.295-23.364"/><path data-name="線 120552" d="M589.882 1389.246l-20.138-5.252"/><path data-name="線 120553" d="M556.45 1408.97l13.295-22.949"/><path data-name="線 120554" d="M554.031 1411.782l5.231-19.724"/><path data-name="線 120555" d="M554.031 1370.699l5.231 19.332"/><path data-name="線 120556" d="M554.837 1373.925l9.655 17.326"/><path data-name="線 120557" d="M564.099 1392.058h-4.838"/><path data-name="線 120558" d="M565.713 1392.864l2.419 4.424"/><path data-name="線 120559" d="M556.45 1373.119l9.263 16.128"/><path data-name="線 120560" d="M568.131 1390.031h-.806"/><path data-name="線 120561" d="M566.911 1391.251l2.833 5.231"/><path data-name="線 120562" d="M564.099 1390.031h-4.838"/><path data-name="線 120563" d="M568.131 1392.058h-.806"/><path data-name="線 120564" d="M552.004 1414.615l2.027-2.833"/><path data-name="線 120565" d="M593.086 1391.251h-3.618"/><path data-name="線 120566" d="M585.851 1392.058h-17.719"/><path data-name="線 120567" d="M585.851 1390.031h-17.719"/><path data-name="線 120568" d="M569.744 1386.021v-2.027"/><path data-name="線 120569" d="M568.132 1384.8l1.613-.806"/><path data-name="線 120570" d="M569.744 1398.095v-1.613"/><path data-name="線 120571" d="M568.132 1397.288l1.613.806"/><path data-name="線 120572" d="M559.262 1392.057l-1.613-.806"/><path data-name="線 120573" d="M559.262 1390.031l-1.613 1.22"/><path data-name="線 120574" d="M554.031 1370.7l-2.027-3.204"/><path data-name="線 120575" d="M614.031 1372.727l20.138-5.231"/><path data-name="線 120576" d="M596.312 1385.607l5.252-20.138"/><path data-name="線 120577" d="M596.312 1345.745l5.252 19.724"/><path data-name="線 120578" d="M597.925 1386.021l14.493-14.101"/><path data-name="線 120579" d="M614.031 1370.7l19.332-5.231"/><path data-name="線 120580" d="M599.145 1387.633l14.886-14.907"/><path data-name="線 120581" d="M599.145 1343.718l14.886 14.907"/><path data-name="線 120582" d="M597.925 1344.939l14.493 14.493"/><path data-name="線 120583" d="M633.363 1365.469l-19.332-5.231"/><path data-name="線 120584" d="M598.731 1382.796l13.687-23.364"/><path data-name="線 120585" d="M634.169 1363.856l-20.138-5.231"/><path data-name="線 120586" d="M600.344 1383.602l13.687-23.364"/><path data-name="線 120587" d="M597.925 1386.021l5.231-19.332"/><path data-name="線 120588" d="M597.925 1344.939l5.231 19.724"/><path data-name="線 120589" d="M598.731 1348.556l10.069 16.912"/><path data-name="線 120590" d="M608.407 1366.689h-5.252"/><path data-name="線 120591" d="M610.02 1367.496l2.397 4.424"/><path data-name="線 120592" d="M600.344 1347.75l9.677 16.106"/><path data-name="線 120593" d="M612.418 1364.662h-1.199"/><path data-name="線 120594" d="M610.827 1365.469l3.204 5.231"/><path data-name="線 120595" d="M608.407 1364.662h-5.252"/><path data-name="線 120596" d="M612.418 1366.689h-1.199"/><path data-name="線 120597" d="M596.312 1389.247l1.613-3.226"/><path data-name="線 120598" d="M637.002 1365.469h-3.64"/><path data-name="線 120599" d="M630.159 1366.689h-17.741"/><path data-name="線 120600" d="M630.159 1364.662h-17.741"/><path data-name="線 120601" d="M614.031 1360.238v-1.613"/><path data-name="線 120602" d="M612.418 1359.431l1.613-.806"/><path data-name="線 120603" d="M614.031 1372.726v-2.027"/><path data-name="線 120604" d="M612.418 1371.92l1.613.806"/><path data-name="線 120605" d="M603.155 1366.689l-1.591-1.22"/><path data-name="線 120606" d="M603.155 1364.662l-1.591.806"/><path data-name="線 120607" d="M597.925 1344.938l-1.613-2.833"/><path data-name="線 120608" d="M614.031 1423.878l20.138-5.645"/><path data-name="線 120609" d="M596.312 1436.758l5.252-20.138"/><path data-name="線 120610" d="M596.312 1396.482l5.252 20.138"/><path data-name="線 120611" d="M597.925 1437.172l14.493-14.515"/><path data-name="線 120612" d="M614.031 1421.851l19.746-5.231"/><path data-name="線 120613" d="M599.537 1438.371l14.493-14.493"/><path data-name="線 120614" d="M599.537 1394.869l14.493 14.515"/><path data-name="線 120615" d="M597.925 1396.09l14.493 14.493"/><path data-name="線 120616" d="M633.777 1416.62l-19.746-5.231"/><path data-name="線 120617" d="M599.145 1433.947l13.273-23.364"/><path data-name="線 120618" d="M634.169 1415.007l-20.138-5.623"/><path data-name="線 120619" d="M600.758 1434.753l13.273-23.364"/><path data-name="線 120620" d="M597.925 1437.172l5.645-19.746"/><path data-name="線 120621" d="M597.925 1396.09l5.645 19.724"/><path data-name="線 120622" d="M599.145 1399.708l9.655 16.912"/><path data-name="線 120623" d="M608.407 1417.426h-4.838"/><path data-name="線 120624" d="M610.02 1418.647l2.397 4.01"/><path data-name="線 120625" d="M600.758 1398.509l9.263 16.106"/><path data-name="線 120626" d="M612.418 1415.814h-.785"/><path data-name="線 120627" d="M611.219 1416.62l2.811 5.231"/><path data-name="線 120628" d="M608.407 1415.814h-4.838"/><path data-name="線 120629" d="M612.418 1417.426h-.785"/><path data-name="線 120630" d="M596.312 1440.376l1.613-3.204"/><path data-name="線 120631" d="M637.394 1416.62h-3.618"/><path data-name="線 120632" d="M630.159 1417.426h-17.741"/><path data-name="線 120633" d="M630.159 1415.814h-17.741"/><path data-name="線 120634" d="M614.031 1411.389v-2.005"/><path data-name="線 120635" d="M612.418 1410.583l1.613-1.199"/><path data-name="線 120636" d="M614.031 1423.878v-2.027"/><path data-name="線 120637" d="M612.418 1422.657l1.613 1.22"/><path data-name="線 120638" d="M603.569 1417.426l-1.613-.806"/><path data-name="線 120639" d="M603.569 1415.814l-1.613.806"/><path data-name="線 120640" d="M597.925 1396.09l-1.613-3.226"/><path data-name="線 120641" d="M569.744 1449.246l20.138-5.645"/><path data-name="線 120642" d="M552.004 1462.127l5.252-20.138"/><path data-name="線 120643" d="M552.004 1421.851l5.252 20.138"/><path data-name="線 120644" d="M554.031 1462.54l14.101-14.493"/><path data-name="線 120645" d="M569.744 1447.241l19.724-5.252"/><path data-name="線 120646" d="M555.229 1463.739l14.515-14.493"/><path data-name="線 120647" d="M555.229 1420.238l14.515 14.515"/><path data-name="線 120648" d="M554.031 1421.458l14.101 14.493"/><path data-name="線 120649" d="M589.468 1441.989l-19.724-5.231"/><path data-name="線 120650" d="M554.837 1459.316l13.295-23.364"/><path data-name="線 120651" d="M589.882 1440.376l-20.138-5.623"/><path data-name="線 120652" d="M556.45 1460.122l13.295-23.364"/><path data-name="線 120653" d="M554.031 1462.541l5.231-19.746"/><path data-name="線 120654" d="M554.031 1421.458l5.231 19.724"/><path data-name="線 120655" d="M554.837 1425.076l9.655 16.912"/><path data-name="線 120656" d="M564.099 1442.795h-4.838"/><path data-name="線 120657" d="M565.713 1444.016l2.419 4.032"/><path data-name="線 120658" d="M556.45 1423.878l9.263 16.106"/><path data-name="線 120659" d="M568.131 1441.182h-.806"/><path data-name="線 120660" d="M566.911 1441.989l2.833 5.252"/><path data-name="線 120661" d="M564.099 1441.182h-4.838"/><path data-name="線 120662" d="M568.131 1442.795h-.806"/><path data-name="線 120663" d="M552.004 1465.767l2.027-3.226"/><path data-name="線 120664" d="M593.086 1441.989h-3.618"/><path data-name="線 120665" d="M585.851 1442.795h-17.719"/><path data-name="線 120666" d="M585.851 1441.182h-17.719"/><path data-name="線 120667" d="M569.744 1436.758v-2.005"/><path data-name="線 120668" d="M568.132 1435.952l1.613-1.199"/><path data-name="線 120669" d="M569.744 1449.246v-2.005"/><path data-name="線 120670" d="M568.132 1448.047l1.613 1.199"/><path data-name="線 120671" d="M559.262 1442.795l-1.613-.806"/><path data-name="線 120672" d="M559.262 1441.182l-1.613.806"/><path data-name="線 120673" d="M554.031 1421.459l-2.027-3.226"/><path data-name="線 120674" d="M525.829 1423.878l20.138-5.645"/><path data-name="線 120675" d="M508.11 1436.758l5.231-20.138"/><path data-name="線 120676" d="M508.11 1396.482l5.231 20.138"/><path data-name="線 120677" d="M509.723 1437.172l14.493-14.515"/><path data-name="線 120678" d="M525.829 1421.851l19.332-5.231"/><path data-name="線 120679" d="M510.943 1438.371l14.886-14.493"/><path data-name="線 120680" d="M510.943 1394.869l14.886 14.515"/><path data-name="線 120681" d="M509.723 1396.09l14.493 14.079"/><path data-name="線 120682" d="M545.161 1416.62l-19.332-5.231"/><path data-name="線 120683" d="M510.529 1433.533l13.687-23.364"/><path data-name="線 120684" d="M545.967 1414.615l-20.138-5.231"/><path data-name="線 120685" d="M512.142 1434.753l13.687-23.364"/><path data-name="線 120686" d="M509.723 1437.172l5.231-19.746"/><path data-name="線 120687" d="M509.723 1396.09l5.231 19.724"/><path data-name="線 120688" d="M510.529 1399.315l10.069 17.305"/><path data-name="線 120689" d="M520.206 1417.426h-5.252"/><path data-name="線 120690" d="M521.405 1418.233l2.811 4.424"/><path data-name="線 120691" d="M512.142 1398.509l9.263 16.106"/><path data-name="線 120692" d="M524.216 1415.814h-1.199"/><path data-name="線 120693" d="M522.603 1416.62l3.226 5.231"/><path data-name="線 120694" d="M520.206 1415.814h-5.252"/><path data-name="線 120695" d="M524.216 1417.426h-1.199"/><path data-name="線 120696" d="M508.11 1439.983l1.613-2.811"/><path data-name="線 120697" d="M548.8 1416.62h-3.64"/><path data-name="線 120698" d="M541.935 1417.426h-17.719"/><path data-name="線 120699" d="M541.935 1415.814h-17.719"/><path data-name="線 120700" d="M525.829 1411.389v-2.005"/><path data-name="線 120701" d="M524.216 1410.169l1.613-.785"/><path data-name="線 120702" d="M525.829 1423.464v-1.613"/><path data-name="線 120703" d="M524.216 1422.657l1.613.806"/><path data-name="線 120704" d="M514.954 1417.426l-1.613-.806"/><path data-name="線 120705" d="M514.954 1415.814l-1.613.806"/><path data-name="線 120706" d="M509.723 1396.09l-1.613-3.226"/><path data-name="線 120707" d="M481.521 1398.095l20.138-5.231"/><path data-name="線 120708" d="M463.802 1410.975l5.252-19.724"/><path data-name="線 120709" d="M463.802 1371.114l5.252 20.138"/><path data-name="線 120710" d="M465.415 1411.781l14.515-14.493"/><path data-name="線 120711" d="M481.521 1396.482l19.746-5.231"/><path data-name="線 120712" d="M467.028 1413.002l14.493-14.907"/><path data-name="線 120713" d="M467.028 1369.108l14.493 14.886"/><path data-name="線 120714" d="M465.415 1370.699l14.515 14.101"/><path data-name="線 120715" d="M501.267 1391.252l-19.746-5.231"/><path data-name="線 120716" d="M466.636 1408.164l13.295-23.364"/><path data-name="線 120717" d="M501.659 1389.246l-20.138-5.252"/><path data-name="線 120718" d="M468.248 1408.97l13.273-22.949"/><path data-name="線 120719" d="M465.415 1411.782l5.645-19.724"/><path data-name="線 120720" d="M465.415 1370.699l5.645 19.332"/><path data-name="線 120721" d="M466.636 1373.925l9.655 17.326"/><path data-name="線 120722" d="M475.898 1392.058h-4.838"/><path data-name="線 120723" d="M477.511 1392.864l2.419 4.424"/><path data-name="線 120724" d="M468.248 1373.119l9.263 16.128"/><path data-name="線 120725" d="M479.93 1390.031h-.806"/><path data-name="線 120726" d="M478.71 1391.251l2.811 5.231"/><path data-name="線 120727" d="M475.898 1390.031h-4.838"/><path data-name="線 120728" d="M479.93 1392.058h-.806"/><path data-name="線 120729" d="M463.802 1414.615l1.613-2.833"/><path data-name="線 120730" d="M504.885 1391.251h-3.618"/><path data-name="線 120731" d="M497.649 1392.058H479.93"/><path data-name="線 120732" d="M497.649 1390.031H479.93"/><path data-name="線 120733" d="M481.521 1386.021v-2.027"/><path data-name="線 120734" d="M479.93 1384.8l1.591-.806"/><path data-name="線 120735" d="M481.521 1398.095v-1.613"/><path data-name="線 120736" d="M479.93 1397.288l1.591.806"/><path data-name="線 120737" d="M471.06 1392.057l-1.613-.806"/><path data-name="線 120738" d="M471.06 1390.031l-1.613 1.22"/><path data-name="線 120739" d="M465.415 1370.7l-1.613-3.204"/><path data-name="線 120740" d="M481.521 1449.246l20.138-5.645"/><path data-name="線 120741" d="M463.802 1462.127l5.252-20.138"/><path data-name="線 120742" d="M463.802 1421.851l5.252 20.138"/><path data-name="線 120743" d="M465.415 1462.54l14.515-14.493"/><path data-name="線 120744" d="M481.521 1447.241l19.746-5.252"/><path data-name="線 120745" d="M467.028 1463.739l14.493-14.493"/><path data-name="線 120746" d="M467.028 1420.238l14.493 14.515"/><path data-name="線 120747" d="M465.415 1421.458l14.515 14.493"/><path data-name="線 120748" d="M501.267 1441.989l-19.746-5.231"/><path data-name="線 120749" d="M466.636 1459.316l13.295-23.364"/><path data-name="線 120750" d="M501.659 1440.376l-20.138-5.623"/><path data-name="線 120751" d="M468.248 1460.122l13.273-23.364"/><path data-name="線 120752" d="M465.415 1462.541l5.645-19.746"/><path data-name="線 120753" d="M465.415 1421.458l5.645 19.724"/><path data-name="線 120754" d="M466.636 1425.076l9.655 16.912"/><path data-name="線 120755" d="M475.898 1442.795h-4.838"/><path data-name="線 120756" d="M477.511 1444.016l2.419 4.032"/><path data-name="線 120757" d="M468.248 1423.878l9.263 16.106"/><path data-name="線 120758" d="M479.93 1441.182h-.806"/><path data-name="線 120759" d="M478.71 1441.989l2.811 5.252"/><path data-name="線 120760" d="M475.898 1441.182h-4.838"/><path data-name="線 120761" d="M479.93 1442.795h-.806"/><path data-name="線 120762" d="M463.802 1465.767l1.613-3.226"/><path data-name="線 120763" d="M504.885 1441.989h-3.618"/><path data-name="線 120764" d="M497.649 1442.795H479.93"/><path data-name="線 120765" d="M497.649 1441.182H479.93"/><path data-name="線 120766" d="M481.521 1436.758v-2.005"/><path data-name="線 120767" d="M479.93 1435.952l1.591-1.199"/><path data-name="線 120768" d="M481.521 1449.246v-2.005"/><path data-name="線 120769" d="M479.93 1448.047l1.591 1.199"/><path data-name="線 120770" d="M471.06 1442.795l-1.613-.806"/><path data-name="線 120771" d="M471.06 1441.182l-1.613.806"/><path data-name="線 120772" d="M465.415 1421.459l-1.613-3.226"/><path data-name="線 120773" d="M525.829 1474.615l20.138-5.231"/><path data-name="線 120774" d="M508.11 1487.517l5.231-20.138"/><path data-name="線 120775" d="M508.11 1447.241l5.231 20.138"/><path data-name="線 120776" d="M509.723 1487.909l14.493-14.101"/><path data-name="線 120777" d="M525.829 1472.61l19.332-5.231"/><path data-name="線 120778" d="M510.943 1489.13l14.886-14.515"/><path data-name="線 120779" d="M510.943 1445.628l14.886 14.886"/><path data-name="線 120780" d="M509.723 1446.827l14.493 14.493"/><path data-name="線 120781" d="M545.161 1467.379l-19.332-5.252"/><path data-name="線 120782" d="M510.529 1484.684l13.687-23.364"/><path data-name="線 120783" d="M545.967 1465.766l-20.138-5.252"/><path data-name="線 120784" d="M512.142 1485.491l13.687-23.364"/><path data-name="線 120785" d="M509.723 1487.91l5.231-19.332"/><path data-name="線 120786" d="M509.723 1446.827l5.231 19.746"/><path data-name="線 120787" d="M510.529 1450.445l10.069 16.934"/><path data-name="線 120788" d="M520.206 1468.578h-5.252"/><path data-name="線 120789" d="M521.405 1469.384l2.811 4.424"/><path data-name="線 120790" d="M512.142 1449.66l9.263 16.106"/><path data-name="線 120791" d="M524.216 1466.573h-1.199"/><path data-name="線 120792" d="M522.603 1467.379l3.226 5.231"/><path data-name="線 120793" d="M520.206 1466.573h-5.252"/><path data-name="線 120794" d="M524.216 1468.578h-1.199"/><path data-name="線 120795" d="M508.11 1491.135l1.613-3.226"/><path data-name="線 120796" d="M548.8 1467.379h-3.64"/><path data-name="線 120797" d="M541.935 1468.578h-17.719"/><path data-name="線 120798" d="M541.935 1466.573h-17.719"/><path data-name="線 120799" d="M525.829 1462.127v-1.613"/><path data-name="線 120800" d="M524.216 1461.32l1.613-.806"/><path data-name="線 120801" d="M525.829 1474.615v-2.005"/><path data-name="線 120802" d="M524.216 1473.808l1.613.806"/><path data-name="線 120803" d="M514.954 1468.578l-1.613-1.199"/><path data-name="線 120804" d="M514.954 1466.573l-1.613.806"/><path data-name="線 120805" d="M509.723 1446.827l-1.613-2.811"/><path data-name="線 120806" d="M481.521 1500.005l20.138-5.252"/><path data-name="線 120807" d="M463.802 1512.886l5.252-19.746"/><path data-name="線 120808" d="M463.802 1473.002l5.252 20.138"/><path data-name="線 120809" d="M465.415 1513.692l14.515-14.493"/><path data-name="線 120810" d="M481.521 1498.392l19.746-5.252"/><path data-name="線 120811" d="M467.028 1514.891l14.493-14.886"/><path data-name="線 120812" d="M467.028 1470.997l14.493 14.907"/><path data-name="線 120813" d="M465.415 1472.61l14.515 14.101"/><path data-name="線 120814" d="M501.267 1493.14l-19.746-5.623"/><path data-name="線 120815" d="M466.636 1510.075l13.295-23.364"/><path data-name="線 120816" d="M501.659 1491.135l-20.138-5.231"/><path data-name="線 120817" d="M468.248 1510.859l13.273-23.342"/><path data-name="線 120818" d="M465.415 1513.692l5.645-19.746"/><path data-name="線 120819" d="M465.415 1472.61l5.645 19.332"/><path data-name="線 120820" d="M466.636 1475.835l9.655 17.305"/><path data-name="線 120821" d="M475.898 1493.946h-4.838"/><path data-name="線 120822" d="M477.511 1494.753l2.419 4.446"/><path data-name="線 120823" d="M468.248 1475.029l9.263 16.106"/><path data-name="線 120824" d="M479.93 1491.941h-.806"/><path data-name="線 120825" d="M478.71 1493.14l2.811 5.252"/><path data-name="線 120826" d="M475.898 1491.941h-4.838"/><path data-name="線 120827" d="M479.93 1493.946h-.806"/><path data-name="線 120828" d="M463.802 1516.503l1.613-2.811"/><path data-name="線 120829" d="M504.885 1493.14h-3.618"/><path data-name="線 120830" d="M497.649 1493.946H479.93"/><path data-name="線 120831" d="M497.649 1491.941H479.93"/><path data-name="線 120832" d="M481.521 1487.517v-1.613"/><path data-name="線 120833" d="M479.93 1486.71l1.591-.806"/><path data-name="線 120834" d="M481.521 1500.005v-1.613"/><path data-name="線 120835" d="M479.93 1499.199l1.591.806"/><path data-name="線 120836" d="M471.06 1493.946l-1.613-.806"/><path data-name="線 120837" d="M471.06 1491.941l-1.613 1.199"/><path data-name="線 120838" d="M465.415 1472.61l-1.613-3.226"/><path data-name="線 120839" d="M525.829 1525.766l20.138-5.623"/><path data-name="線 120840" d="M508.11 1538.668l5.231-20.138"/><path data-name="線 120841" d="M508.11 1498.392l5.231 20.138"/><path data-name="線 120842" d="M509.723 1539.06l14.493-14.493"/><path data-name="線 120843" d="M525.829 1523.761l19.332-5.231"/><path data-name="線 120844" d="M510.943 1540.281l14.886-14.515"/><path data-name="線 120845" d="M510.943 1496.78l14.886 14.493"/><path data-name="線 120846" d="M509.723 1497.978l14.493 14.101"/><path data-name="線 120847" d="M545.161 1518.53l-19.332-5.252"/><path data-name="線 120848" d="M510.529 1535.443l13.687-23.364"/><path data-name="線 120849" d="M545.967 1516.504l-20.138-5.231"/><path data-name="線 120850" d="M512.142 1536.642l13.687-23.364"/><path data-name="線 120851" d="M509.723 1539.061l5.231-19.724"/><path data-name="線 120852" d="M509.723 1497.978l5.231 19.332"/><path data-name="線 120853" d="M510.529 1501.204l10.069 17.326"/><path data-name="線 120854" d="M520.206 1519.337h-5.252"/><path data-name="線 120855" d="M521.405 1520.143l2.811 4.424"/><path data-name="線 120856" d="M512.142 1500.397l9.263 16.106"/><path data-name="線 120857" d="M524.216 1517.31h-1.199"/><path data-name="線 120858" d="M522.603 1518.53l3.226 5.231"/><path data-name="線 120859" d="M520.206 1517.31h-5.252"/><path data-name="線 120860" d="M524.216 1519.337h-1.199"/><path data-name="線 120861" d="M508.11 1541.872l1.613-2.811"/><path data-name="線 120862" d="M548.8 1518.53h-3.64"/><path data-name="線 120863" d="M541.935 1519.337h-17.719"/><path data-name="線 120864" d="M541.935 1517.31h-17.719"/><path data-name="線 120865" d="M525.829 1513.278v-2.005"/><path data-name="線 120866" d="M524.216 1512.079l1.613-.806"/><path data-name="線 120867" d="M525.829 1525.374v-1.613"/><path data-name="線 120868" d="M524.216 1524.567l1.613.806"/><path data-name="線 120869" d="M514.954 1519.336l-1.613-.806"/><path data-name="線 120870" d="M514.954 1517.31l-1.613 1.22"/><path data-name="線 120871" d="M509.723 1497.979l-1.613-3.226"/><path data-name="線 120872" d="M569.744 1500.005l20.138-5.252"/><path data-name="線 120873" d="M552.004 1512.886l5.252-19.746"/><path data-name="線 120874" d="M552.004 1473.002l5.252 20.138"/><path data-name="線 120875" d="M554.031 1513.692l14.101-14.493"/><path data-name="線 120876" d="M569.744 1498.392l19.724-5.252"/><path data-name="線 120877" d="M555.229 1514.891l14.515-14.886"/><path data-name="線 120878" d="M555.229 1470.997l14.515 14.907"/><path data-name="線 120879" d="M554.031 1472.61l14.101 14.101"/><path data-name="線 120880" d="M589.468 1493.14l-19.724-5.623"/><path data-name="線 120881" d="M554.837 1510.075l13.295-23.364"/><path data-name="線 120882" d="M589.882 1491.135l-20.138-5.231"/><path data-name="線 120883" d="M556.45 1510.859l13.295-23.342"/><path data-name="線 120884" d="M554.031 1513.692l5.231-19.746"/><path data-name="線 120885" d="M554.031 1472.61l5.231 19.332"/><path data-name="線 120886" d="M554.837 1475.835l9.655 17.305"/><path data-name="線 120887" d="M564.099 1493.946h-4.838"/><path data-name="線 120888" d="M565.713 1494.753l2.419 4.446"/><path data-name="線 120889" d="M556.45 1475.029l9.263 16.106"/><path data-name="線 120890" d="M568.131 1491.941h-.806"/><path data-name="線 120891" d="M566.911 1493.14l2.833 5.252"/><path data-name="線 120892" d="M564.099 1491.941h-4.838"/><path data-name="線 120893" d="M568.131 1493.946h-.806"/><path data-name="線 120894" d="M552.004 1516.503l2.027-2.811"/><path data-name="線 120895" d="M593.086 1493.14h-3.618"/><path data-name="線 120896" d="M585.851 1493.946h-17.719"/><path data-name="線 120897" d="M585.851 1491.941h-17.719"/><path data-name="線 120898" d="M569.744 1487.517v-1.613"/><path data-name="線 120899" d="M568.132 1486.71l1.613-.806"/><path data-name="線 120900" d="M569.744 1500.005v-1.613"/><path data-name="線 120901" d="M568.132 1499.199l1.613.806"/><path data-name="線 120902" d="M559.262 1493.946l-1.613-.806"/><path data-name="線 120903" d="M559.262 1491.941l-1.613 1.199"/><path data-name="線 120904" d="M554.031 1472.61l-2.027-3.226"/><path data-name="線 120905" d="M614.031 1474.615l20.138-5.231"/><path data-name="線 120906" d="M596.312 1487.517l5.252-20.138"/><path data-name="線 120907" d="M596.312 1447.241l5.252 20.138"/><path data-name="線 120908" d="M597.925 1487.909l14.493-14.101"/><path data-name="線 120909" d="M614.031 1472.61l19.332-5.231"/><path data-name="線 120910" d="M599.145 1489.13l14.886-14.515"/><path data-name="線 120911" d="M599.145 1445.628l14.886 14.886"/><path data-name="線 120912" d="M597.925 1446.827l14.493 14.493"/><path data-name="線 120913" d="M633.363 1467.379l-19.332-5.252"/><path data-name="線 120914" d="M598.731 1484.684l13.687-23.364"/><path data-name="線 120915" d="M634.169 1465.766l-20.138-5.252"/><path data-name="線 120916" d="M600.344 1485.491l13.687-23.364"/><path data-name="線 120917" d="M597.925 1487.91l5.231-19.332"/><path data-name="線 120918" d="M597.925 1446.827l5.231 19.746"/><path data-name="線 120919" d="M598.731 1450.445l10.069 16.934"/><path data-name="線 120920" d="M608.407 1468.578h-5.252"/><path data-name="線 120921" d="M610.02 1469.384l2.397 4.424"/><path data-name="線 120922" d="M600.344 1449.66l9.677 16.106"/><path data-name="線 120923" d="M612.418 1466.573h-1.199"/><path data-name="線 120924" d="M610.827 1467.379l3.204 5.231"/><path data-name="線 120925" d="M608.407 1466.573h-5.252"/><path data-name="線 120926" d="M612.418 1468.578h-1.199"/><path data-name="線 120927" d="M596.312 1491.135l1.613-3.226"/><path data-name="線 120928" d="M637.002 1467.379h-3.64"/><path data-name="線 120929" d="M630.159 1468.578h-17.741"/><path data-name="線 120930" d="M630.159 1466.573h-17.741"/><path data-name="線 120931" d="M614.031 1462.127v-1.613"/><path data-name="線 120932" d="M612.418 1461.32l1.613-.806"/><path data-name="線 120933" d="M614.031 1474.615v-2.005"/><path data-name="線 120934" d="M612.418 1473.808l1.613.806"/><path data-name="線 120935" d="M603.155 1468.578l-1.591-1.199"/><path data-name="線 120936" d="M603.155 1466.573l-1.591.806"/><path data-name="線 120937" d="M597.925 1446.827l-1.613-2.811"/><path data-name="線 120938" d="M614.031 1525.766l20.138-5.623"/><path data-name="線 120939" d="M596.312 1538.668l5.252-20.138"/><path data-name="線 120940" d="M596.312 1498.392l5.252 20.138"/><path data-name="線 120941" d="M597.925 1539.06l14.493-14.493"/><path data-name="線 120942" d="M614.031 1523.761l19.332-5.231"/><path data-name="線 120943" d="M599.145 1540.281l14.886-14.515"/><path data-name="線 120944" d="M599.145 1496.78l14.886 14.493"/><path data-name="線 120945" d="M597.925 1497.978l14.493 14.101"/><path data-name="線 120946" d="M633.363 1518.53l-19.332-5.252"/><path data-name="線 120947" d="M598.731 1535.443l13.687-23.364"/><path data-name="線 120948" d="M634.169 1516.504l-20.138-5.231"/><path data-name="線 120949" d="M600.344 1536.642l13.687-23.364"/><path data-name="線 120950" d="M597.925 1539.061l5.231-19.724"/><path data-name="線 120951" d="M597.925 1497.978l5.231 19.332"/><path data-name="線 120952" d="M598.731 1501.204l10.069 17.326"/><path data-name="線 120953" d="M608.407 1519.337h-5.252"/><path data-name="線 120954" d="M610.02 1520.143l2.397 4.424"/><path data-name="線 120955" d="M600.344 1500.397l9.677 16.106"/><path data-name="線 120956" d="M612.418 1517.31h-1.199"/><path data-name="線 120957" d="M610.827 1518.53l3.204 5.231"/><path data-name="線 120958" d="M608.407 1517.31h-5.252"/><path data-name="線 120959" d="M612.418 1519.337h-1.199"/><path data-name="線 120960" d="M596.312 1541.872l1.613-2.811"/><path data-name="線 120961" d="M637.002 1518.53h-3.64"/><path data-name="線 120962" d="M630.159 1519.337h-17.741"/><path data-name="線 120963" d="M630.159 1517.31h-17.741"/><path data-name="線 120964" d="M614.031 1513.278v-2.005"/><path data-name="線 120965" d="M612.418 1512.079l1.613-.806"/><path data-name="線 120966" d="M614.031 1525.374v-1.613"/><path data-name="線 120967" d="M612.418 1524.567l1.613.806"/><path data-name="線 120968" d="M603.155 1519.336l-1.591-.806"/><path data-name="線 120969" d="M603.155 1517.31l-1.591 1.22"/><path data-name="線 120970" d="M597.925 1497.979l-1.613-3.226"/><path data-name="線 120971" d="M576.174 1423.878l14.907 14.493"/><path data-name="線 120972" d="M556.036 1414.615l20.138-5.231"/><path data-name="線 120973" d="M591.081 1394.869l-14.907 14.515"/><path data-name="線 120974" d="M556.842 1416.62l19.332 5.231"/><path data-name="線 120975" d="M577.787 1422.657l14.493 14.515"/><path data-name="線 120976" d="M556.036 1418.233l20.138 5.645"/><path data-name="線 120977" d="M593.893 1396.482l-5.231 20.138"/><path data-name="線 120978" d="M592.28 1396.09l-5.231 19.724"/><path data-name="線 120979" d="M592.28 1437.172l-5.231-19.746"/><path data-name="線 120980" d="M587.049 1415.814h-26.981"/><path data-name="線 120981" d="M593.893 1436.758l-5.231-20.138"/><path data-name="線 120982" d="M587.049 1417.426h-26.981"/><path data-name="線 120983" d="M556.842 1416.62l19.332-5.231"/><path data-name="線 120984" d="M592.28 1396.09l-14.493 14.079"/><path data-name="線 120985" d="M589.882 1398.509l-10.069 17.305"/><path data-name="線 120986" d="M576.174 1411.389l2.833 4.424"/><path data-name="線 120987" d="M579.007 1417.426l-2.833 4.424"/><path data-name="線 120988" d="M591.496 1399.315l-9.677 16.498"/><path data-name="線 120989" d="M581.819 1417.426l.806.806"/><path data-name="線 120990" d="M581.013 1417.426l-3.226 5.231"/><path data-name="線 120991" d="M577.787 1410.169l2.419 4.446"/><path data-name="線 120992" d="M580.206 1418.233l.806.806"/><path data-name="線 120993" d="M556.842 1416.62h-3.618"/><path data-name="線 120994" d="M592.28 1437.172l1.613 2.811"/><path data-name="線 120995" d="M589.882 1434.753l-8.87-15.714"/><path data-name="線 120996" d="M591.495 1433.533l-8.87-15.3"/><path data-name="線 120997" d="M587.049 1417.426l1.613-.806"/><path data-name="線 120998" d="M587.049 1415.814l1.613.806"/><path data-name="線 120999" d="M577.787 1422.657l-1.613.806"/><path data-name="線 121000" d="M576.174 1423.464v-1.613"/><path data-name="線 121001" d="M576.174 1411.389v-2.005"/><path data-name="線 121002" d="M577.787 1410.169l-1.613-.785"/><path data-name="線 121003" d="M592.28 1396.09l1.613-3.226"/><path data-name="線 121004" d="M576.174 1372.726l14.907 14.907"/><path data-name="線 121005" d="M556.036 1363.856l20.138-5.231"/><path data-name="線 121006" d="M591.081 1343.718l-14.907 14.907"/><path data-name="線 121007" d="M556.842 1365.469l19.332 5.231"/><path data-name="線 121008" d="M577.787 1371.92l14.493 14.101"/><path data-name="線 121009" d="M556.036 1367.496l20.138 5.231"/><path data-name="線 121010" d="M593.893 1345.745l-5.231 19.724"/><path data-name="線 121011" d="M592.28 1344.939l-5.231 19.724"/><path data-name="線 121012" d="M592.28 1386.021l-5.231-19.332"/><path data-name="線 121013" d="M587.049 1364.662h-26.981"/><path data-name="線 121014" d="M593.893 1385.607l-5.231-20.138"/><path data-name="線 121015" d="M587.049 1366.689h-26.981"/><path data-name="線 121016" d="M556.842 1365.469l19.332-5.231"/><path data-name="線 121017" d="M592.28 1344.939l-14.493 14.493"/><path data-name="線 121018" d="M589.882 1347.75l-10.069 16.912"/><path data-name="線 121019" d="M576.174 1360.238l2.833 4.424"/><path data-name="線 121020" d="M579.007 1366.689l-2.833 4.01"/><path data-name="線 121021" d="M591.496 1348.556l-9.677 16.106"/><path data-name="線 121022" d="M581.819 1366.689l.806.806"/><path data-name="線 121023" d="M581.013 1366.689l-3.226 5.231"/><path data-name="線 121024" d="M577.787 1359.432l2.419 4.424"/><path data-name="線 121025" d="M580.206 1367.496l.806.806"/><path data-name="線 121026" d="M556.842 1365.469h-3.618"/><path data-name="線 121027" d="M592.28 1386.021l1.613 3.226"/><path data-name="線 121028" d="M589.882 1383.602l-8.87-15.3"/><path data-name="線 121029" d="M591.495 1382.796l-8.87-15.3"/><path data-name="線 121030" d="M587.049 1366.689l1.613-1.22"/><path data-name="線 121031" d="M587.049 1364.662l1.613.806"/><path data-name="線 121032" d="M577.787 1371.92l-1.613.806"/><path data-name="線 121033" d="M576.174 1372.726v-2.027"/><path data-name="線 121034" d="M576.174 1360.238v-1.613"/><path data-name="線 121035" d="M577.787 1359.431l-1.613-.806"/><path data-name="線 121036" d="M592.28 1344.938l1.613-2.833"/></g></g></svg>