<svg xmlns="http://www.w3.org/2000/svg" width="200" height="230"><defs><clipPath id="a"><path data-name="長方形 180" transform="translate(450 1327)" fill="#ccc" d="M0 0h200v230H0z"/></clipPath></defs><g data-name="マスクグループ 584" transform="translate(-450 -1327)" clip-path="url(#a)"><g data-name="グループ 3452" fill="none" stroke="#c49535" stroke-linecap="round" stroke-linejoin="round" stroke-width="1.31"><path data-name="線 123758" d="M637.369 1518.474l-41.971 24.217"/><path data-name="線 123759" d="M548.994 1365.526l-41.578 23.824"/><path data-name="線 123760" d="M505.8 1388.936v-47.212"/><path data-name="線 123761" d="M638.57 1538.258v-198.565"/><path data-name="線 123762" d="M463.829 1543.893v-23.388"/><path data-name="線 123763" d="M579.26 1339.693h-74.661"/><path data-name="線 123764" d="M506.215 1341.724l.808-.415"/><path data-name="線 123765" d="M551.003 1364.325l-41.971-24.632"/><path data-name="線 123766" d="M551.003 1366.749l-46.404-27.056"/><path data-name="線 123767" d="M551.003 1417.586l-41.971 24.217"/><path data-name="線 123768" d="M548.994 1416.385l-41.971 24.196"/><path data-name="線 123769" d="M509.032 1390.945l41.971 24.217"/><path data-name="線 123770" d="M507.831 1392.976l43.172 24.61"/><path data-name="線 123771" d="M551.003 1366.749l-41.971 24.196"/><path data-name="線 123772" d="M505.8 1397.409v-4.433"/><path data-name="線 123773" d="M505.8 1440.188v-47.212"/><path data-name="線 123774" d="M505.8 1391.36l1.223.808"/><path data-name="線 123775" d="M507.023 1392.168l-41.971 24.217"/><path data-name="線 123776" d="M506.215 1341.724l-41.163 23.802"/><path data-name="線 123777" d="M463.829 1390.944v-23.802"/><path data-name="線 123778" d="M550.195 1363.517v-23.824"/><path data-name="線 123779" d="M506.215 1443.812l.808-.393"/><path data-name="線 123780" d="M551.003 1466.413l-41.971-24.61"/><path data-name="線 123781" d="M551.003 1468.837l-46.404-27.034"/><path data-name="線 123782" d="M551.003 1519.697l-41.971 24.196"/><path data-name="線 123783" d="M548.994 1518.474l-41.971 24.217"/><path data-name="線 123784" d="M505.8 1491.024v-47.212"/><path data-name="線 123785" d="M509.032 1493.055l41.971 24.217"/><path data-name="線 123786" d="M507.831 1495.064l43.172 24.632"/><path data-name="線 123787" d="M551.003 1468.838l-41.971 24.217"/><path data-name="線 123788" d="M505.8 1499.519v-4.455"/><path data-name="線 123789" d="M505.8 1542.276v-47.212"/><path data-name="線 123790" d="M505.8 1493.448l1.223.808"/><path data-name="線 123791" d="M507.023 1494.256l-41.971 24.217"/><path data-name="線 123792" d="M506.215 1443.812l-41.163 23.824"/><path data-name="線 123793" d="M594.59 1341.724l.808-.415"/><path data-name="線 123794" d="M638.57 1390.944v-23.802"/><path data-name="線 123795" d="M637.369 1416.385l-41.971 24.196"/><path data-name="線 123796" d="M594.175 1388.936v-47.212"/><path data-name="線 123797" d="M596.206 1388.936v-47.212"/><path data-name="線 123798" d="M592.974 1441.803l-41.971-24.217"/><path data-name="線 123799" d="M592.974 1390.945l-41.971 24.217"/><path data-name="線 123800" d="M597.407 1441.803l-46.404-26.641"/><path data-name="線 123801" d="M595.398 1392.168l-41.971 24.217"/><path data-name="線 123802" d="M594.59 1341.724l-41.163 23.802"/><path data-name="線 123803" d="M592.974 1339.693l-41.971 24.632"/><path data-name="線 123804" d="M637.369 1467.637l-41.578 23.802"/><path data-name="線 123805" d="M638.57 1493.055v-23.802"/><path data-name="線 123806" d="M638.57 1516.464v-23.409"/><path data-name="線 123807" d="M638.57 1543.893v-23.388"/><path data-name="線 123808" d="M594.175 1491.024v-47.212"/><path data-name="線 123809" d="M596.206 1542.276v-47.212"/><path data-name="線 123810" d="M594.175 1499.519v-4.455"/><path data-name="線 123811" d="M594.175 1542.276v-47.212"/><path data-name="線 123812" d="M594.175 1493.448l1.223.808"/><path data-name="線 123813" d="M592.974 1543.893l-41.971-24.196"/><path data-name="線 123814" d="M592.974 1493.055l-41.971 24.217"/><path data-name="線 123815" d="M597.407 1543.892l-46.404-26.619"/><path data-name="線 123816" d="M595.398 1494.256l-41.971 24.217"/><path data-name="線 123817" d="M552.204 1543.893v-23.388"/><path data-name="線 123818" d="M594.59 1443.812l-41.163 23.824"/><path data-name="線 123819" d="M592.974 1441.803l-41.971 24.61"/><path data-name="線 123820" d="M594.175 1493.448l-43.172-24.61"/><path data-name="線 123821" d="M638.57 1465.605v-23.802"/><path data-name="線 123822" d="M649.073 1554.789h-198.15"/><path data-name="線 123823" d="M649.073 1554.789v-225.578"/><path data-name="線 123824" d="M450.923 1554.789v-225.578"/><path data-name="線 123825" d="M649.073 1329.211h-198.15"/><path data-name="線 123826" d="M507.831 1543.499h0"/><path data-name="線 123827" d="M596.206 1542.276l.808-.393"/><path data-name="線 123828" d="M598.63 1543.499h0"/><path data-name="線 123829" d="M599.831 1540.267l-2.817 1.616"/><path data-name="線 123830" d="M507.023 1491.832l-3.647-2.009"/><path data-name="線 123831" d="M551.003 1517.273l-3.232-2.031"/><path data-name="線 123832" d="M463.829 1532.188v-192.495"/><path data-name="線 123833" d="M504.599 1339.693l-40.77 23.824"/><path data-name="線 123834" d="M507.831 1390.136l-44.002-25.418"/><path data-name="線 123835" d="M505.8 1391.359l-41.971-24.217"/><path data-name="線 123836" d="M504.599 1543.892h-40.77"/><path data-name="線 123837" d="M638.57 1543.892H504.599"/><path data-name="線 123838" d="M597.407 1493.055l41.163 23.409"/><path data-name="線 123839" d="M596.206 1495.064l42.364 24.217"/><path data-name="線 123840" d="M638.57 1520.505l-41.163 23.388"/><path data-name="線 123841" d="M597.407 1390.945l41.163 23.824"/><path data-name="線 123842" d="M596.206 1392.976l42.364 24.217"/><path data-name="線 123843" d="M638.57 1418.394l-41.163 23.409"/><path data-name="線 123844" d="M638.57 1363.517l-41.163-23.824"/><path data-name="線 123845" d="M638.57 1365.941l-45.596-26.248"/><path data-name="線 123846" d="M638.57 1367.142l-41.163 23.802"/><path data-name="線 123847" d="M638.57 1339.693H463.829"/><path data-name="線 123848" d="M450.923 1329.211l12.906 10.482"/><path data-name="線 123849" d="M638.57 1339.693l10.504-10.482"/><path data-name="線 123850" d="M450.923 1554.789l12.906-10.897"/><path data-name="線 123851" d="M638.57 1543.892l10.504 10.897"/><path data-name="線 123852" d="M504.599 1390.945l-40.77 23.824"/><path data-name="線 123853" d="M509.032 1441.803l-45.203-25.833"/><path data-name="線 123854" d="M504.599 1441.803l-40.77-23.409"/><path data-name="線 123855" d="M504.599 1493.055l-40.77 23.409"/><path data-name="線 123856" d="M509.032 1543.893l-45.203-25.812"/><path data-name="線 123857" d="M504.599 1543.893l-40.77-23.388"/><path data-name="線 123858" d="M507.831 1492.247l1.201.808"/><path data-name="線 123859" d="M507.023 1494.256l.808.808"/><path data-name="線 123860" d="M596.206 1499.519v-4.455"/><path data-name="線 123861" d="M596.206 1491.024v-47.212"/><path data-name="線 123862" d="M596.206 1492.247l1.201.808"/><path data-name="線 123863" d="M596.206 1492.247l-.808-.415"/><path data-name="線 123864" d="M594.175 1491.024l-43.172-24.61"/><path data-name="線 123865" d="M595.791 1491.439l-.393.393"/><path data-name="線 123866" d="M595.398 1491.832l-1.223-.808"/><path data-name="線 123867" d="M595.398 1494.256l.808.808"/><path data-name="線 123868" d="M594.175 1443.812l1.223-.393"/><path data-name="線 123869" d="M597.407 1390.944l-46.404-26.619"/><path data-name="線 123870" d="M596.599 1392.975l-45.596-26.226"/><path data-name="線 123871" d="M637.369 1365.526l-41.971 24.217"/><path data-name="線 123872" d="M638.57 1465.605l-41.163-23.802"/><path data-name="線 123873" d="M638.57 1468.029l-45.596-26.226"/><path data-name="線 123874" d="M638.57 1469.253l-41.163 23.802"/><path data-name="線 123875" d="M638.57 1465.606l-2.424-1.201"/><path data-name="線 123876" d="M504.599 1441.803l-40.77 23.802"/><path data-name="線 123877" d="M507.831 1492.247l-44.002-25.418"/><path data-name="線 123878" d="M505.8 1493.449l-41.971-24.196"/><path data-name="線 123879" d="M548.994 1467.637l-41.971 24.196"/><path data-name="線 123880" d="M507.831 1542.276v-47.212"/><path data-name="線 123881" d="M507.831 1491.024v-47.212"/><path data-name="線 123882" d="M507.023 1392.168l.808.808"/><path data-name="線 123883" d="M509.032 1390.945l-1.201-.808"/><path data-name="線 123884" d="M507.416 1389.351l-.393.393"/><path data-name="線 123885" d="M507.831 1440.188v-47.212"/><path data-name="線 123886" d="M507.831 1388.936v-47.212"/><path data-name="線 123887" d="M550.195 1363.518v-11.312"/><path data-name="線 123888" d="M552.204 1363.517v-23.824"/><path data-name="線 123889" d="M550.195 1543.893v-23.388"/><path data-name="線 123890" d="M550.195 1516.465v-47.212"/><path data-name="線 123891" d="M552.204 1541.076v-20.571"/><path data-name="線 123892" d="M552.204 1516.465v-47.212"/><path data-name="線 123893" d="M594.175 1440.188v-47.212"/><path data-name="線 123894" d="M596.206 1440.188v-47.212"/><path data-name="線 123895" d="M550.195 1465.606v-47.212"/><path data-name="線 123896" d="M550.195 1414.769v-47.627"/><path data-name="線 123897" d="M552.204 1414.769v-47.627"/><path data-name="線 123898" d="M552.204 1465.606v-47.212"/><path data-name="線 123899" d="M485.229 1404.68l-6.857 11.705"/><path data-name="線 123900" d="M498.943 1428.09l6.857-11.705"/><path data-name="線 123901" d="M498.943 1404.68h-13.714"/><path data-name="線 123902" d="M478.372 1416.385l6.857 11.705"/><path data-name="線 123903" d="M479.181 1417.193h-12.928"/><path data-name="線 123904" d="M479.181 1415.577h-12.928"/><path data-name="線 123905" d="M480.796 1416.385l5.634 10.089"/><path data-name="線 123906" d="M486.43 1406.296l-5.634 10.089"/><path data-name="線 123907" d="M505.8 1416.385l-6.857-11.705"/><path data-name="線 123908" d="M497.742 1406.296H486.43"/><path data-name="線 123909" d="M503.791 1416.385l-6.049-10.089"/><path data-name="線 123910" d="M497.742 1426.474l6.049-10.089"/><path data-name="線 123911" d="M497.742 1426.474H486.43"/><path data-name="線 123912" d="M498.943 1428.09h-13.714"/><path data-name="線 123913" d="M504.184 1439.38l-6.442-11.29"/><path data-name="線 123914" d="M505.8 1438.179l-6.442-10.897"/><path data-name="線 123915" d="M504.184 1393.784l-6.442 10.897"/><path data-name="線 123916" d="M505.8 1394.592l-6.442 10.897"/><path data-name="線 123917" d="M506.215 1392.561l-2.031 1.223"/><path data-name="線 123918" d="M505.8 1394.592v-1.616"/><path data-name="線 123919" d="M485.229 1404.68l1.201 1.616"/><path data-name="線 123920" d="M480.796 1416.385h-2.424"/><path data-name="線 123921" d="M485.229 1428.09l1.201-1.616"/><path data-name="線 123922" d="M497.742 1426.474l1.201 1.616"/><path data-name="線 123923" d="M505.8 1416.385h-2.009"/><path data-name="線 123924" d="M497.742 1406.296l1.201-1.616"/><path data-name="線 123925" d="M485.229 1353.429l-6.857 12.098"/><path data-name="線 123926" d="M498.943 1377.231l6.857-11.705"/><path data-name="線 123927" d="M498.943 1353.429h-13.714"/><path data-name="線 123928" d="M478.372 1365.526l6.857 11.705"/><path data-name="線 123929" d="M479.181 1366.334h-12.928"/><path data-name="線 123930" d="M479.181 1364.325h-12.928"/><path data-name="線 123931" d="M480.796 1365.526l5.634 9.696"/><path data-name="線 123932" d="M486.43 1355.438l-5.634 10.089"/><path data-name="線 123933" d="M505.8 1365.527l-6.857-12.098"/><path data-name="線 123934" d="M497.742 1355.438H486.43"/><path data-name="線 123935" d="M503.791 1365.527l-6.049-10.089"/><path data-name="線 123936" d="M497.742 1375.222l6.049-9.696"/><path data-name="線 123937" d="M497.742 1375.222H486.43"/><path data-name="線 123938" d="M498.943 1377.231h-13.714"/><path data-name="線 123939" d="M504.184 1388.128l-6.442-10.897"/><path data-name="線 123940" d="M505.8 1387.32l-6.442-10.897"/><path data-name="線 123941" d="M504.184 1342.532l-6.442 10.897"/><path data-name="線 123942" d="M505.8 1343.733l-6.442 10.897"/><path data-name="線 123943" d="M505.8 1343.733v-2.009"/><path data-name="線 123944" d="M485.229 1353.429l1.201 2.009"/><path data-name="線 123945" d="M480.796 1365.526h-2.424"/><path data-name="線 123946" d="M485.229 1377.231l1.201-2.009"/><path data-name="線 123947" d="M497.742 1375.222l1.201 2.009"/><path data-name="線 123948" d="M505.8 1365.526h-2.009"/><path data-name="線 123949" d="M497.742 1355.438l1.201-2.009"/><path data-name="線 123950" d="M505.8 1388.936v-1.616"/><path data-name="線 123951" d="M529.625 1379.262l-6.879 11.683"/><path data-name="線 123952" d="M543.338 1402.65l6.857-11.705"/><path data-name="線 123953" d="M543.338 1379.262h-13.714"/><path data-name="線 123954" d="M522.746 1390.945l6.879 11.705"/><path data-name="線 123955" d="M523.161 1391.753h-12.513"/><path data-name="線 123956" d="M523.161 1390.137h-12.513"/><path data-name="線 123957" d="M524.776 1390.945l5.656 10.089"/><path data-name="線 123958" d="M530.432 1380.856l-5.656 10.089"/><path data-name="線 123959" d="M550.195 1390.945l-6.857-11.683"/><path data-name="線 123960" d="M542.115 1380.856h-11.683"/><path data-name="線 123961" d="M547.771 1390.945l-5.656-10.089"/><path data-name="線 123962" d="M542.115 1401.034l5.656-10.089"/><path data-name="線 123963" d="M542.115 1401.034h-11.683"/><path data-name="線 123964" d="M543.338 1402.649h-13.714"/><path data-name="線 123965" d="M548.579 1413.546l-6.464-10.897"/><path data-name="線 123966" d="M550.195 1412.738l-6.464-10.897"/><path data-name="線 123967" d="M548.579 1368.365l-6.464 10.897"/><path data-name="線 123968" d="M550.195 1369.173l-6.464 10.875"/><path data-name="線 123969" d="M550.195 1369.173v-2.031"/><path data-name="線 123970" d="M529.624 1379.262l.808 1.594"/><path data-name="線 123971" d="M524.777 1390.945h-2.031"/><path data-name="線 123972" d="M529.624 1402.65l.808-1.616"/><path data-name="線 123973" d="M542.115 1401.034l1.223 1.616"/><path data-name="線 123974" d="M550.195 1390.945h-2.424"/><path data-name="線 123975" d="M542.115 1380.856l1.223-1.594"/><path data-name="線 123976" d="M550.195 1414.769v-2.031"/><path data-name="線 123977" d="M529.625 1430.099l-6.879 11.705"/><path data-name="線 123978" d="M543.338 1453.901l6.857-12.098"/><path data-name="線 123979" d="M543.338 1430.099h-13.714"/><path data-name="線 123980" d="M522.746 1441.803l6.879 12.098"/><path data-name="線 123981" d="M523.161 1443.005h-12.513"/><path data-name="線 123982" d="M523.161 1440.996h-12.513"/><path data-name="線 123983" d="M524.776 1441.803l5.656 10.089"/><path data-name="線 123984" d="M530.432 1432.108l-5.656 9.696"/><path data-name="線 123985" d="M550.195 1441.804l-6.857-11.705"/><path data-name="線 123986" d="M542.115 1432.108h-11.683"/><path data-name="線 123987" d="M547.771 1441.804l-5.656-9.696"/><path data-name="線 123988" d="M542.115 1451.892l5.656-10.089"/><path data-name="線 123989" d="M542.115 1451.892h-11.683"/><path data-name="線 123990" d="M543.338 1453.901h-13.714"/><path data-name="線 123991" d="M548.579 1464.798l-6.464-10.897"/><path data-name="線 123992" d="M550.195 1463.597l-6.464-10.897"/><path data-name="線 123993" d="M548.579 1419.202l-6.464 10.897"/><path data-name="線 123994" d="M550.195 1420.01l-6.464 10.897"/><path data-name="線 123995" d="M550.195 1420.01v-1.616"/><path data-name="線 123996" d="M529.624 1430.099l.808 2.009"/><path data-name="線 123997" d="M524.777 1441.803h-2.031"/><path data-name="線 123998" d="M529.624 1453.901l.808-2.009"/><path data-name="線 123999" d="M542.115 1451.892l1.223 2.009"/><path data-name="線 124000" d="M550.195 1441.803h-2.424"/><path data-name="線 124001" d="M542.115 1432.108l1.223-2.009"/><path data-name="線 124002" d="M550.195 1465.606v-2.009"/><path data-name="線 124003" d="M485.229 1455.517l-6.857 12.12"/><path data-name="線 124004" d="M498.943 1479.342l6.857-11.705"/><path data-name="線 124005" d="M498.943 1455.517h-13.714"/><path data-name="線 124006" d="M478.372 1467.637l6.857 11.705"/><path data-name="線 124007" d="M479.181 1468.445h-12.928"/><path data-name="線 124008" d="M479.181 1466.414h-12.928"/><path data-name="線 124009" d="M480.796 1467.637l5.634 9.674"/><path data-name="線 124010" d="M486.43 1457.548l-5.634 10.089"/><path data-name="線 124011" d="M505.8 1467.637l-6.857-12.12"/><path data-name="線 124012" d="M497.742 1457.548H486.43"/><path data-name="線 124013" d="M503.791 1467.637l-6.049-10.089"/><path data-name="線 124014" d="M497.742 1477.311l6.049-9.674"/><path data-name="線 124015" d="M497.742 1477.311H486.43"/><path data-name="線 124016" d="M498.943 1479.342h-13.714"/><path data-name="線 124017" d="M504.184 1490.239l-6.442-10.897"/><path data-name="線 124018" d="M505.8 1489.431l-6.442-10.897"/><path data-name="線 124019" d="M504.184 1444.62l-6.442 10.897"/><path data-name="線 124020" d="M505.8 1445.843l-6.442 10.897"/><path data-name="線 124021" d="M505.8 1445.843v-2.031"/><path data-name="線 124022" d="M485.229 1455.517l1.201 2.031"/><path data-name="線 124023" d="M480.796 1467.637h-2.424"/><path data-name="線 124024" d="M485.229 1479.342l1.201-2.031"/><path data-name="線 124025" d="M497.742 1477.311l1.201 2.031"/><path data-name="線 124026" d="M505.8 1467.637h-2.009"/><path data-name="線 124027" d="M497.742 1457.548l1.201-2.031"/><path data-name="線 124028" d="M505.8 1491.024v-1.594"/><path data-name="線 124029" d="M485.229 1506.769l-6.857 11.705"/><path data-name="線 124030" d="M498.943 1530.179l6.857-11.705"/><path data-name="線 124031" d="M498.943 1506.769h-13.714"/><path data-name="線 124032" d="M478.372 1518.474l6.857 11.705"/><path data-name="線 124033" d="M479.181 1519.282h-12.928"/><path data-name="線 124034" d="M479.181 1517.666h-12.928"/><path data-name="線 124035" d="M480.796 1518.474l5.634 10.089"/><path data-name="線 124036" d="M486.43 1508.385l-5.634 10.089"/><path data-name="線 124037" d="M505.8 1518.474l-6.857-11.705"/><path data-name="線 124038" d="M497.742 1508.385H486.43"/><path data-name="線 124039" d="M503.791 1518.474l-6.049-10.089"/><path data-name="線 124040" d="M497.742 1528.563l6.049-10.089"/><path data-name="線 124041" d="M497.742 1528.562H486.43"/><path data-name="線 124042" d="M498.943 1530.178h-13.714"/><path data-name="線 124043" d="M504.184 1541.075l-6.442-10.897"/><path data-name="線 124044" d="M505.8 1540.267l-6.442-10.897"/><path data-name="線 124045" d="M504.184 1495.872l-6.442 10.897"/><path data-name="線 124046" d="M505.8 1496.68l-6.442 10.897"/><path data-name="線 124047" d="M505.8 1496.68v-1.616"/><path data-name="線 124048" d="M485.229 1506.769l1.201 1.616"/><path data-name="線 124049" d="M480.796 1518.474h-2.424"/><path data-name="線 124050" d="M485.229 1530.178l1.201-1.616"/><path data-name="線 124051" d="M497.742 1528.562l1.201 1.616"/><path data-name="線 124052" d="M505.8 1518.474h-2.009"/><path data-name="線 124053" d="M497.742 1508.385l1.201-1.616"/><path data-name="線 124054" d="M505.8 1542.276v-2.009"/><path data-name="線 124055" d="M529.625 1481.351l-6.879 11.705"/><path data-name="線 124056" d="M543.338 1504.76l6.857-11.705"/><path data-name="線 124057" d="M543.338 1481.351h-13.714"/><path data-name="線 124058" d="M522.746 1493.055l6.879 11.705"/><path data-name="線 124059" d="M523.161 1493.863h-12.513"/><path data-name="線 124060" d="M523.161 1492.247h-12.513"/><path data-name="線 124061" d="M524.776 1493.055l5.656 10.089"/><path data-name="線 124062" d="M530.432 1482.967l-5.656 10.089"/><path data-name="線 124063" d="M550.195 1493.056l-6.857-11.705"/><path data-name="線 124064" d="M542.115 1482.967h-11.683"/><path data-name="線 124065" d="M547.771 1493.056l-5.656-10.089"/><path data-name="線 124066" d="M542.115 1503.144l5.656-10.089"/><path data-name="線 124067" d="M542.115 1503.144h-11.683"/><path data-name="線 124068" d="M543.338 1504.76h-13.714"/><path data-name="線 124069" d="M548.579 1515.657l-6.464-10.897"/><path data-name="線 124070" d="M550.195 1514.849l-6.464-10.897"/><path data-name="線 124071" d="M548.579 1470.454l-6.464 10.897"/><path data-name="線 124072" d="M550.195 1471.262l-6.464 10.897"/><path data-name="線 124073" d="M550.195 1471.262v-2.009"/><path data-name="線 124074" d="M529.624 1481.351l.808 1.616"/><path data-name="線 124075" d="M524.777 1493.055h-2.031"/><path data-name="線 124076" d="M529.624 1504.76l.808-1.616"/><path data-name="線 124077" d="M542.115 1503.144l1.223 1.616"/><path data-name="線 124078" d="M550.195 1493.055h-2.424"/><path data-name="線 124079" d="M542.115 1482.967l1.223-1.616"/><path data-name="線 124080" d="M550.195 1516.465v-1.616"/><path data-name="線 124081" d="M573.604 1353.429l-6.857 12.098"/><path data-name="線 124082" d="M587.318 1377.231l6.857-11.705"/><path data-name="線 124083" d="M587.318 1353.429h-13.714"/><path data-name="線 124084" d="M566.747 1365.526l6.857 11.705"/><path data-name="線 124085" d="M567.556 1366.334h-12.513"/><path data-name="線 124086" d="M567.556 1364.325h-12.513"/><path data-name="線 124087" d="M569.171 1365.526l5.634 9.696"/><path data-name="線 124088" d="M574.805 1355.438l-5.634 10.089"/><path data-name="線 124089" d="M594.175 1365.527l-6.857-12.098"/><path data-name="線 124090" d="M586.51 1355.438h-11.705"/><path data-name="線 124091" d="M592.166 1365.527l-5.656-10.089"/><path data-name="線 124092" d="M586.51 1375.222l5.656-9.696"/><path data-name="線 124093" d="M586.51 1375.222h-11.705"/><path data-name="線 124094" d="M587.318 1377.231h-13.714"/><path data-name="線 124095" d="M592.559 1388.128l-6.049-10.897"/><path data-name="線 124096" d="M594.175 1387.32l-6.442-10.897"/><path data-name="線 124097" d="M592.559 1342.532l-6.049 10.897"/><path data-name="線 124098" d="M594.175 1343.733l-6.442 10.897"/><path data-name="線 124099" d="M594.175 1343.733v-2.009"/><path data-name="線 124100" d="M573.604 1353.429l1.201 2.009"/><path data-name="線 124101" d="M569.171 1365.526h-2.424"/><path data-name="線 124102" d="M573.604 1377.231l1.201-2.009"/><path data-name="線 124103" d="M586.51 1375.222l.808 2.009"/><path data-name="線 124104" d="M594.175 1365.526h-2.009"/><path data-name="線 124105" d="M586.51 1355.438l.808-2.009"/><path data-name="線 124106" d="M594.175 1388.936v-1.616"/><path data-name="線 124107" d="M573.604 1404.68l-6.857 11.705"/><path data-name="線 124108" d="M587.318 1428.09l6.857-11.705"/><path data-name="線 124109" d="M587.318 1404.68h-13.714"/><path data-name="線 124110" d="M566.747 1416.385l6.857 11.705"/><path data-name="線 124111" d="M567.556 1417.193h-12.513"/><path data-name="線 124112" d="M567.556 1415.577h-12.513"/><path data-name="線 124113" d="M569.171 1416.385l5.634 10.089"/><path data-name="線 124114" d="M574.805 1406.296l-5.634 10.089"/><path data-name="線 124115" d="M594.175 1416.385l-6.857-11.705"/><path data-name="線 124116" d="M586.51 1406.296h-11.705"/><path data-name="線 124117" d="M592.166 1416.385l-5.656-10.089"/><path data-name="線 124118" d="M586.51 1426.474l5.656-10.089"/><path data-name="線 124119" d="M586.51 1426.474h-11.705"/><path data-name="線 124120" d="M587.318 1428.09h-13.714"/><path data-name="線 124121" d="M592.559 1439.38l-6.049-11.29"/><path data-name="線 124122" d="M594.175 1438.179l-6.442-10.897"/><path data-name="線 124123" d="M592.559 1393.784l-6.049 10.897"/><path data-name="線 124124" d="M594.175 1394.592l-6.442 10.897"/><path data-name="線 124125" d="M594.175 1394.592v-1.616"/><path data-name="線 124126" d="M573.604 1404.68l1.201 1.616"/><path data-name="線 124127" d="M569.171 1416.385h-2.424"/><path data-name="線 124128" d="M573.604 1428.09l1.201-1.616"/><path data-name="線 124129" d="M586.51 1426.474l.808 1.616"/><path data-name="線 124130" d="M594.175 1416.385h-2.009"/><path data-name="線 124131" d="M586.51 1406.296l.808-1.616"/><path data-name="線 124132" d="M594.175 1440.188v-2.009"/><path data-name="線 124133" d="M573.604 1455.517l-6.857 12.12"/><path data-name="線 124134" d="M587.318 1479.342l6.857-11.705"/><path data-name="線 124135" d="M587.318 1455.517h-13.714"/><path data-name="線 124136" d="M566.747 1467.637l6.857 11.705"/><path data-name="線 124137" d="M567.556 1468.445h-12.513"/><path data-name="線 124138" d="M567.556 1466.414h-12.513"/><path data-name="線 124139" d="M569.171 1467.637l5.634 9.674"/><path data-name="線 124140" d="M574.805 1457.548l-5.634 10.089"/><path data-name="線 124141" d="M594.175 1467.637l-6.857-12.12"/><path data-name="線 124142" d="M586.51 1457.548h-11.705"/><path data-name="線 124143" d="M592.166 1467.637l-5.656-10.089"/><path data-name="線 124144" d="M586.51 1477.311l5.656-9.674"/><path data-name="線 124145" d="M586.51 1477.311h-11.705"/><path data-name="線 124146" d="M587.318 1479.342h-13.714"/><path data-name="線 124147" d="M592.559 1490.239l-6.049-10.897"/><path data-name="線 124148" d="M594.175 1489.431l-6.442-10.897"/><path data-name="線 124149" d="M592.559 1444.62l-6.049 10.897"/><path data-name="線 124150" d="M594.175 1445.843l-6.442 10.897"/><path data-name="線 124151" d="M594.175 1445.843v-2.031"/><path data-name="線 124152" d="M573.604 1455.517l1.201 2.031"/><path data-name="線 124153" d="M569.171 1467.637h-2.424"/><path data-name="線 124154" d="M573.604 1479.342l1.201-2.031"/><path data-name="線 124155" d="M586.51 1477.311l.808 2.031"/><path data-name="線 124156" d="M594.175 1467.637h-2.009"/><path data-name="線 124157" d="M586.51 1457.548l.808-2.031"/><path data-name="線 124158" d="M594.175 1491.024v-1.594"/><path data-name="線 124159" d="M617.999 1430.099l-6.857 11.705"/><path data-name="線 124160" d="M631.713 1453.901l6.857-12.098"/><path data-name="線 124161" d="M631.713 1430.099h-13.714"/><path data-name="線 124162" d="M611.142 1441.803l6.857 12.098"/><path data-name="線 124163" d="M611.536 1443.005h-12.513"/><path data-name="線 124164" d="M611.536 1440.996h-12.513"/><path data-name="線 124165" d="M613.151 1441.803l5.656 10.089"/><path data-name="線 124166" d="M618.807 1432.108l-5.656 9.696"/><path data-name="線 124167" d="M638.57 1441.804l-6.857-11.705"/><path data-name="線 124168" d="M630.512 1432.108h-11.705"/><path data-name="線 124169" d="M636.146 1441.804l-5.634-9.696"/><path data-name="線 124170" d="M630.512 1451.892l5.634-10.089"/><path data-name="線 124171" d="M630.512 1451.892h-11.705"/><path data-name="線 124172" d="M631.713 1453.901h-13.714"/><path data-name="線 124173" d="M636.954 1464.798l-6.442-10.897"/><path data-name="線 124174" d="M638.57 1463.597l-6.442-10.897"/><path data-name="線 124175" d="M636.954 1419.202l-6.442 10.897"/><path data-name="線 124176" d="M638.57 1420.01l-6.442 10.897"/><path data-name="線 124177" d="M638.57 1420.01v-1.616"/><path data-name="線 124178" d="M617.999 1430.099l.808 2.009"/><path data-name="線 124179" d="M613.151 1441.803h-2.009"/><path data-name="線 124180" d="M617.999 1453.901l.808-2.009"/><path data-name="線 124181" d="M630.512 1451.892l1.201 2.009"/><path data-name="線 124182" d="M638.57 1441.803h-2.424"/><path data-name="線 124183" d="M630.512 1432.108l1.201-2.009"/><path data-name="線 124184" d="M638.57 1465.606v-2.009"/><path data-name="線 124185" d="M617.999 1379.262l-6.857 11.683"/><path data-name="線 124186" d="M631.713 1402.65l6.857-11.705"/><path data-name="線 124187" d="M631.713 1379.262h-13.714"/><path data-name="線 124188" d="M611.142 1390.945l6.857 11.705"/><path data-name="線 124189" d="M611.536 1391.753h-12.513"/><path data-name="線 124190" d="M611.536 1390.137h-12.513"/><path data-name="線 124191" d="M613.151 1390.945l5.656 10.089"/><path data-name="線 124192" d="M618.807 1380.856l-5.656 10.089"/><path data-name="線 124193" d="M638.57 1390.945l-6.857-11.683"/><path data-name="線 124194" d="M630.512 1380.856h-11.705"/><path data-name="線 124195" d="M636.146 1390.945l-5.634-10.089"/><path data-name="線 124196" d="M630.512 1401.034l5.634-10.089"/><path data-name="線 124197" d="M630.512 1401.034h-11.705"/><path data-name="線 124198" d="M631.713 1402.649h-13.714"/><path data-name="線 124199" d="M636.954 1413.546l-6.442-10.897"/><path data-name="線 124200" d="M638.57 1412.738l-6.442-10.897"/><path data-name="線 124201" d="M636.954 1368.365l-6.442 10.897"/><path data-name="線 124202" d="M638.57 1369.173l-6.442 10.875"/><path data-name="線 124203" d="M638.57 1369.173v-2.031"/><path data-name="線 124204" d="M617.999 1379.262l.808 1.594"/><path data-name="線 124205" d="M613.151 1390.945h-2.009"/><path data-name="線 124206" d="M617.999 1402.65l.808-1.616"/><path data-name="線 124207" d="M630.512 1401.034l1.201 1.616"/><path data-name="線 124208" d="M638.57 1390.945h-2.424"/><path data-name="線 124209" d="M630.512 1380.856l1.201-1.594"/><path data-name="線 124210" d="M638.57 1414.769v-2.031"/><path data-name="線 124211" d="M617.999 1481.351l-6.857 11.705"/><path data-name="線 124212" d="M631.713 1504.76l6.857-11.705"/><path data-name="線 124213" d="M631.713 1481.351h-13.714"/><path data-name="線 124214" d="M611.142 1493.055l6.857 11.705"/><path data-name="線 124215" d="M611.536 1493.863h-12.513"/><path data-name="線 124216" d="M611.536 1492.247h-12.513"/><path data-name="線 124217" d="M613.151 1493.055l5.656 10.089"/><path data-name="線 124218" d="M618.807 1482.967l-5.656 10.089"/><path data-name="線 124219" d="M638.57 1493.056l-6.857-11.705"/><path data-name="線 124220" d="M630.512 1482.967h-11.705"/><path data-name="線 124221" d="M636.146 1493.056l-5.634-10.089"/><path data-name="線 124222" d="M630.512 1503.144l5.634-10.089"/><path data-name="線 124223" d="M630.512 1503.144h-11.705"/><path data-name="線 124224" d="M631.713 1504.76h-13.714"/><path data-name="線 124225" d="M636.954 1515.657l-6.442-10.897"/><path data-name="線 124226" d="M638.57 1514.849l-6.442-10.897"/><path data-name="線 124227" d="M636.954 1470.454l-6.442 10.897"/><path data-name="線 124228" d="M638.57 1471.262l-6.442 10.897"/><path data-name="線 124229" d="M638.57 1471.262v-2.009"/><path data-name="線 124230" d="M617.999 1481.351l.808 1.616"/><path data-name="線 124231" d="M613.151 1493.055h-2.009"/><path data-name="線 124232" d="M617.999 1504.76l.808-1.616"/><path data-name="線 124233" d="M630.512 1503.144l1.201 1.616"/><path data-name="線 124234" d="M638.57 1493.055h-2.424"/><path data-name="線 124235" d="M630.512 1482.967l1.201-1.616"/><path data-name="線 124236" d="M638.57 1516.465v-1.616"/><path data-name="線 124237" d="M573.604 1506.769l-6.857 11.705"/><path data-name="線 124238" d="M587.318 1530.179l6.857-11.705"/><path data-name="線 124239" d="M587.318 1506.769h-13.714"/><path data-name="線 124240" d="M566.747 1518.474l6.857 11.705"/><path data-name="線 124241" d="M567.556 1519.282h-12.513"/><path data-name="線 124242" d="M567.556 1517.666h-12.513"/><path data-name="線 124243" d="M569.171 1518.474l5.634 10.089"/><path data-name="線 124244" d="M574.805 1508.385l-5.634 10.089"/><path data-name="線 124245" d="M594.175 1518.474l-6.857-11.705"/><path data-name="線 124246" d="M586.51 1508.385h-11.705"/><path data-name="線 124247" d="M592.166 1518.474l-5.656-10.089"/><path data-name="線 124248" d="M586.51 1528.563l5.656-10.089"/><path data-name="線 124249" d="M586.51 1528.562h-11.705"/><path data-name="線 124250" d="M587.318 1530.178h-13.714"/><path data-name="線 124251" d="M592.559 1541.075l-6.049-10.897"/><path data-name="線 124252" d="M594.175 1540.267l-6.442-10.897"/><path data-name="線 124253" d="M592.559 1495.872l-6.049 10.897"/><path data-name="線 124254" d="M594.175 1496.68l-6.442 10.897"/><path data-name="線 124255" d="M594.175 1496.68v-1.616"/><path data-name="線 124256" d="M573.604 1506.769l1.201 1.616"/><path data-name="線 124257" d="M569.171 1518.474h-2.424"/><path data-name="線 124258" d="M573.604 1530.178l1.201-1.616"/><path data-name="線 124259" d="M586.51 1528.562l.808 1.616"/><path data-name="線 124260" d="M594.175 1518.474h-2.009"/><path data-name="線 124261" d="M586.51 1508.385l.808-1.616"/><path data-name="線 124262" d="M594.175 1542.276v-2.009"/><path data-name="線 124263" d="M463.829 1390.945l6.879 11.705"/><path data-name="線 124264" d="M491.278 1390.945l-6.857-11.683"/><path data-name="線 124265" d="M470.708 1379.262l-6.879 11.683"/><path data-name="線 124266" d="M484.422 1402.649h-13.714"/><path data-name="線 124267" d="M465.445 1413.546l6.049-10.897"/><path data-name="線 124268" d="M463.829 1412.738l6.071-10.897"/><path data-name="線 124269" d="M483.199 1401.034h-11.705"/><path data-name="線 124270" d="M465.86 1390.945l5.634 10.089"/><path data-name="線 124271" d="M484.422 1379.262h-13.714"/><path data-name="線 124272" d="M471.494 1380.856l-5.634 10.089"/><path data-name="線 124273" d="M483.199 1380.856h-11.705"/><path data-name="線 124274" d="M488.854 1390.945l-5.656-10.089"/><path data-name="線 124275" d="M483.198 1401.034l5.656-10.089"/><path data-name="線 124276" d="M484.421 1402.65l6.857-11.705"/><path data-name="線 124277" d="M502.983 1391.753H490.47"/><path data-name="線 124278" d="M502.983 1390.137H490.47"/><path data-name="線 124279" d="M463.829 1369.173l6.071 10.875"/><path data-name="線 124280" d="M465.445 1368.365l6.049 10.897"/><path data-name="線 124281" d="M463.829 1367.142l1.616 1.223"/><path data-name="線 124282" d="M465.86 1390.945h-2.031"/><path data-name="線 124283" d="M470.708 1402.65l.786-1.616"/><path data-name="線 124284" d="M484.421 1402.65l-1.223-1.616"/><path data-name="線 124285" d="M491.278 1390.945h-2.424"/><path data-name="線 124286" d="M483.198 1380.856l1.223-1.594"/><path data-name="線 124287" d="M471.494 1380.856l-.786-1.594"/><path data-name="線 124288" d="M502.983 1390.137l1.616.808"/><path data-name="線 124289" d="M507.831 1365.526l6.857 11.705"/><path data-name="線 124290" d="M535.258 1365.527l-6.857-12.098"/><path data-name="線 124291" d="M514.688 1353.429l-6.857 12.098"/><path data-name="線 124292" d="M528.402 1377.231h-13.714"/><path data-name="線 124293" d="M509.447 1388.128l6.442-10.897"/><path data-name="線 124294" d="M507.831 1387.32l6.442-10.897"/><path data-name="線 124295" d="M527.201 1375.222h-11.312"/><path data-name="線 124296" d="M510.255 1365.526l5.634 9.696"/><path data-name="線 124297" d="M528.402 1353.429h-13.714"/><path data-name="線 124298" d="M515.889 1355.438l-5.634 10.089"/><path data-name="線 124299" d="M527.201 1355.438h-11.312"/><path data-name="線 124300" d="M533.249 1365.527l-6.049-10.089"/><path data-name="線 124301" d="M527.2 1375.222l6.049-9.696"/><path data-name="線 124302" d="M528.401 1377.231l6.857-11.705"/><path data-name="線 124303" d="M547.378 1366.334h-12.513"/><path data-name="線 124304" d="M547.378 1364.325h-12.513"/><path data-name="線 124305" d="M507.831 1343.733l6.442 10.897"/><path data-name="線 124306" d="M509.447 1342.532l6.442 10.897"/><path data-name="線 124307" d="M507.831 1341.724l1.616.808"/><path data-name="線 124308" d="M510.255 1365.526h-2.424"/><path data-name="線 124309" d="M514.688 1377.231l1.201-2.009"/><path data-name="線 124310" d="M528.401 1377.231l-1.201-2.009"/><path data-name="線 124311" d="M535.258 1365.526h-2.009"/><path data-name="線 124312" d="M527.2 1355.438l1.201-2.009"/><path data-name="線 124313" d="M515.889 1355.438l-1.201-2.009"/><path data-name="線 124314" d="M547.378 1364.325l1.616 1.201"/><path data-name="線 124315" d="M552.204 1390.945l6.879 11.705"/><path data-name="線 124316" d="M579.653 1390.945l-6.857-11.683"/><path data-name="線 124317" d="M559.083 1379.262l-6.879 11.683"/><path data-name="線 124318" d="M572.797 1402.649h-13.714"/><path data-name="線 124319" d="M553.82 1413.546l6.071-10.897"/><path data-name="線 124320" d="M552.204 1412.738l6.464-10.897"/><path data-name="線 124321" d="M571.596 1401.034h-11.705"/><path data-name="線 124322" d="M554.235 1390.945l5.656 10.089"/><path data-name="線 124323" d="M572.797 1379.262h-13.714"/><path data-name="線 124324" d="M559.891 1380.856l-5.656 10.089"/><path data-name="線 124325" d="M571.596 1380.856h-11.705"/><path data-name="線 124326" d="M577.229 1390.945l-5.634-10.089"/><path data-name="線 124327" d="M571.595 1401.034l5.634-10.089"/><path data-name="線 124328" d="M572.796 1402.65l6.857-11.705"/><path data-name="線 124329" d="M591.358 1391.753h-12.513"/><path data-name="線 124330" d="M591.358 1390.137h-12.513"/><path data-name="線 124331" d="M552.204 1369.173l6.464 10.875"/><path data-name="線 124332" d="M553.82 1368.365l6.071 10.897"/><path data-name="線 124333" d="M552.204 1367.142l1.616 1.223"/><path data-name="線 124334" d="M554.235 1390.945h-2.031"/><path data-name="線 124335" d="M559.083 1402.65l.808-1.616"/><path data-name="線 124336" d="M572.796 1402.65l-1.201-1.616"/><path data-name="線 124337" d="M579.653 1390.945h-2.424"/><path data-name="線 124338" d="M571.595 1380.856l1.201-1.594"/><path data-name="線 124339" d="M559.891 1380.856l-.808-1.594"/><path data-name="線 124340" d="M591.358 1390.137l1.616.808"/><path data-name="線 124341" d="M596.206 1365.526l6.857 11.705"/><path data-name="線 124342" d="M623.633 1365.527l-6.857-12.098"/><path data-name="線 124343" d="M603.063 1353.429l-6.857 12.098"/><path data-name="線 124344" d="M616.777 1377.231h-13.714"/><path data-name="線 124345" d="M597.822 1388.128l6.442-10.897"/><path data-name="線 124346" d="M596.206 1387.32l6.442-10.897"/><path data-name="線 124347" d="M615.969 1375.222h-11.705"/><path data-name="線 124348" d="M598.63 1365.526l5.634 9.696"/><path data-name="線 124349" d="M616.777 1353.429h-13.714"/><path data-name="線 124350" d="M604.264 1355.438l-5.634 10.089"/><path data-name="線 124351" d="M615.969 1355.438h-11.705"/><path data-name="線 124352" d="M621.624 1365.527l-5.656-10.089"/><path data-name="線 124353" d="M615.968 1375.222l5.656-9.696"/><path data-name="線 124354" d="M616.776 1377.231l6.857-11.705"/><path data-name="線 124355" d="M635.753 1366.334H623.24"/><path data-name="線 124356" d="M635.753 1364.325H623.24"/><path data-name="線 124357" d="M596.206 1343.733l6.442 10.897"/><path data-name="線 124358" d="M597.822 1342.532l6.442 10.897"/><path data-name="線 124359" d="M596.206 1341.724l1.616.808"/><path data-name="線 124360" d="M598.63 1365.526h-2.424"/><path data-name="線 124361" d="M603.063 1377.231l1.201-2.009"/><path data-name="線 124362" d="M616.776 1377.231l-.808-2.009"/><path data-name="線 124363" d="M623.633 1365.526h-2.009"/><path data-name="線 124364" d="M615.968 1355.438l.808-2.009"/><path data-name="線 124365" d="M604.264 1355.438l-1.201-2.009"/><path data-name="線 124366" d="M635.753 1364.325l1.616 1.201"/><path data-name="線 124367" d="M596.206 1416.385l6.857 11.705"/><path data-name="線 124368" d="M623.633 1416.385l-6.857-11.705"/><path data-name="線 124369" d="M603.063 1404.68l-6.857 11.705"/><path data-name="線 124370" d="M616.777 1428.09h-13.714"/><path data-name="線 124371" d="M597.822 1439.38l6.442-11.29"/><path data-name="線 124372" d="M596.206 1438.179l6.442-10.897"/><path data-name="線 124373" d="M615.969 1426.474h-11.705"/><path data-name="線 124374" d="M598.63 1416.385l5.634 10.089"/><path data-name="線 124375" d="M616.777 1404.68h-13.714"/><path data-name="線 124376" d="M604.264 1406.296l-5.634 10.089"/><path data-name="線 124377" d="M615.969 1406.296h-11.705"/><path data-name="線 124378" d="M621.624 1416.385l-5.656-10.089"/><path data-name="線 124379" d="M615.968 1426.474l5.656-10.089"/><path data-name="線 124380" d="M616.776 1428.09l6.857-11.705"/><path data-name="線 124381" d="M635.753 1417.193H623.24"/><path data-name="線 124382" d="M635.753 1415.577H623.24"/><path data-name="線 124383" d="M596.206 1394.592l6.442 10.897"/><path data-name="線 124384" d="M597.822 1393.784l6.442 10.897"/><path data-name="線 124385" d="M596.206 1392.976l1.616.808"/><path data-name="線 124386" d="M598.63 1416.385h-2.424"/><path data-name="線 124387" d="M603.063 1428.09l1.201-1.616"/><path data-name="線 124388" d="M616.776 1428.09l-.808-1.616"/><path data-name="線 124389" d="M623.633 1416.385h-2.009"/><path data-name="線 124390" d="M615.968 1406.296l.808-1.616"/><path data-name="線 124391" d="M604.264 1406.296l-1.201-1.616"/><path data-name="線 124392" d="M635.753 1415.577l1.616.808"/><path data-name="線 124393" d="M507.831 1416.385l6.857 11.705"/><path data-name="線 124394" d="M535.258 1416.385l-6.857-11.705"/><path data-name="線 124395" d="M514.688 1404.68l-6.857 11.705"/><path data-name="線 124396" d="M528.402 1428.09h-13.714"/><path data-name="線 124397" d="M509.447 1439.38l6.442-11.29"/><path data-name="線 124398" d="M507.831 1438.179l6.442-10.897"/><path data-name="線 124399" d="M527.201 1426.474h-11.312"/><path data-name="線 124400" d="M510.255 1416.385l5.634 10.089"/><path data-name="線 124401" d="M528.402 1404.68h-13.714"/><path data-name="線 124402" d="M515.889 1406.296l-5.634 10.089"/><path data-name="線 124403" d="M527.201 1406.296h-11.312"/><path data-name="線 124404" d="M533.249 1416.385l-6.049-10.089"/><path data-name="線 124405" d="M527.2 1426.474l6.049-10.089"/><path data-name="線 124406" d="M528.401 1428.09l6.857-11.705"/><path data-name="線 124407" d="M547.378 1417.193h-12.513"/><path data-name="線 124408" d="M547.378 1415.577h-12.513"/><path data-name="線 124409" d="M507.831 1394.592l6.442 10.897"/><path data-name="線 124410" d="M509.447 1393.784l6.442 10.897"/><path data-name="線 124411" d="M507.831 1392.976l1.616.808"/><path data-name="線 124412" d="M510.255 1416.385h-2.424"/><path data-name="線 124413" d="M514.688 1428.09l1.201-1.616"/><path data-name="線 124414" d="M528.401 1428.09l-1.201-1.616"/><path data-name="線 124415" d="M535.258 1416.385h-2.009"/><path data-name="線 124416" d="M527.2 1406.296l1.201-1.616"/><path data-name="線 124417" d="M515.889 1406.296l-1.201-1.616"/><path data-name="線 124418" d="M547.378 1415.577l1.616.808"/><path data-name="線 124419" d="M463.829 1441.803l6.879 12.098"/><path data-name="線 124420" d="M491.278 1441.804l-6.857-11.705"/><path data-name="線 124421" d="M470.708 1430.099l-6.879 11.705"/><path data-name="線 124422" d="M484.422 1453.901h-13.714"/><path data-name="線 124423" d="M465.445 1464.798l6.049-10.897"/><path data-name="線 124424" d="M463.829 1463.597l6.071-10.897"/><path data-name="線 124425" d="M483.199 1451.892h-11.705"/><path data-name="線 124426" d="M465.86 1441.803l5.634 10.089"/><path data-name="線 124427" d="M484.422 1430.099h-13.714"/><path data-name="線 124428" d="M471.494 1432.108l-5.634 9.696"/><path data-name="線 124429" d="M483.199 1432.108h-11.705"/><path data-name="線 124430" d="M488.854 1441.804l-5.656-9.696"/><path data-name="線 124431" d="M483.198 1451.892l5.656-10.089"/><path data-name="線 124432" d="M484.421 1453.901l6.857-12.098"/><path data-name="線 124433" d="M502.983 1443.005H490.47"/><path data-name="線 124434" d="M502.983 1440.996H490.47"/><path data-name="線 124435" d="M463.829 1420.01l6.071 10.897"/><path data-name="線 124436" d="M465.445 1419.202l6.049 10.897"/><path data-name="線 124437" d="M463.829 1418.394l1.616.808"/><path data-name="線 124438" d="M465.86 1441.803h-2.031"/><path data-name="線 124439" d="M470.708 1453.901l.786-2.009"/><path data-name="線 124440" d="M484.421 1453.901l-1.223-2.009"/><path data-name="線 124441" d="M491.278 1441.803h-2.424"/><path data-name="線 124442" d="M483.198 1432.108l1.223-2.009"/><path data-name="線 124443" d="M471.494 1432.108l-.786-2.009"/><path data-name="線 124444" d="M502.983 1440.996l1.616.808"/><path data-name="線 124445" d="M552.204 1441.803l6.879 12.098"/><path data-name="線 124446" d="M579.653 1441.804l-6.857-11.705"/><path data-name="線 124447" d="M559.083 1430.099l-6.879 11.705"/><path data-name="線 124448" d="M572.797 1453.901h-13.714"/><path data-name="線 124449" d="M553.82 1464.798l6.071-10.897"/><path data-name="線 124450" d="M552.204 1463.597l6.464-10.897"/><path data-name="線 124451" d="M571.596 1451.892h-11.705"/><path data-name="線 124452" d="M554.235 1441.803l5.656 10.089"/><path data-name="線 124453" d="M572.797 1430.099h-13.714"/><path data-name="線 124454" d="M559.891 1432.108l-5.656 9.696"/><path data-name="線 124455" d="M571.596 1432.108h-11.705"/><path data-name="線 124456" d="M577.229 1441.804l-5.634-9.696"/><path data-name="線 124457" d="M571.595 1451.892l5.634-10.089"/><path data-name="線 124458" d="M572.796 1453.901l6.857-12.098"/><path data-name="線 124459" d="M591.358 1443.005h-12.513"/><path data-name="線 124460" d="M591.358 1440.996h-12.513"/><path data-name="線 124461" d="M552.204 1420.01l6.464 10.897"/><path data-name="線 124462" d="M553.82 1419.202l6.071 10.897"/><path data-name="線 124463" d="M552.204 1418.394l1.616.808"/><path data-name="線 124464" d="M554.235 1441.803h-2.031"/><path data-name="線 124465" d="M559.083 1453.901l.808-2.009"/><path data-name="線 124466" d="M572.796 1453.901l-1.201-2.009"/><path data-name="線 124467" d="M579.653 1441.803h-2.424"/><path data-name="線 124468" d="M571.595 1432.108l1.201-2.009"/><path data-name="線 124469" d="M559.891 1432.108l-.808-2.009"/><path data-name="線 124470" d="M591.358 1440.996l1.616.808"/><path data-name="線 124471" d="M507.831 1467.637l6.857 11.705"/><path data-name="線 124472" d="M535.258 1467.637l-6.857-12.12"/><path data-name="線 124473" d="M514.688 1455.517l-6.857 12.12"/><path data-name="線 124474" d="M528.402 1479.342h-13.714"/><path data-name="線 124475" d="M509.447 1490.239l6.442-10.897"/><path data-name="線 124476" d="M507.831 1489.431l6.442-10.897"/><path data-name="線 124477" d="M527.201 1477.311h-11.312"/><path data-name="線 124478" d="M510.255 1467.637l5.634 9.674"/><path data-name="線 124479" d="M528.402 1455.517h-13.714"/><path data-name="線 124480" d="M515.889 1457.548l-5.634 10.089"/><path data-name="線 124481" d="M527.201 1457.548h-11.312"/><path data-name="線 124482" d="M533.249 1467.637l-6.049-10.089"/><path data-name="線 124483" d="M527.2 1477.311l6.049-9.674"/><path data-name="線 124484" d="M528.401 1479.342l6.857-11.705"/><path data-name="線 124485" d="M547.378 1468.445h-12.513"/><path data-name="線 124486" d="M547.378 1466.414h-12.513"/><path data-name="線 124487" d="M507.831 1445.843l6.442 10.897"/><path data-name="線 124488" d="M509.447 1444.62l6.442 10.897"/><path data-name="線 124489" d="M507.831 1443.812l1.616.808"/><path data-name="線 124490" d="M510.255 1467.637h-2.424"/><path data-name="線 124491" d="M514.688 1479.342l1.201-2.031"/><path data-name="線 124492" d="M528.401 1479.342l-1.201-2.031"/><path data-name="線 124493" d="M535.258 1467.637h-2.009"/><path data-name="線 124494" d="M527.2 1457.548l1.201-2.031"/><path data-name="線 124495" d="M515.889 1457.548l-1.201-2.031"/><path data-name="線 124496" d="M547.378 1466.414l1.616 1.223"/><path data-name="線 124497" d="M596.206 1467.637l6.857 11.705"/><path data-name="線 124498" d="M623.633 1467.637l-6.857-12.12"/><path data-name="線 124499" d="M603.063 1455.517l-6.857 12.12"/><path data-name="線 124500" d="M616.777 1479.342h-13.714"/><path data-name="線 124501" d="M597.822 1490.239l6.442-10.897"/><path data-name="線 124502" d="M596.206 1489.431l6.442-10.897"/><path data-name="線 124503" d="M615.969 1477.311h-11.705"/><path data-name="線 124504" d="M598.63 1467.637l5.634 9.674"/><path data-name="線 124505" d="M616.777 1455.517h-13.714"/><path data-name="線 124506" d="M604.264 1457.548l-5.634 10.089"/><path data-name="線 124507" d="M615.969 1457.548h-11.705"/><path data-name="線 124508" d="M621.624 1467.637l-5.656-10.089"/><path data-name="線 124509" d="M615.968 1477.311l5.656-9.674"/><path data-name="線 124510" d="M616.776 1479.342l6.857-11.705"/><path data-name="線 124511" d="M635.753 1468.445H623.24"/><path data-name="線 124512" d="M635.753 1466.414H623.24"/><path data-name="線 124513" d="M596.206 1445.843l6.442 10.897"/><path data-name="線 124514" d="M597.822 1444.62l6.442 10.897"/><path data-name="線 124515" d="M596.206 1443.812l1.616.808"/><path data-name="線 124516" d="M598.63 1467.637h-2.424"/><path data-name="線 124517" d="M603.063 1479.342l1.201-2.031"/><path data-name="線 124518" d="M616.776 1479.342l-.808-2.031"/><path data-name="線 124519" d="M623.633 1467.637h-2.009"/><path data-name="線 124520" d="M615.968 1457.548l.808-2.031"/><path data-name="線 124521" d="M604.264 1457.548l-1.201-2.031"/><path data-name="線 124522" d="M635.753 1466.414l1.616 1.223"/><path data-name="線 124523" d="M552.204 1493.055l6.879 11.705"/><path data-name="線 124524" d="M579.653 1493.056l-6.857-11.705"/><path data-name="線 124525" d="M559.083 1481.351l-6.879 11.705"/><path data-name="線 124526" d="M572.797 1504.76h-13.714"/><path data-name="線 124527" d="M553.82 1515.657l6.071-10.897"/><path data-name="線 124528" d="M552.204 1514.849l6.464-10.897"/><path data-name="線 124529" d="M571.596 1503.144h-11.705"/><path data-name="線 124530" d="M554.235 1493.055l5.656 10.089"/><path data-name="線 124531" d="M572.797 1481.351h-13.714"/><path data-name="線 124532" d="M559.891 1482.967l-5.656 10.089"/><path data-name="線 124533" d="M571.596 1482.967h-11.705"/><path data-name="線 124534" d="M577.229 1493.056l-5.634-10.089"/><path data-name="線 124535" d="M571.595 1503.144l5.634-10.089"/><path data-name="線 124536" d="M572.796 1504.76l6.857-11.705"/><path data-name="線 124537" d="M591.358 1493.863h-12.513"/><path data-name="線 124538" d="M591.358 1492.247h-12.513"/><path data-name="線 124539" d="M552.204 1471.262l6.464 10.897"/><path data-name="線 124540" d="M553.82 1470.454l6.071 10.897"/><path data-name="線 124541" d="M552.204 1469.253l1.616 1.201"/><path data-name="線 124542" d="M554.235 1493.055h-2.031"/><path data-name="線 124543" d="M559.083 1504.76l.808-1.616"/><path data-name="線 124544" d="M572.796 1504.76l-1.201-1.616"/><path data-name="線 124545" d="M579.653 1493.055h-2.424"/><path data-name="線 124546" d="M571.595 1482.967l1.201-1.616"/><path data-name="線 124547" d="M559.891 1482.967l-.808-1.616"/><path data-name="線 124548" d="M591.358 1492.247l1.616.808"/><path data-name="線 124549" d="M596.206 1518.474l6.857 11.705"/><path data-name="線 124550" d="M623.633 1518.474l-6.857-11.705"/><path data-name="線 124551" d="M603.063 1506.769l-6.857 11.705"/><path data-name="線 124552" d="M616.777 1530.178h-13.714"/><path data-name="線 124553" d="M597.822 1541.075l6.442-10.897"/><path data-name="線 124554" d="M596.206 1540.267l6.442-10.897"/><path data-name="線 124555" d="M615.969 1528.562h-11.705"/><path data-name="線 124556" d="M598.63 1518.474l5.634 10.089"/><path data-name="線 124557" d="M616.777 1506.769h-13.714"/><path data-name="線 124558" d="M604.264 1508.385l-5.634 10.089"/><path data-name="線 124559" d="M615.969 1508.385h-11.705"/><path data-name="線 124560" d="M621.624 1518.474l-5.656-10.089"/><path data-name="線 124561" d="M615.968 1528.563l5.656-10.089"/><path data-name="線 124562" d="M616.776 1530.179l6.857-11.705"/><path data-name="線 124563" d="M635.753 1519.282H623.24"/><path data-name="線 124564" d="M635.753 1517.666H623.24"/><path data-name="線 124565" d="M596.206 1496.68l6.442 10.897"/><path data-name="線 124566" d="M597.822 1495.872l6.442 10.897"/><path data-name="線 124567" d="M596.206 1495.064l1.616.808"/><path data-name="線 124568" d="M598.63 1518.474h-2.424"/><path data-name="線 124569" d="M603.063 1530.178l1.201-1.616"/><path data-name="線 124570" d="M616.776 1530.178l-.808-1.616"/><path data-name="線 124571" d="M623.633 1518.474h-2.009"/><path data-name="線 124572" d="M615.968 1508.385l.808-1.616"/><path data-name="線 124573" d="M604.264 1508.385l-1.201-1.616"/><path data-name="線 124574" d="M635.753 1517.666l1.616.808"/><path data-name="線 124575" d="M507.831 1518.474l6.857 11.705"/><path data-name="線 124576" d="M535.258 1518.474l-6.857-11.705"/><path data-name="線 124577" d="M514.688 1506.769l-6.857 11.705"/><path data-name="線 124578" d="M528.402 1530.178h-13.714"/><path data-name="線 124579" d="M509.447 1541.075l6.442-10.897"/><path data-name="線 124580" d="M507.831 1540.267l6.442-10.897"/><path data-name="線 124581" d="M527.201 1528.562h-11.312"/><path data-name="線 124582" d="M510.255 1518.474l5.634 10.089"/><path data-name="線 124583" d="M528.402 1506.769h-13.714"/><path data-name="線 124584" d="M515.889 1508.385l-5.634 10.089"/><path data-name="線 124585" d="M527.201 1508.385h-11.312"/><path data-name="線 124586" d="M533.249 1518.474l-6.049-10.089"/><path data-name="線 124587" d="M527.2 1528.563l6.049-10.089"/><path data-name="線 124588" d="M528.401 1530.179l6.857-11.705"/><path data-name="線 124589" d="M547.378 1519.282h-12.513"/><path data-name="線 124590" d="M547.378 1517.666h-12.513"/><path data-name="線 124591" d="M507.831 1496.68l6.442 10.897"/><path data-name="線 124592" d="M509.447 1495.872l6.442 10.897"/><path data-name="線 124593" d="M507.831 1495.064l1.616.808"/><path data-name="線 124594" d="M510.255 1518.474h-2.424"/><path data-name="線 124595" d="M514.688 1530.178l1.201-1.616"/><path data-name="線 124596" d="M528.401 1530.178l-1.201-1.616"/><path data-name="線 124597" d="M535.258 1518.474h-2.009"/><path data-name="線 124598" d="M527.2 1508.385l1.201-1.616"/><path data-name="線 124599" d="M515.889 1508.385l-1.201-1.616"/><path data-name="線 124600" d="M547.378 1517.666l1.616.808"/><path data-name="線 124601" d="M463.829 1493.055l6.879 11.705"/><path data-name="線 124602" d="M491.278 1493.056l-6.857-11.705"/><path data-name="線 124603" d="M470.708 1481.351l-6.879 11.705"/><path data-name="線 124604" d="M484.422 1504.76h-13.714"/><path data-name="線 124605" d="M465.445 1515.657l6.049-10.897"/><path data-name="線 124606" d="M463.829 1514.849l6.071-10.897"/><path data-name="線 124607" d="M483.199 1503.144h-11.705"/><path data-name="線 124608" d="M465.86 1493.055l5.634 10.089"/><path data-name="線 124609" d="M484.422 1481.351h-13.714"/><path data-name="線 124610" d="M471.494 1482.967l-5.634 10.089"/><path data-name="線 124611" d="M483.199 1482.967h-11.705"/><path data-name="線 124612" d="M488.854 1493.056l-5.656-10.089"/><path data-name="線 124613" d="M483.198 1503.144l5.656-10.089"/><path data-name="線 124614" d="M484.421 1504.76l6.857-11.705"/><path data-name="線 124615" d="M502.983 1493.863H490.47"/><path data-name="線 124616" d="M502.983 1492.247H490.47"/><path data-name="線 124617" d="M463.829 1471.262l6.071 10.897"/><path data-name="線 124618" d="M465.445 1470.454l6.049 10.897"/><path data-name="線 124619" d="M463.829 1469.253l1.616 1.201"/><path data-name="線 124620" d="M465.86 1493.055h-2.031"/><path data-name="線 124621" d="M470.708 1504.76l.786-1.616"/><path data-name="線 124622" d="M484.421 1504.76l-1.223-1.616"/><path data-name="線 124623" d="M491.278 1493.055h-2.424"/><path data-name="線 124624" d="M483.198 1482.967l1.223-1.616"/><path data-name="線 124625" d="M471.494 1482.967l-.786-1.616"/><path data-name="線 124626" d="M502.983 1492.247l1.616.808"/></g></g></svg>